<svg id="Слой_1" data-name="Слой 1" xmlns="http://www.w3.org/2000/svg" viewBox="0 0 58.86 76.66"><defs><style>.cls-1{fill:#6a3553}</style></defs><title>icon</title><path class="cls-1" d="M44.32,23.54a1,1,0,1,0-2-.26c0,.24-.72,5.88,3.35,8.76a1,1,0,0,0,.58.18,1,1,0,0,0,.81-.42,1,1,0,0,0-.24-1.39C43.77,28.23,44.32,23.58,44.32,23.54Z"/><path class="cls-1" d="M58.47,21a1,1,0,0,0-.95-.68c-3.18,0-7.58-2.7-8.9-3.56a15.28,15.28,0,0,0-.22-7.94,13.42,13.42,0,0,0-8-7.67C35-.7,28.32,1,20.46,6l-.78-.71C15,1,13.85,0,10.12,0A9.48,9.48,0,0,0,2.43,4.43c-2.95,4.42-4.69,14,3.77,34.4a1,1,0,0,0,.67.59c0,.14,0,.28,0,.43V44.6A4.45,4.45,0,0,0,11.27,49h.83c.23,1.15.45,2.25.67,3.31l-4,.57a1,1,0,0,0,.14,2H9.1l4.08-.58c.32,1.5.62,2.9.91,4.21l-5.28.75A1,1,0,0,0,8,60.41a1,1,0,0,0,1,.86H9.1l5.43-.77c.3,1.28.58,2.46.85,3.55l-4.69.67a1,1,0,0,0-.85,1.14,1,1,0,0,0,1,.85H11L15.87,66c.42,1.61.81,3,1.16,4.15l-4.77.69A1,1,0,0,0,11.41,72a1,1,0,0,0,1,.86h.14l5.11-.73c1.57,4.56,2.41,4.57,2.89,4.57h7.79c.55,0,1.55,0,3.54-6.61l5.85-.83a1,1,0,1,0-.28-2l-5,.71c.36-1.3.74-2.78,1.16-4.49l5.64-.81a1,1,0,0,0-.28-2l-4.86.69c.27-1.17.56-2.44.86-3.8l6.16-.88a1,1,0,1,0-.28-2l-5.43.78c.42-2,.86-4.1,1.32-6.44h3.12a4.45,4.45,0,0,0,4.44-4.44V39.85a1.9,1.9,0,0,0,0-.25c.69.63,1.42,1.26,2.22,1.9a.94.94,0,0,0,.62.22H48a.94.94,0,0,0,.62-.22C61.6,31.06,58.6,21.38,58.47,21ZM28.05,74.66H20.82a12.18,12.18,0,0,1-1.19-2.86l10.06-1.43A18.05,18.05,0,0,1,28.05,74.66Zm2.24-6.4L19,69.87c-.36-1.23-.74-2.63-1.14-4.16l13.56-1.94C31.06,65.39,30.67,66.9,30.29,68.26ZM32,61.67,17.41,63.75c-.28-1.13-.57-2.32-.86-3.55l16.3-2.33C32.56,59.17,32.26,60.45,32,61.67ZM16.1,58.24c-.31-1.38-.62-2.79-.93-4.21l10.55-1.5a1,1,0,0,0-.28-2L14.76,52.07c-.17-.8-.33-1.61-.5-2.41H34.61c-.41,2-.85,4.1-1.29,6.12Zm-8.4-21C0,18.2,1.45,9.49,4.09,5.54a7.58,7.58,0,0,1,6-3.54c3,0,3.66.64,8.21,4.79l2.29,2.07c6.92,6.23,13,5.62,13.28,5.59a1,1,0,0,0,.88-1.11,1,1,0,0,0-1.11-.88c-.05,0-5.42.55-11.66-5,7.1-4.49,13.07-6,17.74-4.42a11.66,11.66,0,0,1,6.77,6.46,13.62,13.62,0,0,1,0,7.21c-1.2.79-5.73,3.62-9,3.62a1,1,0,0,0-.95.68c-.11.33-2.05,6.63,3.91,14.51a3.41,3.41,0,0,0-.65-.07H11.27A4.42,4.42,0,0,0,7.7,37.23ZM42.33,44.6A2.44,2.44,0,0,1,39.89,47H11.27A2.44,2.44,0,0,1,8.83,44.6V39.85a2.44,2.44,0,0,1,2.44-2.44H39.89a2.44,2.44,0,0,1,2.44,2.44Zm5.27-4.88h-.1c-9.87-8-9.51-15.3-9.12-17.48,3.57-.35,7.77-2.9,9.17-3.82,1.4.92,5.59,3.46,9.16,3.82C57.08,24.41,57.4,31.73,47.6,39.72Z"/></svg>