<svg id="Слой_1" data-name="Слой 1" xmlns="http://www.w3.org/2000/svg" viewBox="0 0 73.59 70.62"><defs><style>.cls-1{fill:#6a3553}</style></defs><title>icon</title><path class="cls-1" d="M72.56,45.67A4.52,4.52,0,0,0,69,44H61.15a3.26,3.26,0,0,1-3.26-3.26V30.31a2.07,2.07,0,0,0-2.07-2.06H52.57a4.91,4.91,0,0,1,1.62-3.67,6.93,6.93,0,0,0-5-12.08,5,5,0,0,1-3.75-1.45A4.92,4.92,0,0,1,44,7.31a6.94,6.94,0,0,0-12.08-5,5,5,0,0,1-3.67,1.63A4.94,4.94,0,0,1,24.58,2.3a6.94,6.94,0,0,0-12.08,5A5,5,0,0,1,7.31,12.5a6.94,6.94,0,0,0-5,12.08,4.94,4.94,0,0,1,1.63,3.67A5,5,0,0,1,2.3,31.92,6.94,6.94,0,0,0,7.31,44a5,5,0,0,1,5.19,5.19,6.77,6.77,0,0,0,2.83,6,7.18,7.18,0,0,0,4.16,1.34,6.69,6.69,0,0,0,1.34-.13V66a4.63,4.63,0,0,0,4.63,4.62h5.25a4.6,4.6,0,0,0,3.94-2.25h1.44a15.87,15.87,0,0,1,4.69.71,17.83,17.83,0,0,0,5.28.79H65.22a5.05,5.05,0,0,0,4.93-4L73.5,49.46A4.54,4.54,0,0,0,72.56,45.67Zm-51.73,2.2V54.3a5.06,5.06,0,0,1-4.33-.77,4.85,4.85,0,0,1-2-4.24A6.94,6.94,0,0,0,7.21,42a4.94,4.94,0,0,1-3.57-8.6,6.93,6.93,0,0,0,2.29-5.15A6.93,6.93,0,0,0,3.64,23.1a4.95,4.95,0,0,1,3.57-8.61,6.9,6.9,0,0,0,5.26-2,7,7,0,0,0,2-5.26A4.95,4.95,0,0,1,23.1,3.64a6.93,6.93,0,0,0,5.15,2.29A6.93,6.93,0,0,0,33.4,3.64,4.94,4.94,0,0,1,42,7.21a6.94,6.94,0,0,0,7.29,7.28,4.94,4.94,0,0,1,3.56,8.61,6.92,6.92,0,0,0-2.28,5.2,4.92,4.92,0,0,0-4.43,4.89V40.5a5.26,5.26,0,0,1-5.25,5.25h-6.1a4.6,4.6,0,0,0-4.08-2.5H25.46A4.63,4.63,0,0,0,20.83,47.87Zm9.88,20.75H25.46A2.62,2.62,0,0,1,22.83,66V47.87a2.63,2.63,0,0,1,2.63-2.62h5.25a2.65,2.65,0,0,1,2.18,1.16v21A2.65,2.65,0,0,1,30.71,68.62ZM71.54,49.06,68.19,65.45a3,3,0,0,1-3,2.42H46.06a15.86,15.86,0,0,1-4.69-.7,17.84,17.84,0,0,0-5.28-.8h-.8c0-.12,0-.24,0-.37V47.87s0-.08,0-.12h5.57a7.26,7.26,0,0,0,7.25-7.25V33.19a2.94,2.94,0,0,1,2.93-2.94l4.82.06V40.74A5.27,5.27,0,0,0,61.15,46H69a2.56,2.56,0,0,1,2.5,3.06Z"/><path class="cls-1" d="M26.7,33.62,40.89,19.43a1.49,1.49,0,0,0,0-2.12,1.51,1.51,0,0,0-2.12,0L25.64,30.44l-5.87-5.88a1.51,1.51,0,0,0-2.12,0,1.49,1.49,0,0,0,0,2.12l6.93,6.94a1.53,1.53,0,0,0,1.06.44A1.49,1.49,0,0,0,26.7,33.62Z"/><path class="cls-1" d="M39.83,53.8v2a15.28,15.28,0,0,0,12-6.17l-1.65-1.14A13.37,13.37,0,0,1,39.83,53.8Z"/></svg>