<?xml version="1.0" ?><svg version="1.1" viewBox="0 0 52 50" fill="#6a3553" xmlns="http://www.w3.org/2000/svg" xmlns:xlink="http://www.w3.org/1999/xlink"><g id="Layer_1"><path d="M14.482,39.691l4.982,9.371L25,39.474l5.536,9.589l4.982-9.371l10.606,0.371l-8.307-14.389l1.244-0.553l-0.467-4.477 L41.235,17l-2.641-3.644l0.468-4.477L34.95,7.05l-1.829-4.112l-4.477,0.467L25,0.765l-3.644,2.641l-4.477-0.468L15.05,7.05 l-4.112,1.829l0.467,4.477L8.765,17l2.641,3.644l-0.468,4.477l1.245,0.554L3.875,40.062L14.482,39.691z M35.98,26.492l6.608,11.446  l-8.25-0.289l-3.875,7.289l-4.309-7.464l3.887-6.733l0.955,0.1l2.124,0.222l1.829-4.113L35.98,26.492z M13.078,23.883l0.396-3.793 L11.235,17l2.239-3.09l-0.396-3.793l3.487-1.552l1.552-3.487l3.793,0.396L25,3.235l3.09,2.239l3.793-0.396l1.552,3.487l3.487,1.552 l-0.396,3.793L38.765,17l-2.239,3.09l0.396,3.793l-0.11,0.049v0l-3.377,1.503l-1.552,3.487l-3.793-0.396l0,0l0,0L25,30.765   l-3.09-2.239l-3.793,0.396l-1.552-3.487l-3.377-1.503v0L13.078,23.883z M16.879,31.062l4.477-0.467L25,33.235l2.223-1.611 l-3.377,5.85l0,0l-4.309,7.464l-3.875-7.289l-8.249,0.289l6.608-11.446l1.03,0.458L16.879,31.062z"/></g></svg>