<svg id="Слой_1" data-name="Слой 1" xmlns="http://www.w3.org/2000/svg" viewBox="0 0 71.69 79.67"><defs><style>.cls-1{fill:#6a3553}</style></defs><title>icon</title><path class="cls-1" d="M70.69,45.64h-2.8l-3-3V40a1,1,0,0,0-2,0v2.6l-3,3h-3a1,1,0,0,0,0,2h3l.53.52C59.12,56.6,54.2,77.67,45.7,77.67c-4.68,0-5.35-5.84-5.77-14.08C39.58,56.91,39.22,50,34,50s-6.88,7.44-8.39,14.63c-1.35,6.41-2.75,13-6.44,13C11,77.67,4.32,58.6,2.2,29.09,1.18,15,4.05,5.41,10.08,2.93c4.14-1.7,9.39.36,13.69,5.39C34,20.26,43.43,19.21,43.82,19.16A1,1,0,0,0,44.69,18a1,1,0,0,0-1.11-.87c-.08,0-7.41.75-15.93-7.62C31.24,7.64,42.66,2,52.2,2c6.57,0,9.62,5.89,11,10.83a25.85,25.85,0,0,1,.8,9.6,57.66,57.66,0,0,1-1.14,7L57.7,24.27V19.75a1,1,0,0,0-2,0v4.5l-5.33,5.33H45.2a1,1,0,0,0,0,2h5.15l5.35,5.36v4.31a1,1,0,0,0,2,0V36.91L63,31.59h4.83a1,1,0,0,0,0-2h-3a60.54,60.54,0,0,0,1.11-7,27.93,27.93,0,0,0-.86-10.34C62.9,4.36,58.3,0,52.2,0c-10.62,0-22.94,6.38-26,8.05-.31-.33-.61-.68-.92-1-4.89-5.71-11-8-16-5.94C2.44,3.91-.88,14.17.2,29.24c2.27,31.57,9.37,50.43,19,50.43,5.31,0,6.88-7.44,8.39-14.63,1.35-6.41,2.75-13,6.44-13,3.06,0,3.53,4.63,3.9,11.69.39,7.49.83,16,7.77,16C56.26,79.67,61,56.52,62.1,49.9l.77.77v2.48a1,1,0,0,0,2,0V50.66l3-3h2.8a1,1,0,0,0,0-2Zm-14-10.54-4.5-4.51,4.5-4.5,4.5,4.5Zm7.17,13.74-2.2-2.2,2.2-2.21,2.21,2.21Z"/><path class="cls-1" d="M46.19,50.13a.5.5,0,0,0,.5-.5V48l2-2h1.83a.5.5,0,0,0,.5-.5.5.5,0,0,0-.5-.5H48.7l-2-2V41.27a.5.5,0,0,0-.5-.5.5.5,0,0,0-.5.5V43l-2,2h-2a.5.5,0,0,0,0,1h2l2,2v1.63A.51.51,0,0,0,46.19,50.13Zm0-6.24,1.59,1.59-1.59,1.6-1.59-1.6Z"/></svg>