<?xml version="1.0" encoding="utf-8"?>
<!-- Generator: Adobe Illustrator 18.1.1, SVG Export Plug-In . SVG Version: 6.00 Build 0)  -->
<svg version="1.1" id="Слой_1" xmlns="http://www.w3.org/2000/svg" xmlns:xlink="http://www.w3.org/1999/xlink" x="0px" y="0px"
	 viewBox="0 0 2560 1000" enable-background="new 0 0 2560 1000" xml:space="preserve">
<rect fill="#012950" width="2560" height="1000"/>
<path fill="#013B71" d="M2560,0H0v1000h2284.6c101.3-84.9,193.7-180.2,275.4-284.2V0z"/>
<path fill="#014C93" d="M2560,0H0v868c59.8,48.1,122.9,92.2,188.9,132h1752.5c259.4-156.4,473.7-380,618.6-646.8V0z"/>
<path fill="#015AAD" d="M0,0v599.1C191.3,792,434.7,933.3,707.3,1000h715.6C1930.4,875.8,2336.5,493.4,2494.2,0H0z"/>
<path fill="#026ACA" d="M0,0v288.4c235.1,335.3,624.5,554.5,1065.1,554.5c557.1,0,1032.4-350.5,1217.4-842.9H0z"/>
<path fill="#0B73D3" d="M64.3,0c173.5,379.4,556.4,642.9,1000.8,642.9S1892.4,379.4,2065.9,0H64.3z"/>
<path fill="#167EDE" d="M289.7,0c156.6,265.1,445.3,442.9,775.5,442.9S1684,265.1,1840.6,0H289.7z"/>
<path fill="#1D85E5" d="M534.9,0c128.4,148.8,318.3,242.9,530.2,242.9S1467,148.8,1595.3,0H534.9z"/>
<path fill="#248CEC" d="M1065.1,42.9c72.3,0,141-15.3,203-42.9h-406C924.1,27.6,992.8,42.9,1065.1,42.9z"/>
</svg>
