<?xml version="1.0" encoding="utf-8"?>
<!-- Generator: Adobe Illustrator 22.1.0, SVG Export Plug-In . SVG Version: 6.00 Build 0)  -->
<svg version="1.1" id="Слой_1" xmlns="http://www.w3.org/2000/svg" xmlns:xlink="http://www.w3.org/1999/xlink" x="0px" y="0px"
	 viewBox="0 0 341.5 280" style="enable-background:new 0 0 341.5 280;" xml:space="preserve">
<style type="text/css">
	.st0{fill:#00CC1F;}
</style>
<g>
	<g>
		<path d="M189.5,226.1c-3.9,1.4-11.9-1.4-15.2-3.7c-2.6-1.8-4.8-4.4-7.3-6.4c-2.1-1.7-4.5-2.2-6.9-3.4c-5.3-2.8-7.6-8.5-9.8-13.8
			c-1.1-2.6-1.9-5.1-3.5-7.6c-1.8-2.8-3.1-3.4-6.2-4.5c-2.6-0.9-5.1-2.1-7.9-2.2c-1.6,0-4.6,1.6-4.8-0.4c0,0.4,1.6-2.4,1.4-2.1
			c0.8-1.2,1.8-2.2,2.9-3.2c2.2-2.1,4.2-4.2,6.2-6.4c3.7-4.1,6.9-8.5,10.6-12.6c4.2-4.5,8.8-8.5,13-13c-1.8-1.4-4.4-2.8-5-5.1
			c-0.6-2.1,0.3-5,1.9-6.6c4.5-4.4,12.1-1.8,17.5-3.9c2.7-1.1,3.7-2.5,5.6-4.5c2.2-2.3,5.2-4,7.2-6.5c1.5-2,2.5-4.1,4.8-5.4
			c1.8-1,2.5-0.3,4.3-0.5c1-0.1,0.5,0.5,1.2-0.2c0.5-0.4,0.6-1.5,1-2.1c1.3-1.9,4.6-3.1,6.8-3.4c1.2-0.2,7,0.9,4.4,2.5
			c-1.3,0.8-2.3-0.6-3.4-0.7c-1.2-0.1-2.3,0.3-3.5,0.8c-1.3,0.5-2.5,0.8-3.2,2.1c-0.5,0.9-0.2,2.3-1.2,2.8c-0.9,0.5-1.7-0.2-2.6-0.2
			c-1.5-0.1-2.3-0.1-3.6,0.8c-2.6,1.7-3.6,5-5.7,7.3c-1.7,1.7-3.3,3.1-4.8,4.9c-1.8,2.1-5.1,4.1-7.8,5c-4.2,1.4-17.3-1.4-16.5,6.2
			c0.2,1.5,1.1,3.3,2.6,3.9c2.9,1.2,5.9-4.9,7.3-4c-2.2,4.3-6.2,8-9.3,11.7c-3.2,3.8-7.1,6.6-10.4,10.2c-3.3,3.4-5.1,7.4-7.9,11.1
			c-2.6,3.5-7.3,5.7-9.4,9.5c3.4,1.3,6.6,1.8,9.9,3.2c-1.1-3.5-1.7-5.7,0.2-9c0.7-1.2,1-2.3,2.5-2.8c1.3-0.4,3.8,0.2,5.1,0.7
			c3.4,1.3,6.1,4.9,8.4,7.6c2.1,2.5,4.4,5.4,6,8.2c1.6,2.8,2.1,5.1,5,6.6c2.1,1.1,4.6,6,6.9,6.2c2.9,0.2-0.6-6.9-1.3-8.4
			c-0.8-1.7-1.3-3.4-1.8-5.2c-0.3-1.1-1.8-3.6-1.4-4.4c2,2.4,3.4,5.7,4.9,8.4c1.9,3.5,3.9,7,5.4,10.7c1.2,3,2.5,4.9,4.9,7.1
			c2.6,2.4,4.4,5.2,6.4,8.1c1.8,2.7,4,4.3,6.4,6.4c2.4,2,3.4,4.2,6.6,4.8c7.2,1.3,14.9,3,22.2,1.6c7.1-1.3,13.8-2.1,20.6-4.6
			c7.3-2.7,14.5-5.6,21.5-9c6.7-3.3,13.9-6.6,19.8-11.2c5.9-4.6,11.7-9.2,17.5-13.8c6.4-5,12.7-10.2,18.9-15.4
			c2.9-2.5,4.9-5.5,7.8-7.9c2.1-1.8,4.5-5.9,7.1-6.6c-2.2,4.5-6.6,8.7-9.9,12.3c-3.7,4.1-8,7.1-12.2,10.5
			c-8.2,6.5-16.2,13.2-24.3,19.9c-17.9,14.7-40.1,22.8-62.5,27.6c-5.9,1.3-11.1,1.7-17.1,0.8c-2.7-0.4-5.4-0.8-8-1.2
			c-2.9-0.4-3.9-1.3-6.3-3c-4-2.7-7.8-5.2-10.7-9.3c-1.3-1.9-2.3-3.8-3.9-5.5c-1.8-2-4-3.8-5.5-6c-1.5-2.3-2-3.7-4.5-5.3
			c-2.3-1.5-4.6-3.5-7-4.8c-1.2-0.6-1.9-0.6-2.8-1.7c-0.8-1-1.4-2.3-2.1-3.5c-1.5-2.5-3-5-4.7-7.2c-1.7-2.2-3.5-4.1-5.4-6.1
			c-1.6-1.8-3.5-4.7-5.6-5.9c-1.5-0.8-3.7-0.8-4.9,0.6c-1.7,2-0.2,5.5,0.7,7.4c1.2,2.6,3,4.8,4.4,7.2c1.7,2.8,2.5,5.8,3.8,8.7
			c2.3,5.3,5,9.2,10.3,11.6c5.3,2.4,8.4,7.6,13.6,9.9c2.5,1.1,5.2,1.5,7.7,2.6C186.6,224.2,188.8,223.8,189.5,226.1z"/>
		<path d="M192.6,239c-6.8,1.8-14.7,0.9-21.7,0.7c-7.7-0.2-15.5-0.3-23.2-1.1c-7.1-0.8-14.2-1.6-21.1-3.3c-3.5-0.9-7-1.6-10.5-2.4
			c-3.7-0.8-7-2.1-10.6-3.1c-6.8-1.7-12.9-5-19.3-8.1c-6.5-3.1-13.1-6.1-19.2-10.1c-5.4-3.5-11.1-6.7-16.2-10.6
			c-2.1-1.6-4.7-3.1-5.7-5.7c-1-2.6-0.4-5.7,1.1-8c1.9-3,4.4-5.6,6.1-8.8c1.7-3.2,2.1-6.6,3.6-9.8c1.2-2.5,4.6-5.5,6.8-2
			c0.9,1.4,0.6,3.7,0.7,5.2c0.2,2.3,0.4,4,1.5,6c4-1.7-0.2-7.9,0.5-10.9c0.9-4.1,4.6-6.9,8.3-8.3c3.4-1.3,9.1-1.3,11.6-4
			c0.8-0.9,2.5-4.2,1.7-5.4c-0.8-1.2-3.4-1.5-4.5-2.2c-3.6-2.1-5.3-5.5-7.5-8.9c-2.2-3.3-5.8-4.9-8.9-7.2c-2.5-1.9-5.7-5.5-9.1-5.1
			c-1.2,0.1-3.2,0.7-4.3,1.2c-0.9,0.4-3.5,2.9-4.4,2.1c0.5-1,1-1.4,0.7-2.5c-0.2-0.8-1.6-2-2.1-2.6c-1.2-1.5-2.3-3.1-3.6-4.5
			c-2.6-2.7-6.1-4.4-9.3-6.2c-3.6-2-7.2-3.8-11-5.4c-4-1.7-8-1.9-12.1-3.1c2.1-2.2,7.2-1.2,9.8-0.9c3.7,0.4,7.8,0.6,11.4,1.5
			c1.9,0.5,16.7,8.9,15,10.7c-4.3-2.2-7.8-6.3-12.3-8.5c-2.2-1.1-4.4-1.3-6.9-1.6c-2.7-0.3-5.8-1.3-8.5-0.9
			c7.2,2.1,13.9,5.8,20.3,9.5c3,1.7,5.2,3.9,7.4,6.6c0.9,1.2,1.9,3.3,3.1,4.2c1.1,0.9,0.5,0.7,2.1,0.4c0.8-0.2,1.8-0.7,2.6-1
			c-1.4-1.9-2.7-3.8-4.1-5.7c2,1,3.1,2,4.4,3.7c1.5,1.9,2.2,1.5,4.4,2c4,0.8,7,4.8,10.4,6.8c4.1,2.4,6.4,5.6,9.4,9.3
			c1.1,1.4,2.4,2.6,3.8,3.6c1.6,1.1,4.4,1.5,5.5,3.3c1.7,2.8-0.5,7.3-2.8,9.1c-3.7,2.8-9.2,2.3-13.4,4c-4.2,1.7-6.7,5.5-4.9,9.8
			c0.9,2.1,1.6,4.1,0.5,6.4c-1.3,2.7-3.8,3-5.1,0.3c-1-2.1-0.5-12.5-4.2-9.2c-1.4,1.3-1.5,4.3-2.1,6c-0.9,2.7-2.1,5.4-3.6,7.8
			c-2.4,3.7-7,6.4-4.6,11.1c2.4,4.8,6.3,7.4,10.7,10.2c9.5,5.9,18.9,11.3,29,16.1c10.3,4.8,21,8.3,32,11.1
			c11.8,2.9,24.2,6.3,36.4,6.5C160.4,237.4,192.6,237.2,192.6,239z"/>
		<path d="M64,80c-0.8-1.9-3.3-1.8-4.9-2.7c-1.7-0.9-3.6-2.2-4.8-3.6c-1.4-1.6-3-12-0.9-11.6c0,5.1,1.2,10.1,5.8,13.1
			c2,1.4,4.4,1.2,6,3.2c1.6,1.9,2.6,4.5,4.2,6.5c2.9,3.7,6.9,8.3,12.1,6.2c5.5-2.2,1.8-12.6,1.6-16.6c-0.6-12.4,0.3-25.3-2.7-37.5
			c-1.3-5.6-3.7-8.3-9.7-9.3c-3-0.5-6.4,0.4-9.4-0.3c-3.5-0.8-2.4-4.1-4.4-6.2c-1,4-0.5,8.4-2,12.3c-0.7,1.8-2,3.1-3,4.6
			c-1.3,2-2.3,4.5-3.4,6.7c-1.1,2.2-2.2,4.3-3.2,6.5c-0.6,1.2-1.5,4.5-2.4,5.5c-0.4,0.4-1.9,1.4-2.6,0.3c-0.6-0.9,2.2-6,2.5-6.9
			c1.7-3.9,3.7-7.7,6.1-11.2c2.5-3.7,4.3-6.3,4.9-10.8c0.2-2,0.5-4,0.9-6c0.3-1.2,0.6-5.4,1.6-6.1c2.7-1.8,2.8,5.9,4,7.6
			c1.7,2.5,6.7,2.1,9.3,1.2c1.6-0.6,3-2.3,4-3.6c0.8-1,2.1-5.1,3.1-5.6c3.1-1.8,2.2,7.5,2.1,8.8c-0.3,2.4-0.7,3.1,0.8,5
			c1.5,1.8,1.7,3.1,2.1,5.4c1.9,9.1,2.7,18,3.1,27.3c0.2,4.8-0.1,9.5,0.4,14.3c0.4,4.1,2.6,9.1,0.5,13c-1.9,3.6-6.5,5.5-10.4,3.9
			c-3.4-1.4-6.5-6.4-8.7-9.2c-1.7-2.2-2.9-1.3-4.5,0.8c-1.6,2.1-2,4.3-2.3,6.9c-0.3,2.7-0.5,5.5-0.6,8.2c-0.1,2.2,0.5,4.6-0.7,6.5
			c-2.9-3.3-2-11-1.4-15.1C57.7,86.4,59.3,82.6,64,80z M72.1,25.8c1,1,2.9,1.6,3.8,0.8c1.1-1.1,0.3-3.9,0.4-5.2
			C74.8,22.8,73.5,24.3,72.1,25.8z"/>
		<path d="M128.8,129.1c-0.9,1-2.5,1.5-3.2,2.3c-0.9,1-1,2.5-1.6,3.8c-1.2,2.5-5.3,6-8.1,4c1.8-2,4.7-1.7,6.1-4.3
			c1.1-2.1,1.3-3.7,3-5.3c1.3-1.2,2.1-1.2,1.1-2.7c-0.6-1-2.5-1.8-3.3-2.8c-1.2-1.4-2.3-2.9-3.6-4.2c-2.3-2.3-5.4-3.1-6.1-6.5
			c-0.6-2.7,0.1-5.3,1.4-7.6c1.3-2.3,1.7-5.1,4.5-6c3.8-1.3,8-0.6,11.7-2.2c1.5-0.6,2.3-2.2,3.7-2.9c1.2-0.6,2.4,0,3.7,0.3
			c0.2-0.3-2.4-6.9-3-7.6c-1.4-1.7-3.5-4.7-5.5-5.8c-1-0.6-2.1-0.4-3-0.8c-1.1-0.5-1.8-1.8-2.9-2.4c-2.7-1.9-5.1-0.7-7.9-1.6
			c1.2-2.7,7.3-1.7,9.4-0.3c1.7,1.2,2,2,4,2.6c1.6,0.5,2.9,1.2,4,2.5c1.1,1.3,1.6,2.7,2.3,4.2c0.3,0.7,0.4,0.8,0.8,1.5
			c0.5,0.7,1,1.3,1.5,2c0.8,1.2,1.6,2.6,2.3,4c0.9,1.9,0.4,3.1,0.7,5c2.3-1.7,4.3-3.6,7.1-1.7c0.9,0.6,2.3,1.9,2.4,3.1
			c0.2,2-0.3,1.1-1.5,1.8c-2.8,1.8-1.3,2.4-1.1,5.4c0.1,1.2-0.1,2.2-0.8,3.2c-0.5,0.7-2.3,1.3-2.5,1.9c-0.6,1.6,1.3,6.7,1.9,8.3
			c1.1,3,0.5,6.5-1.3,9.3C141.2,135.5,133.2,132.4,128.8,129.1z M130,127.9c3.2,2.1,8.6,4.6,12.3,1.9c1.2-0.9,3.3-5.1,3-6.6
			c-0.3-1.5-1.7-2.8-2.1-4.5c-0.5-2.3-0.6-4.6-1.2-6.9c-0.7-2.5-2-4.5-2.9-6.9c-0.8-2.1-0.1-4.1-1.2-5.9c-1.5-2.5-2.9-2.4-5.1-0.8
			c-2.1,1.5-3.2,1.7-5.6,2.4c-1.1,0.3-2,0.8-3.1,1c-1.3,0.2-2.7-0.2-3.9,0.3c-2.3,0.8-1.7,2.1-2.9,4.1c-1.2,2-2.2,2.6-2.4,4.9
			c-0.1,1.9-0.4,3.3,1.1,4.7c1.6,1.6,3.1,2.2,4.4,4.3c1.2,2,2.1,3.2,4.3,4.2C126.7,124.9,128.9,125.5,130,127.9z M143.6,109.4
			c3.2-1.3,0.6-3.9,0.9-6.3c0.2-2,4.6-4.4,1.6-5.5c-1.6-0.6-4.6,1.9-5.1,3.5C140.3,103.4,142.7,107.3,143.6,109.4z"/>
		<path d="M149.9,20c3.8,1.3,10.8,2.2,10.8,7.5c0,2-1.4,3.9-3.6,3.9c-0.7,0-1.8-0.1-2.2-0.9c-0.5-1.1,0.2-0.7,1-1.4
			c1.6-1.4,3-2.2,0.9-4c-1.8-1.5-5-2.1-7.1-3.3c-2.7-1.4-1.7-2-1-4.7c0.3-1.2,2.2-7.4,1.6-7.7c-2.4,3.4-4.6,7.7-9.1,8.4
			c-5.1,0.8-10,0.8-15,2.3c-4.5,1.4-8.5,3.9-13.3,2.2c-2.1-0.7-4.1-2.1-5.9-3.5c-0.9-0.7-3.1-4.1-4.1-4.2c0.2,1.9,0.4,3.7,0.9,5.5
			c0.5,1.6,2,3.3,2.3,4.8c0.6,3.3-5.1,5.7-7.2,7.6c-0.9,0.8-2.7,2-2.3,3.4c0.4,1.3,2.9,2.1,4,2.3c3.5,0.4,6.7-2.4,10.2-2
			c-1.7,3.4-7.7,5.2-11.3,4.5c-1.9-0.4-4-1.7-4.9-3.5c-1.3-2.7,0.4-4.1,2.3-5.8c1.8-1.6,3.7-3.1,5.7-4.5c1.7-1.2,1.6-0.9,0.6-2.7
			c-0.7-1.2-1.2-2.5-1.6-3.9c-0.9-3.1-3-13.1,0.7-15.2c1,3.2,1.1,6.2,3.3,8.9c2.2,2.7,5.4,4.7,8.5,6c4,1.6,7.6-0.7,11.4-2.1
			c4.6-1.6,9-2.2,13.9-2.2c3.8,0,5.5-2.8,7.5-5.8c1-1.6,1.9-3.2,2.5-5c0.4-1.2,0.4-3.5,1.3-4.4c2.9-3,2.7,6.2,2.6,7.4
			C153.2,12.3,152,16.3,149.9,20z"/>
		<path d="M230.5,120.2c3.2,2,6.5,3.8,9.7,5.8c2.5,1.6,6.4,3.5,7.6,6.3c-4.1-1-7.2-4-10.9-6c-4.3-2.2-8.5-5.1-12.3-8.1
			c-1.2-0.9-3.6-2.4-4.2-3.9c-1.1-2.6,1.2-0.6,2.2,0.2c1.3,1,3.1,2.9,4.6,3.4c2,0.7,4.4-0.6,6.3-1.3c4.4-1.7,8.7-3.7,13.3-5
			c5.1-1.5,9.8-1.1,15-0.8c8.7,0.6,17.1,4.2,25.6,5.4c9,1.3,19.9,0.3,28.3-3.4c4.2-1.8,8.2-4.1,11.5-7.4c1.4-1.4,4.9-10.3,7.3-8.6
			c1.5,1-3.9,8.5-4.9,9.7c-3.1,3.3-7,5.9-11.1,7.6c-1.8,0.7-3.2,1.6-5.2,2c-2.3,0.4-4.7,0.7-7.1,1.1c-5,0.8-9.8,1.7-14.8,1.6
			c-2.8,0-5.6,0.1-8.3-0.6c-2.7-0.6-5.3-1.8-8-2.4c-2.4-0.5-4.9-0.9-7.3-1.7c-2.1-0.6-3.7-2.2-5.8-2.5c-5.1-0.5-11.8,1.4-16.7,2.9
			C240.2,116.1,235.6,118.7,230.5,120.2z"/>
		<path d="M47.8,138.2c2,2.1,0.3,5.3-0.4,7.7c-0.9,3-1.8,6-2.9,8.9c-0.9,2.2-2.2,4.9-4.3,6.1c-2.5,1.4-4.5,0.2-6.7-1.2
			c-1.8,3.4-6.4,6.2-10.2,4.6c-1.1-0.4-3.9-2.4-3.4-4c0.6-1.8,1.9,0.6,2.6,1.1c2,1.5,3.8,0.9,5.9-0.3c0.8-0.4,2.3-1.1,2.9-1.8
			c1.2-1.5,0.8-0.5-0.1-2.1c-3-5.6,2.5-8.6,6.1-11.9c2.9-2.6,5.7-7.1,3.7-11c-1.7-3.6-7-7.1-10.5-8.8c-5-2.3-10.7-3.7-15.9-5.1
			c-4-1.1-11.3-0.4-14.5-3.1c4.1-1.5,10.1-0.3,14.4-0.2c4.6,0.1,9.2,0.2,13.7,1.2c4.1,0.9,8.1,2.5,11.7,4.6c2.2,1.3,8.1,4.4,7.7,7.3
			c-2.4-0.4-4.7-3.3-6.9-4.6c-2.5-1.6-5.1-2.8-7.8-3.8c-2.9-1.1-5.8-1.8-8.8-2.2c-1.8-0.3-7.2-1.5-8.6-0.3c4.1,1.2,8.1,2.4,12.2,3.6
			c4.4,1.3,7,3.2,10.5,6.1c2.9,2.5,6.1,5.2,5.4,9.4c-0.6,3.3-2.5,6.2-4.9,8.5c-2.1,2-6.5,3.9-6.4,7.3c0,2.6,3.9,6.2,6.5,5
			c3.1-1.4,4.1-6.7,5.1-9.5C45.1,145.9,46.1,141.9,47.8,138.2z"/>
		<path d="M326.7,79.9c-2.9-2.4-5.1-5.6-7.9-8.2c-3.1-3-6.4-5.7-9.8-8.5c-6.8-5.5-14.3-9.7-21.9-13.9c-15.1-8.4-30.5-16-47.4-20.3
			c-4-1-8-2-12.1-3c-1.7-0.4-10.6-1.5-10.6-3.2c-0.1-3.1,7-0.1,8.5,0.2c4.3,1,8.6,1.8,12.8,3c16.6,4.6,32.9,11,47.8,19.6
			c3.8,2.2,6.9,5.2,10.6,7.5c2,1.2,4.2,1.7,6.1,2.9c1.6,1,3.1,2.3,4.5,3.5C309.8,61.4,328.6,78.2,326.7,79.9z"/>
		<path d="M279.6,152.8c1.4-1,2.6-3.9,4-5.2c1.9-1.8,4-3,6.4-4.2c0.9,1.1-6.1,6.9-7,8.3c-2.1,3.3-2.3,7.8-2.6,11.6
			c-0.3,4.2-0.5,8.2-2.6,12c-2,3.8-4.7,7-7.6,10.1c-2.8,3-5.9,5.9-9.2,8.4c-0.5,0.4-1.1,0.9-1.6,1.2c-1.1,0.5-1,0.1-1.9,0.4
			c-1.2,0.3-1.9,0.6-2.9,1.7c-1.1,1.2-1.6,3-2.9,3.9c-1.5,1.1-3.6,0.9-5.3,1.2c-1.6,0.3-10.8,3.3-11.5,1.8c2.8-1.7,6.4-2.5,9.7-3.2
			c2.4-0.5,5.2-0.1,6.9-2c0.9-1.1,1.3-2.3,2.5-3.3c1-0.8,2.2-1.4,3.2-2.1c2.4-1.5,4.5-3.2,6.5-5.2c4.5-4.5,9.2-8.8,12.3-14.5
			c1.5-2.8,1.7-5.6,1.9-8.6c0.2-2.6,1.3-6.5,0.5-9c-0.9-2.6-3.8-2.7-5.8-4.2c-2.1-1.6-3.9-3.1-6.4-4.3c-2.7-1.3-5.2-2.9-7.7-4.5
			c-1.4-0.9-6.7-4.1-6.8-5.9c-0.2-2.1,4.5,1.8,5.2,2.4c2.6,1.7,5.2,3.6,8,5c2.3,1.2,5.1,1.9,7.1,3.6
			C274.5,150.2,276.7,151.4,279.6,152.8z"/>
		<path d="M117.6,58.3c-1.9-2.6-4.1-5-5.1-8.1c-0.5-1.7-1.8-6.1,0.8-6.8c0.7,3.3,0.9,6.4,2.9,9.3c2.1,3.2,5.4,5.1,8.7,6.9
			c3.3,1.8,5,4.6,8,6.8c2.5,1.9,5.7,1.5,8.5,0.4c2.7-1.1,5.6-3.1,6.9-5.8c1.6-3.5,0.6-8.6,0.7-12.4c0.1-4.3,0.9-8.4,1.1-12.7
			c0.1-2.2,0-4.5,0-6.7c0-1.6-0.6-4.1,0.1-5.6c2.9,0.7,2.3,8.9,2.2,11.1c-0.1,4.5-0.8,8.8-0.8,13.3c0,8.5,1,16.5-8,20.8
			c-3.1,1.5-7.3,2.4-10.5,0.9c-3.3-1.5-5.1-5.6-8.2-7.7c-3.7-2.6-7.8-2.1-11.9-0.8c-1.9,0.7-3.8,1.4-5.5,2.5c-1.6,1-3,2.7-4.9,3
			C102.8,60.7,113.1,59.1,117.6,58.3z"/>
		<path d="M199.7,15c0.3,0.3,0.5,0.8,0.6,1.2c-2.9,0.6-6.5-1.1-9.6-0.8c-1.9,0.2-4,0.4-5.7,1.3c-1.7,0.9-0.8,1-1.8,2.2
			c-2,2.4-3.3-1.7-4.4-3.3c-1.7-2.2-4.4-3.7-6.9-4.8c0.5,1.8-0.8,2.6-1.4,4.1c-0.7,1.5-1,3.1-0.9,4.8c0.1,1.5,0.6,3.1,1.5,4.4
			c0.3,0.5,2.8,2.8,2.8,3c-4.2-0.9-7.3-4.8-6.6-9.2c0.4-2.2,2.3-4.6,1.8-6.8c-0.2-0.9-1.1-1.4-0.6-2.4c0.4-0.9,1.7-0.6,2.5-0.6
			c2.5,0.2,4.9,1.5,6.9,3c2.4,1.8,2.9,3.4,5.9,3.1c3.1-0.3,6.1-0.8,9.2-0.8c3.1,0,4.8,0.1,7.5-1.4c2.1-1.2,4.1-2.4,6.5-3
			c1.1-0.3,7.7-1.9,8.3-0.5c0.8,1.7-2,2.6-3,3.8c-1.4,1.8-2.3,5.5-2.3,7.7c0.1,5.2,1.7,10.4,0.3,15.5c-1.5,5.3-2.1,8.9,0.5,14
			c-2.2-1-4.3-4.8-4.2-7.2c0.1-3.8,2.6-7.3,2.9-11.1c0.3-4.1-1.8-7.8-1.9-11.8c-0.1-3.1,2.2-6.6,3.7-9.2C207,10.7,203.4,13,199.7,15
			z"/>
		<path d="M237.3,216.6c-4,1.5-7.2-2.1-11.1-1.6c-2.1,0.3-8.7,0.4-9.7,2.4c-0.6,1.1,1,3.1-1.2,2.6c-1.2-0.3-3-3.6-3.9-4.6
			c-0.8-0.9-2.8-3.2-4-3.4c-0.5-0.1-1.2,0.7-1.9,0.6c-0.6-0.1-1.2-1-1.7-1.4c-3-2.8-5-6.2-6.9-9.8c-2.1-4.1-5.3-7.3-8.3-10.8
			c-2.5-2.7-16.2-14.3-17.4-5.8c-3.3-1.1,0-5,2.3-5.1c3.5-0.1,7.8,3,10.7,4.7c3.4,2,6.7,4.8,9.1,7.9c1.2,1.5,2.3,3,3.4,4.5
			c1.5,1.9,1.6,3.5,2.6,5.5c1.5,3.2,4.3,6.4,7.7,7.4c1.8,0.6,3.2,0.9,4.7,1.9c1.8,1.2,2.8,2,5.1,1.9c2.3-0.2,4.3-1,6.6-0.7
			c1.6,0.2,3.3,0.3,4.8,0.5C229.5,213.7,237.3,215.5,237.3,216.6z"/>
		<path d="M178.8,53.4c-2.1,0.9-5-3.6-7.1-4.2c-2.8-0.8-5.5,0.8-8.3,0.8c1.9-3.2,6.4-4.2,9.8-3.1c3.9,1.4,6.8,5.3,10.8,7
			c2,0.9,4,1.4,6.2,1.5c2,0.1,4.2-0.6,6.1,0c2.4,0.7,4.1,2.3,6.9,2.1c2.1-0.2,4.2-1.3,6.3-1.8c-0.6,2.1-3.6,3.4-5.5,3.7
			c-2.7,0.5-5.2-1-7.9-1.5C190.4,56.9,183,58.3,178.8,53.4z"/>
		<path d="M89.1,110.8c2.2,7.2,16.5,13.3,19.9,3.8c1.5-4.2-0.5-8-3.7-10.7c-3.1-2.6-7.9,0-7.6,4c1.4-0.3,2.9-1.4,4.3-1
			c1.6,0.5,2.2,2.5,1.7,4c-0.3,1-1.8,2.5-2.9,2.2c-2.5-0.6,0.2-1.5,0.5-2.1c1.5-2.4-0.5-1.6-1.7-1.4c-1.8,0.3-2.8,0.1-3.1-1.9
			c-0.7-3.5,3.6-6.8,6.9-6.6c3.4,0.2,6.5,4.2,7.3,7.2c1.3,4.9,0,8.5-4.2,11.3c-3.9,2.6-7.1,1-11-0.5
			C93.6,118.5,86.3,112.8,89.1,110.8z"/>
		<path d="M112.9,84.2c-3.8-1.9-1.5,3.3-2.1,4.5c-0.5,1-2.1,1.1-2.7,2.1c-0.6,0.9-0.3,2.1-1.1,2.9c-0.5,0.4-1.9,0.7-2.5,1.3
			c-0.5,0.4-1.7,2.2-2.5,1.9c-2.2-0.7,2.6-4.6,3.1-5.5c1.1-2.4,3.1-3.6,3.5-6.1c0.3-2.2-0.2-2.4-2.5-2c-1.4,0.3-2.9,1-4.2,1.6
			c-2.7,1.3-5.1,3-7.2,5.1c-1.1,1.1-2.1,2.4-3,3.7c-0.8,1.1-1.3,3.1-2.4,4c0.5-6.3,4.6-10.8,10-13.8C102.4,82.2,112.1,77,112.9,84.2
			z"/>
		<path d="M18,100.4c2.9-6.9,6.2-13.5,10.1-19.9c2.2-3.5,4.1-7,5.8-10.7c0.8-1.8,1.6-3.5,2.4-5.3c0.2-0.5,1-3,1.6-1.6
			c0.5,1.1-0.9,3.8-1.3,5c-0.6,1.9-1.2,3.9-2.1,5.7c-1.7,3.8-4.1,7.3-6.3,10.9c-2,3.3-3.7,6.6-5.8,9.8
			C21.8,95.4,19.6,102.7,18,100.4z"/>
		<path d="M148.9,211.3c-2.3-1.5-3.9-4.2-6.1-6.1c-2.3-2-4.9-3.6-7.2-5.7c-2.5-2.3-11.6-10.6-8.4-14c1.4,2.6,2.6,4.6,4.7,6.9
			c2.1,2.4,4.4,4.7,6.9,6.7c2.4,1.9,5.4,3.3,7.5,5.6C147.1,205.7,149.9,210.4,148.9,211.3z"/>
		<path d="M13.6,131.1c0.5,6.2,1.1,11.8,2.7,17.8c0.3,0.9,2.4,6.4-0.6,5c-1.7-0.8-2.4-5.8-2.7-7.4c-1.4-6-0.7-12.4-0.7-18.5
			c0-0.6-0.1-6.6,1.4-3.6C14.1,125.2,13.7,131.1,13.6,131.1z"/>
		<path d="M127.9,45.5c-1.4-0.3-3.7-1.1-1.3-2.2c1.5-0.7,4,0.6,5,1.8C134.8,49.2,127.1,51.1,127.9,45.5z"/>
		<path d="M186,38c-0.5-0.4-0.7-0.9-0.8-1.5c2.6-0.7,6.4,2.4,4.8,5.4C188,45.6,184.7,40.7,186,38z"/>
		<path d="M63.7,143.6c-1.7,1.2-1.3-1.4,0.3-1.9c2-0.7,3.1,0.5,4.1,2c1.1,1.7,1,3.4-1.5,3.3C64.5,147,64.2,145.3,63.7,143.6z"/>
		<path d="M62.3,57.4c-0.7-0.1-1,0.4-1.4-0.4c-0.3-0.8,0.7-1.2,1.1-1.4c2.1-0.8,3.7,1.8,4.3,3.4c0.6,1.6,0.9,4.1-1.5,3.3
			C62.9,61.6,62.5,59,62.3,57.4z"/>
		<path d="M321.3,137.5c-2-1.4-4-2.3-6.4-2.9c-0.9-0.2-5.1-0.5-5.1-1.7C311.5,132.2,324.1,134.7,321.3,137.5z"/>
		<path d="M202.9,53.9c-1.9,2.5-3-1.2-1-2.2C204.3,50.6,205.4,54.5,202.9,53.9z"/>
		<path d="M209.7,51.6c-0.5,0.5-2.5,2.1-2.2,0C207.8,49.9,209,51,209.7,51.6z"/>
		<path d="M118.8,109.5c-2.7-3.2,4.8-2.3,4.1,1.3C122.1,114.5,118.3,109.7,118.8,109.5z"/>
		<path d="M138.4,126c1.3-0.2,5.2-1.9,4.2,0.6C141.9,128.5,138.5,127.1,138.4,126z"/>
	</g>
	<g>
		<path class="st0" d="M63.5,264.5c0-5,0-5.9-0.1-6.9c-0.1-1.1-0.3-1.6-1.4-1.8c-0.3-0.1-0.8-0.1-1.1-0.1c-0.1,0-0.3-0.1-0.3-0.2
			c0-0.2,0.2-0.3,0.5-0.3c1.4,0,3.4,0.1,3.6,0.1c0.7,0,2.6-0.1,4-0.1c4,0,5.4,1.3,6,1.8c0.7,0.7,1.6,2.1,1.6,3.8
			c0,4.5-3.3,7.6-7.9,7.6c-0.2,0-0.5,0-0.7,0c-0.2,0-0.4-0.1-0.4-0.2c0-0.3,0.2-0.3,0.9-0.3c3.1,0,5.5-2.3,5.5-5.2
			c0-1.1-0.1-3.2-1.8-4.9c-1.7-1.7-3.6-1.6-4.4-1.6c-0.5,0-1.1,0.1-1.4,0.2c-0.2,0.1-0.3,0.3-0.3,0.6v13.2c0,3.1,0,5.6,0.2,6.9
			c0.1,0.9,0.3,1.6,1.2,1.8c0.4,0.1,1.2,0.1,1.4,0.1c0.2,0,0.3,0.1,0.3,0.2c0,0.2-0.2,0.3-0.5,0.3c-1.8,0-3.8-0.1-3.9-0.1
			c-0.1,0-2.1,0.1-3.1,0.1c-0.4,0-0.5-0.1-0.5-0.3c0-0.1,0.1-0.2,0.3-0.2c0.3,0,0.7-0.1,1-0.1c0.6-0.1,0.8-0.8,0.9-1.8
			c0.2-1.3,0.2-3.9,0.2-6.9V264.5z"/>
		<path class="st0" d="M83.6,264.5c0-5,0-5.9-0.1-6.9c-0.1-1.1-0.3-1.6-1.4-1.8c-0.3-0.1-0.8-0.1-1.1-0.1c-0.1,0-0.3-0.1-0.3-0.2
			c0-0.2,0.2-0.3,0.5-0.3c1.4,0,3.5,0.1,3.6,0.1c0.4,0,2.8-0.1,3.8-0.1c2,0,4.2,0.2,5.9,1.4c0.8,0.6,2.2,2.1,2.2,4.4
			c0,2.4-1,4.7-3.9,7.4c2.6,3.4,4.8,6.2,6.7,8.2c1.7,1.8,3.1,2.2,3.9,2.3c0.6,0.1,1.1,0.1,1.2,0.1c0.2,0,0.3,0.1,0.3,0.2
			c0,0.2-0.2,0.3-0.8,0.3H102c-1.8,0-2.6-0.2-3.4-0.6c-1.4-0.7-2.5-2.3-4.3-4.7c-1.3-1.8-2.8-3.9-3.5-4.7c-0.1-0.1-0.2-0.2-0.4-0.2
			l-3.9-0.1c-0.2,0-0.2,0.1-0.2,0.3v0.8c0,3.1,0,5.6,0.2,6.9c0.1,0.9,0.3,1.6,1.2,1.8c0.4,0.1,1.2,0.1,1.4,0.1
			c0.2,0,0.3,0.1,0.3,0.2c0,0.2-0.2,0.3-0.5,0.3c-1.8,0-3.8-0.1-3.9-0.1c0,0-2,0.1-3,0.1c-0.4,0-0.5-0.1-0.5-0.3
			c0-0.1,0.1-0.2,0.3-0.2c0.3,0,0.7-0.1,1-0.1c0.6-0.1,0.8-0.8,0.9-1.8c0.2-1.3,0.2-3.9,0.2-6.9V264.5z M86.2,267.3
			c0,0.2,0.1,0.3,0.2,0.4c0.5,0.3,2,0.5,3.4,0.5c0.8,0,1.7-0.1,2.4-0.6c1.1-0.8,2-2.5,2-4.9c0-4-2.1-6.4-5.5-6.4
			c-1,0-1.8,0.1-2.1,0.2c-0.2,0.1-0.3,0.2-0.3,0.4V267.3z"/>
		<path class="st0" d="M117.2,254.8c7.2,0,12.6,4.5,12.6,12c0,7.2-5.1,13.1-12.8,13.1c-8.8,0-12.4-6.8-12.4-12.6
			C104.6,262.1,108.3,254.8,117.2,254.8z M117.8,278.6c2.9,0,8.8-1.7,8.8-11c0-7.7-4.7-11.8-9.7-11.8c-5.3,0-9.3,3.5-9.3,10.5
			C107.6,273.8,112.1,278.6,117.8,278.6z"/>
		<path class="st0" d="M136.5,264.5c0-5,0-5.9-0.1-6.9c-0.1-1.1-0.3-1.6-1.4-1.8c-0.3-0.1-0.8-0.1-1.1-0.1c-0.1,0-0.3-0.1-0.3-0.2
			c0-0.2,0.2-0.3,0.5-0.3c0.7,0,1.6,0,2.3,0l1.3,0c0.6,0,7.1,0,7.9,0c0.6,0,1.1,0,1.4-0.1c0.2-0.1,0.3-0.2,0.4-0.2s0.2,0.1,0.2,0.3
			c0,0.2-0.2,0.6-0.3,1.5c0,0.3-0.1,1.7-0.2,2.1c0,0.2-0.1,0.4-0.3,0.4s-0.2-0.2-0.2-0.4c0-0.3-0.1-0.8-0.3-1.2
			c-0.2-0.4-0.9-1-2.2-1l-4.9-0.1c-0.2,0-0.3,0.1-0.3,0.4v8.8c0,0.2,0,0.3,0.2,0.3l4.1,0c0.5,0,1,0,1.4,0c0.8-0.1,1.2-0.2,1.5-0.6
			c0.1-0.2,0.2-0.3,0.4-0.3s0.2,0.1,0.2,0.3c0,0.2-0.2,0.7-0.3,1.8c-0.1,0.6-0.1,1.9-0.1,2.1c0,0.3,0,0.6-0.2,0.6
			c-0.2,0-0.2-0.1-0.2-0.3c0-0.3-0.1-0.8-0.2-1.2c-0.2-0.4-0.7-1-1.7-1.2c-0.8-0.1-4.3-0.1-4.8-0.1c-0.2,0-0.2,0.1-0.2,0.3v2.7
			c0,3.1,0,5.6,0.2,6.9c0.1,0.9,0.3,1.6,1.2,1.8c0.4,0.1,1.2,0.1,1.4,0.1c0.2,0,0.3,0.1,0.3,0.2c0,0.2-0.2,0.3-0.5,0.3
			c-1.8,0-3.8-0.1-3.9-0.1c-0.2,0-2.2,0.1-3.1,0.1c-0.4,0-0.5-0.1-0.5-0.3c0-0.1,0.1-0.2,0.3-0.2c0.3,0,0.7-0.1,1-0.1
			c0.6-0.1,0.8-0.8,0.9-1.8c0.2-1.3,0.2-3.9,0.2-6.9V264.5z"/>
		<path class="st0" d="M158.2,270.1c0,3.1,0,5.6,0.2,6.9c0.1,0.9,0.3,1.6,1.2,1.8c0.4,0.1,1.2,0.1,1.4,0.1c0.2,0,0.3,0.1,0.3,0.2
			c0,0.2-0.2,0.3-0.5,0.3c-1.8,0-3.8-0.1-3.9-0.1c-0.2,0-2.2,0.1-3.1,0.1c-0.4,0-0.5-0.1-0.5-0.3c0-0.1,0.1-0.2,0.3-0.2
			c0.3,0,0.7-0.1,1-0.1c0.6-0.1,0.8-0.8,0.9-1.8c0.2-1.3,0.2-3.9,0.2-6.9v-5.6c0-5,0-5.9-0.1-6.9c-0.1-1.1-0.4-1.6-1.1-1.8
			c-0.4-0.1-0.8-0.1-1-0.1c-0.1,0-0.3-0.1-0.3-0.2c0-0.2,0.2-0.3,0.5-0.3c1.1,0,3.1,0.1,3.2,0.1c0.2,0,2.2-0.1,3.1-0.1
			c0.4,0,0.5,0.1,0.5,0.3c0,0.1-0.1,0.2-0.3,0.2c-0.2,0-0.4,0-0.8,0.1c-0.9,0.2-1.1,0.7-1.2,1.8c-0.1,1-0.1,1.9-0.1,6.9V270.1z"/>
		<path class="st0" d="M176.4,270.1c0,3.1,0,5.6,0.2,6.9c0.1,0.9,0.3,1.6,1.2,1.8c0.4,0.1,1.2,0.1,1.4,0.1c0.2,0,0.3,0.1,0.3,0.2
			c0,0.2-0.2,0.3-0.5,0.3c-1.8,0-3.8-0.1-3.9-0.1s-2.2,0.1-3.1,0.1c-0.4,0-0.5-0.1-0.5-0.3c0-0.1,0.1-0.2,0.3-0.2
			c0.3,0,0.7-0.1,1-0.1c0.6-0.1,0.8-0.8,0.9-1.8c0.2-1.3,0.2-3.9,0.2-6.9v-13.5l-4.7,0.1c-2,0-2.8,0.3-3.3,1c-0.4,0.5-0.4,0.8-0.5,1
			c-0.1,0.3-0.2,0.3-0.3,0.3c-0.1,0-0.2-0.1-0.2-0.3c0-0.3,0.6-3.1,0.7-3.3c0.1-0.2,0.2-0.6,0.3-0.6c0.2,0,0.5,0.3,1.4,0.4
			c0.9,0.1,2.1,0.2,2.5,0.2h12c1,0,1.8-0.1,2.3-0.2c0.5-0.1,0.8-0.2,0.9-0.2c0.2,0,0.2,0.2,0.2,0.4c0,1-0.1,3.2-0.1,3.5
			c0,0.3-0.1,0.4-0.2,0.4c-0.2,0-0.2-0.1-0.3-0.5l0-0.4c-0.1-1-0.9-1.7-3.9-1.8l-4-0.1V270.1z"/>
		<path class="st0" d="M202.1,264.5c0-5,0-5.9-0.1-6.9c-0.1-1.1-0.3-1.6-1.4-1.8c-0.3-0.1-0.8-0.1-1.1-0.1c-0.1,0-0.3-0.1-0.3-0.2
			c0-0.2,0.2-0.3,0.5-0.3c0.7,0,1.6,0,2.3,0l1.3,0c0.6,0,7.1,0,7.9,0c0.6,0,1.1,0,1.4-0.1c0.2-0.1,0.3-0.2,0.4-0.2s0.2,0.1,0.2,0.3
			c0,0.2-0.2,0.6-0.3,1.5c0,0.3-0.1,1.7-0.2,2.1c0,0.2-0.1,0.4-0.3,0.4s-0.2-0.2-0.2-0.4c0-0.3-0.1-0.8-0.3-1.2
			c-0.2-0.4-0.9-1-2.2-1l-4.9-0.1c-0.2,0-0.3,0.1-0.3,0.4v8.8c0,0.2,0,0.3,0.2,0.3l4.1,0c0.5,0,1,0,1.4,0c0.8-0.1,1.2-0.2,1.5-0.6
			c0.1-0.2,0.2-0.3,0.4-0.3s0.2,0.1,0.2,0.3c0,0.2-0.2,0.7-0.3,1.8c-0.1,0.6-0.1,1.9-0.1,2.1c0,0.3,0,0.6-0.2,0.6
			c-0.2,0-0.2-0.1-0.2-0.3c0-0.3-0.1-0.8-0.2-1.2c-0.2-0.4-0.7-1-1.7-1.2c-0.8-0.1-4.3-0.1-4.8-0.1c-0.2,0-0.2,0.1-0.2,0.3v2.7
			c0,3.1,0,5.6,0.2,6.9c0.1,0.9,0.3,1.6,1.2,1.8c0.4,0.1,1.2,0.1,1.4,0.1c0.2,0,0.3,0.1,0.3,0.2c0,0.2-0.2,0.3-0.5,0.3
			c-1.8,0-3.8-0.1-3.9-0.1c-0.2,0-2.2,0.1-3.1,0.1c-0.4,0-0.5-0.1-0.5-0.3c0-0.1,0.1-0.2,0.3-0.2c0.3,0,0.7-0.1,1-0.1
			c0.6-0.1,0.8-0.8,0.9-1.8c0.2-1.3,0.2-3.9,0.2-6.9V264.5z"/>
		<path class="st0" d="M221,264.5c0-5,0-5.9-0.1-6.9c-0.1-1.1-0.3-1.6-1.4-1.8c-0.3-0.1-0.8-0.1-1.1-0.1c-0.1,0-0.3-0.1-0.3-0.2
			c0-0.2,0.2-0.3,0.5-0.3c0.7,0,1.6,0,2.3,0l1.3,0.1c0.2,0,6.6,0,7.3,0c0.6,0,1.1-0.1,1.4-0.2c0.2,0,0.3-0.2,0.4-0.2
			c0.1,0,0.1,0.1,0.1,0.3c0,0.2-0.2,0.6-0.3,1.5c0,0.3-0.1,1.7-0.2,2.1c0,0.2-0.1,0.4-0.2,0.4c-0.2,0-0.3-0.2-0.3-0.4
			c0-0.2,0-0.8-0.2-1.2c-0.2-0.5-0.5-0.9-2.3-1.1c-0.5-0.1-4-0.1-4.4-0.1c-0.1,0-0.2,0.1-0.2,0.3v8.8c0,0.2,0,0.3,0.2,0.3
			c0.4,0,4.4,0,5.1-0.1c0.8-0.1,1.2-0.1,1.5-0.4c0.2-0.3,0.4-0.4,0.5-0.4c0.1,0,0.2,0.1,0.2,0.3c0,0.2-0.2,0.7-0.3,1.8
			c-0.1,0.6-0.1,1.8-0.1,2c0,0.3,0,0.6-0.2,0.6c-0.2,0-0.2-0.1-0.2-0.3c0-0.3,0-0.6-0.1-1.1c-0.1-0.4-0.4-1-1.7-1.1
			c-0.9-0.1-4-0.2-4.6-0.2c-0.2,0-0.2,0.1-0.2,0.2v2.8c0,1.1,0,4.8,0,5.5c0.1,2.2,0.6,2.6,3.7,2.6c0.8,0,2.2,0,3.1-0.4
			c0.8-0.4,1.2-1,1.4-2.3c0.1-0.4,0.1-0.5,0.3-0.5c0.2,0,0.2,0.3,0.2,0.5c0,0.3-0.3,2.4-0.4,3.1c-0.2,0.8-0.5,0.8-1.7,0.8
			c-2.4,0-4.2-0.1-5.4-0.1c-1.2-0.1-2-0.1-2.5-0.1c-0.1,0-0.6,0-1.3,0c-0.6,0-1.4,0.1-1.9,0.1c-0.4,0-0.5-0.1-0.5-0.3
			c0-0.1,0.1-0.2,0.3-0.2c0.3,0,0.7-0.1,1-0.1c0.6-0.1,0.8-0.8,0.9-1.8c0.2-1.3,0.2-3.9,0.2-6.9V264.5z"/>
		<path class="st0" d="M240.5,264.5c0-5,0-5.9-0.1-6.9c-0.1-1.1-0.3-1.6-1.4-1.8c-0.3-0.1-0.8-0.1-1.1-0.1c-0.1,0-0.3-0.1-0.3-0.2
			c0-0.2,0.2-0.3,0.5-0.3c0.7,0,1.6,0,2.3,0l1.3,0.1c0.2,0,6.6,0,7.3,0c0.6,0,1.1-0.1,1.4-0.2c0.2,0,0.3-0.2,0.4-0.2
			c0.1,0,0.1,0.1,0.1,0.3c0,0.2-0.2,0.6-0.3,1.5c0,0.3-0.1,1.7-0.2,2.1c0,0.2-0.1,0.4-0.2,0.4c-0.2,0-0.3-0.2-0.3-0.4
			c0-0.2,0-0.8-0.2-1.2c-0.2-0.5-0.5-0.9-2.3-1.1c-0.5-0.1-4-0.1-4.4-0.1c-0.1,0-0.2,0.1-0.2,0.3v8.8c0,0.2,0,0.3,0.2,0.3
			c0.4,0,4.4,0,5.1-0.1c0.8-0.1,1.2-0.1,1.5-0.4c0.2-0.3,0.4-0.4,0.5-0.4c0.1,0,0.2,0.1,0.2,0.3c0,0.2-0.2,0.7-0.3,1.8
			c-0.1,0.6-0.1,1.8-0.1,2c0,0.3,0,0.6-0.2,0.6c-0.2,0-0.2-0.1-0.2-0.3c0-0.3,0-0.6-0.1-1.1c-0.1-0.4-0.4-1-1.7-1.1
			c-0.9-0.1-4-0.2-4.6-0.2c-0.2,0-0.2,0.1-0.2,0.2v2.8c0,1.1,0,4.8,0,5.5c0.1,2.2,0.6,2.6,3.7,2.6c0.8,0,2.2,0,3.1-0.4
			c0.8-0.4,1.2-1,1.4-2.3c0.1-0.4,0.1-0.5,0.3-0.5c0.2,0,0.2,0.3,0.2,0.5c0,0.3-0.3,2.4-0.4,3.1c-0.2,0.8-0.5,0.8-1.7,0.8
			c-2.4,0-4.2-0.1-5.4-0.1c-1.2-0.1-2-0.1-2.5-0.1c-0.1,0-0.6,0-1.3,0c-0.6,0-1.4,0.1-1.9,0.1c-0.4,0-0.5-0.1-0.5-0.3
			c0-0.1,0.1-0.2,0.3-0.2c0.3,0,0.7-0.1,1-0.1c0.6-0.1,0.8-0.8,0.9-1.8c0.2-1.3,0.2-3.9,0.2-6.9V264.5z"/>
		<path class="st0" d="M260,264.5c0-5,0-5.9-0.1-6.9c-0.1-1.1-0.3-1.6-1.4-1.8c-0.3-0.1-0.8-0.1-1.1-0.1c-0.1,0-0.3-0.1-0.3-0.2
			c0-0.2,0.2-0.3,0.5-0.3c1.4,0,3.5,0.1,3.6,0.1c0.4,0,2.4-0.1,4.3-0.1c3.2,0,9-0.3,12.8,3.6c1.6,1.7,3.1,4.3,3.1,8.1
			c0,4-1.7,7.1-3.5,9c-1.4,1.4-4.3,3.7-9.7,3.7c-1.4,0-3.1-0.1-4.4-0.2c-1.4-0.1-2.5-0.2-2.7-0.2c-0.1,0-0.6,0-1.3,0
			c-0.6,0-1.4,0.1-1.9,0.1c-0.4,0-0.5-0.1-0.5-0.3c0-0.1,0.1-0.2,0.3-0.2c0.3,0,0.7-0.1,1-0.1c0.6-0.1,0.8-0.8,0.9-1.8
			c0.2-1.3,0.2-3.9,0.2-6.9V264.5z M262.7,268c0,3.4,0,6.3,0.1,6.9c0,0.8,0.1,2.1,0.4,2.4c0.4,0.6,1.7,1.3,5.4,1.3
			c3,0,5.7-1.1,7.6-3c1.7-1.6,2.6-4.7,2.6-7.6c0-4.1-1.8-6.7-3.1-8.1c-3-3.2-6.7-3.6-10.5-3.6c-0.6,0-1.8,0.1-2.1,0.2
			c-0.3,0.1-0.4,0.3-0.4,0.6c0,1.1,0,4.4,0,6.8V268z"/>
	</g>
</g>
</svg>
