<?xml version="1.0" encoding="utf-8"?>
<!-- Generator: Adobe Illustrator 22.1.0, SVG Export Plug-In . SVG Version: 6.00 Build 0)  -->
<svg version="1.1" id="Слой_1" xmlns="http://www.w3.org/2000/svg" xmlns:xlink="http://www.w3.org/1999/xlink" x="0px" y="0px"
	 viewBox="0 0 341.7 292.2" style="enable-background:new 0 0 341.7 292.2;" xml:space="preserve">
<style type="text/css">
	.st0{fill:#000105;}
	.st1{fill:#73B55F;}
</style>
<title>icon-</title>
<path class="st0" d="M189.4,226.2c-3.9,1.4-11.9-1.4-15.2-3.7c-2.6-1.8-4.8-4.4-7.3-6.4c-2.1-1.7-4.5-2.2-6.9-3.4
	c-5.3-2.8-7.6-8.5-9.8-13.8c-0.9-2.6-2.1-5.2-3.5-7.6c-1.8-2.8-3.1-3.4-6.2-4.5c-2.6-0.9-5.1-2.1-7.9-2.2c-1.6,0-4.6,1.6-4.8-0.4
	c0,0.4,1.6-2.4,1.4-2.1c0.8-1.2,1.8-2.3,2.9-3.2c2.2-2.1,4.2-4.2,6.2-6.4c3.7-4.1,6.9-8.5,10.6-12.6c4.2-4.5,8.8-8.5,13-13
	c-1.8-1.4-4.4-2.8-5-5.1c-0.5-2.4,0.2-4.8,1.9-6.6c4.5-4.4,12.1-1.8,17.5-3.9c2.7-1.1,3.7-2.5,5.6-4.5c2.2-2.3,5.2-4,7.2-6.5
	c1.5-2,2.5-4.1,4.8-5.4c1.8-1,2.5-0.3,4.3-0.5c1-0.1,0.5,0.5,1.2-0.2c0.5-0.4,0.6-1.5,1-2.1c1.3-1.9,4.6-3.1,6.8-3.4
	c1.2-0.2,7,0.9,4.4,2.5c-1.3,0.8-2.3-0.6-3.4-0.7c-1.2,0-2.4,0.3-3.5,0.8c-1.3,0.5-2.5,0.8-3.2,2.1c-0.5,0.9-0.2,2.3-1.2,2.8
	s-1.7-0.2-2.6-0.2c-1.3-0.2-2.6,0-3.6,0.8c-2.6,1.7-3.6,5-5.7,7.3c-1.7,1.7-3.3,3.1-4.8,4.9c-2.2,2.3-4.8,4-7.8,5
	c-4.2,1.4-17.3-1.4-16.5,6.2c0.2,1.7,1.1,3.1,2.6,3.9c2.9,1.2,5.9-4.9,7.3-4c-2.2,4.3-6.2,8-9.3,11.7s-7.1,6.6-10.4,10.2
	c-3.3,3.4-5.1,7.4-7.9,11.1c-2.6,3.5-7.3,5.7-9.4,9.5c3.4,1.3,6.6,1.8,9.9,3.2c-1.1-3.5-1.7-5.7,0.2-9c0.7-1.2,1-2.3,2.5-2.8
	c1.3-0.4,3.8,0.2,5.1,0.7c3.4,1.3,6.1,4.9,8.4,7.6c2.2,2.6,4.2,5.3,6,8.2c1.6,2.8,2.1,5.1,5,6.6c2.1,1.1,4.6,6,6.9,6.2
	c2.9,0.2-0.6-6.9-1.3-8.4c-0.7-1.7-1.4-3.4-1.8-5.2c-0.3-1.1-1.8-3.6-1.4-4.4c2,2.4,3.4,5.7,4.9,8.4c2,3.5,3.8,7,5.4,10.7
	c1,2.7,2.7,5.2,4.9,7.1c2.4,2.4,4.6,5.2,6.4,8.1c1.8,2.7,4,4.3,6.4,6.4s3.4,4.2,6.6,4.8c7.2,1.3,14.9,3,22.2,1.6
	c7.1-1.3,13.8-2.1,20.6-4.6c7.3-2.7,14.5-5.6,21.5-9c6.7-3.3,13.9-6.6,19.8-11.2s11.7-9.2,17.5-13.8c6.4-5,12.7-10.2,18.9-15.4
	c2.9-2.5,4.9-5.5,7.8-7.9c2.1-1.8,4.5-5.9,7.1-6.6c-2.2,4.5-6.6,8.7-9.9,12.3c-3.7,4.1-8,7.1-12.2,10.5
	c-8.2,6.5-16.2,13.2-24.3,19.9c-17.9,14.7-40.1,22.8-62.5,27.6c-5.6,1.4-11.4,1.6-17.1,0.8l-8-1.2c-2.9-0.4-3.9-1.3-6.3-3
	c-4-2.7-7.8-5.2-10.7-9.3c-1.2-1.9-2.5-3.8-3.9-5.5c-1.8-2-4-3.8-5.5-6s-2-3.7-4.5-5.3c-2.3-1.5-4.6-3.5-7-4.8
	c-1.2-0.6-1.9-0.6-2.8-1.7c-0.8-1.1-1.5-2.3-2.1-3.5c-1.4-2.5-3-4.9-4.7-7.2c-1.7-2.1-3.5-4.2-5.4-6.1c-1.6-1.8-3.5-4.7-5.6-5.9
	c-1.6-0.9-3.6-0.7-4.9,0.6c-1.7,2-0.2,5.5,0.7,7.4c1.2,2.6,3,4.8,4.4,7.2c1.7,2.8,2.5,5.8,3.8,8.7c2.3,5.3,5,9.2,10.3,11.6
	s8.4,7.6,13.6,9.9c2.5,1.1,5.2,1.5,7.7,2.6C186.5,224.3,188.7,223.9,189.4,226.2z"/>
<path class="st0" d="M192.5,239.1c-6.8,1.8-14.7,0.9-21.7,0.7c-7.7-0.2-15.5-0.3-23.2-1.1c-7.1-0.6-14.1-1.7-21.1-3.3
	c-3.5-0.9-7-1.6-10.5-2.4c-3.7-0.8-7-2.1-10.6-3.1c-6.8-1.7-12.9-5-19.3-8.1s-13.1-6.1-19.2-10.1c-5.4-3.5-11.1-6.7-16.2-10.6
	c-2.1-1.6-4.7-3.1-5.7-5.7c-0.9-2.7-0.5-5.7,1.1-8c1.9-3,4.4-5.6,6.1-8.8s2.1-6.6,3.6-9.8c1.2-2.5,4.6-5.5,6.8-2
	c0.9,1.4,0.6,3.7,0.7,5.2c0,2.1,0.5,4.1,1.5,6c4-1.7-0.2-7.9,0.5-10.9c0.9-4.1,4.6-6.9,8.3-8.3c3.4-1.3,9.1-1.3,11.6-4
	c0.8-0.9,2.5-4.2,1.7-5.4s-3.4-1.5-4.5-2.2c-3.6-2.1-5.3-5.5-7.5-8.9s-5.8-4.9-8.9-7.2c-2.5-1.9-5.7-5.5-9.1-5.1
	c-1.5,0.2-2.9,0.6-4.3,1.2c-0.9,0.4-3.5,2.9-4.4,2.1c0.5-1,1-1.4,0.7-2.5c-0.2-0.8-1.6-2-2.1-2.6c-1.2-1.5-2.3-3.1-3.6-4.5
	c-2.6-2.7-6.1-4.4-9.3-6.2c-3.6-2-7.2-3.8-11-5.4c-4-1.7-8-1.9-12.1-3.1c2.1-2.2,7.2-1.2,9.8-0.9c3.7,0.4,7.8,0.6,11.4,1.5
	c1.9,0.5,16.7,8.9,15,10.7c-4.3-2.2-7.8-6.3-12.3-8.5c-2.2-0.9-4.5-1.5-6.9-1.6c-2.7-0.3-5.8-1.3-8.5-0.9c7.2,2.1,13.9,5.8,20.3,9.5
	c2.9,1.7,5.4,3.9,7.4,6.6c0.9,1.2,1.9,3.3,3.1,4.2s0.5,0.7,2.1,0.4c0.9-0.3,1.8-0.6,2.6-1c-1.4-1.9-2.7-3.8-4.1-5.7
	c1.8,0.8,3.3,2.1,4.4,3.7c1.5,1.9,2.2,1.5,4.4,2c4,0.8,7,4.8,10.4,6.8c4.1,2.4,6.4,5.6,9.4,9.3c1.1,1.4,2.4,2.6,3.8,3.6
	c1.6,1.1,4.4,1.5,5.5,3.3c1.7,2.8-0.5,7.3-2.8,9.1c-3.7,2.8-9.2,2.3-13.4,4s-6.7,5.5-4.9,9.8c0.9,2.1,1.6,4.1,0.5,6.4
	c-1.3,2.7-3.8,3-5.1,0.3c-1-2.1-0.5-12.5-4.2-9.2c-1.4,1.3-1.5,4.3-2.1,6c-0.9,2.7-2.1,5.3-3.6,7.8c-2.4,3.7-7,6.4-4.6,11.1
	s6.3,7.4,10.7,10.2c9.4,5.9,19,11.3,29,16.1c10.3,4.7,21,8.4,32,11.1c11.8,2.9,24.2,6.3,36.4,6.5
	C160.3,237.5,192.5,237.3,192.5,239.1z"/>
<path class="st0" d="M63.9,80.1c-0.8-1.9-3.3-1.8-4.9-2.7c-1.8-0.9-3.4-2.1-4.8-3.6c-1.4-1.6-3-12-0.9-11.6c0,5.1,1.2,10.1,5.8,13.1
	c2,1.4,4.4,1.2,6,3.2s2.6,4.5,4.2,6.5c2.9,3.7,6.9,8.3,12.1,6.2c5.5-2.2,1.8-12.6,1.6-16.6c-0.6-12.4,0.3-25.3-2.7-37.5
	c-1.3-5.6-3.7-8.3-9.7-9.3c-3-0.5-6.4,0.4-9.4-0.3c-3.5-0.8-2.4-4.1-4.4-6.2c-1,4-0.5,8.4-2,12.3c-0.7,1.8-2,3.1-3,4.6
	c-1.3,2.2-2.4,4.4-3.4,6.7c-1.1,2.2-2.2,4.3-3.2,6.5c-0.6,1.2-1.5,4.5-2.4,5.5c-0.4,0.4-1.9,1.4-2.6,0.3c-0.6-0.9,2.2-6,2.5-6.9
	c1.7-3.9,3.7-7.7,6.1-11.2c2.5-3.7,4.3-6.3,4.9-10.8c0.2-2,0.5-4,0.9-6c0.3-1.2,0.6-5.4,1.6-6.1c2.7-1.8,2.8,5.9,4,7.6
	c1.7,2.5,6.7,2.1,9.3,1.2c1.6-0.6,3-2.3,4-3.6c0.8-1,2.1-5.1,3.1-5.6c3.1-1.8,2.2,7.5,2.1,8.8c-0.3,2.4-0.7,3.1,0.8,5
	s1.7,3.1,2.1,5.4c1.8,9,2.8,18.1,3.1,27.3c0.2,4.8-0.1,9.5,0.4,14.3c0.4,4.1,2.6,9.1,0.5,13c-2,3.7-6.4,5.4-10.4,3.9
	c-3.4-1.4-6.5-6.4-8.7-9.2c-1.7-2.2-2.9-1.3-4.5,0.8s-2,4.3-2.3,6.9s-0.5,5.5-0.6,8.2c-0.1,2.2,0.5,4.6-0.7,6.5
	c-2.9-3.3-2-11-1.4-15.1C57.6,86.5,59.2,82.7,63.9,80.1z M72,25.9c1,1,2.9,1.6,3.8,0.8c1.1-1.1,0.3-3.9,0.4-5.2
	C74.7,22.9,73.4,24.4,72,25.9z"/>
<path class="st0" d="M128.7,129.2c-0.9,1-2.5,1.5-3.2,2.3c-0.9,1-1,2.5-1.6,3.8c-1.2,2.5-5.3,6-8.1,4c1.8-2,4.7-1.7,6.1-4.3
	c1.1-2.1,1.3-3.7,3-5.3c1.3-1.2,2.1-1.2,1.1-2.7c-0.6-1-2.5-1.8-3.3-2.8c-1.2-1.4-2.3-2.9-3.6-4.2c-2.3-2.3-5.4-3.1-6.1-6.5
	c-0.5-2.6,0-5.3,1.4-7.6c1.3-2.3,1.7-5.1,4.5-6c3.8-1.3,8-0.6,11.7-2.2c1.5-0.6,2.3-2.2,3.7-2.9c1.2-0.6,2.4,0,3.7,0.3
	c0.2-0.3-2.4-6.9-3-7.6c-1.4-1.7-3.5-4.7-5.5-5.8c-1-0.6-2.1-0.4-3-0.8c-1.1-0.5-1.8-1.8-2.9-2.4c-2.7-1.9-5.1-0.7-7.9-1.6
	c1.2-2.7,7.3-1.7,9.4-0.3c1.7,1.2,2,2,4,2.6c1.6,0.4,2.9,1.3,4,2.5c1,1.3,1.7,2.7,2.3,4.2c0.2,0.5,0.5,1,0.8,1.5
	c0.5,0.7,1,1.3,1.5,2c0.8,1.3,1.6,2.6,2.3,4c0.9,1.9,0.4,3.1,0.7,5c2.3-1.7,4.3-3.6,7.1-1.7c0.9,0.6,2.3,1.9,2.4,3.1
	c0.2,2-0.3,1.1-1.5,1.8c-2.8,1.8-1.3,2.4-1.1,5.4c0.1,1.1-0.1,2.3-0.8,3.2c-0.5,0.7-2.3,1.3-2.5,1.9c-0.6,1.6,1.3,6.7,1.9,8.3
	c1,3.1,0.5,6.6-1.3,9.3C141.1,135.6,133.1,132.5,128.7,129.2z M129.9,128c3.2,2.1,8.6,4.6,12.3,1.9c1.2-0.9,3.3-5.1,3-6.6
	s-1.7-2.8-2.1-4.5c-0.5-2.3-0.6-4.6-1.2-6.9c-0.7-2.5-2-4.5-2.9-6.9c-0.8-2.1-0.1-4.1-1.2-5.9c-1.5-2.5-2.9-2.4-5.1-0.8
	s-3.2,1.7-5.6,2.4c-1.1,0.3-2,0.8-3.1,1c-1.3,0.2-2.7-0.2-3.9,0.3c-2.3,0.8-1.7,2.1-2.9,4.1s-2.2,2.6-2.4,4.9
	c-0.1,1.9-0.4,3.3,1.1,4.7c1.6,1.6,3.1,2.2,4.4,4.3s2.1,3.2,4.3,4.2C126.6,125,128.8,125.6,129.9,128z M143.5,109.5
	c3.2-1.3,0.6-3.9,0.9-6.3c0.2-2,4.6-4.4,1.6-5.5c-1.6-0.6-4.6,1.9-5.1,3.5C140.2,103.5,142.6,107.4,143.5,109.5z"/>
<path class="st0" d="M149.8,20.1c3.8,1.3,10.8,2.2,10.8,7.5c0.1,2.1-1.5,3.8-3.5,3.9c0,0,0,0-0.1,0c-0.7,0-1.8-0.1-2.2-0.9
	c-0.5-1.1,0.2-0.7,1-1.4c1.6-1.4,3-2.2,0.9-4c-1.8-1.5-5-2.1-7.1-3.3c-2.7-1.4-1.7-2-1-4.7c0.3-1.2,2.2-7.4,1.6-7.7
	c-2.4,3.4-4.6,7.7-9.1,8.4c-5.1,0.8-10,0.8-15,2.3c-4.5,1.4-8.5,3.9-13.3,2.2c-2.1-0.8-4.1-2-5.9-3.5c-0.9-0.7-3.1-4.1-4.1-4.2
	c0.1,1.9,0.4,3.7,0.9,5.5c0.5,1.6,2,3.3,2.3,4.8c0.6,3.3-5.1,5.7-7.2,7.6c-0.9,0.8-2.7,2-2.3,3.4s2.9,2.1,4,2.3
	c3.5,0.4,6.7-2.4,10.2-2c-1.7,3.4-7.7,5.2-11.3,4.5c-2.1-0.4-3.8-1.7-4.9-3.5c-1.3-2.7,0.4-4.1,2.3-5.8c1.8-1.6,3.7-3.1,5.7-4.5
	c1.7-1.2,1.6-0.9,0.6-2.7c-0.7-1.2-1.2-2.5-1.6-3.9c-0.9-3.1-3-13.1,0.7-15.2c1,3.2,1.1,6.2,3.3,8.9c2.3,2.7,5.2,4.7,8.5,6
	c4,1.6,7.6-0.7,11.4-2.1c4.5-1.5,9.2-2.3,13.9-2.2c3.8,0,5.5-2.8,7.5-5.8c1-1.6,1.9-3.2,2.5-5c0.4-1.2,0.4-3.5,1.3-4.4
	c2.9-3,2.7,6.2,2.6,7.4C153.1,12.3,151.9,16.4,149.8,20.1z"/>
<path class="st0" d="M230.4,120.3c3.2,2,6.5,3.8,9.7,5.8c2.5,1.6,6.4,3.5,7.6,6.3c-4.1-1-7.2-4-10.9-6c-4.3-2.3-8.5-5-12.3-8.1
	c-1.2-0.9-3.6-2.4-4.2-3.9c-1.1-2.6,1.2-0.6,2.2,0.2c1.3,1,3.1,2.9,4.6,3.4c2,0.7,4.4-0.6,6.3-1.3c4.4-1.7,8.7-3.7,13.3-5
	c5.1-1.5,9.8-1.1,15-0.8c8.7,0.6,17.1,4.2,25.6,5.4c9,1.3,19.9,0.3,28.3-3.4c4.3-1.7,8.2-4.2,11.5-7.4c1.4-1.4,4.9-10.3,7.3-8.6
	c1.5,1-3.9,8.5-4.9,9.7c-3.1,3.3-6.9,5.9-11.1,7.6c-1.7,0.8-3.4,1.5-5.2,2c-2.3,0.4-4.7,0.7-7.1,1.1c-5,0.8-9.8,1.7-14.8,1.6
	c-2.8,0.2-5.6,0-8.3-0.6c-2.7-0.6-5.3-1.8-8-2.4c-2.5-0.4-4.9-1-7.3-1.7c-2.1-0.6-3.7-2.2-5.8-2.5c-5.1-0.5-11.8,1.4-16.7,2.9
	C240.1,116.2,235.5,118.8,230.4,120.3z"/>
<path class="st0" d="M47.7,138.3c2,2.1,0.3,5.3-0.4,7.7c-0.9,3-1.8,6-2.9,8.9c-0.9,2.2-2.2,4.9-4.3,6.1c-2.5,1.4-4.5,0.2-6.7-1.2
	c-1.8,3.4-6.4,6.2-10.2,4.6c-1.1-0.4-3.9-2.4-3.4-4c0.6-1.8,1.9,0.6,2.6,1.1c2,1.5,3.8,0.9,5.9-0.3c1.1-0.4,2-1.1,2.9-1.8
	c1.2-1.5,0.8-0.5-0.1-2.1c-3-5.6,2.5-8.6,6.1-11.9c2.9-2.6,5.7-7.1,3.7-11c-1.7-3.6-7-7.1-10.5-8.8c-5-2.3-10.7-3.7-15.9-5.1
	c-4-1.1-11.3-0.4-14.5-3.1c4.1-1.5,10.1-0.3,14.4-0.2c4.6-0.1,9.2,0.4,13.7,1.2c4.1,0.9,8.1,2.5,11.7,4.6c2.2,1.3,8.1,4.4,7.7,7.3
	c-2.4-0.4-4.7-3.3-6.9-4.6c-2.5-1.5-5.1-2.8-7.8-3.8c-2.8-1.1-5.8-1.8-8.8-2.2c-1.8-0.3-7.2-1.5-8.6-0.3l12.2,3.6
	c4.4,1.3,7,3.2,10.5,6.1c2.9,2.5,6.1,5.2,5.4,9.4c-0.7,3.3-2.4,6.2-4.9,8.5c-2.1,2-6.5,3.9-6.4,7.3c0,2.6,3.9,6.2,6.5,5
	c3.1-1.4,4.1-6.7,5.1-9.5C44.9,145.9,46.2,142,47.7,138.3z"/>
<path class="st0" d="M326.6,80c-2.9-2.4-5.1-5.6-7.9-8.2c-3.1-3-6.4-5.7-9.8-8.5c-6.8-5.5-14.3-9.7-21.9-13.9
	c-15.1-8.4-30.5-16-47.4-20.3c-4-1-8-2-12.1-3c-1.7-0.4-10.6-1.5-10.6-3.2c-0.1-3.1,7-0.1,8.5,0.2c4.3,1,8.6,1.8,12.8,3
	c16.7,4.5,32.8,11.1,47.8,19.6c3.8,2.2,6.9,5.2,10.6,7.5c2,1.2,4.2,1.7,6.1,2.9c1.6,1.1,3.1,2.2,4.5,3.5
	C309.7,61.5,328.5,78.3,326.6,80z"/>
<path class="st0" d="M279.5,152.9c1.4-1,2.6-3.9,4-5.2c1.9-1.7,4.1-3.1,6.4-4.2c0.9,1.1-6.1,6.9-7,8.3c-2.1,3.3-2.3,7.8-2.6,11.6
	c-0.3,4.2-0.5,8.2-2.6,12c-2.1,3.7-4.6,7.1-7.6,10.1c-2.8,3.1-5.9,5.9-9.2,8.4c-0.5,0.4-1,0.8-1.6,1.2c-1.1,0.5-1,0.1-1.9,0.4
	c-1.1,0.2-2.2,0.8-2.9,1.7c-1.1,1.2-1.6,3-2.9,3.9c-1.5,1.1-3.6,0.9-5.3,1.2s-10.8,3.3-11.5,1.8c2.8-1.7,6.4-2.5,9.7-3.2
	c2.4-0.5,5.2-0.1,6.9-2c0.9-1.1,1.3-2.3,2.5-3.3c1-0.8,2.2-1.4,3.2-2.1c2.4-1.5,4.5-3.2,6.5-5.2c4.5-4.5,9.2-8.8,12.3-14.5
	c1.5-2.8,1.7-5.6,1.9-8.6c0.2-2.6,1.3-6.5,0.5-9s-3.8-2.7-5.8-4.2c-2-1.7-4.1-3.1-6.4-4.3c-2.7-1.3-5.2-2.8-7.7-4.5
	c-1.4-0.9-6.7-4.1-6.8-5.9c-0.2-2.1,4.5,1.8,5.2,2.4c2.6,1.8,5.2,3.5,8,5c2.3,1.2,5.1,1.9,7.1,3.6
	C274.2,150.1,276.8,151.7,279.5,152.9z"/>
<path class="st0" d="M117.5,58.4c-1.9-2.6-4.1-5-5.1-8.1c-0.5-1.7-1.8-6.1,0.8-6.8c0.7,3.3,0.9,6.4,2.9,9.3c2.1,3.2,5.4,5.1,8.7,6.9
	c3.3,1.8,5,4.6,8,6.8c2.5,1.9,5.7,1.5,8.5,0.4s5.6-3.1,6.9-5.8c1.6-3.5,0.6-8.6,0.7-12.4c0.1-4.3,0.9-8.4,1.1-12.7
	c0.1-2.2,0-4.5,0-6.7c0-1.6-0.6-4.1,0.1-5.6c2.9,0.7,2.3,8.9,2.2,11.1c-0.1,4.5-0.8,8.8-0.8,13.3c0,8.5,1,16.5-8,20.8
	c-3.1,1.5-7.3,2.4-10.5,0.9s-5.1-5.6-8.2-7.7c-3.7-2.6-7.8-2.1-11.9-0.8c-1.9,0.6-3.8,1.5-5.5,2.5c-1.6,1-3,2.7-4.9,3
	C102.7,60.8,113,59.2,117.5,58.4z"/>
<path class="st0" d="M199.6,15.1c0.3,0.3,0.5,0.8,0.6,1.2c-2.9,0.6-6.5-1.1-9.6-0.8c-2,0.1-3.9,0.5-5.7,1.3c-1.7,0.9-0.8,1-1.8,2.2
	c-2,2.4-3.3-1.7-4.4-3.3c-1.9-2.1-4.2-3.8-6.9-4.8c0.5,1.8-0.8,2.6-1.4,4.1c-0.7,1.5-1,3.1-0.9,4.8c0.1,1.6,0.6,3.1,1.5,4.4
	c0.3,0.5,2.8,2.8,2.8,3c-4.3-0.8-7.2-4.9-6.6-9.2c0.4-2.2,2.3-4.6,1.8-6.8c-0.2-0.9-1.1-1.4-0.6-2.4s1.7-0.6,2.5-0.6
	c2.5,0.3,4.9,1.4,6.9,3c2.4,1.8,2.9,3.4,5.9,3.1s6.1-0.8,9.2-0.8s4.8,0.1,7.5-1.4c2-1.3,4.2-2.3,6.5-3c1.1-0.3,7.7-1.9,8.3-0.5
	c0.8,1.7-2,2.6-3,3.8c-1.4,1.8-2.3,5.5-2.3,7.7c0.1,5.2,1.7,10.4,0.3,15.5c-1.5,5.3-2.1,8.9,0.5,14c-2.2-1-4.3-4.8-4.2-7.2
	c0.1-3.8,2.6-7.3,2.9-11.1c0.3-4.1-1.8-7.8-1.9-11.8c-0.1-3.1,2.2-6.6,3.7-9.2C206.9,10.8,203.3,13.1,199.6,15.1z"/>
<path class="st0" d="M237.2,216.7c-4,1.5-7.2-2.1-11.1-1.6c-2.1,0.3-8.7,0.4-9.7,2.4c-0.6,1.1,1,3.1-1.2,2.6c-1.2-0.3-3-3.6-3.9-4.6
	s-2.8-3.2-4-3.4c-0.5-0.1-1.2,0.7-1.9,0.6s-1.2-1-1.7-1.4c-2.8-2.9-5.2-6.2-6.9-9.8c-2.1-4.1-5.3-7.3-8.3-10.8
	c-2.5-2.7-16.2-14.3-17.4-5.8c-3.3-1.1,0-5,2.3-5.1c3.5-0.1,7.8,3,10.7,4.7c3.5,2,6.6,4.7,9.1,7.9c1.2,1.5,2.3,3,3.4,4.5
	c1.5,1.9,1.6,3.5,2.6,5.5c1.5,3.2,4.3,6.4,7.7,7.4c1.6,0.4,3.2,1,4.7,1.9c1.8,1.2,2.8,2,5.1,1.9s4.3-1,6.6-0.7
	c1.6,0.2,3.3,0.3,4.8,0.5C229.4,213.8,237.2,215.6,237.2,216.7z"/>
<path class="st0" d="M178.7,53.5c-2.1,0.9-5-3.6-7.1-4.2c-2.8-0.8-5.5,0.8-8.3,0.8c1.9-3.2,6.4-4.2,9.8-3.1c3.9,1.4,6.8,5.3,10.8,7
	c2,0.9,4.1,1.4,6.2,1.5c2,0.1,4.2-0.6,6.1,0c2.4,0.7,4.1,2.3,6.9,2.1c2.1-0.2,4.2-1.3,6.3-1.8c-0.6,2.1-3.6,3.4-5.5,3.7
	c-2.7,0.5-5.2-1-7.9-1.5C190.3,57,182.9,58.4,178.7,53.5z"/>
<path class="st0" d="M89,110.9c2.2,7.2,16.5,13.3,19.9,3.8c1.5-4.2-0.5-8-3.7-10.7c-2-1.6-5-1.3-6.6,0.8c-0.7,0.9-1.1,2.1-1,3.2
	c1.4-0.3,2.9-1.4,4.3-1c1.6,0.5,2.2,2.5,1.7,4c-0.3,1-1.8,2.5-2.9,2.2c-2.5-0.6,0.2-1.5,0.5-2.1c1.5-2.4-0.5-1.6-1.7-1.4
	c-1.8,0.3-2.8,0.1-3.1-1.9c-0.7-3.5,3.6-6.8,6.9-6.6s6.5,4.2,7.3,7.2c1.3,4.9,0,8.5-4.2,11.3c-3.9,2.6-7.1,1-11-0.5
	C93.5,118.6,86.2,112.9,89,110.9z"/>
<path class="st0" d="M112.8,84.3c-3.8-1.9-1.5,3.3-2.1,4.5c-0.5,1-2.1,1.1-2.7,2.1s-0.3,2.1-1.1,2.9c-0.5,0.4-1.9,0.7-2.5,1.3
	c-0.5,0.4-1.7,2.2-2.5,1.9c-2.2-0.7,2.6-4.6,3.1-5.5c1.1-2.4,3.1-3.6,3.5-6.1c0.3-2.2-0.2-2.4-2.5-2c-1.5,0.4-2.9,0.9-4.2,1.6
	c-2.7,1.3-5.1,3-7.2,5.1c-1.1,1.1-2.1,2.4-3,3.7c-0.8,1.1-1.3,3.1-2.4,4c0.5-6.3,4.6-10.8,10-13.8C102.3,82.3,112,77.1,112.8,84.3z"
	/>
<path class="st0" d="M17.9,100.5C20.8,93.6,24.1,87,28,80.6c2.2-3.4,4.1-7,5.8-10.7c0.8-1.8,1.6-3.5,2.4-5.3c0.2-0.5,1-3,1.6-1.6
	c0.5,1.1-0.9,3.8-1.3,5c-0.6,2-1.3,3.9-2.1,5.7c-1.9,3.8-4,7.4-6.3,10.9c-2,3.3-3.7,6.6-5.8,9.8C21.7,95.5,19.5,102.8,17.9,100.5z"
	/>
<path class="st0" d="M148.8,211.4c-2.3-1.5-3.9-4.2-6.1-6.1s-4.9-3.6-7.2-5.7c-2.5-2.3-11.6-10.6-8.4-14c1.3,2.5,2.8,4.8,4.7,6.9
	c2.1,2.4,4.4,4.7,6.9,6.7c2.4,1.9,5.4,3.3,7.5,5.6C147,205.8,149.8,210.5,148.8,211.4z"/>
<path class="st0" d="M13.5,131.2c0.3,6,1.2,12,2.7,17.8c0.3,0.9,2.4,6.4-0.6,5c-1.7-0.8-2.4-5.8-2.7-7.4c-1.4-6-0.7-12.4-0.7-18.5
	c0-0.6-0.1-6.6,1.4-3.6C14,125.3,13.6,131.2,13.5,131.2z"/>
<path class="st0" d="M127.8,45.6c-1.4-0.3-3.7-1.1-1.3-2.2c1.5-0.7,4,0.6,5,1.8C134.7,49.3,127,51.2,127.8,45.6z"/>
<path class="st0" d="M185.9,38.1c-0.5-0.4-0.7-0.9-0.8-1.5c2.6-0.7,6.4,2.4,4.8,5.4C187.9,45.7,184.6,40.8,185.9,38.1z"/>
<path class="st0" d="M63.6,143.7c-1.7,1.2-1.3-1.4,0.3-1.9c2-0.7,3.1,0.5,4.1,2c1.1,1.7,1,3.4-1.5,3.3
	C64.4,147.1,64.1,145.4,63.6,143.7z"/>
<path class="st0" d="M62.2,57.5c-0.7-0.1-1,0.4-1.4-0.4s0.7-1.2,1.1-1.4c2.1-0.8,3.7,1.8,4.3,3.4s0.9,4.1-1.5,3.3
	C62.8,61.7,62.4,59.1,62.2,57.5z"/>
<path class="st0" d="M321.2,137.6c-1.9-1.4-4.1-2.3-6.4-2.9c-0.9-0.2-5.1-0.5-5.1-1.7C311.4,132.3,324,134.8,321.2,137.6z"/>
<path class="st0" d="M202.8,54c-1.9,2.5-3-1.2-1-2.2C204.2,50.7,205.3,54.6,202.8,54z"/>
<path class="st0" d="M209.6,51.7c-0.5,0.5-2.5,2.1-2.2,0C207.7,50,208.9,51.1,209.6,51.7z"/>
<path class="st0" d="M118.7,109.6c-2.7-3.2,4.8-2.3,4.1,1.3S118.2,109.8,118.7,109.6z"/>
<path class="st0" d="M138.3,126.1c1.3-0.2,5.2-1.9,4.2,0.6C141.8,128.6,138.4,127.2,138.3,126.1z"/>
<path class="st1" d="M4.6,264.4c0-7.7,0-9.1-0.2-10.7c-0.2-1.6-0.5-2.5-2.2-2.8c-0.6-0.1-1.1-0.2-1.7-0.2c-0.2,0-0.5-0.2-0.5-0.3
	c0-0.2,0.3-0.5,0.8-0.5c2.2,0,5.3,0.2,5.6,0.2c1.1,0,4-0.2,6.3-0.2c6.2,0,8.3,2,9.3,2.8c1.5,1.6,2.4,3.7,2.5,5.9
	c0,7-5.1,11.8-12.2,11.8h-1.1c-0.3,0-0.6-0.2-0.6-0.3c0-0.5,0.3-0.5,1.4-0.5c4.5,0.2,8.3-3.4,8.5-7.9c0,0,0-0.1,0-0.1
	c0.1-2.8-0.9-5.5-2.8-7.6c-1.8-1.8-4.3-2.7-6.8-2.5c-0.7,0-1.5,0.1-2.2,0.3c-0.3,0.2-0.5,0.6-0.5,0.9v20.4c-0.1,3.6,0,7.1,0.3,10.7
	c0.2,1.4,0.5,2.5,1.9,2.8c0.7,0.1,1.4,0.2,2.2,0.2c0.3,0,0.5,0.2,0.5,0.3c0,0.2-0.3,0.5-0.8,0.5c-2.8,0-5.9-0.2-6-0.2
	c-0.2,0-3.3,0.2-4.8,0.2c-0.6,0-0.8-0.2-0.8-0.5c0-0.3,0.2-0.3,0.5-0.3s1.1-0.2,1.5-0.2c0.9-0.2,1.3-1.3,1.4-2.8
	c0.3-3.6,0.4-7.1,0.3-10.7v-8.8L4.6,264.4z"/>
<path class="st1" d="M35.7,264.4c0-7.7,0-9.1-0.2-10.7c-0.2-1.6-0.5-2.5-2.2-2.8c-0.6-0.1-1.1-0.2-1.7-0.2c-0.2,0-0.5-0.2-0.5-0.3
	c0-0.2,0.3-0.5,0.8-0.5c2.2,0,5.4,0.2,5.6,0.2c0.6,0,4.3-0.2,5.9-0.2c3.1,0,6.5,0.3,9.1,2.2c2.1,1.6,3.3,4.1,3.4,6.8
	c0,3.8-1.5,7.3-6,11.5c4,5.3,7.4,9.6,10.4,12.7c2.6,2.8,4.8,3.4,6,3.6c0.6,0.1,1.2,0.1,1.9,0.2c0.3,0,0.5,0.2,0.5,0.3
	s-0.3,0.5-1.3,0.5h-3.2c-1.8,0.1-3.6-0.2-5.3-0.9c-2.2-1.1-3.9-3.6-6.6-7.3c-2-2.8-4.3-6-5.4-7.3c-0.1-0.2-0.4-0.3-0.6-0.3l-6-0.1
	c-0.3,0-0.3,0.2-0.3,0.5v1.3c-0.1,3.6,0,7.1,0.3,10.7c0.2,1.4,0.5,2.5,1.9,2.8c0.7,0.1,1.4,0.2,2.2,0.2c0.3,0,0.5,0.2,0.5,0.3
	s-0.3,0.5-0.8,0.5c-2.8,0-5.9-0.2-6-0.2c-0.2,0-3.1,0.2-4.6,0.2c-0.6,0-0.8-0.2-0.8-0.5s0.2-0.3,0.5-0.3c0.3,0,1.1-0.2,1.6-0.2
	c0.9-0.2,1.3-1.3,1.4-2.8c0.3-3.5,0.4-7.1,0.3-10.7v-9L35.7,264.4z M39.7,268.7c0,0.2,0.1,0.5,0.3,0.6c1.7,0.6,3.5,0.9,5.3,0.8
	c1.3,0.1,2.6-0.2,3.8-0.9c1.7-1.3,3.1-3.9,3.1-7.6c0-6.3-3.2-9.9-8.5-9.9c-1.1,0-2.2,0.1-3.2,0.3c-0.3,0.2-0.5,0.3-0.5,0.6v16.1
	H39.7z"/>
<path class="st1" d="M87.7,249.4c11.1,0,19.5,7,19.5,18.6c0,11.1-7.9,20.3-19.8,20.3c-13.6,0-19.2-10.5-19.2-19.5
	C68.2,260.7,73.9,249.4,87.7,249.4z M88.6,286.2c4.5,0,13.6-2.6,13.6-17c0-11.9-7.3-18.3-15-18.3c-8.2,0-14.4,5.4-14.4,16.3
	C72.8,278.8,79.8,286.2,88.6,286.2z"/>
<path class="st1" d="M117.5,264.4c0-7.7,0-9.1-0.2-10.7c-0.2-1.6-0.5-2.5-2.2-2.8c-0.6-0.1-1.1-0.2-1.7-0.2c-0.2,0-0.5-0.2-0.5-0.3
	c0-0.2,0.3-0.5,0.8-0.5h17.8c0.7,0,1.5,0,2.2-0.2c0.3-0.2,0.5-0.3,0.6-0.3s0.3,0.2,0.3,0.5c0,0.3-0.3,0.9-0.5,2.3
	c0,1.1-0.1,2.2-0.3,3.3c0,0.3-0.2,0.6-0.5,0.6c-0.3,0-0.3-0.3-0.3-0.6c0-0.6-0.2-1.3-0.5-1.9c-0.8-1.1-2.1-1.7-3.4-1.5l-7.5-0.2
	c-0.3,0-0.5,0.2-0.5,0.6v13.6c0,0.3,0,0.5,0.3,0.5h8.5c1.3-0.2,1.9-0.3,2.3-0.9c0.2-0.3,0.3-0.5,0.6-0.5c0.3,0,0.3,0.2,0.3,0.5
	c-0.2,0.9-0.4,1.8-0.5,2.8c-0.1,1.1-0.2,2.2-0.2,3.3c0,0.5,0,0.9-0.3,0.9c-0.3,0-0.3-0.2-0.3-0.5c0-0.6-0.1-1.2-0.3-1.9
	c-0.5-1-1.5-1.7-2.6-1.9c-1.3-0.2-6.7-0.2-7.4-0.2c-0.3,0-0.3,0.2-0.3,0.5v4.2c-0.1,3.6,0,7.1,0.3,10.7c0.2,1.4,0.5,2.5,1.9,2.8
	c0.7,0.1,1.4,0.2,2.2,0.2c0.3,0,0.5,0.2,0.5,0.3s-0.3,0.5-0.8,0.5c-2.8,0-5.9-0.2-6-0.2s-3.4,0.2-4.8,0.2c-0.6,0-0.8-0.2-0.8-0.5
	s0.2-0.3,0.5-0.3s1.1-0.2,1.6-0.2c0.9-0.2,1.3-1.3,1.4-2.8c0.3-3.5,0.4-7.1,0.3-10.7L117.5,264.4L117.5,264.4z"/>
<path class="st1" d="M151.1,273c-0.1,3.6,0,7.1,0.3,10.7c0.2,1.4,0.5,2.5,1.9,2.8c0.7,0.1,1.4,0.2,2.2,0.2c0.3,0,0.5,0.2,0.5,0.3
	s-0.3,0.5-0.8,0.5c-2.8,0-5.9-0.2-6-0.2c-0.2,0-3.4,0.2-4.8,0.2c-0.6,0-0.8-0.2-0.8-0.5s0.2-0.3,0.5-0.3c0.3,0,1.1-0.2,1.6-0.2
	c0.9-0.2,1.3-1.3,1.4-2.8c0.3-3.6,0.4-7.1,0.3-10.7v-8.7c0-7.7,0-9.1-0.2-10.7c-0.2-1.6-0.6-2.5-1.7-2.8c-0.5-0.1-1-0.2-1.5-0.2
	c-0.2,0-0.5-0.2-0.5-0.3c0-0.2,0.3-0.5,0.8-0.5c1.7,0,4.8,0.2,5,0.2s3.4-0.2,4.8-0.2c0.6,0,0.8,0.2,0.8,0.5c0,0.3-0.2,0.3-0.5,0.3
	c-0.4,0-0.8,0-1.3,0.2c-1.4,0.3-1.7,1.1-1.9,2.8s-0.1,3-0.1,10.7v8.7H151.1z"/>
<path class="st1" d="M179.3,273c-0.1,3.6,0,7.1,0.3,10.7c0.2,1.4,0.5,2.5,1.9,2.8c0.7,0.1,1.4,0.2,2.2,0.2c0.3,0,0.5,0.2,0.5,0.3
	s-0.3,0.5-0.8,0.5c-2.8,0-5.9-0.2-6-0.2c-0.2,0-3.4,0.2-4.8,0.2c-0.6,0-0.8-0.2-0.8-0.5s0.2-0.3,0.5-0.3c0.3,0,1.1-0.2,1.6-0.2
	c0.9-0.2,1.3-1.3,1.4-2.8c0.3-3.5,0.4-7.1,0.3-10.7v-20.9l-7.3,0.2c-3.1,0-4.3,0.5-5.1,1.6c-0.3,0.5-0.6,1-0.7,1.6
	c-0.2,0.5-0.3,0.5-0.5,0.5s-0.3-0.2-0.3-0.5c0.3-1.7,0.6-3.4,1.1-5.1c0.2-0.3,0.3-0.9,0.5-0.9c0.7,0.3,1.4,0.5,2.2,0.6
	c1.4,0.2,3.2,0.3,3.9,0.3h18.6c1.2,0,2.4-0.1,3.6-0.3c0.8-0.2,1.3-0.3,1.4-0.3c0.1,0,0.3,0.3,0.3,0.6c0,1.6-0.2,5-0.2,5.4
	c0,0.4-0.2,0.6-0.3,0.6s-0.3-0.2-0.5-0.8V255c-0.2-1.5-1.4-2.6-6-2.8l-6.2-0.2v21L179.3,273z"/>
<path class="st1" d="M219,264.4c0-7.7,0-9.1-0.2-10.7c-0.2-1.6-0.5-2.5-2.2-2.8c-0.6-0.1-1.1-0.2-1.7-0.2c-0.2,0-0.5-0.2-0.5-0.3
	c0-0.2,0.3-0.5,0.8-0.5h17.8c0.7,0,1.5,0,2.2-0.2c0.3-0.2,0.5-0.3,0.6-0.3c0.2,0,0.3,0.2,0.3,0.5c0,0.3-0.3,0.9-0.5,2.3
	c0,1.1-0.1,2.2-0.3,3.3c0,0.3-0.2,0.6-0.5,0.6c-0.3,0-0.3-0.3-0.3-0.6c0-0.6-0.2-1.3-0.5-1.9c-0.8-1.1-2.1-1.7-3.4-1.5l-7.6-0.2
	c-0.3,0-0.5,0.2-0.5,0.6v13.6c0,0.3,0,0.5,0.3,0.5h8.5c1.3-0.2,1.9-0.3,2.3-0.9c0.2-0.3,0.3-0.5,0.6-0.5c0.3,0,0.3,0.2,0.3,0.5
	c-0.2,0.9-0.4,1.8-0.5,2.8c-0.1,1.1-0.2,2.2-0.2,3.3c0,0.5,0,0.9-0.3,0.9s-0.3-0.2-0.3-0.5c0-0.6-0.1-1.2-0.3-1.9
	c-0.5-1-1.5-1.7-2.6-1.9c-1.3-0.2-6.7-0.2-7.4-0.2c-0.3,0-0.3,0.2-0.3,0.5v4.2c-0.1,3.6,0,7.1,0.3,10.7c0.2,1.4,0.5,2.5,1.9,2.8
	c0.7,0.1,1.4,0.2,2.2,0.2c0.3,0,0.5,0.2,0.5,0.3s-0.3,0.5-0.8,0.5c-2.8,0-5.9-0.2-6-0.2s-3.4,0.2-4.8,0.2c-0.6,0-0.8-0.2-0.8-0.5
	s0.2-0.3,0.5-0.3c0.3,0,1.1-0.2,1.6-0.2c0.9-0.2,1.3-1.3,1.4-2.8c0.3-3.5,0.4-7.1,0.3-10.7L219,264.4L219,264.4z"/>
<path class="st1" d="M248.3,264.4c0-7.7,0-9.1-0.2-10.7c-0.2-1.6-0.5-2.5-2.2-2.8c-0.6-0.1-1.1-0.2-1.7-0.2c-0.2,0-0.5-0.2-0.5-0.3
	c0-0.2,0.3-0.5,0.8-0.5h3.6l2,0.2h11.3c0.7,0,1.5-0.1,2.2-0.3c0.3,0,0.5-0.3,0.6-0.3c0.2,0,0.2,0.2,0.2,0.5c0,0.3-0.3,0.9-0.5,2.3
	c0,1.1-0.1,2.2-0.3,3.3c0,0.3-0.2,0.6-0.3,0.6s-0.5-0.3-0.5-0.6c0-0.6-0.1-1.3-0.3-1.9c-0.3-0.8-0.8-1.4-3.6-1.7
	c-0.8-0.2-6.2-0.2-6.8-0.2c-0.2,0-0.3,0.2-0.3,0.5v13.6c0,0.3,0,0.5,0.3,0.5c0.6,0,6.8,0,7.9-0.2s1.9-0.2,2.3-0.6
	c0.5-0.5,0.6-0.6,0.8-0.6c0.2,0,0.3,0.2,0.3,0.5s-0.3,1.1-0.5,2.8c-0.1,1-0.2,2.1-0.2,3.1c0,0.5,0,0.9-0.3,0.9s-0.3-0.2-0.3-0.5
	c0-0.6,0-1.1-0.2-1.7c-0.2-0.6-0.6-1.6-2.6-1.7c-1.4-0.2-6.3-0.3-7.1-0.3c-0.3,0-0.3,0.2-0.3,0.3v12.8c0.2,3.4,0.9,4,5.7,4
	c1.6,0.1,3.2-0.1,4.8-0.6c1.3-0.6,1.9-1.6,2.2-3.6c0.2-0.6,0.2-0.8,0.5-0.8s0.3,0.5,0.3,0.8s-0.5,3.8-0.6,4.8s-0.8,1.3-2.6,1.3
	c-3.8,0-6.5-0.2-8.4-0.2s-3.1-0.2-3.9-0.2h-2c-0.9,0-2.2,0.2-2.9,0.2c-0.8,0-0.8-0.2-0.8-0.5c0-0.3,0.2-0.3,0.5-0.3
	c0.3,0,1.1-0.2,1.6-0.2c0.9-0.2,1.3-1.3,1.4-2.8c0.3-3.5,0.4-7.1,0.3-10.7v-8.2L248.3,264.4z"/>
<path class="st1" d="M278.4,264.4c0-7.7,0-9.1-0.2-10.7c-0.2-1.6-0.5-2.5-2.2-2.8c-0.6-0.1-1.1-0.2-1.7-0.2c-0.2,0-0.5-0.2-0.5-0.3
	c0-0.2,0.3-0.5,0.8-0.5h3.6l2,0.2h11.3c0.7,0,1.5-0.1,2.2-0.3c0.3,0,0.5-0.3,0.6-0.3s0.2,0.2,0.2,0.5c0,0.3-0.3,0.9-0.5,2.3
	c0,1.1-0.1,2.2-0.3,3.3c0,0.3-0.2,0.6-0.3,0.6s-0.5-0.3-0.5-0.6c0-0.6-0.1-1.3-0.3-1.9c-0.3-0.8-0.8-1.4-3.6-1.7
	c-0.8-0.2-6.2-0.2-6.8-0.2c-0.2,0-0.3,0.2-0.3,0.5v13.6c0,0.3,0,0.5,0.3,0.5c0.6,0,6.8,0,7.9-0.2s1.9-0.2,2.3-0.6
	c0.5-0.5,0.6-0.6,0.8-0.6c0.2,0,0.3,0.2,0.3,0.5s-0.3,1.1-0.5,2.8c-0.1,1-0.2,2.1-0.2,3.1c0,0.5,0,0.9-0.3,0.9
	c-0.3,0-0.3-0.2-0.3-0.5c0-0.6,0-1.1-0.2-1.7c-0.2-0.6-0.6-1.6-2.6-1.7c-1.4-0.2-6.2-0.3-7.1-0.3c-0.3,0-0.3,0.2-0.3,0.3v12.8
	c0.2,3.4,0.9,4,5.7,4c1.6,0.1,3.3-0.1,4.8-0.6c1.3-0.6,1.9-1.6,2.2-3.6c0.2-0.6,0.2-0.8,0.5-0.8c0.3,0,0.3,0.5,0.3,0.8
	s-0.5,3.8-0.6,4.8c-0.2,1-0.8,1.3-2.6,1.3c-3.8,0-6.5-0.2-8.4-0.2s-3.1-0.2-3.9-0.2h-2c-0.9,0-2.2,0.2-2.9,0.2
	c-0.8,0-0.8-0.2-0.8-0.5c0-0.3,0.2-0.3,0.5-0.3c0.3,0,1.1-0.2,1.5-0.2c0.9-0.2,1.3-1.3,1.4-2.8c0.3-3.6,0.4-7.1,0.3-10.7v-8.2
	L278.4,264.4z"/>
<path class="st1" d="M308.6,264.4c0-7.7,0-9.1-0.2-10.7c-0.2-1.6-0.5-2.5-2.2-2.8c-0.6-0.1-1.1-0.2-1.7-0.2c-0.2,0-0.5-0.2-0.5-0.3
	c0-0.2,0.3-0.5,0.8-0.5c2.2,0,5.4,0.2,5.6,0.2c0.6,0,3.8-0.2,6.7-0.2c4.9,0,13.9-0.5,19.8,5.6c3.2,3.4,4.9,7.9,4.8,12.5
	c0,5.2-1.9,10.1-5.4,13.9c-2.2,2.2-6.7,5.7-15,5.7c-2.2,0-4.8-0.2-6.8-0.3c-2-0.2-3.9-0.3-4.2-0.3h-2c-0.9,0-2.2,0.2-2.9,0.2
	s-0.8-0.2-0.8-0.5c0-0.3,0.2-0.3,0.5-0.3s1.1-0.2,1.5-0.2c0.9-0.2,1.3-1.3,1.4-2.8c0.3-3.5,0.4-7.1,0.3-10.7v-8.5L308.6,264.4z
	 M312.8,269.8c0,5.3,0,9.7,0.2,10.7c0,1.3,0.2,3.3,0.6,3.8c0.6,0.9,2.6,2,8.4,2c4.4,0.1,8.6-1.6,11.8-4.6c2.6-2.5,4-7.3,4-11.8
	c0.1-4.6-1.6-9.1-4.8-12.5c-4.6-5-10.4-5.6-16.3-5.6c-1.1,0-2.2,0.1-3.3,0.3c-0.4,0.1-0.7,0.5-0.6,0.9L312.8,269.8L312.8,269.8z"/>
</svg>
