<svg id="Слой_1" data-name="Слой 1" xmlns="http://www.w3.org/2000/svg" viewBox="0 0 341.7 292.17"><defs><style>.cls-1{fill:#000105;}.cls-2{fill:#73b55f;}</style></defs><title>icon-</title><path class="cls-1" d="M189.4,226.2c-3.9,1.4-11.9-1.4-15.2-3.7-2.6-1.8-4.8-4.4-7.3-6.4-2.1-1.7-4.5-2.2-6.9-3.4-5.3-2.8-7.6-8.5-9.8-13.8a47.14,47.14,0,0,0-3.5-7.6c-1.8-2.8-3.1-3.4-6.2-4.5-2.6-.9-5.1-2.1-7.9-2.2-1.6,0-4.6,1.6-4.8-.4,0,.4,1.6-2.4,1.4-2.1a17.5,17.5,0,0,1,2.9-3.2c2.2-2.1,4.2-4.2,6.2-6.4,3.7-4.1,6.9-8.5,10.6-12.6,4.2-4.5,8.8-8.5,13-13-1.8-1.4-4.4-2.8-5-5.1a7.4,7.4,0,0,1,1.9-6.6c4.5-4.4,12.1-1.8,17.5-3.9,2.7-1.1,3.7-2.5,5.6-4.5,2.2-2.3,5.2-4,7.2-6.5,1.5-2,2.5-4.1,4.8-5.4,1.8-1,2.5-.3,4.3-.5,1-.1.5.5,1.2-.2.5-.4.6-1.5,1-2.1,1.3-1.9,4.6-3.1,6.8-3.4,1.2-.2,7,.9,4.4,2.5-1.3.8-2.3-.6-3.4-.7a7.45,7.45,0,0,0-3.5.8c-1.3.5-2.5.8-3.2,2.1-.5.9-.2,2.3-1.2,2.8s-1.7-.2-2.6-.2a4.64,4.64,0,0,0-3.6.8c-2.6,1.7-3.6,5-5.7,7.3-1.7,1.7-3.3,3.1-4.8,4.9a19.41,19.41,0,0,1-7.8,5c-4.2,1.4-17.3-1.4-16.5,6.2a4.93,4.93,0,0,0,2.6,3.9c2.9,1.2,5.9-4.9,7.3-4-2.2,4.3-6.2,8-9.3,11.7s-7.1,6.6-10.4,10.2c-3.3,3.4-5.1,7.4-7.9,11.1-2.6,3.5-7.3,5.7-9.4,9.5,3.4,1.3,6.6,1.8,9.9,3.2-1.1-3.5-1.7-5.7.2-9,.7-1.2,1-2.3,2.5-2.8,1.3-.4,3.8.2,5.1.7,3.4,1.3,6.1,4.9,8.4,7.6a59.37,59.37,0,0,1,6,8.2c1.6,2.8,2.1,5.1,5,6.6,2.1,1.1,4.6,6,6.9,6.2,2.9.2-.6-6.9-1.3-8.4a32,32,0,0,1-1.8-5.2c-.3-1.1-1.8-3.6-1.4-4.4,2,2.4,3.4,5.7,4.9,8.4a107.15,107.15,0,0,1,5.4,10.7,17.47,17.47,0,0,0,4.9,7.1,45.64,45.64,0,0,1,6.4,8.1c1.8,2.7,4,4.3,6.4,6.4s3.4,4.2,6.6,4.8c7.2,1.3,14.9,3,22.2,1.6,7.1-1.3,13.8-2.1,20.6-4.6,7.3-2.7,14.5-5.6,21.5-9,6.7-3.3,13.9-6.6,19.8-11.2s11.7-9.2,17.5-13.8c6.4-5,12.7-10.2,18.9-15.4,2.9-2.5,4.9-5.5,7.8-7.9,2.1-1.8,4.5-5.9,7.1-6.6-2.2,4.5-6.6,8.7-9.9,12.3-3.7,4.1-8,7.1-12.2,10.5-8.2,6.5-16.2,13.2-24.3,19.9-17.9,14.7-40.1,22.8-62.5,27.6a44.77,44.77,0,0,1-17.1.8l-8-1.2c-2.9-.4-3.9-1.3-6.3-3-4-2.7-7.8-5.2-10.7-9.3a42.11,42.11,0,0,0-3.9-5.5c-1.8-2-4-3.8-5.5-6s-2-3.7-4.5-5.3c-2.3-1.5-4.6-3.5-7-4.8-1.2-.6-1.9-.6-2.8-1.7a29.46,29.46,0,0,1-2.1-3.5,74.4,74.4,0,0,0-4.7-7.2,78.42,78.42,0,0,0-5.4-6.1c-1.6-1.8-3.5-4.7-5.6-5.9a4.08,4.08,0,0,0-4.9.6c-1.7,2-.2,5.5.7,7.4,1.2,2.6,3,4.8,4.4,7.2,1.7,2.8,2.5,5.8,3.8,8.7,2.3,5.3,5,9.2,10.3,11.6s8.4,7.6,13.6,9.9c2.5,1.1,5.2,1.5,7.7,2.6C186.5,224.3,188.7,223.9,189.4,226.2Z"/><path class="cls-1" d="M192.5,239.1c-6.8,1.8-14.7.9-21.7.7-7.7-.2-15.5-.3-23.2-1.1a165.41,165.41,0,0,1-21.1-3.3c-3.5-.9-7-1.6-10.5-2.4-3.7-.8-7-2.1-10.6-3.1-6.8-1.7-12.9-5-19.3-8.1S73,215.7,66.9,211.7c-5.4-3.5-11.1-6.7-16.2-10.6-2.1-1.6-4.7-3.1-5.7-5.7a9.11,9.11,0,0,1,1.1-8c1.9-3,4.4-5.6,6.1-8.8s2.1-6.6,3.6-9.8c1.2-2.5,4.6-5.5,6.8-2,.9,1.4.6,3.7.7,5.2a13.66,13.66,0,0,0,1.5,6c4-1.7-.2-7.9.5-10.9.9-4.1,4.6-6.9,8.3-8.3,3.4-1.3,9.1-1.3,11.6-4,.8-.9,2.5-4.2,1.7-5.4s-3.4-1.5-4.5-2.2c-3.6-2.1-5.3-5.5-7.5-8.9s-5.8-4.9-8.9-7.2c-2.5-1.9-5.7-5.5-9.1-5.1a16.2,16.2,0,0,0-4.3,1.2c-.9.4-3.5,2.9-4.4,2.1.5-1,1-1.4.7-2.5-.2-.8-1.6-2-2.1-2.6-1.2-1.5-2.3-3.1-3.6-4.5-2.6-2.7-6.1-4.4-9.3-6.2a112,112,0,0,0-11-5.4c-4-1.7-8-1.9-12.1-3.1,2.1-2.2,7.2-1.2,9.8-.9,3.7.4,7.8.6,11.4,1.5,1.9.5,16.7,8.9,15,10.7-4.3-2.2-7.8-6.3-12.3-8.5a19.9,19.9,0,0,0-6.9-1.6c-2.7-.3-5.8-1.3-8.5-.9,7.2,2.1,13.9,5.8,20.3,9.5a25.87,25.87,0,0,1,7.4,6.6c.9,1.2,1.9,3.3,3.1,4.2s.5.7,2.1.4a27.73,27.73,0,0,0,2.6-1c-1.4-1.9-2.7-3.8-4.1-5.7a11.35,11.35,0,0,1,4.4,3.7c1.5,1.9,2.2,1.5,4.4,2,4,.8,7,4.8,10.4,6.8,4.1,2.4,6.4,5.6,9.4,9.3a18.48,18.48,0,0,0,3.8,3.6c1.6,1.1,4.4,1.5,5.5,3.3,1.7,2.8-.5,7.3-2.8,9.1-3.7,2.8-9.2,2.3-13.4,4s-6.7,5.5-4.9,9.8c.9,2.1,1.6,4.1.5,6.4-1.3,2.7-3.8,3-5.1.3-1-2.1-.5-12.5-4.2-9.2-1.4,1.3-1.5,4.3-2.1,6a36.82,36.82,0,0,1-3.6,7.8c-2.4,3.7-7,6.4-4.6,11.1s6.3,7.4,10.7,10.2a292.93,292.93,0,0,0,29,16.1,180.87,180.87,0,0,0,32,11.1c11.8,2.9,24.2,6.3,36.4,6.5C160.3,237.5,192.5,237.3,192.5,239.1Z"/><path class="cls-1" d="M63.9,80.1c-.8-1.9-3.3-1.8-4.9-2.7a17.27,17.27,0,0,1-4.8-3.6c-1.4-1.6-3-12-.9-11.6,0,5.1,1.2,10.1,5.8,13.1,2,1.4,4.4,1.2,6,3.2S67.7,83,69.3,85c2.9,3.7,6.9,8.3,12.1,6.2C86.9,89,83.2,78.6,83,74.6c-.6-12.4.3-25.3-2.7-37.5-1.3-5.6-3.7-8.3-9.7-9.3-3-.5-6.4.4-9.4-.3-3.5-.8-2.4-4.1-4.4-6.2-1,4-.5,8.4-2,12.3-.7,1.8-2,3.1-3,4.6a70,70,0,0,0-3.4,6.7c-1.1,2.2-2.2,4.3-3.2,6.5-.6,1.2-1.5,4.5-2.4,5.5-.4.4-1.9,1.4-2.6.3-.6-.9,2.2-6,2.5-6.9a67.41,67.41,0,0,1,6.1-11.2c2.5-3.7,4.3-6.3,4.9-10.8q.3-3,.9-6c.3-1.2.6-5.4,1.6-6.1,2.7-1.8,2.8,5.9,4,7.6,1.7,2.5,6.7,2.1,9.3,1.2,1.6-.6,3-2.3,4-3.6.8-1,2.1-5.1,3.1-5.6,3.1-1.8,2.2,7.5,2.1,8.8-.3,2.4-.7,3.1.8,5s1.7,3.1,2.1,5.4a166.6,166.6,0,0,1,3.1,27.3c.2,4.8-.1,9.5.4,14.3.4,4.1,2.6,9.1.5,13a8.43,8.43,0,0,1-10.4,3.9c-3.4-1.4-6.5-6.4-8.7-9.2-1.7-2.2-2.9-1.3-4.5.8s-2,4.3-2.3,6.9-.5,5.5-.6,8.2c-.1,2.2.5,4.6-.7,6.5-2.9-3.3-2-11-1.4-15.1C57.6,86.5,59.2,82.7,63.9,80.1ZM72,25.9c1,1,2.9,1.6,3.8.8,1.1-1.1.3-3.9.4-5.2C74.7,22.9,73.4,24.4,72,25.9Z"/><path class="cls-1" d="M128.7,129.2c-.9,1-2.5,1.5-3.2,2.3-.9,1-1,2.5-1.6,3.8-1.2,2.5-5.3,6-8.1,4,1.8-2,4.7-1.7,6.1-4.3,1.1-2.1,1.3-3.7,3-5.3,1.3-1.2,2.1-1.2,1.1-2.7-.6-1-2.5-1.8-3.3-2.8-1.2-1.4-2.3-2.9-3.6-4.2-2.3-2.3-5.4-3.1-6.1-6.5a10.62,10.62,0,0,1,1.4-7.6c1.3-2.3,1.7-5.1,4.5-6,3.8-1.3,8-.6,11.7-2.2,1.5-.6,2.3-2.2,3.7-2.9,1.2-.6,2.4,0,3.7.3.2-.3-2.4-6.9-3-7.6-1.4-1.7-3.5-4.7-5.5-5.8-1-.6-2.1-.4-3-.8-1.1-.5-1.8-1.8-2.9-2.4-2.7-1.9-5.1-.7-7.9-1.6,1.2-2.7,7.3-1.7,9.4-.3,1.7,1.2,2,2,4,2.6a8,8,0,0,1,4,2.5,17.19,17.19,0,0,1,2.3,4.2,10.93,10.93,0,0,0,.8,1.5c.5.7,1,1.3,1.5,2a38.09,38.09,0,0,1,2.3,4c.9,1.9.4,3.1.7,5,2.3-1.7,4.3-3.6,7.1-1.7.9.6,2.3,1.9,2.4,3.1.2,2-.3,1.1-1.5,1.8-2.8,1.8-1.3,2.4-1.1,5.4a4.55,4.55,0,0,1-.8,3.2c-.5.7-2.3,1.3-2.5,1.9-.6,1.6,1.3,6.7,1.9,8.3a10.68,10.68,0,0,1-1.3,9.3C141.1,135.6,133.1,132.5,128.7,129.2Zm1.2-1.2c3.2,2.1,8.6,4.6,12.3,1.9,1.2-.9,3.3-5.1,3-6.6s-1.7-2.8-2.1-4.5c-.5-2.3-.6-4.6-1.2-6.9-.7-2.5-2-4.5-2.9-6.9-.8-2.1-.1-4.1-1.2-5.9-1.5-2.5-2.9-2.4-5.1-.8s-3.2,1.7-5.6,2.4c-1.1.3-2,.8-3.1,1-1.3.2-2.7-.2-3.9.3-2.3.8-1.7,2.1-2.9,4.1s-2.2,2.6-2.4,4.9c-.1,1.9-.4,3.3,1.1,4.7,1.6,1.6,3.1,2.2,4.4,4.3s2.1,3.2,4.3,4.2C126.6,125,128.8,125.6,129.9,128Zm13.6-18.5c3.2-1.3.6-3.9.9-6.3.2-2,4.6-4.4,1.6-5.5-1.6-.6-4.6,1.9-5.1,3.5C140.2,103.5,142.6,107.4,143.5,109.5Z"/><path class="cls-1" d="M149.8,20.1c3.8,1.3,10.8,2.2,10.8,7.5a3.72,3.72,0,0,1-3.6,3.9c-.7,0-1.8-.1-2.2-.9-.5-1.1.2-.7,1-1.4,1.6-1.4,3-2.2.9-4-1.8-1.5-5-2.1-7.1-3.3-2.7-1.4-1.7-2-1-4.7.3-1.2,2.2-7.4,1.6-7.7-2.4,3.4-4.6,7.7-9.1,8.4-5.1.8-10,.8-15,2.3-4.5,1.4-8.5,3.9-13.3,2.2a20.91,20.91,0,0,1-5.9-3.5c-.9-.7-3.1-4.1-4.1-4.2a33.22,33.22,0,0,0,.9,5.5c.5,1.6,2,3.3,2.3,4.8.6,3.3-5.1,5.7-7.2,7.6-.9.8-2.7,2-2.3,3.4s2.9,2.1,4,2.3c3.5.4,6.7-2.4,10.2-2-1.7,3.4-7.7,5.2-11.3,4.5a7.35,7.35,0,0,1-4.9-3.5c-1.3-2.7.4-4.1,2.3-5.8a62.64,62.64,0,0,1,5.7-4.5c1.7-1.2,1.6-.9.6-2.7a16.82,16.82,0,0,1-1.6-3.9c-.9-3.1-3-13.1.7-15.2,1,3.2,1.1,6.2,3.3,8.9a22,22,0,0,0,8.5,6c4,1.6,7.6-.7,11.4-2.1a40.87,40.87,0,0,1,13.9-2.2c3.8,0,5.5-2.8,7.5-5.8a23.38,23.38,0,0,0,2.5-5c.4-1.2.4-3.5,1.3-4.4,2.9-3,2.7,6.2,2.6,7.4A25.29,25.29,0,0,1,149.8,20.1Z"/><path class="cls-1" d="M230.4,120.3c3.2,2,6.5,3.8,9.7,5.8,2.5,1.6,6.4,3.5,7.6,6.3-4.1-1-7.2-4-10.9-6a76.84,76.84,0,0,1-12.3-8.1c-1.2-.9-3.6-2.4-4.2-3.9-1.1-2.6,1.2-.6,2.2.2,1.3,1,3.1,2.9,4.6,3.4,2,.7,4.4-.6,6.3-1.3,4.4-1.7,8.7-3.7,13.3-5,5.1-1.5,9.8-1.1,15-.8,8.7.6,17.1,4.2,25.6,5.4,9,1.3,19.9.3,28.3-3.4a36,36,0,0,0,11.5-7.4c1.4-1.4,4.9-10.3,7.3-8.6,1.5,1-3.9,8.5-4.9,9.7a32.35,32.35,0,0,1-11.1,7.6,29.47,29.47,0,0,1-5.2,2c-2.3.4-4.7.7-7.1,1.1-5,.8-9.8,1.7-14.8,1.6a32.86,32.86,0,0,1-8.3-.6c-2.7-.6-5.3-1.8-8-2.4a64.14,64.14,0,0,1-7.3-1.7c-2.1-.6-3.7-2.2-5.8-2.5-5.1-.5-11.8,1.4-16.7,2.9C240.1,116.2,235.5,118.8,230.4,120.3Z"/><path class="cls-1" d="M47.7,138.3c2,2.1.3,5.3-.4,7.7-.9,3-1.8,6-2.9,8.9-.9,2.2-2.2,4.9-4.3,6.1-2.5,1.4-4.5.2-6.7-1.2-1.8,3.4-6.4,6.2-10.2,4.6-1.1-.4-3.9-2.4-3.4-4,.6-1.8,1.9.6,2.6,1.1,2,1.5,3.8.9,5.9-.3a10.84,10.84,0,0,0,2.9-1.8c1.2-1.5.8-.5-.1-2.1-3-5.6,2.5-8.6,6.1-11.9,2.9-2.6,5.7-7.1,3.7-11-1.7-3.6-7-7.1-10.5-8.8-5-2.3-10.7-3.7-15.9-5.1-4-1.1-11.3-.4-14.5-3.1,4.1-1.5,10.1-.3,14.4-.2a69.81,69.81,0,0,1,13.7,1.2A40.78,40.78,0,0,1,39.8,123c2.2,1.3,8.1,4.4,7.7,7.3-2.4-.4-4.7-3.3-6.9-4.6a40.14,40.14,0,0,0-7.8-3.8,39.12,39.12,0,0,0-8.8-2.2c-1.8-.3-7.2-1.5-8.6-.3L27.6,123c4.4,1.3,7,3.2,10.5,6.1,2.9,2.5,6.1,5.2,5.4,9.4a16,16,0,0,1-4.9,8.5c-2.1,2-6.5,3.9-6.4,7.3,0,2.6,3.9,6.2,6.5,5,3.1-1.4,4.1-6.7,5.1-9.5A97.31,97.31,0,0,1,47.7,138.3Z"/><path class="cls-1" d="M326.6,80c-2.9-2.4-5.1-5.6-7.9-8.2-3.1-3-6.4-5.7-9.8-8.5-6.8-5.5-14.3-9.7-21.9-13.9-15.1-8.4-30.5-16-47.4-20.3-4-1-8-2-12.1-3-1.7-.4-10.6-1.5-10.6-3.2-.1-3.1,7-.1,8.5.2,4.3,1,8.6,1.8,12.8,3A205.53,205.53,0,0,1,286,45.7c3.8,2.2,6.9,5.2,10.6,7.5,2,1.2,4.2,1.7,6.1,2.9a38.65,38.65,0,0,1,4.5,3.5C309.7,61.5,328.5,78.3,326.6,80Z"/><path class="cls-1" d="M279.5,152.9c1.4-1,2.6-3.9,4-5.2a25.32,25.32,0,0,1,6.4-4.2c.9,1.1-6.1,6.9-7,8.3-2.1,3.3-2.3,7.8-2.6,11.6-.3,4.2-.5,8.2-2.6,12a46.93,46.93,0,0,1-7.6,10.1,73.37,73.37,0,0,1-9.2,8.4,16.67,16.67,0,0,1-1.6,1.2c-1.1.5-1,.1-1.9.4a4.9,4.9,0,0,0-2.9,1.7c-1.1,1.2-1.6,3-2.9,3.9-1.5,1.1-3.6.9-5.3,1.2s-10.8,3.3-11.5,1.8c2.8-1.7,6.4-2.5,9.7-3.2,2.4-.5,5.2-.1,6.9-2,.9-1.1,1.3-2.3,2.5-3.3,1-.8,2.2-1.4,3.2-2.1a36.19,36.19,0,0,0,6.5-5.2c4.5-4.5,9.2-8.8,12.3-14.5,1.5-2.8,1.7-5.6,1.9-8.6.2-2.6,1.3-6.5.5-9s-3.8-2.7-5.8-4.2a35.8,35.8,0,0,0-6.4-4.3,73.73,73.73,0,0,1-7.7-4.5c-1.4-.9-6.7-4.1-6.8-5.9-.2-2.1,4.5,1.8,5.2,2.4a82.38,82.38,0,0,0,8,5c2.3,1.2,5.1,1.9,7.1,3.6A36.65,36.65,0,0,0,279.5,152.9Z"/><path class="cls-1" d="M117.5,58.4c-1.9-2.6-4.1-5-5.1-8.1-.5-1.7-1.8-6.1.8-6.8.7,3.3.9,6.4,2.9,9.3,2.1,3.2,5.4,5.1,8.7,6.9s5,4.6,8,6.8c2.5,1.9,5.7,1.5,8.5.4s5.6-3.1,6.9-5.8c1.6-3.5.6-8.6.7-12.4.1-4.3.9-8.4,1.1-12.7.1-2.2,0-4.5,0-6.7,0-1.6-.6-4.1.1-5.6,2.9.7,2.3,8.9,2.2,11.1-.1,4.5-.8,8.8-.8,13.3,0,8.5,1,16.5-8,20.8-3.1,1.5-7.3,2.4-10.5.9s-5.1-5.6-8.2-7.7c-3.7-2.6-7.8-2.1-11.9-.8a27.31,27.31,0,0,0-5.5,2.5c-1.6,1-3,2.7-4.9,3C102.7,60.8,113,59.2,117.5,58.4Z"/><path class="cls-1" d="M199.6,15.1a2.73,2.73,0,0,1,.6,1.2c-2.9.6-6.5-1.1-9.6-.8a15.81,15.81,0,0,0-5.7,1.3c-1.7.9-.8,1-1.8,2.2-2,2.4-3.3-1.7-4.4-3.3a17.57,17.57,0,0,0-6.9-4.8c.5,1.8-.8,2.6-1.4,4.1a9.81,9.81,0,0,0-.9,4.8,8.92,8.92,0,0,0,1.5,4.4c.3.5,2.8,2.8,2.8,3a8.23,8.23,0,0,1-6.6-9.2c.4-2.2,2.3-4.6,1.8-6.8-.2-.9-1.1-1.4-.6-2.4s1.7-.6,2.5-.6a13.82,13.82,0,0,1,6.9,3c2.4,1.8,2.9,3.4,5.9,3.1s6.1-.8,9.2-.8,4.8.1,7.5-1.4a25.6,25.6,0,0,1,6.5-3c1.1-.3,7.7-1.9,8.3-.5.8,1.7-2,2.6-3,3.8-1.4,1.8-2.3,5.5-2.3,7.7.1,5.2,1.7,10.4.3,15.5-1.5,5.3-2.1,8.9.5,14-2.2-1-4.3-4.8-4.2-7.2.1-3.8,2.6-7.3,2.9-11.1.3-4.1-1.8-7.8-1.9-11.8-.1-3.1,2.2-6.6,3.7-9.2C206.9,10.8,203.3,13.1,199.6,15.1Z"/><path class="cls-1" d="M237.2,216.7c-4,1.5-7.2-2.1-11.1-1.6-2.1.3-8.7.4-9.7,2.4-.6,1.1,1,3.1-1.2,2.6-1.2-.3-3-3.6-3.9-4.6s-2.8-3.2-4-3.4c-.5-.1-1.2.7-1.9.6s-1.2-1-1.7-1.4a35.46,35.46,0,0,1-6.9-9.8c-2.1-4.1-5.3-7.3-8.3-10.8-2.5-2.7-16.2-14.3-17.4-5.8-3.3-1.1,0-5,2.3-5.1,3.5-.1,7.8,3,10.7,4.7a32.85,32.85,0,0,1,9.1,7.9c1.2,1.5,2.3,3,3.4,4.5,1.5,1.9,1.6,3.5,2.6,5.5,1.5,3.2,4.3,6.4,7.7,7.4a17.81,17.81,0,0,1,4.7,1.9c1.8,1.2,2.8,2,5.1,1.9s4.3-1,6.6-.7c1.6.2,3.3.3,4.8.5C229.4,213.8,237.2,215.6,237.2,216.7Z"/><path class="cls-1" d="M178.7,53.5c-2.1.9-5-3.6-7.1-4.2-2.8-.8-5.5.8-8.3.8,1.9-3.2,6.4-4.2,9.8-3.1,3.9,1.4,6.8,5.3,10.8,7a16.6,16.6,0,0,0,6.2,1.5c2,.1,4.2-.6,6.1,0,2.4.7,4.1,2.3,6.9,2.1,2.1-.2,4.2-1.3,6.3-1.8-.6,2.1-3.6,3.4-5.5,3.7-2.7.5-5.2-1-7.9-1.5C190.3,57,182.9,58.4,178.7,53.5Z"/><path class="cls-1" d="M89,110.9c2.2,7.2,16.5,13.3,19.9,3.8,1.5-4.2-.5-8-3.7-10.7a4.7,4.7,0,0,0-7.6,4c1.4-.3,2.9-1.4,4.3-1,1.6.5,2.2,2.5,1.7,4-.3,1-1.8,2.5-2.9,2.2-2.5-.6.2-1.5.5-2.1,1.5-2.4-.5-1.6-1.7-1.4-1.8.3-2.8.1-3.1-1.9-.7-3.5,3.6-6.8,6.9-6.6s6.5,4.2,7.3,7.2c1.3,4.9,0,8.5-4.2,11.3-3.9,2.6-7.1,1-11-.5C93.5,118.6,86.2,112.9,89,110.9Z"/><path class="cls-1" d="M112.8,84.3c-3.8-1.9-1.5,3.3-2.1,4.5-.5,1-2.1,1.1-2.7,2.1s-.3,2.1-1.1,2.9c-.5.4-1.9.7-2.5,1.3-.5.4-1.7,2.2-2.5,1.9-2.2-.7,2.6-4.6,3.1-5.5,1.1-2.4,3.1-3.6,3.5-6.1.3-2.2-.2-2.4-2.5-2a21.37,21.37,0,0,0-4.2,1.6,26.15,26.15,0,0,0-7.2,5.1,26.94,26.94,0,0,0-3,3.7c-.8,1.1-1.3,3.1-2.4,4,.5-6.3,4.6-10.8,10-13.8C102.3,82.3,112,77.1,112.8,84.3Z"/><path class="cls-1" d="M17.9,100.5A148.69,148.69,0,0,1,28,80.6a92.41,92.41,0,0,0,5.8-10.7c.8-1.8,1.6-3.5,2.4-5.3.2-.5,1-3,1.6-1.6.5,1.1-.9,3.8-1.3,5a39,39,0,0,1-2.1,5.7,99.23,99.23,0,0,1-6.3,10.9c-2,3.3-3.7,6.6-5.8,9.8C21.7,95.5,19.5,102.8,17.9,100.5Z"/><path class="cls-1" d="M148.8,211.4c-2.3-1.5-3.9-4.2-6.1-6.1s-4.9-3.6-7.2-5.7c-2.5-2.3-11.6-10.6-8.4-14a31.22,31.22,0,0,0,4.7,6.9,54.62,54.62,0,0,0,6.9,6.7c2.4,1.9,5.4,3.3,7.5,5.6C147,205.8,149.8,210.5,148.8,211.4Z"/><path class="cls-1" d="M13.5,131.2A96.89,96.89,0,0,0,16.2,149c.3.9,2.4,6.4-.6,5-1.7-.8-2.4-5.8-2.7-7.4-1.4-6-.7-12.4-.7-18.5,0-.6-.1-6.6,1.4-3.6C14,125.3,13.6,131.2,13.5,131.2Z"/><path class="cls-1" d="M127.8,45.6c-1.4-.3-3.7-1.1-1.3-2.2,1.5-.7,4,.6,5,1.8C134.7,49.3,127,51.2,127.8,45.6Z"/><path class="cls-1" d="M185.9,38.1a2.24,2.24,0,0,1-.8-1.5c2.6-.7,6.4,2.4,4.8,5.4C187.9,45.7,184.6,40.8,185.9,38.1Z"/><path class="cls-1" d="M63.6,143.7c-1.7,1.2-1.3-1.4.3-1.9,2-.7,3.1.5,4.1,2,1.1,1.7,1,3.4-1.5,3.3C64.4,147.1,64.1,145.4,63.6,143.7Z"/><path class="cls-1" d="M62.2,57.5c-.7-.1-1,.4-1.4-.4s.7-1.2,1.1-1.4c2.1-.8,3.7,1.8,4.3,3.4s.9,4.1-1.5,3.3C62.8,61.7,62.4,59.1,62.2,57.5Z"/><path class="cls-1" d="M321.2,137.6a18.58,18.58,0,0,0-6.4-2.9c-.9-.2-5.1-.5-5.1-1.7C311.4,132.3,324,134.8,321.2,137.6Z"/><path class="cls-1" d="M202.8,54c-1.9,2.5-3-1.2-1-2.2C204.2,50.7,205.3,54.6,202.8,54Z"/><path class="cls-1" d="M209.6,51.7c-.5.5-2.5,2.1-2.2,0C207.7,50,208.9,51.1,209.6,51.7Z"/><path class="cls-1" d="M118.7,109.6c-2.7-3.2,4.8-2.3,4.1,1.3S118.2,109.8,118.7,109.6Z"/><path class="cls-1" d="M138.3,126.1c1.3-.2,5.2-1.9,4.2.6C141.8,128.6,138.4,127.2,138.3,126.1Z"/><path class="cls-2" d="M38,273.13c0-6.18,0-7.29-.12-8.53s-.37-2-1.73-2.22a5.26,5.26,0,0,0-1.36-.12c-.13,0-.37-.13-.37-.25s.24-.37.61-.37c1.73,0,4.21.12,4.45.12.87,0,3.22-.12,5-.12,4.94,0,6.67,1.6,7.42,2.22a7,7,0,0,1,2,4.7c0,5.56-4.08,9.4-9.76,9.4h-.87c-.24,0-.49-.13-.49-.25,0-.37.25-.37,1.11-.37a6.56,6.56,0,0,0,6.8-6.43,8.18,8.18,0,0,0-2.23-6.06,7,7,0,0,0-5.43-2,6.71,6.71,0,0,0-1.74.25.75.75,0,0,0-.37.74v16.32a74.23,74.23,0,0,0,.25,8.53c.12,1.11.37,2,1.48,2.23a9.79,9.79,0,0,0,1.74.12c.24,0,.37.12.37.25s-.25.37-.62.37c-2.23,0-4.7-.12-4.82-.12s-2.6.12-3.84.12c-.49,0-.61-.12-.61-.37s.12-.25.37-.25.86-.12,1.23-.12c.74-.13,1-1,1.12-2.23a78.5,78.5,0,0,0,.24-8.53v-7.05Z"/><path class="cls-2" d="M62.85,273.13c0-6.18,0-7.29-.12-8.53s-.38-2-1.74-2.22a5.14,5.14,0,0,0-1.35-.12c-.13,0-.38-.13-.38-.25s.25-.37.62-.37c1.73,0,4.33.12,4.45.12.5,0,3.46-.12,4.7-.12,2.47,0,5.19.24,7.29,1.73A6.89,6.89,0,0,1,79,268.81c0,3-1.23,5.81-4.82,9.15,3.22,4.2,5.94,7.66,8.29,10.13,2.1,2.23,3.83,2.72,4.82,2.85a9.53,9.53,0,0,0,1.48.12c.25,0,.37.12.37.25s-.25.37-1,.37H85.6a8.53,8.53,0,0,1-4.21-.74c-1.73-.87-3.09-2.85-5.31-5.81-1.61-2.23-3.46-4.82-4.33-5.81a.62.62,0,0,0-.49-.25L66.43,279c-.24,0-.24.12-.24.37v1a77.31,77.31,0,0,0,.24,8.53c.13,1.11.38,2,1.49,2.22a9.63,9.63,0,0,0,1.73.12c.25,0,.37.13.37.25s-.25.37-.62.37c-2.22,0-4.7-.12-4.82-.12s-2.47.12-3.71.12c-.49,0-.62-.12-.62-.37s.13-.25.37-.25.87-.12,1.24-.12c.74-.12,1-1,1.11-2.22a75.47,75.47,0,0,0,.25-8.53v-7.18Zm3.21,3.47a.65.65,0,0,0,.25.49,11.1,11.1,0,0,0,4.2.62,5.05,5.05,0,0,0,3-.74c1.36-1,2.47-3.09,2.47-6.06,0-5-2.59-7.91-6.8-7.91a10.71,10.71,0,0,0-2.59.24c-.25.13-.37.25-.37.5V276.6Z"/><path class="cls-2" d="M104.39,261.14c8.9,0,15.58,5.57,15.58,14.84,0,8.9-6.31,16.19-15.83,16.19-10.88,0-15.33-8.4-15.33-15.57C88.81,270.17,93.39,261.14,104.39,261.14Zm.74,29.43c3.59,0,10.88-2.11,10.88-13.6,0-9.52-5.81-14.59-12-14.59-6.55,0-11.5,4.33-11.5,13C92.52,284.63,98.08,290.57,105.13,290.57Z"/><path class="cls-2" d="M128.25,273.13c0-6.18,0-7.29-.13-8.53s-.37-2-1.73-2.22a5.18,5.18,0,0,0-1.36-.12c-.12,0-.37-.13-.37-.25s.25-.37.62-.37H139.5a6.25,6.25,0,0,0,1.73-.13c.25-.12.37-.24.49-.24s.25.12.25.37-.25.74-.37,1.85a19.43,19.43,0,0,1-.25,2.6c0,.25-.12.49-.37.49s-.25-.24-.25-.49a3.73,3.73,0,0,0-.37-1.49,3,3,0,0,0-2.72-1.23l-6-.13c-.25,0-.37.13-.37.5v10.88c0,.25,0,.37.24.37h6.8c1-.12,1.49-.25,1.86-.74.12-.25.24-.37.49-.37s.25.12.25.37a22.09,22.09,0,0,0-.37,2.22,21,21,0,0,0-.13,2.6c0,.37,0,.74-.24.74s-.25-.12-.25-.37a6.93,6.93,0,0,0-.25-1.48,2.9,2.9,0,0,0-2.1-1.49c-1-.12-5.32-.12-5.93-.12-.25,0-.25.12-.25.37v3.34a74.23,74.23,0,0,0,.25,8.53c.12,1.11.37,2,1.48,2.22a8.9,8.9,0,0,0,1.73.13c.25,0,.37.12.37.24s-.25.38-.62.38c-2.22,0-4.69-.13-4.82-.13s-2.72.13-3.83.13c-.5,0-.62-.13-.62-.38s.12-.24.37-.24.87-.13,1.24-.13c.74-.12,1-1,1.11-2.22a75.38,75.38,0,0,0,.25-8.53v-6.93Z"/><path class="cls-2" d="M155.08,280.06a77.31,77.31,0,0,0,.24,8.53c.13,1.11.37,2,1.49,2.22a8.9,8.9,0,0,0,1.73.13c.24,0,.37.12.37.24s-.25.38-.62.38c-2.23,0-4.7-.13-4.82-.13s-2.72.13-3.83.13c-.5,0-.62-.13-.62-.38s.12-.24.37-.24.86-.13,1.24-.13c.74-.12,1-1,1.11-2.22a78.5,78.5,0,0,0,.24-8.53v-6.93c0-6.18,0-7.29-.12-8.53s-.49-2-1.36-2.22a5.24,5.24,0,0,0-1.23-.12c-.13,0-.38-.13-.38-.25s.25-.37.62-.37c1.36,0,3.83.12,4,.12s2.72-.12,3.83-.12c.5,0,.62.12.62.37s-.12.25-.37.25a3.56,3.56,0,0,0-1,.12c-1.11.25-1.36.86-1.48,2.22S155,267,155,273.13v6.93Z"/><path class="cls-2" d="M177.58,280.06a77.31,77.31,0,0,0,.24,8.53c.13,1.11.37,2,1.49,2.22a8.9,8.9,0,0,0,1.73.13c.24,0,.37.12.37.24s-.25.38-.62.38c-2.23,0-4.7-.13-4.82-.13s-2.72.13-3.83.13c-.5,0-.62-.13-.62-.38s.12-.24.37-.24.86-.13,1.24-.13c.74-.12,1-1,1.11-2.22a75.38,75.38,0,0,0,.25-8.53V263.37l-5.82.12c-2.47,0-3.46.37-4.08,1.24A3.6,3.6,0,0,0,164,266c-.13.38-.25.38-.37.38s-.25-.13-.25-.38a40.78,40.78,0,0,1,.86-4.08c.13-.24.25-.74.37-.74a8.26,8.26,0,0,0,1.74.5c1.11.12,2.59.24,3.09.24h14.83a15.52,15.52,0,0,0,2.85-.24c.61-.13,1-.25,1.11-.25s.25.25.25.49c0,1.24-.13,4-.13,4.33s-.12.5-.25.5-.24-.13-.37-.62v-.5c-.12-1.23-1.11-2.1-4.82-2.22l-4.94-.13v16.82Z"/><path class="cls-2" d="M209.35,273.13c0-6.18,0-7.29-.13-8.53s-.37-2-1.73-2.22a5.22,5.22,0,0,0-1.36-.12c-.12,0-.37-.13-.37-.25s.25-.37.62-.37H220.6a6.25,6.25,0,0,0,1.73-.13c.25-.12.37-.24.49-.24s.25.12.25.37-.25.74-.37,1.85a19.43,19.43,0,0,1-.25,2.6c0,.25-.12.49-.37.49s-.25-.24-.25-.49a3.73,3.73,0,0,0-.37-1.49,3,3,0,0,0-2.72-1.23l-6.05-.13c-.25,0-.37.13-.37.5v10.88c0,.25,0,.37.24.37h6.8c1-.12,1.49-.25,1.86-.74.12-.25.24-.37.49-.37s.25.12.25.37a22.09,22.09,0,0,0-.37,2.22,21,21,0,0,0-.13,2.6c0,.37,0,.74-.24.74s-.25-.12-.25-.37a6.93,6.93,0,0,0-.25-1.48,2.9,2.9,0,0,0-2.1-1.49c-1-.12-5.32-.12-5.93-.12-.25,0-.25.12-.25.37v3.34a74.23,74.23,0,0,0,.25,8.53c.12,1.11.37,2,1.48,2.22a8.9,8.9,0,0,0,1.73.13c.25,0,.37.12.37.24s-.25.38-.62.38c-2.22,0-4.69-.13-4.82-.13s-2.72.13-3.83.13c-.5,0-.62-.13-.62-.38s.12-.24.37-.24.87-.13,1.24-.13c.74-.12,1-1,1.11-2.22a75.38,75.38,0,0,0,.25-8.53v-6.93Z"/><path class="cls-2" d="M232.71,273.13c0-6.18,0-7.29-.12-8.53s-.37-2-1.73-2.22a5.22,5.22,0,0,0-1.36-.12c-.12,0-.37-.13-.37-.25s.25-.37.62-.37h2.84l1.61.12h9a5.52,5.52,0,0,0,1.73-.25c.25,0,.37-.24.5-.24s.12.12.12.37-.25.74-.37,1.85a19.43,19.43,0,0,1-.25,2.6c0,.25-.12.49-.24.49s-.38-.24-.38-.49a3.81,3.81,0,0,0-.24-1.49c-.25-.61-.62-1.11-2.85-1.36-.61-.12-4.94-.12-5.44-.12-.12,0-.24.12-.24.37v10.88c0,.25,0,.37.24.37.5,0,5.44,0,6.31-.12s1.48-.13,1.85-.5.5-.49.62-.49.25.12.25.37-.25.87-.37,2.23a19.17,19.17,0,0,0-.13,2.47c0,.37,0,.74-.24.74s-.25-.12-.25-.37a6.26,6.26,0,0,0-.12-1.36c-.13-.5-.5-1.24-2.1-1.36-1.12-.12-5-.25-5.69-.25-.25,0-.25.13-.25.25v10.26c.12,2.72.74,3.21,4.58,3.21a10.68,10.68,0,0,0,3.83-.49c1-.49,1.48-1.24,1.73-2.84.12-.5.12-.62.37-.62s.25.37.25.62-.37,3-.5,3.83-.62,1-2.1,1c-3,0-5.19-.13-6.68-.13s-2.47-.12-3.09-.12h-1.6c-.75,0-1.73.12-2.35.12s-.62-.12-.62-.37.12-.24.37-.24.87-.13,1.24-.13c.74-.12,1-1,1.11-2.22a75.38,75.38,0,0,0,.25-8.53v-6.56Z"/><path class="cls-2" d="M256.82,273.13c0-6.18,0-7.29-.12-8.53s-.37-2-1.73-2.22a5.22,5.22,0,0,0-1.36-.12c-.13,0-.37-.13-.37-.25s.24-.37.61-.37h2.85l1.6.12h9a5.52,5.52,0,0,0,1.73-.25c.25,0,.37-.24.49-.24s.13.12.13.37-.25.74-.37,1.85a21.24,21.24,0,0,1-.25,2.6c0,.25-.12.49-.25.49s-.37-.24-.37-.49a3.81,3.81,0,0,0-.24-1.49c-.25-.61-.62-1.11-2.85-1.36-.62-.12-4.94-.12-5.44-.12-.12,0-.25.12-.25.37v10.88c0,.25,0,.37.25.37.5,0,5.44,0,6.31-.12s1.48-.13,1.85-.5.5-.49.62-.49.25.12.25.37-.25.87-.37,2.23a19.17,19.17,0,0,0-.13,2.47c0,.37,0,.74-.24.74s-.25-.12-.25-.37a5.79,5.79,0,0,0-.13-1.36c-.12-.5-.49-1.24-2.1-1.36-1.11-.12-4.94-.25-5.68-.25-.25,0-.25.13-.25.25v10.26c.12,2.72.74,3.21,4.57,3.21a10.71,10.71,0,0,0,3.84-.49c1-.49,1.48-1.24,1.73-2.84.12-.5.12-.62.37-.62s.24.37.24.62-.37,3-.49,3.83-.62,1-2.1,1c-3,0-5.19-.13-6.68-.13s-2.47-.12-3.09-.12h-1.61c-.74,0-1.73.12-2.34.12s-.62-.12-.62-.37.12-.24.37-.24.86-.13,1.23-.13c.75-.12,1-1,1.12-2.22a78.5,78.5,0,0,0,.24-8.53v-6.56Z"/><path class="cls-2" d="M280.93,273.13c0-6.18,0-7.29-.12-8.53s-.38-2-1.74-2.22a5.18,5.18,0,0,0-1.36-.12c-.12,0-.37-.13-.37-.25s.25-.37.62-.37c1.73,0,4.33.12,4.45.12.5,0,3-.12,5.32-.12,3.95,0,11.12-.37,15.82,4.45a14.12,14.12,0,0,1,3.83,10,16.2,16.2,0,0,1-4.32,11.13c-1.73,1.73-5.32,4.57-12,4.57-1.73,0-3.84-.12-5.44-.24s-3.09-.25-3.34-.25h-1.61c-.74,0-1.73.12-2.35.12s-.62-.12-.62-.37.13-.25.38-.25.86-.12,1.23-.12c.74-.12,1-1,1.11-2.23a75.28,75.28,0,0,0,.25-8.53v-6.8Zm3.34,4.33c0,4.21,0,7.79.12,8.53,0,1,.12,2.6.49,3,.5.74,2.11,1.61,6.68,1.61a13.17,13.17,0,0,0,9.4-3.71c2.1-2,3.21-5.81,3.21-9.4a14.28,14.28,0,0,0-3.83-10c-3.71-4-8.28-4.45-13-4.45a14.68,14.68,0,0,0-2.6.24.69.69,0,0,0-.49.75v13.47Z"/></svg>