<?xml version="1.0" encoding="utf-8"?>
<!-- Generated by IcoMoon.io -->
<svg version="1.1" xmlns="http://www.w3.org/2000/svg" xmlns:xlink="http://www.w3.org/1999/xlink" width="1084" height="30" viewBox="0 0 1084 30">
<svg id="i-1" width="34" height="30" viewBox="0 0 34 30" x="0" y="0">
<path d="M33.485 4.903c-0.664-0.627-2.353-0.664-3.080-0.641-0.103-0.996-0.405-3.475-0.906-4.133-0.061-0.085-0.16-0.14-0.271-0.14-0.030 0-0.059 0.004-0.086 0.011l0.002-0.001c-0.128 0.037-0.223 0.147-0.239 0.281l-0 0.002-0.382 3.495h-5.288l-0.388-3.482c-0.010-0.175-0.155-0.314-0.331-0.314-0.115 0-0.216 0.058-0.275 0.146l-0.001 0.001c-0.501 0.664-0.803 3.137-0.906 4.133-0.727-0.017-2.413 0-3.080 0.641-0.199 0.17-0.326 0.42-0.332 0.699v0.001c0.007 0.567 0.367 1.047 0.87 1.232l0.009 0.003c0.734 0.332 1.766 0.246 2.211-0.163 0.22-0.186 0.493-0.317 0.794-0.367l0.010-0.001c0.046 0.332 0.123 0.846 0.229 1.404h-17.065c-2.75 0-4.979 2.229-4.979 4.979v0 16.763c0 0.183 0.149 0.332 0.332 0.332v0h2.38c0.183 0 0.332-0.149 0.332-0.332v0-7.545c0.692 0.595 1.599 0.957 2.59 0.957 1.761 0 3.256-1.143 3.781-2.728l0.008-0.028h10.768v9.56c0 0.183 0.149 0.332 0.332 0.332v0h1.826c0.183 0 0.332-0.149 0.332-0.332v0-9.609c1.474-0.216 3.817-1.155 3.817-3.502-0.038-0.861-0.219-1.669-0.519-2.416l0.018 0.049h0.428c0.297 0.002 0.586 0.025 0.87 0.067l-0.033-0.004c0.061 0.013 0.132 0.020 0.204 0.020 0.252 0 0.483-0.088 0.665-0.234l-0.002 0.002c0.248-0.238 0.403-0.572 0.403-0.943 0-0.019-0-0.037-0.001-0.056l0 0.003 0.017-0.432c0.027-1.059 0.050-1.899 0.478-2.592 0.471-0.76 0.8-2.861 0.919-3.708 0.3 0.059 0.562 0.191 0.775 0.377l-0.002-0.002c0.441 0.408 1.474 0.485 2.211 0.163 0.511-0.189 0.87-0.669 0.876-1.234v-0.001c0-0.003 0-0.006 0-0.009 0-0.28-0.123-0.532-0.318-0.704l-0.001-0.001zM5.643 22.183c-0.003 0-0.006 0-0.010 0-0.851 0-1.628-0.318-2.218-0.843l0.003 0.003 3.392-3.439c0.349 1.029 0.946 2.094 1.912 2.184-0.5 1.236-1.69 2.092-3.080 2.094h-0zM22.336 19.435c-0.172 0.014-0.305 0.157-0.305 0.331 0 0 0 0.001 0 0.001v-0 9.57h-1.162v-9.573c0-0.183-0.149-0.332-0.332-0.332v0h-11.004c-0.040-0.106-0.13-0.185-0.24-0.209l-0.002-0c-0.017-0.003-0.038-0.005-0.058-0.005-0.141 0-0.262 0.088-0.31 0.212l-0.001 0.002h-0.070c-1.115 0-1.709-2.612-1.829-3.528-0.012-0.174-0.156-0.311-0.332-0.311-0.184 0-0.333 0.149-0.333 0.333 0 0.008 0 0.015 0.001 0.023l-0-0.001v1.47l-3.884 3.94c-0.059 0.060-0.096 0.142-0.096 0.232v7.525h-1.716v-16.431c0-2.383 1.932-4.315 4.315-4.315v0h17.201c0.115 0.616 0.307 1.166 0.567 1.674l-0.016-0.034c0.432 0.694 0.451 1.534 0.478 2.592v0.438c-0 0.011-0.001 0.025-0.001 0.038 0 0.362 0.155 0.687 0.401 0.914l0.001 0.001c0.217 0.174 0.497 0.28 0.8 0.28 0.017 0 0.035-0 0.052-0.001l-0.002 0c0.096-0.001 0.189-0.007 0.281-0.018l-0.012 0.001c0.212-0.030 0.388-0.046 0.551-0.053 0.298 0.692 0.492 1.495 0.54 2.338l0.001 0.019c0.013 2.536-3.356 2.865-3.499 2.878zM32.655 6.23c-0.561 0.246-1.295 0.143-1.494-0.043-0.406-0.348-0.933-0.566-1.51-0.584l-0.004-0c-0.001 0-0.002 0-0.003 0-0.168 0-0.307 0.125-0.329 0.287l-0 0.002c-0.037 0.282-0.1 0.74-0.186 1.241-0.040-0.018-0.087-0.029-0.136-0.029s-0.096 0.011-0.138 0.030l0.002-0.001-1.534 0.607c-0.124 0.050-0.21 0.169-0.21 0.309 0 0.183 0.149 0.332 0.332 0.332 0 0 0.001 0 0.001 0h-0c0 0 0.001 0 0.001 0 0.044 0 0.086-0.009 0.124-0.024l-0.002 0.001 1.441-0.571c-0.107 0.704-0.303 1.339-0.579 1.928l0.018-0.043c-0.524 0.846-0.548 1.809-0.578 2.924v0.435c0.001 0.016 0.002 0.035 0.002 0.054 0 0.176-0.064 0.337-0.169 0.461l0.001-0.001c-0.069 0.045-0.153 0.072-0.243 0.072-0.031 0-0.062-0.003-0.091-0.009l0.003 0c-0.276-0.042-0.597-0.067-0.923-0.070l-0.003-0h-0.89c-0.321 0.002-0.634 0.027-0.94 0.071l0.037-0.004c-0.050 0.011-0.108 0.017-0.168 0.017-0.161 0-0.312-0.046-0.44-0.125l0.004 0.002c-0.097-0.109-0.157-0.253-0.157-0.411 0-0.025 0.001-0.049 0.004-0.073l-0 0.003v-0.435c-0.027-1.115-0.053-2.078-0.578-2.924-0.255-0.546-0.45-1.18-0.556-1.844l-0.005-0.041 1.444 0.571c0.036 0.015 0.078 0.023 0.122 0.023 0 0 0.001 0 0.001 0h-0c0 0 0.001 0 0.001 0 0.183 0 0.332-0.149 0.332-0.332 0-0.139-0.086-0.259-0.208-0.308l-0.002-0.001-1.547-0.607c-0.040-0.018-0.086-0.028-0.134-0.028s-0.095 0.010-0.137 0.029l0.002-0.001c-0.086-0.501-0.153-0.959-0.186-1.241-0.022-0.164-0.161-0.289-0.329-0.289-0.001 0-0.002 0-0.003 0h0c-0.591 0.016-1.127 0.239-1.54 0.6l0.003-0.002c-0.202 0.186-0.933 0.289-1.494 0.043-0.277-0.081-0.476-0.33-0.481-0.627v-0.001c0.001-0.087 0.042-0.165 0.106-0.215l0.001-0c0.455-0.428 2.021-0.505 2.904-0.451 0 0 0.001 0 0.002 0 0.172 0 0.313-0.13 0.33-0.297l0-0.001c0.073-0.77 0.212-1.852 0.382-2.722l0.246 2.231c0.019 0.167 0.159 0.295 0.33 0.295 0.001 0 0.001 0 0.002 0h5.912c0.001 0 0.001 0 0.002 0 0.17 0 0.311-0.128 0.33-0.294l0-0.002 0.242-2.231c0.173 0.87 0.312 1.952 0.382 2.722 0.017 0.169 0.158 0.299 0.33 0.299 0.008 0 0.015-0 0.023-0.001l-0.001 0c0.88-0.053 2.446 0.020 2.904 0.451 0.063 0.050 0.103 0.127 0.103 0.213 0 0.001 0 0.002 0 0.003v-0c-0.005 0.296-0.203 0.545-0.473 0.626l-0.005 0.001z"></path>
</svg>
<svg id="i-2" width="38" height="30" viewBox="0 0 42 32" x="68" y="0">
<path d="M37.181 2.155c-0.715-0.689-2.506-0.737-3.43-0.737-0.406-0.551-0.995-0.947-1.676-1.098l-0.019-0.004-1.105-0.158c-0.67-0.1-1.443-0.158-2.229-0.158s-1.559 0.057-2.315 0.168l0.086-0.010-1.124 0.162c-0.155 0.037-1.326 0.368-1.636 1.105-0.785-0.022-2.704 0-3.456 0.711-0.22 0.188-0.361 0.464-0.368 0.773l-0 0.001c0.007 0.629 0.407 1.162 0.966 1.367l0.010 0.003c0.814 0.368 1.96 0.273 2.454-0.177 0.239-0.21 0.537-0.359 0.866-0.418l0.011-0.002c0.052 0.368 0.136 0.94 0.254 1.555h-18.943c-3.052 0-5.527 2.474-5.527 5.527v0 18.607c0 0.203 0.165 0.368 0.368 0.368v0h2.642c0.203 0 0.368-0.165 0.368-0.368v0-8.371c0.768 0.66 1.775 1.063 2.875 1.063 1.955 0 3.614-1.269 4.198-3.028l0.009-0.031h11.953v10.626c0 0.203 0.165 0.368 0.368 0.368v0h2.027c0.203 0 0.368-0.165 0.368-0.368v0-10.663c1.636-0.243 4.237-1.286 4.237-3.891-0.043-0.954-0.243-1.85-0.576-2.678l0.019 0.055h0.475c0.329 0.002 0.651 0.027 0.966 0.075l-0.037-0.005c0.067 0.013 0.144 0.021 0.223 0.021 0.28 0 0.538-0.097 0.741-0.259l-0.002 0.002c0.276-0.268 0.447-0.643 0.447-1.057 0-0.017-0-0.034-0.001-0.051l0 0.002 0.018-0.497c0.029-1.175 0.055-2.104 0.531-2.874 0.523-0.847 0.888-3.18 1.021-4.116 0.333 0.064 0.624 0.21 0.861 0.418l-0.002-0.002c0.49 0.453 1.636 0.534 2.454 0.177 0.567-0.209 0.966-0.743 0.973-1.37v-0.001c-0.002-0.303-0.134-0.574-0.342-0.762l-0.001-0.001zM6.264 21.326c-0.943-0.003-1.803-0.356-2.458-0.936l0.004 0.003 3.751-3.814c0.387 1.142 1.050 2.325 2.122 2.421-0.555 1.372-1.876 2.323-3.419 2.325h-0zM24.794 18.272c-0.19 0.016-0.339 0.174-0.339 0.367 0 0 0 0.001 0 0.001v-0 10.623h-1.29v-10.623c0-0.203-0.165-0.368-0.368-0.368v0h-12.214c-0.058-0.133-0.188-0.224-0.339-0.224s-0.281 0.091-0.338 0.222l-0.001 0.002h-0.077c-1.238 0-1.898-2.9-2.030-3.917-0.024-0.182-0.179-0.321-0.365-0.321-0.009 0-0.018 0-0.026 0.001l0.001-0c-0.192 0.014-0.343 0.173-0.343 0.368 0 0 0 0.001 0 0.001v-0 1.629l-4.315 4.377c-0.066 0.066-0.106 0.157-0.107 0.258v8.349h-1.905v-18.239c0-2.645 2.145-4.79 4.79-4.79v0h19.094c0.127 0.685 0.34 1.297 0.629 1.862l-0.018-0.038c0.479 0.77 0.501 1.699 0.531 2.874v0.49c-0 0.012-0.001 0.027-0.001 0.042 0 0.4 0.172 0.761 0.445 1.011l0.001 0.001c0.239 0.194 0.546 0.311 0.881 0.311 0.022 0 0.044-0 0.065-0.001l-0.003 0c0.006 0 0.013 0 0.021 0 0.098 0 0.194-0.007 0.289-0.020l-0.011 0.001c0.236-0.029 0.431-0.048 0.612-0.059 0.329 0.769 0.545 1.66 0.6 2.594l0.001 0.022c0.015 2.815-3.725 3.18-3.884 3.195zM36.249 3.615c-0.623 0.273-1.437 0.162-1.658-0.044-0.45-0.389-1.035-0.632-1.676-0.652l-0.004-0c-0.001 0-0.002 0-0.003 0-0.188 0-0.343 0.141-0.366 0.322l-0 0.002c-0.041 0.313-0.111 0.818-0.206 1.378-0.044-0.020-0.096-0.032-0.151-0.032s-0.107 0.012-0.153 0.033l0.002-0.001-1.702 0.674c-0.137 0.056-0.233 0.188-0.233 0.342 0 0.049 0.010 0.096 0.027 0.139l-0.001-0.002c0.056 0.137 0.188 0.232 0.342 0.232 0 0 0 0 0 0h-0c0 0 0.001 0 0.001 0 0.049 0 0.095-0.009 0.138-0.027l-0.002 0.001 1.599-0.634c-0.118 0.782-0.336 1.486-0.643 2.14l0.020-0.047c-0.578 0.925-0.604 1.993-0.63 3.246v0.483c0.001 0.018 0.002 0.039 0.002 0.060 0 0.196-0.070 0.376-0.188 0.516l0.001-0.001c-0.078 0.049-0.172 0.079-0.274 0.079-0.033 0-0.066-0.003-0.098-0.009l0.003 0.001c-0.307-0.047-0.663-0.075-1.025-0.077l-0.003-0h-0.999c-0.356 0.003-0.703 0.029-1.043 0.079l0.041-0.005c-0.054 0.011-0.117 0.018-0.181 0.018-0.181 0-0.35-0.052-0.493-0.142l0.004 0.002c-0.108-0.12-0.175-0.279-0.175-0.454 0-0.030 0.002-0.059 0.006-0.087l-0 0.003v-0.483c-0.029-1.234-0.059-2.303-0.641-3.246-0.283-0.606-0.5-1.31-0.617-2.048l-0.006-0.045 1.603 0.634c0.040 0.016 0.087 0.026 0.135 0.026 0 0 0.001 0 0.001 0h-0c0 0 0 0 0 0 0.154 0 0.287-0.095 0.341-0.23l0.001-0.002c0.017-0.040 0.026-0.087 0.026-0.137 0-0.155-0.095-0.287-0.23-0.342l-0.002-0.001-1.717-0.674c-0.044-0.020-0.095-0.032-0.149-0.032s-0.105 0.012-0.152 0.033l0.002-0.001c-0.096-0.56-0.169-1.065-0.206-1.378-0.023-0.184-0.178-0.324-0.366-0.324-0.001 0-0.002 0-0.003 0h0c-0.657 0.019-1.252 0.269-1.709 0.673l0.003-0.003c-0.225 0.206-1.035 0.317-1.658 0.044-0.307-0.090-0.529-0.367-0.534-0.696v-0.001c0.002-0.096 0.047-0.18 0.117-0.235l0.001-0c0.505-0.479 2.244-0.56 3.224-0.501 0.006 0 0.013 0.001 0.020 0.001 0.098 0 0.187-0.038 0.253-0.1l-0 0c0.072-0.067 0.118-0.163 0.118-0.269v-0c0-0.368 0.788-0.685 1.105-0.77l1.105-0.155c0.638-0.097 1.375-0.152 2.124-0.152s1.486 0.055 2.206 0.162l-0.081-0.010 1.076 0.155c0.558 0.143 1.020 0.484 1.318 0.942l0.005 0.009c0.065 0.109 0.183 0.181 0.317 0.181 0.005 0 0.010-0 0.015-0l-0.001 0c1.139-0.044 2.631 0.066 3.091 0.512 0.068 0.054 0.111 0.137 0.111 0.23 0 0.001 0 0.001 0 0.002v-0c-0.005 0.328-0.223 0.604-0.522 0.695l-0.005 0.001z"></path>
</svg>
<svg id="i-3" width="25" height="30" viewBox="0 0 25 30" x="136" y="0">
<path d="M16.935 6.471c-0.053-0.053-0.126-0.086-0.207-0.086s-0.154 0.033-0.207 0.086v0c-0.054 0.053-0.087 0.127-0.087 0.209s0.033 0.156 0.087 0.209l0.918 0.918c0.053 0.054 0.127 0.087 0.209 0.087 0.163 0 0.294-0.132 0.294-0.294 0-0.081-0.033-0.154-0.085-0.207l0 0z"></path>
<path d="M24.912 1.953c-0.679-0.332-1.744 0.047-3.174 1.135h-1.5c-0.053-0.476-0.059-1.491 0.415-2.059 0.24-0.272 0.589-0.443 0.979-0.443 0.023 0 0.046 0.001 0.069 0.002l-0.003-0c0.162 0 0.294-0.132 0.294-0.294s-0.132-0.294-0.294-0.294v0 0c-0.011-0-0.024-0-0.037-0-0.572 0-1.084 0.253-1.432 0.654l-0.002 0.002c-0.632 0.759-0.588 1.944-0.553 2.432h-1.232c0.047-0.488 0.079-1.674-0.553-2.432-0.349-0.403-0.862-0.656-1.434-0.656-0.013 0-0.026 0-0.039 0l0.002-0c-0.162 0-0.294 0.132-0.294 0.294v0c0 0.162 0.132 0.294 0.294 0.294v0c0.018-0.001 0.039-0.001 0.060-0.001 0.391 0 0.743 0.172 0.982 0.444l0.001 0.001c0.515 0.615 0.453 1.694 0.415 2.059h-1.5c-1.426-1.088-2.494-1.471-3.174-1.135-0.34 0.186-0.567 0.542-0.567 0.95 0 0.027 0.001 0.053 0.003 0.080l-0-0.004c0 0.518 0 1.738 1.121 1.8 0.697-0.016 1.365-0.093 2.013-0.227l-0.072 0.012c-0.379 1.429-1.812 5.912-4.829 5.912h-8.824c-0.012-0-0.027-0-0.041-0-1.106 0-2.003 0.895-2.006 2v6.491c0.002 1.114 0.828 2.034 1.9 2.184l0.012 0.001v8.55c0 0.162 0.132 0.294 0.294 0.294v0h1.691c0.162 0 0.294-0.132 0.294-0.294v0-6.838c0.879-0.040 1.596-0.689 1.74-1.533l0.002-0.011h8.112v8.382c0 0.162 0.132 0.294 0.294 0.294v0h1.691c0.162 0 0.294-0.132 0.294-0.294v0-8.391c2.346-0.163 4.187-2.104 4.191-4.476v-5.442c-0.001-0.045-0.012-0.087-0.030-0.125l0.001 0.002c0.862-0.656 1.832-1.612 1.832-2.597v-4.118c0.604 0.13 1.306 0.214 2.024 0.232l0.014 0c1.124-0.062 1.124-1.282 1.124-1.8 0.002-0.025 0.003-0.055 0.003-0.084 0-0.41-0.229-0.768-0.565-0.951l-0.006-0.003zM19.912 16.838c-0.002 2.146-1.737 3.887-3.881 3.897h-0.001c-0.162 0-0.294 0.132-0.294 0.294v0 8.382h-1.103v-8.382c0-0.162-0.132-0.294-0.294-0.294v0h-8.676c-0.162 0-0.294 0.132-0.294 0.294v0c-0.002 0.69-0.56 1.248-1.25 1.25h-0.221c-0.162 0-0.294 0.132-0.294 0.294v0 6.838h-1.103v-8.529c0-0.162-0.132-0.294-0.294-0.294v0c-0.893-0.002-1.616-0.725-1.618-1.617v-6.491c0.002-0.782 0.636-1.415 1.418-1.415 0 0 0 0 0 0h8.838c2.665 0 4.185-2.832 4.929-4.85v2.462c0 1.394 1.938 2.732 2.771 3.235 0.142 0.089 0.315 0.141 0.5 0.141s0.358-0.053 0.504-0.144l-0.004 0.002c0.112-0.068 0.241-0.15 0.382-0.244zM24.306 4.191c-0.815-0.037-1.584-0.142-2.329-0.311l0.088 0.017c-0.017-0.003-0.036-0.005-0.056-0.005-0.162 0-0.294 0.132-0.294 0.294 0 0.002 0 0.004 0 0.006v-0 4.485c0 0.882-1.288 2.003-2.491 2.741-0.056 0.033-0.123 0.053-0.194 0.053s-0.139-0.020-0.196-0.054l0.002 0.001c-1.203-0.738-2.488-1.844-2.488-2.741v-4.485s0-0.018 0-0.026c-0.003-0.026-0.010-0.050-0.018-0.073l0.001 0.002c-0.005-0.017-0.011-0.032-0.018-0.046l0.001 0.002c-0.014-0.023-0.029-0.044-0.047-0.062l0 0s0-0.018-0.021-0.024v0l-0.035-0.021-0.065-0.029h-0.129c-0.655 0.15-1.423 0.256-2.208 0.293l-0.030 0.001c-0.294-0.015-0.568-0.124-0.568-1.212-0.002-0.018-0.003-0.038-0.003-0.059 0-0.184 0.094-0.345 0.237-0.44l0.002-0.001c0.168-0.082 0.853-0.241 2.647 1.135 0.049 0.038 0.111 0.062 0.179 0.062h5.588c0.068-0 0.13-0.023 0.18-0.062l-0.001 0c1.782-1.376 2.468-1.218 2.647-1.135 0.146 0.094 0.242 0.256 0.242 0.44 0 0.021-0.001 0.042-0.004 0.063l0-0.002c-0.032 1.071-0.315 1.179-0.603 1.194z"></path>
<path d="M21.153 6.471l-0.921 0.921c-0.053 0.053-0.085 0.126-0.085 0.207 0 0.163 0.132 0.294 0.294 0.294 0.082 0 0.156-0.033 0.209-0.087l0.918-0.918c0.054-0.053 0.087-0.127 0.087-0.209s-0.033-0.156-0.087-0.209l-0-0c-0.053-0.053-0.126-0.086-0.207-0.086s-0.154 0.033-0.207 0.086v0z"></path>
</svg>
<svg id="i-4" width="24" height="30" viewBox="0 0 26 32" x="170" y="0">
<path d="M23.862 3.633c0.29-1.517 0.191-3.33-0.087-3.553-0.052-0.040-0.118-0.065-0.19-0.065-0.043 0-0.085 0.009-0.122 0.025l0.002-0.001c-0.117 0.064-0.194 0.186-0.194 0.326 0 0.007 0 0.013 0 0.019l-0-0.001c0 0.182-0.252 0.799-0.869 1.975-0.452-0.35-1.28-0.333-1.448-0.327s-0.984-0.023-1.448 0.327c-0.631-1.178-0.869-1.792-0.869-1.975 0-0.005 0-0.010 0-0.015 0-0.141-0.078-0.264-0.192-0.328l-0.002-0.001c-0.035-0.015-0.077-0.024-0.12-0.024-0.072 0-0.138 0.024-0.191 0.065l0.001-0.001c-0.29 0.223-0.368 2.027-0.084 3.553-0.201 0.515-0.323 1.11-0.333 1.733l-0 0.004c0.008 0.226 0.065 0.437 0.16 0.625l-0.004-0.009c-0.29 1.063-1.303 3.718-4.494 3.718-0.579 0-1.173 0-1.807-0.032-2.95-0.078-6.292-0.168-7.899 1.398-0.425 0.415-0.732 0.949-0.865 1.549l-0.004 0.021c-0.052-0.053-0.125-0.086-0.206-0.086-0.011 0-0.022 0.001-0.033 0.002l0.001-0c-0.026 0-2.565 0.414-2.565 4.053v8.741c0 0 0 0.001 0 0.002 0 0.081 0.033 0.154 0.087 0.207l0 0c0.052 0.050 0.123 0.081 0.201 0.081 0.001 0 0.001 0 0.002 0h0.009c0.029 0 2.985-0.087 2.985-3.136 0-0.663 0-1.286-0.020-1.862-0.013-0.309-0.021-0.672-0.021-1.036 0-0.718 0.030-1.428 0.088-2.131l-0.006 0.092c0.142 0.405 0.29 0.761 0.434 1.092 0.342 0.808 0.637 1.503 0.637 2.493v8.541c0 0.16 0.13 0.29 0.29 0.29v0h1.639c0.16 0 0.29-0.13 0.29-0.29v0-7.192c0.008-0.304 0.139-0.576 0.344-0.77l0.001-0 1.925-1.925c0.307-0.309 0.733-0.501 1.204-0.501 0.001 0 0.003 0 0.004 0h6.63v10.389c0 0.16 0.13 0.29 0.29 0.29v0h1.239c0.16 0 0.29-0.13 0.29-0.29v0-10.423c1.39-0.153 2.461-1.32 2.461-2.738 0-0.004 0-0.009-0-0.013v0.001-6.144h0.622c0.44-0.002 0.796-0.359 0.796-0.799 0-0.002 0-0.004-0-0.006v0-0.663c0-0.53 0.484-1.204 0.912-1.801s0.869-1.199 0.869-1.737c-0.013-0.628-0.137-1.223-0.354-1.772l0.012 0.035zM2.694 20.652c0 0.579 0.020 1.193 0.020 1.853 0 1.975-1.477 2.412-2.122 2.528v-8.414c0-3.112 1.983-3.474 2.070-3.474 0.030-0.007 0.056-0.017 0.080-0.030l-0.002 0.001c-0.014 0.151-0.026 0.304-0.026 0.466-0 0.025-0 0.055-0 0.084 0 0.966 0.106 1.907 0.306 2.813l-0.016-0.086c-0.362 1.022-0.342 2.444-0.31 4.259zM20.426 16.52c0 1.199-0.972 2.172-2.172 2.172v0c-0.16 0-0.29 0.13-0.29 0.29v0 10.423h-0.675v-10.397c0-0.16-0.13-0.29-0.29-0.29v0h-6.92c-0.002 0-0.003 0-0.005 0-0.629 0-1.199 0.256-1.61 0.669l-1.928 1.928c-0.304 0.303-0.492 0.721-0.492 1.184 0 0.001 0 0.002 0 0.003v-0 6.902h-1.060v-8.252c0-1.109-0.333-1.891-0.683-2.719-0.639-1.339-1.011-2.909-1.011-4.567 0-0.101 0.001-0.202 0.004-0.303l-0 0.015c-0.003-0.049-0.005-0.106-0.005-0.164 0-0.745 0.297-1.421 0.779-1.915l-0.001 0.001c1.433-1.398 4.633-1.312 7.479-1.236 0.64 0.017 1.245 0.032 1.824 0.032 3.095 0 4.384-2.276 4.882-3.637 0.098 0.148 0.206 0.29 0.316 0.449 0.429 0.596 0.912 1.271 0.912 1.801v0.663c-0 0.003-0 0.006-0 0.009 0 0.44 0.356 0.796 0.796 0.796 0.002 0 0.004 0 0.006-0h0.139zM23.547 5.518c-0.041-0.114-0.148-0.194-0.273-0.194-0.035 0-0.068 0.006-0.099 0.018l0.002-0.001-1.375 0.484c-0.114 0.041-0.194 0.148-0.194 0.273 0 0.035 0.006 0.068 0.018 0.099l-0.001-0.002c0.041 0.112 0.148 0.191 0.272 0.191v0c0.003 0 0.006 0 0.009 0 0.031 0 0.061-0.005 0.088-0.015l-0.002 0.001 1.375-0.484c0.051-0.015 0.094-0.043 0.127-0.081l0-0c-0.203 0.374-0.412 0.694-0.644 0.996l0.013-0.017c-0.501 0.698-1.019 1.422-1.019 2.137v0.649c-0.002 0.119-0.098 0.216-0.217 0.217h-1.346c-0.119-0.002-0.216-0.098-0.217-0.217v-0.663c0-0.715-0.518-1.448-1.019-2.137-0.19-0.245-0.381-0.523-0.557-0.811l-0.022-0.040c0.004-0.022 0.009-0.042 0.015-0.060l-0.001 0.002c0.013 0.010 0.027 0.018 0.042 0.025l0.001 0.001 1.396 0.498c0.027 0.009 0.058 0.015 0.091 0.015 0.002 0 0.004-0 0.005-0h-0c0.159-0.002 0.286-0.131 0.286-0.29 0-0.124-0.079-0.231-0.189-0.272l-0.002-0.001-1.375-0.484c-0.027-0.009-0.059-0.015-0.091-0.015-0.077 0-0.147 0.030-0.198 0.079l0-0c-0.039-0.039-0.090-0.066-0.146-0.075l-0.002-0c0.016-0.567 0.132-1.102 0.33-1.595l-0.011 0.031c0.015-0.033 0.023-0.072 0.023-0.113 0-0.020-0.002-0.040-0.006-0.059l0 0.002c-0.113-0.565-0.178-1.214-0.178-1.878 0-0.066 0.001-0.131 0.002-0.196l-0 0.010q0.232 0.492 0.579 1.158c0.074 0.139 0.207 0.238 0.365 0.263l0.003 0c0.027 0.005 0.058 0.008 0.089 0.008 0.137 0 0.263-0.052 0.357-0.138l-0 0c0.206-0.188 0.77-0.235 1.080-0.22h0.029c0.263 0 0.869 0.023 1.083 0.22 0.093 0.086 0.218 0.138 0.355 0.138 0.032 0 0.064-0.003 0.094-0.008l-0.003 0c0.16-0.027 0.293-0.125 0.366-0.261l0.001-0.003c0.24-0.446 0.437-0.831 0.579-1.158 0.001 0.051 0.001 0.112 0.001 0.172 0 0.67-0.066 1.325-0.192 1.959l0.011-0.064c-0.003 0.016-0.005 0.034-0.005 0.053 0 0.043 0.009 0.083 0.026 0.12l-0.001-0.002c0.192 0.475 0.308 1.026 0.318 1.603l0 0.004c-0.005 0.095-0.026 0.184-0.060 0.266l0.002-0.005c0.010-0.026 0.016-0.056 0.016-0.087 0-0.016-0.002-0.032-0.005-0.047l0 0.002z"></path>
</svg>
<svg id="i-5" width="40" height="30" viewBox="0 0 40 30" x="204" y="0">
<path d="M25.249 6.040c-0.064-0.079-0.16-0.129-0.269-0.129-0.19 0-0.345 0.154-0.345 0.345 0 0.096 0.040 0.183 0.103 0.246l0 0 1.117 1.234c0.063 0.068 0.153 0.11 0.253 0.11 0.001 0 0.002 0 0.002 0h-0c0.089-0 0.17-0.034 0.231-0.090l-0 0c0.070-0.063 0.113-0.154 0.113-0.255 0-0.089-0.034-0.17-0.089-0.231l0 0z"></path>
<path d="M37.318 3.447c-0.088-0.562-0.444-1.025-0.931-1.261l-0.010-0.004c-1.321-0.617-3.572 0.345-4.534 0.81-0.224-0.655-0.835-1.117-1.553-1.117-0.002 0-0.004 0-0.006 0h-4.827c-0.001 0-0.001 0-0.002 0-0.718 0-1.328 0.462-1.55 1.106l-0.003 0.012c-0.945-0.469-3.2-1.431-4.514-0.81-0.15 0.076-0.28 0.167-0.394 0.273l0.001-0.001h-12.796c-2.103 0-3.707 4.010-3.707 6.017v7.455c0 1.955 1.496 4.914 3.396 5.193 0.117 0.81 0.538 2.348 1.259 2.734v3.927c0 0.19 0.154 0.345 0.345 0.345v0h1.855c0.19 0 0.345-0.154 0.345-0.345v0-3.865c0.762-0.317 1.272-1.631 1.379-2.472h8.906c0.107 0.803 0.545 2.196 1.266 2.548v3.793c0 0.19 0.154 0.345 0.345 0.345v0h2.024c0.19 0 0.345-0.154 0.345-0.345v0-3.924c1.141-0.565 1.8-3.824 1.921-5.062 1.759-0.171 3.123-1.642 3.124-3.431v-2.414c0.458-0.16 0.849-0.412 1.169-0.734l0-0c1.824-1.896 1.976-6.169 1.976-7.475 0.694 0.084 1.295 0.191 1.884 0.33l-0.115-0.023c1.341 0.279 2.5 0.524 3.103-0.072 0.334-0.324 0.427-0.824 0.3-1.531zM28.311 15.367c0 1.524-1.235 2.759-2.759 2.759v0c-0.19 0-0.345 0.154-0.345 0.345v0c0 1.334-0.993 4.782-1.596 4.782-0.19 0-0.345 0.154-0.345 0.345v0 3.838h-1.334v-3.707c0-0.19-0.154-0.345-0.345-0.345v0c-0.345 0-0.948-1.476-0.948-2.286 0-0.19-0.154-0.345-0.345-0.345v0h-9.527c-0.19 0-0.345 0.154-0.345 0.345v0c0 0.776-0.634 2.2-1.076 2.2-0.19 0-0.345 0.154-0.345 0.345v0 3.793h-1.166v-3.838c0-0.19-0.154-0.345-0.345-0.345v0c-0.317 0-0.948-1.669-0.948-2.514 0-0.19-0.154-0.345-0.345-0.345v0c-0.063 0.001-0.123 0.017-0.174 0.046l0.002-0.001c-1.534-0.19-2.845-2.869-2.845-4.514v-7.455c0-1.724 1.428-5.327 3.017-5.327h12.337c-0.034 0.084-0.065 0.186-0.087 0.291l-0.002 0.013c-0.138 0.707-0.045 1.207 0.286 1.531 0.603 0.596 1.762 0.345 3.103 0.072 0.476-0.116 1.077-0.224 1.688-0.299l0.080-0.008c0 1.307 0.152 5.579 1.979 7.462 0.524 0.567 1.273 0.921 2.103 0.921 0.006 0 0.012-0 0.019-0h0.344c0.090 0 0.176 0 0.262 0zM36.538 4.488c-0.345 0.345-1.428 0.107-2.479-0.114-0.648-0.162-1.416-0.284-2.202-0.342l-0.047-0.003c-0.004-0-0.008-0-0.012-0-0.095 0-0.181 0.038-0.243 0.1l0-0c-0.064 0.063-0.104 0.15-0.104 0.246 0 0.003 0 0.006 0 0.009v-0.001c0 0.055 0.141 5.362-1.779 7.341-0.399 0.437-0.971 0.71-1.607 0.71-0.006 0-0.012-0-0.018-0h-0.344c-0.004 0-0.009 0-0.015 0-0.638 0-1.212-0.273-1.611-0.709l-0.001-0.002c-1.921-1.979-1.779-7.286-1.779-7.341 0.001-0.009 0.001-0.019 0.001-0.030 0-0.086-0.032-0.165-0.084-0.226l0 0c-0.062-0.062-0.148-0.1-0.243-0.1-0.001 0-0.001 0-0.002 0h0c-0.831 0.061-1.597 0.183-2.341 0.365l0.096-0.020c-1.055 0.221-2.141 0.448-2.483 0.114-0.2-0.2-0.179-0.596-0.121-0.91 0.045-0.34 0.253-0.623 0.542-0.77l0.006-0.003c1.097-0.517 3.51 0.552 4.334 1.010 0.042 0.020 0.091 0.031 0.143 0.031 0.076 0 0.146-0.025 0.203-0.066l-0.001 0.001c0.103-0.070 0.172-0.185 0.176-0.317l0-0.001c0.026-0.502 0.439-0.899 0.945-0.9h4.827c0.002-0 0.005-0 0.008-0 0.506 0 0.919 0.398 0.944 0.898l0 0.002h0.314l-0.314 0.066c0.003 0.124 0.071 0.231 0.171 0.289l0.002 0.001c0.049 0.029 0.109 0.046 0.172 0.046s0.123-0.017 0.174-0.047l-0.002 0.001c0.814-0.462 3.214-1.531 4.317-1.014 0.296 0.148 0.504 0.432 0.544 0.768l0.001 0.005c0.066 0.314 0.097 0.71-0.090 0.91z"></path>
<path d="M30.508 6.040l-1.121 1.228c-0.055 0.061-0.089 0.142-0.089 0.231 0 0.101 0.043 0.192 0.113 0.255l0 0c0.061 0.055 0.142 0.089 0.231 0.090h0c0.001 0 0.001 0 0.002 0 0.1 0 0.19-0.042 0.253-0.11l0-0 1.121-1.231c0.057-0.061 0.092-0.144 0.092-0.235 0-0.101-0.043-0.192-0.112-0.255l-0-0c-0.061-0.055-0.142-0.089-0.231-0.089-0.103 0-0.195 0.045-0.258 0.116l-0 0z"></path>
</svg>
<svg id="i-6" width="30" height="30" viewBox="0 0 30 30" x="272" y="0">
<path d="M27.383 2.886c-0.001-0.039-0.009-0.075-0.023-0.109l0.001 0.002c-0.008-0.013-0.016-0.024-0.025-0.035l0 0c-0.016-0.026-0.035-0.049-0.056-0.069l-0-0c0.001-0.002 0.001-0.005 0.001-0.008s-0-0.006-0.001-0.008l0 0s-0.019 0-0.025 0c-0.022-0.015-0.047-0.026-0.073-0.034l-0.002-0.001h-0.053l-0.056-0.031-14.53-0.251-9.99 1.664c-0.023 0.006-0.042 0.014-0.060 0.026l0.001-0.001c-0.018 0.008-0.034 0.019-0.047 0.031l0-0c-0.017 0.011-0.031 0.025-0.044 0.040l-0 0c-0.014 0.014-0.025 0.031-0.034 0.049l-0.001 0.001c-0.011 0.020-0.019 0.043-0.025 0.067l-0 0.002c-0.001 0.009-0.001 0.019-0.001 0.030s0 0.021 0.001 0.031l-0-0.001s0 0.025 0 0.038v22.083c0 0.173 0.14 0.313 0.313 0.313v0l18.953 0.94c0.037-0.001 0.073-0.009 0.105-0.023l-0.002 0.001h0.031c0.014-0.006 0.027-0.012 0.039-0.019l-0.001 0.001 5.482-3.603c0.075-0.058 0.123-0.148 0.123-0.249 0-0.008-0-0.017-0.001-0.025l0 0.001v-20.833c0.001-0.003 0.001-0.007 0.001-0.011s-0-0.008-0.001-0.011l0 0zM12.615 2.97l12.133 0.21-3.202 0.824h-15.128zM2.947 4.631h18.327v22.383l-18.327-0.909zM26.756 23.571l-4.856 3.208v-22.22l4.856-1.253z"></path>
<path d="M12.111 11.156c-2.192 0-3.969 1.777-3.969 3.969s1.777 3.969 3.969 3.969c2.192 0 3.969-1.777 3.969-3.969v0c-0.004-2.191-1.779-3.966-3.969-3.969h-0zM12.111 18.468c-1.846 0-3.343-1.497-3.343-3.343s1.497-3.343 3.343-3.343c1.846 0 3.343 1.497 3.343 3.343v0c-0.004 1.845-1.498 3.339-3.342 3.343h-0z"></path>
</svg>
<svg id="i-a1" width="34" height="30" viewBox="0 0 34 30" x="306" y="0">
<path fill="#a67b50" d="M33.485 4.903c-0.664-0.627-2.353-0.664-3.080-0.641-0.103-0.996-0.405-3.475-0.906-4.133-0.061-0.085-0.16-0.14-0.271-0.14-0.030 0-0.059 0.004-0.086 0.011l0.002-0.001c-0.128 0.037-0.223 0.147-0.239 0.281l-0 0.002-0.382 3.495h-5.288l-0.388-3.482c-0.011-0.142-0.109-0.258-0.24-0.295l-0.002-0.001c-0.028-0.008-0.060-0.013-0.092-0.013-0.112 0-0.212 0.056-0.272 0.142l-0.001 0.001c-0.501 0.664-0.803 3.137-0.906 4.133-0.727-0.017-2.413 0-3.080 0.641-0.199 0.171-0.326 0.42-0.332 0.699l-0 0.001c0.007 0.567 0.367 1.047 0.87 1.232l0.009 0.003c0.734 0.332 1.766 0.246 2.211-0.163 0.22-0.186 0.493-0.317 0.794-0.367l0.010-0.001c0.046 0.332 0.123 0.85 0.229 1.404h-17.065c-2.75 0-4.979 2.229-4.979 4.979v0 16.763c0 0.183 0.149 0.332 0.332 0.332v0h2.38c0.183 0 0.332-0.149 0.332-0.332v0-7.545c0.692 0.595 1.599 0.957 2.59 0.957 1.761 0 3.256-1.143 3.781-2.728l0.008-0.028h10.768v9.56c0 0.183 0.149 0.332 0.332 0.332v0h1.826c0.183 0 0.332-0.149 0.332-0.332v0-9.609c1.474-0.216 3.817-1.155 3.817-3.502-0.042-0.862-0.223-1.669-0.522-2.417l0.018 0.050h0.432c0.296 0.002 0.586 0.026 0.869 0.071l-0.032-0.004c0.030 0.002 0.065 0.004 0.1 0.004s0.070-0.001 0.104-0.004l-0.005 0c0.008 0 0.018 0 0.028 0 0.242 0 0.465-0.087 0.637-0.231l-0.002 0.001c0.248-0.238 0.403-0.572 0.403-0.943 0-0.019-0-0.037-0.001-0.056l0 0.003 0.020-0.418c0.027-1.059 0.050-1.899 0.478-2.592 0.471-0.76 0.8-2.861 0.919-3.708 0.3 0.059 0.562 0.191 0.775 0.377l-0.002-0.002c0.441 0.408 1.474 0.485 2.211 0.163 0.511-0.189 0.87-0.669 0.876-1.234v-0.001c0-0.002 0-0.004 0-0.006 0-0.281-0.123-0.534-0.318-0.707l-0.001-0.001zM5.643 22.186c-0.001 0-0.003 0-0.005 0-0.853 0-1.632-0.32-2.223-0.846l0.003 0.003 3.392-3.439c0.349 1.032 0.946 2.098 1.915 2.184-0.505 1.234-1.693 2.090-3.083 2.098h-0.001zM32.655 6.23c-0.561 0.246-1.295 0.143-1.494-0.043-0.406-0.348-0.933-0.566-1.51-0.584l-0.004-0c-0.001 0-0.002 0-0.003 0-0.168 0-0.307 0.125-0.329 0.287l-0 0.002c-0.037 0.285-0.1 0.74-0.186 1.241-0.040-0.018-0.087-0.029-0.136-0.029s-0.096 0.011-0.138 0.030l0.002-0.001-1.534 0.607c-0.124 0.050-0.209 0.169-0.209 0.309 0 0.183 0.149 0.332 0.332 0.332 0.044 0 0.086-0.009 0.125-0.024l-0.002 0.001 1.441-0.571c-0.107 0.704-0.303 1.339-0.579 1.928l0.018-0.043c-0.524 0.846-0.548 1.809-0.578 2.924v0.435c0.001 0.016 0.002 0.035 0.002 0.054 0 0.176-0.064 0.337-0.169 0.461l0.001-0.001c-0.071 0.046-0.158 0.074-0.251 0.074-0.029 0-0.057-0.003-0.084-0.008l0.003 0c-0.277-0.045-0.598-0.071-0.924-0.073h-0.892c-0.322 0.004-0.635 0.028-0.942 0.071l0.039-0.004c-0.050 0.011-0.108 0.017-0.168 0.017-0.161 0-0.312-0.046-0.44-0.125l0.004 0.002c-0.097-0.108-0.157-0.251-0.157-0.409 0-0.026 0.002-0.051 0.005-0.075l-0 0.003v-0.435c-0.027-1.115-0.053-2.078-0.578-2.924-0.255-0.546-0.45-1.18-0.556-1.844l-0.005-0.041 1.444 0.571c0.036 0.015 0.078 0.023 0.122 0.023 0 0 0.001 0 0.001 0h-0c0 0 0.001 0 0.001 0 0.183 0 0.332-0.149 0.332-0.332 0-0.139-0.086-0.259-0.208-0.308l-0.002-0.001-1.547-0.607c-0.040-0.018-0.086-0.028-0.134-0.028s-0.095 0.010-0.137 0.029l0.002-0.001c-0.086-0.501-0.153-0.956-0.186-1.241-0.022-0.164-0.161-0.289-0.329-0.289-0.001 0-0.002 0-0.003 0h0c-0.591 0.016-1.127 0.239-1.54 0.6l0.003-0.002c-0.202 0.186-0.933 0.289-1.494 0.043-0.277-0.081-0.476-0.33-0.481-0.627v-0.001c0.001-0.087 0.042-0.165 0.106-0.215l0.001-0c0.455-0.428 2.021-0.505 2.904-0.451 0 0 0.001 0 0.002 0 0.172 0 0.313-0.13 0.33-0.297l0-0.001c0.073-0.77 0.212-1.852 0.382-2.722l0.246 2.231c0.019 0.167 0.159 0.295 0.33 0.295 0.001 0 0.001 0 0.002 0h5.912c0.001 0 0.001 0 0.002 0 0.17 0 0.311-0.128 0.33-0.294l0-0.002 0.242-2.231c0.173 0.87 0.312 1.952 0.382 2.722 0.017 0.169 0.158 0.299 0.33 0.299 0.008 0 0.015-0 0.023-0.001l-0.001 0c0.88-0.053 2.446 0.023 2.904 0.451 0.063 0.050 0.103 0.127 0.103 0.213 0 0.001 0 0.002 0 0.003v-0c-0.005 0.296-0.203 0.545-0.473 0.626l-0.005 0.001z"></path>
</svg>
<svg id="i-a2" width="38" height="30" viewBox="0 0 42 32" x="374" y="0">
<path fill="#75563b" d="M37.181 2.155c-0.704-0.682-2.509-0.744-3.43-0.722-0.404-0.557-0.993-0.958-1.676-1.113l-0.019-0.004-1.105-0.158c-0.67-0.1-1.443-0.158-2.229-0.158s-1.559 0.057-2.315 0.168l0.086-0.010-1.124 0.162c-0.155 0.041-1.326 0.368-1.636 1.105-0.785-0.026-2.704 0-3.456 0.711-0.22 0.188-0.361 0.464-0.368 0.773l-0 0.001c0.007 0.629 0.407 1.162 0.966 1.367l0.010 0.003c0.814 0.368 1.96 0.273 2.454-0.177 0.239-0.21 0.537-0.359 0.866-0.418l0.011-0.002c0.052 0.368 0.136 0.94 0.254 1.555h-18.943c-3.052 0-5.527 2.474-5.527 5.527v0 18.607c0 0.203 0.165 0.368 0.368 0.368v0h2.642c0.203 0 0.368-0.165 0.368-0.368v0-8.371c0.768 0.66 1.775 1.063 2.875 1.063 1.955 0 3.614-1.269 4.198-3.028l0.009-0.031h11.953v10.626c0 0.203 0.165 0.368 0.368 0.368v0h2.027c0.203 0 0.368-0.165 0.368-0.368v0-10.663c1.636-0.24 4.237-1.286 4.237-3.891-0.043-0.954-0.243-1.85-0.576-2.678l0.019 0.055h0.475c0.33 0.002 0.651 0.028 0.966 0.075l-0.037-0.005c0.033 0.003 0.072 0.004 0.111 0.004s0.077-0.001 0.116-0.004l-0.005 0c0.008 0 0.017 0 0.027 0 0.27 0 0.518-0.095 0.712-0.253l-0.002 0.002c0.276-0.268 0.447-0.643 0.447-1.057 0-0.017-0-0.034-0.001-0.051l0 0.002 0.022-0.483c0.029-1.175 0.055-2.104 0.531-2.874 0.523-0.847 0.888-3.18 1.021-4.116 0.333 0.064 0.624 0.21 0.861 0.418l-0.002-0.002c0.49 0.45 1.636 0.534 2.454 0.177 0.567-0.209 0.966-0.743 0.973-1.37v-0.001c-0.002-0.303-0.134-0.574-0.342-0.762l-0.001-0.001zM6.264 21.326c-0.943-0.001-1.804-0.354-2.458-0.936l0.004 0.003 3.751-3.814c0.387 1.142 1.050 2.325 2.122 2.421-0.555 1.372-1.876 2.323-3.419 2.325h-0zM24.797 6.691c0 0.018 0 0.033 0 0.048s0.004-0.029 0-0.048zM24.536 5.586v0.055zM24.613 5.954c-0.001 0.009-0.001 0.020-0.001 0.031s0 0.022 0.001 0.033l-0-0.001c-0.001-0.010-0.002-0.023-0.002-0.035s0.001-0.025 0.002-0.037l-0 0.002zM24.702 6.323v0.026zM25.125 7.601l-0.033-0.074zM25.022 7.369c-0.013-0.025-0.025-0.056-0.035-0.087l-0.001-0.005c0.012 0.036 0.024 0.067 0.039 0.096l-0.002-0.004zM24.919 7.089c0-0.033-0.022-0.063-0.029-0.092 0.007 0.026 0.018 0.055 0.029 0.088zM36.249 3.615c-0.623 0.273-1.437 0.162-1.658-0.044-0.45-0.389-1.035-0.632-1.676-0.652l-0.004-0c-0.001 0-0.002 0-0.003 0-0.188 0-0.343 0.141-0.366 0.322l-0 0.002c-0.041 0.313-0.111 0.818-0.206 1.378-0.044-0.020-0.096-0.032-0.151-0.032s-0.107 0.012-0.153 0.033l0.002-0.001-1.702 0.678c-0.133 0.058-0.224 0.188-0.224 0.339 0 0.201 0.161 0.364 0.36 0.368h0c0 0 0.001 0 0.001 0 0.049 0 0.095-0.009 0.138-0.027l-0.002 0.001 1.599-0.634c-0.118 0.782-0.336 1.486-0.643 2.14l0.020-0.047c-0.578 0.925-0.604 1.993-0.63 3.246v0.483c0.001 0.018 0.002 0.039 0.002 0.060 0 0.196-0.070 0.376-0.188 0.516l0.001-0.001c-0.078 0.049-0.172 0.079-0.274 0.079-0.033 0-0.066-0.003-0.098-0.009l0.003 0.001c-0.307-0.047-0.663-0.075-1.025-0.077l-0.003-0h-0.999c-0.356 0.002-0.703 0.029-1.043 0.079l0.041-0.005c-0.054 0.011-0.117 0.018-0.181 0.018-0.181 0-0.35-0.052-0.493-0.142l0.004 0.002c-0.108-0.12-0.175-0.279-0.175-0.454 0-0.030 0.002-0.059 0.006-0.087l-0 0.003v-0.483c-0.029-1.234-0.059-2.303-0.641-3.246-0.283-0.606-0.5-1.31-0.617-2.048l-0.006-0.045 1.603 0.634c0.040 0.016 0.087 0.026 0.135 0.026 0 0 0.001 0 0.001 0h-0c0.2-0.004 0.361-0.168 0.361-0.368 0-0.151-0.091-0.281-0.222-0.338l-0.002-0.001-1.717-0.678c-0.044-0.020-0.095-0.032-0.149-0.032s-0.105 0.012-0.152 0.033l0.002-0.001c-0.096-0.56-0.169-1.065-0.206-1.378-0.023-0.184-0.178-0.324-0.366-0.324-0.001 0-0.002 0-0.003 0h0c-0.657 0.019-1.252 0.269-1.709 0.673l0.003-0.003c-0.225 0.206-1.035 0.317-1.658 0.044-0.307-0.090-0.529-0.367-0.534-0.696v-0.001c0.002-0.096 0.047-0.18 0.117-0.235l0.001-0c0.505-0.479 2.244-0.56 3.224-0.501 0.007 0 0.014 0.001 0.022 0.001 0.203 0 0.368-0.165 0.368-0.368 0-0 0-0 0-0.001v0c0-0.368 0.788-0.685 1.105-0.766l1.105-0.158c0.638-0.097 1.375-0.152 2.124-0.152s1.486 0.055 2.206 0.162l-0.081-0.010 1.076 0.155c0.558 0.143 1.020 0.484 1.318 0.942l0.005 0.009c0.060 0.109 0.174 0.182 0.305 0.182 0.009 0 0.019-0 0.028-0.001l-0.001 0c1.139-0.041 2.631 0.066 3.091 0.512 0.068 0.054 0.111 0.137 0.111 0.23 0 0.001 0 0.001 0 0.002v-0c-0.005 0.328-0.223 0.604-0.522 0.695l-0.005 0.001z"></path>
</svg>
<svg id="i-a3" width="27" height="30" viewBox="0 0 27 30" x="442" y="0">
<path fill="#a67b50" d="M17.976 4.976c-0.057-0.057-0.135-0.092-0.222-0.092s-0.165 0.035-0.222 0.092l0-0c-0.058 0.057-0.093 0.136-0.093 0.224s0.036 0.167 0.093 0.224l0.983 0.983c0.057 0.057 0.136 0.093 0.224 0.093 0.174 0 0.315-0.141 0.315-0.315 0-0.087-0.035-0.165-0.092-0.222l0 0z"></path>
<path fill="#a67b50" d="M22.492 4.976l-0.986 0.986c-0.057 0.057-0.091 0.135-0.091 0.222 0 0.174 0.141 0.315 0.315 0.315 0.087 0 0.166-0.036 0.224-0.093l0.983-0.983c0.058-0.057 0.093-0.136 0.093-0.224s-0.036-0.167-0.093-0.224l-0-0c-0.057-0.057-0.135-0.092-0.222-0.092s-0.165 0.035-0.222 0.092l0-0z"></path>
<path fill="#a67b50" d="M26.517 0.126c-0.727-0.356-1.868 0.050-3.398 1.216h-1.628c-0.002-0.011-0.003-0.023-0.003-0.036 0-0.038 0.011-0.073 0.029-0.103l-0 0.001c0.054-0.091 0.315-0.381 1.575-0.403 0.174 0 0.315-0.141 0.315-0.315v0c0-0.174-0.141-0.315-0.315-0.315v0 0c-1.131 0.019-1.814 0.252-2.088 0.709-0.074 0.119-0.118 0.264-0.118 0.419 0 0.016 0 0.031 0.001 0.046l-0-0.002h-1.26c0.001-0.013 0.001-0.029 0.001-0.044 0-0.155-0.044-0.299-0.12-0.422l0.002 0.003c-0.299-0.457-0.973-0.69-2.104-0.709v0c-0.174 0-0.315 0.141-0.315 0.315v0c0 0.174 0.141 0.315 0.315 0.315v0c1.222 0.022 1.499 0.315 1.556 0.397 0.020 0.030 0.032 0.068 0.032 0.108 0 0.013-0.001 0.026-0.004 0.038l0-0.001h-1.641c-1.527-1.165-2.671-1.575-3.398-1.216-0.364 0.199-0.608 0.58-0.608 1.017 0 0.029 0.001 0.057 0.003 0.085l-0-0.004c0 0.554 0 1.861 1.2 1.927 0.785-0.019 1.538-0.109 2.266-0.263l-0.081 0.014v0.224c-0.476 1.71-2.047 6.299-5.278 6.299h-9.448c-0.005-0-0.010-0-0.016-0-1.093 0-1.98 0.88-1.99 1.971v6.951c0 0.002 0 0.004 0 0.006 0 1.162 0.899 2.114 2.040 2.198l0.007 0v9.448h2.126v-7.64h0.079c0.944-0.001 1.719-0.724 1.804-1.646l0.001-0.007h8.982v9.29h2.126v-9.29c2.497-0.089 4.488-2.135 4.488-4.645v-5.823h-0.047c0.961-0.702 2.135-1.792 2.135-2.913v-4.409c0.647 0.14 1.398 0.229 2.167 0.248l0.015 0c1.203-0.066 1.203-1.373 1.203-1.927 0.002-0.027 0.004-0.059 0.004-0.090 0-0.44-0.245-0.822-0.605-1.018l-0.006-0.003zM20.785 10.796c0.057-0.031 0.117-0.069 0.18-0.11-0.079 0.041-0.139 0.079-0.18 0.11zM25.884 2.519c-0.878-0.045-1.701-0.157-2.5-0.333l0.1 0.018c-0.018-0.004-0.039-0.006-0.060-0.006-0.174 0-0.315 0.141-0.315 0.315 0 0.002 0 0.004 0 0.006v-0 4.806c0 0.945-1.379 2.145-2.667 2.935-0.059 0.036-0.131 0.057-0.208 0.057s-0.148-0.021-0.21-0.058l0.002 0.001c-1.288-0.79-2.664-1.975-2.664-2.935v-4.806c0-0.174-0.141-0.315-0.315-0.315v0h-0.063c-0.701 0.159-1.524 0.272-2.365 0.314l-0.034 0.001c-0.315 0-0.608-0.132-0.608-1.297-0.002-0.019-0.004-0.041-0.004-0.063 0-0.197 0.101-0.37 0.253-0.471l0.002-0.001c0.18-0.088 0.913-0.258 2.834 1.216 0.053 0.041 0.119 0.066 0.192 0.066h5.984c0.073-0 0.14-0.025 0.193-0.067l-0.001 0.001c1.908-1.474 2.642-1.304 2.834-1.216 0.157 0.1 0.259 0.274 0.259 0.471 0 0.023-0.001 0.045-0.004 0.067l0-0.003c-0.025 1.168-0.328 1.297-0.636 1.297z"></path>
</svg>
<svg id="i-a4" width="24" height="30" viewBox="0 0 26 32" x="476" y="0">
<path fill="#714e38" d="M23.875 3.62c0.29-1.519 0.191-3.333-0.087-3.557-0.052-0.040-0.118-0.065-0.19-0.065-0.043 0-0.085 0.009-0.122 0.025l0.002-0.001c-0.117 0.064-0.195 0.186-0.195 0.326 0 0.007 0 0.013 0 0.019l-0-0.001c0 0.183-0.252 0.8-0.87 1.977-0.452-0.351-1.281-0.333-1.449-0.328s-0.986-0.023-1.449 0.328c-0.632-1.18-0.87-1.794-0.87-1.977 0-0.005 0-0.010 0-0.015 0-0.141-0.078-0.264-0.193-0.329l-0.002-0.001c-0.035-0.015-0.077-0.024-0.12-0.024-0.072 0-0.138 0.024-0.191 0.065l0.001-0.001c-0.29 0.223-0.368 2.029-0.084 3.557-0.202 0.515-0.323 1.112-0.333 1.735l-0 0.004c0.007 0.226 0.064 0.438 0.16 0.626l-0.004-0.008c-0.29 1.064-1.304 3.722-4.499 3.722-0.58 0-1.174 0-1.809-0.032-2.954-0.078-6.299-0.168-7.907 1.4-0.429 0.418-0.737 0.959-0.866 1.565l-0.004 0.020c-0.893 0.261-2.803 1.159-2.803 3.957v8.754c0 0 0 0.001 0 0.002 0 0.081 0.033 0.154 0.087 0.207l0 0c0.052 0.050 0.123 0.081 0.201 0.081 0.001 0 0.001 0 0.002 0h0.006c0.029 0 2.988-0.087 2.988-3.139 0-0.664 0-1.287-0.020-1.864-0.013-0.31-0.021-0.673-0.021-1.037 0-0.718 0.030-1.43 0.088-2.133l-0.006 0.092c0.142 0.406 0.29 0.762 0.435 1.093 0.342 0.809 0.638 1.504 0.638 2.496v8.551c0 0.16 0.13 0.29 0.29 0.29v0h1.641c0.16 0 0.29-0.13 0.29-0.29v0-7.2c0.010-0.304 0.14-0.576 0.344-0.771l0-0 1.928-1.928c0.308-0.31 0.734-0.501 1.205-0.501 0.001 0 0.003 0 0.004 0h6.637v10.4c0 0.16 0.13 0.29 0.29 0.29v0h1.241c0.16 0 0.29-0.13 0.29-0.29v0-10.435c1.391-0.154 2.464-1.324 2.464-2.744 0-0.004 0-0.007-0-0.011v0.001-6.151h0.623c0.441-0.002 0.797-0.359 0.797-0.8 0-0.002 0-0.004-0-0.006v0-0.664c0-0.53 0.484-1.206 0.913-1.803s0.87-1.2 0.87-1.739c-0.013-0.629-0.138-1.224-0.354-1.774l0.012 0.035zM2.684 20.658c0 0.58 0.020 1.194 0.020 1.855 0 1.977-1.478 2.429-2.125 2.53v-8.423c0-2.223 1.33-3.035 2.136-3.325 0 0.093 0 0.186 0 0.29-0 0.025-0 0.055-0 0.085 0 0.967 0.106 1.909 0.306 2.816l-0.016-0.086c-0.374 1.017-0.354 2.441-0.322 4.258zM18.046 6.316l-0.046-0.078zM18.159 6.496l0.055 0.087zM18.342 6.768c0.018 0.029 0.036 0.053 0.056 0.076l-0.001-0.001c-0.015-0.021-0.031-0.046-0.045-0.072l-0.002-0.004zM23.559 5.51c-0.040-0.115-0.148-0.196-0.274-0.196-0.035 0-0.068 0.006-0.099 0.017l0.002-0.001-1.377 0.484c-0.114 0.041-0.194 0.148-0.194 0.273 0 0.035 0.006 0.069 0.018 0.1l-0.001-0.002c0.042 0.112 0.148 0.191 0.272 0.191v0c0.003 0 0.006 0 0.009 0 0.031 0 0.061-0.005 0.089-0.015l-0.002 0.001 1.377-0.484c0.051-0.014 0.095-0.042 0.127-0.081l0-0c-0.202 0.373-0.411 0.693-0.644 0.993l0.012-0.016c-0.501 0.701-1.020 1.426-1.020 2.142v0.649c-0.002 0.119-0.098 0.216-0.217 0.217h-1.348c-0.119-0.002-0.216-0.098-0.217-0.217v-0.664c0-0.716-0.519-1.449-1.023-2.142-0.216-0.279-0.422-0.594-0.604-0.924l-0.019-0.038c0.030 0.044 0.073 0.077 0.123 0.095l0.002 0.001 1.377 0.484c0.027 0.009 0.058 0.015 0.091 0.015 0.002 0 0.004-0 0.005-0h-0c0.159-0.002 0.287-0.131 0.287-0.29 0-0.125-0.079-0.231-0.189-0.272l-0.002-0.001-1.377-0.484c-0.028-0.010-0.060-0.015-0.093-0.015-0.16 0-0.29 0.13-0.29 0.29 0 0.005 0 0.011 0 0.016l-0-0.001c-0.031-0.077-0.051-0.166-0.055-0.259l-0-0.002c0.011-0.581 0.127-1.131 0.33-1.637l-0.011 0.031c0.014-0.033 0.023-0.072 0.023-0.113 0-0.020-0.002-0.039-0.006-0.057l0 0.002c-0.114-0.566-0.179-1.218-0.179-1.884 0-0.065 0.001-0.13 0.002-0.195l-0 0.010q0.232 0.493 0.58 1.159c0.074 0.139 0.207 0.238 0.365 0.263l0.003 0c0.027 0.005 0.058 0.008 0.089 0.008 0.138 0 0.263-0.052 0.357-0.138l-0 0c0.206-0.188 0.771-0.235 1.081-0.22h0.029c0.264 0 0.87 0.026 1.084 0.22 0.093 0.086 0.219 0.138 0.356 0.138 0.032 0 0.063-0.003 0.094-0.008l-0.003 0c0.16-0.027 0.293-0.125 0.367-0.261l0.001-0.003c0.241-0.446 0.438-0.832 0.58-1.159 0.001 0.056 0.002 0.123 0.002 0.19 0 0.666-0.066 1.317-0.192 1.946l0.011-0.063c-0.003 0.016-0.005 0.034-0.005 0.053 0 0.043 0.009 0.083 0.026 0.12l-0.001-0.002c0.193 0.475 0.31 1.026 0.319 1.602l0 0.004c-0.005 0.095-0.026 0.184-0.060 0.266l0.002-0.005c0.010-0.026 0.016-0.056 0.016-0.087 0-0.016-0.002-0.032-0.005-0.047l0 0.002z"></path>
</svg>
<svg id="i-a5" width="40" height="30" viewBox="0 0 40 30" x="510" y="0">
<path fill="#998478" d="M25.275 6.040c-0.064-0.079-0.16-0.129-0.269-0.129-0.19 0-0.345 0.154-0.345 0.345 0 0.096 0.040 0.183 0.103 0.246l0 0 1.121 1.234c0.063 0.068 0.153 0.11 0.253 0.11 0.001 0 0.002 0 0.002 0h-0c0.089-0 0.17-0.034 0.231-0.090l-0 0c0.070-0.063 0.113-0.154 0.113-0.255 0-0.089-0.034-0.17-0.089-0.231l0 0z"></path>
<path fill="#998478" d="M30.541 6.040l-1.121 1.228c-0.056 0.061-0.090 0.143-0.090 0.233 0 0.1 0.043 0.19 0.111 0.253l0 0c0.061 0.055 0.142 0.089 0.231 0.090h0c0.001 0 0.001 0 0.002 0 0.1 0 0.19-0.042 0.253-0.11l0-0 1.121-1.231c0.071-0.063 0.116-0.155 0.116-0.258 0-0.19-0.154-0.345-0.345-0.345-0.114 0-0.214 0.055-0.277 0.139l-0.001 0.001z"></path>
<path fill="#998478" d="M37.34 3.447c-0.087-0.561-0.44-1.024-0.925-1.261l-0.010-0.004c-1.321-0.621-3.569 0.338-4.534 0.81-0.224-0.655-0.835-1.117-1.553-1.117-0.002 0-0.004 0-0.006 0h-4.827c-0.498 0-0.944 0.224-1.243 0.577l-0.002 0.002h-1.559c-1.059-0.386-2.379-0.69-3.276-0.272-0.15 0.076-0.28 0.167-0.394 0.273l0.001-0.001h-12.786c-1.162 0-2.069 0.321-2.686 0.959-1.124 1.159-1.072 3.052-1.031 4.434 0 0.224 0 0.434 0 0.624v7.455c0 1.955 1.496 4.896 3.396 5.172 0.117 0.814 0.538 2.352 1.259 2.738v3.945c0 0.19 0.154 0.345 0.345 0.345v0h1.879c0.19 0 0.345-0.154 0.345-0.345v0-3.865c0.762-0.317 1.272-1.631 1.379-2.472h8.893c0.107 0.803 0.545 2.196 1.266 2.548v3.793c0 0.19 0.154 0.345 0.345 0.345v0h2.024c0.19 0 0.345-0.154 0.345-0.345v0-3.924c1.141-0.565 1.8-3.824 1.921-5.062 1.765-0.164 3.136-1.637 3.138-3.431v-2.414c0.453-0.162 0.839-0.413 1.155-0.734l0-0c1.824-1.883 1.976-6.155 1.979-7.462 0.694 0.084 1.295 0.191 1.884 0.33l-0.115-0.023c1.341 0.283 2.5 0.524 3.103-0.072 0.331-0.338 0.424-0.838 0.29-1.545zM24.086 2.692v0.021zM23.417 2.747l-0.048-0.021zM23.71 2.882l-0.055-0.028zM18.582 3.092c-0.043 0.098-0.080 0.213-0.105 0.333l-0.002 0.012c0.027-0.132 0.064-0.247 0.111-0.357l-0.005 0.012zM18.734 2.795c-0.030 0.045-0.062 0.098-0.089 0.153l-0.004 0.009c0.032-0.064 0.063-0.117 0.097-0.168l-0.003 0.006zM28.079 13.14c0.090 0 0.179 0 0.269 0-0.090-0.021-0.179-0.014-0.269-0.014zM28.768 13.053h0.052zM28.475 13.109h0.117zM36.561 4.488c-0.345 0.345-1.428 0.107-2.479-0.114-0.648-0.162-1.416-0.284-2.202-0.342l-0.047-0.003c-0.004-0-0.008-0-0.012-0-0.095 0-0.181 0.038-0.243 0.1l0-0c-0.064 0.063-0.104 0.15-0.104 0.246 0 0.003 0 0.006 0 0.009v-0.001c0 0.055 0.141 5.362-1.779 7.341-0.399 0.437-0.971 0.71-1.607 0.71-0.006 0-0.012-0-0.018-0h-0.344c-0.004 0-0.009 0-0.015 0-0.638 0-1.212-0.273-1.611-0.709l-0.001-0.002c-1.921-1.979-1.779-7.286-1.779-7.341 0-0.003 0-0.006 0-0.009 0-0.096-0.040-0.184-0.104-0.246l-0-0c-0.062-0.062-0.148-0.1-0.243-0.1-0.001 0-0.001 0-0.002 0h0c-0.831 0.061-1.597 0.183-2.341 0.365l0.096-0.020c-1.052 0.221-2.141 0.448-2.483 0.114-0.2-0.2-0.152-0.596-0.093-0.91 0.045-0.34 0.253-0.623 0.542-0.77l0.006-0.003c1.103-0.517 3.503 0.552 4.338 1.010 0.042 0.020 0.091 0.031 0.143 0.031 0.076 0 0.146-0.025 0.203-0.066l-0.001 0.001c0.105-0.069 0.174-0.185 0.179-0.316l0-0.001c0.026-0.499 0.435-0.895 0.937-0.9h4.828c0.002-0 0.005-0 0.008-0 0.506 0 0.919 0.398 0.944 0.898l0 0.002v0.059c0.003 0.124 0.071 0.231 0.171 0.289l0.002 0.001c0.049 0.029 0.109 0.046 0.172 0.046s0.123-0.017 0.174-0.047l-0.002 0.001c0.814-0.455 3.214-1.524 4.317-1.007 0.297 0.147 0.507 0.431 0.548 0.768l0.001 0.005c0.062 0.314 0.093 0.71-0.093 0.91z"></path>
</svg>
<svg id="i-a6" width="30" height="30" viewBox="0 0 30 30" x="578" y="0">
<path fill="#d1d1d1" d="M21.587 27.343v-23.026h-18.953v22.086l18.953 0.94z"></path>
<path fill="#b3b3b3" d="M21.587 27.656v0l-18.953-0.94c-0.166-0.009-0.298-0.145-0.298-0.313 0-0 0-0 0-0v0-22.086c0-0.173 0.14-0.313 0.313-0.313v0h18.937c0.173 0 0.313 0.14 0.313 0.313v0 23.026c0 0.173-0.14 0.313-0.313 0.313v0zM2.947 26.105l18.327 0.909v-22.383h-18.327z"></path>
<path fill="#d1d1d1" d="M27.069 23.74l-5.482 3.603v-23.026l5.482-1.41v20.833z"></path>
<path fill="#b3b3b3" d="M21.587 27.656c-0.054-0-0.105-0.014-0.149-0.038l0.002 0.001c-0.099-0.054-0.166-0.157-0.166-0.276v-23.026c-0-0.003-0-0.006-0-0.010 0-0.145 0.099-0.267 0.233-0.303l5.485-1.401c0.023-0.006 0.050-0.010 0.078-0.010 0.173 0 0.313 0.14 0.313 0.313 0 0 0 0 0 0.001v-0 20.833c-0.001 0.108-0.056 0.203-0.14 0.259l-0.001 0.001-5.482 3.603c-0.048 0.033-0.108 0.053-0.172 0.053h-0zM21.901 4.559v22.202l4.856-3.189v-20.259zM27.069 23.74v0z"></path>
<path fill="#000105" d="M15.767 15.125c0 2.019-1.637 3.656-3.656 3.656s-3.656-1.637-3.656-3.656c0-2.019 1.637-3.656 3.656-3.656s3.656 1.637 3.656 3.656z"></path>
<path fill="#d1d1d1" d="M2.634 4.317l9.956-1.66 14.48 0.251-5.482 1.41h-18.953z"></path>
<path fill="#b3b3b3" d="M21.587 4.631h-18.953c-0.007 0.001-0.016 0.001-0.025 0.001-0.173 0-0.314-0.141-0.314-0.314 0-0.165 0.127-0.3 0.288-0.313l0.001-0 10.012-1.66 14.473 0.251c0.001 0 0.001 0 0.002 0 0.16 0 0.292 0.119 0.311 0.274l0 0.002c0.001 0.012 0.002 0.025 0.002 0.038 0 0.145-0.098 0.267-0.232 0.303l-0.002 0.001-5.482 1.41c-0.024 0.006-0.051 0.009-0.079 0.009-0.001 0-0.002 0-0.003 0h0zM6.419 4.004h15.128l3.202-0.824-12.133-0.21z"></path>
</svg>
</svg>
