<svg xmlns="http://www.w3.org/2000/svg" viewBox="0 0 1222.85 618.46"><style><![CDATA[.A{fill:#23df88}.D{fill:#19915f}.E{fill:#335991}.F{fill:#fff}.H,.I{fill:#ffd876}.Z,.H{opacity:0.18}.K,.V,.W{fill:none}.N{fill:#f4cb67}.O{fill:#997c3a}.Q{fill:#9ea379}.R{fill:#7b4a3c}.S,.U,.Z{fill:#000105}.S{opacity:0.39}.T{fill:#050809}.V{stroke:#000105;opacity:0.4}.V,.W{stroke-linecap:round;stroke-miterlimit:10;stroke-width:9.38px}.W{stroke:#e7a695}.Y,.c{fill:#1f2017}.Y{opacity:0.26}.a{fill:#dad7d1}]]></style><path class="A" d="M168.62 377.8s-105 1.25-105 18.27S-10.16 378 1.2 417.56s167.43-24.3 191.55 26.77 55.34 53.92 119.2 53.92 45.4 39.7 132 58.16 62.43 7.1 205.74 39.74 231.3 28.38 283.8-5.67 36.9-68.34 89.4-92.35 185.9-43.87 181.63-97.8 58.18-79.46-25.54-93.65-106.42-27-211.42 11.35-156.13 61.35-319.3 59.77-479.6 0-479.6 0z"/><path d="M299 362.23c22 2.16 51 13.67 55 14.52l2.08.44 292.14.62C811.4 379.4 862.48 356.35 967.5 318c21.93-8 40.26-13.77 56.32-17.76C929.42 187.35 560.37 0 429 0 294 0 304 139.08 268 215.08s9 145 31 147.15z" fill="#effafc"/><rect x="611.42" y="461.57" width="319.58" height="31.18" rx="15.59" fill="#1ea667"/><path class="D" d="M576.24 440.58s12.58 10 17.56 22.08c0 0-1.78-28.6-3.9-37.74 0 0 6.28 12.34 7.94 25.5 0 0 5.58-18 19.46-29.78 0 0-9.73 14.47-10 25.62 0 0 8.42-13.88 19.7-14.83 0 0-20.3 14.83-22.66 38.68H588.6s-5.22-19.46-12.34-29.54zm150.36 64.87s12.57 10 17.56 22.1c0 0-1.78-28.6-3.92-37.75 0 0 6.3 12.34 8 25.5 0 0 5.58-18 19.46-29.78 0 0-9.73 14.48-10 25.63 0 0 8.42-13.88 19.7-14.83 0 0-20.28 14.83-22.65 38.68h-15.8s-5.22-19.46-12.34-29.55zM309.93 404.6s12.58 10 17.56 22.08c0 0-1.78-28.6-3.92-37.74 0 0 6.3 12.34 7.95 25.5 0 0 5.58-18 19.46-29.78 0 0-9.73 14.47-10 25.62 0 0 8.43-13.88 19.7-14.83 0 0-20.3 14.83-22.66 38.68h-15.75s-5.22-19.46-12.34-29.54zm634.67 29.6s11.84 9.4 16.54 20.8c0 0-1.68-27-3.7-35.57 0 0 5.92 11.63 7.5 24 0 0 5.25-17 18.33-28.06 0 0-9.17 13.64-9.4 24.14 0 0 7.94-13.07 18.56-14 0 0-19.12 14-21.35 36.44H956.2s-4.92-18.26-11.62-27.76zm-542.93 15.9s15.45 25.54 18.14 35.62h16.8s.34-33.94 5-44.7c0 0-11.42 25.62-12.18 36.46 0 0-9.83-38.06-20.4-40.07 0 0 15.88 25.7 15.12 43.34.04 0-15.75-31.83-22.47-30.66zM768.64 411s15.45 25.53 18.14 35.6h16.8s.34-33.93 5-44.7c0 0-11.42 25.62-12.18 36.46 0 0-9.83-38.05-20.4-40.07 0 0 15.88 25.7 15.12 43.35.04-.03-15.75-31.87-22.47-30.66zm283.9-76.32s15.45 25.54 18.14 35.62h16.8s.34-33.94 5-44.7c0 0-11.42 25.62-12.18 36.46 0 0-9.83-38.05-20.4-40.07 0 0 15.88 25.7 15.12 43.35 0 0-15.75-31.84-22.47-30.67z"/><path class="E" d="M514 377.15l81 .27-134.16-134.16-36.25 36.25z"/><path class="F" d="M498 280.32l-18.96 18.96-17.84-17.84-17.6 17.58-19.02-19.64 36.34-36.12L498 280.32z"/><path d="M334.66 186.87L254.74 266c-3.13 53.45 27.35 94.58 44.26 96.23 22 2.16 51 13.67 55 14.52l2.08.44h162.8l-184.2-190.32z" fill="#4b83c6"/><path class="F" d="M389.44 243.26l-20.06 20.06-18.12-18.1-17.93 17.93-19.36-19.35-19.27 19.27-17.86-18.94 57.82-57.25 54.78 56.4z"/><circle class="H" cx="525.11" cy="139.45" r="56.22"/><circle class="I" cx="525.11" cy="139.45" r="39.51"/><path d="M375.43 106.72a26.24 26.24 0 0 0-50.78-13.21h-1.45a19.13 19.13 0 1 0-30.91-2.39 35.52 35.52 0 0 0-60.19 25.56v1.16a26.23 26.23 0 1 0-21.48 41.28 27.72 27.72 0 0 0 2.9-.16v.16h162.72v-.2a26.23 26.23 0 0 0-.83-52.17z" fill="#b7f3d7" opacity=".6"/><rect class="E" x="782.38" y="181.53" width="21.8" height="21.8" rx="4.99"/><path d="M794.82,66.62a52.66,52.66,0,0,1,0,105.31" fill="#f25a5a"/><path d="M803.75 171.1c7.66-7.26 17.47-22.3 17.47-51.84a144.66 144.66 0 0 0-9.1-49.68 52.47 52.47 0 0 0-17.3-3v105.34a52.58 52.58 0 0 0 8.93-.82z" fill="#ff8a8a"/><path class="F" d="M794.82,171.93a52.66,52.66,0,1,1,0-105.31"/><path class="I" d="M777.5 69.6a144.66 144.66 0 0 0-9.1 49.68c0 29.53 9.8 44.58 17.47 51.84a52.6 52.6 0 0 0 8.94.82V66.62a52.48 52.48 0 0 0-17.31 2.97z"/><path class="N" d="M192.43 402.17s28.75-29.8 28.75-96.88-28.75-102.2-28.75-102.2-28.74 41.5-28.74 103.26 28.74 95.8 28.74 95.8z"/><path class="O" d="M217.08 258.84a1.07 1.07 0 1 0-1.9-1v.1l-21.68 46.8v-49.14l16.14-21a1.07 1.07 0 0 0-1.62-1.39l-.07.1-14.45 18.85v-46.9a1.07 1.07 0 0 0-2.13-.15.38.38 0 0 0 0 .15V290l-21-32.2a1.07 1.07 0 1 0-1.83 1.09.35.35 0 0 0 .05.08l22.73 34.92v33.37l-25.93-39.6a1.06 1.06 0 1 0-1.78 1.16l27.73 42.35v5.63l-25.86-25.86a1.06 1.06 0 0 0-1.51 1.5l27.38 27.38V400a1.07 1.07 0 0 0 2.13 0v-90.2z"/><path class="N" d="M121.74 402.17s22-22.78 22-74-22-78.08-22-78.08-22 31.72-22 78.9 22 73.2 22 73.2z"/><path class="O" d="M140.57 292.67a.82.82 0 0 0-.35-1.1.82.82 0 0 0-1.1.35v.07l-16.54 35.73v-37.5l12.33-16a.81.81 0 0 0-.08-1.15.82.82 0 0 0-1.15.09l-.06.07-11 14.33V251.7a.82.82 0 0 0-.76-.87.81.81 0 0 0-.86.76.2.2 0 0 0 0 .11v64.76l-16-24.6a.82.82 0 0 0-1.12-.28.81.81 0 0 0-.28 1.12l17.38 26.68V345l-19.88-30.32a.81.81 0 0 0-1.36.89l21.2 32.35v4.3l-19.76-19.76a.81.81 0 0 0-1.15 1.15l20.92 20.9v46a.81.81 0 0 0 1.62 0V331.6z"/><path class="N" d="M263.35 402.17s22-22.78 22-74-22-78.08-22-78.08-22 31.72-22 78.9 22 73.2 22 73.2z"/><path class="O" d="M282.18 292.67a.82.82 0 0 0-1.45-.75v.07l-16.53 35.73v-37.5l12.33-16a.82.82 0 0 0-1.24-1.06l-.06.07-11 14.33V251.7a.83.83 0 0 0-.76-.87.82.82 0 0 0-.87.76v64.87l-16-24.6a.82.82 0 1 0-1.4.84l17.37 26.68V345l-19.82-30.27a.81.81 0 0 0-1.36.89l21.2 32.35v4.3l-19.76-19.76a.81.81 0 0 0-1.15 0 .83.83 0 0 0 0 1.15l20.92 20.9v46a.82.82 0 0 0 .87.76.83.83 0 0 0 .76-.76v-69z"/><path class="A" d="M982.46 259.13c-10.45-8.64-22.57-5.33-24.6-4.7s-13.86 4.82-17.53 17.87c-4 14.22-8.42 51.8 34.87 38.6l.6-.2c43.07-13.8 18.03-42.18 6.66-51.6z"/><path d="M998.97 280.8l-.4-.47-25.3 21.3-1.4-4.46 23.72-23.3-.44-.45-23.5 23.07-3.52-11.23 17.97-22.9-.5-.38-17.7 22.57-1.75-5.6 16.52-19.63-.48-.4-16.26 19.33-7.48-23.93-.6.2 10.92 34.94-30.58-10.72-.2.6 31.03 10.87 4.2 13.5-35.96-13.3-.2.58 36.4 13.47 4.1 13.1.6-.18-4.72-15.1 25.5-21.46z" fill="#17ad62"/><path class="Q" d="M544.83 357.68s-20.64-14.23-39.5-7.46a22.31 22.31 0 0 0-10.56 8.09 1.72 1.72 0 0 0 2.21 2.52c9.82-5.17 27.24-10.45 38 8.75"/><circle class="R" cx="519.63" cy="353.34" r="7.19"/><circle class="S" cx="520.52" cy="355.83" r="7.19"/><path class="R" d="M857 404l-25 49.35s-13.23 6.25-13.23 17.8h26s3.85-17.08 17.08-20.44l22.2-54.4"/><path class="T" d="M818.84 471.14h26a35.08 35.08 0 0 1 1.77-5.22c-3-4.8-7.72-10.73-14.3-13l-.22.42s-13.26 6.25-13.26 17.8z"/><path class="U" d="M896.16 392.8l.3.14c-2.53-4.1-8-2.14-8.12-7.66-.48-16.35-17.8-30.1-17.8-30.1-25.24 13.8-43.68 19.7-58.55 21.9V369c0 30.77 15.47 48.55 43.6 48.55s40.55-24.74 40.55-24.74z" opacity=".2"/><path class="V" d="M850.3 392.98v27.67m15.14-27.67v27.67"/><path class="W" d="M847.12 389.2v27.67m15.15-27.67v27.67"/><path d="M893 391.7a29.16 29.16 0 0 1-4.67-14.52c-.48-16.35-17.8-30.08-17.8-30.08-25.22 13.76-43.66 19.7-58.53 21.9 0 30.77 15.47 40.43 43.6 40.43S893 391.7 893 391.7z" fill="#d78f7c"/><path class="Y" d="M812.37 382.07s52.25 7.1 81.83-12.9-61.5-26.33-61.5-26.33z"/><path class="Z" d="M888.35 390.33a27.25 27.25 0 0 0 2.44 10.32 22 22 0 0 0 2.23-3.19 29.16 29.16 0 0 1-4.67-14.46c-.48-16.36-17.8-30.1-17.8-30.1-25.24 13.76-43.68 19.7-58.52 21.9 0 2.6.12 5 .34 7.32 14.78-2.22 33.13-8.17 58.18-21.83 0-.05 17.32 13.7 17.8 30.04z"/><path class="a" d="M567.5 421.18c5.06-4.52 10.4-7.4 15.87-7.52 21.9-.5 44.5 16.83 66.14 13s55.56-30.54 55.56-30.54 26-15.88 53.88-15.88 48.58 14.4 111.6-20c0 0 17.32 13.73 17.8 30.1s16.83 27.4 16.83 27.4l-19.24 51.48s-12.5 2.8-12.5 16.3h26s1.93-18.23 15.88-21.1l26.45-68.8s-23.57-35.6-3.36-79.37c0 0 13-56.3-24.06-81.3 0 0 44.06 14.65 33.2 94.28 0 0-6 6-6 14.3a76.56 76.56 0 0 1-1.62 15.34l6.5-9.56 2.87 12.08 3.27-11 6.5 8.3s0-28.87-7.76-28.32c0 0 17.68-101.92-48-101.92S669 206.1 639.17 235L515.6 371.52"/><path class="S" d="M680.8 413.5s6.9-7.5 9.44-38.5 25.23-28.4 42.57-31.34 20.56 7.16 53.76-13 32.88-28.5 49.42-26.33 20.46 4.28 28.45.5S830.57 261 830.57 261l-118.52 45.1-35.53 50.9-4.7 38.08 10.46 20.76m-122.65 13.84c7.25-9.12 15.33-15.84 23.74-16 21.5-.48 43.7 16.22 65 13.15v-66.6h-88.74z"/><path class="R" d="M578.25 412c14.1-12 32.87-19.6 55.55-20.27l49.54-22.56c13-15.48 21.08-32.94 55.4-31.28 34.53 1.67 64.22-17.83 81-46.24a43.75 43.75 0 0 0 46.56 12.62 67.35 67.35 0 0 0 64.58 58.87 83.42 83.42 0 0 1-.46-4.93v-.23l-.06-1.13a2.26 2.26 0 0 1 0-.26 72.89 72.89 0 0 1-.09-3.65v-4.9c0-.58.07-1.17.12-1.75v-.72c0-.24.06-.58.08-.87s0-.52.08-.78l.1-.85c0-.28.07-.57.1-.85s.06-.54.1-.8l.17-1.16.15-1 .2-1.14.13-.73c.05-.24.12-.68.2-1l.15-.74a40.13 40.13 0 0 1 .23-1.06l.15-.68.37-1.6c0-.13.07-.26.1-.4a40.87 40.87 0 0 1 .39-1.49c.05-.2.12-.42.17-.64l.34-1.17c.07-.23.14-.45.2-.68l.4-1.22.2-.6.6-1.8v-.1l.64-1.74a14.74 14.74 0 0 1 .23-.6l.5-1.27c.08-.22.17-.44.26-.66l.55-1.3c.08-.2.16-.4.25-.6l.83-1.87a109.93 109.93 0 0 0 2.18-20.52v-.05a96.87 96.87 0 0 0-3.22-27.41l-.5-1.7a71.09 71.09 0 0 0-2.42-6.72q-.7-1.67-1.5-3.3a61.16 61.16 0 0 0-2.63-4.82c-.32-.52-.65-1.05-1-1.57l-2.15-3.06a54.33 54.33 0 0 0-7.95-8.45 53.13 53.13 0 0 0-4.89-3.71 34.38 34.38 0 0 1 8.26 4.6 46.59 46.59 0 0 1 1.63 1.23 54.88 54.88 0 0 1 10.95 11.5 61.91 61.91 0 0 1 3.54 5.59c.57 1 1.13 2.06 1.67 3.16q.4.82.8 1.68c.72 1.55 1.4 3.2 2.06 4.92q.82 2.16 1.56 4.5a91.38 91.38 0 0 1 2.28 8.83l.54 2.8a108.17 108.17 0 0 1 1.3 10 128.89 128.89 0 0 1 .46 8.64 174.55 174.55 0 0 1-1.69 26.91 23.69 23.69 0 0 0-5.08 8.58 18.59 18.59 0 0 0-.94 5.73 76.56 76.56 0 0 1-1.62 15.34l6.5-9.56 2.83 11.93h.1l3.22-10.83 6.1 7.8.4-.25v-6.2l-.06-.93v-.15c0-.32 0-.65-.07-1v-.07l-.1-1v-.18c0-.33-.07-.66-.1-1a1.5 1.5 0 0 1 0-.22c0-.33-.07-.67-.1-1v-.22l-.12-1v-.2l-.15-1.07v-.1c0-.35-.1-.7-.16-1a.68.68 0 0 1 0-.14l-.18-1v-.2l-.2-1a1.55 1.55 0 0 1 0-.21l-.22-1v-.2l-.24-.95v-.14l-.27-.94-.3-.9a.93.93 0 0 0 0-.13l-.3-.82-.06-.14-.33-.75-.06-.13c-.12-.24-.23-.47-.36-.7a.31.31 0 0 0 0-.1 7.79 7.79 0 0 0-.4-.64v-.05c-.14-.2-.28-.38-.42-.55a3.92 3.92 0 0 0-.45-.46l-.07-.06a3 3 0 0 0-.46-.35l-.1-.06a3.17 3.17 0 0 0-.49-.24h-.1a2 2 0 0 0-.53-.14h-.07a2.38 2.38 0 0 0-.6 0s17.68-101.92-48-101.92h-8.76l-1.94-.05h-6.95l-1.9-.7h-.22l-2.12-.1h-.75l-1.48-.06H879l-1.43-.07h-.9l-1.5-.07h-.8l-2.24-.12h-.77l-1.58-.08-1-.06-1.4-.08-1.08-.06-1.36-.07-1.06-.24-1.53-.1-1.6-.1-1.64-.1-1.2-.08-1.2-.07-2.45-.15-1.54-.1h-.8l-77.35-4.67-3-.15-9.4-.4-3-.12h-.2l-2.92-.1h-.1l-9.06-.28h-.3l-2.68-.07h-.32l-8.85-.18H722.9a152 152 0 0 0-28.9 42.01c-28.47 61.36-79.1 52.28-121.74 46.53L517 370"/><path class="R" d="M544.56 351.1c30-2 52.54 27.3 42.47 55.63a15.53 15.53 0 0 1-1.48 3.3c-2 2.95-11.7 4.22-13.53 8-6.4 13.34-13.38 16.7-13.38 16.7a50.33 50.33 0 0 0-11.87 1.5c-12.14 3-21.85 11.9-28.1 19.3-6.1 2.07-16.6 5.67-21.35 2.4-6.2-4.25-11.32-7.5-7.85-18.37s11.5-38.28 11.37-54.5 16.75-34.7 23.1-36.76c3.58-1.17 8.17 1.45 13.77 3.2zm152.82 39.23S704.1 421.1 720 425v28.1s-7.93 8.18-7.93 18h29.1s-2.67-21.1 4.83-24v-69z"/><path class="T" d="M720 452v1.1s-7.93 8.18-7.93 18h29.1s-.1-.7-.18-1.84c-3-5.8-10.05-16.73-21-17.26z"/><path class="S" d="M702.42 405.5l2.65-2s18.42-11.25 40.9-14.8v-10.63l-48.58 12.27a91.64 91.64 0 0 0 5.04 15.17z"/><path class="R" d="M591.76 287.35a55.22 55.22 0 0 0 88-65.19c-19.07 2.1-33.64 6-40.62 12.8z"/><path class="T" d="M900.9 479.18c-3-4.72-7.64-10.33-14-12.54l-1 2.58s-12.5 2.8-12.5 16.3h26a33.58 33.58 0 0 1 1.5-6.34z"/><path class="Y" d="M869.84,360.12s-39.82-7.44-51-35.94c.4,13.67,15.4,36.17,26.8,48.13a263.06,263.06,0,0,0,24.62-11.92Z"/><path class="a" d="M947.9 326.1q-.18 1.54-.4 3.12s-6 6-6 14.3a76.56 76.56 0 0 1-1.62 15.34l6.5-9.56 2.83 11.93h.1l3.22-10.83 6.1 7.8.38-.2c0-4.32-.7-28.15-7.75-27.65 0 0 .27-1.56.62-4.27z"/><path class="R" d="M941.74 395.62a73.92 73.92 0 0 1-7.66-17.38c-5.92 1.43-12.56 5.62-15.12 16.72-5.05 21.9-3.24 30.88-4.7 43.17-1.3 11.12-23.3 26.67-9.26 33a17 17 0 0 1 10.28-6.71z"/><path class="S" d="M552.06 384.13s16.4 19.47 4.1 34.42"/><path d="M518.34 388a9.67 9.67 0 0 1-3.37 3.69c-2 1.06-10 7.65-5.74 12.22s9.58-3.54 10.56-7.83 1.4-12.82-1.45-8.08z" fill="#faebde"/><ellipse class="c" cx="512.44" cy="399.5" rx="1.95" ry="1.51" transform="translate(-98.81 179.12) rotate(-18.11)"/><path class="R" d="M685.4 366.67l-51.6 25.06a88.49 88.49 0 0 1 6 14.4c1.84 7 8.73 29.3 22.1 32.55v28.14S654 475 654 484.86h29.1s-2.64-21.16 4.8-24.05v-69z"/><path class="T" d="M661.9 465.72v1.1S654 475 654 484.86h29.1s-.08-.7-.18-1.84c-3.04-5.83-10.08-16.77-21.03-17.3zm21.44-96.55"/><path class="S" d="M537.9 438.92l-1 1.24a40.83 40.83 0 0 1 9.86-3.88 50.33 50.33 0 0 1 11.87-1.5s7-3.36 13.38-16.7c-.02 0-7.1-11.63-34.1 20.84z"/><path class="R" d="M534.25 354.76c7.6-6.4 18.55-9.93 18.55-9.93s4 6.62-5.55 19.45c-6.78 9.07-14.72 9.18-18.8 8.47a2.67 2.67 0 0 1-2.13-3.25l.7-3a22 22 0 0 1 7.22-11.74z"/><path d="M537.6 358.78c6.3-5.28 15.36-8.2 15.36-8.2s3.34 5.47-4.6 16.1c-5.6 7.5-12.18 7.6-15.56 7A2.22 2.22 0 0 1 531 371l.6-2.44a18.28 18.28 0 0 1 6-9.78z" fill="#343626"/><circle class="Q" cx="528.38" cy="355.83" r="4.41"/><path class="Q" d="M524.75 353.34s-1.78 6.5-7.58 8.5a.54.54 0 0 0 0 1c2.6.8 8.18 1.52 14.35-3.95"/></svg>