<svg xmlns="http://www.w3.org/2000/svg" viewBox="0 0 1920.45 807.65"><style><![CDATA[.A,.P,.h{fill:none}.P,.S,.B,.h{stroke-miterlimit:10}.C{fill:#f8f8f6}.e,.D{fill:#23df88}.E{fill:#17ad62}.F{fill:#fed36b}.G{fill:#b29450}.H{fill:#f4cb67}.J{fill:#fff8f2}.K{fill:#455263}.L,.M,.S,.f{fill:#fff}.L{opacity:0.6}.N{fill:#f1f1f1}.P,.S{stroke:#000;stroke-linecap:round}.Q{opacity:0.2}.R{fill:#8e653d}.U{fill:#65482a}.V{fill:#91643d}.W{fill:#caae7c}.X{fill:#bababa}.Y,.Z,.g{fill:#42454f}.Y{opacity:0.16}.Y,.e,.g,.h{mix-blend-mode:multiply}.a{fill:#f5f5ff}.b{fill:#2d2e34}.c{fill:#cdd1d2}.d{fill:#52647f}.g{opacity:0.39}.i{fill:#35404c}]]></style><defs><clipPath id="A"><path class="A" d="M1027.86 328.54l-3-100.63 55.25-1.63h7.32c33.9 1 61.27 27.4 64.43 60.7l57.34 10.2a7.94 7.94 0 0 1 6.54 7.57l.83 28.1-6.9.2.35 11.67a8.07 8.07 0 0 1-7.82 8.3L1010 358.7l-.87-29.6z"/></clipPath><clipPath id="B"><path class="A" d="M1012.325 358.7l-90.15 2.675-.88-29.627 90.15-2.675z"/></clipPath><clipPath id="C"><path class="A" d="M798.77 362.022l-149.954 4.45-.878-29.597 149.954-4.45z"/></clipPath><clipPath id="D"><path class="A" d="M1017.092 331.86l-392.647 11.653L621 227.103l392.647-11.653z"/></clipPath></defs><path class="B" d="M1920 516.23V242.1a478.19 478.19 0 0 0-214.5 87.8 480.28 480.28 0 0 0-399.88-134.44C1212.27 49.28 1034-29.75 855.34 11.3a419.94 419.94 0 0 0-202.19 111.15c-95.4-69.77-219.43-99.28-343.67-70.73C157.2 86.73 43.3 200.05.5 339.38v176.85h824.57c.66-10.2.95 10.33.87 0H951c-14.44 25.58-26.66-28.62-36.37 0z" fill="#aae9f7" stroke="#bce7f5"/><path class="C" d="M1920,752V444.23s-572.37-196-968.37-196S.5,516.23.5,516.23V751c629,73.9,1264.35,75.83,1893.52,3.78Z"/><path class="D" d="M951.58 248.23c-199.73 0-439.9 68.17-628.95 135.75 0 0 46.08 9.07 107.27 4.07s30.3 55.77 138.3 61.77 178.5 42 255 51 204 37.5 259.5-72c54.9-108.3 205.2-34.64 233.1-141.92-124.22-22.76-251.4-38.67-364.22-38.67z"/><path class="D" d="M1228.57 272.2c60.78-29.46 25.35-106 5-137.37-23.33-35.9-63-37.33-69.7-37.3s-46.37 1.42-69.7 37.3c-17 26.12-44.35 83.5-18.05 119 49.8 4.17 101.02 10.5 152.44 18.37z"/><path class="E" d="M1163.83 263.13l2 .25v-7l97-40.65-.76-1.8-96.28 40.33V239.5l93.43-47.84-.9-1.74-92.53 47.37v-37.14l75.7-52.1-1.1-1.62-74.6 51.34V179.3l68.26-43.6-1.05-1.7-67.2 42.93V97.8h-2v115.58l-82.07-61.1-1.18 1.58 83.25 62v44.62l-95.84-74-1.2 1.56 97 74.88z"/><path class="F" d="M731.65 270.2c30.78-5.56 61.4-10.24 91.56-13.82 15-20.65 4.16-57.17 4.16-101.4 0-63.54-51.64-66.18-60.23-66.18H767c-8.6 0-60.22 2.64-60.22 66.18-.04 57.16-18.23 101.46 24.87 115.23z"/><path class="G" d="M701.6 205.45l64.8 39.94.13 13.4a1 1 0 0 0 0 1.92v3.57l2-.3v-3.76c9.86-3.7 53.6-25.57 63-30.28a1 1 0 1 0-.9-1.79c-21.75 10.92-53.85 26.7-62.1 30l-.23-24.7 61.8-24.73a1 1 0 1 0-.74-1.85l-61.1 24.43-.07-7.37 61.58-30.27a1 1 0 0 0-.89-1.79l-60.7 29.84-.33-35.5 59.86-36.7a1 1 0 0 0 .33-1.37 1 1 0 0 0-1.38-.33l-58.84 36.06-.08-8.63 58.9-35.32a1 1 0 0 0-1-1.72l-57.9 34.73-.1-12a1 1 0 0 0 0-.87l-.15-16.18 47.07-33.1a1 1 0 1 0-1.15-1.64l-46 32.32-.2-22.64a.73.73 0 0 0 .23-.16l23.62-24.84a1 1 0 0 0-1.45-1.38L767.2 116l-.26-27.2a1 1 0 1 0-2 0l.66 69.9-55.1-30.6a1 1 0 1 0-1 1.74L765.6 161l.13 13.62a.74.74 0 0 0 0 .21l.1 10.42a1 1 0 0 0 0 .9l.1 9.94-58.38-56.8a1 1 0 1 0-1.39 1.43l59.84 58.2.22 23.76a1 1 0 0 0-.37 1.27 1 1 0 0 0 .38.41l.08 7.72a1 1 0 0 0 0 1.77l.1 9.17-63.72-39.27a1 1 0 1 0-1 1.7z"/><path class="D" d="M574.22 305.4c55.78-14.64 112.5-27.4 168.54-37.17 6.63-33.92-13.93-75.55-27.68-96.7-23.32-35.9-63-37.33-69.7-37.32s-46.37 1.43-69.7 37.32c-19.64 30.2-53.2 102.25-1.47 133.87z"/><path class="E" d="M675.66 281.24l68.73-28.8-.76-1.8-78.44 32.86q5.24-1.14 10.47-2.26zm-30.26 6.68l2-.45V276.2l93.43-47.84-.9-1.75-92.58 47.4v-37.15l75.7-52.1-1.1-1.62-74.6 51.34V216l68.26-43.6-1.05-1.66-67.2 42.94V134.5h-2v115.58L563.32 189l-1.17 1.58 83.24 62zm-9.23 2.13l-86.6-66.85-1.2 1.56 85.35 65.87z"/><path class="F" d="M1069.64 114.55c0-66-53.6-68.7-62.52-68.7h-.18c-8.92 0-62.52 2.74-62.52 68.7 0 71.33-27.3 123.37 61.45 124.26h2.33c88.8-.9 61.44-52.93 61.44-124.26z"/><path class="G" d="M939.1 167l67.27 41.45.13 13.9a1 1 0 0 0 0 2l.23 25.12 2.08.08-.24-25.72c10.23-3.83 55.64-26.55 65.38-31.43a1 1 0 1 0-.93-1.86c-22.6 11.33-55.9 27.72-64.47 31.13l-.24-25.66 64.16-25.66a1 1 0 1 0-.77-1.93l-63.42 25.37-.07-7.65 63.93-31.43a1 1 0 0 0-.92-1.86l-63 31-.35-36.84 62.14-38.16a1 1 0 1 0-1.08-1.77l-61.1 37.44-.08-9 61.15-36.67a1 1 0 1 0-1.07-1.78l-60.1 36-.1-12.43a1.05 1.05 0 0 0 0-.9l-.16-16.8 48.87-34.38a1 1 0 0 0 .26-1.44 1 1 0 0 0-1.45-.25l-47.7 33.55-.23-23.42a1.31 1.31 0 0 0 .24-.17L1032 51a1 1 0 1 0-1.5-1.43l-23.33 24.53-.27-28.25a1 1 0 1 0-2 0l.68 72.56-57.2-31.77a1 1 0 1 0-1 1.81l58.22 32.35.13 14.13a.81.81 0 0 0 0 .22l.1 10.82a1 1 0 0 0 0 .93l.1 10.32-60.6-59a1 1 0 1 0-1.45 1.49l62.1 60.4.23 24.66a1 1 0 0 0-.38 1.32 1 1 0 0 0 .4.44l.08 8a1 1 0 0 0-.51 1.3 1 1 0 0 0 .52.55l.1 9.52-66.15-40.77a1 1 0 0 0-1.09 1.77z"/><path class="D" d="M841.78 254.3a1061.07 1061.07 0 0 1 109.8-6.08q17.1 0 34.65.5c43.83-33.23 12-101.1-6.9-130.18-23.33-35.9-63-37.33-69.7-37.32s-46.37 1.43-69.64 37.32c-20.1 30.83-54.65 105.24 1.78 135.77z"/><path class="E" d="M909.64 249.2l2-.08v-9l97-40.65-.76-1.8L911.6 238v-14.8l93.4-47.84-.9-1.75-92.5 47.4v-37.15l75.7-52.1-1.12-1.62-74.58 51.34V163l68.26-43.6-1.06-1.66-67.2 42.94V81.5h-2v115.58L827.57 136l-1.17 1.58 83.24 62v44.63l-95.83-74-1.2 1.56 97 74.88z"/><path class="H" d="M322.63 384l-28.38-80.65L62.18 385l31.42 89.3c57.2-24.7 137.06-57.44 229.03-90.3zm1303.85-26.9l16.94-113.1-289.66-43.4-13.6 90.85c101.38 19.35 200 42.9 286.32 65.64z"/><path d="M443 343.43l-28.2-80.16-75-17.08-45.57 57.14 28.4 80.67c38.3-13.7 78.66-27.4 120.37-40.57zm1330.25 54.67l19.33-129.1-69.4-59.75L1643.4 244l-16.94 113.13c54.67 14.37 104.4 28.46 146.77 40.97z" fill="#ecbe2b"/><path class="J" d="M348.06 375l73.3-24.65-6.26-17.8a20.44 20.44 0 0 0-26.09-12.5l-34.38 12.1a20.44 20.44 0 0 0-12.5 26.06z"/><path class="K" d="M107.44 327.96l232.38-81.77-45.57 57.14-232.07 81.65 45.26-57.02z"/><rect class="J" x="258.29" y="346.43" width="14.87" height="26.66" rx="7.44" transform="translate(-104.34 108.59) rotate(-19.38)"/><rect class="J" x="222.55" y="359" width="14.87" height="26.66" rx="7.44" transform="translate(-110.54 97.44) rotate(-19.38)"/><rect class="J" x="186.82" y="371.58" width="14.87" height="26.66" rx="7.44" transform="translate(-116.74 86.29) rotate(-19.38)"/><rect class="J" x="151.08" y="384.15" width="14.87" height="26.66" rx="7.44" transform="translate(-122.94 75.15) rotate(-19.38)"/><rect class="J" x="115.35" y="396.72" width="14.87" height="26.66" rx="7.44" transform="translate(-129.14 64) rotate(-19.38)"/><circle class="J" cx="358.84" cy="289.17" r="11.87"/><path d="M1775.8 150.9a16 16 0 0 0 1.57-3.72 16.2 16.2 0 0 0-29.55-12.63l-.85-.27a11.8 11.8 0 1 0-18-6.59 21.93 21.93 0 0 0-40.06 5.12l-.18.7a16.2 16.2 0 1 0-19.68 20.95 13.88 13.88 0 0 0 1.76.39v.1l96.75 27.23v-.1a16.2 16.2 0 0 0 8.24-31.16z" fill="#b7f3d7"/><path class="L" d="M1106.13 52.3a12.61 12.61 0 0 0 .79-2.91 12.12 12.12 0 0 0-23.15-6.38l-.65-.1a8.83 8.83 0 1 0-14-3.1 16.4 16.4 0 0 0-29.12 7.72l-.06.53a12.13 12.13 0 1 0-11.17 17.59v.07l74.37 10.57v-.08a11.93 11.93 0 0 0 2.48-.2 12.12 12.12 0 0 0 .54-23.7zM579.3 161.26a18 18 0 0 0 .8-4.24 17.33 17.33 0 0 0-33.73-6.55l-1-.1a12.63 12.63 0 1 0-20.28-2.84 23.46 23.46 0 0 0-40.72 14.37v.77A17.32 17.32 0 1 0 468.55 189a17.59 17.59 0 0 0 1.92 0v.1l107.25 6.67v-.12a17.62 17.62 0 0 0 3.51-.57 17.32 17.32 0 0 0-1.91-33.85z"/><path class="M" d="M348.17 162.26a15.44 15.44 0 0 0-30.86-.86l-.84.16a11.25 11.25 0 1 0-18 2.72 20.89 20.89 0 0 0-31.13 22.6l.17.66a15.43 15.43 0 1 0-6.87 26.51 14.93 14.93 0 0 0 1.65-.48v.1l93.3-21.5v-.1a14.78 14.78 0 0 0 2.86-1.37 15.44 15.44 0 0 0-10.22-28.43z"/><path class="L" d="M127.9 257.66A11.74 11.74 0 0 0 127 255a11.35 11.35 0 0 0-21.5 6.68l-.58.25a8.27 8.27 0 1 0-12.59 4.65 15.37 15.37 0 0 0-19 20.93l.22.45a11.35 11.35 0 1 0-1 20.12l1.1-.6v.07l64-29.42v-.08a11.78 11.78 0 0 0 1.85-1.42 11.35 11.35 0 0 0-11.61-18.94z"/><path class="K" d="M1433.14 165.8l290.05 43.42-79.77 34.74-289.66-43.36 79.38-34.8z"/><rect class="J" x="1573.11" y="271.57" width="17.71" height="31.74" rx="8.85" transform="matrix(.99 .15 -.15 .99 59.98 -231.029999)"/><path d="M1580.66 287.4c-1.07-.1-1.54-.36-2.87-.43s-1.57.66-1.57.66.94 1.42 2 1.57a3.19 3.19 0 0 0 2.32-.76c.46-.35.12-1.04.12-1.04z" fill="#cacaca"/><path class="N" d="M1581 286.56c-.66.47-2 3.65-2.88 3.84s-.75 1.16-.84 1.34-.9.9-.76 1.23a4.92 4.92 0 0 0 1 1.68 3.13 3.13 0 0 0 2.56.38 4.79 4.79 0 0 1 2.19-.12c.44.06 3.8-3.58 4.25-3.7s1.7-1.95.44-2.92-6.12-1.76-6.12-1.76z"/><path d="M1589.7 295.68l.85-5.72a3.15 3.15 0 0 1-.57-1.21c-.18-.94-1.88-2.8-3.37-3.52s-3.86-1.48-4.83-.1c-.68 1-2 .34-1.9 1.25s.2.83 1 1a4.62 4.62 0 0 1 2.12.74c.57.47 1.5-.3 1.93-.14s1.42 2.05 1.18 2.4-2.4 1.05-2.68 2.1-1.32 2.35-2 2.37-2.74.27-2.74.27-.33.43 0 1.7 1.63 1.9 1.92 3.16l.8 3.24a8.87 8.87 0 0 0 8.31-7.53z" fill="#fbf2c0"/><path class="N" d="M1586.2 289.3c.2-.63 2-.25 2.42.23s-.28 1.53-1 1.5-1.54-1.4-1.42-1.73z"/><path d="M1582.72 290.3c-.6.1 1.17-1 1.43-1.07a1.44 1.44 0 0 1 1.06.64c0 .23-.48 0-.9-.14s-1.3.52-1.58.57z"/><path d="M1577.4 291.92c.35.05.13.82-.1.6s-.13-.62.1-.6zm.5.7c-.32-.3.65-.5.87-.5s.58-.23.5.07-.37.36-.7.4-.46.2-.66.02z" fill="#e4a4b2"/><path class="P" d="M1577 293.67a6.47 6.47 0 0 0 2.2.33c.5.05 1-.07 1.17-.52" stroke-width=".41"/><path class="Q" d="M1580.9 296.93a.8.8 0 0 1 .76-.5h.1a1.08 1.08 0 0 1 1.1-.17 1.27 1.27 0 0 1 .28 0 1.1 1.1 0 0 1 .57-.07.86.86 0 0 1 1-.53l.2-.27a1.12 1.12 0 0 1 .76-1.43l.07-.14.28-.5c.43-.53.52-.45.8-.07a1 1 0 0 1 1-1.56.78.78 0 0 1 .35-.18.8.8 0 0 1-.08-.16 1 1 0 0 1-1.56-.93.93.93 0 0 1-.28-.63l-.15-.12-.16-.14a2.21 2.21 0 0 1-.55-.55 1 1 0 0 1-.19-.64 1.06 1.06 0 0 1-.37.06 2.64 2.64 0 0 1-1.18-.25c-.3-.14-.3-.18-.07-.12a4.26 4.26 0 0 1-.47-.15 1.84 1.84 0 0 1-1.12-.28 1.93 1.93 0 0 1-.85-.14 1.27 1.27 0 0 1-1.07-.61.85.85 0 0 1-.19-.1c.06.36.2.45.5.52l-.05.08h-.18a.93.93 0 0 1 .12.46.91.91 0 0 0 .48.15 1.11 1.11 0 0 1 .85.31 1 1 0 0 1 1 .38c-.1-.14.43.05.63.2l.24-.1a1 1 0 0 1 .76 1.9 2.89 2.89 0 0 1-.6.24 1 1 0 0 1-.47.43c-1.4.66-2.46 2.23-4 2.54a3.24 3.24 0 0 1-2.56-.47 4 4 0 0 0 .79 1.27 2.58 2.58 0 0 0 1.22.46s-.2.3-.1 1a3.77 3.77 0 0 0 1.76.22 1.13 1.13 0 0 1 .61.58zm-.52-2a4 4 0 0 1 1-.09l-1 .1zm7.82-6a1.1 1.1 0 0 0 1.17.28 1 1 0 0 1 .47-.46.81.81 0 0 1 .1-.09 7.55 7.55 0 0 0-3.34-3.42c-1.48-.74-3.86-1.48-4.83-.1a.93.93 0 0 1-.16.18l.08.05a1 1 0 0 1 .3.1h.1a1.13 1.13 0 0 1 .16-.33 1 1 0 0 1 1-.37 1.2 1.2 0 0 1 .92.68.58.58 0 0 1 .07.21v.15a1 1 0 0 1 .47-.22 1.09 1.09 0 0 1 1 .17l.1.07a.9.9 0 0 1 .52.54.54.54 0 0 1 .22 0 1 1 0 0 1 .86 1.16c0-.54 0 0 0 .1a2.15 2.15 0 0 1-.1.27.34.34 0 0 1 .06.06 4.61 4.61 0 0 1 .85.86.56.56 0 0 1-.01.09z"/><path class="J" d="M1581.9 302.52a1.08 1.08 0 0 1 .93-.37l-.18-.06a1.06 1.06 0 0 1-.6-1l-.16-.1a1 1 0 0 1-.29-1.21 3.57 3.57 0 0 1-.71-.14.92.92 0 0 1-.59-.81h-.24a2.86 2.86 0 0 1 .59 1.15l.8 3.24h.25a1 1 0 0 1 .21-.7z"/><rect class="J" x="1528.51" y="264.89" width="17.71" height="31.74" rx="8.85" transform="translate(58.51 -224.5) rotate(8.51)"/><path class="R" d="M1539.75 275.33c1-.53 1.77-.23 2.36-.72s1.26-.68 1 .15-.92 2.06-1.92 2.08-1.44-1.5-1.44-1.5z"/><path d="M1541.87 280.53a7.64 7.64 0 0 0 0-2c-.08-.64-.06-2.1-.6-2.5s-.9-.58-.4-1.35 1.4-1.74.82-1.54a22.37 22.37 0 0 1-2.75 1.25 9.07 9.07 0 0 1-2.54-.38c-1.12-.26-3.6-1.4-6.74.63l-.4.26-1.7 11.46a8.82 8.82 0 0 0 2.21 7.27 4.34 4.34 0 0 0 .3-2 7.59 7.59 0 0 1 1-4.25c.54-.9 2-4.5 2.7-5.1s1.06.5 2 1.63a16.22 16.22 0 0 1 2.5 3.38 2.79 2.79 0 0 0 2.7 1.91 2 2 0 0 0 1.65-2.36 61.16 61.16 0 0 1-.75-6.31z" fill="#bd844f"/><path d="M1541.7 286.73a.94.94 0 0 0-.81 1c.1.4.5 1 .56.62s.54-1.65.25-1.62zm-1.7-6.53c0-.5.2-.75-.4-.87s-1 0-1.12-.17 0 .53.36.86 1.1.36 1.17.18z"/><path class="R" d="M1534.25 281.93c-1.5-2 .87-3.53 1.88-4.4.53-.46-2.56.8-2.9 2.34a1.73 1.73 0 0 0 1.03 2.06z"/><path class="S" d="M1538.56,286.1a5.28,5.28,0,0,0,1,2.59" stroke-width=".35"/><path class="Q" d="M1534.1 282.16l-.53-.72a1.86 1.86 0 0 1 .3-2.62 7.74 7.74 0 0 1 3.3-1.75 1.2 1.2 0 0 0-.16.25c-1.08 2.67-.15 5.55.84 8.1a19.63 19.63 0 0 1 1.05 2.91 3.76 3.76 0 0 1-.65-1 16.22 16.22 0 0 0-2.5-3.38c-.75-.95-1.17-1.8-1.65-1.8zm1.98-8.22a7.36 7.36 0 0 0-2.71-.74 12.29 12.29 0 0 0-4 1l-1.32 8.8a.89.89 0 0 1 1.24 0 1.51 1.51 0 0 0 .13-.29 8.32 8.32 0 0 0 .36-1.1 6.15 6.15 0 0 1 1.54-2.94.94.94 0 0 1 1-.21 5.3 5.3 0 0 1 .69-1 .78.78 0 0 1 0-.66c.82-1.63 3-2.12 4.67-1.84a6.81 6.81 0 0 1 .73-1.29c-1.17-.4-1.88.38-2.33.26z"/><path d="M1538.46 273.68c-1.22-.4-1.94.4-2.4.26a7.29 7.29 0 0 0-2.71-.74 12.29 12.29 0 0 0-4 1l-1 6.87c.45 0 .57 1.2.8 1.2s.6-2.65 1.06-3.2a17.13 17.13 0 0 0 1.33-1.95c.4-.64.48.92.84.3s.84-2.26 1.48-2.4a17.45 17.45 0 0 1 2.45-.67c.42.06 2.1.58 2.38.32s1.02-.58-.23-1z"/><circle class="J" cx="1718.88" cy="250.59" r="10.88"/><rect class="J" x="1439.3" y="251.54" width="17.71" height="31.74" rx="8.85" transform="translate(55.55 -211.44) rotate(8.51)"/><path d="M1453.92 272.45a13.18 13.18 0 0 1-3.3-5c-.93-2.84-3.6-5.94-4.5-6.07a.86.86 0 0 0-1 .74l-5-.75-1.77 11.63a8.81 8.81 0 0 0 1.33 6.11c2.28-2.85 3.78-6 5.1-5.8a4.52 4.52 0 0 1 3 1.34s3 1.35 4.9.3 1.23-2.48 1.23-2.48z" fill="#443131"/><path class="M" d="M1436.43 263.08a37.76 37.76 0 0 1 5.21 1.23c2.57.84 2.13.77 2 1.65s-3.65.36-3.65.36-2.2-.32-3.56-3.24zm11.47 4.42a1.67 1.67 0 0 0-1.19-1.08l-.88-.13s-.13.88 2.07 1.2z"/><rect class="J" x="1483.91" y="258.21" width="17.71" height="31.74" rx="8.85" transform="translate(57.03 -217.97) rotate(8.51)"/><path d="M1498.24 273.53s-4.08-5.06-5.4-3.86l-7.77 7.13s-1.62 1.55-.45 3.05a2.32 2.32 0 0 0 3 .45 14.46 14.46 0 0 1 5.72.86l1.54 5.27 1 2.77a10.93 10.93 0 0 0 4.77-7.5l.9-6.1h-.17a3.91 3.91 0 0 1-3.15-2.08z" fill="#9b7b53"/><path d="M1490.85 274.8a.66.66 0 0 0 0-1.32.66.66 0 0 0 0 1.32zm-4.93 3.8a.33.33 0 0 0 0-.66.33.33 0 0 0 0 .66z" fill="#39291c"/><path d="M1495.92,271.05a4.73,4.73,0,0,1,4.77-.14,4.4,4.4,0,0,1-2.72,2.3Z" fill="#272425"/><rect class="J" x="1394.7" y="244.86" width="17.71" height="31.74" rx="8.85" transform="translate(54.07 -204.91) rotate(8.51)"/><path d="M1402.9,271a6.46,6.46,0,0,0,2.63,5,8.86,8.86,0,0,0,5.74-7l1.07-7.17-3.92-.53Z" fill="#b87e4e"/><path d="M1401.7 270.87c-3.4-.5-2.93-2.9-2.93-2.9.4-4.66-1.2-3.85-.24-7.17s5.12-3 5.12-3l.72.1s4.06.87 4 4.32-1.33 2.22-2.33 6.8c0 0-.26 2.43-3.65 1.92z" fill="#a87347"/><path d="M1402.68 266.67l1.45.2a1.19 1.19 0 0 1 1 1.1v.3a1 1 0 0 0 .08.34l.13.34a1.17 1.17 0 0 1-.06 1 1.16 1.16 0 0 1-1.22.62l-1.58-.23-2.3-.35a1.19 1.19 0 0 1-1-1 1.22 1.22 0 0 1 .23-.94l.23-.3a1.11 1.11 0 0 0 .17-.3l.1-.3a1.19 1.19 0 0 1 1.28-.75l1.44.22" fill="#cbb17e"/><path class="U" d="M1401.3 253.63s-2 2.6-.1 4.63c0 0-.93.72-1.25.52s-2.08-3.04 1.36-5.15z"/><path class="V" d="M1401.06 267.9a1.38 1.38 0 0 1-.87 1.37.38.38 0 0 1-.51-.33 1.47 1.47 0 0 1 .8-1.35.38.38 0 0 1 .58.31z"/><path class="W" d="M1408.15 260.27a4.28 4.28 0 0 1 4.4.42 4 4 0 0 1-4.11 1.8c-2.92-.38-.3-2.22-.3-2.22z"/><path class="U" d="M1407.82 254.6s1.2 3.1-1.25 4.46c0 0 .68 1 1 .86s2.92-2.3.25-5.32z"/><path class="V" d="M1403.87 268.34a1.35 1.35 0 0 0 .43 1.55.37.37 0 0 0 .58-.16 1.46 1.46 0 0 0-.36-1.53.38.38 0 0 0-.65.14z"/><path class="W" d="M1399.33 259a4.28 4.28 0 0 0-4.33-.88 4 4 0 0 0 3.4 2.92c2.9.44.93-2.04.93-2.04z"/><circle class="M" cx="1405.62" cy="262.58" r=".5"/><circle class="M" cx="1401.69" cy="261.99" r=".5"/><path class="X" d="M342.27 344.25a61.38 61.38 0 0 0-8.43 3.06s-1.08-1-1.9-.06.8 2.73.8 2.73l1.57 7.67c.8 2.88 3.05 11.37 3.7 12.42s1.2 2 1 2.7-.4 3.05.88 3.07a1.4 1.4 0 0 0 1.49-1.06 89.4 89.4 0 0 0 9.19-1.77 53.56 53.56 0 0 0 7.86-3s1.4 1.32 2.13-.28-1.06-2.67-1.06-2.67-2.13-10.07-3.2-14a24.92 24.92 0 0 0-2.3-6.27 3.15 3.15 0 0 1-.56-2.51c.24-1 .2-2.34-1-2.82s-1.4 1.2-1.4 1.2a52.13 52.13 0 0 0-8.76 1.6z"/><circle class="M" cx="346.08" cy="358.12" r="7.07"/><path class="X" d="M371.28 335.65a60 60 0 0 0-8.43 3.06s-1.08-1-1.9-.07.8 2.73.8 2.73l1.57 7.67c.8 2.87 3 11.38 3.7 12.42s1.2 2 1 2.7-.4 3 .88 3.06a1.39 1.39 0 0 0 1.49-1.06 89.4 89.4 0 0 0 9.19-1.77 54.09 54.09 0 0 0 7.86-3s1.4 1.33 2.12-.28-1.05-2.67-1.05-2.67-2.13-10.07-3.2-14a24.92 24.92 0 0 0-2.3-6.27 3.15 3.15 0 0 1-.56-2.51c.23-1 .18-2.34-1-2.82s-1.4 1.2-1.4 1.2a51.5 51.5 0 0 0-8.76 1.61z"/><circle class="M" cx="375.09" cy="349.52" r="7.07"/><path class="X" d="M400.3 327a60 60 0 0 0-8.43 3.06s-1.08-1-1.9-.07.8 2.73.8 2.73l1.57 7.67c.8 2.87 3 11.38 3.7 12.42s1.2 2 1 2.7-.4 3 .88 3.07a1.41 1.41 0 0 0 1.49-1.07 86.51 86.51 0 0 0 9.19-1.77 54.09 54.09 0 0 0 7.86-3s1.4 1.33 2.12-.28-1.06-2.67-1.06-2.67-2.12-10.07-3.2-14-1.84-5.55-2.3-6.28a3.19 3.19 0 0 1-.55-2.51c.23-.95.18-2.34-1-2.82s-1.4 1.2-1.4 1.2a51.5 51.5 0 0 0-8.76 1.62z"/><circle class="M" cx="404.1" cy="340.89" r="7.07"/><path class="X" d="M374.54 298.64a61.38 61.38 0 0 0-8.43 3.06s-1.08-1-1.9-.06.8 2.73.8 2.73l1.57 7.67c.8 2.88 3 11.37 3.7 12.42s1.2 2 1 2.7-.4 3 .88 3.07a1.41 1.41 0 0 0 1.49-1.07 86.51 86.51 0 0 0 9.19-1.77 53.36 53.36 0 0 0 7.86-3s1.4 1.32 2.12-.3-1.06-2.67-1.06-2.67-2.12-10.07-3.2-14-1.84-5.55-2.3-6.28a3.19 3.19 0 0 1-.55-2.51c.23-.95.18-2.34-1-2.82s-1.4 1.2-1.4 1.2a52.62 52.62 0 0 0-8.76 1.63z"/><circle class="M" cx="378.35" cy="312.51" r="7.07"/><path class="X" d="M347.3 308.33a61.38 61.38 0 0 0-8.43 3.06s-1.08-1-1.9-.06.8 2.73.8 2.73l1.57 7.67c.8 2.87 3 11.37 3.7 12.42s1.2 2 1 2.7-.4 3.05.88 3.07a1.4 1.4 0 0 0 1.49-1.06 89.4 89.4 0 0 0 9.19-1.77 54.09 54.09 0 0 0 7.86-3s1.4 1.32 2.12-.28-1.06-2.67-1.06-2.67-2.12-10.07-3.2-14-1.84-5.54-2.3-6.27a3.19 3.19 0 0 1-.55-2.51c.23-1 .18-2.34-1-2.82s-1.4 1.2-1.4 1.2a52.13 52.13 0 0 0-8.76 1.6z"/><circle class="M" cx="351.1" cy="322.2" r="7.07"/><path d="M622.56 60.87l-1-.22a8.64 8.64 0 0 1 .31-1.19c3.44-14.53-8.55-26.75-8.67-26.88l.7-.7c.12.12 10.66 10.85 9.5 24.35a13.44 13.44 0 0 1 4.27-4.23c4.5-2.77 10.67-3 18.38-.68l-.3 1c-7.42-2.23-13.33-2-17.56.57a12.78 12.78 0 0 0-5.35 6.92c-.1.35-.18.7-.3 1.06zM249.66 202.3a10.23 10.23 0 0 1-.92-.81c-11.44-9.6-27.74-4.4-27.9-4.33l-.3-.95c.16-.05 14.48-4.65 26 2.46a13.26 13.26 0 0 1-1.83-5.67c-.46-5.26 2.1-10.88 7.65-16.72l.72.7c-5.32 5.6-7.8 11-7.38 15.92a12.9 12.9 0 0 0 3.8 7.93l.8.7zM1353.54 98.4l-2.48-2.7a7.35 7.35 0 0 1-1.21-2c-7.14-10-22-2.6-22.7-2.27l-.46-.9c.16-.08 14.38-7.18 22.45.78-.74-4.1.27-11 9.46-20.74l.73.7c-11 11.55-9.8 19-8.47 22.13a16.6 16.6 0 0 1 1 1.72z"/><path class="J" d="M1744.6 389.73l10.12-51.6a33.62 33.62 0 0 0-28.27-38.22l-24.56-3.67a33.61 33.61 0 0 0-38.22 28.26l-8.42 40.26 89.35 24.97z"/><path class="C" d="M844 380.63c126 7.93 213.77 5.4 284.72-8.2 73.4-14.07 130.54-40.12 185.24-84.46l-1.33-1.65-3.8-.7-8.16-1.46-18.5-3.23c-95.5 70.1-210 89-436.6 74.76-124.68-7.85-226 5.06-289 17.27-43.45 8.42-74.87 17.54-92.5 23.26 6.92 5.37 12.12 12.77 18.97 20.33 53.08-15.88 183.58-47.1 360.95-35.93z"/><path class="Y" d="M1231.58 360.27c.08 2.6-136.23 8.74-304.46 13.73l-304.75 4.3c-.08-2.6 136.24-8.74 304.47-13.72s304.67-6.92 304.74-4.32z"/><path class="Z" d="M798.77 362.022l-149.954 4.45-.878-29.597 149.954-4.45zm213.555-3.322l-90.15 2.675-.88-29.627 90.15-2.675z"/><path class="a" d="M1027.86 328.54l-3-100.63 55.25-1.63h7.32c33.9 1 61.27 27.4 64.43 60.7l57.34 10.2a7.94 7.94 0 0 1 6.54 7.57l.83 28.1-6.9.2.35 11.67a8.07 8.07 0 0 1-7.82 8.3L1010 358.7l-.87-29.6z"/><circle class="b" cx="983.01" cy="349.62" r="17.77"/><circle class="c" cx="983.01" cy="349.62" r="12.17" transform="translate(-15.03 45.54) rotate(-2.63)"/><circle class="Z" cx="983.01" cy="349.62" r="6.58" transform="translate(-9.17 26.95) rotate(-1.56)"/><circle class="b" cx="770.91" cy="355.9" r="17.77" transform="translate(-10.2 22.98) rotate(-1.7)"/><circle class="c" cx="770.91" cy="355.9" r="12.17" transform="translate(-2.43 5.32) rotate(-0.39)"/><circle class="Z" cx="770.91" cy="355.9" r="6.58" transform="translate(-10.47 23.61) rotate(-1.74)"/><circle class="b" cx="723.55" cy="357.3" r="17.77"/><circle class="c" cx="723.55" cy="357.3" r="12.17" transform="translate(-17.56 38.02) rotate(-2.97)"/><circle class="Z" cx="723.55" cy="357.3" r="6.58" transform="translate(-10.26 21.58) rotate(-1.7)"/><circle class="b" cx="676.2" cy="358.71" r="17.77"/><circle class="c" cx="676.2" cy="358.71" r="12.17" transform="translate(-2.46 4.67) rotate(-0.39)"/><circle class="Z" cx="676.2" cy="358.71" r="6.58" transform="translate(-10.32 20.18) rotate(-1.7)"/><circle class="b" cx="1173.42" cy="343.98" r="17.77"/><circle class="c" cx="1173.42" cy="343.98" r="12.17" transform="translate(-2.34 8.1) rotate(-0.39)"/><circle class="Z" cx="1173.42" cy="343.98" r="6.58" transform="translate(-9.67 34.89) rotate(-1.7)"/><circle class="b" cx="945.61" cy="350.73" r="17.77"/><circle class="c" cx="945.61" cy="350.73" r="12.17" transform="translate(-3.33 9.11) rotate(-0.55)"/><circle class="Z" cx="945.61" cy="350.73" r="6.58" transform="translate(-9.97 28.15) rotate(-1.7)"/><rect class="Z" x="1205.58" y="331.99" width="11.84" height="14.15" rx="3.49" transform="translate(2432.52 642.11) rotate(178.3)"/><g clip-path="url(#A)"><path class="d" d="M1157.3 286.53l-37.2 1.1a4.23 4.23 0 0 1-4.35-4.1l-.63-21.14a4.24 4.24 0 0 1 4.11-4.36l32.93-1z"/><path class="e" d="M1048.92 370.87l40.4-1.2-83.9-163.4-40.4 1.2 83.9 163.4z"/><path class="Y" d="M1049.17 225.55l3.1 104.24 55.25-1.63-93.6 40.62-8.55.25-1.35-45.38 16.44-.48-2.9-98 31.6.38zm99.2 26.68l-37.5 1.1 31.17-14.4 6.32 13.3zm73.7 65.3l-40.45 1.2 43.25 4.32-2.8-5.52z"/></g><path class="a" d="M1099.55 259.6l46.7-1.38-7.45-7.02-37.82 1.12-1.43 7.28z"/><path class="Z" d="M1215.4 317.8a2 2 0 0 0 1.92-2l-.37-12.33a2 2 0 0 0-2-1.92 2 2 0 0 0-1.91 2l.36 12.33a2 2 0 0 0 2 1.92z"/><path class="f" d="M1208.22 300.24l-167.22 5s81.3 2.48 167.22-5zm-58.02 41.88l-134.33 4s65.33 2.98 134.33-4z" opacity=".26"/><rect class="d" x="1072.99" y="261.47" width="21.71" height="14.11" rx="1.73" transform="translate(2175.18 504.84) rotate(178.3)"/><rect class="d" x="1047.59" y="262.22" width="21.71" height="14.11" rx="1.73" transform="translate(2124.4 507.1) rotate(178.3)"/><path class="g" d="M1117.66 330.57l23.43-.7a.87.87 0 0 0 .83-.89.86.86 0 0 0-.88-.84l-23.44.7a.85.85 0 0 0-.83.88.86.86 0 0 0 .89.84zm.17 5.93l23.43-.7a.88.88 0 0 0 .84-.89.86.86 0 0 0-.89-.84l-23.43.7a.87.87 0 0 0-.84.88.87.87 0 0 0 .89.84z"/><g clip-path="url(#B)"><path class="g" d="M1026.8 325.6l-156.93 35.75-.98-33.05 157.9-2.7z"/></g><g clip-path="url(#C)"><path class="g" d="M797.9 332.4l-156.93 35.75-.98-33.05 157.9-2.7z"/></g><path class="H" d="M1017.092 331.86l-392.647 11.653L621 227.103l392.647-11.653z"/><path class="h" d="M627.4 231.45l2.78 93.74 378.17-11.2-2.77-93.74zm315 80.4l-21.3.63-2.53-85.54 21.3-.63zm4.72-85.75l21.3-.64 2.52 85.55-21.3.63zm-33.28 86.6l-21.3.63-2.52-85.54 21.3-.63zm-28.56.84l-21.3.63-2.53-85.54 21.3-.63zm-28.56.85l-21.3.63-2.53-85.54 21.3-.63zm-28.56.84l-21.3.63-2.53-85.53 21.3-.64zm-28.55.85l-21.3.63-2.53-85.54 21.3-.63zm-28.56.84l-21.3.64L747.2 232l21.3-.63zm-28.56.85l-21.3.63-2.53-85.54 21.3-.63zm-28.56.85l-21.3.63-2.53-85.54 21.3-.63zm-28.55.84l-21.3.63-2.53-85.54 21.3-.63zm315.37-9.34l-22.55.67-2.53-85.54 22.54-.67zM635 235.33l19.27-.57 2.53 85.54-19.26.57z" stroke="#e0e2e4" stroke-width="1.91"/><g clip-path="url(#D)"><path class="Y" d="M938.02 217.65L541 348.9l-3.64-122.83 400.65-8.4z"/></g><path class="Z" d="M1009 332.26l24-.72a2.36 2.36 0 0 0 2.29-2.42 2.37 2.37 0 0 0-2.43-2.29l-24 .7a2.37 2.37 0 0 0-2.29 2.43 2.37 2.37 0 0 0 2.43 2.29z"/><path class="c" d="M1031.323 252.145l-6.747.2-1.074-36.174 6.747-.2z"/><rect class="Z" x="1022.25" y="233.51" width="12.63" height="83.89" rx="1.26" transform="translate(2064.84 520.33) rotate(178.3)"/><path class="i" d="M401.1 319.1l2.44-.7a1.35 1.35 0 0 1 1.67.95l2 7.27 4.86-1.36a1.36 1.36 0 0 1 1.67.94l.56 2-10.27 2.87zm21.8-3.2l-1 1.7a1.09 1.09 0 0 0-.08.15l-.82 1.88a1.25 1.25 0 0 0-.06.81l1.46 5.22 6.65-1.86a1.21 1.21 0 0 0 .63-1.91l-4.77-6.1a1.2 1.2 0 0 0-2.01.11z"/><path class="K" d="M388.54 323.87a2.8 2.8 0 0 0-2 3.44l6.9 24.72a2.8 2.8 0 0 0 3.45 1.94l1.95-.54 41.78-11.66a3.2 3.2 0 0 0 2.21-3.93l-3.56-12.74a4 4 0 0 0-5.09-2.73l-.18.06-17.37-21.75a3.47 3.47 0 0 0-3.63-1.18l-16.2 4.5a3.46 3.46 0 0 0-2.41 4.28l3.6 12.9zm15.64 4.34l-5-17.86a2.6 2.6 0 0 1 1.81-3.2l11.8-3.3a2.6 2.6 0 0 1 2.76.93l12.2 15.9a2.41 2.41 0 0 1-1.27 3.8l-19.32 5.4a2.41 2.41 0 0 1-2.97-1.68zM423 317.75l-3.3-1.86 1.42-2.33a1.12 1.12 0 0 0-1.91-1.16l-4.22 7a1.12 1.12 0 0 0 .37 1.53 1.13 1.13 0 0 0 .58.16 1.11 1.11 0 0 0 .95-.53l1.66-2.73 3.37 1.9a1.06 1.06 0 0 0 .54.14 1.11 1.11 0 0 0 .55-2.08z"/><path class="K" d="M479.46 328.82a3.36 3.36 0 0 0-4.12-2.32l-23.5 6.56-8.68-31.06a3.34 3.34 0 0 0-6.43 1.8l5.38 19.3-3.12.87a3.06 3.06 0 0 0 .82 6 2.91 2.91 0 0 0 .82-.12l3.13-.87 1.17 4.2-3.12.87a3.06 3.06 0 0 0 .82 6 2.89 2.89 0 0 0 .82-.11l3.3-.92a3.22 3.22 0 0 0 1.13 1.07 3.3 3.3 0 0 0 1.64.43 3.48 3.48 0 0 0 .9-.12l26.7-7.45a3.36 3.36 0 0 0 2.32-4.13z"/><circle class="b" cx="429.4" cy="341.64" r="8.35"/><circle class="b" cx="405.97" cy="348.18" r="8.35"/><circle class="c" cx="405.97" cy="348.18" r="5.47"/><circle class="c" cx="429.4" cy="341.64" r="5.47"/><rect class="i" x="456.3" y="329.06" width="6.72" height="6.72" rx="1" transform="translate(991.78 529.03) rotate(164.4)"/><rect class="i" x="470.46" y="325.11" width="6.72" height="6.72" rx="1" transform="translate(1018.52 517.47) rotate(164.4)"/><rect class="i" x="484.8" y="321.11" width="6.72" height="6.72" rx="1" transform="translate(1045.59 505.76) rotate(164.4)"/><path class="i" d="M490.956 322.076l-34.972 9.765-.955-3.42L490 318.656z"/><path class="X" d="M464.13 293.43a69.21 69.21 0 0 0-9.43 3.42s-1.2-1.07-2.14-.07.9 3.06.9 3.06l1.75 8.57c.87 3.2 3.4 12.72 4.15 13.9s1.34 2.23 1.1 3-.44 3.4 1 3.43a1.56 1.56 0 0 0 1.66-1.19 98.25 98.25 0 0 0 10.28-2 60.35 60.35 0 0 0 8.79-3.36s1.58 1.48 2.37-.32-1.18-3-1.18-3-2.38-11.26-3.57-15.64-2.07-6.2-2.58-7a3.53 3.53 0 0 1-.62-2.81c.26-1.06.2-2.6-1.08-3.15s-1.6 1.35-1.6 1.35a57.41 57.41 0 0 0-9.81 1.82z"/><circle class="M" cx="468.39" cy="308.94" r="7.91"/></svg>