<svg xmlns="http://www.w3.org/2000/svg" viewBox="662 690 1920 374.9"><style><![CDATA[.B{fill:#EDC76E}.C{fill:#997C3A}.D{fill:#23DF88}.E{fill:#52A762}]]></style><path d="M2582 1064.4H662V690s590.8 362.3 1037.7 374c508.9 13.3 882.3-127.3 882.3-127.3v127.7z" fill="#fff"/><path class="B" d="M2284.1 984.6c0 10.5.4 20.5 1.2 30.2 41.8-8.1 79.8-16.6 113.7-24.8l.1-7.6c0-134.1-57.5-204.4-57.5-204.4s-57.5 83.1-57.5 206.6z"/><path class="C" d="M2284.7 946.8c-.9.6-1.1 1.7-.6 2.6l38 58 4-.8-38.8-59.2c-.4-.9-1.6-1.2-2.6-.6.1-.1.1 0 0 0zm105-59.8c-.9-.4-2.1 0-2.5.9l-43.7 94.5v-99.3l32.3-42c.6-.8.5-2-.3-2.7-.8-.6-2-.5-2.7.3l-29.3 38.1v-94.5a2.05 2.05 0 0 0-2-1.8c-.9.1-1.7.8-1.8 1.8v170.3l-42.4-65c-.6-.9-1.7-1.1-2.6-.6-.9.6-1.1 1.7-.6 2.6l45.5 69.9v44l3.8-.8v-11.4l47.2-101.9c.5-.9.1-2-.9-2.4zm-102.1 106.9c-.7-.8-1.9-.9-2.7-.2s-.9 1.9-.2 2.7l15.5 15.5 4.5-.9-17.1-17.1z"/><path class="D" d="M2231.3 866.2c-6.8 0-47.3 1.5-71.1 38.1-19.3 29.7-51.8 99-7 132.8 65.2-9.4 124.5-20.3 176.8-31.4 8.5-35.1-13.2-79.3-27.6-101.4-23.8-36.6-64.3-38.1-71.1-38.1z"/><path class="E" d="M2240.2 1023.2l9-1.6 83-34.8-.8-1.8-91.2 38.2zm-106.7-66.3l-1.2 1.6 88.2 68 2.7-.5-89.7-69.1zm99.8 67.5V1011l95.3-48.8-.9-1.8-94.4 48.3v-37.9l77.2-53.2-1.1-1.7-76.1 52.4v-18.8l69.6-44.5-1.1-1.7-68.6 43.8v-80.7h-2v117.9l-83.7-62.3-1.2 1.6 84.9 63.2v37.9l2.1-.3z"/><path class="B" d="M2131.6 847.5s-55.4 80-57.4 199.8c40-4.6 78.2-9.8 114.5-15.5-5.4-121-57.1-184.3-57.1-184.3z"/><path class="C" d="M2077.4 1016.8c-.5-.9-1.7-1.2-2.6-.7s-1.2 1.7-.7 2.6c0 .1.1.1.1.2l17.3 26.4 4.2-.5-18.3-28zm102.3-60.4c-.9-.4-2.1 0-2.5.9l-37.8 81.7 4.5-.6 36.8-79.5c.4-.9 0-2.1-1-2.5zm-46.2 83.5v-87.3l32.3-42c.6-.8.5-2-.3-2.7-.8-.6-2-.5-2.7.3l-29.3 38.1v-94.5a2.05 2.05 0 0 0-2-1.8c-.9.1-1.7.8-1.8 1.8v170.3l-42.4-65c-.6-.8-1.8-1-2.7-.4-.8.6-1 1.6-.5 2.5l45.5 69.9v11.3l3.9-.5z"/><path class="D" d="M2093.4 968.4c-23.8-36.6-64.3-38.1-71.1-38.1s-47.3 1.5-71.1 38.1c-13.1 20.2-32.4 58.7-29.2 92 71.1-4.1 138.1-10.8 200.2-19-3.4-28-18.2-56.6-28.8-73z"/><path class="E" d="M1924.5 1021.1l-1.2 1.6 44.9 34.6 3-.2-46.7-36zm99.8 31.4V1035l77.2-53.2-1.1-1.7-76.1 52.4v-18.9l69.6-44.5-1.1-1.7-68.6 43.8v-80.8h-2v117.9l-83.7-62.3-1.2 1.6 84.9 63.2v1.7h2.1zm50.1-5.2l5.7-.7 39.5-20.2-.9-1.8-44.3 22.7z"/><path class="B" d="M1909.3 907.1s-42.3 61.1-54.3 156.4c37.2-1.2 73.4-3.2 108.6-5.8-12.2-99.1-54.3-150.6-54.3-150.6z"/><path class="C" d="M1865 1016.7c-.6-.9-1.7-1.1-2.6-.6-.9.6-1.1 1.7-.6 2.6l28.2 43.3 4.4-.2-29.4-45.1zm92.4-.7c-.9-.4-2.1 0-2.5.9l-19.8 42.7 4.3-.3 18.9-40.8c.5-1 .1-2.1-.9-2.5zm-48.1-106.6c-1 0-1.9.8-1.9 1.9v149.9l3.8-.2v-49l32.3-42c.6-.8.5-2-.3-2.7s-2-.5-2.7.3l-29.3 38.1v-94.5c-.1-1-.9-1.8-1.9-1.8z"/><path class="D" d="M1872 1030.2c-23.8-36.6-64.3-38.1-71.1-38.1s-47.3 1.5-71.1 38.1c-7 10.8-13 22.2-18 34.1 61.2 1.3 120.4.4 177.2-2.2a221.39 221.39 0 0 0-17-31.9z"/><path class="E" d="M1717.2 1048l-1.2 1.6 20.3 15.1h3.4l-22.5-16.7zm154.3-18.7l-54.9 35.1 3.8-.1 52.2-33.3-1.1-1.7zm-70.6 35.4h2v-72.3h-2v72.3zm46.6-1l3.7-.1 28.9-19.9-1.1-1.7-31.5 21.7z"/></svg>