<?xml version="1.0" encoding="utf-8"?>
<!-- Generator: Adobe Illustrator 19.0.0, SVG Export Plug-In . SVG Version: 6.00 Build 0)  -->
<svg version="1.1" id="Слой_1" xmlns="http://www.w3.org/2000/svg" xmlns:xlink="http://www.w3.org/1999/xlink" x="0px" y="0px"
	 viewBox="662 690 1920 374.9" style="enable-background:new 662 690 1920 374.9;" xml:space="preserve">
<style type="text/css">
	.st0{fill:#FFFFFF;}
	.st1{fill:#EDC76E;}
	.st2{fill:#997C3A;}
	.st3{fill:#23DF88;}
	.st4{fill:#52A762;}
</style>
<path class="st0" d="M2582,1064.4H662V690c0,0,590.8,362.3,1037.7,374c508.9,13.3,882.3-127.3,882.3-127.3V1064.4z"/>
<title>icon-</title>
<path class="st1" d="M2284.1,984.6c0,10.5,0.4,20.5,1.2,30.2c41.8-8.1,79.8-16.6,113.7-24.8c0-2.5,0.1-5,0.1-7.6
	c0-134.1-57.5-204.4-57.5-204.4S2284.1,861.1,2284.1,984.6z"/>
<path class="st2" d="M2284.7,946.8c-0.9,0.6-1.1,1.7-0.6,2.6c0,0,0,0,0,0l38,58l4-0.8l-38.8-59.2
	C2286.9,946.5,2285.7,946.2,2284.7,946.8C2284.8,946.7,2284.8,946.8,2284.7,946.8z"/>
<path class="st2" d="M2389.7,887c-0.9-0.4-2.1,0-2.5,0.9l-43.7,94.5v-23.3l0,0v-76l32.3-42c0.6-0.8,0.5-2-0.3-2.7
	c-0.8-0.6-2-0.5-2.7,0.3l-29.3,38.1v-94.5c-0.1-1-1-1.8-2-1.8c-0.9,0.1-1.7,0.8-1.8,1.8v170.3l-42.4-65c-0.6-0.9-1.7-1.1-2.6-0.6
	c-0.9,0.6-1.1,1.7-0.6,2.6l45.5,69.9v44l3.8-0.8v-11.4l47.2-101.9C2391.1,888.5,2390.7,887.4,2389.7,887z"/>
<path class="st2" d="M2287.6,993.9c-0.7-0.8-1.9-0.9-2.7-0.2c-0.8,0.7-0.9,1.9-0.2,2.7c0.1,0.1,0.1,0.1,0.2,0.2l15.3,15.3l4.5-0.9
	L2287.6,993.9z"/>
<path class="st3" d="M2231.3,866.2c-6.8,0-47.3,1.5-71.1,38.1c-19.3,29.7-51.8,99-7,132.8c65.2-9.4,124.5-20.3,176.8-31.4
	c8.5-35.1-13.2-79.3-27.6-101.4C2278.6,867.7,2238.1,866.2,2231.3,866.2z"/>
<path class="st4" d="M2240.2,1023.2l9-1.6l83-34.8l-0.8-1.8L2240.2,1023.2z"/>
<path class="st4" d="M2133.5,956.9l-1.2,1.6l88.2,68l2.7-0.5L2133.5,956.9z"/>
<path class="st4" d="M2233.3,1024.4V1011l95.3-48.8l-0.9-1.8l-94.4,48.3v-37.9l77.2-53.2l-1.1-1.7l-76.1,52.4v-18.8l69.6-44.5
	l-1.1-1.7l-68.6,43.8v-80.7h-2v117.9l-83.7-62.3l-1.2,1.6l84.9,63.2v37.9L2233.3,1024.4z"/>
<path class="st1" d="M2131.6,847.5c0,0-55.4,80-57.4,199.8c40-4.6,78.2-9.8,114.5-15.5C2183.3,910.8,2131.6,847.5,2131.6,847.5z"/>
<path class="st2" d="M2077.4,1016.8c-0.5-0.9-1.7-1.2-2.6-0.7c-0.9,0.5-1.2,1.7-0.7,2.6c0,0.1,0.1,0.1,0.1,0.2l17.3,26.4l4.2-0.5
	L2077.4,1016.8z"/>
<path class="st2" d="M2179.7,956.4c-0.9-0.4-2.1,0-2.5,0.9l-37.8,81.7l4.5-0.6l36.8-79.5C2181.1,958,2180.7,956.8,2179.7,956.4
	C2179.7,956.4,2179.7,956.4,2179.7,956.4z"/>
<path class="st2" d="M2133.5,1039.9v-11.3l0,0v-76l32.3-42c0.6-0.8,0.5-2-0.3-2.7c-0.8-0.6-2-0.5-2.7,0.3l-29.3,38.1v-94.5
	c-0.1-1-1-1.8-2-1.8c-0.9,0.1-1.7,0.8-1.8,1.8v170.3l-42.4-65c-0.6-0.8-1.8-1-2.7-0.4c-0.8,0.6-1,1.6-0.5,2.5l45.5,69.9v11.3
	L2133.5,1039.9z"/>
<path class="st3" d="M2093.4,968.4c-23.8-36.6-64.3-38.1-71.1-38.1s-47.3,1.5-71.1,38.1c-13.1,20.2-32.4,58.7-29.2,92
	c71.1-4.1,138.1-10.8,200.2-19C2118.8,1013.4,2104,984.8,2093.4,968.4z"/>
<path class="st4" d="M1924.5,1021.1l-1.2,1.6l44.9,34.6l3-0.2L1924.5,1021.1z"/>
<path class="st4" d="M2024.3,1052.5V1035l77.2-53.2l-1.1-1.7l-76.1,52.4v-18.9l69.6-44.5l-1.1-1.7l-68.6,43.8v-80.8h-2v117.9
	l-83.7-62.3l-1.2,1.6l84.9,63.2v1.7L2024.3,1052.5z"/>
<path class="st4" d="M2074.4,1047.3l5.7-0.7l39.5-20.2l-0.9-1.8L2074.4,1047.3z"/>
<path class="st1" d="M1909.3,907.1c0,0-42.3,61.1-54.3,156.4c37.2-1.2,73.4-3.2,108.6-5.8C1951.4,958.6,1909.3,907.1,1909.3,907.1z"
	/>
<path class="st2" d="M1865,1016.7c-0.6-0.9-1.7-1.1-2.6-0.6c-0.9,0.6-1.1,1.7-0.6,2.6l28.2,43.3l4.4-0.2L1865,1016.7z"/>
<path class="st2" d="M1957.4,1016c-0.9-0.4-2.1,0-2.5,0.9c0,0,0,0,0,0l-19.8,42.7l4.3-0.3l18.9-40.8
	C1958.8,1017.5,1958.4,1016.4,1957.4,1016z"/>
<path class="st2" d="M1909.3,909.4c-1,0-1.9,0.8-1.9,1.9l0,0v149.9l3.8-0.2v-49l32.3-42c0.6-0.8,0.5-2-0.3-2.7s-2-0.5-2.7,0.3
	l-29.3,38.1v-94.5C1911.1,910.2,1910.3,909.4,1909.3,909.4z"/>
<path class="st3" d="M1872,1030.2c-23.8-36.6-64.3-38.1-71.1-38.1s-47.3,1.5-71.1,38.1c-7,10.8-13,22.2-18,34.1
	c61.2,1.3,120.4,0.4,177.2-2.2C1884.2,1051,1878.5,1040.3,1872,1030.2z"/>
<path class="st4" d="M1717.2,1048l-1.2,1.6l20.3,15.1h3.4L1717.2,1048z"/>
<path class="st4" d="M1871.5,1029.3l-54.9,35.1l3.8-0.1l52.2-33.3L1871.5,1029.3z"/>
<path class="st4" d="M1800.9,1064.7h2v-72.3h-2V1064.7z"/>
<path class="st4" d="M1847.5,1063.7l3.7-0.1l28.9-19.9l-1.1-1.7L1847.5,1063.7z"/>
</svg>
