<svg xmlns="http://www.w3.org/2000/svg" viewBox="0 0 1222.85 618.46"><style><![CDATA[.A{fill:#23df88}.D{fill:#19915f}.E{fill:#335991}.F{fill:#fff}.H,.I{fill:#ffd876}.Z,.H{opacity:0.18}.K,.V,.W{fill:none}.N{fill:#f4cb67}.O{fill:#997c3a}.Q{fill:#9ea379}.R{fill:#7b4a3c}.S,.U,.Z{fill:#000105}.S{opacity:0.39}.T{fill:#050809}.V{stroke:#000105;opacity:0.4}.V,.W{stroke-linecap:round;stroke-miterlimit:10;stroke-width:9.38px}.W{stroke:#e7a695}.Y,.c{fill:#1f2017}.Y{opacity:0.26}.a{fill:#dad7d1}]]></style><path class="A" d="M168.62 377.8s-105 1.25-105 18.27S-10.16 378 1.2 417.56s167.43-24.3 191.55 26.77 55.34 53.92 119.2 53.92 45.4 39.7 132 58.16 62.43 7.1 205.74 39.74 231.3 28.38 283.8-5.67 36.9-68.34 89.4-92.35 185.9-43.87 181.63-97.8 58.18-79.46-25.54-93.65-106.42-27-211.42 11.35-156.13 61.35-319.3 59.77-479.6 0-479.6 0z"/><path d="M299 362.23c22 2.16 51 13.67 55 14.52l2.08.44 292.14.62C811.4 379.4 862.48 356.35 967.5 318c21.93-8 40.26-13.77 56.32-17.76C929.42 187.35 560.37 0 429 0 294 0 304 139.08 268 215.08s9 145 31 147.15z" fill="#effafc"/><path class="D" d="M576.24 440.58s12.58 10 17.56 22.08c0 0-1.78-28.6-3.9-37.74 0 0 6.28 12.34 7.94 25.5 0 0 5.58-18 19.46-29.78 0 0-9.73 14.47-10 25.62 0 0 8.42-13.88 19.7-14.83 0 0-20.3 14.83-22.66 38.68H588.6s-5.22-19.46-12.34-29.54zm150.36 64.87s12.57 10 17.56 22.1c0 0-1.78-28.6-3.92-37.75 0 0 6.3 12.34 8 25.5 0 0 5.58-18 19.46-29.78 0 0-9.73 14.48-10 25.63 0 0 8.42-13.88 19.7-14.83 0 0-20.28 14.83-22.65 38.68h-15.8s-5.22-19.46-12.34-29.55zM309.93 404.6s12.58 10 17.56 22.08c0 0-1.78-28.6-3.92-37.74 0 0 6.3 12.34 7.95 25.5 0 0 5.58-18 19.46-29.78 0 0-9.73 14.47-10 25.62 0 0 8.43-13.88 19.7-14.83 0 0-20.3 14.83-22.66 38.68h-15.75s-5.22-19.46-12.34-29.54zm634.67 29.6s11.84 9.4 16.54 20.8c0 0-1.68-27-3.7-35.57 0 0 5.92 11.63 7.5 24 0 0 5.25-17 18.33-28.06 0 0-9.17 13.64-9.4 24.14 0 0 7.94-13.07 18.56-14 0 0-19.12 14-21.35 36.44H956.2s-4.92-18.26-11.62-27.76zm-542.93 15.9s15.45 25.54 18.14 35.62h16.8s.34-33.94 5-44.7c0 0-11.42 25.62-12.18 36.46 0 0-9.83-38.06-20.4-40.07 0 0 15.88 25.7 15.12 43.34.04 0-15.75-31.83-22.47-30.66zM768.64 411s15.45 25.53 18.14 35.6h16.8s.34-33.93 5-44.7c0 0-11.42 25.62-12.18 36.46 0 0-9.83-38.05-20.4-40.07 0 0 15.88 25.7 15.12 43.35.04-.03-15.75-31.87-22.47-30.66zm283.9-76.32s15.45 25.54 18.14 35.62h16.8s.34-33.94 5-44.7c0 0-11.42 25.62-12.18 36.46 0 0-9.83-38.05-20.4-40.07 0 0 15.88 25.7 15.12 43.35 0 0-15.75-31.84-22.47-30.67z"/><path class="E" d="M514 377.15l81 .27-134.16-134.16-36.25 36.25z"/><path class="F" d="M498 280.32l-18.96 18.96-17.84-17.84-17.6 17.58-19.02-19.64 36.34-36.12L498 280.32z"/><path d="M334.66 186.87L254.74 266c-3.13 53.45 27.35 94.58 44.26 96.23 22 2.16 51 13.67 55 14.52l2.08.44h162.8l-184.2-190.32z" fill="#4b83c6"/><path class="F" d="M389.44 243.26l-20.06 20.06-18.12-18.1-17.93 17.93-19.36-19.35-19.27 19.27-17.86-18.94 57.82-57.25 54.78 56.4z"/><circle class="H" cx="525.11" cy="139.45" r="56.22"/><circle class="I" cx="525.11" cy="139.45" r="39.51"/><path d="M375.43 106.72a26.24 26.24 0 0 0-50.78-13.21h-1.45a19.13 19.13 0 1 0-30.91-2.39 35.52 35.52 0 0 0-60.19 25.56v1.16a26.23 26.23 0 1 0-21.48 41.28 27.72 27.72 0 0 0 2.9-.16v.16h162.72v-.2a26.23 26.23 0 0 0-.83-52.17z" fill="#b7f3d7" opacity=".6"/><rect class="E" x="782.38" y="181.53" width="21.8" height="21.8" rx="4.99"/><path d="M794.82,66.62a52.66,52.66,0,0,1,0,105.31" fill="#f25a5a"/><path d="M803.75 171.1c7.66-7.26 17.47-22.3 17.47-51.84a144.66 144.66 0 0 0-9.1-49.68 52.47 52.47 0 0 0-17.3-3v105.34a52.58 52.58 0 0 0 8.93-.82z" fill="#ff8a8a"/><path class="F" d="M794.82,171.93a52.66,52.66,0,1,1,0-105.31"/><path class="I" d="M777.5 69.6a144.66 144.66 0 0 0-9.1 49.68c0 29.53 9.8 44.58 17.47 51.84a52.6 52.6 0 0 0 8.94.82V66.62a52.48 52.48 0 0 0-17.31 2.97z"/><path class="N" d="M192.43 402.17s28.75-29.8 28.75-96.88-28.75-102.2-28.75-102.2-28.74 41.5-28.74 103.26 28.74 95.8 28.74 95.8z"/><path class="O" d="M217.08 258.84a1.07 1.07 0 1 0-1.9-1v.1l-21.68 46.8v-49.14l16.14-21a1.07 1.07 0 0 0-1.62-1.39l-.07.1-14.45 18.85v-46.9a1.07 1.07 0 0 0-2.13-.15.38.38 0 0 0 0 .15V290l-21-32.2a1.07 1.07 0 1 0-1.83 1.09.35.35 0 0 0 .05.08l22.73 34.92v33.37l-25.93-39.6a1.06 1.06 0 1 0-1.78 1.16l27.73 42.35v5.63l-25.86-25.86a1.06 1.06 0 0 0-1.51 1.5l27.38 27.38V400a1.07 1.07 0 0 0 2.13 0v-90.2z"/><path class="N" d="M121.74 402.17s22-22.78 22-74-22-78.08-22-78.08-22 31.72-22 78.9 22 73.2 22 73.2z"/><path class="O" d="M140.57 292.67a.82.82 0 0 0-.35-1.1.82.82 0 0 0-1.1.35v.07l-16.54 35.73v-37.5l12.33-16a.81.81 0 0 0-.08-1.15.82.82 0 0 0-1.15.09l-.06.07-11 14.33V251.7a.82.82 0 0 0-.76-.87.81.81 0 0 0-.86.76.2.2 0 0 0 0 .11v64.76l-16-24.6a.82.82 0 0 0-1.12-.28.81.81 0 0 0-.28 1.12l17.38 26.68V345l-19.88-30.32a.81.81 0 0 0-1.36.89l21.2 32.35v4.3l-19.76-19.76a.81.81 0 0 0-1.15 1.15l20.92 20.9v46a.81.81 0 0 0 1.62 0V331.6z"/><path class="N" d="M263.35 402.17s22-22.78 22-74-22-78.08-22-78.08-22 31.72-22 78.9 22 73.2 22 73.2z"/><path class="O" d="M282.18 292.67a.82.82 0 0 0-1.45-.75v.07l-16.53 35.73v-37.5l12.33-16a.82.82 0 0 0-1.24-1.06l-.06.07-11 14.33V251.7a.83.83 0 0 0-.76-.87.82.82 0 0 0-.87.76v64.87l-16-24.6a.82.82 0 1 0-1.4.84l17.37 26.68V345l-19.82-30.27a.81.81 0 0 0-1.36.89l21.2 32.35v4.3l-19.76-19.76a.81.81 0 0 0-1.15 0 .83.83 0 0 0 0 1.15l20.92 20.9v46a.82.82 0 0 0 .87.76.83.83 0 0 0 .76-.76v-69z"/></svg>