<svg xmlns="http://www.w3.org/2000/svg" viewBox="0 0 862.96 215.33"><style><![CDATA[.A{fill:#effafc}.B{fill:#23df88}]]></style><path class="A" d="M427.33 160c18.45 0 36-3.8 59.83-2.6-11.84-6.66-24.4-14.4-33.16-18.07-20.67-8.68-31.33 8.68-59.33 2.68-18.6-4-29.3 1.07-34.43 4.9 23.54 7.55 51.2 13.1 67.1 13.1zM488 139.32c25.5 2.72 33.85 11 32.63 22.77 15.16 3.44 32.65 9 53.37 17.9 79.33 34 48-105.33 134.67-105.33a102.33 102.33 0 0 1 7.26.27c-4.24-3.15-8.25-5.36-11.93-5.6C684 68 669 95 613 94.75S561.67 137 546.33 142s-24-10-39.33-22.33-47 16.66-19 19.65zM233.7 70.2c-32.87-4-71.7-12.06-82.38-28.2C132 12.67 102.67 17.33 88 32s-44 6.67-64 4c-7.85-1-13.24-.35-16.9.9A10.62 10.62 0 0 0 0 47v139c0 13.1 17.84 21.23 29.54 25.15A55.14 55.14 0 0 0 47 214h23.67C77 201.9 135.64 95.58 233.7 70.2zM840.33 0c-25 0-34.83 34-60.83 82-3.2 5.92-6.47 10.2-9.76 13.17 32.3 23.42 52.36 62.13 56.75 90.4l35.7-1.93.7-132.3S865.33 0 840.33 0z"/><path class="B" d="M856.14 175.16A254.21 254.21 0 0 0 821 164.59c7.52 20.84 8.64 39.74 2.36 49.38H556.7q-.86 0-1.7 0h238s60.34 10.6 69-28a9.45 9.45 0 0 0-5.86-10.81z"/><path class="B" d="M862 186a9.45 9.45 0 0 0-5.83-10.82A268.73 268.73 0 0 0 754 158c-62 2-146 56-199 56h238s60.34 10.6 69-28z"/><path d="M70.67 214S146 64.7 276.67 64.7s67.33 36 44.66 52S392 160 427.33 160s67.34-14 146.67 20S622 74.67 708.67 74.67 842 185.28 823.33 214H70.67z" fill="#bee9f7"/></svg>