<svg xmlns="http://www.w3.org/2000/svg" viewBox="0 0 865.89 745.78"><style><![CDATA[.C{fill:#23df88}.D{fill:#17ad62}]]></style><path d="M327.25,568q18.74,12.9,38.52,28.18c240,186,500.12,146,500.12,146V541.3C694.55,546,492.24,554,327.25,568Z" fill="#4cff8f"/><path d="M865.9 541.3V110.16S721 0 475 0 177.77 32.16 109.77 122.16 0 322.16 0 414.16c0 86.95 112.33 6 327.25 153.82C492.24 554 694.55 546 865.9 541.3z" fill="#effafc"/><path class="C" d="M777 544.93c-10.5-16.13-28.33-16.78-31.34-16.78s-20.85.64-31.3 16.78C702.9 562.5 681 611.53 745.2 612h.9c64.2-.47 42.3-49.5 30.9-67.07z"/><path class="D" d="M790.16 581.3l-.35-.8-43.28 18.14v-6.65l42-21.5-.4-.8-41.6 21.3v-16.7l34.04-23.42-.5-.73-33.54 23.08v-8.3l30.7-19.6-.47-.74-30.22 19.3v-35.58h-.88v51.95l-36.9-27.47-.53.7 37.42 27.87v20.05l-43.08-33.24-.54.7 43.62 33.66V622h.88v-22.43l43.63-18.28z"/><path class="C" d="M714.34 544.93C703.83 528.8 686 528.15 683 528.15s-20.85.64-31.3 16.78c-11.44 17.56-33.34 66.6 30.87 67.07h.9c64.2-.47 42.3-49.5 30.88-67.07z"/><path class="D" d="M727.5 581.3l-.34-.8-43.28 18.14v-6.65l42-21.5-.4-.8-41.6 21.3v-16.7l34.03-23.42-.5-.73-33.53 23.08v-8.3l30.68-19.6-.47-.74-30.2 19.3v-35.58h-.9v51.95l-36.9-27.47-.52.7 37.4 27.87v20.05l-43.08-33.24-.54.7L683 602.5V622h.9v-22.43l43.62-18.28z"/><path class="C" d="M644.8 544.93c-10.5-16.13-28.32-16.78-31.33-16.78s-20.85.64-31.32 16.78C570.73 562.5 548.82 611.53 613 612h.9c64.24-.47 42.34-49.5 30.92-67.07z"/><path class="D" d="M657.98 581.3l-.34-.8-43.28 18.14v-6.65l42-21.5-.4-.8-41.6 21.3v-16.7l34.03-23.42-.5-.73-33.53 23.08v-8.3l30.7-19.6-.48-.74-30.2 19.3v-35.58h-.88v51.95l-36.9-27.47-.52.7 37.42 27.87v20.05l-43.1-33.24-.53.7 43.62 33.66V622h.88v-22.43l43.62-18.28z"/><path d="M632.88 685.66s54.28-56.3 54.28-182.92-54.28-193-54.28-193-54.27 78.4-54.27 195 54.27 180.92 54.27 180.92z" fill="#f4cb67"/><path d="M679.4 415a2 2 0 1 0-3.57-1.86 1.3 1.3 0 0 0-.08.17l-40.87 88.32v-92.7l30.48-39.55a2 2 0 0 0-3-2.64 1.33 1.33 0 0 0-.14.19l-27.3 35.4v-88.57a2 2 0 0 0-4-.26 1.13 1.13 0 0 0 0 .26v160.08l-39.6-60.77a2 2 0 1 0-3.47 2.06l.1.14 42.93 65.94v63l-49-74.8a2 2 0 0 0-3.37 2.2l52.37 80v10.62L582 513.4a2 2 0 1 0-2.84 2.84l51.7 51.7v113.64a2 2 0 0 0 4 0V511.23z" fill="#997c3a"/></svg>