<svg xmlns="http://www.w3.org/2000/svg" viewBox="0 0 130.94 253.26"><path d="M126.23 67.16C126.23 3.62 74.6 1 66 1h-.18C57.24 1 5.6 3.62 5.6 67.16c0 68.7-26.3 118.84 59.2 119.7h2.25c85.48-.86 59.18-51 59.18-119.7z" fill="#fed36b"/><path d="M130.84 140.76a1 1 0 0 0-1.35-.45c-21.75 10.92-53.85 26.7-62.1 30l-.23-24.7L129 120.86a1 1 0 1 0-.74-1.86l-61.12 24.44-.07-7.37 61.57-30.27a1 1 0 1 0-.88-1.8l-60.7 29.85-.34-35.5 59.87-36.7a1 1 0 0 0 .33-1.37 1 1 0 0 0-1.38-.33L66.7 96l-.08-8.63 58.9-35.32a1 1 0 0 0-1-1.72L66.6 85.08l-.1-12a1 1 0 0 0 0-.87l-.15-16.18L113.4 23a1 1 0 1 0-1.15-1.64L66.3 53.63 66.08 31a1.19 1.19 0 0 0 .23-.16L89.93 6a1 1 0 0 0-1.45-1.38L66.05 28.2 65.8 1a1 1 0 1 0-2 0l.66 69.9-55.1-30.6a1 1 0 1 0-1 1.74L64.48 73.2l.13 13.6a.74.74 0 0 0 0 .21l.1 10.43a1 1 0 0 0 0 .9l.1 9.94-58.4-56.8A1 1 0 0 0 5 52.91l59.8 58.2.23 23.76a1 1 0 0 0-.37 1.27 1 1 0 0 0 .38.41l.08 7.7a1 1 0 0 0-.49 1.26 1 1 0 0 0 .5.52l.1 9.17-63.7-39.27a1 1 0 0 0-1.37.33 1 1 0 0 0 .33 1.37l64.8 39.94.13 13.43a1 1 0 0 0-.81 1 1 1 0 0 0 .83 1l.74 79.38a1 1 0 1 0 2 0l-.75-79.87c9.86-3.7 53.6-25.57 63-30.28a1 1 0 0 0 .43-1.47z" fill="#b29450"/></svg>