<?xml version="1.0" encoding="utf-8"?>
<!-- Generator: Adobe Illustrator 19.0.0, SVG Export Plug-In . SVG Version: 6.00 Build 0)  -->
<svg version="1.1" id="Слой_1" xmlns="http://www.w3.org/2000/svg" xmlns:xlink="http://www.w3.org/1999/xlink" x="0px" y="0px"
	 viewBox="0 0 54.2 187" style="enable-background:new 0 0 54.2 187;" xml:space="preserve">
<style type="text/css">
	.st0{fill:#F4CB67;}
	.st1{fill:#997C3A;}
</style>
<g>
	<path class="st0" d="M27.2,187c0,0,27-28,27-91s-27-96-27-96s-27,39-27,97S27.2,187,27.2,187"/>
	<path class="st1" d="M49.9,51c-0.5-0.2-1.1,0-1.3,0.5L28.2,95.5V49.3l15.2-19.7c0.3-0.4,0.3-1.1-0.2-1.4c-0.4-0.3-1.1-0.3-1.4,0.2
		L28.2,46.1V2c0-0.6-0.4-1-1-1c-0.6,0-1,0.4-1,1v79.6L6.5,51.4c-0.3-0.5-0.9-0.6-1.4-0.3c-0.5,0.3-0.6,0.9-0.3,1.4l21.4,32.8v31.4
		L1.8,79.4c-0.3-0.5-0.9-0.6-1.4-0.3c-0.5,0.3-0.6,0.9-0.3,1.4l26.1,39.8v5.3L1.9,101.3c-0.4-0.4-1-0.4-1.4,0s-0.4,1,0,1.4
		l25.7,25.7V185c0,0.6,0.4,1,1,1c0.6,0,1-0.4,1-1v-84.7l22.1-47.9C50.6,51.9,50.4,51.3,49.9,51z"/>
</g>
</svg>
