<svg xmlns="http://www.w3.org/2000/svg" viewBox="0 0 54.2 187"><path d="M27.2 187s27-28 27-91-27-96-27-96-27 39-27 97 27 90 27 90" fill="#f4cb67"/><path d="M49.9 51c-.5-.2-1.1 0-1.3.5l-20.4 44V49.3l15.2-19.7c.3-.4.3-1.1-.2-1.4-.4-.3-1.1-.3-1.4.2L28.2 46.1V2a.94.94 0 0 0-1-1 .94.94 0 0 0-1 1v79.6L6.5 51.4c-.3-.5-.9-.6-1.4-.3s-.6.9-.3 1.4l21.4 32.8v31.4L1.8 79.4c-.3-.5-.9-.6-1.4-.3s-.6.9-.3 1.4l26.1 39.8v5.3L1.9 101.3c-.4-.4-1-.4-1.4 0s-.4 1 0 1.4l25.7 25.7V185a.94.94 0 0 0 1 1 .94.94 0 0 0 1-1v-84.7l22.1-47.9c.3-.5.1-1.1-.4-1.4z" fill="#997c3a"/></svg>