<svg xmlns="http://www.w3.org/2000/svg" viewBox="0 0 197.66 208.76"><path d="M168.36 37.32C145 1.43 105.32 0 98.66 0S52.3 1.43 29 37.32C3.56 76.4-45.16 185.5 97.68 186.5h2c142.8-1 94.08-110.1 68.68-149.2z" fill="#23df88"/><path d="M197.66 118.22l-.76-1.8-96.28 40.34v-14.78l93.43-47.83-.9-1.75-92.54 47.38v-37.15l75.7-52.1-1.12-1.6-74.6 51.34V81.76l68.27-43.6-1.06-1.66-67.2 42.94V.28h-1.96v115.58L16.6 54.75l-1.17 1.57 83.24 62v44.62L2.83 88.98l-1.2 1.55 97.03 74.88v43.35h1.96v-49.9l97.04-40.65z" fill="#17ad62"/></svg>