<svg id="Image" xmlns="http://www.w3.org/2000/svg" viewBox="0 0 270 190"><defs><style>.cls-1{fill:#ce202e;}.cls-2{fill:#fff;}</style></defs><title>Image_Free</title><g id="_1" data-name="1"><rect class="cls-1" width="270" height="190"/><path class="cls-2" d="M171.38,107.84l-2.25,7.59c-3.95-1.6-7.88-3.1-11.73-4.8-1.59-.7-2.4-0.39-3.52.93-6.58,7.76-15,10.63-24.9,8.44-1.94-.43-2.79.07-3.65,1.68-1.44,2.69-3.1,5.27-4.76,8,3.12,3,5.83,6.33,6.39,10.9,1.12,9.09-3.68,18-14.2,20.07A17.77,17.77,0,0,1,92.4,147.22a17,17,0,0,1,3.35-14.39c4.12-5.31,9.55-7.19,16-7a3.51,3.51,0,0,0,2.56-1.33c1.61-2.32,2.9-4.85,4.42-7.23,0.73-1.14.64-1.81-.39-2.76-6.23-5.75-9.08-12.86-8.06-21.35,0.17-1.42-.47-1.91-1.62-2.37-6-2.38-12-4.74-17.87-7.32a5.36,5.36,0,0,1-2.91-3,4.36,4.36,0,0,1,1.24-3.85,5.84,5.84,0,0,1,4.56-.39c5.46,2,10.83,4.22,16.15,6.54,2.24,1,3.47,1,5.09-1.35a24.09,24.09,0,0,1,27.65-8.7c2,0.69,2.72.19,3.65-1.41,3.14-5.44,6.38-10.82,9.68-16.17,1.69-2.75,4.86-3,6.66-.74,1.33,1.69,1,3.34,0,5-3.23,5.39-6.39,10.82-9.7,16.16-1,1.63-1.08,2.63.33,4.2A23.3,23.3,0,0,1,159,100.17c-0.3,1.75,0,2.71,1.79,3.36C164.35,104.84,167.86,106.4,171.38,107.84Z"/><path class="cls-2" d="M164.06,66c0.94-1.6,1.79-3,2.61-4.42,2.55-4.43,1.42-9.46-2.68-12-4.27-2.6-9.24-1.29-12,3.17-0.48.78-1,1.56-1.52,2.43-3-5.4-1.55-15,5-20.28a17.84,17.84,0,0,1,26.62,22.92C178.33,64.18,169.89,68.1,164.06,66Z"/><path class="cls-2" d="M103,75l-7.9-3.16c-4.81-1.92-9.65,0-11.54,4.54s0.19,9.18,4.86,11.23c2.49,1.1,5,2.08,7.62,3.15C92,95.2,82.78,95.89,76.67,92.37a17.85,17.85,0,0,1-8-21.14c2.67-8.16,10.48-12.89,19.65-11.89C95.69,60.16,102.19,66.87,103,75Z"/><path class="cls-2" d="M203.66,115.77h0l0-.18,0-.18a17.66,17.66,0,0,0-.84-3.58l0-.13-0.2-.53-0.11-.26-0.16-.38-0.17-.37-0.13-.27-0.22-.44-0.11-.2-0.25-.46-0.12-.2-0.25-.42-0.2-.32-0.18-.27a16.73,16.73,0,0,0-11.74-7.44l-0.27,0a18.18,18.18,0,0,0-13.94,3.74C168.76,108.61,167,117,169,122.54a17.42,17.42,0,0,0,16.24,12.84,13.67,13.67,0,0,0,6.27-.75A13,13,0,0,0,195,133a18.33,18.33,0,0,0,6.28-6.2A17.73,17.73,0,0,0,203.66,115.77Z"/></g></svg>