<svg id="Image" xmlns="http://www.w3.org/2000/svg" viewBox="0 0 270 190"><defs><style>.cls-1{fill:#fff;}.cls-2{fill:#ccc;}.cls-3{fill:#ce202e;}.cls-4{fill:#f2f2f2;stroke:#ccc;stroke-miterlimit:10;}</style></defs><title>Image_Free</title><g id="_2" data-name="2"><rect class="cls-1" x="0.5" y="0.5" width="270" height="190"/><polygon class="cls-3" points="142.19 92.1 129.19 92.1 129.19 103.8 114.89 103.8 114.89 119.4 129.19 119.4 129.19 131.1 142.19 131.1 142.19 119.4 156.49 119.4 156.49 103.8 142.19 103.8 142.19 92.1"/><path class="cls-4" d="M158.56,63c-1.12-.46-2.7-2.07-2.57-2.92-0.14-6.82-.09-7-0.09-7s-33,.1-40.67.1c-0.12,2.36.15,4.14-.38,5.64S113.3,62.5,112,63.05c-15.65,6.42-23,18.23-23,34.84-0.06,13,.1,26.1,0,39.15-0.06,7.11,2.52,12.41,9,15.75,1.2,0.62,2.59,2.47,2.53,3.68-0.24,4.34,2.26,4.51,5.46,4.5q29.23-.08,58.46,0c3.07,0,5.27-.28,5.23-4.25a5.09,5.09,0,0,1,2.61-3.68c5.53-2.56,8.46-6.92,8.65-12.74,0.46-14,.59-28,0.74-42.07C181.77,81.41,174.37,69.47,158.56,63Zm-23.37,79.6a31.11,31.11,0,1,1,31.11-31.11A31.14,31.14,0,0,1,135.19,142.58Z"/><path class="cls-2" d="M115.2,49.23c6.6-.16,13.2,0,19.8,0,4.57,0,9.14,0,13.71,0,13.44-.14,11.89,1.92,12.19-12.25,0.09-4.35-1.39-6-5.86-5.94-10.83.23-21.66,0-32.49,0.1-14.19.17-12.42-2.53-12.61,13.22C109.89,48.16,111.63,49.32,115.2,49.23Z"/></g></svg>