<svg id="Image" xmlns="http://www.w3.org/2000/svg" viewBox="0 0 270 190"><defs><style>.cls-1{fill:#4d4d4d;}.cls-2{fill:#fff;}</style></defs><title>Image_Free</title><g id="_3" data-name="3"><rect class="cls-1" width="270" height="190"/><path class="cls-2" d="M136.47,144.53c-5.23,3.8-10,7.77-15.31,10.94A40.2,40.2,0,0,1,109,160.36c-9.47,2-16-2.69-18-12.2-1.78-8.35-.53-16.54,1.21-24.71,0.18-.86.32-1.74,0.49-2.66-3.73-1.4-7.36-2.6-10.87-4.1a44.66,44.66,0,0,1-14-8.88c-7-6.79-7.15-15.05-.39-22,6-6.21,13.67-9.64,21.64-12.45,4-1.41,4-1.36,3.08-5.45-1.79-8.35-2.89-16.76-.71-25.19,2.44-9.43,9.23-13.37,18.76-11s16.82,8.06,23.93,14.26l2.05,1.8c2.68-2.22,5.18-4.43,7.83-6.44,5.75-4.37,11.8-8.15,19-9.74,8.26-1.83,14.62,1.51,17.49,9.42,2.35,6.48,2.08,13.15,1.11,19.82-0.42,2.9-1,5.77-1.68,8.62-0.37,1.57.18,2.15,1.62,2.59,6.67,2,13.11,4.57,18.76,8.73a34,34,0,0,1,6.07,5.63c4.75,5.75,4.67,12.24.07,18.13-3.61,4.62-8.43,7.7-13.6,10.19a114.64,114.64,0,0,1-11.33,4.57c-1.7.6-2.28,1.14-1.76,3.08a60.29,60.29,0,0,1,2.08,21.56,31.23,31.23,0,0,1-2.09,8.74c-3,7.3-9.94,10-18.66,7.51-7.14-2-13.14-6.07-18.84-10.63C140.25,147.85,138.31,146.11,136.47,144.53Zm0.78-71.91V72.43c-4.07.25-8.15,0.43-12.2,0.8a3.78,3.78,0,0,0-2.59,1.35c-4.06,6.5-8,13-11.86,19.68a4.22,4.22,0,0,0,0,3.56q5.66,9.86,11.72,19.49a4.1,4.1,0,0,0,2.94,1.63c7.17,0.12,14.35.13,21.51-.08a5,5,0,0,0,3.54-2q6-9.38,11.5-19a4.36,4.36,0,0,0,0-3.57,124.53,124.53,0,0,0-7.28-13c-6.85-10.15-3.26-8.19-15.37-8.62C138.56,72.6,137.9,72.62,137.25,72.62Zm-7.14-18.83c-4.56-3.43-9.34-6.17-15-6.95-4.41-.61-8.36.61-10.89,4.5-3.63,5.58-3.63,11.76-2.68,18.15a9.4,9.4,0,0,0,1.19,0c5.3-.82,10.6-1.64,15.89-2.51a2.5,2.5,0,0,0,1.42-.78C123.37,62.17,126.63,58.11,130.11,53.79Zm40.79,68.64c-5.47.83-10.59,1.66-15.72,2.37a5.46,5.46,0,0,0-4,2.37c-2,2.75-4.29,5.33-6.47,8-0.8,1-1.64,1.91-2.58,3,4.35,3.13,8.6,5.67,13.54,6.71,4.36,0.92,8.62.55,11.64-3.15C172,136,171.72,129.28,170.89,122.43Zm-69.59.65c-0.53,6-.7,11.81,2.57,17.13a9.46,9.46,0,0,0,6.87,4.68c7.53,1,13.44-2.63,19.29-6.72-3.38-4.18-6.53-8.12-9.74-12a2.78,2.78,0,0,0-1.63-.89C113,124.51,107.38,123.83,101.3,123.08ZM142.35,53.9c2,2.34,4.1,4.32,5.59,6.71,2.74,4.4,6.21,6.8,11.62,6.8,3.76,0,7.52,1,11.54,1.65,0.51-6.21.79-12.1-2.67-17.44a10.09,10.09,0,0,0-9.34-4.81C152.73,47.08,147.49,50.11,142.35,53.9Zm34.92,25.88c-2.29,5.37-4.44,10.38-6.55,15.4a2.06,2.06,0,0,0-.09,1.42c2,4.95,4.15,9.88,6.23,14.8,4.65-1.42,10.52-5.75,13-9.56A10.7,10.7,0,0,0,189.77,89C186.65,84.62,182.16,82,177.28,79.78Zm-81.7.56c-5.38,2.5-10.17,5.32-13.28,10.29-1.72,2.74-2.46,5.73-1.3,8.86,2.49,6.75,8.19,9.85,14.29,12.75,1.51-3.78,2.51-7.37,4.3-10.52a10.61,10.61,0,0,0,0-11.56C97.92,87.16,96.95,83.76,95.57,80.34Zm70.79,7.57c1.13-3.72,2.11-6.79,2.94-9.89a1.67,1.67,0,0,0-.9-1.36c-3.18-.87-6.39-1.6-10.32-2.56Zm-52.8,29.81,0.33-.55-7.79-13.07c-1.17,3.74-2.16,6.77-3,9.84a1.51,1.51,0,0,0,.69,1.31C107,116.14,110.3,116.91,113.57,117.72ZM102.83,77.39l3.33,10.36,7.51-12.5-0.36-.5Zm56,39.2,0.39,0.63c3-.79,6.08-1.53,9.08-2.41a1.66,1.66,0,0,0,.78-1.43c-0.79-2.86-1.71-5.68-2.81-9.18Zm-29.2-51.33L130,65.86h12.92l-7-6.63ZM130,126.09l-0.65,1c1.94,1.71,3.85,3.46,5.85,5.1a1.82,1.82,0,0,0,1.64.27c2-1.9,4-3.92,6.35-6.33H130Z"/><path class="cls-2" d="M136.2,81.64a14.28,14.28,0,0,1,14.41,14.21,14.4,14.4,0,1,1-28.79.27A14.27,14.27,0,0,1,136.2,81.64Z"/></g></svg>