<svg id="Image" xmlns="http://www.w3.org/2000/svg" viewBox="0 0 270 190"><defs><style>.cls-1{fill:#fff;}.cls-2{fill:#ccc;}.cls-3{fill:#ce202e;}</style></defs><title>Image_Free</title><g id="_4" data-name="4"><rect class="cls-1" x="0.5" y="0.5" width="270" height="190"/><path class="cls-3" d="M125.61,149.27a42.39,42.39,0,0,1-5.42-1.4,3.45,3.45,0,0,1,.41-0.49,15,15,0,0,0,6.76-12.28,1.5,1.5,0,0,1,1.11-1.55c2-.8,4-1.68,6-2.48,5.63-2.28,11.28-4.52,16.9-6.81,7.23-3,14.45-6,21.67-8.93l1.39-.58c-1.16-2.9-2.24-5.63-3.35-8.34-0.24-.57-0.35-1.26-1.41-0.81-6.28,2.66-12.6,5.24-18.91,7.81q-13.13,5.35-26.29,10.66c-5.54-7.9-19.83-9.73-27.37,1a77.9,77.9,0,0,1-1.84-9.18,37,37,0,0,1,.67-11.51,37.6,37.6,0,0,1,10.33-18.71,50.43,50.43,0,0,1,6.41-5.16,34.39,34.39,0,0,1,11.69-5,1.33,1.33,0,0,1,1.16.53c1.72,4.16,3.36,8.36,5,12.6l23.12-9.35c-0.6-1.41-1.13-2.57-1.59-3.77-3.39-8.79-6.79-17.57-10.11-26.39-0.37-1-.71-0.88-1.45-0.59-5.38,2.13-10.77,4.23-16.15,6.36-2.14.85-4.25,1.75-6.35,2.61l2.89,7.19c-18.77,5.87-31.29,17.69-35.61,36.83s1.78,35.14,16.23,48.36h30C129.54,149.73,127.57,149.52,125.61,149.27Zm-14.44-10.11c-3.52,0-5.25-2.2-5.31-5.15s1.79-5.32,5.31-5.25,5.27,2.13,5.25,5.19A4.87,4.87,0,0,1,111.17,139.16Z"/><path class="cls-2" d="M135.47,150c-1.32,0-2.64-.08-4-0.17h-30l0.28,0.26H84V161h97.75V150.08H180C165.18,150.08,150.32,150.13,135.47,150Z"/><path class="cls-2" d="M134.75,31l4.05,10.37c0.16,0.41.3,0.83,0.47,1.31L116,52.12l-4.79-11.85,15.43-6.23c2.14-.86,4.29-1.71,6.43-2.58a3.94,3.94,0,0,0,.69-0.47h1Z"/><path class="cls-2" d="M155.63,84.42c0.92,2,1.84,3.85,2.53,5.74a3.06,3.06,0,0,1-.41,2c-0.9,2-1.9,4-2.84,6-0.72,1.54-2.39,1.56-3.63,2.19-2.09,1.07-4.33,1.85-6.49,2.81a3.24,3.24,0,0,1-3.06.11c-2-1-4.06-1.9-6.06-2.9a2.53,2.53,0,0,1-1.1-1.09c-0.65-1.38-1.21-2.81-1.73-4.25a1,1,0,0,1,.42-0.93c6-2.6,12.1-5.16,18.15-7.73C152.79,85.69,154.14,85.08,155.63,84.42Z"/></g></svg>