<svg id="Image" xmlns="http://www.w3.org/2000/svg" viewBox="0 0 270 190"><defs><style>.cls-1{fill:#fff;}.cls-2{fill:#ccc;}.cls-3{fill:#666;}.cls-4{fill:#ce202e;}</style></defs><title>Image_Free</title><g id="_5" data-name="5"><rect class="cls-1" x="0.5" y="0.5" width="270" height="190"/><path class="cls-3" d="M176.47,148.21c-9.49,0-18.43-7.76-19.87-18.22a34.64,34.64,0,0,1-.16-4.35,0.63,0.63,0,0,0-.47-0.72q-8.84-3.29-17.67-6.61a0.79,0.79,0,0,0-1,.29,16.89,16.89,0,0,1-13.85,6,27.44,27.44,0,0,1-5.09-1,0.9,0.9,0,0,0-1.05.24q-4.28,4.67-8.61,9.29a0.7,0.7,0,0,0-.06,1,17.28,17.28,0,0,1-26.15,21.78,16.68,16.68,0,0,1-6.13-14.11A17.24,17.24,0,0,1,99.1,126.33a0.88,0.88,0,0,0,1.11-.27q4.22-4.62,8.5-9.18a1,1,0,0,0,.19-1.37,17.14,17.14,0,0,1,2.57-19.87,0.88,0.88,0,0,0,.19-1.14q-5.09-10.91-10.14-21.84a0.68,0.68,0,0,0-.88-0.44A21.15,21.15,0,0,1,76.59,54.57c-1.24-8.87,2-15.94,9.24-21.05C93.32,28.26,104.35,29,111.24,35a20.81,20.81,0,0,1,7.4,18,20.33,20.33,0,0,1-6.85,13.82,0.83,0.83,0,0,0-.26,1.15q4.92,10.53,9.78,21.08a1.4,1.4,0,0,0,1.63,1,16.54,16.54,0,0,1,10.51,2.66,0.81,0.81,0,0,0,1.12-.05q12.07-9.55,24.17-19.06c0.76-.6,1.51-1.23,2.3-1.79a0.73,0.73,0,0,0,.28-1A18.76,18.76,0,1,1,188,80.43a18.27,18.27,0,0,1-18.07.15,1.14,1.14,0,0,0-1.47.13q-9.32,7.39-18.68,14.74c-2.79,2.2-5.58,4.41-8.39,6.59a1,1,0,0,0-.45,1.21,33.44,33.44,0,0,1,.49,3.79,0.85,0.85,0,0,0,.61.9q8.74,3.23,17.45,6.52a1,1,0,0,0,1.32-.37,20.76,20.76,0,0,1,17.94-8.28A21.11,21.11,0,0,1,198.56,124c1.11,9.29-2.45,16.45-10.34,21.39C185,147.37,181.37,148.26,176.47,148.21Zm1.07-11.07a10.13,10.13,0,0,0,10.23-10.06A10.19,10.19,0,1,0,177.54,137.14ZM107.67,51.3A10.17,10.17,0,1,0,97.41,61.4,10.14,10.14,0,0,0,107.67,51.3Zm71.12,21.2a8.43,8.43,0,1,0-8.4-8.49A8.54,8.54,0,0,0,178.79,72.5ZM93.6,149a6.23,6.23,0,0,0,6.23-6.25A6.25,6.25,0,1,0,93.6,149Zm36.78-41.55a6.26,6.26,0,1,0-12.51-.05A6.26,6.26,0,0,0,130.39,107.41Z"/><circle class="cls-4" cx="124" cy="107.39" r="17"/></g></svg>