<svg id="Image" xmlns="http://www.w3.org/2000/svg" viewBox="0 0 270 190"><defs><style>.cls-1{fill:#ce202e;}.cls-2{fill:#fff;}</style></defs><title>Image_Free</title><g id="_6" data-name="6"><rect class="cls-1" width="270" height="190"/><path class="cls-2" d="M140.35,159.57c-11.69,0-23.38.11-35.07,0-5.52-.08-11-0.62-16.56-1.09a25.78,25.78,0,0,1-4.29-1.11c-5-1.33-7.18-4.72-7.62-9.73a19.48,19.48,0,0,1,1.85-10.81c5.9-11.61,11.65-23.3,17.85-34.74,6.47-11.93,13.41-23.59,20.09-35.41a6.48,6.48,0,0,0,.8-3c0.06-9.8,0-19.6,0-29.4,0-3.3.89-4.2,4.19-4.2h29.6c3.06,0,3.84.76,3.85,3.83,0,9.6-.05,19.19.07,28.79a10.5,10.5,0,0,0,1.3,4.74c10.91,19.81,22,39.55,32.84,59.36,2,3.71,3.53,7.73,5.33,11.58,2,4.38,1.51,8.84.39,13.28a7.34,7.34,0,0,1-4.2,4.69c-4.53,2.26-9.43,2.75-14.37,2.89-12,.34-24,0.56-36.07.84v-0.43ZM123.2,35.73c0,1.25,0,2.26,0,3.27,0,8.45,0,16.89,0,25.34a8.68,8.68,0,0,1-1,4c-6.63,11.76-13.58,23.35-20,35.21S89.9,127.31,83.81,139.2a13.62,13.62,0,0,0-1.21,8.64,4.43,4.43,0,0,0,3.12,4c4.66,1.8,9.56,1.77,14.38,1.86,15,0.3,30,.51,45,0.45,11.61,0,23.23-.43,34.84-0.89,2.63-.11,5.25-1.08,7.81-1.87a3.11,3.11,0,0,0,1.88-1.84c0.62-2.74,1.3-5.53,0-8.32-2.13-4.58-3.92-9.35-6.36-13.77-10.77-19.57-21.73-39-32.55-58.58a10.05,10.05,0,0,1-1.2-4.56c-0.11-8.92-.09-17.84,0-26.76,0-1.52-.45-2-2-2-7.5.06-15,0-22.5,0C124.5,35.6,124,35.67,123.2,35.73Z"/><path class="cls-2" d="M139.41,150.14c-11.62-.21-24.46-0.34-37.29-0.74A82.47,82.47,0,0,1,91,147.79c-1.84-.31-2.51-1.65-2.78-3.47a13.48,13.48,0,0,1,1.39-8.42c5.56-10.72,11.09-21.46,16.76-32.12,3.49-6.55,7.24-13,10.8-19.48a2.62,2.62,0,0,1,2.71-1.54q16.52,0.08,33,0a2.66,2.66,0,0,1,2.7,1.6q12.79,23.7,25.62,47.38c0.93,1.72,1.52,3.61,2.37,5.37a12.94,12.94,0,0,1,.74,7.91,2.84,2.84,0,0,1-2.35,2.66,77.91,77.91,0,0,1-10.93,1.7C160.89,149.81,150.76,149.9,139.41,150.14Zm-23.87-47a5.44,5.44,0,1,0,10.88-.2A5.44,5.44,0,1,0,115.54,103.1Zm25.25,20.26a4.75,4.75,0,0,0,4.9-4.58A5,5,0,0,0,141,113.9a4.78,4.78,0,0,0-4.81,4.69A4.57,4.57,0,0,0,140.79,123.36Zm-22.55,14.24a4.56,4.56,0,0,0-4.64-4.77,4.78,4.78,0,0,0-4.86,4.64,5,5,0,0,0,4.72,4.86A4.81,4.81,0,0,0,118.24,137.59ZM165.67,128a3.73,3.73,0,0,0-3.59-3.65,3.61,3.61,0,0,0-3.57,3.63,3.56,3.56,0,0,0,3.54,3.64A3.68,3.68,0,0,0,165.67,128Zm-38.86,6.08a3.62,3.62,0,0,0-3.54,3.65,3.56,3.56,0,1,0,7.12,0A3.63,3.63,0,0,0,126.81,134.11Zm19.43-32.53a3.56,3.56,0,1,0-3.47,3.74A3.65,3.65,0,0,0,146.24,101.58Z"/></g></svg>