<svg id="Image" xmlns="http://www.w3.org/2000/svg" viewBox="0 0 270 190"><defs><style>.cls-1{fill:#fff;}.cls-2{fill:#ccc;}.cls-3{fill:#ce202e;}.cls-4{fill:gray;}</style></defs><g id="_7" data-name="7"><rect class="cls-1" x="0.5" y="0.5" width="270" height="190"/><path class="cls-3" d="M173.79,89.56h-6.14c-2.21,0-4.27,0-6.33,0a3.52,3.52,0,0,0-2.37,1.25c-1.49,1.63-3,3.27-4.43,4.92L153.43,97,135.51,74.15a22.45,22.45,0,0,0,17.17-24.51c-1.1-11-10.92-19.6-22.37-19.63-5.29,0-11,0-16.27,0H103.75v78.1h11V73.5h0.93c2.36,0,4.66.63,7,.59a1,1,0,0,1,.57.62C127.17,79.77,131.14,85,135.1,90l11.39,13.85-14.26,15.25H146l6.89-6.54,0.19,0.37c1.45,1.85,5,6.31,5,6.31l13.39,0L159.85,104.8ZM132,64.42a11.24,11.24,0,0,1-1.83.25c-4.46,0-8.93.18-13.39,0.18h-2.06V42.05h4.48c3.72,0,7.45-.91,11.18-0.9,6.54,0,11.78,4.53,12.2,11.1C143,58.37,138.27,63.58,132,64.42Z"/><path class="cls-4" d="M194.62,119.5c-34.1,5.75-54,14.63-61.9,27.05C124.88,134,104.93,125,70.79,119.2l-1.07,12.48c50.46,8.55,58,22,58,28.32h10c0-6.29,5.65-19.8,58-28.62Z"/></g></svg>