<svg id="Image" xmlns="http://www.w3.org/2000/svg" viewBox="0 0 270 190"><defs><style>.cls-1{fill:#4d4d4d;}.cls-2{fill:#fff;}</style></defs><g id="_8" data-name="8"><rect class="cls-1" width="270" height="190"/><path class="cls-2" d="M135.55,30c0.39,0.17.77,0.35,1.16,0.5a8.38,8.38,0,0,1,4.44,12.25,1.89,1.89,0,0,0-.05,2.3c3.05,5,6,10,9.08,15a4.3,4.3,0,0,0,1.56,1.13q1.65,1,3.34,1.84a4.9,4.9,0,0,0,1.93.81q8,0.1,15.92,0a3.32,3.32,0,0,0,2-.93,5.74,5.74,0,0,1,7-1,5.53,5.53,0,0,1,2.53,6.44,2.59,2.59,0,0,0,.29,2.39c3,4.9,5.94,9.81,8.84,14.75a2,2,0,0,0,2.06,1.1,8.43,8.43,0,1,1-.06,16.84,2,2,0,0,0-2,1.17c-2.92,4.94-5.92,9.82-8.82,14.77a3.25,3.25,0,0,0-.24,2.2,5.8,5.8,0,0,1-2.63,6.58,5.73,5.73,0,0,1-7-1.07,3.09,3.09,0,0,0-1.88-.87c-4.33-.08-8.66,0-13-0.06a1.69,1.69,0,0,0-1.74,1,8.47,8.47,0,0,1-8,4.58,2.23,2.23,0,0,0-1.66.78c-2.76,4.46-5.43,9-8.18,13.56a8.72,8.72,0,0,1,1.69,7.29,8.59,8.59,0,0,1-7.23,6.56,8.36,8.36,0,0,1-8.31-4.27,2.25,2.25,0,0,0-2.38-1.39c-3.08.08-6.17,0-9.26,0.07a2.41,2.41,0,0,0-1.75.95c-2.63,4.52-7.67,6-11.95,3.44s-5.29-7.66-2.57-12l0.38-.65c-2.74-4.56-5.46-9.17-8.3-13.7a2.59,2.59,0,0,0-1.91-.62,8.53,8.53,0,0,1-8.2-11.21,8.32,8.32,0,0,1,8.21-5.68,2.33,2.33,0,0,0,2.42-1.36c2.55-4.39,5.2-8.73,7.8-13.07-2.53-3.65-2.55-7.22,0-10.84-3.31-5.51-6.61-11-10-16.53a2.12,2.12,0,0,0-1.3-.74,5.59,5.59,0,0,1-4.76-5.53c0-2.87,1.85-5,4.84-5.63a2.28,2.28,0,0,0,1.35-.9q5.48-9,10.85-18.1a2.55,2.55,0,0,0,.19-1.78A5.68,5.68,0,0,1,110,34.87a2.8,2.8,0,0,0,1.77.78c4.28,0.07,8.56.06,12.83,0a1.91,1.91,0,0,0,1.47-.61A9.66,9.66,0,0,1,132.3,30h3.25Zm54,59.56c-3.14-5.23-6.29-10.45-9.4-15.71a3.16,3.16,0,0,0-2.32-1.71c-1-.21-1.91-1.12-2.89-1.65a5,5,0,0,0-2.07-.85c-5.19-.07-10.39,0-15.59-0.06a3.17,3.17,0,0,0-2.37,1,14.48,14.48,0,0,1-3,1.69,3.72,3.72,0,0,0-1.45.81c-3.35,5.48-6.64,11-9.93,16.5,2.57,3.65,2.54,7.21,0,10.83,2.74,4.58,5.47,9.18,8.29,13.72a2.35,2.35,0,0,0,1.75.66,8.23,8.23,0,0,1,7.8,4.59,1.79,1.79,0,0,0,1.91,1c4.17,0,8.33,0,12.5,0a3.09,3.09,0,0,0,2.37-1,14.89,14.89,0,0,1,3-1.69,4.28,4.28,0,0,0,1.62-1.08Q184.46,109,189,101.2a1.64,1.64,0,0,0,.06-1.41C186.9,96.29,187.19,92.93,189.5,89.56ZM118.17,41.32c-2.06,0-4.12-.08-6.17,0a6.16,6.16,0,0,0-2.19.92c-1,.53-2.06,1.1-3.06,1.7a5.54,5.54,0,0,0-1.93,1.41C101.37,51,98,56.7,94.59,62.34a3.21,3.21,0,0,0-.47,3.12c0.32,0.87-.08,2-0.08,3a4.33,4.33,0,0,0,.26,2.05c2.92,5,5.94,9.93,8.88,14.92a2,2,0,0,0,2,1.13,8.39,8.39,0,0,1,8,4.57,2.2,2.2,0,0,0,1.56.93q5,0.13,10.07,0a2.21,2.21,0,0,0,1.54-1,8.37,8.37,0,0,1,8-4.53,1.94,1.94,0,0,0,2-1.19q4.34-7.33,8.76-14.61a2.89,2.89,0,0,0,.33-2.55,14,14,0,0,1,0-3.19,4.91,4.91,0,0,0-.28-2.21c-2.89-5-5.89-9.84-8.79-14.78a2.07,2.07,0,0,0-2.17-1.19,7.94,7.94,0,0,1-7.79-4.54,1.67,1.67,0,0,0-1.76-1C122.5,41.35,120.34,41.32,118.17,41.32Zm26.13,87.34c-2.38-3.38-2.62-6.79-.37-10.32a1.7,1.7,0,0,0-.2-1.4c-2.47-4.19-5-8.38-7.52-12.51a2.38,2.38,0,0,0-1.73-.95,8.77,8.77,0,0,1-8.15-4.67,2.2,2.2,0,0,0-1.58-.91c-3.35-.08-6.71-0.08-10.07,0a2,2,0,0,0-1.46.84,8.73,8.73,0,0,1-8.26,4.73,2.2,2.2,0,0,0-1.61.88c-2.57,4.14-5,8.33-7.56,12.49a1.5,1.5,0,0,0,0,1.87,8.26,8.26,0,0,1,.09,9.06,2.15,2.15,0,0,0,0,1.81c2.44,4.21,5,8.35,7.46,12.55a1.7,1.7,0,0,0,1.8,1,8.36,8.36,0,0,1,8.12,4.61,2,2,0,0,0,1.41.92q5.11,0.12,10.23,0a2,2,0,0,0,1.47-.87,8.57,8.57,0,0,1,8.25-4.71,2,2,0,0,0,1.54-.76C138.88,137.78,141.58,133.22,144.31,128.66Zm-55.69-2.59a2.82,2.82,0,0,0,2.88-2.71A2.82,2.82,0,1,0,88.61,126.07Zm62.18,0a2.81,2.81,0,0,0,2.89-2.7,2.92,2.92,0,0,0-2.85-2.94,2.78,2.78,0,0,0-2.77,2.82A2.73,2.73,0,0,0,150.8,126.05Zm-45.18,28.24a2.72,2.72,0,0,0,2.83-2.72,2.82,2.82,0,0,0-2.86-2.9,2.92,2.92,0,0,0-2.79,2.85A2.81,2.81,0,0,0,105.61,154.29Zm2.83-59.34a2.84,2.84,0,0,0-2.81-2.79,2.84,2.84,0,1,0,.08,5.67A2.85,2.85,0,0,0,108.44,94.95Zm28.24,56.52a2.77,2.77,0,0,0-2.77-2.8,2.88,2.88,0,0,0-2.84,2.77,2.78,2.78,0,0,0,2.9,2.84A2.68,2.68,0,0,0,136.68,151.47Zm-2.75-59.32a2.83,2.83,0,1,0,0,5.66A2.83,2.83,0,0,0,133.93,92.16Z"/></g></svg>