<svg id="Body" xmlns="http://www.w3.org/2000/svg" viewBox="0 0 200 150"><defs><style>.cls-1{fill:#e6e6e6;}.cls-2{fill:#ccc;}.cls-3{fill:#ce202e;}.cls-4{fill:#f2f2f2;stroke:#e6e6e6;stroke-miterlimit:10;}.cls-5{fill:#fff;}.cls-6{fill:gray;}.cls-7{fill:#999;}</style></defs><title>Icon</title><path class="cls-1" d="M137.22,30.62c0-3.54-2-5.58-5.6-5.6-3,0-6,0-9,0-12,0-24,0-36,0-2.33,0-4.22.75-5.17,2.92a8.7,8.7,0,0,0-.51,3.39q0,22,0,44c0,6.35,0,12.7,0,19,0,4.1,1.93,6,6,6h44.58c3.77,0,5.77-2,5.77-5.75q0-15.94,0-31.88T137.22,30.62Zm-12.71,2.27a8,8,0,0,1,8.09,7.85A8.21,8.21,0,0,1,124.54,49a8,8,0,0,1-8-8.07A7.85,7.85,0,0,1,124.52,32.89Zm-30.88,0a8,8,0,0,1,8,8.1,8,8,0,1,1-16.09-.16A8,8,0,0,1,93.64,32.89Zm0,21.74a7.94,7.94,0,0,1,8,8.07,8,8,0,0,1-16.1-.1A7.91,7.91,0,0,1,93.62,54.64Zm0,37.88a8.18,8.18,0,0,1-8.06-8.11,8,8,0,0,1,16.1,0A8.24,8.24,0,0,1,93.58,92.51Zm15.42,0c-1,0-1.51-.19-1.51-1.38,0-12.85-.35-25.7-0.34-38.55,0-5.87-.43-11.74-0.43-17.61V32.82h3.77c0,1.33.11,1,.11,1.47q0,24.66-.05,49.36c0,2.48,0,5,.08,7.46C110.7,92.44,110,92.53,109,92.54Zm15.5,0a8.11,8.11,0,0,1-8-8.14,7.82,7.82,0,0,1,8-8,8,8,0,0,1,8,8A8.25,8.25,0,0,1,124.5,92.51Zm-0.1-21.8a7.9,7.9,0,0,1-7.88-8.28,7.78,7.78,0,0,1,8.21-7.76,7.94,7.94,0,0,1,7.88,8.17A8.08,8.08,0,0,1,124.4,70.7Z"/><path class="cls-2" d="M109,92.54c-1,0-1.51-.19-1.51-1.38,0-12.85-.35-25.7-0.34-38.55,0-5.87-.43-11.74-0.43-17.61V32.82h3.77c0,1.33.11,1,.11,1.47q0,24.66-.05,49.36c0,2.48,0,5,.08,7.46C110.7,92.44,110,92.53,109,92.54Z"/><path class="cls-3" d="M124.52,32.89a8,8,0,0,1,8.09,7.85A8.21,8.21,0,0,1,124.54,49a8,8,0,0,1-8-8.07A7.85,7.85,0,0,1,124.52,32.89Z"/><path class="cls-3" d="M93.64,32.89a8,8,0,0,1,8,8.1,8,8,0,1,1-16.09-.16A8,8,0,0,1,93.64,32.89Z"/><path class="cls-3" d="M93.62,54.64a7.94,7.94,0,0,1,8,8.07,8,8,0,0,1-16.1-.1A7.91,7.91,0,0,1,93.62,54.64Z"/><path class="cls-3" d="M93.58,92.51a8.18,8.18,0,0,1-8.06-8.11,8,8,0,0,1,16.1,0A8.24,8.24,0,0,1,93.58,92.51Z"/><path class="cls-3" d="M124.5,92.51a8.11,8.11,0,0,1-8-8.14,7.82,7.82,0,0,1,8-8,8,8,0,0,1,8,8A8.25,8.25,0,0,1,124.5,92.51Z"/><path class="cls-3" d="M124.4,70.7a7.9,7.9,0,0,1-7.88-8.28,7.78,7.78,0,0,1,8.21-7.76,7.94,7.94,0,0,1,7.88,8.17A8.08,8.08,0,0,1,124.4,70.7Z"/><path class="cls-4" d="M66.5,67.63H50.21A16.31,16.31,0,0,0,34.35,79.31c-2.16,7,1.36,15.25,7.88,18.67a17.14,17.14,0,0,0,8.12,1.93H66.5V67.63Z"/><path class="cls-3" d="M90.42,69.3a16.35,16.35,0,0,0-7.5-1.66H66.5V99.91l16.58,0c7.9,0,14.35-5,16-12.62A16,16,0,0,0,90.42,69.3Z"/><circle class="cls-2" cx="145.67" cy="81.51" r="21.12"/><path class="cls-4" d="M161.12,67.85l-29.1,29a20.08,20.08,0,0,0,19.81,4.29c7.93-2.64,12.76-8.23,14.15-16.46A19.86,19.86,0,0,0,161.12,67.85Z"/><path class="cls-4" d="M130.85,67.14c-8.36,8.66-6.9,21.51-.53,28l29-28.93C152.5,59.46,139.22,58.47,130.85,67.14Z"/><path class="cls-5" d="M125.11,90.76a16.48,16.48,0,0,0-1-2,0.83,0.83,0,0,0-1.5,0c-1.45,1.86-1,6,.91,7.31a6.85,6.85,0,0,1,2,2.32c0.16,0.25.32,0.49,0.49,0.73A9.14,9.14,0,0,0,136,102.8c3-.78,4.9-2.83,6.33-5.43a2.25,2.25,0,0,1,.59-0.84,5.7,5.7,0,0,0,2-7.3,1.72,1.72,0,0,0-1.07-.94,2,2,0,0,0-1.06,1,6.84,6.84,0,0,0-.57,1.33,13.53,13.53,0,0,1-.19-1.51,1.38,1.38,0,0,0-.58-0.81,25.45,25.45,0,0,1-3.19-1.8c-1.54-1.26-2.89-2.73-4.35-4.09a1.93,1.93,0,0,0-1-.56,5.23,5.23,0,0,0-4.65,1.51A10.83,10.83,0,0,0,125.11,90.76Z"/><path class="cls-6" d="M136,74.14a32.71,32.71,0,0,1,4.88,1.81A11.51,11.51,0,0,1,147,86.41c0,2.49-.44,5-0.61,7.49a33.65,33.65,0,0,0-.05,4.5c0.09,1.29.93,1.61,2,.85,0.52-.38,1-0.85,1.47-1.28,0.64,1.28,0,3-2,5.5,0.68,2.21,3.61,2.8,5.69.89,0.27,1.38-.21,2.71-1.65,4.57,0.67,0.64,1.32,1.29,2,1.92a4.53,4.53,0,0,1,1.08,5.06,12.41,12.41,0,0,1-1,2.19,3.21,3.21,0,0,1-.82.69,38.38,38.38,0,0,0,.71-3.92,4.29,4.29,0,0,0-2.79-4.5c-2-.89-4.17-1.61-6.52-2.5,0.21,0.68.32,1.09,0.45,1.49,1.08,3.19-.13,5.77-3.29,7a9.11,9.11,0,0,1-5.93.33,16,16,0,0,1-1.91-.86c1.24-.73,2.32-1.27,3.29-2a23.34,23.34,0,0,0,3.38-2.79,7,7,0,0,0,1.27-2.47,1.54,1.54,0,0,0-.7-1.87,13.13,13.13,0,0,1-2.18-2.79,5.32,5.32,0,0,1-.45-1.13,10,10,0,0,1-7.6.78c-0.58-.17-1.28-0.66-1.7-0.47s-0.5,1.08-.87,1.54c-0.69.84-1.5,1.58-2.24,2.39a1.78,1.78,0,0,0-.51.89,4.89,4.89,0,0,0,2.58,4.71c1.73,1.14,3.58,2.1,5.47,3.19a5.87,5.87,0,0,1-1,.59,9.41,9.41,0,0,1-8.36-.67,4.47,4.47,0,0,1-2.07-5.48c0.18-.62.43-1.22,0.7-2a7.11,7.11,0,0,0-.8.18c-1.68.6-3.4,1.11-5,1.85-2.93,1.34-3.86,3.85-2.69,6.87,0.19,0.48.4,0.94,0.62,1.44a1.35,1.35,0,0,1-1.91-.8c-1.4-2.91-1.12-5.6.91-7.4a22.46,22.46,0,0,1,2-1.44,7.87,7.87,0,0,1-2.09-5.77c1,2,2.3,3.2,4.42,2.93a2.7,2.7,0,0,0,2.09-1.81c-2.49-1.06-3.21-2.76-2.49-5.93,2.38,0.82,3.06.11,3-2.37a52.62,52.62,0,0,0-.87-6.26c-0.53-3.63-.37-7.15,1.76-10.31a8.29,8.29,0,0,1,6.54-3.54,5.53,5.53,0,0,0,1.42-.45c1.1-.43,2.2-0.88,3.3-1.32H136ZM125.11,90.76a16.48,16.48,0,0,0-1-2,0.83,0.83,0,0,0-1.5,0c-1.45,1.86-1,6,.91,7.31a6.85,6.85,0,0,1,2,2.32c0.16,0.25.32,0.49,0.49,0.73A9.14,9.14,0,0,0,136,102.8c3-.78,4.9-2.83,6.33-5.43a2.25,2.25,0,0,1,.59-0.84,5.7,5.7,0,0,0,2-7.3,1.72,1.72,0,0,0-1.07-.94,2,2,0,0,0-1.06,1,6.84,6.84,0,0,0-.57,1.33,13.53,13.53,0,0,1-.19-1.51,1.38,1.38,0,0,0-.58-0.81,25.45,25.45,0,0,1-3.19-1.8c-1.54-1.26-2.89-2.73-4.35-4.09a1.93,1.93,0,0,0-1-.56,5.23,5.23,0,0,0-4.65,1.51A10.83,10.83,0,0,0,125.11,90.76Z"/><path class="cls-6" d="M137.69,97.08c-2.15,3.08-5.6,3-7.74,0Z"/><path class="cls-5" d="M114.73,118c-0.12-.27-0.25-0.55-0.35-0.82-1.18-3-.25-5.54,2.69-6.87,1.62-.74,3.34-1.24,5-1.85a7.1,7.1,0,0,1,.8-0.18c-0.27.75-.52,1.35-0.7,2a4.47,4.47,0,0,0,2.07,5.48,9.41,9.41,0,0,0,8.36.67,5.88,5.88,0,0,0,1-.59c-1.89-1.09-3.74-2-5.47-3.19a4.89,4.89,0,0,1-2.58-4.71A1.78,1.78,0,0,1,126,107c0.73-.81,1.55-1.55,2.24-2.39,0.38-.46.44-1.35,0.87-1.54s1.12,0.31,1.7.47a10,10,0,0,0,7.6-.78,5.31,5.31,0,0,0,.45,1.13,13.13,13.13,0,0,0,2.18,2.79,1.54,1.54,0,0,1,.7,1.87,7,7,0,0,1-1.27,2.47,23.34,23.34,0,0,1-3.38,2.79c-1,.69-2,1.23-3.29,2a16,16,0,0,0,1.91.86,9.11,9.11,0,0,0,5.93-.33c3.16-1.2,4.37-3.78,3.29-7-0.14-.4-0.25-0.81-0.45-1.49,2.35,0.89,4.47,1.6,6.52,2.5a4.29,4.29,0,0,1,2.79,4.5,25.9,25.9,0,0,1-.65,3.13H114.73Z"/><path class="cls-5" d="M110.24,81.28l2.65-.45a7,7,0,0,1-.74,6.61,18.08,18.08,0,0,1-2,1.9,1.37,1.37,0,0,1-.51-0.81C109.72,86.1,110,83.69,110.24,81.28Z"/><path class="cls-5" d="M85.41,89.28C82,87.77,80.63,81.4,83.17,78.91a1.44,1.44,0,0,1,1.29-.32,1.82,1.82,0,0,1,.88,1.27C85.43,82.95,85.4,86,85.41,89.28Z"/><path class="cls-5" d="M86.83,85c-0.23-1.3-.23-2.63-0.37-4.33,0-3.33,1.74-6.27,4.3-8.72,1.82-1.75,3.88-1.58,5.89,0,3.71,2.88,7.47,5.69,11.2,8.55a1.56,1.56,0,0,1,.58.82c0.9,4.51-2.21,12-6,14.3-1.31.82-2.62,1.49-4.19,0.44a1.75,1.75,0,0,0-1.56.07c-1.27.82-2.36,0.44-3.53-.18C88.76,93.6,87.6,89.39,86.83,85Z"/><path class="cls-5" d="M106.23,102.57c-1.14,4.87-2.34,9.72-5.73,13.9,0-.7-0.09-1.39-0.1-2.09,0-.44.11-4.95,0.11-4.95l1.15-2.31a34.38,34.38,0,0,1-2.57-3,1.6,1.6,0,0,0-2.78,0,29.64,29.64,0,0,1-2.74,3l1.16,2.31s0.61,5.73-.31,7.52c-1.16-2.51-2.2-4.68-3.15-6.88-0.44-1-.64-2.16-1-3.21-1.16-2.94-1.7-5.79,1.21-8.3C96.58,102,98.2,102,104,98.44c0.68,1.09,1.38,2.17,2,3.27A1.33,1.33,0,0,1,106.23,102.57Z"/><path class="cls-5" d="M46.84,111c8.48,9.25,29,9.13,36.46-.17-2.35-.85-4.53-1.74-6.76-2.41-2.91-.87-6.3-1-6.22-5.46a10.83,10.83,0,0,1-10.44.08c0.05,3-1.65,4.29-4.14,4.92-1,.26-2.07.51-3.07,0.86C50.81,109.47,49,110.19,46.84,111Z"/><path class="cls-5" d="M77.07,93.29c-3.74,1.78-6.93.44-9.83-1.24s-5.61-3.93-8.6-6.07l-2.37,4.4c-0.22-.44-0.39-0.85-0.62-1.23-0.58-1-1.22-1-1.89-.08-1.3,1.76-.8,5.69.84,7.2A16.6,16.6,0,0,1,57,99c4.09,5.92,11.57,6,15.84.23,0.83-1.13,1.91-2.09,2.74-3.22A20.39,20.39,0,0,0,77.07,93.29Z"/><path class="cls-6" d="M74.9,106.15c3,1.22,5.87,2.26,8.63,3.55A5.3,5.3,0,0,1,86.68,115c-0.11,2.91-1,3.87-3.89,3.87-12.09,0-24.19,0-36.28,0a2.51,2.51,0,0,1-2.77-1.88,5.67,5.67,0,0,1,2.81-7.51,53.18,53.18,0,0,1,6.11-2.36c0.82-.3,1.65-0.54,2.38-0.77-1-4.46-2.17-8.74-2.76-13.11a22,22,0,0,1,1.51-12.53c2-4.17,5.61-5.78,9.92-6.07a19.93,19.93,0,0,1,5.79.51c4.59,1.08,7.41,5,8.2,9.93,1.09,6.82-.84,13.17-2.45,19.6-0.08.3-.19,0.59-0.27,0.89S74.93,106,74.9,106.15Zm-28.12,4.63c8.45,9.28,29,9.22,36.46,0-2.35-.86-4.52-1.75-6.75-2.43-2.91-.88-6.29-1.06-6.2-5.48a10.83,10.83,0,0,1-10.44,0c0,3-1.66,4.28-4.15,4.9-1,.26-2.07.5-3.08,0.85C50.76,109.27,48.92,110,46.78,110.78ZM77.07,93.17c-3.74,1.77-6.93.41-9.83-1.28s-5.6-3.95-8.58-6.1l-2.38,4.39c-0.22-.44-0.39-0.85-0.61-1.23-0.58-1-1.22-1-1.89-.09-1.31,1.75-.81,5.68.82,7.2A16.6,16.6,0,0,1,57,98.78c4.07,5.94,11.55,6.08,15.84.28,0.84-1.13,1.92-2.08,2.76-3.21A20.39,20.39,0,0,0,77.07,93.17Z"/><path class="cls-6" d="M61.83,99h6.31C67.37,101.41,63.1,101.47,61.83,99Z"/><path class="cls-7" d="M92.56,90.35h9.76C100,94.32,95.32,94.31,92.56,90.35Z"/><path class="cls-7" d="M123,107c-3-1.44-6.22-2.59-9.35-3.83a28.29,28.29,0,0,1-4-1.54A10.28,10.28,0,0,1,106.8,99a2.58,2.58,0,0,1-.54-1.23A3,3,0,0,1,107,95a17,17,0,0,0,2.66-3.31l2.48-2.91a8,8,0,0,0,2.11-7.56c-0.31-1.46-.72-2.91-0.92-4.38-0.71-5.15-6-11.55-10.74-12.87-8.9-2.48-16.47,1.35-19.88,10.23-0.77,2-1,4.24-1.58,6.34a8.55,8.55,0,0,0,3.24,9.61,5.44,5.44,0,0,1,.95,1.13,35.51,35.51,0,0,0,3.1,4c1.18,1.15,1.37,2.29.47,3.47a10.28,10.28,0,0,1-2.82,2.64,28.29,28.29,0,0,1-4,1.54c-3.13,1.24-6.31,2.39-9.35,3.83a5.92,5.92,0,0,0-3.32,5.74,11.3,11.3,0,0,0,1.63,5.42c0.42,0.67,2.4.42,3.67,0.49,1.45,0.07,36.59.25,41.92,0.25,1.45,0,2.9.05,4.35,0,1.27-.06,3.25.18,3.67-0.49a11.3,11.3,0,0,0,1.63-5.42A5.92,5.92,0,0,0,123,107Zm-12.7-25.69,2.66-.44a7,7,0,0,1-.76,6.61,18.08,18.08,0,0,1-2.05,1.89,1.37,1.37,0,0,1-.51-0.81C109.75,86.14,110,83.73,110.28,81.31ZM85.43,89.23c-3.45-1.52-4.75-7.9-2.2-10.38a1.44,1.44,0,0,1,1.29-.31,1.82,1.82,0,0,1,.87,1.27C85.47,82.9,85.43,86,85.43,89.23Zm1.44-4.29c-0.22-1.3-.22-2.63-0.35-4.33,0-3.33,1.76-6.26,4.33-8.7,1.83-1.74,3.88-1.56,5.89,0,3.7,2.89,7.45,5.71,11.17,8.58a1.56,1.56,0,0,1,.58.82c0.89,4.51-2.25,11.95-6,14.28-1.31.81-2.63,1.48-4.19,0.42a1.75,1.75,0,0,0-1.56.07c-1.27.82-2.36,0.43-3.53-.19C88.76,93.56,87.62,89.35,86.87,84.94Zm19.34,17.65c-1.16,4.86-2.38,9.71-5.78,13.88,0-.7-0.09-1.39-0.09-2.09,0-.44.13-4.95,0.13-4.95l1.16-2.31a34.38,34.38,0,0,1-2.56-3,1.6,1.6,0,0,0-2.78,0,29.64,29.64,0,0,1-2.75,3l1.16,2.31s0.59,5.73-.33,7.52c-1.15-2.52-2.19-4.68-3.13-6.89-0.44-1-.63-2.17-1-3.21-1.15-2.95-1.68-5.8,1.24-8.3,5.13,3.41,6.75,3.41,12.52-.11,0.68,1.09,1.37,2.17,2,3.27A1.33,1.33,0,0,1,106.21,102.59Z"/></svg>