<svg id="Body" xmlns="http://www.w3.org/2000/svg" viewBox="0 0 200 150"><defs><style>.cls-1{fill:#ccc;}.cls-2{fill:#999;}.cls-3{fill:#fff;}.cls-4{fill:#ce202e;}</style></defs><title>Icon</title><path class="cls-1" d="M100,104.75l4.07,3.19c1-1.34,2-2.62,2.94-3.91,0.67-.9,1.36-1.79,2-2.73a1.4,1.4,0,0,1,1.64-.6c2.7,0.55,4.41,2.36,5.75,4.59,2.38,4,3.32,8.42,4,12.92,0.32,2.15.51,4.32,0.77,6.59H78.87c0.33-2.67.58-5.26,1-7.82a31.23,31.23,0,0,1,3.89-11.85c1.33-2.14,3-3.88,5.64-4.39a1.48,1.48,0,0,1,1.7.69c1.42,2,2.94,3.95,4.37,5.95,0.42,0.59.72,0.46,1.18,0.08C97.71,106.56,98.82,105.7,100,104.75Z"/><path class="cls-2" d="M85.5,88.29c0.29-.59.61-1.17,0.84-1.78a4.16,4.16,0,0,0,.28-1.38,11.78,11.78,0,0,1,1.87-6.81,8.12,8.12,0,0,1,7.11-3.81,1.26,1.26,0,0,0,.8-0.13c1.12-1.13,2.58-1.21,4-1.33a16.36,16.36,0,0,1,8.29,1.65,7.82,7.82,0,0,1,4.41,6.07c0.29,1.55.37,3.14,0.55,4.71a1.78,1.78,0,0,0,.24,1c1.34,1.22.4,2.64,0.41,4a0.37,0.37,0,0,1-.14.28c-1.58,1-1.58,2.88-2.41,4.3-1.89,3.23-4.34,5.85-8,7-5.11,1.65-9.4.08-12.94-3.79a16.72,16.72,0,0,1-3.53-6.18,4.35,4.35,0,0,0-.8-1,3.34,3.34,0,0,1-.64-1,10.27,10.27,0,0,1-.19-1.67Zm14.64,12.8a19.77,19.77,0,0,0,3.54-.93A13.73,13.73,0,0,0,111.79,89c0.37-2.58.45-2.16-2-2.56-3.65-.61-7.37-1.07-10.65-2.85a3.42,3.42,0,0,0-4,.07,40.19,40.19,0,0,1-5.88,2.58,1.2,1.2,0,0,0-.88,1.33,14.17,14.17,0,0,0,3.16,8.77A11.38,11.38,0,0,0,100.14,101.1Z"/><path class="cls-3" d="M100.14,101.1a19.77,19.77,0,0,0,3.54-.93A13.73,13.73,0,0,0,111.79,89c0.37-2.58.45-2.16-2-2.56-3.65-.61-7.37-1.07-10.65-2.85a3.42,3.42,0,0,0-4,.07,40.19,40.19,0,0,1-5.88,2.58,1.2,1.2,0,0,0-.88,1.33,14.17,14.17,0,0,0,3.16,8.77A11.38,11.38,0,0,0,100.14,101.1Z"/><path class="cls-4" d="M97.71,58.35l-0.06-1.59a16,16,0,0,1,1.45-7.17,26.67,26.67,0,0,1,4.22-5.46,16.3,16.3,0,0,0,2.86-3.79,7.44,7.44,0,0,0,.68-3.17,7.9,7.9,0,0,0-2.07-5.52A6.28,6.28,0,0,0,100,29.37a6.07,6.07,0,0,0-4.66,2.09q-1.91,2.09-2.47,6.65l-4.46-.62q0.65-6.26,3.7-9.37A10.54,10.54,0,0,1,100,25a10.8,10.8,0,0,1,8.07,3.32,11.66,11.66,0,0,1,3.23,8.48A12.51,12.51,0,0,1,110.25,42,24.24,24.24,0,0,1,106,47.84a17,17,0,0,0-3.38,4.62,19.17,19.17,0,0,0-.75,5.89H97.71ZM97.42,69V63h5v6h-5Z"/></svg>