<svg id="Body" xmlns="http://www.w3.org/2000/svg" viewBox="0 0 200 150"><defs><style>.cls-1{fill:#999;}.cls-2{fill:#f2f2f2;}.cls-3{fill:#8e202e;}.cls-4{fill:#ce202e;}.cls-5{fill:#4d4d4d;}</style></defs><title>Icon</title><path class="cls-1" d="M69.8,39.57a3.49,3.49,0,0,0-3.48,3.48v78.46A3.49,3.49,0,0,0,69.8,125h60.41a3.49,3.49,0,0,0,3.48-3.48V43.05a3.48,3.48,0,0,0-3.48-3.48H69.8Z"/><rect class="cls-2" x="69.81" y="46.37" width="60.39" height="75.48" rx="2" ry="2"/><path class="cls-3" d="M119.61,43c0-2.82-1.89-5.12-4.2-5.12h-9.46v-6h-0.07a5.16,5.16,0,0,0,.07-0.84,6.19,6.19,0,0,0-12.38,0,5.75,5.75,0,0,0,.07.84H93.56v6H84.1c-2.31,0-4.2,2.3-4.2,5.12v1.81a6.71,6.71,0,0,0,0,.69,2.74,2.74,0,0,0,0,.46V47.9a1.9,1.9,0,0,0,1.67,2h36.35a1.9,1.9,0,0,0,1.68-2V46a2.49,2.49,0,0,0,0-.46,5.53,5.53,0,0,0,0-.69V43Z"/><path class="cls-4" d="M119.61,44c0-2.67-1.89-4.85-4.2-4.85h-9.46v-7h-0.07a4.65,4.65,0,0,0,.07-0.8,6.21,6.21,0,0,0-12.38,0,5.22,5.22,0,0,0,.07.8H93.56v7H84.1c-2.31,0-4.2,2.18-4.2,4.85v3.32a1.83,1.83,0,0,0,1.67,1.94h36.35a1.83,1.83,0,0,0,1.68-1.94V44Z"/><path class="cls-3" d="M103.65,29.17a0.4,0.4,0,0,1-.36.44H96.12a0.41,0.41,0,0,1-.36-0.44h0a0.4,0.4,0,0,1,.36-0.43h7.17a0.4,0.4,0,0,1,.36.43h0Z"/><path class="cls-3" d="M103.65,31a0.4,0.4,0,0,1-.36.44H96.12A0.41,0.41,0,0,1,95.76,31h0a0.41,0.41,0,0,1,.36-0.44h7.17a0.41,0.41,0,0,1,.36.44h0Z"/><path class="cls-3" d="M103.65,32.85a0.4,0.4,0,0,1-.36.43H96.12a0.41,0.41,0,0,1-.36-0.43h0a0.4,0.4,0,0,1,.36-0.44h7.17a0.4,0.4,0,0,1,.36.44h0Z"/><path class="cls-3" d="M103.65,34.69a0.4,0.4,0,0,1-.36.43H96.12a0.41,0.41,0,0,1-.36-0.43h0a0.4,0.4,0,0,1,.36-0.44h7.17a0.4,0.4,0,0,1,.36.44h0Z"/><path class="cls-4" d="M107.09,65.29c-0.09.46-.17,0.91-0.26,1.37A13.64,13.64,0,0,1,104.5,72a37.7,37.7,0,0,1-5.31,5.83c-1.73,1.58-3.56,3-5.42,4.43-0.62.47-1.28,0.88-1.89,1.36a1.33,1.33,0,0,1-1.83,0c-1.95-1.51-3.9-3-5.85-4.52-0.43-.34-0.83-0.71-1.24-1.08a1.18,1.18,0,0,1-.21-1.57,1,1,0,0,1,1.55-.14c1.31,1.09,2.6,2.19,3.93,3.26,0.85,0.68,1.74,1.29,2.62,1.92a0.3,0.3,0,0,0,.29,0c1.56-1.18,3.13-2.35,4.65-3.58,1.07-.86,2.08-1.8,3.08-2.74a29.26,29.26,0,0,0,3.76-4.23,12.31,12.31,0,0,0,1.76-3.28,9,9,0,0,0,.37-5,7.89,7.89,0,0,0-1.85-3.6,6.89,6.89,0,0,0-5.28-2.42,7.25,7.25,0,0,0-5.69,2.63,1.09,1.09,0,0,1-1.47.4A3.86,3.86,0,0,1,89.8,59a7.31,7.31,0,0,0-4.93-2.35,6.71,6.71,0,0,0-3.83.81,7.4,7.4,0,0,0-2.81,2.69,8,8,0,0,0-.89,6.57c0.2,0.71.49,1.39,0.74,2.09a0.39,0.39,0,0,0,.43.28q2.78,0,5.57,0a0.38,0.38,0,0,0,.41-0.29c0.64-1.57,1.29-3.14,1.93-4.7a1.11,1.11,0,0,1,.9-0.81,1.06,1.06,0,0,1,1.17.92l1.36,6.13c0,0.22.11,0.44,0.18,0.73l0.85-1.46c0.36-.63.73-1.25,1.09-1.88A1.18,1.18,0,0,1,93.09,67h3.59a1.09,1.09,0,0,1,1.09,1.4,1,1,0,0,1-1.05.81H94.2a0.81,0.81,0,0,0-1,.61l-2.59,4.51a1,1,0,0,1-1.65.4,1.93,1.93,0,0,1-.43-0.91c-0.46-2-.89-3.92-1.34-6-0.09.18-.15,0.29-0.2,0.41-0.3.73-.61,1.45-0.9,2.19a1.1,1.1,0,0,1-1.12.77H82.37c-3.08,0-6.16,0-9.24,0a1.31,1.31,0,0,1-1.43-.85V69.88a1.27,1.27,0,0,1,1.4-.84c0.8,0,1.6,0,2.4,0l0.32,0-0.07-.26c-0.2-.69-0.44-1.38-0.6-2.08a10.38,10.38,0,0,1,.22-5.41,9.89,9.89,0,0,1,3.29-4.88,8.86,8.86,0,0,1,6.07-2,9.1,9.1,0,0,1,4.83,1.54c0.5,0.33,1,.72,1.46,1.09l0.14-.11a9.32,9.32,0,0,1,12.36-.34,9.84,9.84,0,0,1,3.31,5.57c0.11,0.48.17,1,.26,1.46v1.67Z"/><rect class="cls-5" x="93.09" y="97" width="32" height="3"/><rect class="cls-5" x="93.09" y="104" width="32" height="3"/><rect class="cls-5" x="93.09" y="111" width="32" height="3"/></svg>