<svg id="Body" xmlns="http://www.w3.org/2000/svg" viewBox="0 0 200 150"><defs><style>.cls-1{fill:#b3b3b3;}.cls-2{fill:#666;}.cls-3{fill:gray;}.cls-4{fill:#fff;}.cls-5{fill:#ce202e;}</style></defs><title>Icon</title><path class="cls-1" d="M127.44,65.08l6.43-.37,3.34-7.81C128.58,42.84,113.39,35,97.49,36.37A42,42,0,0,0,64.05,58.89L70.78,59l5.16,4.53A29.55,29.55,0,0,1,127.44,65.08Z"/><path class="cls-1" d="M63.36,60.24a45.63,45.63,0,0,0-4.44,24.09c2,23.12,20.75,40.77,42.87,40.68l-3.32-6.09,1.6-7C85,111.18,72.71,99,71.33,83.24a32,32,0,0,1,3.9-18.46l-5-4.39Z"/><path class="cls-1" d="M103.46,125c0.59,0,1.19-.07,1.77-0.12,22.8-2,39.74-23.07,38.57-48a42.35,42.35,0,0,0-5.71-18.55L134.8,66l-6.66.38A32.22,32.22,0,0,1,131.38,78c1.51,17.23-10.74,32.42-27.29,33.87-0.83.07-1.67,0.11-2.51,0.11L100,118.7Z"/><path class="cls-2" d="M65.81,94.52l2.64,2.07,1.9-2.53c0.44-.58.88-1.16,1.29-1.77a0.91,0.91,0,0,1,1.06-.39,5.68,5.68,0,0,1,3.73,3A22.24,22.24,0,0,1,79,103.25c0.21,1.39.33,2.8,0.5,4.27H52.1c0.22-1.73.38-3.41,0.64-5.07a20.26,20.26,0,0,1,2.52-7.69,5.56,5.56,0,0,1,3.66-2.85,1,1,0,0,1,1.1.45c0.92,1.3,1.9,2.56,2.83,3.86,0.28,0.38.47,0.3,0.76,0.05C64.32,95.69,65,95.13,65.81,94.52Z"/><path class="cls-3" d="M56.4,83.84c0.19-.38.4-0.76,0.55-1.15a2.7,2.7,0,0,0,.18-0.89,7.64,7.64,0,0,1,1.21-4.42,5.26,5.26,0,0,1,4.61-2.47,0.82,0.82,0,0,0,.52-0.08,3.78,3.78,0,0,1,2.6-.86A10.61,10.61,0,0,1,71.45,75,5.07,5.07,0,0,1,74.31,79c0.19,1,.24,2,0.36,3.06a1.15,1.15,0,0,0,.16.65c0.87,0.79.26,1.71,0.27,2.58a0.24,0.24,0,0,1-.09.18c-1,.64-1,1.87-1.56,2.79a9.37,9.37,0,0,1-5.16,4.55c-3.32,1.07-6.09,0-8.39-2.46a10.84,10.84,0,0,1-2.29-4,2.82,2.82,0,0,0-.52-0.64A2.17,2.17,0,0,1,56.66,85a6.66,6.66,0,0,1-.12-1.09Zm9.5,8.3a12.82,12.82,0,0,0,2.29-.6,8.9,8.9,0,0,0,5.26-7.23c0.24-1.67.29-1.4-1.27-1.66a21.55,21.55,0,0,1-6.9-1.85,2.22,2.22,0,0,0-2.6,0,26.07,26.07,0,0,1-3.81,1.67,0.78,0.78,0,0,0-.57.86,9.19,9.19,0,0,0,2.05,5.69A7.38,7.38,0,0,0,65.9,92.15Z"/><path class="cls-4" d="M65.9,92.15a12.82,12.82,0,0,0,2.29-.6,8.9,8.9,0,0,0,5.26-7.23c0.24-1.67.29-1.4-1.27-1.66a21.55,21.55,0,0,1-6.9-1.85,2.22,2.22,0,0,0-2.6,0,26.07,26.07,0,0,1-3.81,1.67,0.78,0.78,0,0,0-.57.86,9.19,9.19,0,0,0,2.05,5.69A7.38,7.38,0,0,0,65.9,92.15Z"/><path class="cls-2" d="M134.2,94.52l2.64,2.07,1.9-2.53c0.44-.58.88-1.16,1.29-1.77a0.91,0.91,0,0,1,1.06-.39,5.68,5.68,0,0,1,3.73,3,22.24,22.24,0,0,1,2.58,8.38c0.21,1.39.33,2.8,0.5,4.27H120.49c0.22-1.73.38-3.41,0.64-5.07a20.26,20.26,0,0,1,2.52-7.69,5.56,5.56,0,0,1,3.66-2.85,1,1,0,0,1,1.1.45c0.92,1.3,1.9,2.56,2.83,3.86,0.28,0.38.47,0.3,0.76,0.05C132.71,95.69,133.43,95.13,134.2,94.52Z"/><path class="cls-3" d="M124.79,83.84c0.19-.38.4-0.76,0.55-1.15a2.7,2.7,0,0,0,.18-0.89,7.64,7.64,0,0,1,1.21-4.42,5.26,5.26,0,0,1,4.61-2.47,0.82,0.82,0,0,0,.52-0.08,3.78,3.78,0,0,1,2.6-.86A10.61,10.61,0,0,1,139.84,75,5.07,5.07,0,0,1,142.7,79c0.19,1,.24,2,0.36,3.06a1.15,1.15,0,0,0,.16.65c0.87,0.79.26,1.71,0.27,2.58a0.24,0.24,0,0,1-.09.18c-1,.64-1,1.87-1.56,2.79a9.37,9.37,0,0,1-5.16,4.55c-3.32,1.07-6.09,0-8.39-2.46a10.84,10.84,0,0,1-2.29-4,2.82,2.82,0,0,0-.52-0.64A2.17,2.17,0,0,1,125,85a6.66,6.66,0,0,1-.12-1.09Zm9.5,8.3a12.82,12.82,0,0,0,2.29-.6,8.9,8.9,0,0,0,5.26-7.23c0.24-1.67.29-1.4-1.27-1.66a21.55,21.55,0,0,1-6.9-1.85,2.22,2.22,0,0,0-2.6,0,26.07,26.07,0,0,1-3.81,1.67,0.78,0.78,0,0,0-.57.86,9.19,9.19,0,0,0,2.05,5.69A7.38,7.38,0,0,0,134.29,92.15Z"/><path class="cls-4" d="M134.29,92.15a12.82,12.82,0,0,0,2.29-.6,8.9,8.9,0,0,0,5.26-7.23c0.24-1.67.29-1.4-1.27-1.66a21.55,21.55,0,0,1-6.9-1.85,2.22,2.22,0,0,0-2.6,0,26.07,26.07,0,0,1-3.81,1.67,0.78,0.78,0,0,0-.57.86,9.19,9.19,0,0,0,2.05,5.69A7.38,7.38,0,0,0,134.29,92.15Z"/><path class="cls-2" d="M102.36,45.58L105,47.65l1.9-2.53c0.44-.58.88-1.16,1.29-1.77a0.91,0.91,0,0,1,1.06-.39,5.68,5.68,0,0,1,3.73,3,22.24,22.24,0,0,1,2.58,8.38c0.21,1.39.33,2.8,0.5,4.27H88.65c0.22-1.73.38-3.41,0.64-5.07a20.26,20.26,0,0,1,2.52-7.69A5.56,5.56,0,0,1,95.48,43a1,1,0,0,1,1.1.45c0.92,1.3,1.9,2.56,2.83,3.86,0.28,0.38.47,0.3,0.76,0.05C100.87,46.76,101.59,46.2,102.36,45.58Z"/><path class="cls-3" d="M93,34.91c0.19-.38.4-0.76,0.55-1.15a2.7,2.7,0,0,0,.18-0.89,7.64,7.64,0,0,1,1.21-4.42A5.26,5.26,0,0,1,99.5,26a0.82,0.82,0,0,0,.52-0.08,3.78,3.78,0,0,1,2.6-.86A10.61,10.61,0,0,1,108,26.1,5.07,5.07,0,0,1,110.86,30c0.19,1,.24,2,0.36,3.06a1.15,1.15,0,0,0,.16.65c0.87,0.79.26,1.71,0.27,2.58a0.24,0.24,0,0,1-.09.18c-1,.64-1,1.87-1.56,2.79a9.37,9.37,0,0,1-5.16,4.55c-3.32,1.07-6.09,0-8.39-2.46a10.84,10.84,0,0,1-2.29-4,2.82,2.82,0,0,0-.52-0.64,2.17,2.17,0,0,1-.42-0.66A6.66,6.66,0,0,1,93.09,35Zm9.5,8.3a12.82,12.82,0,0,0,2.29-.6A8.9,8.9,0,0,0,110,35.38c0.24-1.67.29-1.4-1.27-1.66a21.55,21.55,0,0,1-6.9-1.85,2.22,2.22,0,0,0-2.6,0,26.07,26.07,0,0,1-3.81,1.67,0.78,0.78,0,0,0-.57.86,9.19,9.19,0,0,0,2.05,5.69A7.38,7.38,0,0,0,102.45,43.21Z"/><path class="cls-4" d="M102.45,43.21a12.82,12.82,0,0,0,2.29-.6A8.9,8.9,0,0,0,110,35.38c0.24-1.67.29-1.4-1.27-1.66a21.55,21.55,0,0,1-6.9-1.85,2.22,2.22,0,0,0-2.6,0,26.07,26.07,0,0,1-3.81,1.67,0.78,0.78,0,0,0-.57.86,9.19,9.19,0,0,0,2.05,5.69A7.38,7.38,0,0,0,102.45,43.21Z"/><path class="cls-3" d="M109.87,90.14l0.19-.14a1.67,1.67,0,0,1,2-.17,4.76,4.76,0,0,0,5.92-1.5,8.25,8.25,0,0,0-.54-10.56,5.15,5.15,0,0,0-4.93-1.62,0.51,0.51,0,0,1-.41-0.22,1.73,1.73,0,0,1-.14-0.61,0.38,0.38,0,0,1,.38-0.48,6.28,6.28,0,0,1,5.54,1.45A8.78,8.78,0,0,1,121,82.45,8.94,8.94,0,0,1,119,89.16a6.37,6.37,0,0,1-5.14,2.48A6.28,6.28,0,0,1,109.87,90.14Z"/><path class="cls-5" d="M80.28,82.91l1.85-1.07L106.3,67.9a1,1,0,0,1,.66-0.1q6.48,1.72,12.94,3.47l0.31,0.11L119,75.73l-0.33-.25a8.44,8.44,0,0,0-3-1.62,1.45,1.45,0,0,1-.56-0.34,2.55,2.55,0,0,0-4,3.14,2.53,2.53,0,0,0,3.32.89,0.74,0.74,0,0,1,.74,0,5.09,5.09,0,0,1,2.47,2.53,0.7,0.7,0,0,1,0,.44c-0.35,1.35-.71,2.71-1.09,4.05a1,1,0,0,1-.44.56c-2.18,1.28-4.38,2.54-6.58,3.81L95.3,97.22,90.56,100l-0.33.17Zm15.81,6.55L94.8,87.21c0.46-.36.46-0.36,0.94-0.16L98,88a0.62,0.62,0,0,0,.43.06c0.6-.32,1.17-0.67,1.84-1.05l-3.6-1.44c0.09-.2.16-0.37,0.23-0.53a2.31,2.31,0,0,0-.53-2.51,1.92,1.92,0,0,0-2.29-.25c-1.07.54-2.1,1.17-3.15,1.76a0.35,0.35,0,0,0-.07.12l3.59,6.21ZM109.56,80l-2.66,1.53L106,80.05l2.45-1.43-0.71-1.22-2.45,1.41-0.6-1,2.65-1.54L106.64,75l-4.26,2.46L106,83.73l4.26-2.46Zm-10.14.76,2.65-1.54L101.36,78,97.1,80.5l3.63,6.28L105,84.32l-0.71-1.22-2.67,1.52-0.88-1.52,2.44-1.43-0.71-1.22L100,81.86Zm-9.87,8.86,2.4-1.4L91.24,87l-2.41,1.38L88.18,87.3l2.62-1.52-0.72-1.23L85.87,87l3.63,6.28,1.59-.93Z"/><path class="cls-5" d="M94.11,86l-1-1.65c0.35-.19.66-0.38,1-0.53a0.73,0.73,0,0,1,1,.25,0.92,0.92,0,0,1,0,1.23,1.5,1.5,0,0,1-.26.22Z"/></svg>