<?xml version="1.0" encoding="utf-8"?>
<!-- Generator: Adobe Illustrator 18.1.1, SVG Export Plug-In . SVG Version: 6.00 Build 0)  -->
<svg version="1.1" id="Слой_1" xmlns="http://www.w3.org/2000/svg" xmlns:xlink="http://www.w3.org/1999/xlink" x="0px" y="0px"
	 viewBox="0 0 100 100" enable-background="new 0 0 100 100" xml:space="preserve">
<g>
	<path fill="#FFFFFF" d="M59.9,32H39.7C37,32,35,34.4,35,37.1v24.1c0,1.5,1,2.7,2,2.9v2.6l1.2,1.3h4.5l1.2-1.3V64h12v2.7l1,1.3h4.5
		l1.5-1.3v-2.6c1-0.3,2-1.5,2-2.9V37.1C65,34.4,62.6,32,59.9,32z M39.7,34h20.2c1.7,0,3.1,1.5,3.1,3.1V39H37v-1.9
		C37,35.5,38.1,34,39.7,34z M60.1,52c-0.5-2.6-2.9-4.9-5.8-4.9s-5.3,2.3-5.8,4.9H37V41h26v11H60.1z M58.1,52h-7.4
		c0.5-1.6,1.9-2.9,3.7-2.9C56.1,49.1,57.6,50.4,58.1,52z M42,66h-3v-2h3V66z M58,66v-2h3v2H58z M61.9,62H37.7
		c-0.6,0-0.7-0.2-0.7-0.8V54h26v7.2C63,61.8,62.4,62,61.9,62z"/>
	<path fill="#FFFFFF" d="M41.2,55.3c-1.6,0-2.9,1.3-2.9,2.9c0,1.6,1.3,2.9,2.9,2.9s2.9-1.3,2.9-2.9C44.1,56.6,42.8,55.3,41.2,55.3z
		 M41.2,59.1c-0.5,0-0.9-0.4-0.9-0.9s0.4-0.9,0.9-0.9s0.9,0.4,0.9,0.9S41.7,59.1,41.2,59.1z"/>
	<path fill="#FFFFFF" d="M58.7,55.3c-1.6,0-2.9,1.3-2.9,2.9c0,1.6,1.3,2.9,2.9,2.9c1.6,0,2.9-1.3,2.9-2.9
		C61.6,56.6,60.3,55.3,58.7,55.3z M58.7,59.1c-0.5,0-0.9-0.4-0.9-0.9s0.4-0.9,0.9-0.9s0.9,0.4,0.9,0.9S59.2,59.1,58.7,59.1z"/>
</g>
</svg>
