<?xml version="1.0" encoding="utf-8"?>
<!-- Generator: Adobe Illustrator 18.1.1, SVG Export Plug-In . SVG Version: 6.00 Build 0)  -->
<svg version="1.1" id="Слой_1" xmlns="http://www.w3.org/2000/svg" xmlns:xlink="http://www.w3.org/1999/xlink" x="0px" y="0px"
	 viewBox="0 0 100 100" enable-background="new 0 0 100 100" xml:space="preserve">
<g>
	<path fill="#FFFFFF" d="M66,32H33.8l-1,1l0,24.2l0.6,0.9l23.2,9.1l1.3-0.9V58h8l1-0.8V33L66,32z M56,64.9l-21.2-8.3l0-22L56,42.8
		V64.9z M65,56h-7v-8h3v-2h-3v-3.9l-0.6-0.9L51.9,39H61v-2H46.8l-7.7-3H65V56z"/>
	<path fill="#FFFFFF" d="M46.1,52c0,2.1,1.7,3.8,3.8,3.8s3.8-1.7,3.8-3.8c0-2.1-1.7-3.8-3.8-3.8S46.1,49.9,46.1,52z M49.9,50.2
		c1,0,1.8,0.8,1.8,1.8s-0.8,1.8-1.8,1.8c-1,0-1.8-0.8-1.8-1.8S48.9,50.2,49.9,50.2z"/>
</g>
</svg>
