<svg width="99" height="30" xmlns="http://www.w3.org/2000/svg"><g transform="translate(-2 -6)" fill="none"><path d="M92.387 15.16a1.507 1.507 0 0 1-.114.005c-3.081 0-5.589 2.572-5.595 5.736.006 3.16 2.507 5.729 5.583 5.735 3.076-.006 5.578-2.577 5.583-5.738-.005-3.118-2.439-5.662-5.457-5.738zm-.292-3.13c.05-.005.102-.007.154-.007 4.757 0 8.63 3.968 8.647 8.852a1.649 1.649 0 0 1 0 .045c-.017 4.87-3.867 8.83-8.606 8.853a1.516 1.516 0 0 1-.059 0c-4.735-.023-8.583-3.977-8.606-8.842a1.64 1.64 0 0 1 0-.06c.022-4.819 3.797-8.743 8.47-8.84zm-29.475.414a1.49 1.49 0 0 1 .085-.003c2.979 0 5.402 2.52 5.402 5.618 0 3.098-2.429 5.567-5.402 5.567-.04 0-.082-.003-.123-.007h-3.994v4.208c0 .876-.682 1.586-1.525 1.586-.842 0-1.524-.71-1.524-1.586v-5.656a1.67 1.67 0 0 1 0-.274v-7.864a1.592 1.592 0 0 1 0-.006c0-.876.682-1.586 1.524-1.586h5.47c.03 0 .058.001.086.003zm0 3.166a1.49 1.49 0 0 1-.087.002h-3.945v4.836h3.94c.047 0 .093.003.14.007h.037c1.296 0 2.353-1.046 2.353-2.396 0-1.349-1.056-2.447-2.353-2.447-.029 0-.057 0-.086-.002zm-18.316-3.513c-.13-.049-.27-.08-.416-.091-2.17-.16-3.836.285-4.95 1.323-.958.893-1.463 2.156-1.5 3.756-.027 1.102.316 2.663 2.098 3.835.837.55 1.888.954 3.31 1.27.078.018.156.029.234.033 3.145.706 3.562 1.6 3.617 2.09a1.626 1.626 0 0 0-.021.262c0 .345-.087.843-.499 1.255-.469.469-1.243.723-2.252.743a1.505 1.505 0 0 0-.308-.04c-1.866-.05-3.189-.773-4.341-1.548a1.512 1.512 0 0 0-2.126.453 1.6 1.6 0 0 0 .442 2.181c1.39.935 3.134 1.899 5.58 2.047.117.032.24.051.366.055l.259.003c2.376 0 3.768-.882 4.523-1.638a4.899 4.899 0 0 0 1.42-3.235 1.62 1.62 0 0 0 .036-.344c0-1.089-.36-2.635-2.08-3.823-.99-.684-2.32-1.188-4.189-1.588a1.51 1.51 0 0 0-.21-.03c-2.82-.669-2.797-1.596-2.79-1.905.025-1.061.38-1.392.496-1.5.422-.393 1.227-.574 2.34-.531.113.036.231.06.355.07.806.059 1.841.42 3.075 1.076.226.12.467.176.704.176a1.53 1.53 0 0 0 1.365-.852c.39-.772.095-1.723-.658-2.122-1.462-.776-2.736-1.23-3.88-1.381zm32.253.347a1.49 1.49 0 0 1 .086-.003c2.979 0 5.402 2.521 5.402 5.62 0 2.232-1.26 4.137-3.074 5.028l2.756 3.71a1.63 1.63 0 0 1-.274 2.225 1.48 1.48 0 0 1-.931.33 1.5 1.5 0 0 1-1.208-.615l-3.8-5.116H72.52v4.204c0 .876-.682 1.586-1.524 1.586s-1.525-.71-1.525-1.586v-13.8c0-.876.683-1.586 1.525-1.586a1.497 1.497 0 0 1 .005 0h5.47c.03 0 .058.001.086.003zm0 3.167a1.49 1.49 0 0 1-.086.002h-3.95v4.838h3.95c.047 0 .093.002.14.007h.032c1.296 0 2.353-1.047 2.353-2.397 0-1.35-1.056-2.448-2.353-2.448-.029 0-.058 0-.086-.002zm-25.569 5.701v-.303c0-.862.678-1.561 1.515-1.561.837 0 1.515.699 1.515 1.56v.304c0 .862-.678 1.561-1.515 1.561-.837 0-1.515-.699-1.515-1.56z" fill="#403181"/><g fill="#FFF"><ellipse cx="20.816" cy="22.189" rx="10.045" ry="10.022"/><path d="M14.544 26.207l5.262 3.24a1.402 1.402 0 0 1-.399 2.557l-12.44 3.102a1.405 1.405 0 0 1-1.704-1.025L2.48 22.824a7.674 7.674 0 0 1-.311-1.26l-.044-.175a1.399 1.399 0 0 1-.032-.492 7.599 7.599 0 0 1 5.747-7.882h.004c4.075-1.017 8.2 1.456 9.213 5.522a7.587 7.587 0 0 1-2.514 7.67z"/><path d="M15.107 9.187l6.71-2.711a5.4 5.4 0 0 1 7.026 2.989 5.4 5.4 0 0 1-2.977 7.03L13.529 21.48a7.483 7.483 0 0 1-1.56.627 5.36 5.36 0 0 1-2.988.192 7.425 7.425 0 0 1-5.854-4.576l-.256-.634c-1.536-3.802.296-8.128 4.092-9.662a7.416 7.416 0 0 1 8.144 1.76z"/></g><ellipse fill="#FFD740" style="mix-blend-mode:multiply" cx="20.816" cy="22.189" rx="10.045" ry="10.022"/><path d="M14.544 26.207l5.262 3.24a1.402 1.402 0 0 1-.399 2.557l-12.44 3.102a1.405 1.405 0 0 1-1.704-1.025L2.48 22.824a7.674 7.674 0 0 1-.311-1.26l-.044-.175a1.399 1.399 0 0 1-.032-.492 7.599 7.599 0 0 1 5.747-7.882h.004c4.075-1.017 8.2 1.456 9.213 5.522a7.587 7.587 0 0 1-2.514 7.67z" fill="#FF4081" style="mix-blend-mode:multiply"/><path d="M15.107 9.187l6.71-2.711a5.4 5.4 0 0 1 7.026 2.989 5.4 5.4 0 0 1-2.977 7.03L13.529 21.48a7.483 7.483 0 0 1-1.56.627 5.36 5.36 0 0 1-2.988.192 7.425 7.425 0 0 1-5.854-4.576l-.256-.634c-1.536-3.802.296-8.128 4.092-9.662a7.416 7.416 0 0 1 8.144 1.76z" fill="#40C4FF" style="mix-blend-mode:multiply"/></g></svg>