<svg xmlns="http://www.w3.org/2000/svg" xmlns:xlink="http://www.w3.org/1999/xlink" preserveAspectRatio="xMidYMid" width="48" height="48" viewBox="0 0 48 48">
  <defs>
    <style>

      .cls-2 {
        fill: #ffffff;
      }
    </style>
  </defs>
  <path d="M45.715,39.589 C45.715,39.589 36.873,44.666 36.873,44.666 C36.873,44.666 36.873,34.435 36.873,34.435 C36.873,34.435 45.715,29.358 45.715,29.358 C45.715,29.358 45.715,39.589 45.715,39.589 ZM26.437,26.943 C26.437,26.943 34.932,22.163 34.932,22.163 C34.932,22.163 44.469,27.352 44.469,27.352 C44.469,27.352 35.734,32.370 35.734,32.370 C35.734,32.370 26.437,26.943 26.437,26.943 ZM13.414,34.435 C13.414,34.435 22.857,29.041 22.857,29.041 C22.857,29.041 22.857,39.153 22.857,39.153 C22.857,39.153 13.414,44.666 13.414,44.666 C13.414,44.666 13.414,34.435 13.414,34.435 ZM3.580,27.261 C3.580,27.261 13.137,22.201 13.137,22.201 C13.137,22.201 21.611,27.035 21.611,27.035 C21.611,27.035 12.275,32.370 12.275,32.370 C12.275,32.370 3.580,27.261 3.580,27.261 ZM23.924,2.713 C23.924,2.713 32.469,7.906 32.469,7.906 C32.469,7.906 23.934,12.923 23.934,12.923 C23.934,12.923 15.580,7.816 15.580,7.816 C15.580,7.816 23.924,2.713 23.924,2.713 ZM33.715,20.134 C33.715,20.134 25.072,24.903 25.072,24.903 C25.072,24.903 25.072,14.990 25.072,14.990 C25.072,14.990 33.715,9.912 33.715,9.912 C33.715,9.912 33.715,20.134 33.715,20.134 ZM36.000,20.061 C36.000,20.061 36.000,7.215 36.000,7.215 C36.000,7.215 23.928,-0.001 23.928,-0.001 C23.928,-0.001 12.000,7.138 12.000,7.138 C12.000,7.138 12.000,20.135 12.000,20.135 C12.000,20.135 -0.000,26.583 -0.000,26.583 C-0.000,26.583 -0.000,41.016 -0.000,41.016 C-0.000,41.016 12.271,47.999 12.271,47.999 C12.271,47.999 24.000,41.214 24.000,41.214 C24.000,41.214 35.728,47.999 35.728,47.999 C35.728,47.999 48.000,41.016 48.000,41.016 C48.000,41.016 48.000,26.662 48.000,26.662 C48.000,26.662 36.000,20.061 36.000,20.061 Z" id="path-1" class="cls-2" fill-rule="evenodd"/>
</svg>
