<svg xmlns="http://www.w3.org/2000/svg" xmlns:xlink="http://www.w3.org/1999/xlink" preserveAspectRatio="xMidYMid" width="48" height="48" viewBox="0 0 48 48">
  <defs>
    <style>

      .cls-2 {
        fill: #ffffff;
      }
    </style>
  </defs>
  <path d="M14.000,29.456 C14.000,29.456 15.711,27.875 15.711,27.875 C17.711,28.844 18.980,29.579 21.230,31.183 C25.457,26.385 28.252,23.952 33.443,20.720 C33.443,20.720 34.000,22.001 34.000,22.001 C29.719,25.738 26.582,29.900 22.066,37.999 C19.279,34.719 17.422,32.628 14.000,29.456 ZM12.000,5.999 C12.000,7.103 11.105,7.999 10.000,7.999 C8.894,7.999 8.000,7.103 8.000,5.999 C8.000,5.999 8.000,1.999 8.000,1.999 C8.000,0.894 8.894,-0.001 10.000,-0.001 C11.105,-0.001 12.000,0.894 12.000,1.999 C12.000,1.999 12.000,5.999 12.000,5.999 ZM40.000,1.999 C40.000,0.894 39.105,-0.001 38.000,-0.001 C36.894,-0.001 36.000,0.894 36.000,1.999 C36.000,1.999 36.000,5.999 36.000,5.999 C36.000,7.103 36.894,7.999 38.000,7.999 C39.105,7.999 40.000,7.103 40.000,5.999 C40.000,5.999 40.000,1.999 40.000,1.999 ZM44.000,15.999 C44.000,15.999 4.000,15.999 4.000,15.999 C4.000,15.999 4.000,43.999 4.000,43.999 C4.000,43.999 44.000,43.999 44.000,43.999 C44.000,43.999 44.000,15.999 44.000,15.999 ZM48.000,4.000 C48.000,4.000 48.000,47.999 48.000,47.999 C48.000,47.999 -0.000,47.999 -0.000,47.999 C-0.000,47.999 -0.000,4.000 -0.000,4.000 C-0.000,4.000 6.000,4.000 6.000,4.000 C6.000,4.000 6.000,5.999 6.000,5.999 C6.000,8.205 7.795,10.000 10.000,10.000 C12.205,10.000 14.000,8.205 14.000,5.999 C14.000,5.999 14.000,4.000 14.000,4.000 C14.000,4.000 34.000,4.000 34.000,4.000 C34.000,4.000 34.000,5.999 34.000,5.999 C34.000,8.205 35.795,10.000 38.000,10.000 C40.205,10.000 42.000,8.205 42.000,5.999 C42.000,5.999 42.000,4.000 42.000,4.000 C42.000,4.000 48.000,4.000 48.000,4.000 Z" id="path-1" class="cls-2" fill-rule="evenodd"/>
</svg>
