<svg xmlns="http://www.w3.org/2000/svg" xmlns:xlink="http://www.w3.org/1999/xlink" preserveAspectRatio="xMidYMid" width="48" height="48" viewBox="0 0 48 48">
  <defs>
    <style>

      .cls-2 {
        fill: #ffffff;
      }
    </style>
  </defs>
  <path d="M7.564,43.999 C7.564,43.999 5.123,26.000 5.123,26.000 C5.123,26.000 42.844,26.000 42.844,26.000 C42.844,26.000 40.326,43.999 40.326,43.999 C40.326,43.999 7.564,43.999 7.564,43.999 ZM-0.000,17.999 C-0.000,17.999 4.070,47.998 4.070,47.998 C4.070,47.998 43.807,47.998 43.807,47.998 C43.807,47.998 48.000,17.999 48.000,17.999 C48.000,17.999 -0.000,17.999 -0.000,17.999 ZM6.881,3.999 C6.881,3.999 6.002,0.001 6.002,0.001 C6.002,0.001 41.990,0.001 41.990,0.001 C41.990,0.001 41.111,3.999 41.111,3.999 C41.111,3.999 6.881,3.999 6.881,3.999 ZM3.852,13.999 C3.852,13.999 2.740,8.000 2.740,8.000 C2.740,8.000 45.252,8.000 45.252,8.000 C45.252,8.000 44.141,13.999 44.141,13.999 C44.141,13.999 3.852,13.999 3.852,13.999 Z" id="path-1" class="cls-2" fill-rule="evenodd"/>
</svg>
