<svg xmlns="http://www.w3.org/2000/svg" xmlns:xlink="http://www.w3.org/1999/xlink" preserveAspectRatio="xMidYMid" width="64" height="32" viewBox="0 0 64 32">
  <defs>
    <style>

      .cls-2 {
        fill: #ffffff;
      }
    </style>
  </defs>
  <path d="M47.914,21.392 C46.622,19.966 37.948,11.437 36.406,9.898 C33.789,11.861 30.344,14.595 27.016,14.595 C24.500,14.595 22.344,13.111 21.768,10.986 C21.307,9.292 22.016,7.560 23.529,6.676 C25.422,5.572 26.677,4.060 28.208,2.167 C23.531,-0.787 19.542,4.013 14.477,4.058 C14.477,4.058 11.081,16.552 11.081,16.552 C12.562,16.903 13.854,17.278 15.052,17.729 C15.052,17.729 16.227,16.142 16.227,16.142 C18.339,13.260 22.745,13.855 24.094,17.077 C25.799,17.226 27.255,18.327 27.891,19.849 C29.542,19.993 31.021,21.042 31.682,22.619 C34.177,22.834 36.216,25.098 35.763,27.877 C35.763,27.877 37.508,29.621 37.508,29.621 C38.242,30.356 39.435,30.355 40.167,29.621 C40.904,28.883 40.904,27.693 40.167,26.958 C40.167,26.958 36.797,23.584 36.797,23.584 C36.612,23.399 36.612,23.096 36.805,22.912 C36.990,22.734 37.281,22.737 37.463,22.919 C37.463,22.919 41.526,26.984 41.526,26.984 C42.260,27.720 43.453,27.720 44.187,26.984 C44.924,26.248 44.924,25.058 44.187,24.322 C44.187,24.322 39.188,19.319 39.188,19.319 C38.995,19.130 39.003,18.818 39.203,18.639 C39.388,18.469 39.677,18.474 39.851,18.653 C39.851,18.653 45.253,24.053 45.253,24.053 C45.987,24.790 47.180,24.790 47.914,24.053 C48.648,23.317 48.648,22.128 47.914,21.392 ZM12.167,2.389 C12.167,2.389 4.221,-0.001 4.221,-0.001 C4.221,-0.001 -0.000,16.249 -0.000,16.249 C-0.000,16.249 7.833,18.332 7.833,18.332 C7.833,18.332 12.167,2.389 12.167,2.389 ZM49.547,4.141 C45.672,4.426 41.989,2.998 37.945,0.908 C37.055,0.448 36.029,0.075 35.026,0.075 C34.104,0.075 33.200,0.392 32.443,1.252 C29.711,4.347 28.125,7.083 24.872,8.980 C23.271,9.916 25.151,12.847 28.594,11.642 C30.349,11.027 32.727,9.438 34.667,7.874 C36.193,6.645 37.104,6.825 38.427,8.145 C40.901,10.622 49.234,18.846 49.234,18.846 C50.523,18.052 51.768,17.409 53.003,16.856 C53.003,16.856 49.547,4.141 49.547,4.141 ZM56.167,18.332 C56.167,18.332 64.000,16.249 64.000,16.249 C64.000,16.249 59.779,-0.001 59.779,-0.001 C59.779,-0.001 51.833,2.389 51.833,2.389 C51.833,2.389 56.167,18.332 56.167,18.332 ZM22.177,20.494 C22.177,20.494 20.010,23.418 20.010,23.418 C19.396,24.254 19.591,25.407 20.427,26.025 C21.247,26.624 22.474,26.427 23.044,25.645 C23.044,25.645 25.208,22.720 25.208,22.720 C25.828,21.886 25.643,20.705 24.802,20.091 C23.964,19.477 22.789,19.659 22.177,20.494 ZM35.471,28.914 C35.130,29.720 34.213,30.849 33.586,31.699 C34.000,31.912 34.411,31.999 34.789,31.999 C36.234,31.999 37.195,30.637 35.896,29.337 C35.896,29.337 35.471,28.914 35.471,28.914 ZM25.971,23.269 C25.971,23.269 23.825,26.166 23.825,26.166 C23.208,27.006 23.393,28.184 24.229,28.800 C25.031,29.389 26.281,29.186 26.862,28.396 C26.862,28.396 29.008,25.495 29.008,25.495 C29.625,24.659 29.443,23.481 28.604,22.864 C27.768,22.251 26.594,22.428 25.971,23.269 ZM19.260,22.848 C19.260,22.848 21.411,19.949 21.411,19.949 C22.026,19.110 21.849,17.935 21.005,17.317 C20.161,16.699 18.989,16.883 18.375,17.719 C18.375,17.719 16.227,20.621 16.227,20.621 C15.612,21.458 15.792,22.638 16.630,23.253 C17.427,23.835 18.680,23.642 19.260,22.848 ZM32.406,25.637 C33.245,26.248 33.427,27.427 32.807,28.262 C32.807,28.262 30.656,31.174 30.656,31.174 C30.083,31.959 28.838,32.170 28.026,31.575 C27.187,30.959 27.005,29.784 27.620,28.945 C27.620,28.945 29.776,26.034 29.776,26.034 C30.385,25.206 31.562,25.016 32.406,25.637 Z" id="path-1" class="cls-2" fill-rule="evenodd"/>
</svg>
