<svg xmlns="http://www.w3.org/2000/svg" xmlns:xlink="http://www.w3.org/1999/xlink" preserveAspectRatio="xMidYMid" width="48" height="48" viewBox="0 0 48 48">
  <defs>
    <style>

      .cls-2 {
        fill: #ffffff;
      }
    </style>
  </defs>
  <path d="M-0.000,47.999 C-0.000,47.999 -0.000,11.999 -0.000,11.999 C-0.000,11.999 12.000,11.999 12.000,11.999 C12.000,18.000 12.000,18.000 12.000,24.000 C12.000,24.000 24.000,15.999 24.000,15.999 C24.000,15.999 24.000,24.014 24.000,24.014 C24.000,24.014 36.000,15.999 36.000,15.999 C36.000,15.999 36.000,24.034 36.000,24.034 C36.000,24.034 48.000,15.999 48.000,15.999 C48.000,15.999 48.000,47.999 48.000,47.999 C48.000,47.999 -0.000,47.999 -0.000,47.999 ZM44.000,24.000 C44.000,24.000 32.000,31.999 32.000,31.999 C32.000,31.999 32.000,24.000 32.000,24.000 C32.000,24.000 20.000,31.999 20.000,31.999 C20.000,31.999 20.000,24.000 20.000,24.000 C20.000,24.000 8.000,31.999 8.000,31.999 C8.000,31.999 8.000,15.999 8.000,15.999 C8.000,15.999 4.000,15.999 4.000,15.999 C4.000,15.999 4.000,43.999 4.000,43.999 C4.000,43.999 44.000,43.999 44.000,43.999 C44.000,43.999 44.000,24.000 44.000,24.000 ZM14.000,39.999 C14.000,39.999 10.000,39.999 10.000,39.999 C10.000,39.999 10.000,33.999 10.000,33.999 C10.000,33.999 14.000,33.999 14.000,33.999 C14.000,33.999 14.000,39.999 14.000,39.999 ZM22.000,39.999 C22.000,39.999 18.000,39.999 18.000,39.999 C18.000,39.999 18.000,33.999 18.000,33.999 C18.000,33.999 22.000,33.999 22.000,33.999 C22.000,33.999 22.000,39.999 22.000,39.999 ZM30.000,39.999 C30.000,39.999 26.000,39.999 26.000,39.999 C26.000,39.999 26.000,33.999 26.000,33.999 C26.000,33.999 30.000,33.999 30.000,33.999 C30.000,33.999 30.000,39.999 30.000,39.999 ZM38.000,39.999 C38.000,39.999 34.000,39.999 34.000,39.999 C34.000,39.999 34.000,33.999 34.000,33.999 C34.000,33.999 38.000,33.999 38.000,33.999 C38.000,33.999 38.000,39.999 38.000,39.999 ZM21.000,7.999 C20.508,7.999 20.044,7.881 19.635,7.671 C19.001,9.045 17.611,10.000 16.000,10.000 C11.310,10.000 8.557,4.096 6.000,10.000 C6.000,10.000 4.000,10.000 4.000,10.000 C4.395,5.636 7.571,1.999 11.000,1.999 C11.492,1.999 11.956,2.118 12.365,2.328 C12.999,0.953 14.389,-0.001 16.000,-0.001 C17.611,-0.001 19.001,0.953 19.635,2.328 C20.044,2.118 20.508,1.999 21.000,1.999 C22.656,1.999 24.000,3.344 24.000,4.999 C24.000,6.655 22.656,7.999 21.000,7.999 Z" id="path-1" class="cls-2" fill-rule="evenodd"/>
</svg>
