<?xml version="1.0" encoding="utf-8"?>
<svg version="1.1" id="Isolation_Mode" xmlns="http://www.w3.org/2000/svg" xmlns:xlink="http://www.w3.org/1999/xlink" x="0px"
	 y="0px" viewBox="0 0 515.6 494.5" style="enable-background:new 0 0 515.6 494.5;" xml:space="preserve">
<style type="text/css">
	.st0{}
	.st1{fill:#BDBDBD;opacity:0.3;}
	.st2{opacity:0.46;fill:url(#SVGID_1_);}
	.st3{opacity:0.46;fill:url(#SVGID_2_);}
	.st4,.st5{fill:url(#SVGID_3_);}
	.anim0,.anim1,.anim2,.anim3{opacity:.15;transform-origin: center 58%;transform: scale(.8)}
	@keyframes op{0%,100%{opacity:.15;transform: scale(.8);} 42%,58%{opacity:1; transform: scale(1);}}
	.anim3{animation:op 5s ease infinite alternate;}
	.anim2{animation:op 5s ease .5s infinite alternate;}
	.anim1{animation:op 5s ease 1.2s infinite alternate;}
	.anim0{animation:op 5s ease 1.6s infinite alternate;}
</style>
<g>
	<g class="anim0">
		<path class="st1" d="M249,494.5l-0.7-0.8L0,198.8l0.2-0.5l48.6-138l0.5-0.1L289.9,0l0.3,0.2l168.7,89.2l0.1,0.1l56.6,60.5 l-37,89.7l-31.1,71.9l-0.2,0.1L249,494.5z M2.3,198.4l246.9,293.2l196.6-181.2l30.9-71.5l36.6-88.5L457.7,91l-168-88.8L50.3,62 L2.3,198.4z"/>
	</g>
	<g class="anim1">
		<radialGradient id="SVGID_1_" cx="256.1326" cy="250.3963" r="174.742" gradientUnits="userSpaceOnUse">
			<stop  offset="0" style="stop-color:#FFFFFF"/>
			<stop  offset="0.4872" style="stop-color:#7CE8FF"/>
			<stop  offset="0.841" style="stop-color:#23D8FF"/>
			<stop  offset="1" style="stop-color:#00D2FF"/>
		</radialGradient>
		<polygon class="st2" points="395.5,141.3 278.3,79.4 111.4,121.1 77.7,216.7 250.1,421.4 387.4,294.8 409,245 434.5,183.1 		"/>
	</g>
	<g class="anim2">
		<radialGradient id="SVGID_2_" cx="263.6257" cy="193.4399" r="116.5392" gradientUnits="userSpaceOnUse">
			<stop  offset="0" style="stop-color:#FFFFFF"/>
			<stop  offset="0.4872" style="stop-color:#7CE8FF"/>
			<stop  offset="0.841" style="stop-color:#23D8FF"/>
			<stop  offset="1" style="stop-color:#00D2FF"/>
		</radialGradient>
		<polygon class="st3" points="356.6,120.7 278.4,79.4 167.1,107.2 144.6,171 259.6,307.5 351.2,223.1 365.5,189.8 382.6,148.5 "/>
	</g>
	<g class="anim3">
		<linearGradient id="SVGID_3_" gradientUnits="userSpaceOnUse" x1="256.325" y1="374.1695" x2="256.325" y2="41.0016">
			<stop  offset="0" style="stop-color:#223AF0"/>
			<stop  offset="0.2111" style="stop-color:#1C55F3"/>
			<stop  offset="0.6624" style="stop-color:#0C9AFA"/>
			<stop  offset="1" style="stop-color:#00D2FF"/>
		</linearGradient>
		<polygon class="st5" points="282.4,145.7 261.6,134.6 231.9,142.1 225.9,159.1 256.6,195.4 281,172.9 284.8,164.1 289.4,153.1 "/>
	</g>
	<g class="anim4">
		<path class="st4" d="M339.2,374.2l-50.7-87.5h-64.4l-50.7,87.5l-19.5-107.3l44.2-64.3V135l58.2-94l58.2,94v67.6l44.2,64.3 L339.2,374.2z M216.8,273.9h79.1l37,63.9l12.4-68l-43.5-63.2v-67.9l-45.4-73.4l-45.4,73.4v67.9l-43.5,63.2l12.4,68L216.8,273.9z"/>
	</g>
</g></svg>