<svg id="Layer_1" data-name="Layer 1" xmlns="http://www.w3.org/2000/svg" viewBox="0 0 213.67 193.6"><title>1</title><path d="M204.87,132h-8.8V105.6a8.8,8.8,0,0,0-5.89-8.31L81.44,59.24,54.34,4.88A8.8,8.8,0,0,0,43.68.45C42.44.87,13.11,11,3,41l0,.05v0l0,.09c-10,30.14,9,59.24,9.83,60.46a8.8,8.8,0,0,0,11.58,2.82L76,76,92.63,81.8l-36.82,100a8.8,8.8,0,1,0,16.51,6.08l10.54-28.61L129.4,192a8.8,8.8,0,0,0,13.54-9.58L117,90.34l61.44,21.5V132h-8.8a8.8,8.8,0,0,0-8.8,8.8v44a8.8,8.8,0,0,0,17.6,0V149.6h17.6v35.2a8.8,8.8,0,1,0,17.6,0v-44A8.8,8.8,0,0,0,204.87,132ZM89.16,142.14,102.86,105l16.43,58.4ZM42.42,20.41,57.62,50.9l-34.4-12C28.64,29.55,36.7,23.66,42.42,20.41ZM23.6,84.79C20.49,78,16.75,67.08,17.79,55.61L53.69,68.17Z"/></svg>