<svg xmlns="http://www.w3.org/2000/svg" xmlns:xlink="http://www.w3.org/1999/xlink" preserveAspectRatio="xMidYMid" width="914" height="384" viewBox="0 0 914 384">
  <defs>
    <style>

      .cls-2 {
        fill: #ffffff;
        stroke: #d04929;
        stroke-linejoin: round;
        stroke-width: 1px;
        filter: url(#drop-shadow-1);
      }
    </style>

    <filter id="drop-shadow-1" filterUnits="userSpaceOnUse">
      <feOffset in="SourceAlpha" dx="4" dy="6.928"/>
      <feGaussianBlur result="dropShadow" stdDeviation="4.583"/>
      <feFlood flood-color="#000000" flood-opacity="0.06"/>
      <feComposite operator="in" in2="dropShadow"/>
      <feComposite in="SourceGraphic" result="dropShadow"/>
    </filter>
  </defs>
  <g id="slider-bgsvg" style="fill: #ffffff; filter: url(#drop-shadow-1);">
    <path d="M845.312,361.000 C845.312,361.000 447.100,323.914 447.100,323.914 C447.100,323.914 74.148,360.458 74.148,360.458 C74.148,360.458 23.707,193.187 23.707,193.187 C23.707,193.187 23.000,193.159 23.000,193.159 C23.000,193.159 23.349,192.000 23.349,192.000 C23.349,192.000 23.000,190.841 23.000,190.841 C23.000,190.841 23.707,190.813 23.707,190.813 C23.707,190.813 74.148,23.543 74.148,23.543 C74.148,23.543 447.100,60.086 447.100,60.086 C447.100,60.086 845.312,23.000 845.312,23.000 C845.312,23.000 891.000,189.619 891.000,189.619 C891.000,189.619 845.312,361.000 845.312,361.000 Z" id="path-1" class="cls-2" style="stroke: inherit; filter: none; fill: inherit;" fill-rule="evenodd"/>
  </g>
  <use xlink:href="#path-1" style="stroke: #d04929; fill: none; filter: none;"/>
</svg>
