<svg id="Layer_1" data-name="Layer 1" xmlns="http://www.w3.org/2000/svg" viewBox="0 0 168.45 158.33"><title>1</title><path d="M67,122.53c-10.8-21.59-7.51-47.25,9-70.39,11.69-16.36,19.76-27.62,25.31-35.33V8.35a3.43,3.43,0,0,0-2.4-3.27L83.37.16a3.43,3.43,0,0,0-2.07,0L65.73,5.08a3.43,3.43,0,0,0-2.4,3.27v9.85A64.11,64.11,0,0,0,51.87,23l-8-8a3.43,3.43,0,0,0-4-.62L25.37,21.91a3.43,3.43,0,0,0-1.46,1.46L16.38,37.86a3.43,3.43,0,0,0,.62,4L25.16,50a64.08,64.08,0,0,0-4.31,10.3H8.35a3.43,3.43,0,0,0-3.27,2.4L.16,78.3a3.43,3.43,0,0,0,0,2.07L5.08,95.94a3.43,3.43,0,0,0,3.27,2.4h12.2a64.05,64.05,0,0,0,4.16,10.42L17,116.47a3.43,3.43,0,0,0-.62,4L23.91,135a3.43,3.43,0,0,0,1.46,1.46L39.86,144a3.43,3.43,0,0,0,4-.62L51,136.19a64.11,64.11,0,0,0,12.32,5.28V150a3.43,3.43,0,0,0,2.4,3.27l15.57,4.92a3.43,3.43,0,0,0,2.07,0l15.57-4.92a3.42,3.42,0,0,0,2-1.64A57.44,57.44,0,0,1,67,122.53Z"/><path d="M154.43,55.92c-24.68-34.54-33.24-46.37-36-50.12h-1.17c-2.73,3.75-11.29,15.58-36,50.12-32.53,45.52-3.44,91,36,91.92v0h1.17v0C157.86,147,187,101.44,154.43,55.92Z"/></svg>