<svg id="Layer_1" data-name="Layer 1" xmlns="http://www.w3.org/2000/svg" viewBox="0 0 66 50.87"><defs><style>.cls-1{fill:#050505;}</style></defs><title>1</title><rect class="cls-1" y="22" width="5.5" height="27.5"/><rect class="cls-1" x="60.5" y="22" width="5.5" height="27.5"/><path class="cls-1" d="M52.25,33H47.87A15.16,15.16,0,0,0,35.75,20.88V13.75h-5.5v7.13A15.16,15.16,0,0,0,18.13,33H13.75V22H8.25V49.5h5.5v-11h4.38a15.12,15.12,0,0,0,29.74,0h4.38v11h5.5V22h-5.5ZM33,42.62a6.88,6.88,0,1,1,6.88-6.88A6.88,6.88,0,0,1,33,42.62Z"/><path class="cls-1" d="M16.5,11h33a2.75,2.75,0,0,0,2.75-2.75h0A2.75,2.75,0,0,0,49.5,5.5H35.75V0h-5.5V5.5H16.5a2.75,2.75,0,0,0-2.75,2.75h0A2.75,2.75,0,0,0,16.5,11Z"/></svg>