<svg id="Layer_1" data-name="Layer 1" xmlns="http://www.w3.org/2000/svg" viewBox="0 0 152.62 153.52"><title>1</title><path d="M151,130c-11.23-13.36-23.89-17.17-36.71-16.21a0,0,0,0,1,0,0V102.37l0,0h25.34a6.55,6.55,0,0,0,6.63-6.29,6.4,6.4,0,0,0-6.4-6.5H120.7s.12.87.12.86c0-.82,2.2,3.28,1.86,2.48L89.24,12.82a0,0,0,0,1,0,0h12a6.55,6.55,0,0,0,6.63-6.29,6.4,6.4,0,0,0-6.4-6.5H50.54a6.55,6.55,0,0,0-6.63,6.29,6.4,6.4,0,0,0,6.4,6.5H62.55a0,0,0,0,1,0,0l-33,79.46c-.33.8,1.24-1.44,1.24-.62,0,0,.32-2.11.31-2.11H12.16a6.55,6.55,0,0,0-6.63,6.29,6.4,6.4,0,0,0,6.4,6.5H34.3a0,0,0,0,1,0,0v38.29a0,0,0,0,1,0,0c-23.91-.72-29.51-9.35-29.57-9.44a1.71,1.71,0,0,1,.13.23h0a8.77,8.77,0,0,0-.12,15.64c6.69,3.43,17,6.41,32.78,6.41,12.69,0,26-6.53,40-13.44,11.81-5.81,24-11.81,35.2-13.28,11.62-1.53,20.71,2.16,28.6,11.63a6.4,6.4,0,0,0,9.65.21A6.55,6.55,0,0,0,151,130ZM44.46,89.53,55.13,63.92h0L93.25,89.52a0,0,0,0,1,0,0H44.48A0,0,0,0,1,44.46,89.53Zm59.38-8.3L65,55.08a0,0,0,0,1,0,0L88.15,43.51h0l15.7,37.68A0,0,0,0,1,103.84,81.23ZM64.78,40.85a0,0,0,0,1,0,0L75.41,15.25a6.38,6.38,0,0,0,.49-2.45,6.38,6.38,0,0,0,.49,2.45l6.83,16.4a0,0,0,0,1,0,0Zm7.14,87.75c-8.77,4.31-17.2,8.45-24.78,10.6a0,0,0,0,1,0,0V102.37a0,0,0,0,1,0,0h54.33a0,0,0,0,1,0,0v13.84C91.22,119.11,81.14,124.06,71.91,128.6Z"/></svg>