<svg xmlns="http://www.w3.org/2000/svg" xmlns:xlink="http://www.w3.org/1999/xlink" preserveAspectRatio="xMidYMid" width="1095" height="454" viewBox="0 0 1095 454">
  <defs>
    <style>

      .cls-2 {
        fill: #ffffff;
        filter: url(#drop-shadow-1);
      }
    </style>

    <filter id="drop-shadow-1" filterUnits="userSpaceOnUse">
      <feOffset in="SourceAlpha" dx="4" dy="6.928"/>
      <feGaussianBlur result="dropShadow" stdDeviation="4.583"/>
      <feFlood flood-color="#000000" flood-opacity="0.06"/>
      <feComposite operator="in" in2="dropShadow"/>
      <feComposite in="SourceGraphic" result="dropShadow"/>
    </filter>
  </defs>
  <path d="M1017.233,431.500 C1017.233,431.500 535.525,386.624 535.525,386.624 C535.525,386.624 84.373,430.844 84.373,430.844 C84.373,430.844 23.356,228.437 23.356,228.437 C23.356,228.437 22.500,228.403 22.500,228.403 C22.500,228.403 22.923,227.000 22.923,227.000 C22.923,227.000 22.500,225.598 22.500,225.598 C22.500,225.598 23.356,225.563 23.356,225.563 C23.356,225.563 84.373,23.157 84.373,23.157 C84.373,23.157 535.525,67.376 535.525,67.376 C535.525,67.376 1017.233,22.500 1017.233,22.500 C1017.233,22.500 1072.500,224.120 1072.500,224.120 C1072.500,224.120 1017.233,431.500 1017.233,431.500 Z" id="path-1" class="cls-2" fill-rule="evenodd"/>
</svg>
