<svg id="Layer_1" data-name="Layer 1" xmlns="http://www.w3.org/2000/svg" viewBox="0 0 132 69.43"><defs><style>.cls-1{opacity:0.5;}.cls-2{fill:#f25542;}</style></defs><title>icon</title><ellipse class="cls-1" cx="66" cy="64.43" rx="66" ry="5"/><path class="cls-2" d="M103.68,4.16a5.1,5.1,0,0,0-6-4.07L29.44,12.93h75.89Z"/><path class="cls-2" d="M110.4,12.93H20.6A5.1,5.1,0,0,0,15.5,18v42.8a5.1,5.1,0,0,0,5.1,5.1h89.8a5.1,5.1,0,0,0,5.1-5.1V18A5.1,5.1,0,0,0,110.4,12.93Zm-44.9,46c-8.28,0-15-8.51-15-19s6.72-19,15-19,15,8.51,15,19S73.78,58.93,65.5,58.93Z"/><path class="cls-1" d="M29.81,12.93H20.6A5.1,5.1,0,0,0,15.5,18V26.5A19,19,0,0,0,29.81,12.93Z"/><path class="cls-1" d="M15.5,52.36v8.47a5.1,5.1,0,0,0,5.1,5.1h9.21A19,19,0,0,0,15.5,52.36Z"/><path class="cls-1" d="M110.4,12.93h-9.21A19,19,0,0,0,115.5,26.5V18A5.1,5.1,0,0,0,110.4,12.93Z"/><path class="cls-1" d="M101.19,65.93h9.21a5.1,5.1,0,0,0,5.1-5.1V52.36A19,19,0,0,0,101.19,65.93Z"/><path class="cls-1" d="M97.73.09l-9.06,1.7a19,19,0,0,0,16.57,10.69l-1.57-8.33A5.1,5.1,0,0,0,97.73.09Z"/></svg>