<svg id="Layer_1" data-name="Layer 1" xmlns="http://www.w3.org/2000/svg" viewBox="0 0 90 92"><defs><style>.cls-1{opacity:0.5;}.cls-2{fill:#f25542;}</style></defs><title>icon</title><ellipse class="cls-1" cx="44.5" cy="89" rx="38" ry="3"/><path class="cls-2" d="M32.68,55.55C32,55.5,0,62.5,0,62.5v-10L32.68,35Z"/><path class="cls-2" d="M57.32,55.55c.68,0,32.68,7,32.68,7v-10L57.32,35Z"/><path class="cls-1" d="M57.32,37.24V55.55c.13,0,1.44.25,3.45.66Z"/><path class="cls-1" d="M32.68,55.55V37.24l-3.45,19C31.25,55.79,32.55,55.54,32.68,55.55Z"/><path class="cls-2" d="M55.5,75s2-9,2-30-3-45-12-45h-1c-9,0-12,24-12,45s2,30,2,30l-12,6v7s16-2,17-3h11c1,1,17,3,17,3V81ZM51,27.5a7.5,7.5,0,0,0-12,0v-6s1-4,6-4,6,4,6,4Z"/><path class="cls-1" d="M44,69.5c-2,0-3-1-3,6s3,11,3,11,3-4,3-11S46,69.5,44,69.5Z"/></svg>