<?xml version="1.0" encoding="utf-8"?>
<!-- Generator: Adobe Illustrator 21.0.2, SVG Export Plug-In . SVG Version: 6.00 Build 0)  -->
<svg version="1.1" id="Layer_1" xmlns="http://www.w3.org/2000/svg" xmlns:xlink="http://www.w3.org/1999/xlink" x="0px" y="0px"
	 viewBox="0 0 96 98" style="enable-background:new 0 0 96 98;" xml:space="preserve">
<style type="text/css">
	.st0{opacity:0.5;}
	.st1{fill:#F25542;}
</style>
<g>
	<g>
		<ellipse class="st0" cx="47.5" cy="95" rx="31" ry="3"/>
		<path class="st1" d="M78.5,30.5h-14v-13C64.5,7.8,56.7,0,47,0S29.5,7.8,29.5,17.5v13h-12C7.8,30.5,0,38.3,0,48v0
			c0,9.7,7.8,17.5,17.5,17.5h12v13C29.5,88.2,37.3,96,47,96s17.5-7.8,17.5-17.5v-13h14C88.2,65.5,96,57.7,96,48v0
			C96,38.3,88.2,30.5,78.5,30.5z M58,58.7c0,2.7-2.2,4.8-4.8,4.8H40.8c-2.7,0-4.8-2.2-4.8-4.8V36.3c0-2.7,2.2-4.8,4.8-4.8h12.3
			c2.7,0,4.8,2.2,4.8,4.8V58.7z"/>
		<circle class="st0" cx="38.5" cy="13" r="2"/>
		<circle class="st0" cx="38.5" cy="22" r="2"/>
		<circle class="st0" cx="55.5" cy="13" r="2"/>
		<circle class="st0" cx="55.5" cy="22" r="2"/>
		<circle class="st0" cx="47.5" cy="9" r="2"/>
		<circle class="st0" cx="47.5" cy="18" r="2"/>
		<circle class="st0" cx="38.5" cy="82" r="2"/>
		<circle class="st0" cx="38.5" cy="73" r="2"/>
		<circle class="st0" cx="55.5" cy="82" r="2"/>
		<circle class="st0" cx="55.5" cy="73" r="2"/>
		<circle class="st0" cx="47.5" cy="86" r="2"/>
		<circle class="st0" cx="47.5" cy="77" r="2"/>
		<circle class="st0" cx="82.5" cy="39" r="2"/>
		<circle class="st0" cx="73.5" cy="39" r="2"/>
		<circle class="st0" cx="82.5" cy="56" r="2"/>
		<circle class="st0" cx="73.5" cy="56" r="2"/>
		<circle class="st0" cx="86.5" cy="48" r="2"/>
		<circle class="st0" cx="77.5" cy="48" r="2"/>
		<circle class="st0" cx="20.5" cy="39" r="2"/>
		<circle class="st0" cx="20.5" cy="56" r="2"/>
		<polygon class="st0" points="64.5,31.9 64.5,65.5 68,65.5 		"/>
	</g>
	<circle class="st0" cx="11.5" cy="39" r="2"/>
	<circle class="st0" cx="11.5" cy="56" r="2"/>
	<circle class="st0" cx="7.5" cy="48" r="2"/>
	<circle class="st0" cx="16.5" cy="48" r="2"/>
</g>
</svg>
