<svg id="Layer_1" data-name="Layer 1" xmlns="http://www.w3.org/2000/svg" viewBox="0 0 112 69"><defs><style>.cls-1{opacity:0.5;}.cls-2{fill:#f25542;}</style></defs><title>icon</title><ellipse class="cls-1" cx="56" cy="66" rx="56" ry="3"/><circle class="cls-2" cx="27.25" cy="58" r="9.25"/><path class="cls-1" d="M18,58a9.22,9.22,0,0,0,.52,3c4.25,0,12.84.13,17.43.09A9.1,9.1,0,0,0,36.28,56H18.22A9.26,9.26,0,0,0,18,58Z"/><circle class="cls-2" cx="81.25" cy="58" r="9.25"/><path class="cls-1" d="M72,58a9.22,9.22,0,0,0,.52,3c4.25,0,12.84.13,17.43.09A9.1,9.1,0,0,0,90.28,56H72.22A9.26,9.26,0,0,0,72,58Z"/><path class="cls-2" d="M81.61,14.17H72V3a3,3,0,0,0-3-3H3A3,3,0,0,0,0,3V55a3,3,0,0,0,3,3H69a3,3,0,0,0,2.23-1h33.46A3.33,3.33,0,0,0,108,53.67V40.56A26.39,26.39,0,0,0,81.61,14.17ZM76.5,34.5v-15h8a15,15,0,0,1,15,15Z"/><path class="cls-1" d="M72,15c0,1,4,41,4,41l-4-2Z"/></svg>