<?xml version="1.0" encoding="utf-8"?>
<!-- Generator: Adobe Illustrator 18.1.1, SVG Export Plug-In . SVG Version: 6.00 Build 0)  -->
<svg version="1.1" id="Слой_1" xmlns="http://www.w3.org/2000/svg" xmlns:xlink="http://www.w3.org/1999/xlink" x="0px" y="0px"
	 viewBox="0 0 48 48" enable-background="new 0 0 48 48" xml:space="preserve">
<g>
	<path fill="#231F20" d="M26.9,45c-11.6,0-21-9.4-21-21h2c0,10.5,8.5,19.1,19.1,19.1S46,34.5,46,24S37.4,4.9,26.9,4.9
		c-2.3,0-4.6,0.4-6.7,1.2l-0.7-1.9C21.8,3.4,24.3,3,26.9,3c11.6,0,21,9.4,21,21C48,35.6,38.5,45,26.9,45z"/>
</g>
<g>
	<polygon fill="#231F20" points="27.6,25 26,24.7 25.9,15.1 27.9,15.1 27.9,21.9 38.1,11.7 39.5,13.1 	"/>
</g>
<g>
	<rect x="26" y="7" fill="#231F20" width="2" height="4"/>
</g>
<g>
	<rect x="26" y="37" fill="#231F20" width="2" height="4"/>
</g>
<g>
	<rect x="40" y="24" fill="#231F20" width="4" height="2"/>
</g>
<g>
	
		<rect x="15.3" y="32.8" transform="matrix(0.7071 0.7071 -0.7071 0.7071 29.2405 -1.4078)" fill="#231F20" width="2" height="3.5"/>
</g>
<g>
	<rect x="35.7" y="33.6" transform="matrix(0.7072 0.707 -0.707 0.7072 35.4356 -16.3876)" fill="#231F20" width="3.5" height="2"/>
</g>
<g>
	<rect x="4" y="19" fill="#231F20" width="9" height="2"/>
</g>
<g>
	<rect x="2" y="14" fill="#231F20" width="13" height="2"/>
</g>
<g>
	<rect y="9" fill="#231F20" width="18" height="2"/>
</g>
</svg>
