<?xml version="1.0" encoding="utf-8"?>
<!-- Generator: Adobe Illustrator 18.1.1, SVG Export Plug-In . SVG Version: 6.00 Build 0)  -->
<svg version="1.1" id="Слой_1" xmlns="http://www.w3.org/2000/svg" xmlns:xlink="http://www.w3.org/1999/xlink" x="0px" y="0px"
	 viewBox="0 0 48 48" enable-background="new 0 0 48 48" xml:space="preserve">
<g>
	<polygon fill="#231F20" points="48,40.3 0,40.3 0,5.5 14.2,5.5 14.2,7.5 2,7.5 2,38.3 46,38.3 46,7.5 34.2,7.5 34.2,5.5 48,5.5 	
		"/>
</g>
<g>
	<path fill="#231F20" d="M34.8,10.3H13.2V3.2h21.7V10.3z M15.2,8.3h17.7V5.2H15.2V8.3z"/>
</g>
<polygon fill="#231F20" points="40,30 40,31.5 33.3,24.6 25,26 22.9,19 14.1,20 8.3,12.9 6.7,14.1 13.2,22.1 21.4,21.2 23.5,28.3 
	32.6,26.8 38.6,33 37,33 37,35 42,35 42,30 "/>
</svg>
