<svg id="_1" data-name="1" xmlns="http://www.w3.org/2000/svg" viewBox="0 0 370 340"><defs><style>.cls-1{fill:#f2f2f2;}.cls-2{fill:#ffd9d9;}</style></defs><title>Image_Beremen</title><polygon class="cls-1" points="1.9 0 0 2.05 0 3.19 3.67 0 1.9 0"/><polygon class="cls-1" points="17.13 0 0 11.88 0 13.02 18.9 0 17.13 0"/><polygon class="cls-1" points="32.36 0 0 21.71 0 22.85 34.13 0 32.36 0"/><polygon class="cls-1" points="47.59 0 0 31.54 0 32.68 49.36 0 47.59 0"/><polygon class="cls-1" points="62.82 0 0 41.37 0 42.51 64.59 0 62.82 0"/><polygon class="cls-1" points="78.05 0 0 51.2 0 52.34 79.82 0 78.05 0"/><polygon class="cls-1" points="93.28 0 0 61.03 0 62.17 95.05 0 93.28 0"/><polygon class="cls-1" points="108.51 0 0 70.86 0 72 110.28 0 108.51 0"/><polygon class="cls-1" points="123.74 0 0 80.69 0 81.83 125.5 0 123.74 0"/><polygon class="cls-1" points="138.97 0 0 90.52 0 91.66 140.73 0 138.97 0"/><polygon class="cls-1" points="154.19 0 0 100.35 0 101.49 155.96 0 154.19 0"/><polygon class="cls-1" points="169.42 0 0 110.18 0 111.32 171.19 0 169.42 0"/><polygon class="cls-1" points="184.65 0 0 120.01 0 121.15 186.42 0 184.65 0"/><polygon class="cls-1" points="199.88 0 0 129.84 0 130.99 201.65 0 199.88 0"/><polygon class="cls-1" points="215.11 0 0 139.67 0 140.81 216.88 0 215.11 0"/><polygon class="cls-1" points="230.34 0 0 149.5 0 150.65 232.11 0 230.34 0"/><polygon class="cls-1" points="245.57 0 0 159.33 0 160.47 247.34 0 245.57 0"/><polygon class="cls-1" points="260.8 0 0 169.16 0 170.31 262.57 0 260.8 0"/><polygon class="cls-1" points="276.03 0 0 179 0 180.14 277.8 0 276.03 0"/><polygon class="cls-1" points="291.26 0 0 188.82 0 189.97 293.02 0 291.26 0"/><polygon class="cls-1" points="306.49 0 0 198.66 0 199.8 308.25 0 306.49 0"/><polygon class="cls-1" points="321.71 0 0 208.49 0 209.63 323.48 0 321.71 0"/><polygon class="cls-1" points="336.94 0 0 218.32 0 219.46 338.71 0 336.94 0"/><polygon class="cls-1" points="352.17 0 0 228.15 0 229.29 353.94 0 352.17 0"/><polygon class="cls-1" points="367.4 0 0 237.98 0 239.12 369.17 0 367.4 0"/><polygon class="cls-1" points="369 9.62 0 247.81 0 248.95 369 10.76 369 9.62"/><polygon class="cls-1" points="369 19.45 0 257.64 0 258.78 369 20.59 369 19.45"/><polygon class="cls-1" points="369 29.28 0 267.47 0 268.61 369 30.42 369 29.28"/><polygon class="cls-1" points="369 39.11 0 277.3 0 278.44 369 40.25 369 39.11"/><polygon class="cls-1" points="369 48.94 0 287.13 0 288.27 369 50.08 369 48.94"/><polygon class="cls-1" points="369 58.77 0 296.96 0 298.1 369 59.91 369 58.77"/><polygon class="cls-1" points="369 68.6 0 306.79 0 307.93 369 69.74 369 68.6"/><polygon class="cls-1" points="369 78.43 0 316.62 0 317.76 369 79.57 369 78.43"/><polygon class="cls-1" points="369 88.26 0 326.45 0 327.59 369 89.4 369 88.26"/><polygon class="cls-1" points="369 98.09 0 336.28 0 337.42 369 99.23 369 98.09"/><polygon class="cls-1" points="369 107.92 7.72 340 9.48 340 369 109.06 369 107.92"/><polygon class="cls-1" points="369 117.75 22.95 340 24.71 340 369 118.89 369 117.75"/><polygon class="cls-1" points="369 127.58 38.17 340 39.94 340 369 128.72 369 127.58"/><polygon class="cls-1" points="369 137.41 53.4 340 55.17 340 369 138.56 369 137.41"/><polygon class="cls-1" points="369 147.24 68.63 340 70.4 340 369 148.38 369 147.24"/><polygon class="cls-1" points="369 157.07 83.86 340 85.63 340 369 158.22 369 157.07"/><polygon class="cls-1" points="369 166.9 99.09 340 100.86 340 369 168.05 369 166.9"/><polygon class="cls-1" points="369 176.74 114.32 340 116.09 340 369 177.88 369 176.74"/><polygon class="cls-1" points="369 186.56 129.55 340 131.32 340 369 187.71 369 186.56"/><polygon class="cls-1" points="369 196.4 144.78 340 146.55 340 369 197.54 369 196.4"/><polygon class="cls-1" points="369 206.22 160.01 340 161.78 340 369 207.37 369 206.22"/><polygon class="cls-1" points="369 216.06 175.24 340 177 340 369 217.2 369 216.06"/><polygon class="cls-1" points="369 225.89 190.47 340 192.23 340 369 227.03 369 225.89"/><polygon class="cls-1" points="369 235.72 205.69 340 207.46 340 369 236.86 369 235.72"/><polygon class="cls-1" points="369 245.55 220.92 340 222.69 340 369 246.69 369 245.55"/><polygon class="cls-1" points="369 255.38 236.15 340 237.92 340 369 256.52 369 255.38"/><polygon class="cls-1" points="369 265.21 251.38 340 253.15 340 369 266.35 369 265.21"/><polygon class="cls-1" points="369 275.04 266.61 340 268.38 340 369 276.18 369 275.04"/><polygon class="cls-1" points="369 284.87 281.84 340 283.61 340 369 286.01 369 284.87"/><polygon class="cls-1" points="369 294.7 297.07 340 298.84 340 369 295.84 369 294.7"/><polygon class="cls-1" points="369 304.53 312.3 340 314.07 340 369 305.67 369 304.53"/><polygon class="cls-1" points="369 314.36 327.53 340 329.3 340 369 315.5 369 314.36"/><polygon class="cls-1" points="369 324.19 342.76 340 344.52 340 369 325.33 369 324.19"/><polygon class="cls-1" points="369 335.16 369 334.02 357.99 340 359.75 340 369 335.16"/><path class="cls-2" d="M309,117.71c-2.35-27.11-13.85-49.94-34.14-68a96.5,96.5,0,0,0-55.16-24.54c-34-3.45-63.61,6.91-87.33,32.07a95.93,95.93,0,0,0-26,54.64c-3.25,25.91,1.57,50.47,16.82,72.39L105,202.46c-2.16-2.36-4.14-4.7-6.32-6.85-5.46-5.38-11-10.64-16.51-16-3.9-3.84-9.45-4-13.39-.14s-7.7,7.49-11.5,11.29c-2.85,2.85-4.87,6-4.21,10.39,0.48,3.22,3,4.58,4.9,6.55,6.88,7,13.67,14,20.74,21.29C76.44,231,74.17,233,72,235.18c-5.51,5.52-10.86,11.2-16.46,16.63C52,255.24,52.13,262,55.5,265.27c4.42,4.29,8.8,8.64,13.08,13.07,2.84,2.94,8.82,3.71,11.87.92,5.22-4.77,10.2-9.8,15.26-14.75,3.15-3.08,6.24-6.2,9.41-9.36,2.9,3,5.46,5.81,8.16,8.46,4.86,4.77,9.9,9.37,14.7,14.21,3.82,3.85,10,4.14,13.6.46,4.36-4.46,8.8-8.84,13.23-13.23,2.61-2.58,3.41-8,1.17-10.85a121.33,121.33,0,0,0-8.13-9.11c-5.31-5.54-10.73-11-16-16.38l17.73-18c17.39,11.73,40.08,21,73.28,16.73,25.7-3.3,47.18-16,63.56-35.88C303.91,170.34,311.42,145.28,309,117.71Zm-47,48.45c-13.5,17.76-31.51,27.58-58.79,27.84-10.48.72-24-4.21-35.48-13C148.83,166.54,139,147.23,140,122.76a63.79,63.79,0,0,1,14.44-38.19C168,67.79,185.88,58.68,207.8,58.76c36.9,0.13,67.24,30.53,67.34,67.71A64,64,0,0,1,262,166.17Z"/></svg>