<svg id="_1" data-name="1" xmlns="http://www.w3.org/2000/svg" viewBox="0 0 370 340"><defs><style>.cls-1{fill:#f2f2f2;}.cls-2,.cls-4{fill:#ffd9d9;}.cls-2,.cls-3{fill-rule:evenodd;}.cls-3{fill:#fff;}</style></defs><title>Image_Beremen</title><polygon class="cls-1" points="1.91 0 0 2.05 0 3.19 3.68 0 1.91 0"/><polygon class="cls-1" points="17.17 0 0 11.88 0 13.02 18.94 0 17.17 0"/><polygon class="cls-1" points="32.43 0 0 21.71 0 22.85 34.21 0 32.43 0"/><polygon class="cls-1" points="47.7 0 0 31.54 0 32.68 49.47 0 47.7 0"/><polygon class="cls-1" points="62.96 0 0 41.37 0 42.51 64.73 0 62.96 0"/><polygon class="cls-1" points="78.22 0 0 51.2 0 52.34 80 0 78.22 0"/><polygon class="cls-1" points="93.49 0 0 61.03 0 62.17 95.26 0 93.49 0"/><polygon class="cls-1" points="108.75 0 0 70.86 0 72 110.52 0 108.75 0"/><polygon class="cls-1" points="124.01 0 0 80.69 0 81.83 125.79 0 124.01 0"/><polygon class="cls-1" points="139.28 0 0 90.52 0 91.66 141.05 0 139.28 0"/><polygon class="cls-1" points="154.54 0 0 100.35 0 101.49 156.31 0 154.54 0"/><polygon class="cls-1" points="169.8 0 0 110.18 0 111.32 171.58 0 169.8 0"/><polygon class="cls-1" points="185.07 0 0 120.01 0 121.15 186.84 0 185.07 0"/><polygon class="cls-1" points="200.33 0 0 129.84 0 130.99 202.1 0 200.33 0"/><polygon class="cls-1" points="215.59 0 0 139.67 0 140.81 217.37 0 215.59 0"/><polygon class="cls-1" points="230.86 0 0 149.5 0 150.65 232.63 0 230.86 0"/><polygon class="cls-1" points="246.12 0 0 159.33 0 160.47 247.89 0 246.12 0"/><polygon class="cls-1" points="261.38 0 0 169.16 0 170.31 263.16 0 261.38 0"/><polygon class="cls-1" points="276.65 0 0 179 0 180.14 278.42 0 276.65 0"/><polygon class="cls-1" points="291.91 0 0 188.82 0 189.97 293.68 0 291.91 0"/><polygon class="cls-1" points="307.17 0 0 198.66 0 199.8 308.95 0 307.17 0"/><polygon class="cls-1" points="322.44 0 0 208.49 0 209.63 324.21 0 322.44 0"/><polygon class="cls-1" points="337.7 0 0 218.32 0 219.46 339.47 0 337.7 0"/><polygon class="cls-1" points="352.96 0 0 228.15 0 229.29 354.74 0 352.96 0"/><polygon class="cls-1" points="368.23 0 0 237.98 0 239.12 370 0 368.23 0"/><polygon class="cls-1" points="369.83 9.62 0 247.81 0 248.95 369.83 10.76 369.83 9.62"/><polygon class="cls-1" points="369.83 19.45 0 257.64 0 258.78 369.83 20.59 369.83 19.45"/><polygon class="cls-1" points="369.83 29.28 0 267.47 0 268.61 369.83 30.42 369.83 29.28"/><polygon class="cls-1" points="369.83 39.11 0 277.3 0 278.44 369.83 40.25 369.83 39.11"/><polygon class="cls-1" points="369.83 48.94 0 287.13 0 288.27 369.83 50.08 369.83 48.94"/><polygon class="cls-1" points="369.83 58.77 0 296.96 0 298.1 369.83 59.91 369.83 58.77"/><polygon class="cls-1" points="369.83 68.6 0 306.79 0 307.93 369.83 69.74 369.83 68.6"/><polygon class="cls-1" points="369.83 78.43 0 316.62 0 317.76 369.83 79.57 369.83 78.43"/><polygon class="cls-1" points="369.83 88.26 0 326.45 0 327.59 369.83 89.4 369.83 88.26"/><polygon class="cls-1" points="369.83 98.09 0 336.28 0 337.42 369.83 99.23 369.83 98.09"/><polygon class="cls-1" points="369.83 107.92 7.73 340 9.51 340 369.83 109.06 369.83 107.92"/><polygon class="cls-1" points="369.83 117.75 23 340 24.77 340 369.83 118.89 369.83 117.75"/><polygon class="cls-1" points="369.83 127.58 38.26 340 40.03 340 369.83 128.72 369.83 127.58"/><polygon class="cls-1" points="369.83 137.41 53.52 340 55.3 340 369.83 138.56 369.83 137.41"/><polygon class="cls-1" points="369.83 147.24 68.79 340 70.56 340 369.83 148.38 369.83 147.24"/><polygon class="cls-1" points="369.83 157.07 84.05 340 85.82 340 369.83 158.22 369.83 157.07"/><polygon class="cls-1" points="369.83 166.9 99.31 340 101.09 340 369.83 168.05 369.83 166.9"/><polygon class="cls-1" points="369.83 176.74 114.58 340 116.35 340 369.83 177.88 369.83 176.74"/><polygon class="cls-1" points="369.83 186.56 129.84 340 131.61 340 369.83 187.71 369.83 186.56"/><polygon class="cls-1" points="369.83 196.4 145.1 340 146.88 340 369.83 197.54 369.83 196.4"/><polygon class="cls-1" points="369.83 206.22 160.37 340 162.14 340 369.83 207.37 369.83 206.22"/><polygon class="cls-1" points="369.83 216.06 175.63 340 177.4 340 369.83 217.2 369.83 216.06"/><polygon class="cls-1" points="369.83 225.89 190.89 340 192.67 340 369.83 227.03 369.83 225.89"/><polygon class="cls-1" points="369.83 235.72 206.16 340 207.93 340 369.83 236.86 369.83 235.72"/><polygon class="cls-1" points="369.83 245.55 221.42 340 223.19 340 369.83 246.69 369.83 245.55"/><polygon class="cls-1" points="369.83 255.38 236.68 340 238.46 340 369.83 256.52 369.83 255.38"/><polygon class="cls-1" points="369.83 265.21 251.95 340 253.72 340 369.83 266.35 369.83 265.21"/><polygon class="cls-1" points="369.83 275.04 267.21 340 268.98 340 369.83 276.18 369.83 275.04"/><polygon class="cls-1" points="369.83 284.87 282.47 340 284.25 340 369.83 286.01 369.83 284.87"/><polygon class="cls-1" points="369.83 294.7 297.74 340 299.51 340 369.83 295.84 369.83 294.7"/><polygon class="cls-1" points="369.83 304.53 313 340 314.77 340 369.83 305.67 369.83 304.53"/><polygon class="cls-1" points="369.83 314.36 328.26 340 330.04 340 369.83 315.5 369.83 314.36"/><polygon class="cls-1" points="369.83 324.19 343.53 340 345.3 340 369.83 325.33 369.83 324.19"/><polygon class="cls-1" points="369.83 335.16 369.83 334.02 358.79 340 360.56 340 369.83 335.16"/><path class="cls-2" d="M301.12,179.93S238,213.57,176.07,213.57c-60.36,0-124.6-33.33-124.6-33.33l71.33-135S162,62.76,176.07,62.75,229.59,45,229.59,45Z"/><polygon class="cls-3" points="151.07 177.88 151.07 182.06 109.45 182.06 109.45 177.88 121.33 177.04 121.33 103.54 109.45 102.7 109.45 98.53 151.07 98.53 151.07 102.7 139.19 103.54 139.19 177.04 151.07 177.88"/><polygon class="cls-3" points="197.74 177.88 197.74 182.06 156.12 182.06 156.12 177.88 168 177.04 168 103.54 156.12 102.7 156.12 98.53 197.74 98.53 197.74 102.7 185.86 103.54 185.86 177.04 197.74 177.88"/><polygon class="cls-3" points="244.41 177.88 244.41 182.06 202.78 182.06 202.78 177.88 214.66 177.04 214.66 103.54 202.78 102.7 202.78 98.53 244.41 98.53 244.41 102.7 232.53 103.54 232.53 177.04 244.41 177.88"/><path class="cls-4" d="M40.41,294.39H30.94V257.61H18.81v-7.88H52.54v7.88H40.41v36.78Z"/><path class="cls-4" d="M90.27,263.66q0,7.21-4.51,11T72.94,278.5H68.88v15.89H59.41V249.73H73.68q8.13,0,12.36,3.5T90.27,263.66Zm-21.39,7.09H72q4.37,0,6.54-1.73a6,6,0,0,0,2.17-5,6.2,6.2,0,0,0-1.82-4.92q-1.82-1.59-5.7-1.59H68.88v13.26Z"/><path class="cls-4" d="M98.7,249.73h8.52v21.57l-0.12,5.77-0.31,6.57H107l20.62-33.91h11.33v44.66H130.5V272.94q0-4.31.55-12.77h-0.24l-20.71,34.22H98.7V249.73Z"/><path class="cls-4" d="M169.11,294.39l-10.75-35h-0.27q0.58,10.69.58,14.27v20.77H150.2V249.73H163.1l10.57,34.15h0.18l11.21-34.15H198v44.66h-8.83V273.25q0-1.5,0-3.45t0.41-10.39h-0.28l-11.52,35h-8.68Z"/><path class="cls-4" d="M234.92,294.39H209.19V249.73h25.72v7.76H218.67v9.81h15.12v7.76H218.67v11.52h16.25v7.82Z"/><path class="cls-4" d="M263.21,257a9.65,9.65,0,0,0-8.28,4q-2.93,4-2.93,11.2,0,14.94,11.21,14.94a35.42,35.42,0,0,0,11.39-2.35v7.94A31.65,31.65,0,0,1,262.32,295q-9.74,0-14.91-5.91t-5.16-17a27.71,27.71,0,0,1,2.54-12.2,18.31,18.31,0,0,1,7.29-8,21.56,21.56,0,0,1,11.14-2.79,30,30,0,0,1,13.07,3.15l-3.05,7.7a50.61,50.61,0,0,0-5-2.08A15,15,0,0,0,263.21,257Z"/><path class="cls-4" d="M301.33,294.39h-9.47V257.61H279.73v-7.88h33.73v7.88H301.33v36.78Z"/><path class="cls-4" d="M351.19,263.66q0,7.21-4.51,11t-12.82,3.82h-4.06v15.89h-9.47V249.73H334.6q8.13,0,12.36,3.5T351.19,263.66Zm-21.38,7.09h3.12q4.37,0,6.54-1.73a6,6,0,0,0,2.17-5,6.2,6.2,0,0,0-1.82-4.92q-1.82-1.59-5.7-1.59h-4.31v13.26Z"/></svg>