<svg xmlns="http://www.w3.org/2000/svg" viewBox="0 0 370 340"><defs><style>.cls-1{isolation:isolate;}.cls-2{fill:#f2f2f2;}.cls-3{fill:#fff;}.cls-4{fill:#e6e6e6;mix-blend-mode:multiply;}.cls-5{fill:#ffd9d9;}.cls-6{fill:#ce202e;}.cls-7{fill:#666;}</style></defs><title>Image_Beremen</title><g class="cls-1"><g id="_1" data-name="1"><polygon class="cls-2" points="1.91 0 0 2.05 0 3.19 3.68 0 1.91 0"/><polygon class="cls-2" points="17.17 0 0 11.88 0 13.02 18.94 0 17.17 0"/><polygon class="cls-2" points="32.43 0 0 21.71 0 22.85 34.21 0 32.43 0"/><polygon class="cls-2" points="47.7 0 0 31.54 0 32.68 49.47 0 47.7 0"/><polygon class="cls-2" points="62.96 0 0 41.37 0 42.51 64.73 0 62.96 0"/><polygon class="cls-2" points="78.22 0 0 51.2 0 52.34 80 0 78.22 0"/><polygon class="cls-2" points="93.49 0 0 61.03 0 62.17 95.26 0 93.49 0"/><polygon class="cls-2" points="108.75 0 0 70.86 0 72 110.52 0 108.75 0"/><polygon class="cls-2" points="124.01 0 0 80.69 0 81.83 125.79 0 124.01 0"/><polygon class="cls-2" points="139.28 0 0 90.52 0 91.66 141.05 0 139.28 0"/><polygon class="cls-2" points="154.54 0 0 100.35 0 101.49 156.31 0 154.54 0"/><polygon class="cls-2" points="169.8 0 0 110.18 0 111.32 171.58 0 169.8 0"/><polygon class="cls-2" points="185.07 0 0 120.01 0 121.15 186.84 0 185.07 0"/><polygon class="cls-2" points="200.33 0 0 129.84 0 130.99 202.1 0 200.33 0"/><polygon class="cls-2" points="215.59 0 0 139.67 0 140.81 217.37 0 215.59 0"/><polygon class="cls-2" points="230.86 0 0 149.5 0 150.65 232.63 0 230.86 0"/><polygon class="cls-2" points="246.12 0 0 159.33 0 160.47 247.89 0 246.12 0"/><polygon class="cls-2" points="261.38 0 0 169.16 0 170.31 263.16 0 261.38 0"/><polygon class="cls-2" points="276.65 0 0 179 0 180.14 278.42 0 276.65 0"/><polygon class="cls-2" points="291.91 0 0 188.82 0 189.97 293.68 0 291.91 0"/><polygon class="cls-2" points="307.17 0 0 198.66 0 199.8 308.95 0 307.17 0"/><polygon class="cls-2" points="322.44 0 0 208.49 0 209.63 324.21 0 322.44 0"/><polygon class="cls-2" points="337.7 0 0 218.32 0 219.46 339.47 0 337.7 0"/><polygon class="cls-2" points="352.96 0 0 228.15 0 229.29 354.74 0 352.96 0"/><polygon class="cls-2" points="368.23 0 0 237.98 0 239.12 370 0 368.23 0"/><polygon class="cls-2" points="369.83 9.62 0 247.81 0 248.95 369.83 10.76 369.83 9.62"/><polygon class="cls-2" points="369.83 19.45 0 257.64 0 258.78 369.83 20.59 369.83 19.45"/><polygon class="cls-2" points="369.83 29.28 0 267.47 0 268.61 369.83 30.42 369.83 29.28"/><polygon class="cls-2" points="369.83 39.11 0 277.3 0 278.44 369.83 40.25 369.83 39.11"/><polygon class="cls-2" points="369.83 48.94 0 287.13 0 288.27 369.83 50.08 369.83 48.94"/><polygon class="cls-2" points="369.83 58.77 0 296.96 0 298.1 369.83 59.91 369.83 58.77"/><polygon class="cls-2" points="369.83 68.6 0 306.79 0 307.93 369.83 69.74 369.83 68.6"/><polygon class="cls-2" points="369.83 78.43 0 316.62 0 317.76 369.83 79.57 369.83 78.43"/><polygon class="cls-2" points="369.83 88.26 0 326.45 0 327.59 369.83 89.4 369.83 88.26"/><polygon class="cls-2" points="369.83 98.09 0 336.28 0 337.42 369.83 99.23 369.83 98.09"/><polygon class="cls-2" points="369.83 107.92 7.73 340 9.51 340 369.83 109.06 369.83 107.92"/><polygon class="cls-2" points="369.83 117.75 23 340 24.77 340 369.83 118.89 369.83 117.75"/><polygon class="cls-2" points="369.83 127.58 38.26 340 40.03 340 369.83 128.72 369.83 127.58"/><polygon class="cls-2" points="369.83 137.41 53.52 340 55.3 340 369.83 138.56 369.83 137.41"/><polygon class="cls-2" points="369.83 147.24 68.79 340 70.56 340 369.83 148.38 369.83 147.24"/><polygon class="cls-2" points="369.83 157.07 84.05 340 85.82 340 369.83 158.22 369.83 157.07"/><polygon class="cls-2" points="369.83 166.9 99.31 340 101.09 340 369.83 168.05 369.83 166.9"/><polygon class="cls-2" points="369.83 176.74 114.58 340 116.35 340 369.83 177.88 369.83 176.74"/><polygon class="cls-2" points="369.83 186.56 129.84 340 131.61 340 369.83 187.71 369.83 186.56"/><polygon class="cls-2" points="369.83 196.4 145.1 340 146.88 340 369.83 197.54 369.83 196.4"/><polygon class="cls-2" points="369.83 206.22 160.37 340 162.14 340 369.83 207.37 369.83 206.22"/><polygon class="cls-2" points="369.83 216.06 175.63 340 177.4 340 369.83 217.2 369.83 216.06"/><polygon class="cls-2" points="369.83 225.89 190.89 340 192.67 340 369.83 227.03 369.83 225.89"/><polygon class="cls-2" points="369.83 235.72 206.16 340 207.93 340 369.83 236.86 369.83 235.72"/><polygon class="cls-2" points="369.83 245.55 221.42 340 223.19 340 369.83 246.69 369.83 245.55"/><polygon class="cls-2" points="369.83 255.38 236.68 340 238.46 340 369.83 256.52 369.83 255.38"/><polygon class="cls-2" points="369.83 265.21 251.95 340 253.72 340 369.83 266.35 369.83 265.21"/><polygon class="cls-2" points="369.83 275.04 267.21 340 268.98 340 369.83 276.18 369.83 275.04"/><polygon class="cls-2" points="369.83 284.87 282.47 340 284.25 340 369.83 286.01 369.83 284.87"/><polygon class="cls-2" points="369.83 294.7 297.74 340 299.51 340 369.83 295.84 369.83 294.7"/><polygon class="cls-2" points="369.83 304.53 313 340 314.77 340 369.83 305.67 369.83 304.53"/><polygon class="cls-2" points="369.83 314.36 328.26 340 330.04 340 369.83 315.5 369.83 314.36"/><polygon class="cls-2" points="369.83 324.19 343.53 340 345.3 340 369.83 325.33 369.83 324.19"/><polygon class="cls-2" points="369.83 335.16 369.83 334.02 358.79 340 360.56 340 369.83 335.16"/><path class="cls-3" d="M233,175.33s-73.33-.33-98.67.33C116,176.15,91.56,242,91.56,242l1.77-189.3H205.67l28,33.33Z"/><path class="cls-4" d="M68.12,295q29.86,0,59.72,0,62.7,0,125.39,0c7.64,0,13-3.54,16.47-10,8.63-16.08,17.07-32.26,25.61-48.4q10-18.85,20-37.68c0.86-1.63,1.58-3.34,2.46-5.25v-4.82c-2.08-5-5.91-5.89-10.35-5.87-15,.07-30,0-45.06,0h-2.61c0-.92,0-1.67,0-2.42,0-6.66.07-13.32,0-20-0.11-7.24-5.15-12.8-12.52-13.79-0.05.82-.14,1.62-0.14,2.42,0,10.42-.08,20.83,0,31.25,0,2.11-.66,2.57-2.65,2.57-34.15-.06-68.3.17-102.45-0.18-8.78-.09-13.86,3.8-17.46,11.11q-21.36,43.43-42.82,86.82a2.29,2.29,0,0,1-2.45,1.5c-2.41-.08-4.82,0-7.23,0-4.48-.06-7.4-3-7.41-7.5,0-11.62,0-23.24,0-34.86q0-50,0-99.9c0-6.24,2.49-8.71,8.76-8.71,1.91,0,3.83.09,5.73-.06A2,2,0,0,0,80.53,130c0.13-3,.08-6.09.07-9.14,0-.7-0.06-1.39-0.09-2-5.68,0-11.33-.62-16.78.16-5.9.85-9.58,4.91-11.48,10.53V284a32.34,32.34,0,0,0,2.56,4.87C58.05,293.34,62.69,295,68.12,295Z"/><path class="cls-5" d="M227.44,175c0-1.32,0-2.23,0-3.15q0-38.37,0-76.73c0-4.14-.49-4.63-4.62-4.63H202.2c-5,0-6.9-1.88-6.91-6.95,0-8,0-16,0-24,0-3.55-.55-4.15-4-4.15q-44.11,0-88.21,0c-3,0-3.35.46-3.35,3.77q0,81.73,0,163.46a12.66,12.66,0,0,1-1.08,5.08c-2.1,4.63-4.45,9.14-7,14.32a16.08,16.08,0,0,1-1.85-3.08,12.42,12.42,0,0,1-.4-3.57q0-88.21,0-176.42c0-8.8,5-13.85,13.84-13.86q47.61,0,95.23,0a9.36,9.36,0,0,1,7.45,3.28q14.78,16.26,29.75,32.35a8.81,8.81,0,0,1,2.19,6.42q-0.05,38.15,0,76.31c0,3.26,0,6.52,0,9.78,0,1.35-.37,1.91-1.8,1.86C233.22,174.92,230.47,175,227.44,175ZM205.84,63.63V80h15.07Z"/><path class="cls-6" d="M157.13,101.07q20.56,0,41.11,0a5.47,5.47,0,0,1,5.09,2.49c2.61,4.06.65,9.36-3.75,10.12a12,12,0,0,1-2.05.09q-40.46,0-80.92-.06a8.92,8.92,0,0,1-4.69-1.51c-2.1-1.4-2.7-4.05-2-6.7a5.69,5.69,0,0,1,4.79-4.38c0.8-.08,1.62-0.05,2.43-0.05h40Z"/><path class="cls-7" d="M182.19,150.72c-10.1,0-20.19,0-30.29,0a4.06,4.06,0,0,1-4-2.4c-2-3.87-.54-9.49,2.69-10.18a7.28,7.28,0,0,1,1.53-.09q30.15,0,60.3,0a4.16,4.16,0,0,1,4.27,2.73c1.87,4,.37,9.28-2.85,9.87a9.21,9.21,0,0,1-1.67.07h-30Z"/></g></g></svg>