<svg xmlns="http://www.w3.org/2000/svg" viewBox="0 0 370 340"><defs><style>.cls-1{isolation:isolate;}.cls-2{fill:#f2f2f2;}.cls-3{mix-blend-mode:darken;}.cls-4{fill:#ffd9d9;stroke:#ffbaba;}.cls-4,.cls-6{stroke-miterlimit:10;}.cls-5{fill:#4d4d4d;}.cls-6{fill:#f9f1ea;stroke:#f9e8d8;}.cls-7{fill:none;stroke:#ffd9d9;stroke-linecap:round;stroke-linejoin:round;stroke-width:3px;}</style></defs><title>Image_Beremen</title><g class="cls-1"><g id="_1" data-name="1"><polygon class="cls-2" points="1.91 0 0 2.05 0 3.19 3.68 0 1.91 0"/><polygon class="cls-2" points="17.17 0 0 11.88 0 13.02 18.94 0 17.17 0"/><polygon class="cls-2" points="32.43 0 0 21.71 0 22.85 34.21 0 32.43 0"/><polygon class="cls-2" points="47.7 0 0 31.54 0 32.68 49.47 0 47.7 0"/><polygon class="cls-2" points="62.96 0 0 41.37 0 42.51 64.73 0 62.96 0"/><polygon class="cls-2" points="78.22 0 0 51.2 0 52.34 80 0 78.22 0"/><polygon class="cls-2" points="93.49 0 0 61.03 0 62.17 95.26 0 93.49 0"/><polygon class="cls-2" points="108.75 0 0 70.86 0 72 110.52 0 108.75 0"/><polygon class="cls-2" points="124.01 0 0 80.69 0 81.83 125.79 0 124.01 0"/><polygon class="cls-2" points="139.28 0 0 90.52 0 91.66 141.05 0 139.28 0"/><polygon class="cls-2" points="154.54 0 0 100.35 0 101.49 156.31 0 154.54 0"/><polygon class="cls-2" points="169.8 0 0 110.18 0 111.32 171.58 0 169.8 0"/><polygon class="cls-2" points="185.07 0 0 120.01 0 121.15 186.84 0 185.07 0"/><polygon class="cls-2" points="200.33 0 0 129.84 0 130.99 202.1 0 200.33 0"/><polygon class="cls-2" points="215.59 0 0 139.67 0 140.81 217.37 0 215.59 0"/><polygon class="cls-2" points="230.86 0 0 149.5 0 150.65 232.63 0 230.86 0"/><polygon class="cls-2" points="246.12 0 0 159.33 0 160.47 247.89 0 246.12 0"/><polygon class="cls-2" points="261.38 0 0 169.16 0 170.31 263.16 0 261.38 0"/><polygon class="cls-2" points="276.65 0 0 179 0 180.14 278.42 0 276.65 0"/><polygon class="cls-2" points="291.91 0 0 188.82 0 189.97 293.68 0 291.91 0"/><polygon class="cls-2" points="307.17 0 0 198.66 0 199.8 308.95 0 307.17 0"/><polygon class="cls-2" points="322.44 0 0 208.49 0 209.63 324.21 0 322.44 0"/><polygon class="cls-2" points="337.7 0 0 218.32 0 219.46 339.47 0 337.7 0"/><polygon class="cls-2" points="352.96 0 0 228.15 0 229.29 354.74 0 352.96 0"/><polygon class="cls-2" points="368.23 0 0 237.98 0 239.12 370 0 368.23 0"/><polygon class="cls-2" points="369.83 9.62 0 247.81 0 248.95 369.83 10.76 369.83 9.62"/><polygon class="cls-2" points="369.83 19.45 0 257.64 0 258.78 369.83 20.59 369.83 19.45"/><polygon class="cls-2" points="369.83 29.28 0 267.47 0 268.61 369.83 30.42 369.83 29.28"/><polygon class="cls-2" points="369.83 39.11 0 277.3 0 278.44 369.83 40.25 369.83 39.11"/><polygon class="cls-2" points="369.83 48.94 0 287.13 0 288.27 369.83 50.08 369.83 48.94"/><polygon class="cls-2" points="369.83 58.77 0 296.96 0 298.1 369.83 59.91 369.83 58.77"/><polygon class="cls-2" points="369.83 68.6 0 306.79 0 307.93 369.83 69.74 369.83 68.6"/><polygon class="cls-2" points="369.83 78.43 0 316.62 0 317.76 369.83 79.57 369.83 78.43"/><polygon class="cls-2" points="369.83 88.26 0 326.45 0 327.59 369.83 89.4 369.83 88.26"/><polygon class="cls-2" points="369.83 98.09 0 336.28 0 337.42 369.83 99.23 369.83 98.09"/><polygon class="cls-2" points="369.83 107.92 7.73 340 9.51 340 369.83 109.06 369.83 107.92"/><polygon class="cls-2" points="369.83 117.75 23 340 24.77 340 369.83 118.89 369.83 117.75"/><polygon class="cls-2" points="369.83 127.58 38.26 340 40.03 340 369.83 128.72 369.83 127.58"/><polygon class="cls-2" points="369.83 137.41 53.52 340 55.3 340 369.83 138.56 369.83 137.41"/><polygon class="cls-2" points="369.83 147.24 68.79 340 70.56 340 369.83 148.38 369.83 147.24"/><polygon class="cls-2" points="369.83 157.07 84.05 340 85.82 340 369.83 158.22 369.83 157.07"/><polygon class="cls-2" points="369.83 166.9 99.31 340 101.09 340 369.83 168.05 369.83 166.9"/><polygon class="cls-2" points="369.83 176.74 114.58 340 116.35 340 369.83 177.88 369.83 176.74"/><polygon class="cls-2" points="369.83 186.56 129.84 340 131.61 340 369.83 187.71 369.83 186.56"/><polygon class="cls-2" points="369.83 196.4 145.1 340 146.88 340 369.83 197.54 369.83 196.4"/><polygon class="cls-2" points="369.83 206.22 160.37 340 162.14 340 369.83 207.37 369.83 206.22"/><polygon class="cls-2" points="369.83 216.06 175.63 340 177.4 340 369.83 217.2 369.83 216.06"/><polygon class="cls-2" points="369.83 225.89 190.89 340 192.67 340 369.83 227.03 369.83 225.89"/><polygon class="cls-2" points="369.83 235.72 206.16 340 207.93 340 369.83 236.86 369.83 235.72"/><polygon class="cls-2" points="369.83 245.55 221.42 340 223.19 340 369.83 246.69 369.83 245.55"/><polygon class="cls-2" points="369.83 255.38 236.68 340 238.46 340 369.83 256.52 369.83 255.38"/><polygon class="cls-2" points="369.83 265.21 251.95 340 253.72 340 369.83 266.35 369.83 265.21"/><polygon class="cls-2" points="369.83 275.04 267.21 340 268.98 340 369.83 276.18 369.83 275.04"/><polygon class="cls-2" points="369.83 284.87 282.47 340 284.25 340 369.83 286.01 369.83 284.87"/><polygon class="cls-2" points="369.83 294.7 297.74 340 299.51 340 369.83 295.84 369.83 294.7"/><polygon class="cls-2" points="369.83 304.53 313 340 314.77 340 369.83 305.67 369.83 304.53"/><polygon class="cls-2" points="369.83 314.36 328.26 340 330.04 340 369.83 315.5 369.83 314.36"/><polygon class="cls-2" points="369.83 324.19 343.53 340 345.3 340 369.83 325.33 369.83 324.19"/><polygon class="cls-2" points="369.83 335.16 369.83 334.02 358.79 340 360.56 340 369.83 335.16"/><g class="cls-3"><path class="cls-4" d="M227.46,273c-1-13.77-10.67-18.27-17.46-24.86-5.74-5.57-8.9-13.05-7.56-28.25,0.35-4.11,2.59-26.32,3-30.4,0.82-7.74,4.69-18.24,6.82-27.51,1.38-6,5.66-21.6,6.1-32.65,0.18-5-1.52-8.9-4.18-13.22-2-3.18-2.47-7.56-6.47-8a4.85,4.85,0,0,0-1,0c-0.42.79-5.39,0.5-9.68,2.09-1.51.75-4,1.87-5.89,2.78-0.53.27-1.05,0.55-1.56,0.83a63.39,63.39,0,0,0-7.28,4.76c-1.85,1.59-2.61,1-5.06,7.29-1,2.64-5.08,8.11-7.44,9.83-3.57,2.64-25.7,16.5-28.14,22.27-1.27,3,.75,6.9,2.35,9.79,2.56,4.55,13.78,7.77,17.88,5.63,1.86-1-.33,5.95-0.46,8-0.43,6.21-11.55,3.39-23.84,10.55-5.51,3.21-14.24,12.9-17,18.43-2.68,5.32-4.52,17.36-4.17,23.24,0.31,5.1,3.07,15.28,6,19.6,6.08,9.17,9.08,12.64,14,13.79,9.57,2.24,13.77,3.05,13.77,3.05s-2.87,18.43-3.13,21.65c-0.53,7-15.07,48-7.77,48.11,29.5,0.5,51.64.25,78.75,0.25,5.38,0,.72-33.94.88-39.06C219.05,295.34,229,294.21,227.46,273Zm-39.73-70.39c-2.82,8.67-41,43.09-48.65,57.47a13.05,13.05,0,0,0-.91,3.46c-0.11.63-1.52,1.2-2.12,1.36-1.35.34-2.86-1-4.86-2.24-1.18-.73-6.44-7.88-7.06-9.6s-2-2.89-1.92-5.79c0-1.13,1.3-.27,1.49.52s2,2.18,2.64,2.81c1,0.94,3.73,3.62,4.71,3.35,6.74-1.91,16.8-17.11,21.52-22.7,2.25-2.66,6-8.53,8-11.37,2.16-3,9.82-22.18,11.11-25.7,3.27-8.93,7.9-28.73,8.92-38.19,0.4-3.65,1-11,1.77-14.56,0.4-1.79,1.24-5.46,2.31-6.93,1.41-2,5.38-5.4,7.75-5.83a13.4,13.4,0,0,1,8.53,2.29c2.42,2,2.93,4.81,3.39,7.92,0.74,5.06-2.14,18.33-2.92,23.37C198.14,183.44,190.93,192.82,187.73,202.64Z"/><path class="cls-5" d="M211.54,30.21c-3.08-2.69-8-4.36-11.51-5.56-3.21-1.08-13.39-2.71-16.78-2.37-4.36.43-13.11,3.61-16,6.71-2.05,2.14-5,7-3.13,9.31,1.16,1.46,5,0,8.47-.08,4.1-.07,9.47,1,12.27,2.86s4.42,8.88,5.56,12.12c0.13,0.38.25,2.32,0.56,2.08a9.92,9.92,0,0,1,3.63-2.13c4.35-1.3,5.9,1.88,6.84,3.78,1.17,2.33,2.1,7.06.79,10.65-0.59,1.62-3.36,4.29-3.79,6-0.88,3.24,0,7.76,1.31,10.9a7.24,7.24,0,0,0,3.74,3.84A19,19,0,0,0,214.23,88c2.68-.9,7.87-3.92,9.62-6,2.21-2.63,4.75-9.07,5.76-12.27s0.67-12.21.67-12.21h0.16L212.26,30.47C212.23,30.7,212,30.66,211.54,30.21Z"/><path class="cls-5" d="M249.77,25.17a28.51,28.51,0,0,0-7.27-7.67c-2.13-1.41-8.24-3.36-10.82-3.75-10.35-1.54-17,5.29-19.13,8.59s-0.2,7.34-.29,8.12l18.19,27.06c11.69,1.12,20.55-3.2,23.09-18.68C254.07,35.61,251.4,28.05,249.77,25.17Z"/><path class="cls-5" d="M158.39,53.9a7.63,7.63,0,0,1-1.59-3,2.44,2.44,0,0,0-.28.76,3.21,3.21,0,0,0,.43,1.64,15.41,15.41,0,0,0,1.68,2.13C159.16,56,161,57.51,161,57.51l1.35-1.77a10.41,10.41,0,0,1-1.75-.45A7.87,7.87,0,0,1,158.39,53.9Z"/><path class="cls-6" d="M189.83,113.66c0.36-.2.84-0.45,1.36-0.71,1.58-.81,3.21-1.62,4.78-2.35,0.36-.16.74-0.29,1.1-0.43l0.36-.18a41,41,0,0,1,9.33-1.91,0.25,0.25,0,0,0,0-.32c-1.17-1.72-1.77-4.42-2.51-7-1-3.19-1.28-9.19-3.41-10.83-2.61-2-4.73-1.8-5.83-5.94a90.82,90.82,0,0,1-.24-11.23c0.5-2.92,3.42-3.37,4.16-6.25,0.48-1.91.93-6.85-.25-8.45-1.44-2-4.93-1.82-6.29-1.2-4.64,2.11-3.25,4.94-3.42,4.71-1.44-2.13-2.23-6.51-3-9.28-0.67-2.42-2.12-6.58-4-8.32-3.07-2.76-13.16-3.14-17.18-2.27-0.79.18-.74-0.19-1.22,0.43-1.67,2.16-1.89,5.73-1.76,8.42,0.05,1.17,1,4.43.56,5.12s-1,1.29-1.49,2c-1.49,2.12-7.48,4.51-8.25,6.69-0.51,1.44,4.27,3.18,3.84,4.64-0.31,1-2.69,1.58-2.73,2.65-0.05,1.41,2.71,1,2.62,2.43-0.05.75-2.56,0.28-2.69,1-0.18,1.11,2.74,3.89,2.51,5-0.53,2.42-1.9,5.35-1.49,6.8,0.56,2,4.28,1.56,6.37,2.17,4.5,1.3,14.65-2.88,17.48.67,2.68,3.34,4.6,11.73,5.65,15.46,0.5,1.82.86,5.2,1.16,7.05,0.18,1.08-3.79,6.94-3,6.19a40.61,40.61,0,0,1,7.28-4.76Z"/></g><path class="cls-6" d="M187.06,202.64c-2.82,8.67-41,43.09-48.65,57.47a13.05,13.05,0,0,0-.91,3.46c-0.11.63-1.52,1.2-2.12,1.36-1.35.34-2.86-1-4.86-2.24-1.18-.73-6.44-7.88-7.06-9.6s-2-2.89-1.92-5.79c0-1.13,1.3-.27,1.49.52s2,2.18,2.64,2.81c1,0.94,3.73,3.62,4.71,3.35,6.74-1.91,16.8-17.11,21.52-22.7,2.25-2.66,6-8.53,8-11.37,2.16-3,9.82-22.18,11.11-25.7,3.27-8.93,7.9-28.73,8.92-38.19,0.4-3.65,1-11,1.77-14.56,0.4-1.79,1.24-5.46,2.31-6.93,1.41-2,5.38-5.4,7.75-5.83a13.4,13.4,0,0,1,8.53,2.29c2.42,2,2.93,4.81,3.39,7.92,0.74,5.06-2.14,18.33-2.92,23.37C197.48,183.44,190.26,192.82,187.06,202.64Z"/><line class="cls-7" x1="212.26" y1="30.47" x2="230.17" y2="56.83"/></g></g></svg>