<svg id="_1" data-name="1" xmlns="http://www.w3.org/2000/svg" viewBox="0 0 370 340"><defs><style>.cls-1{fill:#f2f2f2;}.cls-2{fill:#ffd9d9;}.cls-3,.cls-4{fill:none;}.cls-3{stroke:#ffd9d9;stroke-miterlimit:10;stroke-width:2px;}.cls-4{stroke:#ce202e;stroke-linecap:round;stroke-linejoin:round;stroke-width:5px;}</style></defs><title>Image_Beremen</title><polygon class="cls-1" points="1.91 0 0 2.05 0 3.19 3.68 0 1.91 0"/><polygon class="cls-1" points="17.17 0 0 11.88 0 13.02 18.94 0 17.17 0"/><polygon class="cls-1" points="32.43 0 0 21.71 0 22.85 34.21 0 32.43 0"/><polygon class="cls-1" points="47.7 0 0 31.54 0 32.68 49.47 0 47.7 0"/><polygon class="cls-1" points="62.96 0 0 41.37 0 42.51 64.73 0 62.96 0"/><polygon class="cls-1" points="78.22 0 0 51.2 0 52.34 80 0 78.22 0"/><polygon class="cls-1" points="93.49 0 0 61.03 0 62.17 95.26 0 93.49 0"/><polygon class="cls-1" points="108.75 0 0 70.86 0 72 110.52 0 108.75 0"/><polygon class="cls-1" points="124.01 0 0 80.69 0 81.83 125.79 0 124.01 0"/><polygon class="cls-1" points="139.28 0 0 90.52 0 91.66 141.05 0 139.28 0"/><polygon class="cls-1" points="154.54 0 0 100.35 0 101.49 156.31 0 154.54 0"/><polygon class="cls-1" points="169.8 0 0 110.18 0 111.32 171.58 0 169.8 0"/><polygon class="cls-1" points="185.07 0 0 120.01 0 121.15 186.84 0 185.07 0"/><polygon class="cls-1" points="200.33 0 0 129.84 0 130.99 202.1 0 200.33 0"/><polygon class="cls-1" points="215.59 0 0 139.67 0 140.81 217.37 0 215.59 0"/><polygon class="cls-1" points="230.86 0 0 149.5 0 150.65 232.63 0 230.86 0"/><polygon class="cls-1" points="246.12 0 0 159.33 0 160.47 247.89 0 246.12 0"/><polygon class="cls-1" points="261.38 0 0 169.16 0 170.31 263.16 0 261.38 0"/><polygon class="cls-1" points="276.65 0 0 179 0 180.14 278.42 0 276.65 0"/><polygon class="cls-1" points="291.91 0 0 188.82 0 189.97 293.68 0 291.91 0"/><polygon class="cls-1" points="307.17 0 0 198.66 0 199.8 308.95 0 307.17 0"/><polygon class="cls-1" points="322.44 0 0 208.49 0 209.63 324.21 0 322.44 0"/><polygon class="cls-1" points="337.7 0 0 218.32 0 219.46 339.47 0 337.7 0"/><polygon class="cls-1" points="352.96 0 0 228.15 0 229.29 354.74 0 352.96 0"/><polygon class="cls-1" points="368.23 0 0 237.98 0 239.12 370 0 368.23 0"/><polygon class="cls-1" points="369.83 9.62 0 247.81 0 248.95 369.83 10.76 369.83 9.62"/><polygon class="cls-1" points="369.83 19.45 0 257.64 0 258.78 369.83 20.59 369.83 19.45"/><polygon class="cls-1" points="369.83 29.28 0 267.47 0 268.61 369.83 30.42 369.83 29.28"/><polygon class="cls-1" points="369.83 39.11 0 277.3 0 278.44 369.83 40.25 369.83 39.11"/><polygon class="cls-1" points="369.83 48.94 0 287.13 0 288.27 369.83 50.08 369.83 48.94"/><polygon class="cls-1" points="369.83 58.77 0 296.96 0 298.1 369.83 59.91 369.83 58.77"/><polygon class="cls-1" points="369.83 68.6 0 306.79 0 307.93 369.83 69.74 369.83 68.6"/><polygon class="cls-1" points="369.83 78.43 0 316.62 0 317.76 369.83 79.57 369.83 78.43"/><polygon class="cls-1" points="369.83 88.26 0 326.45 0 327.59 369.83 89.4 369.83 88.26"/><polygon class="cls-1" points="369.83 98.09 0 336.28 0 337.42 369.83 99.23 369.83 98.09"/><polygon class="cls-1" points="369.83 107.92 7.73 340 9.51 340 369.83 109.06 369.83 107.92"/><polygon class="cls-1" points="369.83 117.75 23 340 24.77 340 369.83 118.89 369.83 117.75"/><polygon class="cls-1" points="369.83 127.58 38.26 340 40.03 340 369.83 128.72 369.83 127.58"/><polygon class="cls-1" points="369.83 137.41 53.52 340 55.3 340 369.83 138.56 369.83 137.41"/><polygon class="cls-1" points="369.83 147.24 68.79 340 70.56 340 369.83 148.38 369.83 147.24"/><polygon class="cls-1" points="369.83 157.07 84.05 340 85.82 340 369.83 158.22 369.83 157.07"/><polygon class="cls-1" points="369.83 166.9 99.31 340 101.09 340 369.83 168.05 369.83 166.9"/><polygon class="cls-1" points="369.83 176.74 114.58 340 116.35 340 369.83 177.88 369.83 176.74"/><polygon class="cls-1" points="369.83 186.56 129.84 340 131.61 340 369.83 187.71 369.83 186.56"/><polygon class="cls-1" points="369.83 196.4 145.1 340 146.88 340 369.83 197.54 369.83 196.4"/><polygon class="cls-1" points="369.83 206.22 160.37 340 162.14 340 369.83 207.37 369.83 206.22"/><polygon class="cls-1" points="369.83 216.06 175.63 340 177.4 340 369.83 217.2 369.83 216.06"/><polygon class="cls-1" points="369.83 225.89 190.89 340 192.67 340 369.83 227.03 369.83 225.89"/><polygon class="cls-1" points="369.83 235.72 206.16 340 207.93 340 369.83 236.86 369.83 235.72"/><polygon class="cls-1" points="369.83 245.55 221.42 340 223.19 340 369.83 246.69 369.83 245.55"/><polygon class="cls-1" points="369.83 255.38 236.68 340 238.46 340 369.83 256.52 369.83 255.38"/><polygon class="cls-1" points="369.83 265.21 251.95 340 253.72 340 369.83 266.35 369.83 265.21"/><polygon class="cls-1" points="369.83 275.04 267.21 340 268.98 340 369.83 276.18 369.83 275.04"/><polygon class="cls-1" points="369.83 284.87 282.47 340 284.25 340 369.83 286.01 369.83 284.87"/><polygon class="cls-1" points="369.83 294.7 297.74 340 299.51 340 369.83 295.84 369.83 294.7"/><polygon class="cls-1" points="369.83 304.53 313 340 314.77 340 369.83 305.67 369.83 304.53"/><polygon class="cls-1" points="369.83 314.36 328.26 340 330.04 340 369.83 315.5 369.83 314.36"/><polygon class="cls-1" points="369.83 324.19 343.53 340 345.3 340 369.83 325.33 369.83 324.19"/><polygon class="cls-1" points="369.83 335.16 369.83 334.02 358.79 340 360.56 340 369.83 335.16"/><path class="cls-2" d="M367.5,2.5v335H2.5V2.5h365m2-2H0.5v339h369V0.5h0Z"/><line class="cls-3" x1="0.5" y1="283" x2="369.5" y2="283"/><line class="cls-3" x1="0.5" y1="226.5" x2="369.5" y2="226.5"/><line class="cls-3" x1="0.5" y1="170" x2="369.5" y2="170"/><line class="cls-3" x1="0.5" y1="113.5" x2="369.5" y2="113.5"/><line class="cls-3" x1="0.5" y1="57" x2="369.5" y2="57"/><line class="cls-3" x1="308" y1="0.5" x2="308" y2="339.5"/><line class="cls-3" x1="246.5" y1="0.5" x2="246.5" y2="339.5"/><line class="cls-3" x1="185" y1="0.5" x2="185" y2="339.5"/><line class="cls-3" x1="123.5" y1="0.5" x2="123.5" y2="339.5"/><line class="cls-3" x1="62" y1="0.5" x2="62" y2="339.5"/><polyline class="cls-4" points="2.5 214.24 53.3 214.24 67.41 195.46 92.81 195.46 110.21 212.83 147.37 212.83 173.01 238.41 198.17 101.59 198.17 214.24 257.44 214.24 286.13 185.61 312 211.42 367.5 211.42"/></svg>