<svg id="_1" data-name="1" xmlns="http://www.w3.org/2000/svg" viewBox="0 0 370 340"><defs><style>.cls-1{fill:#f2f2f2;}.cls-2{fill:#ffd9d9;fill-rule:evenodd;}.cls-3{fill:#fff;}</style></defs><title>Image_Beremen</title><polygon class="cls-1" points="1.91 0 0 2.05 0 3.19 3.68 0 1.91 0"/><polygon class="cls-1" points="17.17 0 0 11.88 0 13.02 18.94 0 17.17 0"/><polygon class="cls-1" points="32.43 0 0 21.71 0 22.85 34.21 0 32.43 0"/><polygon class="cls-1" points="47.7 0 0 31.54 0 32.68 49.47 0 47.7 0"/><polygon class="cls-1" points="62.96 0 0 41.37 0 42.51 64.73 0 62.96 0"/><polygon class="cls-1" points="78.22 0 0 51.2 0 52.34 80 0 78.22 0"/><polygon class="cls-1" points="93.49 0 0 61.03 0 62.17 95.26 0 93.49 0"/><polygon class="cls-1" points="108.75 0 0 70.86 0 72 110.52 0 108.75 0"/><polygon class="cls-1" points="124.01 0 0 80.69 0 81.83 125.79 0 124.01 0"/><polygon class="cls-1" points="139.28 0 0 90.52 0 91.66 141.05 0 139.28 0"/><polygon class="cls-1" points="154.54 0 0 100.35 0 101.49 156.31 0 154.54 0"/><polygon class="cls-1" points="169.8 0 0 110.18 0 111.32 171.58 0 169.8 0"/><polygon class="cls-1" points="185.07 0 0 120.01 0 121.15 186.84 0 185.07 0"/><polygon class="cls-1" points="200.33 0 0 129.84 0 130.99 202.1 0 200.33 0"/><polygon class="cls-1" points="215.59 0 0 139.67 0 140.81 217.37 0 215.59 0"/><polygon class="cls-1" points="230.86 0 0 149.5 0 150.65 232.63 0 230.86 0"/><polygon class="cls-1" points="246.12 0 0 159.33 0 160.47 247.89 0 246.12 0"/><polygon class="cls-1" points="261.38 0 0 169.16 0 170.31 263.16 0 261.38 0"/><polygon class="cls-1" points="276.65 0 0 179 0 180.14 278.42 0 276.65 0"/><polygon class="cls-1" points="291.91 0 0 188.82 0 189.97 293.68 0 291.91 0"/><polygon class="cls-1" points="307.17 0 0 198.66 0 199.8 308.95 0 307.17 0"/><polygon class="cls-1" points="322.44 0 0 208.49 0 209.63 324.21 0 322.44 0"/><polygon class="cls-1" points="337.7 0 0 218.32 0 219.46 339.47 0 337.7 0"/><polygon class="cls-1" points="352.96 0 0 228.15 0 229.29 354.74 0 352.96 0"/><polygon class="cls-1" points="368.23 0 0 237.98 0 239.12 370 0 368.23 0"/><polygon class="cls-1" points="369.83 9.62 0 247.81 0 248.95 369.83 10.76 369.83 9.62"/><polygon class="cls-1" points="369.83 19.45 0 257.64 0 258.78 369.83 20.59 369.83 19.45"/><polygon class="cls-1" points="369.83 29.28 0 267.47 0 268.61 369.83 30.42 369.83 29.28"/><polygon class="cls-1" points="369.83 39.11 0 277.3 0 278.44 369.83 40.25 369.83 39.11"/><polygon class="cls-1" points="369.83 48.94 0 287.13 0 288.27 369.83 50.08 369.83 48.94"/><polygon class="cls-1" points="369.83 58.77 0 296.96 0 298.1 369.83 59.91 369.83 58.77"/><polygon class="cls-1" points="369.83 68.6 0 306.79 0 307.93 369.83 69.74 369.83 68.6"/><polygon class="cls-1" points="369.83 78.43 0 316.62 0 317.76 369.83 79.57 369.83 78.43"/><polygon class="cls-1" points="369.83 88.26 0 326.45 0 327.59 369.83 89.4 369.83 88.26"/><polygon class="cls-1" points="369.83 98.09 0 336.28 0 337.42 369.83 99.23 369.83 98.09"/><polygon class="cls-1" points="369.83 107.92 7.73 340 9.51 340 369.83 109.06 369.83 107.92"/><polygon class="cls-1" points="369.83 117.75 23 340 24.77 340 369.83 118.89 369.83 117.75"/><polygon class="cls-1" points="369.83 127.58 38.26 340 40.03 340 369.83 128.72 369.83 127.58"/><polygon class="cls-1" points="369.83 137.41 53.52 340 55.3 340 369.83 138.56 369.83 137.41"/><polygon class="cls-1" points="369.83 147.24 68.79 340 70.56 340 369.83 148.38 369.83 147.24"/><polygon class="cls-1" points="369.83 157.07 84.05 340 85.82 340 369.83 158.22 369.83 157.07"/><polygon class="cls-1" points="369.83 166.9 99.31 340 101.09 340 369.83 168.05 369.83 166.9"/><polygon class="cls-1" points="369.83 176.74 114.58 340 116.35 340 369.83 177.88 369.83 176.74"/><polygon class="cls-1" points="369.83 186.56 129.84 340 131.61 340 369.83 187.71 369.83 186.56"/><polygon class="cls-1" points="369.83 196.4 145.1 340 146.88 340 369.83 197.54 369.83 196.4"/><polygon class="cls-1" points="369.83 206.22 160.37 340 162.14 340 369.83 207.37 369.83 206.22"/><polygon class="cls-1" points="369.83 216.06 175.63 340 177.4 340 369.83 217.2 369.83 216.06"/><polygon class="cls-1" points="369.83 225.89 190.89 340 192.67 340 369.83 227.03 369.83 225.89"/><polygon class="cls-1" points="369.83 235.72 206.16 340 207.93 340 369.83 236.86 369.83 235.72"/><polygon class="cls-1" points="369.83 245.55 221.42 340 223.19 340 369.83 246.69 369.83 245.55"/><polygon class="cls-1" points="369.83 255.38 236.68 340 238.46 340 369.83 256.52 369.83 255.38"/><polygon class="cls-1" points="369.83 265.21 251.95 340 253.72 340 369.83 266.35 369.83 265.21"/><polygon class="cls-1" points="369.83 275.04 267.21 340 268.98 340 369.83 276.18 369.83 275.04"/><polygon class="cls-1" points="369.83 284.87 282.47 340 284.25 340 369.83 286.01 369.83 284.87"/><polygon class="cls-1" points="369.83 294.7 297.74 340 299.51 340 369.83 295.84 369.83 294.7"/><polygon class="cls-1" points="369.83 304.53 313 340 314.77 340 369.83 305.67 369.83 304.53"/><polygon class="cls-1" points="369.83 314.36 328.26 340 330.04 340 369.83 315.5 369.83 314.36"/><polygon class="cls-1" points="369.83 324.19 343.53 340 345.3 340 369.83 325.33 369.83 324.19"/><polygon class="cls-1" points="369.83 335.16 369.83 334.02 358.79 340 360.56 340 369.83 335.16"/><path class="cls-2" d="M45.16,49.44q12.39-.21,24.79,0c0.77,0,2.28,4.63,2.3,5.94s-1.49,6-2.27,6.07c-4.16.22-8.34,0.1-12.51,0.1s-8.19.13-12.27-.1c-0.84-.05-2.5-4.8-2.46-6.22S44.34,49.45,45.16,49.44Z"/><path class="cls-2" d="M45.16,78.86q12.39-.2,24.79,0c0.77,0,2.28,4.62,2.3,5.93s-1.49,6-2.27,6.07C65.8,91.1,61.63,91,57.46,91s-8.19.13-12.27-.11c-0.84,0-2.5-4.79-2.46-6.22S44.34,78.87,45.16,78.86Z"/><path class="cls-2" d="M100,291.09c-4.17.21-38.39,0.09-42.56,0.09s-8.19.13-12.27-.11c-0.84,0-2.5-4.79-2.46-6.21s1.62-5.8,2.43-5.8c8.26-.14,46.57-0.13,54.83,0,0.78,0,2.29,4.62,2.3,5.93S100.79,291.05,100,291.09Z"/><path class="cls-2" d="M317.51,45.15c3-.2,15.81-0.2,18.78,0,0.49,0,1.44,4.85,1.45,6s-0.88,5.81-1.42,6c-0.84.35-4,.1-5,0.1V166.52c1,0,4.21-.23,5.13.09,0.48,0.17,1.26,4.94,1.26,6s-0.75,5.87-1.21,6c-0.92.34-4.09,0.09-5.31,0.09,0,5.12,0,4,0,8.86,0,7.78,0,80.21,0,94.46,1,0,4.21-.26,5.1.1,0.53,0.22,1.57,6,1.5,6.49-0.14,1.07-1,6.17-1.43,6.21-3,.25-15.94.25-19,0-0.5,0-1.48-5.32-1.44-6.57s0.92-5.9,1.47-6.1c1-.35,4.22-0.1,5.37-0.1,0-15.85,0-91.48,0-103.3-1,0-4.21.25-5.11-.1-0.63-.24-1.71-4.73-1.72-6s1-5.8,1.66-6c0.91-.36,4.09-0.09,5.16-0.09V57.25c-1.14,0-4.37.25-5.35-.1-0.55-.19-1.49-4.9-1.48-6S317,45.18,317.51,45.15Z"/><path class="cls-2" d="M318.75,228.6S246.35,266,175.2,266c-69.29,0-143-37.06-143-37.06L102.94,77.76s54.81,17,70.91,17,75.53-17,75.53-17Z"/><path class="cls-3" d="M191.75,179a19.52,19.52,0,0,0-3.07-3c-6.68-4.17-6.92-10.09-4.89-16.77,1.08-3.54,1.9-7.17,3-10.69,0.26-.81,1.36-1.32,2-2,2.65-3,6.56-5.51,7.69-9,5.78-17.68,21.37-20.37,34.52-18,26.5,4.76,36.84,29.76,21.43,52.15-3.84,5.59-9.25,10.15-14.2,14.91q-13.7,13.17-27.71,26c-20,18.34-42.7,31.14-70.74,30.35a72.65,72.65,0,0,1-25.31-5.44c-16.4-6.82-19.51-25.84-7.18-38.7,1.35-1.41,2.75-2.76,4.13-4.14l-0.3-1.71c-4.39.18-8.79,0.24-13.16,0.58-1.95.15-3.83,1.08-5.78,1.24-4.67.39-8.21-2.7-7.17-7.09,2-8.3,4.71-16.41,7.2-24.57a4.79,4.79,0,0,1,1.6-2.45c1.93-1.33,4-2.4,6.08-3.57,0.82,2.15,2.12,4.26,2.34,6.47,0.29,2.91-.29,5.9-0.48,8.86s1.12,4.33,4.18,3.43a24,24,0,0,0,4.24-1.32c8.65-4.45,17.33-4.51,26.15-.56a9.71,9.71,0,0,0,2.88.54,3,3,0,0,0,1.07-.67c-0.69-4.23-3.75-6.38-7.14-8.57-1.78-1.15-4.37-4.22-3.94-5.07a20,20,0,0,1,6.65-7.84c1.31-.81,5.22.71,6.65,2.32,3.55,4,6.35,8.71,10.45,12.83-0.61-3.58-1.24-7.15-1.84-10.73-1.52-9.06-.09-10.73,9.11-11.54,2.62-.23,5.27-2.27,7,1.46,1.7,3.56.86,6.55-1.33,9.65-4.39,6.22-2.42,11.72,4.61,14.35,4.45,1.67,8.73,3.8,13,5.79,2.47,1.14,4.88,2.42,7.32,3.64Z"/><path class="cls-3" d="M144.47,175.27c-16-10.83-9.14-21.26-3.63-29.64,3-4.52,6-9.2,6-13.9,0-5.82-1.57-8.51-3.39-11.63a24.89,24.89,0,0,1-3.61-9.05c-0.68-4.09,2.93-7.64,6.75-11.4,2.67-2.62,5.69-5.59,6.11-7.93l4.92,0.88c-0.7,3.9-4.17,7.31-7.52,10.61-2.35,2.31-5.58,5.48-5.32,7a19.9,19.9,0,0,0,3,7.35,24.71,24.71,0,0,1,4.07,14.15c0,6.2-3.49,11.51-6.87,16.65-5.81,8.85-9.65,14.69,2.25,22.76Z"/></svg>