<svg xmlns="http://www.w3.org/2000/svg" viewBox="0 0 90 50"><path fill="#41328e" d="M25.71 19.22c-1.118-1.134-2.523-2.054-3.962-2.777-.08-.072-.162-.143-.242-.216.37-.454.736-.912 1.093-1.377 1.695-2.205 3.263-4.735 3.262-7.61 0-1.118-.294-2.228-1.077-3.06-1.207-1.285-3.044-.84-4.385-.042-3.033 1.804-4.133 5.808-2.89 9.027a8.464 8.464 0 0 0 1.162 2.048c-2.832-.84-5.925-.958-8.62.324-2.85 1.357-4.85 4.212-5.627 7.217-.343 1.326-.434 2.7-.17 4.047.267 1.362.887 2.673 1.68 3.804l.01.017c-.955.95-1.913 1.897-2.877 2.837-.637.62.338 1.595.974.974.928-.904 1.854-1.813 2.775-2.725a10.36 10.36 0 0 0 7.727 3.387c3.358-.017 6.487-1.624 8.317-4.456a8.706 8.706 0 0 0 1.32-3.597c.203-1.552-.343-3.107-1.203-4.382a9.152 9.152 0 0 0-4.145-3.335 91.982 91.982 0 0 0 1.706-1.94c.174.082.346.167.516.254.213.177.428.35.643.518 1.004.784 2.06 1.528 3.176 2.145.686.38 1.392-.517.836-1.08zM20.017 6.185c.59-.615 1.35-1.11 2.166-1.358.258-.078.66-.118.822-.094.072.01.142.03.212.048.002 0 .13.047.132.043.048.023.096.048.142.074.023.012.228.156.13.078.246.196.296.277.43.49.184.292.186.325.278.604.034.103.06.21.085.315.01.038.034.198.04.223.027.255.03.514.03.77-.01 1.1-.345 2.263-.836 3.287-.687 1.43-1.635 2.732-2.62 3.97-.165.208-.333.416-.502.623-.19-.205-.376-.413-.554-.626-1-1.2-1.575-2.63-1.594-4.197-.018-1.566.55-3.118 1.638-4.25zm1.01 16.245c1.06 1.088 1.864 2.566 1.817 4.115a5.717 5.717 0 0 1-.04.482l-.025.152a7.21 7.21 0 0 1-.212.866c-.184.603-.397 1.057-.728 1.624a8.13 8.13 0 0 1-2.88 2.88c-2.893 1.718-6.727 1.51-9.496-.337a8.723 8.723 0 0 1-1.675-1.47c2.38-2.37 4.74-4.766 7.067-7.19.996-1.036 1.993-2.078 2.974-3.136 1.217.37 2.325 1.116 3.2 2.014zm-3.665-3.53c-1.4-.24-2.866-.063-4.193.45-1.512.586-3.02 1.585-4.053 2.855-.237.29-.286.69 0 .974.245.244.737.29.974 0 1.44-1.768 3.76-3.02 6.095-3.012a299.098 299.098 0 0 1-2.908 3.04c-2.09 2.165-4.207 4.302-6.338 6.425-.132-.197-.256-.397-.373-.602a8.613 8.613 0 0 1-.998-2.668c-.015-.072-.027-.144-.04-.216l-.018-.133a6.21 6.21 0 0 1-.037-.452c-.14-2.746 1.25-5.652 3.298-7.514 1.17-1.065 2.63-1.735 4.184-2 1.814-.306 3.776.02 5.518.543.245.073.488.154.73.24-.602.7-1.218 1.39-1.842 2.07zM42.176 32.17l-.014-.013c.114.036-.05-.055-.013-.01a3.692 3.692 0 0 1-.144-.137c-.145-.148-.275-.31-.405-.47-.307-.385-.626-.82-.947-1.232-.568-.726-1.25-1.624-2.234-1.725-.906-.093-1.84.83-2.43 1.393-.253.24-.498.494-.734.754-.312-.454-.652-.89-1.012-1.302-.37-.423-.806-.846-1.315-1.096-.538-.264-1.05-.236-1.584.003-.975.437-1.802 1.28-2.548 2.023-.284.283-.562.572-.834.867-.462-.99-.752-2.09-1.006-3.127-.21-.863-1.54-.497-1.33.366.356 1.454.797 3.026 1.602 4.3.222.35.782.49 1.082.138.396-.463.813-.908 1.237-1.344.697-.716 1.4-1.423 2.228-1.9.057-.034.115-.063.174-.092-.06.032.127-.046.165-.056l.025-.007c.01 0 .024.003.045.003-.2-.006.134.068.067.027.42.194.737.553 1.07.934a11.85 11.85 0 0 1 1.254 1.76c.208.352.797.492 1.082.14.368-.457.77-.89 1.185-1.302a7.4 7.4 0 0 1 .97-.83c.08-.055.16-.104.243-.152.018-.01.15-.052.167-.062a.42.42 0 0 1 .14-.02h.004s.003-.018.005-.018c.006.002.01-.007.016-.005.023.01.045.017.066.03.017.01.147.1.145.093.168.136.32.292.465.45.32.345.605.72.89 1.092.484.637.988 1.52 1.772 1.82.35.136.755-.145.848-.48.1-.36-.094-.66-.4-.813zm-.016-.014l.01.01c-.024-.012-.05-.024-.075-.034a.65.65 0 0 0 .065.024zM57.96 10.32c-.204-1.192-.705-2.354-1.513-3.26-.763-.858-1.867-1.373-2.99-1.533-1.364-.195-2.868-.023-4.15.5-.346.143-.59.454-.48.85.09.33.5.623.848.48.52-.212 1.08-.344 1.63-.44.058-.01.117-.02.175-.028l.025-.005c.01 0 .02-.002.034-.004.125-.015.252-.026.378-.035.29-.022.58-.023.87-.01.338.017.406.03.72.096.14.03.278.07.415.11.153.047.312.11.38.14 1.193.542 1.873 1.675 2.208 2.953.29 1.1.26 2.353.03 3.483-.477 2.327-1.7 4.444-3.068 6.356-1.895 2.65-4.24 4.976-6.673 7.128a.695.695 0 0 0-.05.044l-.042.038c-.38.335-.227.794.1 1.02.226.238.47.53.615.724.192.257.365.53.513.814.108.208.168.415.17.61-.008-.013-.028.083-.004.046-.038.072-.087.14-.13.206a3.343 3.343 0 0 1-.39.474 3.68 3.68 0 0 1-1.02.75 1.894 1.894 0 0 1-.4.14 1.406 1.406 0 0 0-.06.016c-.01 0-.028 0-.052.003-.012 0-.096-.005-.125-.004l-.022-.007-.016-.015-.01-.01c0-.003-.002-.004-.005-.01-.02-.03-.093-.177-.102-.187a3.21 3.21 0 0 1-.086-.267c-.094-.34-.1-.482-.12-.82-.052-.866.056-1.737.217-2.586.393-2.072 1.14-4.082 1.927-6.032a57.657 57.657 0 0 1 2.037-4.506c.402-.79-.787-1.49-1.19-.697-1.32 2.595-2.47 5.313-3.366 8.082-.6 1.854-1.114 3.854-.998 5.82.067 1.124.4 2.495 1.724 2.615.847.077 1.708-.5 2.323-1.013.623-.52 1.332-1.327 1.242-2.195-.095-.904-.653-1.756-1.27-2.467 2.97-2.666 5.788-5.63 7.8-9.094 1.442-2.483 2.445-5.37 1.95-8.27zM60.744 27.88c-.05-.574-.56-.913-1.04-1.136-1.554-.722-3.392-.6-4.865.26-1.7.994-2.94 2.953-2.056 4.882.6 1.31 2.194 2.134 3.598 2.06.884-.048.888-1.426 0-1.38-1.214.065-2.575-.83-2.542-2.125.022-.873.82-1.652 1.487-2.114.71-.49 1.532-.707 2.388-.678a3.71 3.71 0 0 1 1.412.344c-1.124 1.053-2.88 1.76-4.43 1.82-.886.033-.89 1.41 0 1.377 1.885-.073 3.71-.86 5.174-2.026.363-.288.918-.764.874-1.285zM70.67 31.085c-.293.32-.686.564-1.136.742l.006-.028c.225-1.085.655-1.958 1.08-2.9.262-.582.084-1.2-.31-1.676-.445-.54-1.15-.764-1.828-.77-1.784-.017-3.483 1.397-4.608 2.652-.756.844-1.91 2.293-1.346 3.504.55 1.18 2.157.674 3.02.244 1.024-.51 1.947-1.25 2.814-2-.24.752-.54 1.944.278 2.38.605.32 1.394-.094 1.932-.375.384-.202.778-.477 1.072-.8.6-.654-.373-1.632-.974-.975zm-6.912.865v-.006.006zm-.07-.033c-.02-.017-.03-.027 0 0zm2.252-.91c-.266.183-.54.356-.82.515-.303.17-.477.253-.74.342a2.88 2.88 0 0 1-.354.093l-.01.002c-.007 0-.016.02-.028.02-.052.004-.105.02-.157.02h-.02c-.006 0-.012-.02-.02-.022-.006 0-.018-.014-.03-.02 0 0 .01-.1.015-.123.014-.063.034-.126.053-.187.068-.21.256-.54.43-.808.85-1.3 2.29-2.6 3.83-2.963.234-.055.542-.05.695-.02.142.03.182.05.23.074a1.79 1.79 0 0 1 .144.083l.023.02c.03.026.056.053.082.08l.007.008a27.887 27.887 0 0 1-1.748 1.64c-.515.45-1.026.86-1.582 1.246zm3.107.975c.073-.02.038-.03.076-.02-.025.008-.05.014-.076.02zM81.846 22.028c-.417-.258-.905-.31-1.385-.343-.31-.02-.624-.028-.937-.03.13-.276.263-.553.394-.828.3-.624.603-1.247.923-1.86.412-.79-.818-1.413-1.228-.626a65.685 65.685 0 0 0-1.618 3.35c-.713.026-1.425.07-2.136.128-.885.074-.686 1.438.197 1.364.44-.037.882-.065 1.323-.09-.09.21-.182.42-.27.63-1.185 2.85-2.384 5.907-1.788 9.04.246 1.297.747 2.702 1.692 3.667.623.635 1.535-.4.916-1.03l-.007-.007s0-.002-.002-.003a4.762 4.762 0 0 1-.313-.433c-.34-.517-.525-.956-.723-1.58-.28-.882-.37-1.81-.356-2.732.005-.38.012-.42.07-.816.048-.325.116-.646.19-.964.472-2.002 1.245-3.945 2.1-5.834.393-.01.76-.008 1.192.01.235.01.47.028.703.06.077.01.152.025.227.042-.087-.007.19.108.044.008.007 0 .012.002.018.003.308.16.674.14.904-.16.213-.275.194-.77-.126-.967zm-.795 1.122a1.302 1.302 0 0 0-.043-.028c.02.012.04.02.06.032a.105.105 0 0 0-.016-.004z"/><path fill="#41328e" d="M86.567 32.937c-1.248-.06-2.532-.263-3.66-.822-.208-.102-.19-.092-.313-.182a7.32 7.32 0 0 1 .117-.254c.608-1.276 1.353-2.496 2.084-3.704.235-.39-.11-.896-.51-.966-1.046-.182-2.065-.64-3.02-1.09-.807-.38-1.378.874-.575 1.252.766.36 1.575.72 2.403.967-.642 1.054-1.282 2.13-1.768 3.256-.138.32-.25.66-.112 1.003.17.425.61.69.99.902 1.227.684 2.75.927 4.13.994.376.018.728-.16.797-.563.058-.337-.187-.778-.563-.796zM16.882 42.455c0 .203-.068.38-.205.533a.653.653 0 0 1-.505.228.638.638 0 0 1-.503-.235.774.774 0 0 1-.195-.525.76.76 0 0 1 .198-.528.643.643 0 0 1 .498-.22.66.66 0 0 1 .508.222.75.75 0 0 1 .204.525zM26.815 38.62c0 .396-.018.99-.053 1.78s-.053 1.385-.053 1.78c0 1.213.025 2.133.077 2.757l.005.06c.003.03-.038.05-.125.06-.058.006-.14.006-.25 0l-.18-.014c-.045 0-.113.005-.202.014s-.157.014-.203.014c-.043 0-.068-.106-.076-.32-.008-.214-.02-.322-.035-.325a.255.255 0 0 0-.068.06c-.42.455-.905.683-1.453.683-.622 0-1.132-.237-1.532-.71-.378-.446-.567-.984-.567-1.614 0-.655.192-1.205.573-1.65.4-.468.92-.702 1.563-.702.387 0 .726.114 1.015.34.133.115.264.23.393.347.025-.01.037-.032.037-.066V39.62c0-.1-.005-.255-.014-.46s-.014-.362-.014-.467c0-.074.025-.11.074-.11.114 0 .283-.01.507-.03.224-.02.392-.03.503-.03.053 0 .08.032.08.096zm-1.152 4.196a1.5 1.5 0 0 0-.34-.973c-.244-.298-.545-.447-.905-.447-.378 0-.69.148-.936.443-.234.276-.35.608-.35.995 0 .37.12.69.364.964.25.288.556.432.922.432.37 0 .673-.146.913-.438.222-.274.333-.6.333-.978zM36.265 42.576c0 .228-.098.38-.295.457-.132.05-1.084.14-2.855.272.04.27.19.5.447.692.246.18.51.272.793.272.486 0 .932-.158 1.337-.47l.148-.12c.025 0 .04.002.048.008s.065.113.173.32c.11.21.162.32.162.335 0 .018-.025.054-.074.106-.452.48-1.03.718-1.74.718-.712 0-1.28-.213-1.705-.64-.424-.425-.636-.993-.636-1.703 0-.633.203-1.185.61-1.656.426-.49.95-.734 1.572-.734.577 0 1.06.212 1.447.636.38.412.568.914.568 1.504zm-1.098-.28c0-.256-.1-.482-.302-.68a.948.948 0 0 0-.68-.294c-.283 0-.534.114-.754.34s-.33.484-.33.767c0 .064.056.096.167.096.455 0 1-.046 1.633-.138.178-.026.267-.057.267-.093zM43.79 43.632c0 .458-.182.825-.548 1.102-.332.252-.736.378-1.213.378a1.76 1.76 0 0 1-.315-.014c-.052-.025-.078-.1-.078-.226 0-.068-.008-.17-.025-.304s-.025-.235-.025-.3c0-.04.028-.066.083-.078.04-.01.097-.01.17 0l.14.014c.58 0 .87-.178.87-.535 0-.17-.127-.325-.382-.467-.415-.228-.653-.367-.715-.42a1.075 1.075 0 0 1-.383-.858c0-.46.174-.82.52-1.08.315-.23.71-.345 1.19-.345a.1.1 0 0 1 .096.06c.02.04.058.164.115.374.058.21.086.335.086.378 0 .034-.03.055-.088.065-.197.028-.395.054-.595.078-.237.065-.355.194-.355.387 0 .138.125.278.374.42.37.206.603.355.7.447.253.24.38.547.38.922zM50.376 39.537c0 .378-.21.567-.632.567-.427 0-.64-.19-.64-.567 0-.17.065-.31.197-.42.124-.105.272-.157.444-.157s.32.054.445.16.186.248.186.417zm-.032 1.25c0 .237-.015.594-.044 1.072-.03.477-.044.836-.044 1.076 0 .224.005.56.014 1.008.01.447.014.782.014 1.003 0 .065-.028.097-.083.097h-.898c-.065 0-.097-.063-.097-.19 0-.21.005-.53.016-.956.012-.426.017-.746.017-.962 0-.24-.018-.6-.053-1.08-.035-.48-.053-.838-.053-1.078 0-.052.033-.078.098-.078.055 0 .14.008.256.023s.202.023.26.023.146-.008.262-.023.202-.023.26-.023c.052 0 .078.028.078.087zM60.043 40.754c0 .37-.003.923-.01 1.663s-.008 1.294-.008 1.663c0 .732-.157 1.27-.47 1.62-.33.368-.855.552-1.577.552-.698 0-1.262-.132-1.692-.397-.068-.043-.1-.08-.1-.11 0 .033.045-.195.137-.684.01-.05.03-.077.065-.077a.13.13 0 0 1 .06.023c.46.264.924.397 1.388.397.304 0 .556-.068.756-.203a.754.754 0 0 0 .346-.67c0-.064-.006-.208-.018-.432-.34.415-.775.623-1.3.623-.57 0-1.036-.203-1.402-.612-.35-.394-.526-.878-.526-1.453 0-.584.17-1.08.507-1.49a1.73 1.73 0 0 1 1.4-.655c.508 0 .91.195 1.21.586.048.065.084.097.105.097.025 0 .037-.028.037-.083 0-.04-.003-.104-.01-.19s-.008-.154-.008-.197c0-.184.018-.277.055-.277.03 0 .196.028.497.085s.466.092.493.105c.04.015.063.055.063.12zm-1.107 1.9c0-.344-.094-.636-.28-.876a.985.985 0 0 0-.813-.392c-.332 0-.6.132-.807.397-.188.24-.28.53-.28.872 0 .335.094.624.285.867a.97.97 0 0 0 .803.397.977.977 0 0 0 .802-.398c.194-.244.29-.533.29-.868zM69.676 44.96c0 .068-.03.1-.092.1-.1 0-.253 0-.454-.004-.2-.003-.353-.005-.454-.005-.055 0-.083-.044-.083-.133 0-.15.005-.38.014-.687.01-.307.014-.538.014-.692 0-.123 0-.307-.004-.55s-.005-.43-.005-.552c0-.35-.05-.598-.15-.742-.124-.172-.35-.258-.684-.258-.154 0-.367.086-.64.258-.29.18-.434.343-.434.484v2.767c0 .077-.03.115-.088.115-.098 0-.246-.002-.443-.005a33.596 33.596 0 0 0-.442-.005c-.065 0-.097-.035-.097-.106 0-.243.005-.607.013-1.093.008-.485.012-.85.012-1.097a7.425 7.425 0 0 0-.222-1.872c0-.03.02-.05.06-.064l.528-.085c.33-.053.504-.08.52-.08.018 0 .03.025.037.074.015.19.05.383.106.576.16-.126.37-.283.632-.47.323-.197.635-.295.936-.295.58 0 .974.168 1.186.503.157.246.235.644.235 1.194 0 .095 0 .24-.006.438-.005.197-.007.344-.007.443 0 .206.003.513.01.922s.01.72.01.925zM76.525 42.455c0 .203-.068.38-.205.533a.653.653 0 0 1-.505.228.638.638 0 0 1-.503-.235.774.774 0 0 1-.194-.525.76.76 0 0 1 .198-.528.643.643 0 0 1 .498-.22.66.66 0 0 1 .507.222.75.75 0 0 1 .205.525z"/></svg>