<svg id="Layer_1" data-name="Layer 1" xmlns="http://www.w3.org/2000/svg" viewBox="0 0 387.24 102.05"><title>icon</title><path fill="#fff" d="M122.94.2H.66C.15.2-.17-.24.1.2L5.81,10.73c.12.2.34,0,.57,0h92a2.48,2.48,0,0,1,2.16,3.7L81.32,48.48a2.6,2.6,0,1,1-4.48-2.64C81,39.16,95.56,15.59,95.56,15.38s-75.7.15-85.92.2a.66.66,0,0,0-.56,1L40.76,70.9a.67.67,0,0,0,1.15,0l6.26-10.43a.67.67,0,0,0,0-.67L32.25,31.94a3.09,3.09,0,0,1,2.69-4.63H74.16a2.35,2.35,0,0,1,0,4.69H37.81l41.25,69.73a.67.67,0,0,0,1.13,0L104.28,64.4a.67.67,0,0,0-.56-1h-7.4a4.7,4.7,0,0,0-3.91,2.1L80.19,83.89a.67.67,0,0,1-1.13,0L56,45.49a3.29,3.29,0,0,1,1.22-4.6h0a3.3,3.3,0,0,1,4.48,1.3L79,72.08a.67.67,0,0,0,1.15,0L123.51.2C123.78-.25,123.46.2,122.94.2Z"/><path fill="#fff" d="M201.35,46.27H193.9A6.68,6.68,0,0,0,187.22,53v8.82a7.07,7.07,0,0,1-7.08,7.07h-8.77a14.92,14.92,0,0,1-14.93-14.93V39.22a14.93,14.93,0,0,1,14.93-14.94h28.06a6,6,0,0,0,6-6v-3.9a6,6,0,0,0-6-6H161.25A28.26,28.26,0,0,0,133,36.72v20A28.27,28.27,0,0,0,161.25,85h34.42A12.36,12.36,0,0,0,208,72.61V53A6.68,6.68,0,0,0,201.35,46.27Z"/><path fill="#fff" d="M295.24,8.75h0a7.48,7.48,0,0,0-7.48,7.47V56.66a3.32,3.32,0,0,1-6.09,1.84l-31-43.6a16.42,16.42,0,0,0-13.67-7.32h0A16.41,16.41,0,0,0,220.63,24V78.22a7.19,7.19,0,0,0,14.37,0V36c0-8,4.1-7.62,12.18,5.06l27.1,37.27a14.69,14.69,0,0,0,11.87,6H287a15.74,15.74,0,0,0,15.73-15.74V16.22A7.47,7.47,0,0,0,295.24,8.75Z"/><path fill="#fff" d="M372.91,43.3,336,34.12a4.92,4.92,0,0,1,1.4-9.64h37a7.3,7.3,0,0,0,7.3-7.3v-1a7.29,7.29,0,0,0-7.3-7.29H331.55a17.78,17.78,0,0,0-17.79,17.79h0c0,12,2.73,21.29,19.07,26.53l34.65,9.67a3.18,3.18,0,0,1-1,6.2H322.83a7.12,7.12,0,0,0-7.12,7.12v2.56a7.12,7.12,0,0,0,7.12,7.12h44.4a20,20,0,0,0,20-20V62.48A20,20,0,0,0,372.91,43.3Z"/></svg>