<svg id="Body" xmlns="http://www.w3.org/2000/svg" viewBox="0 0 210 136"><defs><style>.cls-1{fill:#ce202e;}.cls-2{fill:#f2f2f2;stroke:#b3b3b3;stroke-miterlimit:10;}.cls-3{fill:#999;}</style></defs><title>Icon</title><g id="_4.svg" data-name="4.svg"><polygon class="cls-1" points="126.94 55.5 121.94 55.5 121.94 60.5 115.94 60.5 115.94 66.5 121.94 66.5 121.94 71.5 126.94 71.5 126.94 66.5 132.94 66.5 132.94 60.5 126.94 60.5 126.94 55.5"/><path class="cls-2" d="M134.12,42.67A1.87,1.87,0,0,1,133,41.43c-0.06-2.89,0-3,0-3l-17.22,0a9.69,9.69,0,0,1-.16,2.39,3.12,3.12,0,0,1-1.22,1.81c-6.63,2.72-9.73,7.72-9.76,14.76,0,5.53,0,11.05,0,16.58,0,3,1.07,5.25,3.82,6.67a2.15,2.15,0,0,1,1.07,1.56c-0.1,1.84,1,1.91,2.31,1.91q12.38,0,24.76,0c1.3,0,2.23-.12,2.21-1.8a2.16,2.16,0,0,1,1.1-1.56,5.85,5.85,0,0,0,3.66-5.39c0.19-5.94.25-11.88,0.31-17.82C144,50.48,140.82,45.42,134.12,42.67Zm-9.9,33.71A13.17,13.17,0,1,1,137.4,63.21,13.19,13.19,0,0,1,124.22,76.39Z"/><path class="cls-3" d="M115.76,36.85c2.79-.07,5.59,0,8.38,0,1.93,0,3.87,0,5.81,0,5.69-.06,5,0.81,5.16-5.19,0-1.84-.59-2.56-2.48-2.52-4.58.1-9.17,0-13.76,0-6,.07-5.26-1.07-5.34,5.6C113.51,36.4,114.25,36.89,115.76,36.85Z"/><path class="cls-2" d="M88.64,101.52c0.44-.26.84-0.58,1.33-0.92l1.3,2.67a2,2,0,0,0,1.9,1.23c4.22,0,8.43,0,12.65-.05a0.91,0.91,0,0,0,.47-1.75L95.5,96.18a2,2,0,0,0-2.3.07l-1.4.92c-1,.66-1,0.67-1.68-0.36-0.46-.71-0.88-1.44-1.31-2.17A3.34,3.34,0,0,0,86.68,93c-4.65-1.25-9.29-2.55-13.93-3.83l-5.86-1.6a2.81,2.81,0,0,0-3.63,1.85c-0.44,1.46-.9,2.93-1.21,4.43a2.63,2.63,0,0,0,1.48,3.06,5.77,5.77,0,0,0,1.11.43q9.75,2.7,19.51,5.4a3.62,3.62,0,0,0,2.6-.2C87.4,102.24,88,101.88,88.64,101.52ZM64.88,96.45A4.43,4.43,0,0,1,64,96.11a2.28,2.28,0,0,1-1-1.74c0.11-.67.22-1.35,0.4-2,0.25-.94.52-1.87,0.85-2.79a2.21,2.21,0,0,1,1.94-1.13,7.22,7.22,0,0,1,1.08.21L86.4,93.92a1.7,1.7,0,0,1,1,.7c0.38,0.57.72,1.16,1.11,1.73a20.11,20.11,0,0,0,1.3,1.76,1.53,1.53,0,0,0,2.11.27q1-.63,2-1.29A1,1,0,0,1,95.05,97c3,1.78,10.21,6.27,10.33,6.39-2,0-10.39.11-12,.13a1.1,1.1,0,0,1-1.12-.72c-0.3-.67-0.63-1.33-1-2a1.56,1.56,0,0,0-2.23-.79c-0.74.37-1.46,0.79-2.17,1.22a3.66,3.66,0,0,1-3.09.43C77.53,99.92,71.2,98.2,64.88,96.45Z"/><path class="cls-1" d="M85.22,100.12l1.17-4.24s-0.54-.18-0.59-0.19L66.73,90.42a0.77,0.77,0,0,0-1,.52c-0.25.86-.53,1.71-0.77,2.57s-0.08,1,.67,1.22L84.35,99.9Z"/><path class="cls-2" d="M98,29.79c0-2.78-1.49-4.26-4.29-4.27s-5.58,0-8.37,0c-8.33,0-16.66,0-25,0a3.74,3.74,0,0,0-3.83,2.17,6.49,6.49,0,0,0-.37,2.52q0,16.74,0,33.49c0,4.48,0,9,0,13.44,0,2.9,1.48,4.32,4.36,4.32H93.73c2.79,0,4.28-1.49,4.28-4.28q0-11.84,0-23.69T98,29.79ZM65.52,75.58a6,6,0,0,1-5.92-6.06,6,6,0,0,1,12,.11A6.05,6.05,0,0,1,65.52,75.58Zm0-16.12a6,6,0,0,1-5.92-6.06,6,6,0,0,1,12,.11A6.05,6.05,0,0,1,65.52,59.45Zm0-16.12a6,6,0,0,1-5.92-6.06,6,6,0,0,1,12,.11A6.05,6.05,0,0,1,65.52,43.33ZM78.44,77.79a0.51,0.51,0,1,1-1,0V29.21a0.51,0.51,0,1,1,1,0V77.79Zm10.07-2.21a6,6,0,0,1-5.92-6.06,6,6,0,0,1,12,.11A6.05,6.05,0,0,1,88.51,75.58Zm0-16.12a6,6,0,0,1-5.92-6.06,6,6,0,0,1,12,.11A6.05,6.05,0,0,1,88.51,59.45Zm0-16.12a6,6,0,0,1-5.92-6.06,6,6,0,0,1,12,.11A6.05,6.05,0,0,1,88.51,43.33Z"/><path class="cls-1" d="M65.45,75.58a6,6,0,0,1-5.92-6.06,6,6,0,0,1,12,.11A6.05,6.05,0,0,1,65.45,75.58Zm0-16.12a6,6,0,0,1-5.92-6.06,6,6,0,0,1,12,.11A6.05,6.05,0,0,1,65.45,59.45Zm0-16.12a6,6,0,0,1-5.92-6.06,6,6,0,0,1,12,.11A6.05,6.05,0,0,1,65.45,43.33Zm23,32.25a6,6,0,0,1-5.92-6.06,6,6,0,0,1,12,.11A6.05,6.05,0,0,1,88.43,75.58Zm0-16.12a6,6,0,0,1-5.92-6.06,6,6,0,0,1,12,.11A6.05,6.05,0,0,1,88.43,59.45Zm0-16.12a6,6,0,0,1-5.92-6.06,6,6,0,0,1,12,.11A6.05,6.05,0,0,1,88.43,43.33Z"/><path class="cls-2" d="M126.8,88.28a12.87,12.87,0,0,0-2.17-1.21,0.79,0.79,0,0,0-.63.1c-2.34,1.42-4.69,2.82-7,4.29a5.94,5.94,0,0,0-2,8.07,5.87,5.87,0,0,0,8.06,2.19c2.61-1.48,5.13-3.1,7.68-4.68a0.76,0.76,0,0,0,.3-0.61,12.73,12.73,0,0,0-3.38-7.34S127,88.46,126.8,88.28Z"/><path class="cls-1" d="M134.71,80.42c-3,1.61-5.88,3.48-9,5.35,4.43,2.14,6.3,5.87,7,10.46,2.88-1.79,5.71-3.4,8.39-5.25A6.21,6.21,0,0,0,134.71,80.42Z"/></g></svg>