<svg id="Body" xmlns="http://www.w3.org/2000/svg" xmlns:xlink="http://www.w3.org/1999/xlink" viewBox="0 0 204 160"><defs><style>.cls-1{fill:#ccc;}.cls-2{fill:url(#linear-gradient);}.cls-3{fill:url(#linear-gradient-2);}.cls-4{fill:url(#radial-gradient);}.cls-5,.cls-7{fill:#8e202e;}.cls-6,.cls-9{fill:#ce202e;}.cls-7,.cls-9{fill-rule:evenodd;}.cls-8{fill:#b1b1b1;}</style><linearGradient id="linear-gradient" x1="245.57" y1="792.2" x2="245.57" y2="739.02" gradientTransform="matrix(-0.99, 0, 0, 1.1, 325.81, -747.55)" gradientUnits="userSpaceOnUse"><stop offset="0" stop-color="#fff"/><stop offset="0.48" stop-color="#fdfdfd"/><stop offset="0.7" stop-color="#f3f3f3"/><stop offset="0.87" stop-color="#e8e7e7"/><stop offset="1" stop-color="#d7d7d8"/></linearGradient><linearGradient id="linear-gradient-2" x1="-133.49" y1="-187.29" x2="-128.82" y2="-182.62" gradientTransform="matrix(0.99, 0, 0, -1.1, 202.91, -99.25)" gradientUnits="userSpaceOnUse"><stop offset="0" stop-color="#fff"/><stop offset="0.33" stop-color="#f0f0f0"/><stop offset="0.93" stop-color="#cececd"/><stop offset="1" stop-color="#cccaca"/></linearGradient><radialGradient id="radial-gradient" cx="257.19" cy="786" r="8.53" gradientTransform="matrix(-0.99, 0, 0, 1.1, 325.81, -755.6)" gradientUnits="userSpaceOnUse"><stop offset="0" stop-color="#fff"/><stop offset="0.48" stop-color="#fdfdfd"/><stop offset="0.65" stop-color="#f4f4f4"/><stop offset="0.77" stop-color="#e9e9e9"/><stop offset="0.87" stop-color="#d8d8d8"/><stop offset="0.95" stop-color="#c3c2c3"/><stop offset="1" stop-color="#b3b3b1"/></radialGradient></defs><title>Icon</title><g id="_3.svg" data-name="3.svg"><path class="cls-1" d="M58.64,57.1a2.77,2.77,0,0,0-2.77,2.77v62.37A2.77,2.77,0,0,0,58.64,125h48a2.77,2.77,0,0,0,2.77-2.77V59.86a2.77,2.77,0,0,0-2.77-2.77h-48Z"/><path class="cls-2" d="M101.55,116.48a1.54,1.54,0,0,0,1.46-1.61V65.7a1.54,1.54,0,0,0-1.46-1.61H62.19a1.54,1.54,0,0,0-1.46,1.61V97.79a4.75,4.75,0,0,0,1,2.75l13.38,14.8a3.89,3.89,0,0,0,2.49,1.14h23.93Z"/><path class="cls-3" d="M75.39,112.2v-8.05a2.94,2.94,0,0,0-2.78-3.07H65Z"/><path class="cls-4" d="M76,102.26l0.67,13.25h0l1-15.14a1.54,1.54,0,0,0-1.46-1.61H62.95l11.55,1.88A1.54,1.54,0,0,1,76,102.26Z"/><path class="cls-5" d="M98.23,59.84c0-2.24-1.5-4.07-3.34-4.07H87.37V51H87.32a4.1,4.1,0,0,0,.05-0.67,4.92,4.92,0,0,0-9.84,0,4.57,4.57,0,0,0,.05.67H77.53v4.79H70c-1.84,0-3.34,1.83-3.34,4.07v1.44a5.33,5.33,0,0,0,0,.55,2.18,2.18,0,0,0,0,.37v1.53A1.51,1.51,0,0,0,68,65.34H96.9a1.51,1.51,0,0,0,1.33-1.63V62.18a2,2,0,0,0,0-.37,4.39,4.39,0,0,0,0-.55V59.84Z"/><path class="cls-6" d="M98.23,60.59a3.63,3.63,0,0,0-3.34-3.85H87.37V51.17H87.32a3.7,3.7,0,0,0,.05-0.63,4.94,4.94,0,0,0-9.84,0,4.15,4.15,0,0,0,.05.63H77.53v5.57H70a3.63,3.63,0,0,0-3.34,3.85v2.64A1.45,1.45,0,0,0,68,64.77H96.9a1.45,1.45,0,0,0,1.33-1.54V60.59Z"/><path class="cls-5" d="M85.56,48.83a0.32,0.32,0,0,1-.28.35h-5.7a0.32,0.32,0,0,1-.28-0.35h0a0.32,0.32,0,0,1,.28-0.35h5.7a0.32,0.32,0,0,1,.28.35h0Z"/><path class="cls-5" d="M85.56,50.29a0.32,0.32,0,0,1-.28.35h-5.7a0.32,0.32,0,0,1-.28-0.35h0a0.33,0.33,0,0,1,.28-0.35h5.7a0.32,0.32,0,0,1,.28.35h0Z"/><path class="cls-5" d="M85.56,51.75a0.32,0.32,0,0,1-.28.35h-5.7a0.32,0.32,0,0,1-.28-0.35h0a0.32,0.32,0,0,1,.28-0.35h5.7a0.32,0.32,0,0,1,.28.35h0Z"/><path class="cls-5" d="M85.56,53.21a0.32,0.32,0,0,1-.28.35h-5.7a0.32,0.32,0,0,1-.28-0.35h0a0.32,0.32,0,0,1,.28-0.35h5.7a0.32,0.32,0,0,1,.28.35h0Z"/><path class="cls-7" d="M110.67,81.56A6.66,6.66,0,1,1,106.4,90,6.67,6.67,0,0,1,110.67,81.56Z"/><path class="cls-8" d="M115.19,61h0a21.09,21.09,0,0,0,2.46-1.17,27.25,27.25,0,0,0,2.62-1.66c4.58-3.26,9-8.47,8.22-14.19l-1.6-11.58a8.19,8.19,0,0,0-.24-1.14,8,8,0,0,0-3.39-4.58,9,9,0,0,0-6.17-1.23h0a12.07,12.07,0,0,0-1.63.35l0.38,1.31a10.6,10.6,0,0,1,1.44-.3h0a7.66,7.66,0,0,1,5.24,1,6.64,6.64,0,0,1,2.81,3.8,7.39,7.39,0,0,1,.2,1l1.59,11.58c0.7,5.1-3.4,9.86-7.64,12.88A26.13,26.13,0,0,1,117,58.61a19.52,19.52,0,0,1-2.3,1.1h0Z"/><path class="cls-8" d="M114.77,59.7h0a19.36,19.36,0,0,1-2.51.46,26.33,26.33,0,0,1-2.94.19c-5.21,0-11.33-1.4-13.75-5.94L90,44.11a7.12,7.12,0,0,1-.4-0.89,6.64,6.64,0,0,1,0-4.73,7.65,7.65,0,0,1,3.64-3.91h0a10.47,10.47,0,0,1,1.34-.6L94.18,32.7a12.23,12.23,0,0,0-1.52.67h0A9,9,0,0,0,88.39,38a8,8,0,0,0-.05,5.7,8.57,8.57,0,0,0,.48,1.07l5.51,10.31c2.72,5.09,9.35,6.71,15,6.66a27.12,27.12,0,0,0,3.1-.2,21,21,0,0,0,2.68-.5h0Z"/><path class="cls-8" d="M111.23,89a18.31,18.31,0,0,0-3.48,11.69,15.78,15.78,0,0,0,3.51,8.83,17.55,17.55,0,0,0,7.87,5.49,19.36,19.36,0,0,0,13-.17h0l0.14-.05h0a20.66,20.66,0,0,0,3.53-1.68,19,19,0,0,0,3-2.21,15.21,15.21,0,0,0,4.53-16.37c-2.12-6.28-7.29-9-12.46-11.8C126,80.13,121.2,77.56,119.39,72l-3.81-11.73-1.84.6,3.81,11.73c2,6.31,7.22,9.07,12.41,11.84,4.82,2.58,9.66,5.16,11.54,10.71a13.31,13.31,0,0,1-4,14.32,16.92,16.92,0,0,1-2.68,2,18.69,18.69,0,0,1-3.2,1.52l-0.14.05a17.46,17.46,0,0,1-11.71.17,15.63,15.63,0,0,1-7-4.88,13.87,13.87,0,0,1-3.09-7.76,16.4,16.4,0,0,1,3.15-10.46Z"/><path class="cls-9" d="M115.16,28.64a1.68,1.68,0,0,0,1.29-2.38c-0.36-1.13-1.1-1.53-2.42-1.1A2.36,2.36,0,0,0,112.29,28C112.66,29.11,113.83,29.07,115.16,28.64Z"/><path class="cls-9" d="M96.14,34.81a1.68,1.68,0,0,1-2.44-1.16c-0.37-1.13,0-1.88,1.31-2.31a2.36,2.36,0,0,1,3.06,1.26C98.44,33.72,97.47,34.38,96.14,34.81Z"/><path class="cls-9" d="M109,96.91h0a1.67,1.67,0,0,0,2.08-1.09L112,93a1.66,1.66,0,0,0-1.09-2.08h0A1.66,1.66,0,0,0,108.82,92l-0.89,2.85A1.66,1.66,0,0,0,109,96.91Z"/><circle class="cls-6" cx="112.73" cy="87.9" r="3.68" transform="translate(-21.62 39.08) rotate(-17.98)"/><path class="cls-9" d="M116.43,65.53h0a2.36,2.36,0,0,0,1.51-3L117.44,61a26.35,26.35,0,0,0,9-6.21,1.92,1.92,0,0,0-2.76-2.67,22.07,22.07,0,0,1-9.1,5.85,23.93,23.93,0,0,1-11.14.71,1.92,1.92,0,1,0-.59,3.79,29.07,29.07,0,0,0,10.1-.11L113.46,64A2.36,2.36,0,0,0,116.43,65.53Z"/></g></svg>