<svg id="Body" xmlns="http://www.w3.org/2000/svg" viewBox="0 0 200 150"><defs><style>.cls-1{fill:#145098;}</style></defs><title>Icon</title><g id="_6.svg" data-name="6.svg"><path class="cls-1" d="M94.62,56.77a3,3,0,0,1-.92.71l3.58,2.17A3.57,3.57,0,0,1,96.68,58Z"/><path class="cls-1" d="M106.77,108.62a0.87,0.87,0,0,0,.68-0.27,1.18,1.18,0,0,0,.24-0.81,1.3,1.3,0,0,0-.31-0.92,1.17,1.17,0,0,0-.89-0.33h-0.19V108a0.73,0.73,0,0,0,.11.47A0.46,0.46,0,0,0,106.77,108.62Z"/><path class="cls-1" d="M50,25V125H150V25H50Zm69.75,13.76,11.15,6.74-0.24.35-11.12-6.74Zm-1.61.73,13.42,8.14-0.21.36-13.44-8.14ZM117,40.54l13.85,8.4-0.22.36-13.85-8.39Zm-9-7.14,6.7,4-0.21.35-6.7-4Zm-8-3.13,14.84,9-0.22.37-14.84-9Zm-2.32.32,33.8,20.51-0.22.36L97.55,31Zm-1.47.84,36,21.84-0.22.37-36-21.84Zm39.23,30.76-0.2.32-4.43-2.68,0.22-.37ZM84.82,38.33l8,4.84a3,3,0,0,1-.47-1.62c0-.08,0-0.16,0-0.25L90.24,40l0.2-.32,2,1.23A3,3,0,0,1,92.79,40l-1.72-1.06,0.23-.42,1.77,1.09A3,3,0,0,1,93.71,39l-0.5-.32-1.78-1.17,0.24-.41,2.62,1.6a3,3,0,0,1,1.09-.21,3,3,0,0,1,.55.05L92,36.18l0.19-.32L100.59,41a2,2,0,0,1,0-1.27L93.28,35.2l0.18-.29,7.33,4.43a2.08,2.08,0,0,1,.79-0.78l-6.62-4,0.13-.26a7,7,0,0,1,.83.36l6.15,3.73a2.06,2.06,0,0,1,2.53,1.54L107,41.36a1.29,1.29,0,0,1,.87-0.69l-11.56-7c-0.34-.2-0.65-0.44-1-0.66l0.2-.32L132.26,55l-0.22.36L109.41,41.6a1.24,1.24,0,0,1-.21,1.1L111,43.78a0.94,0.94,0,0,1,.47-0.13,1,1,0,0,1,1,1s0,0,0,0L131,55.92c0.24,0.14.45,0.33,0.68,0.49l-0.13.25c-0.39-.21-0.78-0.39-1.16-0.62l-18.08-11a1,1,0,1,1-1.62-1L108.88,43a1.29,1.29,0,0,1-2-1.07,1.27,1.27,0,0,1,0-.14l-2.23-1.36a2.06,2.06,0,0,1-.32,1.05l26.21,15.89-0.21.35L104.09,41.79a2.07,2.07,0,0,1-1.12.62l9.46,5.76a0.62,0.62,0,0,1,0-.19,0.63,0.63,0,1,1,.74.62c8.4,5.11,16.12,9.83,16.21,9.9l-0.17.27C123,55,110.93,47.7,102.24,42.41a2.07,2.07,0,0,1-1.32-.8l-3.16-1.92a3,3,0,0,1,.62,1.54c10.16,6.2,29.19,17.82,38,23.18,0.3,0.18.59,0.39,0.88,0.59l-0.19.31c-9.6-5.82-29.32-17.74-38.71-23.44a3,3,0,0,1-.22.85c10.19,6.26,29.09,17.85,38.18,23.37l-0.13.28c-0.38-.18-0.78-0.33-1.14-0.55L117.62,55.22c-3.95-2.39-13.21-8.09-19.68-12.08a3,3,0,0,1-.64.73c10.19,6.27,29.11,17.89,38.23,23.43l-0.17.32c-0.34-.18-0.68-0.34-1-0.54-8.7-5.27-27.36-16.78-37.4-23a3,3,0,0,1-1.57.44H95.12l40.21,24.37-0.22.36L84.63,38.66ZM70,48.3l56.72,34.42-0.2.34c-0.83-.49-1.67-1-2.49-1.47L107.27,71.4c-0.16-.1-0.33-0.16-0.49-0.25l-0.42-.21c-3-1.83-5.9-3.67-8.86-5.48Q84,57.26,70.44,49.06a7,7,0,0,1-.6-0.46Zm57.68,60.13a0.49,0.49,0,0,0,.11.25,0.73,0.73,0,0,0,.54.14h0.06V109h-3.13v-0.2h0.2a0.66,0.66,0,0,0,.53-0.15,0.53,0.53,0,0,0,.11-0.25,2.19,2.19,0,0,0,0-.41v-3l-2.07,3.09a1.75,1.75,0,0,0,0,.33,0.61,0.61,0,0,0,.08.21,0.36,0.36,0,0,0,.19.14,1.22,1.22,0,0,0,.37,0H125V109h-3.13v-0.2h0V109h-2.13l-1.14-2.19-0.17-.28a0.63,0.63,0,0,0-.15-0.16,0.38,0.38,0,0,0-.17-0.07h-0.23v1.75a1.73,1.73,0,0,0,0,.37,0.5,0.5,0,0,0,.12.23,0.42,0.42,0,0,0,.22.12,1.5,1.5,0,0,0,.34,0V109h-2.93v-0.2a1.34,1.34,0,0,0,.31,0,0.46,0.46,0,0,0,.22-0.12,0.51,0.51,0,0,0,.13-0.23,1.42,1.42,0,0,0,0-.38V104.3a2,2,0,0,0,0-.34,0.49,0.49,0,0,0-.11-0.24,0.48,0.48,0,0,0-.24-0.14,1.55,1.55,0,0,0-.43,0v-0.2h3.07v0.2a1.26,1.26,0,0,0-.38,0,0.49,0.49,0,0,0-.23.14,0.51,0.51,0,0,0-.11.22,1.28,1.28,0,0,0,0,.29v1.68h0.5a1.17,1.17,0,0,0,.29,0,0.66,0.66,0,0,0,.17-0.08,0.56,0.56,0,0,0,.15-0.16,1.58,1.58,0,0,0,.14-0.28,3.11,3.11,0,0,0,.13-0.43,7.35,7.35,0,0,1,.21-0.73,1.78,1.78,0,0,1,.27-0.51,1,1,0,0,1,.39-0.3,1.44,1.44,0,0,1,.57-0.1,1.2,1.2,0,0,1,.39.06,1,1,0,0,1,.31.17,0.79,0.79,0,0,1,.2.26,0.73,0.73,0,0,1,.07.33,0.76,0.76,0,0,1,0,.24,0.62,0.62,0,0,1-.11.2,0.51,0.51,0,0,1-.18.14,0.57,0.57,0,0,1-.24,0,0.59,0.59,0,0,1-.4-0.14,0.91,0.91,0,0,1-.25-0.46,0.29,0.29,0,0,0-.21-0.27,0.27,0.27,0,0,0-.13,0,0.38,0.38,0,0,0-.13.14,1.48,1.48,0,0,0-.13.3q-0.06.19-.14,0.5l-0.13.46a2.5,2.5,0,0,1-.12.33,0.89,0.89,0,0,1-.15.24,1.26,1.26,0,0,1-.24.2,1.24,1.24,0,0,1,.47.13,1.37,1.37,0,0,1,.36.27,2.38,2.38,0,0,1,.3.39l0.29,0.48,0.53,0.93a2.32,2.32,0,0,0,.22.34,0.74,0.74,0,0,0,.19.17,0.51,0.51,0,0,0,.2.07h0.29a0.66,0.66,0,0,0,.53-0.15,0.53,0.53,0,0,0,.11-0.25,2.18,2.18,0,0,0,0-.41v-3.66a1.31,1.31,0,0,0-.11-0.67,0.68,0.68,0,0,0-.56-0.15h-0.07v-0.2H125v0.2h-0.21a1.17,1.17,0,0,0-.33,0,0.4,0.4,0,0,0-.2.13,0.56,0.56,0,0,0-.11.25,2.13,2.13,0,0,0,0,.4v3l2.07-3.07a2.47,2.47,0,0,0,0-.36,0.54,0.54,0,0,0-.09-0.22,0.64,0.64,0,0,0-.54-0.16h-0.2v-0.2h3.19v0.2h-0.12a0.67,0.67,0,0,0-.54.15,1,1,0,0,0-.14.67V108A2.29,2.29,0,0,0,127.71,108.44ZM65.39,52.23l36.73,22.1a2.79,2.79,0,0,1,0-1L65.48,51.17l0.2-.37C65.93,50.94,89,64.9,102.24,72.92a3,3,0,0,1,.51-0.94l-36.53-22,0.21-.39,36.62,22.11a3,3,0,0,1,.87-0.57L67.3,48.87l0.19-.37,37,22.42A3,3,0,0,1,108,73.08l13.41,8.13a6.94,6.94,0,0,1,.64.5L121.9,82l-13.78-8.35c0,0.08,0,.16,0,0.25a3,3,0,0,1-.11.78l6.05,3.65-0.24.36-6-3.59a3,3,0,0,1-.6.89l4,2.45-0.27.36-4.13-2.5a3,3,0,0,1-.83.45l1.84,1.11-0.23.28-2.12-1.26a3,3,0,0,1-3.34-2L65.1,52.71Zm39.34,51.67a0.47,0.47,0,0,0-.13-0.23,0.48,0.48,0,0,0-.25-0.11,2.33,2.33,0,0,0-.38,0v-0.2H107a3.81,3.81,0,0,1,.8.08,2.3,2.3,0,0,1,.67.25,1.34,1.34,0,0,1,.46.43,1.22,1.22,0,0,1-.17,1.47,1.89,1.89,0,0,1-1,.47h0a2.21,2.21,0,0,1,1.16.47,1.22,1.22,0,0,1,.42,1,1.27,1.27,0,0,1-.16.63,1.47,1.47,0,0,1-.45.49,2.29,2.29,0,0,1-.7.32,3.38,3.38,0,0,1-.92.12H104v-0.2a1.83,1.83,0,0,0,.35,0,0.5,0.5,0,0,0,.24-0.11,0.47,0.47,0,0,0,.13-0.23,1.48,1.48,0,0,0,0-.39V104.3A1.65,1.65,0,0,0,104.73,103.9Zm-8.46,4.56a0.46,0.46,0,0,0,.13.23,0.47,0.47,0,0,0,.23.1,1.83,1.83,0,0,0,.33,0V109H94v-0.2a1.62,1.62,0,0,0,.39,0,0.43,0.43,0,0,0,.22-0.12,0.45,0.45,0,0,0,.1-0.23,2.47,2.47,0,0,0,0-.37v-1.76H92.51v1.76a1.69,1.69,0,0,0,0,.39,0.45,0.45,0,0,0,.12.23,0.46,0.46,0,0,0,.23.11,1.9,1.9,0,0,0,.36,0V109H90.35v-0.2a0.63,0.63,0,0,0,.49-0.16,0.91,0.91,0,0,0,.15-0.6V104.3a2.07,2.07,0,0,0,0-.37,0.44,0.44,0,0,0-.12-0.23,0.5,0.5,0,0,0-.24-0.12,1.8,1.8,0,0,0-.41,0v-0.2h3.08v0.2a1.38,1.38,0,0,0-.4,0,0.48,0.48,0,0,0-.23.14,0.47,0.47,0,0,0-.1.24,2.26,2.26,0,0,0,0,.34v1.58h2.17V104.3a2.12,2.12,0,0,0,0-.38,0.47,0.47,0,0,0-.11-0.24,0.44,0.44,0,0,0-.22-0.12,1.63,1.63,0,0,0-.37,0v-0.2H97v0.2a1.9,1.9,0,0,0-.43,0,0.44,0.44,0,0,0-.24.13,0.46,0.46,0,0,0-.1.24,2.46,2.46,0,0,0,0,.36v3.76A1.54,1.54,0,0,0,96.27,108.46Zm-10.54-4.54a0.45,0.45,0,0,0-.13-0.22,0.57,0.57,0,0,0-.26-0.13,1.76,1.76,0,0,0-.42,0v-0.2h4.88V105h-0.2a2.13,2.13,0,0,0-.18-0.5,1.3,1.3,0,0,0-.29-0.39,1.26,1.26,0,0,0-.43-0.25,1.86,1.86,0,0,0-.6-0.09H87.29v2.15h0.2a1.77,1.77,0,0,0,.42,0,0.77,0.77,0,0,0,.33-0.17,0.9,0.9,0,0,0,.23-0.35,1.86,1.86,0,0,0,.11-0.56H88.8v2.61H88.58a1.27,1.27,0,0,0-.33-0.82,1,1,0,0,0-.7-0.25H87.29V108a1.87,1.87,0,0,0,0,.32,0.39,0.39,0,0,0,.08.19,0.32,0.32,0,0,0,.17.1,1.18,1.18,0,0,0,.27,0h0.31a2.24,2.24,0,0,0,.62-0.08,1.59,1.59,0,0,0,.51-0.25,1.73,1.73,0,0,0,.4-0.43,3.23,3.23,0,0,0,.32-0.62h0.2L90,109h-5v-0.2a1.68,1.68,0,0,0,.44,0,0.52,0.52,0,0,0,.25-0.14,0.47,0.47,0,0,0,.11-0.24,1.93,1.93,0,0,0,0-.33v-3.81A1.41,1.41,0,0,0,85.73,103.92Zm6.52-14,0.2-.36,4.35,2.61-0.19.33Zm0.65-1.34,0.21-.35,6.64,4-0.21.35Zm0.52-4.87,0.24-.35,13.07,7.93-0.22.36Zm0.17,3.09,9.25,5.58-0.21.37-9.25-5.6Zm12.78,3-13.16-8,0.22-.36,13.15,8Zm-1-2.31L93.15,80.11l0.21-.36,12.29,7.45ZM97.57,105a2.78,2.78,0,0,1,.65-1,3,3,0,0,1,1-.62,3.47,3.47,0,0,1,1.27-.22,3.62,3.62,0,0,1,1.22.2,3,3,0,0,1,1,.59,2.8,2.8,0,0,1,.69.95,3,3,0,0,1,.26,1.27,3.09,3.09,0,0,1-.22,1.15,2.81,2.81,0,0,1-.62,1,3,3,0,0,1-1,.65,3.47,3.47,0,0,1-1.33.24,3.64,3.64,0,0,1-1.3-.22,2.86,2.86,0,0,1-1-.62,2.75,2.75,0,0,1-.63-0.95,3.16,3.16,0,0,1-.22-1.21A3.12,3.12,0,0,1,97.57,105ZM93.72,85.63l0.22-.36,11.61,7-0.22.36ZM65.1,53.77L86.87,67a0.63,0.63,0,1,1,1.06.65L97,73.19A2.07,2.07,0,0,1,100,75l5.66,3.45-0.27.4-5.46-3.31a2.07,2.07,0,0,1-.52.92L105.07,80l-0.19.32-5.8-3.52a2.05,2.05,0,0,1-1.63.29l7.47,4.54-0.2.32c-1.31-.78-2.62-1.56-3.93-2.35l-8.21-5-0.25,0a1.29,1.29,0,0,1-1.23-.93L68.23,59.81c-0.29-.18-0.56-0.4-0.84-0.6l0.19-.29L91,73.16a1.29,1.29,0,0,1,.59-0.93l-1.79-1.09a0.95,0.95,0,1,1-1.62-1c-10.45-6.35-22-13.37-22.16-13.51l0.16-.25L88.5,69.86a1,1,0,0,1,1.49.79,0.93,0.93,0,0,1,0,.11l2.13,1.29,0.22,0a1.29,1.29,0,0,1,1.22.9L96,74.39a2.07,2.07,0,0,1,.57-0.88l-9.32-5.65a0.64,0.64,0,0,1-.16-0.1L64.8,54.26Zm39.69,29.44-0.22.37L65.4,59.82l0.21-.37ZM64.55,60.53L105,85.08l-0.22.36L64.34,60.9ZM64,62l26,15.8-0.22.36L63.83,62.32Zm-0.35,1.51,21.4,13-0.2.37-21.41-13Zm18,43.34a3,3,0,0,1-.92.15,2.22,2.22,0,0,1-.6-0.07,1,1,0,0,1-.69-0.67,2.11,2.11,0,0,1-.09-0.65v-1.28a1.42,1.42,0,0,0,0-.39,0.45,0.45,0,0,0-.13-0.23,0.6,0.6,0,0,0-.23-0.1,1.9,1.9,0,0,0-.37,0v-0.2H81.5v0.2a0.67,0.67,0,0,0-.43.12,0.58,0.58,0,0,0-.15.47v1.48a1.78,1.78,0,0,0,0,.32,0.53,0.53,0,0,0,.09.23,0.39,0.39,0,0,0,.19.13,1,1,0,0,0,.33,0,1.83,1.83,0,0,0,.52-0.07,2.94,2.94,0,0,0,.53-0.22v-1.7q0-.19,0-0.31a0.67,0.67,0,0,0,0-.2,0.38,0.38,0,0,0-.17-0.21,0.74,0.74,0,0,0-.39-0.08v-0.2h2.92v0.2a1.63,1.63,0,0,0-.44,0,0.41,0.41,0,0,0-.22.13,0.44,0.44,0,0,0-.09.18,1.28,1.28,0,0,0,0,.35V108a2,2,0,0,0,0,.44,0.52,0.52,0,0,0,.19.29,0.73,0.73,0,0,0,.42.1h0.16V109H81.77v-0.2h0.34l0.21,0a0.41,0.41,0,0,0,.21-0.19,0.82,0.82,0,0,0,.08-0.39V106.4A5.83,5.83,0,0,1,81.67,106.8Zm-13.67.1a2.57,2.57,0,0,0,.81,1.31,2.2,2.2,0,0,0,1.43.44,2.71,2.71,0,0,0,1.32-.32,4.59,4.59,0,0,0,1.26-1.12v0.68a4.17,4.17,0,0,1-1.33,1,3.94,3.94,0,0,1-1.62.31,4.52,4.52,0,0,1-2.16-.5,3.5,3.5,0,0,1-1.46-1.45,4.15,4.15,0,0,1-.51-2,4.27,4.27,0,0,1,.57-2.13A4.13,4.13,0,0,1,69.88,101a4.53,4.53,0,0,1,1.69.36,2.54,2.54,0,0,0,.66.21,0.42,0.42,0,0,0,.31-0.14,0.75,0.75,0,0,0,.17-0.43h0.22v2.73H72.72a2.92,2.92,0,0,0-.92-1.64,2.3,2.3,0,0,0-1.53-.57,2.21,2.21,0,0,0-1.31.42,2.45,2.45,0,0,0-.87,1.11,5.16,5.16,0,0,0-.35,1.95A6.72,6.72,0,0,0,68,106.91ZM65.46,78.85l0.23-.35,9.65,5.85-0.21.36Zm4.31,4.34L70,82.85l3.94,2.35-0.2.35Zm3.69,25.63a1.68,1.68,0,0,0,.44,0,0.53,0.53,0,0,0,.25-0.14,0.47,0.47,0,0,0,.11-0.24,1.94,1.94,0,0,0,0-.33v-3.81a1.41,1.41,0,0,0,0-.33,0.44,0.44,0,0,0-.13-0.22,0.57,0.57,0,0,0-.26-0.13,1.76,1.76,0,0,0-.42,0v-0.2h4.88V105h-0.2a2.13,2.13,0,0,0-.18-0.5,1.3,1.3,0,0,0-.29-0.39,1.26,1.26,0,0,0-.43-0.25,1.86,1.86,0,0,0-.6-0.09H75.82v2.15H76a1.77,1.77,0,0,0,.42,0,0.77,0.77,0,0,0,.33-0.17,0.9,0.9,0,0,0,.23-0.35,1.86,1.86,0,0,0,.11-0.56h0.21v2.61H77.11a1.27,1.27,0,0,0-.33-0.82,1,1,0,0,0-.7-0.25H75.82V108a1.87,1.87,0,0,0,0,.32,0.39,0.39,0,0,0,.08.19,0.32,0.32,0,0,0,.17.1,1.18,1.18,0,0,0,.27,0h0.31a2.24,2.24,0,0,0,.62-0.08,1.59,1.59,0,0,0,.51-0.25,1.73,1.73,0,0,0,.4-0.43,3.23,3.23,0,0,0,.32-0.62h0.2L78.48,109h-5v-0.2ZM78,82.49l-0.22.36L62.34,73.51l0.23-.36Zm-14.5-10,0.22-.36L81.26,82.76,81,83.13Zm-0.8-7.89L83.17,77,83,77.37,62.45,64.94Zm0,1.72L82,78l-0.21.37L62.44,66.65Zm-0.24,1.58L81.23,79.29,81,79.65l-18.8-11.4Zm-0.55,1.39,19.82,12-0.23.36-19.81-12Zm0.31,5.37L76.29,83.2l-0.22.36L62,75ZM74,111.9a1,1,0,0,0-.67.3,4.73,4.73,0,0,0-.68,1.07l-2.48,4.8a3.76,3.76,0,0,1-1,1.39,1.88,1.88,0,0,1-1,.27,1.28,1.28,0,0,1-1-.34,1.08,1.08,0,0,1-.33-0.77,0.75,0.75,0,0,1,.23-0.57,0.79,0.79,0,0,1,.57-0.22,0.6,0.6,0,0,1,.47.16,1.12,1.12,0,0,1,.21.59,0.46,0.46,0,0,0,.42.5,1.08,1.08,0,0,0,.79-0.78l0.11-.23L66.77,113a2.72,2.72,0,0,0-.63-0.84,1.52,1.52,0,0,0-.78-0.23v-0.21h4v0.21H69.18q-0.69,0-.69.32a0.86,0.86,0,0,0,.13.36l2,3.58,1.51-2.93a2.28,2.28,0,0,0,.31-0.86,0.38,0.38,0,0,0-.18-0.32,2.13,2.13,0,0,0-.94-0.14v-0.21H74v0.21Zm7.2,2.15a2.08,2.08,0,0,0-.45,0,0.47,0.47,0,0,0-.25.13,0.45,0.45,0,0,0-.11.24,2.34,2.34,0,0,0,0,.36v3.76a1.47,1.47,0,0,0,0,.4,0.46,0.46,0,0,0,.14.23,0.51,0.51,0,0,0,.24.1,2,2,0,0,0,.35,0v0.2H78v-0.2a1.79,1.79,0,0,0,.41,0,0.45,0.45,0,0,0,.23-0.12,0.44,0.44,0,0,0,.1-0.23,2.36,2.36,0,0,0,0-.37v-1.76H76.46v1.76a1.62,1.62,0,0,0,0,.39,0.45,0.45,0,0,0,.13.23,0.5,0.5,0,0,0,.24.11,2.09,2.09,0,0,0,.38,0v0.2H74.19v-0.2a0.68,0.68,0,0,0,.51-0.16,0.88,0.88,0,0,0,.15-0.6v-3.76a2,2,0,0,0,0-.37,0.43,0.43,0,0,0-.12-0.23,0.54,0.54,0,0,0-.26-0.12,2,2,0,0,0-.43,0v-0.2h3.23v0.2a1.52,1.52,0,0,0-.42,0,0.51,0.51,0,0,0-.24.14,0.46,0.46,0,0,0-.11.24,2.16,2.16,0,0,0,0,.34v1.58h2.28v-1.58a2,2,0,0,0,0-.38,0.46,0.46,0,0,0-.11-0.24,0.47,0.47,0,0,0-.24-0.12,1.78,1.78,0,0,0-.39,0v-0.2h3.22v0.2Zm7.08,0H88.15a0.73,0.73,0,0,0-.57.15,1,1,0,0,0-.15.67v3.66a2.19,2.19,0,0,0,0,.43,0.48,0.48,0,0,0,.11.25,0.79,0.79,0,0,0,.57.14H88.2v0.2H84.92v-0.2h0.21a0.71,0.71,0,0,0,.55-0.15,0.52,0.52,0,0,0,.11-0.25,2.09,2.09,0,0,0,0-.41v-3l-2.17,3.09a1.68,1.68,0,0,0,0,.33,0.6,0.6,0,0,0,.09.21,0.37,0.37,0,0,0,.2.14,1.34,1.34,0,0,0,.39,0h0.22v0.2H81.29v-0.2h0.07a0.71,0.71,0,0,0,.55-0.15,0.52,0.52,0,0,0,.11-0.25,2.08,2.08,0,0,0,0-.41v-3.66a1.26,1.26,0,0,0-.11-0.67,0.74,0.74,0,0,0-.59-0.15H81.29v-0.2h3.29v0.2H84.36a1.29,1.29,0,0,0-.34,0,0.42,0.42,0,0,0-.21.13,0.55,0.55,0,0,0-.11.25,2,2,0,0,0,0,.4v3l2.17-3.07a2.36,2.36,0,0,0,0-.36,0.52,0.52,0,0,0-.09-0.22,0.7,0.7,0,0,0-.57-0.16H84.92v-0.2h3.34v0.2Zm5.55,4.57a1.5,1.5,0,0,1-.47.49,2.46,2.46,0,0,1-.74.32,3.71,3.71,0,0,1-1,.12h-3.3v-0.2a2,2,0,0,0,.37,0,0.54,0.54,0,0,0,.25-0.11A0.46,0.46,0,0,0,89.1,119a1.41,1.41,0,0,0,0-.39v-3.76a1.57,1.57,0,0,0,0-.4,0.46,0.46,0,0,0-.14-0.24,0.51,0.51,0,0,0-.26-0.11,2.54,2.54,0,0,0-.4,0v-0.2h3.21a4.19,4.19,0,0,1,.84.08,2.49,2.49,0,0,1,.7.25,1.38,1.38,0,0,1,.49.43,1.09,1.09,0,0,1,.18.63,1.11,1.11,0,0,1-.36.84,2,2,0,0,1-1,.47h0a2.38,2.38,0,0,1,1.21.47,1.19,1.19,0,0,1,.44,1A1.23,1.23,0,0,1,93.82,118.63Zm5.6,0.93H94.15v-0.2a1.84,1.84,0,0,0,.46,0,0.56,0.56,0,0,0,.26-0.14,0.46,0.46,0,0,0,.12-0.24,1.85,1.85,0,0,0,0-.33v-3.81a1.35,1.35,0,0,0,0-.33,0.44,0.44,0,0,0-.13-0.22,0.6,0.6,0,0,0-.27-0.13,2,2,0,0,0-.44,0v-0.2h5.12v1.63H99.06a2.07,2.07,0,0,0-.19-0.5,1.31,1.31,0,0,0-.31-0.39,1.34,1.34,0,0,0-.46-0.25,2,2,0,0,0-.63-0.09H96.62v2.15h0.21a2,2,0,0,0,.44,0,0.82,0.82,0,0,0,.35-0.17,0.9,0.9,0,0,0,.24-0.35,1.78,1.78,0,0,0,.11-0.56H98.2v2.61H98a1.24,1.24,0,0,0-.35-0.82,1.06,1.06,0,0,0-.73-0.25H96.62v1.66a1.78,1.78,0,0,0,0,.32,0.38,0.38,0,0,0,.09.19,0.34,0.34,0,0,0,.18.1,1.3,1.3,0,0,0,.29,0h0.33a2.45,2.45,0,0,0,.65-0.08,1.7,1.7,0,0,0,.53-0.25,1.76,1.76,0,0,0,.42-0.43,3.18,3.18,0,0,0,.33-0.62h0.21Zm5.71-3.5a1.39,1.39,0,0,1-.45.53,2.36,2.36,0,0,1-.77.35,4.29,4.29,0,0,1-1.12.13H102.1v1.52a1.52,1.52,0,0,0,0,.37,0.46,0.46,0,0,0,.14.23,0.56,0.56,0,0,0,.26.12,2.29,2.29,0,0,0,.41,0v0.2H99.69v-0.2a2,2,0,0,0,.39,0,0.49,0.49,0,0,0,.25-0.12,0.5,0.5,0,0,0,.13-0.24,1.49,1.49,0,0,0,0-.38v-3.83a0.65,0.65,0,0,0-.19-0.54,1.07,1.07,0,0,0-.64-0.15v-0.2h3.24a4.91,4.91,0,0,1,.89.08,2.47,2.47,0,0,1,.76.26,1.49,1.49,0,0,1,.53.48,1.28,1.28,0,0,1,.2.73A1.52,1.52,0,0,1,105.13,116.05Zm6.21-.24h-0.23a2.37,2.37,0,0,0-.24-0.64,2.25,2.25,0,0,0-.4-0.53,1.91,1.91,0,0,0-.53-0.37,1.44,1.44,0,0,0-.62-0.14,1.6,1.6,0,0,0-.79.19,1.63,1.63,0,0,0-.57.54,2.59,2.59,0,0,0-.34.82,4.45,4.45,0,0,0-.11,1,3.17,3.17,0,0,0,.45,1.83,1.52,1.52,0,0,0,1.33.65,2.43,2.43,0,0,0,.54-0.06,2.06,2.06,0,0,0,.49-0.18,2.55,2.55,0,0,0,.46-0.3,4.21,4.21,0,0,0,.44-0.43v0.52a3,3,0,0,1-1,.69,3.15,3.15,0,0,1-1.21.22,4.25,4.25,0,0,1-1.38-.21,3,3,0,0,1-1-.59A2.46,2.46,0,0,1,106,118a3,3,0,0,1-.22-1.17,3.11,3.11,0,0,1,.24-1.21,3,3,0,0,1,.66-1,3.07,3.07,0,0,1,1-.65,3.29,3.29,0,0,1,1.27-.24,3.74,3.74,0,0,1,.7.05l0.48,0.12,0.34,0.12a0.72,0.72,0,0,0,.27.05A0.45,0.45,0,0,0,111,114a0.44,0.44,0,0,0,.15-0.26h0.23v2.08Zm-0.63-7.47a2.46,2.46,0,0,1-.61-0.9,3.17,3.17,0,0,1-.21-1.17,3.24,3.24,0,0,1,.22-1.21,3,3,0,0,1,.63-1,2.92,2.92,0,0,1,1-.65,3,3,0,0,1,1.21-.24,3.4,3.4,0,0,1,.67.05l0.46,0.12,0.32,0.12a0.66,0.66,0,0,0,.26.06,0.41,0.41,0,0,0,.25-0.08,0.44,0.44,0,0,0,.15-0.26h0.22v2.08H115a2.45,2.45,0,0,0-.22-0.64,2.24,2.24,0,0,0-.38-0.53,1.82,1.82,0,0,0-.5-0.37,1.32,1.32,0,0,0-.59-0.14,1.47,1.47,0,0,0-.76.19,1.58,1.58,0,0,0-.54.54,2.66,2.66,0,0,0-.33.82,4.66,4.66,0,0,0-.11,1A3.29,3.29,0,0,0,112,108a1.43,1.43,0,0,0,1.27.65,2.21,2.21,0,0,0,.52-0.06,1.92,1.92,0,0,0,.47-0.18,2.46,2.46,0,0,0,.43-0.3,4.15,4.15,0,0,0,.42-0.43v0.52a2.71,2.71,0,0,1-2.1.91,3.87,3.87,0,0,1-1.32-.21A2.8,2.8,0,0,1,110.71,108.35Zm8,5.71h-0.12a0.73,0.73,0,0,0-.57.15,1,1,0,0,0-.15.67v3.66a2.19,2.19,0,0,0,0,.43,0.48,0.48,0,0,0,.11.25,0.79,0.79,0,0,0,.57.14h0.06v0.2h-3.28v-0.2h0.21a0.71,0.71,0,0,0,.55-0.15,0.52,0.52,0,0,0,.11-0.25,2.08,2.08,0,0,0,0-.41v-3l-2.17,3.09a1.68,1.68,0,0,0,0,.33,0.59,0.59,0,0,0,.09.21,0.37,0.37,0,0,0,.2.14,1.34,1.34,0,0,0,.39,0H115v0.2H111.7v-0.2h0.07a0.71,0.71,0,0,0,.55-0.15,0.52,0.52,0,0,0,.11-0.25,2.08,2.08,0,0,0,0-.41v-3.66a1.26,1.26,0,0,0-.11-0.67,0.74,0.74,0,0,0-.59-0.15H111.7v-0.2H115v0.2h-0.22a1.29,1.29,0,0,0-.34,0,0.42,0.42,0,0,0-.21.13,0.55,0.55,0,0,0-.11.25,2,2,0,0,0,0,.4v3l2.17-3.07a2.36,2.36,0,0,0,0-.36,0.52,0.52,0,0,0-.09-0.22,0.7,0.7,0,0,0-.57-0.16h-0.21v-0.2h3.34v0.2Zm5.51,1.52H124a2,2,0,0,0-.11-0.48,1.3,1.3,0,0,0-.24-0.41,1.16,1.16,0,0,0-.38-0.29,1.21,1.21,0,0,0-.53-0.11h-0.42v4.23a2,2,0,0,0,0,.39,0.49,0.49,0,0,0,.39.41,1.84,1.84,0,0,0,.44,0v0.2h-3.34v-0.2a2.13,2.13,0,0,0,.39,0,0.56,0.56,0,0,0,.27-0.12,0.53,0.53,0,0,0,.15-0.25,1.42,1.42,0,0,0,.05-0.41v-4.25h-0.49a1,1,0,0,0-.49.12,1.2,1.2,0,0,0-.36.31,1.44,1.44,0,0,0-.23.42,2,2,0,0,0-.1.45h-0.23v-1.72h5.41v1.72Zm5.33,4h-5.27v-0.2a1.84,1.84,0,0,0,.46,0,0.56,0.56,0,0,0,.27-0.14,0.46,0.46,0,0,0,.12-0.24,1.84,1.84,0,0,0,0-.33v-3.81a1.35,1.35,0,0,0,0-.33,0.44,0.44,0,0,0-.13-0.22,0.6,0.6,0,0,0-.27-0.13,2,2,0,0,0-.44,0v-0.2h5.12v1.63h-0.21A2.07,2.07,0,0,0,129,115a1.31,1.31,0,0,0-.31-0.39,1.34,1.34,0,0,0-.46-0.25,2,2,0,0,0-.63-0.09h-0.86v2.15h0.21a2,2,0,0,0,.44,0,0.82,0.82,0,0,0,.35-0.17,0.9,0.9,0,0,0,.24-0.35,1.78,1.78,0,0,0,.11-0.56h0.22v2.61h-0.22a1.24,1.24,0,0,0-.35-0.82,1.06,1.06,0,0,0-.73-0.25h-0.28v1.66a1.8,1.8,0,0,0,0,.32,0.38,0.38,0,0,0,.09.19,0.34,0.34,0,0,0,.18.1,1.3,1.3,0,0,0,.29,0h0.33a2.45,2.45,0,0,0,.65-0.08,1.7,1.7,0,0,0,.53-0.25,1.76,1.76,0,0,0,.42-0.43,3.17,3.17,0,0,0,.33-0.62h0.21Zm5.71-4H135a2,2,0,0,0-.11-0.48,1.3,1.3,0,0,0-.24-0.41,1.16,1.16,0,0,0-.38-0.29,1.21,1.21,0,0,0-.53-0.11h-0.42v4.23a2,2,0,0,0,0,.39,0.49,0.49,0,0,0,.39.41,1.84,1.84,0,0,0,.44,0v0.2h-3.34v-0.2a2.13,2.13,0,0,0,.39,0,0.56,0.56,0,0,0,.27-0.12,0.53,0.53,0,0,0,.15-0.25,1.42,1.42,0,0,0,.05-0.41v-4.25h-0.49a1,1,0,0,0-.49.12,1.2,1.2,0,0,0-.36.31,1.44,1.44,0,0,0-.23.42,2,2,0,0,0-.1.45h-0.23v-1.72h5.41v1.72Zm0-12h-0.12a0.67,0.67,0,0,0-.54.15,1,1,0,0,0-.14.67V108a2.3,2.3,0,0,0,0,.43,0.49,0.49,0,0,0,.11.25,0.73,0.73,0,0,0,.54.14h0.06V109H132v-0.2h0.2a0.66,0.66,0,0,0,.53-0.15,0.53,0.53,0,0,0,.11-0.25,2.18,2.18,0,0,0,0-.41v-3l-2.07,3.09a1.75,1.75,0,0,0,0,.33,0.61,0.61,0,0,0,.08.21,0.36,0.36,0,0,0,.19.14,1.22,1.22,0,0,0,.37,0h0.21V109h-3.14v-0.2h0.07a0.66,0.66,0,0,0,.53-0.15,0.53,0.53,0,0,0,.11-0.25,2.19,2.19,0,0,0,0-.41v-3.66a1.31,1.31,0,0,0-.11-0.67,0.68,0.68,0,0,0-.56-0.15h-0.07v-0.2h3.14v0.2h-0.21a1.18,1.18,0,0,0-.33,0,0.4,0.4,0,0,0-.2.13,0.56,0.56,0,0,0-.11.25,2.12,2.12,0,0,0,0,.4v3l2.07-3.07a2.46,2.46,0,0,0,0-.36,0.53,0.53,0,0,0-.09-0.22,0.64,0.64,0,0,0-.54-0.16H132v-0.2h3.19v0.2Zm-5.33-1.84a0.47,0.47,0,0,1,.49-0.56,0.79,0.79,0,0,1,.66.72,0.74,0.74,0,0,0,.77.58,1.06,1.06,0,0,0,.53-0.09,0.76,0.76,0,0,0,.27-0.46,0.83,0.83,0,0,1,.67-0.75,0.47,0.47,0,0,1,.5.56,0.93,0.93,0,0,1-.71.88,3.26,3.26,0,0,1-1.2.2,3.55,3.55,0,0,1-1.23-.2A1,1,0,0,1,129.91,101.69ZM93.15,47.35A3,3,0,0,1,93,48.41l14.79,9,0.39,0a3,3,0,0,1,2.84,2L137,75.1c0.33,0.2.63,0.45,0.94,0.68l-0.18.28L111.12,59.91a2.87,2.87,0,0,1,0,1.11l25.75,15.64-0.26.42L110.93,61.5a3,3,0,0,1-.49.81l25.44,15.47-0.27.42s-2.24-1.32-3.36-2l-22.2-13.5a3,3,0,0,1-1,.55l26.38,16-0.27.42L112.77,66.09a3,3,0,0,1,.67,1.65l19.8,12c0.21,0.13.41,0.27,0.62,0.41l-0.2.32L113.45,68.22a3,3,0,0,1-.28,1.08l19.61,11.9-0.21.36L113,69.66a3,3,0,0,1-.75.79l19.76,12-0.24.46-20-12.16a3,3,0,0,1-1.29.29h-0.1l19.34,11.74-0.22.37L72.33,48.47l0.22-.37L107.8,69.49a3,3,0,0,1-.38-1.36L73,47.22l0.26-.41,34.21,20.75a3,3,0,0,1,.35-1L93.21,57.67a3,3,0,0,1-3.83-2.33L74.12,46.07c-0.22-.14-0.43-0.3-0.64-0.44l0.19-.29,15.66,9.5s0,0,0-.06a3,3,0,0,1,.21-1.09L74,44.25l0.19-.3,15.47,9.39a3,3,0,0,1,.67-0.84L74.56,42.9c0.06-.11.28-0.44,0.28-0.44l16,9.71a3,3,0,0,1,1.28-.41l-2.3-1.4A3,3,0,0,1,87.6,49c-7.14-4.35-12.24-7.47-12.3-7.52l0.25-.4,11.67,7.09a3,3,0,0,1-.1-1.15l-11-6.69,0.25-.42,10.87,6.6a3,3,0,0,1,.41-0.88L77.15,39.29l0.21-.37s6.53,4,9.3,5.67l1.21,0.73a3,3,0,0,1,.93-0.7l-7.31-4.44,0.13-.26a6.6,6.6,0,0,1,.78.34l6.89,4.18a3,3,0,0,1,3.79,2.3l35.58,21.6,8.54,5.19c0.27,0.17.53,0.35,0.8,0.53l-0.19.32L93.14,47.26S93.15,47.32,93.15,47.35Zm45,25.5c-15.09-9.16-52.79-32-55.21-33.53L83.14,39l55.22,33.51Z"/><path class="cls-1" d="M95.29,55.49a3,3,0,0,1-.43,1l1.81,1.1a3.58,3.58,0,0,1,.21-1.12Z"/><path class="cls-1" d="M107,105.77a0.86,0.86,0,0,0,.32-0.23,0.94,0.94,0,0,0,.19-0.34,1.45,1.45,0,0,0,.06-0.42,1.5,1.5,0,0,0-.05-0.41,0.89,0.89,0,0,0-.17-0.32,0.76,0.76,0,0,0-.28-0.21,1,1,0,0,0-.4-0.08h-0.34v2.1h0.21A1.18,1.18,0,0,0,107,105.77Z"/><path class="cls-1" d="M103.29,114.58a0.92,0.92,0,0,0-.38-0.22,1.86,1.86,0,0,0-.58-0.08H102.1v2.35h0.3a1.14,1.14,0,0,0,.84-0.3,1.22,1.22,0,0,0,.31-0.91,1.8,1.8,0,0,0-.06-0.48A0.81,0.81,0,0,0,103.29,114.58Z"/><path class="cls-1" d="M90.94,116.81H90.75v1.75a0.7,0.7,0,0,0,.11.47,0.5,0.5,0,0,0,.38.12,0.93,0.93,0,0,0,.71-0.27,1.14,1.14,0,0,0,.25-0.81A1.15,1.15,0,0,0,90.94,116.81Z"/><path class="cls-1" d="M95.38,54.77c0,0.05,0,.11,0,0.16l1.71,1a3.59,3.59,0,0,1,.59-0.81l-2.52-1.53A3,3,0,0,1,95.38,54.77Z"/><path class="cls-1" d="M91.46,116.3a0.9,0.9,0,0,0,.34-0.23,0.93,0.93,0,0,0,.19-0.35,1.39,1.39,0,0,0,.06-0.42,1.43,1.43,0,0,0-.06-0.41,0.87,0.87,0,0,0-.17-0.32,0.79,0.79,0,0,0-.3-0.21,1.08,1.08,0,0,0-.42-0.08H90.75v2.1H91A1.29,1.29,0,0,0,91.46,116.3Z"/><path class="cls-1" d="M95.87,74.81L93.6,73.43a1.29,1.29,0,0,1-.55,1l3.3,2a2.06,2.06,0,0,1-.5-1.35A2.1,2.1,0,0,1,95.87,74.81Z"/><path class="cls-1" d="M90.71,50.31l2.64,1.61a3,3,0,0,1,1.07.65l3.65,2.22a3.58,3.58,0,0,1,1-.52l-7.24-4.4A3,3,0,0,1,90.71,50.31Z"/><path class="cls-1" d="M105.34,59.2a3,3,0,0,1,.49-0.8l-2-1.22a3.33,3.33,0,0,1,0,1.09Z"/><path class="cls-1" d="M103.21,59.69l1.94,1.18a2.91,2.91,0,0,1,0-1.15l-1.52-.92A3.58,3.58,0,0,1,103.21,59.69Z"/><path class="cls-1" d="M99.32,107.94a1.71,1.71,0,0,0,.45.61,1.06,1.06,0,0,0,.7.24,1.12,1.12,0,0,0,.62-0.18,1.47,1.47,0,0,0,.47-0.51,2.79,2.79,0,0,0,.29-0.8,5,5,0,0,0,.1-1.06,5.56,5.56,0,0,0-.11-1.17,2.85,2.85,0,0,0-.3-0.83,1.35,1.35,0,0,0-.47-0.49,1.14,1.14,0,0,0-.59-0.16,1.17,1.17,0,0,0-.53.13,1.31,1.31,0,0,0-.47.43,2.53,2.53,0,0,0-.34.79,4.76,4.76,0,0,0-.13,1.21,6.34,6.34,0,0,0,.07.94A3.17,3.17,0,0,0,99.32,107.94Z"/><path class="cls-1" d="M92.19,49.55l7.5,4.55a3.56,3.56,0,0,1,4,2.42L106.19,58a3,3,0,0,1,1-.54L92.78,48.78A3,3,0,0,1,92.19,49.55Z"/><path class="cls-1" d="M100.26,61.24l-0.41,0,8.18,5a3,3,0,0,1,.83-0.75L101.56,61A3.58,3.58,0,0,1,100.26,61.24Z"/><path class="cls-1" d="M105.37,61.6l-2.49-1.51a3.61,3.61,0,0,1-.89.7l7.29,4.42a3,3,0,0,1,1.78-.17l-2.75-1.67h-0.17A3,3,0,0,1,105.37,61.6Z"/></g></svg>