<svg id="Body" xmlns="http://www.w3.org/2000/svg" viewBox="0 0 208 160"><defs><style>.cls-1{fill:#cfcfcf;}.cls-2{fill:#e6e6e6;}.cls-3{fill:#f2f2f2;}.cls-4{fill:#fff;}.cls-5{fill:#ce202e;}</style></defs><title>Icon</title><g id="_8.svg" data-name="8.svg"><path class="cls-1" d="M19.8,115.73c6.19-3.56,12.3-7.29,18.62-10.6,2.64-1.38,3.38-3,3.37-5.88-0.07-20.92,0-41.85,0-62.78,0-.84,0-1.68.06-2.52,0.44-7.73,1.45-8.87,9.13-8.88Q103.53,25,156,25c2.66,0,4.48,1.21,5.1,3.79a23.29,23.29,0,0,1,.58,5.29q0.06,32.65,0,65.3a4.93,4.93,0,0,0,2.58,4.81c6.18,3.93,12.23,8.08,18.32,12.15l0.08-.06a27.65,27.65,0,0,0-4.57-.76q-65.91-.07-131.81,0C37.45,115.49,28.62,115.64,19.8,115.73ZM47.7,97.14c1.27,0.08,2.2.18,3.13,0.18,33.75,0,67.5,0,101.25.06,2.78,0,3.27-1,3.26-3.48-0.08-19.35,0-38.82-.06-58.16,0-1.12-.14-2.74-0.24-3.74H151c-33.43,0-66.87.11-100.3,0-2.44,0-3.23.71-3.22,3.26,0.11,19.66.06,39.35,0.07,59C47.55,95.12,47.63,96,47.7,97.14ZM65.07,107c-2.8-2-8.16-2-9.46,0h9.46Zm90.26,0h0Zm-46.49,5h9.77C115.91,111,110.9,111,108.85,112Zm-73.69,0h10C42.77,111,37.79,111,35.15,112ZM48,112h0Zm85.63,0h9.14C140.87,111,135.93,111,133.63,112Zm21.69,0c-2.68-1-8.09-1-9.65,0h9.65Zm-83.5,0h10C79.64,111,74.58,111,71.82,112Zm48.95-5c-2.44-2-7.8-2-9.32,0h9.32Zm-11.68,0c-2.58-2-7.37-2-8.92,0h8.92Zm-42.3-2c0,2,0,2,0,2h8.86s0,0,0-2H66.79Zm39.37,7c-2.66-1-8.09-1-9.15,0h9.15Zm14.92,0h9.54C128.32,111,123.24,111,121.07,112ZM69,112c-2.77-1-7.53-1-8.72,0H69Zm98.49,0c-2.83-1-7.78-1-9.7,0h9.7Zm-123-7c0,2,0,2,0,2h8.78s0,0,0-2H44.48Zm90.88,1c0,0.36,0,1,0,1h8.71s0-.57,0-0.88C141.21,105.26,138.29,105.61,135.36,106Zm-37.58,1v-2h-9v2h9Zm25.52,0h9.57C130.71,105,125.64,105,123.3,107ZM78,105c0,2,0,2,0,2h8.75s0,0,0-2H78Zm6.79,7h0Zm79.84-2h0Zm-55.18-2c0,2,0,2,0,2h8.77s0,0,0-2h-8.78Zm-2.79,2c-2.61-2-7.51-2-9.2,0h9.2Zm-32-2c0,2,0,2,0,2h8.81s0,0,0-2H74.64ZM63,110h0Zm-23-2a8.27,8.27,0,0,1-.07,2h8.78a14.84,14.84,0,0,0,0-2H40Zm46.24,0c0,2,0,2,0,2H95s0,0,0-2H86.19Zm-34.78,0c0,2,0,2,0,2H60.2s0,0,0-2H51.42Zm92.84,0c0,2,0,2,0,2H153s0,0,0-2h-8.74Zm-2.88,2h0Zm-11.76,0h0Z"/><path class="cls-2" d="M182.58,116.34c0.49,0.67,1.34,1.21,1.4,1.92,0.18,2.18.07,3.74,0.07,6.74h-168c1-3-2-6.27,2.07-8.5,1,0.36,2.08,1.08,3.12,1.08q78.92,0.07,157.84.06a14.37,14.37,0,0,0,2.82-.07c0.32-.07.5-0.84,0.75-1.3Z"/><path class="cls-3" d="M182.65,116.28c-0.24.46-.42,1.24-0.75,1.31a14.37,14.37,0,0,1-2.82.08q-78.92,0-157.84,0a10.61,10.61,0,0,1-3.12-1l1.67-.86c8.82-.08,17.65-0.24,26.47-0.24q65.91,0,131.81,0A27.65,27.65,0,0,1,182.65,116.28Z"/><path class="cls-3" d="M47.7,97.14c-0.06-1.16-.15-2-0.15-2.81,0-19.66,0-39.32-.07-59,0-2.55.78-3.33,3.22-3.32,33.43,0.08,66.87,0,100.3,0H155c0.09,1,.23,2.62.24,3.74,0,19.35,0,38.76.06,58.1,0,2.47-.48,3.52-3.26,3.51-33.75-.09-67.5,0-101.25,0C49.9,97.3,49,97.22,47.7,97.14ZM91.81,36.83c-1,6.12-4.56,7.25-9.69,6.41-4.38-.72-2.24-5.17-5-7.15L70.45,38.3c0.44,3.6,3.22,6.33-1,10.12-4.47,4-6.89,0-10.31-.46l-3.29,6.55c2.61,2.33,6.8,2.1,6.5,7.82-0.31,6-4.72,5-7.65,7l2.37,7.19a48.42,48.42,0,0,1,5.53-1.7,3.34,3.34,0,0,1,2.6.72c1.61,1.62,3,3.49,4.5,5.34l-3.2,6.66,7.22,3.72c1-6.14,4.64-7.54,9.94-6.42,4,0.85,2.12,5.07,4.74,7.15L95,89.91c-0.08-3.64-3.45-6.42,1.07-10.21s6.85-.2,10.28.56l3.36-6.63c-2.95-2.37-6.85-2.34-6.46-8.05,0.41-5.94,5.11-4.65,7.6-7l-2.36-6.76c-3.61.2-6.42,3.41-10.13-1.15-3.57-4.39-.2-6.71.5-10.2Zm53.75,30.34c-2.38.07-4.27,2-6.66-.68s-0.56-4.46.18-6.86l-4.15-2.11c-1.82,1.46-1.45,4.09-4.61,4.13-3.72,0-4.49-2.14-5.24-5.05L120.5,58c-0.2,2.39,1.91,4.34-.79,6.72s-4.49.51-6.92-.21L110.61,69c2.13,1.36,4.36,1.61,4.24,5.15-0.13,3.91-3.25,3.17-4.94,4.77l1.63,4.75c2.79-1.69,4.73-1.69,6.94.94s-0.52,4-.52,6.24l3.39,1.75c2-1.54,3.22-3.27,4.81-3.65,3.34-.79,5.21,1.19,5.48,4.91l4-1.39c0.36-2.51.13-4.53,0.95-6,1.82-3.15,4.54-2.49,7.26-.39l2.37-4.61C144.16,80,141.8,79.7,142,76.19c0.19-3.68,3.07-3.11,4.9-4.67Z"/><path class="cls-4" d="M65.07,107H55.62C56.91,105,62.27,105,65.07,107Z"/><path class="cls-4" d="M108.85,112c2.06-1,7.06-1,9.77,0h-9.77Z"/><path class="cls-4" d="M35.15,112c2.64-1,7.61-1,10,0h-10Z"/><path class="cls-4" d="M133.63,112c2.3-1,7.24-1,9.14,0h-9.14Z"/><path class="cls-4" d="M155.32,112h-9.65C147.22,111,152.64,111,155.32,112Z"/><path class="cls-4" d="M71.82,112c2.76-1,7.83-1,10,0h-10Z"/><path class="cls-4" d="M120.76,107h-9.32C113,105,118.33,105,120.76,107Z"/><path class="cls-4" d="M109.09,107h-8.92C101.72,105,106.51,105,109.09,107Z"/><path class="cls-4" d="M66.79,105h8.88c0,2,0,2,0,2H66.8S66.79,107,66.79,105Z"/><path class="cls-4" d="M106.15,112H97C98.07,111,103.5,111,106.15,112Z"/><path class="cls-4" d="M121.07,112c2.17-1,7.25-1,9.54,0h-9.54Z"/><path class="cls-4" d="M69,112H60.29C61.48,111,66.24,111,69,112Z"/><path class="cls-4" d="M167.5,112h-9.7C159.72,111,164.67,111,167.5,112Z"/><path class="cls-4" d="M44.48,105h8.77c0,2,0,2,0,2H44.48S44.48,107,44.48,105Z"/><path class="cls-4" d="M135.36,106c2.93-.4,5.85-0.75,8.74.12,0,0.31,0,.88,0,0.88h-8.71S135.36,106.37,135.36,106Z"/><path class="cls-4" d="M97.78,107h-9v-2h9v2Z"/><path class="cls-4" d="M123.3,107c2.34-2,7.41-2,9.57,0H123.3Z"/><path class="cls-4" d="M78,105h8.74c0,2,0,2,0,2H78S78,107,78,105Z"/><path class="cls-4" d="M109.44,108h8.78c0,2,0,2,0,2h-8.77S109.45,110,109.44,108Z"/><path class="cls-4" d="M106.65,110h-9.2C99.14,108,104,108,106.65,110Z"/><path class="cls-4" d="M74.64,108H83.4c0,2,0,2,0,2H74.62S74.63,110,74.64,108Z"/><path class="cls-4" d="M40,108H48.7a14.84,14.84,0,0,1,0,2H39.89A8.27,8.27,0,0,0,40,108Z"/><path class="cls-4" d="M86.19,108H95c0,2,0,2,0,2H86.21S86.2,110,86.19,108Z"/><path class="cls-4" d="M51.42,108h8.77c0,2,0,2,0,2H51.43S51.42,110,51.42,108Z"/><path class="cls-4" d="M144.25,108H153c0,2,0,2,0,2h-8.76S144.25,110,144.25,108Z"/><path class="cls-5" d="M91.81,36.83l7.06,3.66c-0.7,3.48-4.08,5.8-.5,10.2,3.71,4.56,6.52,1.35,10.13,1.15l2.36,6.76c-2.49,2.33-7.19,1-7.6,7-0.39,5.71,3.51,5.68,6.46,8.05l-3.36,6.63c-3.43-.76-5.76-4.35-10.28-0.56S94.93,86.27,95,89.91L88.39,92c-2.62-2.08-.69-6.3-4.74-7.15-5.3-1.12-8.92.29-9.94,6.42l-7.22-3.72,3.2-6.66c-1.53-1.85-2.89-3.71-4.5-5.34a3.34,3.34,0,0,0-2.6-.72,48.42,48.42,0,0,0-5.53,1.7l-2.37-7.19c2.93-2,7.34-1.07,7.65-7,0.3-5.72-3.89-5.49-6.5-7.82L59.12,48c3.41,0.47,5.84,4.45,10.31.46,4.24-3.79,1.46-6.52,1-10.12L77.1,36.1c2.78,2,.64,6.43,5,7.15C87.25,44.08,90.82,43,91.81,36.83ZM82.88,55.39A8.69,8.69,0,1,0,91.48,64,8.69,8.69,0,0,0,82.88,55.39Z"/><path class="cls-5" d="M145.56,67.17l1.33,4.35c-1.84,1.56-4.71,1-4.9,4.67-0.18,3.51,2.18,3.8,4.25,5.33l-2.37,4.61c-2.72-2.1-5.44-2.76-7.26.39-0.82,1.42-.59,3.44-0.95,6l-4,1.39c-0.27-3.73-2.14-5.71-5.48-4.91-1.59.38-2.85,2.11-4.81,3.65L118,90.85c0-2.26,2.74-3.59.52-6.24s-4.15-2.64-6.94-.94l-1.63-4.75c1.69-1.61,4.82-.86,4.94-4.77,0.11-3.54-2.11-3.79-4.24-5.15l2.19-4.46c2.43,0.72,4.14,2.67,6.92.21s0.58-4.33.79-6.72l4.58-1.43c0.75,2.91,1.52,5.1,5.24,5.05,3.16,0,2.79-2.67,4.61-4.13l4.15,2.11c-0.74,2.4-2.62,4.09-.18,6.86S143.18,67.24,145.56,67.17Zm-11.41,7.9a5.59,5.59,0,0,0-5.93-5.58,5.71,5.71,0,0,0-5.56,5.69A5.83,5.83,0,0,0,128.48,81,5.74,5.74,0,0,0,134.15,75.07Z"/><path class="cls-3" d="M82.88,55.39a8.69,8.69,0,1,1-8.81,8.4A8.75,8.75,0,0,1,82.88,55.39Z"/><path class="cls-3" d="M134.15,75.07A5.74,5.74,0,0,1,128.48,81a5.83,5.83,0,0,1-5.81-5.81,5.71,5.71,0,0,1,5.56-5.69A5.59,5.59,0,0,1,134.15,75.07Z"/><rect class="cls-5" x="80.06" y="120.06" width="38.66" height="3.03"/></g></svg>