<svg id="Body" xmlns="http://www.w3.org/2000/svg" viewBox="0 0 210 140"><defs><style>.cls-1{fill:#cfcfcf;}.cls-1,.cls-2,.cls-4,.cls-5{fill-rule:evenodd;}.cls-2{fill:#ce202e;}.cls-3,.cls-4{fill:#fff;}.cls-5{fill:#fafcfc;}</style></defs><title>Icon</title><g id="_2.svg" data-name="2.svg"><path class="cls-1" d="M105.65,29.08v25.5h0.16l18.95,44.27c1.06,2.48-2.21,4.9-4.9,4.9H78.2c-2.7,0-6.08-2.48-4.9-4.9L94.87,54.58V29.08H94.74A1.93,1.93,0,0,1,93,27h0a1.93,1.93,0,0,1,1.78-2h11a1.93,1.93,0,0,1,1.78,2h0a1.93,1.93,0,0,1-1.78,2h-0.08Z"/><path class="cls-2" d="M111.57,68l13.18,30.8c1.06,2.48-2.21,4.9-4.9,4.9H78.2c-2.7,0-6.08-2.48-4.9-4.9l15-30.8h23.27Z"/><path class="cls-1" d="M125.58,39.92V99.8a5.22,5.22,0,0,1-5.2,5.2h0a5.22,5.22,0,0,1-5.2-5.2V39.92a1.89,1.89,0,0,1-1.36-1.81h0a1.89,1.89,0,0,1,1.89-1.88h9.35a1.89,1.89,0,0,1,1.89,1.88h0A1.89,1.89,0,0,1,125.58,39.92Z"/><path class="cls-2" d="M125.58,49.52V99.8a5.22,5.22,0,0,1-5.2,5.2h0a5.22,5.22,0,0,1-5.2-5.2V49.52h10.41Z"/><circle class="cls-3" cx="122.69" cy="57.06" r="1.09"/><ellipse class="cls-3" cx="122.37" cy="56.58" rx="0.48" ry="0.37" transform="translate(-12.12 65.97) rotate(-28.81)"/><path class="cls-4" d="M123.15,57.63a0.39,0.39,0,0,1,.31-0.13c0.07,0,.05.12,0,0.22a0.38,0.38,0,0,1-.31.13C123,57.82,123.06,57.73,123.15,57.63Z"/><circle class="cls-3" cx="122.84" cy="67.58" r="0.84"/><ellipse class="cls-3" cx="122.6" cy="67.2" rx="0.37" ry="0.28" transform="translate(-17.21 67.22) rotate(-28.74)"/><path class="cls-4" d="M123.2,68a0.31,0.31,0,0,1,.24-0.1c0.06,0,0,.1,0,0.17a0.29,0.29,0,0,1-.24.1C123.11,68.17,123.13,68.09,123.2,68Z"/><circle class="cls-3" cx="120.58" cy="75.99" r="0.84"/><ellipse class="cls-3" cx="120.34" cy="75.62" rx="0.38" ry="0.28" transform="translate(-21.54 67.17) rotate(-28.74)"/><path class="cls-4" d="M120.94,76.43a0.3,0.3,0,0,1,.24-0.1c0.06,0,0,.1,0,0.17a0.29,0.29,0,0,1-.24.1C120.85,76.58,120.86,76.51,120.94,76.43Z"/><circle class="cls-3" cx="102" cy="71.97" r="2.29"/><circle class="cls-3" cx="108.26" cy="92.78" r="0.95"/><ellipse class="cls-3" cx="107.99" cy="92.35" rx="0.42" ry="0.32" transform="translate(-31.21 63.82) rotate(-28.95)"/><path class="cls-4" d="M108.67,93.27a0.32,0.32,0,0,1,.27-0.11c0.06,0,.05.11,0,0.19a0.33,0.33,0,0,1-.27.12C108.56,93.44,108.58,93.36,108.67,93.27Z"/><circle class="cls-3" cx="96.88" cy="83.83" r="1.6"/><path class="cls-4" d="M116.41,49.52V95.65a1.26,1.26,0,1,0,2.52,0V49.52h-2.52Z"/><path class="cls-5" d="M89.85,68L76.06,97.46c-1.45,3.14,1.12,4.7,4.4,4.7,3.46,0-3.6-1.46-2.15-4.6,0,0,13.67-29.14,13.76-29.51H89.85Z"/><polygon class="cls-3" points="90.49 67.04 96.02 54.84 96.02 30.59 97.98 30.59 97.98 54.84 92.54 67.02 90.49 67.04"/></g></svg>