<svg id="Body" xmlns="http://www.w3.org/2000/svg" viewBox="0 0 200 150"><defs><style>.cls-1{fill:#ce202e;}.cls-2{fill:#e6e6e6;}.cls-3{fill:#ccc;}.cls-4{fill:#666;}.cls-5{fill:#999;}</style></defs><title>Icon</title><g id="_7.svg" data-name="7.svg"><g id="НјІг_1" data-name="НјІг 1"><path class="cls-1" d="M152.32,75.85c-0.16,1.21-.34,2.42-0.48,3.63a50.63,50.63,0,0,1-7,20.19,52.33,52.33,0,0,1-48.68,25.19,50.58,50.58,0,0,1-18.77-5A52.43,52.43,0,0,1,47.78,69.37,50.87,50.87,0,0,1,52,52a52.87,52.87,0,0,1,7.22-12A51.54,51.54,0,0,1,70.54,29.53c1.77-1.2,3.66-2.22,5.51-3.28a0.87,0.87,0,0,1,.79,0c1.66,1.6,3.27,3.24,5,4.93C69.27,37.09,60.7,46.46,56.62,59.67a43.74,43.74,0,0,0,.6,28,45.31,45.31,0,0,0,85.84-.88,44.85,44.85,0,0,0-11.79-46.68l-5.32,8-6.81-20.29L141.25,25l-6,9.07c0.94,1,1.91,1.9,2.84,2.89a51.77,51.77,0,0,1,10,15.27,52.44,52.44,0,0,1,4.06,16.55,5.3,5.3,0,0,0,.16.72v6.35Z"/><path class="cls-2" d="M98.07,90.8l3.22,2.52,2.32-3.09c0.53-.71,1.08-1.42,1.57-2.16a1.11,1.11,0,0,1,1.3-.47A6.93,6.93,0,0,1,111,91.23a27.12,27.12,0,0,1,3.15,10.22c0.25,1.7.4,3.42,0.61,5.21H81.35c0.26-2.12.46-4.16,0.78-6.19a24.71,24.71,0,0,1,3.08-9.38,6.79,6.79,0,0,1,4.46-3.48,1.17,1.17,0,0,1,1.34.55c1.12,1.59,2.32,3.12,3.46,4.7,0.34,0.47.57,0.37,0.93,0.06C96.26,92.23,97.14,91.55,98.07,90.8Z"/><path class="cls-3" d="M92.13,88.65a6.77,6.77,0,0,1-.69-0.9A1.49,1.49,0,0,0,89.66,87a6.32,6.32,0,0,0-4.22,2.75,30.89,30.89,0,0,0-2,3.63,1,1,0,0,1-1,.71c-5.29,0-10.58,0-15.87,0-0.16,0-.33,0-0.63-0.06a20,20,0,0,1,.18-2.63c0.49-2.48,1-5,1.65-7.4a7.9,7.9,0,0,1,3.56-5,7.19,7.19,0,0,1,1.08-.42,1,1,0,0,1,1.35.46c0.83,1.18,1.71,2.33,2.57,3.49,0.15,0.2.31,0.39,0.5,0.62a21.53,21.53,0,0,0,1.85-1.49,1,1,0,0,1,1.55,0c0.55,0.5,1.16.94,1.82,1.48l2.2-2.94c0.33-.45.63-0.93,1-1.33a4.64,4.64,0,0,1,1-.59,2.19,2.19,0,0,0,1.06,2.33,1.16,1.16,0,0,1,.28.59,14,14,0,0,0,4,5.87,5.73,5.73,0,0,1,.86,1.3Z"/><path class="cls-3" d="M103.68,88.61a3.21,3.21,0,0,1,.56-0.94,15.05,15.05,0,0,0,4.62-6.42,8.74,8.74,0,0,1,.6-0.84c0.31-.56.57-1.15,0.93-1.88,1.39,1.38,2.33,3.15,3.69,4.69l2.6-2,2.61,2c0.93-1.26,1.85-2.47,2.74-3.7s1.35-1.25,2.59-.57a7.12,7.12,0,0,1,2.94,3.21,26.69,26.69,0,0,1,2.35,8.74c0.13,1,.21,2,0.32,3.13-0.36,0-.63.06-0.9,0.07-5.07,0-10.14,0-15.2.06a1.3,1.3,0,0,1-1.47-1c-0.92-2.3-2.15-4.42-4.47-5.62a7,7,0,0,0-1.81-.59,1.38,1.38,0,0,0-1.68.74,7.47,7.47,0,0,1-.77,1Z"/><path class="cls-4" d="M86.6,77.78c0.23-.47.48-0.92,0.67-1.41a3.29,3.29,0,0,0,.22-1.09A9.32,9.32,0,0,1,89,69.89a6.42,6.42,0,0,1,5.62-3,1,1,0,0,0,.63-0.1,4.61,4.61,0,0,1,3.17-1.05A12.94,12.94,0,0,1,105,67a6.19,6.19,0,0,1,3.49,4.8c0.23,1.23.29,2.48,0.44,3.73a1.41,1.41,0,0,0,.19.79c1.06,1,.31,2.09.33,3.14a0.29,0.29,0,0,1-.11.22c-1.25.79-1.25,2.28-1.91,3.4a11.42,11.42,0,0,1-6.3,5.55c-4,1.3-7.43.06-10.24-3a13.23,13.23,0,0,1-2.79-4.89A3.44,3.44,0,0,0,87.42,80a2.64,2.64,0,0,1-.51-0.8,8.13,8.13,0,0,1-.15-1.33ZM98.18,87.91a15.64,15.64,0,0,0,2.8-.73,10.86,10.86,0,0,0,6.42-8.82c0.29-2,.36-1.71-1.55-2-2.88-.48-5.83-0.85-8.42-2.26a2.71,2.71,0,0,0-3.17.05,31.8,31.8,0,0,1-4.65,2,1,1,0,0,0-.69,1.05,11.21,11.21,0,0,0,2.5,6.94A9,9,0,0,0,98.18,87.91Z"/><path class="cls-4" d="M79.48,79.85c-3.14,0-5.42-1.77-7.09-4.46a21.88,21.88,0,0,1-1-2.19,2.16,2.16,0,0,0-.48-0.74,2.92,2.92,0,0,1-.47-2.82,2.81,2.81,0,0,0,.41-1.25c0.12-2.56.83-4.8,3.28-6a10.09,10.09,0,0,1,2.39-.57,1.46,1.46,0,0,0,.56-0.08,4.65,4.65,0,0,1,3.46-.89A9.28,9.28,0,0,1,86,62.45,6.12,6.12,0,0,1,88.1,67c0.09,0.83.17,1.66,0.2,2.49a2.9,2.9,0,0,1-.24.85A27.19,27.19,0,0,0,87,74a4.87,4.87,0,0,1-.9,2.27A8.49,8.49,0,0,1,79.48,79.85Zm-1.83-13a13.91,13.91,0,0,1-1.33.79c-1.19.54-2.38,1.07-3.6,1.55A1,1,0,0,0,72,70.41a9.72,9.72,0,0,0,2.41,5.83A6.31,6.31,0,0,0,82.23,78,8.18,8.18,0,0,0,86,74.34a7.72,7.72,0,0,0,1.1-4.68C83.82,69,80.49,68.77,77.65,66.88Z"/><path class="cls-4" d="M116.83,79.87a8.21,8.21,0,0,1-7.16-4.51,9.71,9.71,0,0,1-.47-2.6,15.86,15.86,0,0,0-.8-2.87c-1.53-3.55,1.52-8.19,5.37-8.11a0.91,0.91,0,0,0,.56-0.09,4.43,4.43,0,0,1,3.62-.85,21.29,21.29,0,0,1,4.27,1,4.2,4.2,0,0,1,2.63,3c0.28,1,.35,2.08.55,3.11a9.75,9.75,0,0,0,.52,1.78,3.24,3.24,0,0,1-.53,2.67,3.34,3.34,0,0,0-.55,1.08,9.49,9.49,0,0,1-6.16,6A13,13,0,0,1,116.83,79.87Zm-7.61-10.33a9.22,9.22,0,0,0,2,6.16c2.57,3.33,6.62,4.19,10,1.15a9.58,9.58,0,0,0,3.14-6.17c0.13-1,.07-1-0.94-1.19-2.95-.52-6-0.88-8.47-2.56-0.94.48-1.83,1-2.76,1.41S110.23,69.13,109.22,69.54Z"/><path class="cls-4" d="M84.48,41.85a32.06,32.06,0,0,1,4,1.19C90.16,43.74,90.73,45.28,91,47a7.78,7.78,0,0,0,.58,3,1.65,1.65,0,0,1-.43,2,1.55,1.55,0,0,0-.36.62,8.29,8.29,0,0,1-4.61,5.12,6.42,6.42,0,0,1-7.86-2.5A21.41,21.41,0,0,1,76.9,52.5,2.18,2.18,0,0,0,76.63,52a2,2,0,0,1-.34-2.64,2.34,2.34,0,0,0,.15-1c0.13-2.17.73-4.17,2.9-5.06a35.15,35.15,0,0,1,4.83-1.26,1.06,1.06,0,0,1,.25,0ZM83.64,57.19l0.09,0.23a16.9,16.9,0,0,0,3-1.23,7.61,7.61,0,0,0,3.43-5.83,0.7,0.7,0,0,0-.73-1,18.56,18.56,0,0,1-7.07-2.06,0.67,0.67,0,0,0-.53,0c-1.31.61-2.59,1.27-3.91,1.84a0.72,0.72,0,0,0-.55.87,19.91,19.91,0,0,0,.52,2.44A6.65,6.65,0,0,0,83.64,57.19Z"/><path class="cls-4" d="M111.28,42c2.22,0.28,4.41.39,5.7,2.34A11.58,11.58,0,0,1,118,47.52c0.23,0.81.37,1.64,0.61,2.45a1.65,1.65,0,0,1-.39,1.87,3,3,0,0,0-.64,1c-1.19,2.82-3.07,4.85-6.25,5.23a6.32,6.32,0,0,1-6-2.82,20.4,20.4,0,0,1-1.5-2.77,2.55,2.55,0,0,0-.39-0.61,2,2,0,0,1-.21-2.48,1.82,1.82,0,0,0,.19-0.93c0-2.27.8-4.13,2.93-5.23a0.79,0.79,0,0,1,.14-0.08Zm-6.82,8.22a7.52,7.52,0,0,0,2.36,5.27A5.16,5.16,0,0,0,112.1,57a7.64,7.64,0,0,0,5.13-6.77,0.64,0.64,0,0,0-.66-0.81,19.41,19.41,0,0,1-7.18-2.07,0.67,0.67,0,0,0-.51.05c-1.23.57-2.44,1.22-3.7,1.73A0.86,0.86,0,0,0,104.46,50.21Z"/><path class="cls-5" d="M95.6,49.5l1.6-1.21,1.6,1.19c0.61-.81,1.15-1.58,1.75-2.3a1.14,1.14,0,0,1,.82-0.46,3,3,0,0,1,1.45,1,1.91,1.91,0,0,1-.16,1.49,3.12,3.12,0,0,0,.32,3.11,26.5,26.5,0,0,1,1.5,2.67c0.19,0.33.41,0.65,0.68,1.06H89.49c0.8-1.36,1.63-2.66,2.35-4a2.7,2.7,0,0,0,.08-2.77,1.51,1.51,0,0,1,.89-2.46,1.14,1.14,0,0,1,1,.3C94.4,47.82,94.95,48.63,95.6,49.5Z"/><path class="cls-5" d="M119.94,60.21a20.4,20.4,0,0,0-4.63.35,35.82,35.82,0,0,0-3.72,1,6.65,6.65,0,0,0-4,5.61c0,0.27-.05.55-0.1,1-2.08-2.17-4.76-2.64-7.52-3.11,0.59-2.47,1.11-4.92,3-6.8a4.49,4.49,0,0,1,.78-0.62c1.28-.82,1.81-0.7,2.68.52C107,59.08,107.75,60,108.5,61l2.24-1.72,2.2,1.7c0.8-1.07,1.58-2.1,2.35-3.15a1.29,1.29,0,0,1,2-.52A5.75,5.75,0,0,1,119.94,60.21Z"/><path class="cls-5" d="M82.37,60.37l1.32-1.09L85.93,61c0.73-1,1.48-1.88,2.1-2.85,0.84-1.32,1.38-1.36,2.82-.45a6.33,6.33,0,0,1,2.51,3.45c0.56,1.64,1,3.33,1.47,5.08a8,8,0,0,0-6,2.74,11,11,0,0,0-1.37-5.75C86.31,61.4,84.41,60.92,82.37,60.37Z"/><path class="cls-4" d="M97.24,47.47a5.42,5.42,0,0,1-4.56-3.11,14.64,14.64,0,0,1-.89-1.64,2.27,2.27,0,0,1-.14-1.13c0.1-.75.29-1.49,0.47-2.23a3.43,3.43,0,0,1,3.34-2.94,5.32,5.32,0,0,0,.84-0.31,5.81,5.81,0,0,1,4.66.62c1.15,0.63,1.28,1.87,1.52,3a9.33,9.33,0,0,1,.33,1.68,4.7,4.7,0,0,1-.32,1.53,9.36,9.36,0,0,1-.64,1.35A5.36,5.36,0,0,1,97.24,47.47Zm4.54-6.19a0.87,0.87,0,0,0-.21-0.09,14.86,14.86,0,0,1-5.32-1.53,0.48,0.48,0,0,0-.38,0c-1,.45-1.9.9-2.83,1.38a0.79,0.79,0,0,0-.36.54,5.32,5.32,0,0,0,3.66,5C99.21,47.24,102.13,44.38,101.78,41.28Z"/><path class="cls-5" d="M73.88,61.62c0.69-1.74,1.42-3.32,3.1-4.18,1.15-.59,1.46-0.49,2.22.51l1.53,2Z"/></g></g></svg>