<svg id="Body" xmlns="http://www.w3.org/2000/svg" viewBox="0 0 200 150"><defs><style>.cls-1{fill:#b1b1b1;}.cls-2{fill:#cfcfcf;}.cls-3{fill:#ce202e;}</style></defs><title>Icon</title><g id="_5.svg" data-name="5.svg"><path class="cls-1" d="M98.4,103.84a8.52,8.52,0,0,1-5.67-5.38,1.41,1.41,0,0,0-1.1-.53c-4.41,0-8.81,0-13.22,0H50.76c-2.4,0-3.15-.74-3.15-3.14q0-30.23,0-60.46c0-2.34.8-3.13,3.18-3.13h81c2.35,0,3.13.81,3.13,3.18,0,5.33,0,10.65,0,16a4.42,4.42,0,0,0,.83,3,17.71,17.71,0,0,1,1.4,2.56c1.32-1.32,2.57-2.54,3.76-3.8a1.55,1.55,0,0,0,.26-1c0-5.8,0-11.61,0-17.41,0-4.93-3.41-8.3-8.53-8.65-0.32,0-.64,0-1,0Q91.28,25,50.9,25c-3.09,0-5.75.85-7.71,3.35a8.39,8.39,0,0,0-1.79,5.32q0,30.89,0,61.77A8.33,8.33,0,0,0,50,104c15.86,0,31.73,0,47.59-.08C97.72,104,97.88,103.92,98.4,103.84Z"/><path class="cls-2" d="M141.92,109.41c-1.21-.2-2.79-0.42-4.36-0.73a4.29,4.29,0,0,0-4.43,1.4c-0.94,1.09-2,2.08-3,3.09a3.33,3.33,0,0,1-5.09,0c-1.09-1.06-2.18-2.13-3.2-3.25a4,4,0,0,0-3.91-1.27c-1.54.27-3.07,0.55-4.62,0.74a3.36,3.36,0,0,1-4-3.12c-0.24-1.54-.49-3.08-0.7-4.63a3.63,3.63,0,0,0-2.14-3c-1.4-.68-2.8-1.37-4.19-2.09a3.42,3.42,0,0,1-1.66-5q1-2.1,2.15-4.16a3.71,3.71,0,0,0,0-3.77q-1.11-2.06-2.15-4.16a3.39,3.39,0,0,1,1.6-4.94q2-1.06,4.08-2a3.81,3.81,0,0,0,2.35-3.22c0.17-1.51.44-3,.68-4.51a3.38,3.38,0,0,1,4.07-3.08c1.39,0.18,2.78.38,4.15,0.67A4.26,4.26,0,0,0,122,61c0.85-1,1.84-1.9,2.77-2.83,1.88-1.88,3.72-1.87,5.62,0,0.93,0.94,1.9,1.84,2.77,2.84a4.23,4.23,0,0,0,4.44,1.37c1.41-.3,2.84-0.51,4.26-0.71a3.31,3.31,0,0,1,4,2.78c0.29,1.53.52,3.08,0.7,4.63a4,4,0,0,0,2.43,3.44c1.31,0.6,2.59,1.27,3.87,1.92q3.43,1.75,1.72,5.16c-0.68,1.36-1.37,2.71-2.09,4.05a3.71,3.71,0,0,0,0,3.77q1.12,2.06,2.15,4.16a3.4,3.4,0,0,1-1.6,4.95c-1.31.69-2.62,1.37-4,2a4.09,4.09,0,0,0-2.54,3.62c-0.16,1.51-.41,3-0.69,4.51C145.46,108.43,144.11,109.47,141.92,109.41ZM127.51,64.52a20.49,20.49,0,1,0,20.54,20.42A20.51,20.51,0,0,0,127.51,64.52Z"/><path class="cls-1" d="M81,47.8h21.22c2.45,0,3.75-1,3.79-2.85s-1.35-3-3.82-3H59.77a6.87,6.87,0,0,0-1.76.2,2.83,2.83,0,0,0,.25,5.5,8.26,8.26,0,0,0,1.54.1H81Z"/><path class="cls-1" d="M70.88,66.59c4.19,0,8.39,0,12.58,0A2.22,2.22,0,0,0,84.87,66a3.23,3.23,0,0,0,.75-2.75c-0.11-1.21-.51-2.06-1.24-2.33a2.77,2.77,0,0,0-1-.18H58.24a2.66,2.66,0,0,0-1,.17c-0.79.31-1.35,1.6-1.29,2.9s0.66,2.47,1.47,2.66a3.81,3.81,0,0,0,.85.06H70.88Z"/><path class="cls-1" d="M70.88,84.42c4.19,0,8.39,0,12.58,0a2.22,2.22,0,0,0,1.41-.52,3.23,3.23,0,0,0,.75-2.75c-0.11-1.21-.51-2.06-1.24-2.33a2.77,2.77,0,0,0-1-.18H58.24a2.66,2.66,0,0,0-1,.17c-0.79.31-1.35,1.6-1.29,2.9s0.66,2.47,1.47,2.66a3.81,3.81,0,0,0,.85.06H70.88Z"/><path class="cls-1" d="M134.53,112.08a2.19,2.19,0,0,1,2.73-1.14c1.28,0.32,2.6.43,3.91,0.64a5.73,5.73,0,0,0,7-5.15c0.12-.82.25-1.63,0.39-2.6,0.37,0.31.61,0.49,0.83,0.71,2.75,2.74,5.49,5.5,8.24,8.24a2.23,2.23,0,0,1,.89,2.32c-0.3,1-1.18,1.21-2.06,1.38-1.45.28-2.9,0.6-4.37,0.78a1.2,1.2,0,0,0-1.19,1.19c-0.26,1.62-.54,3.24-0.88,4.84s-2,2.28-3.24,1C142.69,120.27,138.63,116.18,134.53,112.08Z"/><path class="cls-1" d="M120.59,112.07c-4.13,4.13-8.19,8.22-12.28,12.26a1.78,1.78,0,0,1-3.16-1c-0.35-1.6-.7-3.21-0.91-4.83a1.31,1.31,0,0,0-1.36-1.3c-1.62-.24-3.23-0.56-4.83-0.92s-2.12-1.87-1.1-2.92c3.12-3.19,6.34-6.29,9.6-9.5,0.18,1.06.32,2.07,0.51,3.07a5.66,5.66,0,0,0,6.71,4.65c1.42-.23,2.86-0.36,4.25-0.71A2.1,2.1,0,0,1,120.59,112.07Z"/><path id="_Составной_контур_" data-name="&lt;Составной контур&gt;" class="cls-3" d="M121.42,80.42a3.17,3.17,0,0,1,.06.74,3.88,3.88,0,0,1,0,.49,1.42,1.42,0,0,1-.08.33,0.37,0.37,0,0,1-.12.17,0.28,0.28,0,0,1-.17,0,1.11,1.11,0,0,1-.45-0.18,7,7,0,0,0-.83-0.38,9.51,9.51,0,0,0-1.23-.38,7,7,0,0,0-1.66-.18,5,5,0,0,0-1.83.32,3.89,3.89,0,0,0-2.29,2.31,5,5,0,0,0-.31,1.81,5.34,5.34,0,0,0,.32,1.92,3.82,3.82,0,0,0,.89,1.39,3.69,3.69,0,0,0,1.37.84,5.26,5.26,0,0,0,1.77.28,4.5,4.5,0,0,0,.94-0.1,3.65,3.65,0,0,0,.86-0.29V86.62H116a0.33,0.33,0,0,1-.3-0.22,1.86,1.86,0,0,1-.11-0.75,3.32,3.32,0,0,1,0-.46,1.05,1.05,0,0,1,.08-0.3,0.42,0.42,0,0,1,.13-0.17,0.29,0.29,0,0,1,.17-0.05h4.7a0.82,0.82,0,0,1,.31.05,0.67,0.67,0,0,1,.24.16,0.73,0.73,0,0,1,.16.26,1,1,0,0,1,.05.35v5.05a1.12,1.12,0,0,1-.11.52,0.79,0.79,0,0,1-.46.35q-0.35.13-.87,0.26t-1.07.24q-0.55.1-1.12,0.15t-1.14,0a9.48,9.48,0,0,1-3-.44,6.15,6.15,0,0,1-2.23-1.27,5.46,5.46,0,0,1-1.4-2,7.13,7.13,0,0,1-.48-2.7,7.23,7.23,0,0,1,.52-2.8,5.89,5.89,0,0,1,1.46-2.11,6.43,6.43,0,0,1,2.29-1.33,9.13,9.13,0,0,1,3-.46,11,11,0,0,1,1.65.11,10.05,10.05,0,0,1,1.3.27,5.37,5.37,0,0,1,.92.35,2.33,2.33,0,0,1,.51.32A0.79,0.79,0,0,1,121.42,80.42Zm12.48,8.65a0.29,0.29,0,0,0-.11-0.16,0.33,0.33,0,0,0-.17,0,0.84,0.84,0,0,0-.39.16q-0.25.16-.65,0.35a5.79,5.79,0,0,1-.94.36,4.64,4.64,0,0,1-1.3.16,4,4,0,0,1-1.49-.26,2.9,2.9,0,0,1-1.13-.79A3.62,3.62,0,0,1,127,87.5a7.39,7.39,0,0,1,0-3.77,4,4,0,0,1,.69-1.39,3.1,3.1,0,0,1,1.11-.88,3.41,3.41,0,0,1,1.48-.31,4.33,4.33,0,0,1,1.3.17,5.5,5.5,0,0,1,.94.38,6.83,6.83,0,0,1,.64.38,0.78,0.78,0,0,0,.41.17,0.27,0.27,0,0,0,.17-0.06,0.46,0.46,0,0,0,.13-0.19,1.2,1.2,0,0,0,.08-0.33,4.93,4.93,0,0,0,0-.5q0-.27,0-0.46a2.31,2.31,0,0,0,0-.32,0.78,0.78,0,0,0-.09-0.23,1.13,1.13,0,0,0-.2-0.22,2.48,2.48,0,0,0-.51-0.32,5.26,5.26,0,0,0-.82-0.33,7.39,7.39,0,0,0-1-.23,6.9,6.9,0,0,0-1.12-.09,7.47,7.47,0,0,0-2.62.44,5.57,5.57,0,0,0-2,1.29,5.88,5.88,0,0,0-1.32,2.11,8.11,8.11,0,0,0-.47,2.87,8.22,8.22,0,0,0,.43,2.79,5.27,5.27,0,0,0,1.24,2,5.15,5.15,0,0,0,2,1.2,7.8,7.8,0,0,0,2.58.4,8.07,8.07,0,0,0,1.36-.11,7.76,7.76,0,0,0,1.12-.27,5.64,5.64,0,0,0,.83-0.34,2.2,2.2,0,0,0,.46-0.29,1.05,1.05,0,0,0,.17-0.2,0.79,0.79,0,0,0,.09-0.21,1.85,1.85,0,0,0,0-.29q0-.17,0-0.42t0-.56A1.43,1.43,0,0,0,133.9,89.07Zm11.65-6a4.63,4.63,0,0,1-.37,1.89,3.67,3.67,0,0,1-1.07,1.39,4.84,4.84,0,0,1-1.72.86,8.66,8.66,0,0,1-2.39.29h-1.16v4.05a0.26,0.26,0,0,1-.07.18,0.5,0.5,0,0,1-.23.13,2.45,2.45,0,0,1-.43.08,8,8,0,0,1-1.37,0,2.45,2.45,0,0,1-.44-0.08,0.46,0.46,0,0,1-.23-0.13,0.27,0.27,0,0,1-.06-0.18V80.11a0.87,0.87,0,0,1,.26-0.69,1,1,0,0,1,.69-0.23h3.28q0.49,0,.94,0t1.07,0.15a5,5,0,0,1,1.26.42,3.74,3.74,0,0,1,1.09.77,3.16,3.16,0,0,1,.69,1.09A3.92,3.92,0,0,1,145.55,83Zm-3,.19a2.11,2.11,0,0,0-.26-1.1,1.69,1.69,0,0,0-.63-0.64,2.24,2.24,0,0,0-.79-0.26,6.65,6.65,0,0,0-.86-0.05h-1.21v4.31h1.27a3.34,3.34,0,0,0,1.14-.17,2,2,0,0,0,.75-0.47,2,2,0,0,0,.44-0.72A2.65,2.65,0,0,0,142.59,83.23Z"/></g></svg>