<svg id="Body" xmlns="http://www.w3.org/2000/svg" viewBox="0 0 200 150"><defs><style>.cls-1{fill:#f2f2f2;stroke:#ccc;stroke-miterlimit:10;stroke-width:0.5px;}.cls-2{fill:#999;}.cls-3{fill:red;}.cls-4{fill:#ce202e;}</style></defs><title>Icon</title><g id="_1.svg" data-name="1.svg"><path class="cls-1" d="M154.81,60.32l0,0v0a3.86,3.86,0,0,0-.38-4.11,1.61,1.61,0,0,0,.07-0.18,6,6,0,0,0,0-3.6l0.1-.19a4.73,4.73,0,0,0,0-3.85,4.66,4.66,0,0,0-.3-0.59,5.22,5.22,0,0,0,.06-3.13,2.36,2.36,0,0,0,.47-2.25c-0.63-2.28-4.42-2.48-7.3-2.42L148,41.13c4.35-.05,5.53.79,5.73,1.53a1.41,1.41,0,0,1,.06.44,2.86,2.86,0,0,0-.44-0.52,1.84,1.84,0,0,0-1.73-.59,2,2,0,0,0-1.45.82,2.08,2.08,0,0,0-.37,1.7,1.73,1.73,0,0,0,1.14,1.27,3,3,0,0,0,2.43-.3,4.29,4.29,0,0,1,0,1.11,3.05,3.05,0,0,0-.83-0.45,2.29,2.29,0,0,0-1.94.08,1.85,1.85,0,0,0-.9,1.26,1.64,1.64,0,0,0,1.38,2,2.2,2.2,0,0,0,2.52-.51,3.76,3.76,0,0,1,.16,1.94,3,3,0,0,0-.9-0.73,2.24,2.24,0,0,0-1.78-.23,2.22,2.22,0,0,0-1.28,1.22,1.87,1.87,0,0,0,0,1.64,2.28,2.28,0,0,0,1.6,1.15,2.5,2.5,0,0,0,2.16-.38,4.92,4.92,0,0,1-.06,1.59l-0.08-.06L153.34,55a2.21,2.21,0,0,0-2.82-.59,1.8,1.8,0,0,0-.92,2.17,1.92,1.92,0,0,0,2.25,1.32,3.56,3.56,0,0,0,1.81-.8,2.6,2.6,0,0,1,.29,1.92,2.81,2.81,0,0,0-1.13-.71,2.48,2.48,0,0,0-2.16.16,2,2,0,0,0-.92,1.48,2,2,0,0,0,.51,1.63,2.39,2.39,0,0,0,2,.61,2.88,2.88,0,0,0,1.7-.68,4.1,4.1,0,0,1,.17,1.31c-0.08,1.22-2.55,1.42-4,1.45v1.22c2,0,5.12-.32,5.26-2.6A5.7,5.7,0,0,0,154.81,60.32Zm-3.48-15.69a0.51,0.51,0,0,1-.36-0.39,0.88,0.88,0,0,1,.16-0.72,0.78,0.78,0,0,1,.55-0.32l0.27,0a0.69,0.69,0,0,1,.52.29,2.34,2.34,0,0,1,.5.77A1.93,1.93,0,0,1,151.33,44.63Zm0.1,3.68c-0.62-.19-0.59-0.32-0.53-0.61a0.63,0.63,0,0,1,.3-0.43,0.78,0.78,0,0,1,.39-0.09,1.63,1.63,0,0,1,.53.1,2,2,0,0,1,.8.55A1,1,0,0,1,151.43,48.32Zm0.23,4.45a1.09,1.09,0,0,1-.77-0.5,0.66,0.66,0,0,1,0-.59,1.1,1.1,0,0,1,.55-0.58,0.64,0.64,0,0,1,.2,0,1.34,1.34,0,0,1,.61.18,2.15,2.15,0,0,1,.89,1A1.26,1.26,0,0,1,151.66,52.77Zm0,4c-0.47.07-.61,0.06-0.95-0.63a0.88,0.88,0,0,1,.82-0.72,1.45,1.45,0,0,1,.93.53,1.59,1.59,0,0,0,.18.16l0.2,0.15A2.32,2.32,0,0,1,151.67,56.74ZM152.17,61a1.27,1.27,0,0,1-1-.24,0.79,0.79,0,0,1-.18-0.64,0.81,0.81,0,0,1,.36-0.6,1,1,0,0,1,.51-0.13,2,2,0,0,1,.59.1,2,2,0,0,1,1,.82A1.57,1.57,0,0,1,152.17,61Z"/><path class="cls-1" d="M61.33,67.82A3.11,3.11,0,0,0,59,67.09a4.19,4.19,0,0,0-1.39.3,3.52,3.52,0,0,1,1.2-2.2l0.07-.06a3.16,3.16,0,0,0,2.59,2.13,2.13,2.13,0,0,0,2.41-1.62,1.65,1.65,0,0,0-.27-1.39,2.62,2.62,0,0,0-1.13-.85l0.25,0a3.29,3.29,0,0,0,1.64-.24V61.52a1.57,1.57,0,0,1-.22.36,1.63,1.63,0,0,1-1.3.34,2,2,0,0,1-1.5-.78,3.13,3.13,0,0,1,1.15-.72,2.81,2.81,0,0,1,1.8-.08l0.07,0.06V59.38a4.57,4.57,0,0,0-2.21.16,3.41,3.41,0,0,0-.81.36,2.2,2.2,0,0,1,.31-0.43,2.13,2.13,0,0,1,1.71-.7V57.55a3.35,3.35,0,0,0-2.62,1.09,2.93,2.93,0,0,0-.83,2.49,5,5,0,0,0-1.19,2.6,5.19,5.19,0,0,0-.75.56,4.62,4.62,0,0,0-1.61,3.35,4.53,4.53,0,0,0,0,.47,4.91,4.91,0,0,0-1.75,3c0,0.08,0,.21,0,0.38a4.61,4.61,0,0,0-2.78,3.93,3.85,3.85,0,0,0,0,.42,4.9,4.9,0,0,0-1.11,1.47,6.93,6.93,0,0,0-.41,2.8H51.6a5.9,5.9,0,0,1,.28-2.28,3.46,3.46,0,0,1,.38-0.6,3.27,3.27,0,0,0,1.46,1.52,3,3,0,0,0,2.44.17,2.43,2.43,0,0,0,1.45-1.34A1.79,1.79,0,0,0,57.41,76a3.08,3.08,0,0,0-2.31-1.3,3.74,3.74,0,0,0-2,.31,3.44,3.44,0,0,1,1.63-2.2,3,3,0,0,0,1.35,1.91c0.9,0.55,2.66.89,3.59-.11a2.16,2.16,0,0,0,0-2.69c-1-1.27-3-1-3.6-.94l-0.19,0a3.64,3.64,0,0,1,.85-1.57,2.93,2.93,0,0,0,2.11,1.72,2.75,2.75,0,0,0,2.27-.51,2.21,2.21,0,0,0,.41-0.43l0.36-1.1A1.85,1.85,0,0,0,61.33,67.82Zm-0.79-5.43a2.93,2.93,0,0,0,1,.74l-0.36,0a3.55,3.55,0,0,0-1.06.07A4,4,0,0,1,60.54,62.39ZM61.1,64.3a2.19,2.19,0,0,1,1.51.65,0.44,0.44,0,0,1,.08.39,0.91,0.91,0,0,1-1,.7A1.93,1.93,0,0,1,60,64.47,2.5,2.5,0,0,1,61.1,64.3ZM55,75.9a1.9,1.9,0,0,1,1.4.73,0.59,0.59,0,0,1,.09.52,1.24,1.24,0,0,1-.73.62,1.71,1.71,0,0,1-1.42-.11,2.19,2.19,0,0,1-1.06-1.33A2.65,2.65,0,0,1,55,75.9Zm1.39-3.72c0.84-.14,2-0.11,2.4.46a1,1,0,0,1,0,1.14,2,2,0,0,1-2.87-1.5Zm4-2.47a1.51,1.51,0,0,1-1.24.26,1.79,1.79,0,0,1-1.34-1.31,3,3,0,0,1,1.28-.35,1.93,1.93,0,0,1,1.4.4,0.66,0.66,0,0,1,.22.47A0.75,0.75,0,0,1,60.38,69.72Z"/><path class="cls-1" d="M117.63,71l1.49,1.5c1.18-1.35,9.38-12.84,13.9-19.76L131.4,51.2C126.92,58,119,69.41,117.63,71Z"/><path class="cls-1" d="M124.91,68a1,1,0,0,0-.49.87s0,1.85,0,2.5h2.12c0-.41,0-1.32,0-1.91l8.55-5.38V61.61Z"/><path class="cls-1" d="M147.31,58.54a1.07,1.07,0,0,0-.75-0.3h0l-5.9.06a1.07,1.07,0,0,0-.56.16l-1.82,1.15v2.48L141,60.38l4.52,0V61.9h2.12V59.28A1,1,0,0,0,147.31,58.54Z"/><path class="cls-1" d="M136,49.52l-1.64-1.34L133,49.58,134.5,51Z"/><path class="cls-1" d="M87.37,52.49c-0.21-1.66-.82-3.41-2.52-3.41a2.4,2.4,0,0,0-1.75.72c-1,1-1.5,3-1.48,5.94,0,0.4,0,1.12,0,2,0,2.68.09,7.82,0.08,11.1L83,69.39c0-2.5,0-6.55-.08-11.62,0-.92,0-1.65,0-2,0-2.54.38-4.34,1.12-5.07a1.17,1.17,0,0,1,.87-0.36c0.65,0,1.07.74,1.27,2.19h1.25Z"/><path class="cls-1" d="M90,55.17H91.2a17.16,17.16,0,0,1,.08-1.92H90A18.08,18.08,0,0,0,90,55.17Z"/><path class="cls-1" d="M90.16,52.47H91.4c0.39-2,5.81-13.39,6.78-14.18l-0.65-1C96.56,38,90.61,49.88,90.16,52.47Z"/><path class="cls-1" d="M93.83,57.18v0.39c0,1.81,0,3.69,0,4.4,0,0.13,0,.21,0,0.25H95V62c0-.72.08-2.62,0-4.47V57.15a28.46,28.46,0,0,1,.06-3.91H93.88A29.55,29.55,0,0,0,93.83,57.18Z"/><path class="cls-1" d="M103.5,64l-0.26-1.18h0c-0.87-3.58-2.8-8.76-5-11a3.37,3.37,0,0,0-2.35-1.21,1.66,1.66,0,0,0-1.21.5A2.82,2.82,0,0,0,94,52.43l1.27,0a1.34,1.34,0,0,1,.28-0.53,0.41,0.41,0,0,1,.32-0.13,2.26,2.26,0,0,1,1.45.83c2,2,3.79,6.82,4.64,10.18h0L102.22,64h0c0.16,0.78.25,8,.25,8.69l1.23,0-1.23,0v0h1.24C103.73,72.08,103.65,64.86,103.5,64Z"/><path class="cls-1" d="M87.49,54.85c0-.4,0-1,0-1.59H86.2c0,0.48.06,1,.06,1.61h1.24Z"/><path class="cls-1" d="M82.66,72.57l-1.17-.49a3,3,0,0,1-1.87.51l-0.1,1.22C81.09,73.79,82.21,73.34,82.66,72.57Z"/><path class="cls-2" d="M88.07,75.19v40.5c-1.68.09-3.22,0.48-3.42,1.08h0v1.86c0,0.77,2.12,1.23,4.17,1.23S93,119.4,93,118.63V116.9c0-.65-1.5-1.08-3.2-1.2V75.19l0,0H88Zm1.69,41.4v-0.71c1.84,0.12,3,.59,3,1a0.58,0.58,0,0,1-.09.21c-0.37.44-1.84,0.85-3.9,0.85a11.61,11.61,0,0,1-2.6-.26,2,2,0,0,1-1.37-.89c0.16-.43,1.4-0.86,3.25-0.95v0.73a2,2,0,0,0,.87.16A2,2,0,0,0,89.75,116.59Z"/><polygon class="cls-2" points="87.19 73.62 87.77 72.48 84.22 70.95 84.55 70.21 84.53 70.2 83.71 72.12 87.19 73.62"/><polygon class="cls-2" points="103.87 51.45 103.84 51.45 103.84 52.6 103.87 52.6 103.87 58.64 105.56 58.66 105.56 52.6 105.57 52.6 105.56 51.45 105.56 51.45 105.56 38.7 103.87 39.11 103.87 51.45"/><polygon class="cls-2" points="105.56 25 103.87 25 103.87 29.55 105.56 28.36 105.56 25"/><polygon class="cls-2" points="103.87 35.95 105.56 35.41 105.56 28.9 103.87 30.41 103.87 35.95"/><path class="cls-2" d="M103.87,64v8.68h1.69V64h0l0-1.15h0V61.57l0,0-1.72,0h0v1.24h0l0,1.15h0Z"/><path class="cls-2" d="M98.08,62.81V62.42h-1l-0.42,1.78,0.06-.14v0.51h1.33V64h0V62.81h0Z"/><polygon class="cls-2" points="83.17 62.42 83.17 64.57 84.5 64.57 84.5 64.37 83.98 62.42 83.17 62.42"/><polygon class="cls-2" points="103.87 77.44 103.87 86.37 105.56 86.37 105.56 77.71 103.87 77.44"/><polygon class="cls-2" points="135.98 59.39 137.67 59.39 137.67 56.25 135.98 56.23 135.98 59.39"/><path class="cls-2" d="M119.86,78.69h-1.69v4.65h0l1.7,0V78.69Z"/><path class="cls-2" d="M120.63,84.31l0-.06-0.07,1.22h3.17V84.31h-3.08Z"/><rect class="cls-2" x="129.89" y="78.86" width="1.17" height="1.13"/><polygon class="cls-2" points="131.06 84.31 131.06 84.28 129.89 84.28 129.89 84.31 127.61 84.31 127.62 85.46 129.89 85.46 129.89 85.49 131.06 85.47 131.06 85.46 133.2 85.46 133.2 84.31 131.06 84.31"/><polygon class="cls-2" points="137.67 67.95 137.67 67.95 137.68 66.79 137.67 66.79 137.67 64.18 135.98 64.17 135.98 66.79 135.97 66.79 135.96 67.95 135.98 67.95 135.98 82.25 137.67 82.25 137.67 67.95"/><path class="cls-2" d="M136,105.27c-1.68.09-3.22,0.48-3.42,1.08h0v1.86c0,0.77,2.12,1.23,4.17,1.23s4.17-.46,4.17-1.23v-1.72c0-.65-1.5-1.08-3.2-1.2V87H136v18.25Zm1.69,0.19c1.84,0.12,3,.59,3,1a0.58,0.58,0,0,1-.09.21c-0.37.44-1.84,0.85-3.9,0.85a11.61,11.61,0,0,1-2.6-.26,2,2,0,0,1-1.37-.89c0.16-.43,1.4-0.86,3.25-0.95v0.73a2,2,0,0,0,.87.16,2,2,0,0,0,.82-0.16v-0.71Z"/><rect class="cls-2" x="139.65" y="83.97" width="4.88" height="1.15"/><polygon class="cls-2" points="128.88 80.01 128.88 79.62 127.61 79.62 127.61 81.77 128.88 81.77 128.88 81.16 128.89 81.16 128.89 80.01 128.88 80.01"/><rect class="cls-2" x="122.49" y="79.62" width="1.21" height="2.15"/><rect class="cls-2" x="129.89" y="81.16" width="1.17" height="3.12" transform="translate(-0.42 0.66) rotate(-0.29)"/><path class="cls-2" d="M118.18,86.21v29.47c-1.68.09-3.22,0.48-3.42,1.08h0v1.86c0,0.77,2.12,1.23,4.17,1.23s4.17-.46,4.17-1.23V116.9c0-.65-1.5-1.08-3.2-1.2V86.21h-1.71Zm1.69,30.38v-0.71c1.84,0.12,3,.59,3,1a0.58,0.58,0,0,1-.09.21c-0.37.44-1.84,0.85-3.9,0.85a11.61,11.61,0,0,1-2.6-.26,2,2,0,0,1-1.37-.89c0.16-.43,1.4-0.86,3.25-0.95v0.73a2,2,0,0,0,.87.16A2,2,0,0,0,119.86,116.59Z"/><polygon class="cls-2" points="64.42 67.38 64.42 69.97 66.1 69.97 66.1 65.77 64.42 67.38"/><path class="cls-2" d="M66.1,58.77h0V57.55h0V47.66h0V46.51h0v-2H64.42v2h0v1.15h0V56h-1v1.54h0v1.22h0v0.12h1v0.5h0v1.31l0,0v0.75l0,0.06v1.67h0v2.63l1.69-1.14V58.77Z"/><path class="cls-2" d="M64.42,101.33c-1.68.09-3.22,0.48-3.42,1.08h0v1.86c0,0.77,2.12,1.23,4.17,1.23s4.17-.46,4.17-1.23v-1.72c0-.65-1.5-1.08-3.2-1.2V80.59L64.42,79.5v21.83Zm1.69,0.19c1.84,0.12,3,.59,3,1a0.58,0.58,0,0,1-.09.21c-0.37.44-1.84,0.85-3.9,0.85a11.61,11.61,0,0,1-2.6-.26,2,2,0,0,1-1.37-.89c0.16-.43,1.4-0.86,3.25-0.95v0.72a1.87,1.87,0,0,0,.87.17,1.9,1.9,0,0,0,.82-0.17v-0.7Z"/><path class="cls-2" d="M103.87,96.7v24.13c-1.68.09-3.22,0.48-3.42,1.08h0v1.86c0,0.77,2.12,1.23,4.17,1.23s4.17-.46,4.17-1.23V122c0-.65-1.5-1.08-3.2-1.2V96.67h-2.1Zm1.69,25V121c1.84,0.12,3,.59,3,1a0.58,0.58,0,0,1-.09.21c-0.37.44-1.84,0.85-3.9,0.85a11.61,11.61,0,0,1-2.6-.26,2,2,0,0,1-1.37-.89c0.16-.43,1.4-0.86,3.25-0.95v0.72a1.87,1.87,0,0,0,.87.18A1.9,1.9,0,0,0,105.56,121.72Z"/><path class="cls-2" d="M73.07,106.37v-10h0.45V92.93H69.09v3.48h0.45v9.93c-1.29.16-2.34,0.51-2.5,1h0v1.86c0,0.77,2.12,1.23,4.17,1.23s4.17-.46,4.17-1.23v-1.72C75.35,106.95,74.35,106.56,73.07,106.37Zm2,1.31c-0.37.44-1.84,0.85-3.9,0.85a11.61,11.61,0,0,1-2.6-.26,2,2,0,0,1-1.37-.89c0.13-.35,1-0.7,2.33-0.87v0.58a5.88,5.88,0,0,0,1.82.23,6,6,0,0,0,1.71-.23v-0.55c1.3,0.19,2.1.57,2.1,0.93A0.58,0.58,0,0,1,75.08,107.69Z"/><polygon class="cls-3" points="103.72 51.45 103.22 51.99 103.72 52.6 103.84 52.6 103.84 51.45 103.72 51.45"/><polygon class="cls-3" points="93.8 62.23 93.79 62.24 95.03 62.24 95.03 62.23 93.8 62.23"/><polygon class="cls-3" points="95.13 53.23 94.68 53.24 95.13 53.24 95.13 53.23"/><polygon class="cls-3" points="135.43 66.79 134.93 67.34 135.43 67.95 135.96 67.95 135.97 66.79 135.43 66.79"/><polygon class="cls-3" points="64.27 46.51 63.77 47.05 64.27 47.66 64.39 47.66 64.39 46.51 64.27 46.51"/><path class="cls-3" d="M71.19,92.93l0.08,0H71.11Z"/><path class="cls-4" d="M87.23,73.64s0,0.08,0,.11a1.65,1.65,0,0,0,.8,1.41h1.76a1.65,1.65,0,0,0,.8-1.41,1.67,1.67,0,0,0-1.69-1.66,1.69,1.69,0,0,0-1.1.4l0,0-0.59,1.14Z"/><polygon class="cls-4" points="106.96 63.96 106.96 65.38 108.28 65.38 108.28 61.61 106.96 61.61 106.96 62.81 105.59 62.81 105.57 63.96 106.96 63.96"/><path class="cls-4" d="M103.87,58.69a1.65,1.65,0,0,0,0,2.87l1.72,0a1.64,1.64,0,0,0,0-2.85v0h-1.69v0.05Z"/><polygon class="cls-4" points="106.78 52.6 106.78 54.01 108.1 54.01 108.1 50.25 106.78 50.25 106.78 51.45 105.56 51.45 105.57 52.6 106.78 52.6"/><path class="cls-4" d="M109.5,33.33l-1.34-2.08h0l-0.74-1.14c-0.25-.38-0.49-0.77-0.76-1.13a1.41,1.41,0,0,0-1.11-.59v0l-1.69,1.18v0l-2.64,3.35-1.78,2.27a1.85,1.85,0,0,1-.52.47c-0.38.22-.76,0.47-1.13,0.71a0.17,0.17,0,0,1-.18,0,0.35,0.35,0,0,0-.23,0,0.26,0.26,0,0,0-.1.42l0.27,0.42,0,0,0.65,1,0,0,0.24,0.37,0.05,0.07a0.26,0.26,0,0,0,.3.08A0.25,0.25,0,0,0,99,38.52a0.15,0.15,0,0,1,.09-0.15l1.33-.83a0.65,0.65,0,0,1,.19-0.08l1.64-.37,0.59-.13,0.55,2.25,0.47-.11v0l1.69-.4h0l1.15-.27-0.54-2.22,1.56-.35a7.74,7.74,0,0,0,1.23-.34,1.29,1.29,0,0,0,.86-1.25A1.68,1.68,0,0,0,109.5,33.33Zm-3.95,2.12v0l-1.69.54v0c-1.83.56-3.43,1-3.43,1s-2,.4-2.09.43l-0.43-.67,0.1-.06c0.45-.28.91-0.56,1.35-0.85a1.56,1.56,0,0,0,.33-0.34l1.85-2.35s1.22-1.52,2.32-2.74v0l1.69-1.51v0a0.08,0.08,0,0,1,.08,0,42.28,42.28,0,0,1,3.5,5C109.25,34.16,107.51,34.81,105.56,35.45Z"/><path class="cls-4" d="M97.09,62.42a5.24,5.24,0,0,0-1-3.28A0.46,0.46,0,0,1,96,58.89c0-1.21,0-2.42,0-3.63,0-.63,0-1.27,0-1.9A0.23,0.23,0,0,1,96,53.19a0.35,0.35,0,0,0,.22-0.42,0.42,0.42,0,0,0-.47-0.27H95.27l0,0-1.27,0,0,0.07H93.54c-0.18,0-.37,0-0.55,0a0.35,0.35,0,0,0-.34.26,0.3,0.3,0,0,0,.15.37,0.23,0.23,0,0,1,.14.26q0,1.59,0,3.18v0.3l-0.7-.18a0.15,0.15,0,0,1-.15-0.17c0-1.07,0-2.13,0-3.2a0.22,0.22,0,0,1,.1-0.15,0.36,0.36,0,0,0,.19-0.41A0.39,0.39,0,0,0,92,52.5H91.39v0H90.16v0h-1a0.38,0.38,0,0,0-.39.26,0.32,0.32,0,0,0,.18.41,0.16,0.16,0,0,1,.1.18c0,0.22,0,.43,0,0.65,0,0.84,0,1.69,0,2.53a0.19,0.19,0,0,1-.09.15c-0.24.08-.48,0.14-0.73,0.21a0.33,0.33,0,0,1,0-.06c0-1.17,0-2.34,0-3.52a0.19,0.19,0,0,1,.09-0.13,0.36,0.36,0,0,0,.2-0.4,0.4,0.4,0,0,0-.4-0.27h-2v0H85.27a0.38,0.38,0,0,0-.38.28,0.32,0.32,0,0,0,.18.38,0.18,0.18,0,0,1,.12.2q0,2.77,0,5.54a0.44,0.44,0,0,1-.08.23,5.85,5.85,0,0,0-.74,1.4,5.39,5.39,0,0,0-.31,1.88H84l0.51,1.95v0q0.11,0.26.26,0.51a6.74,6.74,0,0,0,7.43,3,6,6,0,0,0,4.5-3.66l0.42-1.78h0ZM95,62.27v0H93.79v0h-9.2c0-.36.08-0.71,0.15-1.05a4.78,4.78,0,0,1,.92-1.94,0.37,0.37,0,0,0,.07-0.22q0-2.83,0-5.67V53.23H86.2l1.25,0v0h0.2V57.6l2-.58V53.23h0.44v0h1.48V57l2,0.57V53.23h1.92v0.26c0,1.85,0,3.71,0,5.56a0.58,0.58,0,0,0,.12.32,4.85,4.85,0,0,1,1,2.77s0,0.08,0,.14H95Z"/><polygon class="cls-4" points="98.08 62.81 98.08 63.96 102.22 63.96 101.96 62.81 98.08 62.81"/><path class="cls-4" d="M103.49,64h0.33l0-1.15h-0.61L103.5,64v0Z"/><path class="cls-4" d="M120.36,73.79l-1.27-1.24,0,0L117.63,71l0,0.05-0.8-.78-0.16-.14a0.82,0.82,0,0,0-1,0,0.7,0.7,0,0,0-.35.82,0.39,0.39,0,0,1-.14.44c-1.6,1.58-2.27,2.32-3.87,3.9L109,77.58l-2.72-1V76c0-1.09,0-.51,0-1.64a0.31,0.31,0,0,1,.12-0.13,0.85,0.85,0,0,0,.4-0.92,0.87,0.87,0,0,0-.94-0.62h-0.3V72.65h-1.69V72.7h-0.14v0h-1.24v0h-1.61a0.82,0.82,0,0,0-.47,1.55,0.28,0.28,0,0,1,.11.17c0,1.58,0,1.17,0,2.38a0.32,0.32,0,0,1-.16.21,10.27,10.27,0,0,0-5.2,4.29,9.92,9.92,0,0,0-1.46,4.3A10.1,10.1,0,0,0,100,95.91a10.94,10.94,0,0,0,3.41.76h2.1V96.58a10.83,10.83,0,0,0,3.52-1.24,9.34,9.34,0,0,0,3.11-2.67,9.86,9.86,0,0,0,.93-10.81,0.31,0.31,0,0,1,.07-0.45c1.77-1.74,2.63-2.66,4.36-4.38l1.52-1.51,0.09-.1a0.46,0.46,0,0,1,.61-0.21,0.26,0.26,0,0,0,.19,0h0a0.82,0.82,0,0,0,.61-0.57A0.85,0.85,0,0,0,120.36,73.79ZM111.91,81a1.66,1.66,0,0,0-.27.31,0.59,0.59,0,0,0,0,.33,2.78,2.78,0,0,0,.14.25,9.44,9.44,0,0,1,.91,2,8.8,8.8,0,0,1,.38,2.52h-7.52v0h-1.69v0h-9a9,9,0,0,1,5-7.91l0.19-.06,0.32-.12c0.34-.13.66-0.26,1-0.36a0.71,0.71,0,0,0,.23-0.12,0.51,0.51,0,0,0,.14-0.21,0.78,0.78,0,0,0,0-.2c0-1.17,0-.66,0-1.81V74.48s0-.07,0-0.11h2.13v3.06l1.69,0.27h0a9.38,9.38,0,0,1,3.19,1.2,0.71,0.71,0,0,0,.23.1l0.15,0.1,0.18-.19,0.12-.1c2-2,3.05-3.11,5-5L116.18,72l2.37,2.32Z"/><polygon class="cls-4" points="138.25 59.63 138.25 59.43 137.67 59.43 137.67 59.39 135.98 59.39 135.98 59.43 135.16 59.43 135.16 61.57 135.09 61.61 135.09 64.09 135.16 64.05 135.16 64.15 135.98 64.15 135.98 64.17 137.67 64.18 137.67 64.15 138.25 64.15 138.25 62.1 138.27 62.09 138.27 59.61 138.25 59.63"/><path class="cls-4" d="M140.31,55.44l-0.83.88-1.1-1a1.63,1.63,0,0,0,.12-0.62A1.67,1.67,0,0,0,136.82,53a1.7,1.7,0,0,0-.74.17l-1-.92,0.34-.36-1-.87,0,0L133,49.58l0,0L132,48.75l-1.49,1.57,0.93,0.85,0,0L133,52.75l0,0,0.9,0.77,0.35-.37,1,0.91a1.63,1.63,0,0,0-.14.66,1.65,1.65,0,0,0,.84,1.44h0l1.71,0.09L136,56.13v0.09l1.69,0v0l1,0.94,0.23-.24-1,1,1,0.89,2.37-2.5Z"/><polygon class="cls-4" points="138.49 67.95 138.49 68.93 139.81 68.93 139.81 65.83 138.49 65.83 138.49 66.79 137.68 66.79 137.67 67.95 138.49 67.95"/><path class="cls-4" d="M119.86,83.34h0l-1.7,0a1.66,1.66,0,0,0-.76,1h-0.74V82.89h-1.33v3.76h1.33v-1.2h0.83a1.67,1.67,0,0,0,.67.73h1.72a1.67,1.67,0,0,0,.67-0.73l0.07-1.22A1.67,1.67,0,0,0,119.86,83.34Z"/><polygon class="cls-4" points="139.61 83.97 139.61 83.2 138.25 83.2 138.25 82.3 137.67 82.3 137.67 82.25 135.98 82.25 135.98 82.3 135.16 82.3 135.16 83.32 133.24 83.32 133.24 84.31 133.2 84.31 133.2 85.46 133.24 85.46 133.24 86.23 135.16 86.23 135.16 87.02 135.98 87.02 135.98 87.03 137.67 87.03 137.67 87.02 138.25 87.02 138.25 86.11 139.61 86.11 139.61 85.12 139.65 85.12 139.65 83.97 139.61 83.97"/><path class="cls-4" d="M155.65,94.1a8.43,8.43,0,0,0-6-6.82,0.41,0.41,0,0,1-.33-0.47q0-4.19,0-8.38a0.41,0.41,0,0,1,.22-0.42,0.56,0.56,0,0,0,.24-0.69,0.59,0.59,0,0,0-.56-0.43h-4.56a0.62,0.62,0,0,0-.32,1.15,0.33,0.33,0,0,1,.18.36c0,1.35,0,2.69,0,4q0,0.77,0,1.53h0v1.15h0c0,0.57,0,1.14,0,1.7a0.4,0.4,0,0,1-.33.45,8.52,8.52,0,0,0-6.06,7.4,8.15,8.15,0,0,0,2.19,6.7,8.83,8.83,0,0,0,11.73,1.28A8.22,8.22,0,0,0,155.65,94.1ZM139,95.56a7.68,7.68,0,0,1,1.82-5,8.12,8.12,0,0,1,4.63-2.73V78.13h3v0.34q0,4.44,0,8.88c0,0.48,0,.48.46,0.6a7.9,7.9,0,0,1,5.25,4.33,7.32,7.32,0,0,1,.71,2.82c0,0.14,0,.28,0,0.45H139Z"/><polygon class="cls-4" points="129.89 86.05 131.06 86.05 131.06 85.47 129.89 85.49 129.89 86.05"/><polygon class="cls-4" points="132.26 78.81 132.26 80.01 131.06 80.01 131.06 79.99 129.89 79.99 129.89 80.01 128.89 80.01 128.89 81.16 129.89 81.16 129.89 81.16 131.06 81.16 131.06 81.16 132.26 81.16 132.26 82.57 133.58 82.57 133.58 78.81 132.26 78.81"/><path class="cls-4" d="M127.6,79.62V76.79c0-1.38,0-2.77,0-4.15a0.36,0.36,0,0,1,.1-0.26,0.52,0.52,0,0,0-.3-1h-3.55a0.55,0.55,0,0,0-.55.37,0.56,0.56,0,0,0,.26.61,0.36,0.36,0,0,1,.13.25c0,1,0,1.93,0,2.9q0,2.05,0,4.11h0v2.15h0q0,1.27,0,2.54h0v1.15h0q0,0.78,0,1.56c0,1.59,0,3.19,0,4.78a1.95,1.95,0,1,0,3.89,0q0-3.15,0-6.3h0V84.31h0q0-1.27,0-2.54h0V79.62h0Zm-3.18,7.54v-1.7h0C124.43,86,124.42,88.52,124.42,87.16Zm0-2.85q0-4.61,0-9.22,0-1.2,0-2.4V72.43h2.47v0.25q0,5.82,0,11.63h-2.47Zm2.47,1.15h0q0,2.33,0,4.66C126.9,90.62,126.9,86.24,126.9,85.46Z"/><path class="cls-4" d="M145.5,61.92h-1.73V73.47h6.3V65.55h0V64.32h0v-2.4h-2.45v0H145.5v0Zm3.69,0.87v9.8h-4.53v-9.8h4.53Z"/><path class="cls-4" d="M147.56,39.91a8,8,0,0,0-15.31,3,7.74,7.74,0,0,0,2.1,5.3h0L136,49.52h0a8,8,0,0,0,4.22,1.19,7.89,7.89,0,0,0,8-7.83,7.74,7.74,0,0,0-.2-1.75h0l-0.37-1.21h0Zm-7.36,9.23a6.26,6.26,0,1,1,6.35-6.26A6.31,6.31,0,0,1,140.21,49.14Z"/><path class="cls-4" d="M83,69.53s0-.09,0-0.14l-1.23-.51V69l-0.29-.13L80.27,71.5,81.53,72l0,0,1.17,0.49,0,0,0.7,0.3,0.33-.73h0l0.82-1.91Z"/><path class="cls-4" d="M50.39,80h-1a0.43,0.43,0,0,0-.41.3,0.37,0.37,0,0,0,.16.47,0.26,0.26,0,0,1,.14.29q0,2.84,0,5.68a0.59,0.59,0,0,1-.08.28l-1.17,2-3.06,5.21a4.2,4.2,0,0,0-.71,1.91,1.93,1.93,0,0,0,.84,1.8,3.19,3.19,0,0,0,1.87.53h3.92c1.29,0,2.59,0,3.88,0a4.61,4.61,0,0,0,1-.12,2.11,2.11,0,0,0,1.68-2.75,5.57,5.57,0,0,0-.67-1.43l-4.18-7.15a0.62,0.62,0,0,1-.08-0.3c0-1.2,0-2.4,0-3.6,0-.7,0-1.4,0-2.1a0.31,0.31,0,0,1,.09-0.22,0.43,0.43,0,0,0,.21-0.51,0.44,0.44,0,0,0-.47-0.3H51.24v0H50.39v0Zm1.48,0.86v0.23c0,1.92,0,3.83,0,5.75a0.8,0.8,0,0,0,.11.38l4.41,7.53,0.05,0.11H45.25l0.1-.19,1.34-2.3,3-5.15a0.84,0.84,0,0,0,.11-0.4c0-1.9,0-3.81,0-5.71V80.91h2Z"/><polygon class="cls-4" points="67.32 47.66 67.32 49.08 68.65 49.08 68.65 45.31 67.32 45.31 67.32 46.51 66.11 46.51 66.11 47.66 67.32 47.66"/><path class="cls-4" d="M79.57,72.59a7.29,7.29,0,0,0-.09-1.15A8.89,8.89,0,0,0,73.19,64a0.35,0.35,0,0,1-.3-0.4c0-2.84,0-5.68,0-8.52,0-.28-0.07-0.59.31-0.71a0.25,0.25,0,0,0,.09-0.11,0.65,0.65,0,0,0-.6-1H68a0.64,0.64,0,0,0-.56.52,0.55,0.55,0,0,0,.27.65,0.43,0.43,0,0,1,.23.44q0,1.33,0,2.66H66.14v1.22h1.79q0,1.9,0,3.81c0,0.45,0,.9,0,1.28-0.5.22-1.2,0.5-1.83,0.82v0l-1.69,1.14V66c-2.1,2.05-2.3,2.81-2.33,2.89l-0.16.37v0s0,0,0-.05l-0.36,1.1,0,0a8.71,8.71,0,0,0-.06,4.56,8.91,8.91,0,0,0,1.81,3.61,9.06,9.06,0,0,0,1.07,1.08V79.5l1.69,1.09h0a9.15,9.15,0,0,0,7.77.38A8.83,8.83,0,0,0,79.21,75a9.29,9.29,0,0,0,.27-1.22h0l0.1-1.22h0ZM67.65,75.3a1.4,1.4,0,1,1,0-2.81A1.4,1.4,0,1,1,67.65,75.3Zm5.79-2.2A1.15,1.15,0,1,1,74.63,72,1.17,1.17,0,0,1,73.44,73.1ZM66.1,70v0H64.42v0H62.59c0.2-.44.37-0.85,0.57-1.24,0.05-.1.65-0.77,1.25-1.43v0.05l1.69-1.61V65.7a8.4,8.4,0,0,1,2.42-1,0.35,0.35,0,0,0,.31-0.41q0-4.65,0-9.3c0-.12,0-0.25,0-0.39H72v0.28q0,4.64,0,9.27c0,0.45,0,.46.43,0.57a8,8,0,0,1,4.66,3.14,17.06,17.06,0,0,1,1,1.89,0.8,0.8,0,0,1,0,.21H66.1Z"/><path class="cls-4" d="M71.17,84.77s-3.1,4.45-2.7,6c0.19,0.74,2.23,1.86,2.63,2.08h0.16c0.43-.22,2.59-1.36,2.78-2.14C74.44,89.15,71.17,84.77,71.17,84.77Z"/><path class="cls-3" d="M147,76.27c1.3,0,.21-2.33,0-2.33S145.7,76.27,147,76.27Z"/><path class="cls-3" d="M86.77,57.89c1.06,0,.17-1.91,0-1.91S85.67,57.89,86.77,57.89Z"/><path class="cls-3" d="M90.52,57.39c0.89,0,.14-1.61,0-1.61S89.59,57.39,90.52,57.39Z"/><path class="cls-3" d="M90.52,60.28c1.16,0,.19-2.09,0-2.09S89.32,60.28,90.52,60.28Z"/></g></svg>