<svg id="Body" xmlns="http://www.w3.org/2000/svg" viewBox="0 0 585 480">
    <defs>
        <style> .cls-1 {fill: #ce525c;}.cls-2, .cls-6 {fill: #fff;}.cls-3 {fill: #ce202e;}.cls-4 {fill: #961722;}.cls-5 {fill: #f2f2f2;}.cls-6 {font-size: 18px; font-family: Open Sans; font-weight: 700; } </style>
    </defs>
    <title>Image_Profil</title>
    <rect class="cls-1" y="360" width="292.5" height="120" />
    <path class="cls-2" d="M151,436.27c2.08-.84,5.57-5.5,6-8.69a8.43,8.43,0,0,0-1.92-6.4,58.85,58.85,0,0,0,.48-7.69c0-2.51-.64-4.69-0.92-7.51-0.55-5.5,2.06-8.41,2.52-8.37,1,0.08.87,0.79,0.94,2.6a5.42,5.42,0,0,0,6.06,5.17,10.91,10.91,0,0,0,5.08-3.13c1.44-1.81,3.88-6.22,4-9.69a25.21,25.21,0,0,0-.86-9c-0.72-2.45-4.28-6.15-6.5-6.67A7.74,7.74,0,0,0,160.2,378c-3,2.22-2.73,7.41-2.73,7.41l1.7,3.86a9.87,9.87,0,0,0-.89,2.91,3.37,3.37,0,0,0,.51,1.11c0.4,0.65.9,1.28,0.9,1.28s-2.55-1-3.46.38c-0.78,1.16-3.5,4.21-3.94,7.83-0.5,4.06.34,5.73,0.62,7.76a83,83,0,0,1,.16,9.31,6.11,6.11,0,0,0-4.6-2,26.12,26.12,0,0,0-4,.61,72.79,72.79,0,0,1,.83-8.66c0.43-1.87,1.38-3.37,1.18-7.19-0.18-3.4-2.68-6.44-3.37-7.57-0.8-1.32-3.42-.59-3.42-0.59s0.54-.55,1-1.13a3.07,3.07,0,0,0,.59-1,8.76,8.76,0,0,0-.68-2.77l2-3.48s0.66-4.81-2.19-7.09a8.16,8.16,0,0,0-5.64-1.38c-2.25.33-6.07,3.53-7,5.76a22.12,22.12,0,0,0-1.5,8.32c-0.12,3.25,2,7.52,3.3,9.31a10.94,10.94,0,0,0,4.84,3.27c1.72,0.42,6-.4,6.42-4.39,0.2-1.68.16-2.35,1.12-2.36,0.46,0,2.86,2.89,1.91,8-0.48,2.6-1.24,4.6-1.45,6.93a51.39,51.39,0,0,0-.07,7.2,9.62,9.62,0,0,0-3.89,7.63c-0.05,2.39,2.39,7.17,4.38,8.53C144.55,436.88,149.15,437,151,436.27Z" />
    <rect class="cls-3" width="585" height="360" />
    <path class="cls-2" d="M393.67,111c-3.12-6.71-13.32-28.66-45.15-35.4-7.88-1.66-23.62-4.41-40.47,4.52-9,4.76-29.4,23-29.4,23s-30-23.58-53-23C209.46,80.49,196,87.23,190.53,92c-19,16.38-22.21,37.79-22.21,55.3,0,20.09,7.88,35.51,19.08,57.42,11.54,22.55,46.69,51.46,77.44,69.57,15.75,9.28,31.29,8.69,35.88,5.62,28.52-19,48.08-27.33,73.12-54.92,17.07-18.81,26.69-52.24,27.5-67.95C402,144.3,398.95,122.31,393.67,111ZM262.28,180.49c-0.2,1-2.2,1.94-2.63,2.84a4.42,4.42,0,0,0-.44,2.3c0.23,0.76,2,1.36,2.2,2.14A2.07,2.07,0,0,1,261,189c-0.49.63-2.28,0.83-2.65,1.55-0.65,1.24.46,4.32,0.27,5.75a3.2,3.2,0,0,1-.55,1.66c-3.68,2.84-13.5.13-18,0-1.58-.05-6.12-0.07-7.43.88-2.71,2-4,7.15-4.39,10.7a56.81,56.81,0,0,0,.67,9.77c0.25,1.38.54,2.89-.32,3.94-2.69,3.25-9-2.73-12.6-4.76-1.47-.84-9.32-5.8-10-7.44-2.24-5.4,3.14-17.24,1.21-22.79a14.3,14.3,0,0,0-2.12-4.35c-2.86-4.28-9-12.93-10.18-18.08-1.28-5.69-.1-17.79,1.51-23.38,1.27-4.36,5.46-12.68,8.64-15.64,9.24-8.6,18-8.33,24.19-8.39,5.16,0,15,3.85,19.44,6.79,3.35,2.24,9.55,8.51,10.68,12.64,0.87,3.23-1.86,9.92-2.09,13.28-0.2,3-.78,9.27.25,12.07,0.79,2.18,5.53,4.62,5.77,7,0.15,1.48-2.54,3.71-2.66,5.19S262.57,179.17,262.28,180.49Zm68.95,60c-1.12,1.95-6.73,2.05-6.74-.25,0-6.84.72-9.91,1.36-15.19,0.43-3.51,1.11-9.07.87-12.61-0.23-3.32-3.11-6-5.74-6.77-3.43-1-8.72-.78-12.25-0.57-5.11.3-15.35,4-20.38,3-1.2-.25-4.5-1.9-5.11-3.06-1.49-2.85,2.73-10.16,1.5-13.15-0.59-1.44-4.37-2.32-4.52-3.89-0.2-2.11,4.28-4.11,4.18-6.24-0.07-1.62-3.2-3-3.64-4.52-0.67-2.32,2.89-7.12,2.17-9.41s-5.51-4.74-6.57-7A5.67,5.67,0,0,1,276,158c1.42-5,10.82-10.53,13.26-15,0.86-1.6,1-5.48,1.1-7.33,0.16-4.93-1.2-14.84-.64-19.74,0.53-4.62,2.62-13.85,4.76-17.87,1.35-2.53,8.81-10.88,7.44-8.37-1.93,3.56-1.72,9.63-.23,12.41,2.72,5.14,14.38,10.26,19.15,13.09,5.17,3,12.9,11.05,14.56,16.49,1,3.39-3.62,12.85-1.35,15.42,1.08,1.23,4.42-1.52,5.95-1.87a7.17,7.17,0,0,1,7.7,3.42c1.3,2,1,7.68.07,10-1.77,4.45-11.3,10.25-12.89,14.79-0.88,2.5,2.82,9.38,3.8,12.24,2.25,6.53,4.39,16.53,4.47,23.51,0.09,7.13-4.53,20.36-8.66,25.89C331.42,239.13,333.89,235.9,331.23,240.53Zm48-32.47a67.47,67.47,0,0,1-29,28.76c-3.2,1.56-10.84,7.46-12.83,4.29-3.15-5,4.74-7.39,7.57-18.53,0.87-3.4,2.51-12.2,2.39-15.72a84.5,84.5,0,0,0-3.09-19.31c-0.48-1.85-4.74-9-4-11.94,1.67-6.83,8.61-8,10.7-10.5a18.68,18.68,0,0,0,4-11.06,19.47,19.47,0,0,0-2.18-8.87,13.66,13.66,0,0,0-6.1-5.14c-2.49-1.05-7.15,1.48-7,.11,0.21-2.8,1.24-5.63.89-8.39-0.67-5.32-1.19-7.45-7.14-13.38-3.32-3.32-13.88-8.7-17.69-11.33-2.31-1.59-7.69-4.12-9.07-6.72-1-2-2-10.57,4.78-14.16A56.73,56.73,0,0,1,335,80.13c13-.57,32.11,7.83,39.92,14.69,14.26,12.51,19.81,32.35,21.08,45.83C397.65,158,393.76,180.73,379.18,208.06Z" />
    <rect class="cls-4" x="292.5" y="360" width="292.5" height="120" />
    <path class="cls-5" d="M463.45,398.55a23.11,23.11,0,0,0-8.27-15.91,23.76,23.76,0,0,0-13.36-5.74c-8.24-.81-15.4,1.62-21.15,7.5a22.13,22.13,0,0,0-6.29,12.78,23,23,0,0,0,4.07,16.93L414,418.37c-0.52-.55-1-1.1-1.53-1.6-1.32-1.26-2.68-2.49-4-3.75a2.27,2.27,0,0,0-3.24,0c-0.92.88-1.86,1.75-2.78,2.64a2.67,2.67,0,0,0-1,2.43,2.81,2.81,0,0,0,1.19,1.53c1.67,1.63,3.31,3.28,5,5-0.54.49-1.09,1-1.61,1.45-1.33,1.29-2.63,2.62-4,3.89a2.29,2.29,0,0,0,0,3.15c1.07,1,2.13,2,3.17,3.06a2.31,2.31,0,0,0,2.87.22c1.26-1.12,2.47-2.29,3.7-3.45,0.76-.72,1.51-1.45,2.28-2.19,0.7,0.71,1.32,1.36,2,2,1.18,1.12,2.4,2.19,3.56,3.32a2.38,2.38,0,0,0,3.29.11c1.06-1,2.13-2.07,3.2-3.1a2.07,2.07,0,0,0,.28-2.54,28.73,28.73,0,0,0-2-2.13c-1.29-1.3-2.6-2.57-3.88-3.83l4.29-4.21a25.08,25.08,0,0,0,17.74,3.91A23.72,23.72,0,0,0,458,415.82,22.65,22.65,0,0,0,463.45,398.55Zm-11.39,11.33c-3.27,4.15-7.63,6.45-14.24,6.51-2.54.17-5.81-1-8.59-3-4.58-3.38-7-7.9-6.71-13.62a14.63,14.63,0,0,1,3.5-8.93,16.14,16.14,0,0,1,12.92-6c8.94,0,16.28,7.14,16.31,15.84A14.64,14.64,0,0,1,452.07,409.88Z" />
    <g id="service_name">
        <text class="cls-6" transform="translate(232.47 343.95)">Педиатрия</text>
        <text class="cls-6" transform="translate(103.36 465)">Урология</text>
        <text class="cls-6" transform="translate(376.55 465)">Гинекология</text>
    </g>
</svg>