<svg id="Body" xmlns="http://www.w3.org/2000/svg" viewBox="0 0 585 480">
    <defs>
        <style>
        .cls-1 {
            fill: #961722;
        }

        .cls-2,
        .cls-5,
        .cls-6 {
            fill: #fff;
        }

        .cls-2 {
            fill-rule: evenodd;
        }

        .cls-3 {
            fill: #ce525c;
        }

        .cls-4 {
            fill: #ce202e;
        }

        .cls-6 {
            font-size: 18px;
            font-family: Open Sans;
            font-weight: 700;
        }
        </style>
    </defs>
    <title>Image_Profil</title>
    <rect class="cls-1" y="120" width="292.5" height="120" />
    <path class="cls-2" d="M166.61,162.48a8.19,8.19,0,0,1-1.95,3.63,17.65,17.65,0,0,0-2.93,4.4,9,9,0,0,1-1.1,1.72,3.36,3.36,0,0,1-5.37.25,8.31,8.31,0,0,1-1.17-2.18,0.74,0.74,0,0,1,.55-1.1,0.85,0.85,0,0,1,1,.69,5.34,5.34,0,0,0,1.13,1.79,1.54,1.54,0,0,0,2.4-.28c0.5-.66.88-1.39,1.33-2.08,0.78-1.2,1.49-2.45,2.38-3.58,1.2-1.52,2.28-3,2.21-5a4.61,4.61,0,0,0-4.26-4.33,4.5,4.5,0,0,0-3.76,1.83,14.89,14.89,0,0,0-1,1.52,0.73,0.73,0,0,1-1.05.31,1.08,1.08,0,0,1-.4-0.9c0.63-2.42,4.05-4.6,6.69-4.31A6.23,6.23,0,0,1,166.61,162.48ZM150.5,175.38c0.05,2.44,1.94,6,2.16,6.88,1.14,4.29,2.88,9,3.71,13.36,0,0.12.18,0.62,0.18,0.62l0,1.12,11.74-.08c0.67-1.49.15-4.09-.76-11.65a17.16,17.16,0,0,1,2.37-13.37c1.86-2.79,3.93-6.41,4.85-8.1,4.47-8.28,1.66-16.6-5.05-22-7-5.64-19.07-6.27-26.83-1.38-6.19,3.89-6.9,8-7.34,15.14a3.91,3.91,0,0,1-.54,2c-1.47,1.94-3.19,3.72-4.6,5.7-1.17,1.63-.7,3.23,1.09,4.17a21.22,21.22,0,0,0,3.31,1.11,4,4,0,0,1-.43.57c-1.88,1.9-2.34,3.93-.9,6.24a1.68,1.68,0,0,1-.09,1.4c-1.64,3.26-.68,6,2.8,7.41a25.93,25.93,0,0,0,4.82,1.21c2.2,0.4,2.29.38,2,2.57-0.28,2-.65,4-1.06,6-0.25,1.23,0,2.9,1.26,3.21l7.42-.05c0-.19-0.18-1-0.23-1.67a41.25,41.25,0,0,0-2.64-12.17c-1.05-2.66-2.89-4.09-6-4.75-2.89-.61-4.72-0.62-7.19-1a8.7,8.7,0,0,0,.46-1.47,4.73,4.73,0,0,0-.62-1.48c-0.25-.66-0.15-0.47-0.15-0.47,2.87,0.45,4.79.23,7.66,0.79a23.08,23.08,0,0,1,5.91,2.37c0.31,0.16,0-4.24-2-5.56a38.58,38.58,0,0,0-10.58-4.5,13.7,13.7,0,0,1-3.74-1.18,0.81,0.81,0,0,1-.29-0.89c0.18-.64.76-0.39,1.38-0.33,0.86,0.08,3.36.72,3.71,0.8,2.85,0.6,3.68.84,9.84,3.19,2.51,1,2.62,1.25,3.8.14,2-1.89,5.47-3.1,5.78-6.81,0.12-1.44,2.32-3,3.7-2.65a3,3,0,0,1,2.35,3.29,4.63,4.63,0,0,1-.57,1.63c-0.57,1-1.23,1.89-1.86,2.83a2,2,0,0,1-2.06,1c-0.94-.17-1.54-0.16-1.81-1C155.33,167.2,150.38,169.69,150.5,175.38Z" />
    <path class="cls-2" d="M150.56,197.44l6-.08-6,0v0Z" />
    <rect class="cls-3" width="292.5" height="120" />
    <path class="cls-2" d="M204.61,46.8A53.93,53.93,0,0,0,168.1,19.35a67.53,67.53,0,0,0-13.59-1.55c-2.1.15-4.2,0.32-6.3,0.46a54.54,54.54,0,0,0-12.49,2.41,51.25,51.25,0,0,0-14.67,7.15,54.33,54.33,0,0,0-16.8,18.93,2.14,2.14,0,0,0,.06,2.31c1.57,2.44,3,4.94,4.74,7.29A48.12,48.12,0,0,0,122,68.5,77.05,77.05,0,0,0,130.32,73a48,48,0,0,0,9.76,3.2,62.7,62.7,0,0,0,11.4,1.56,84.85,84.85,0,0,0,8.66-.25,53.6,53.6,0,0,0,13.6-2.66,51.92,51.92,0,0,0,15-7.6A52.07,52.07,0,0,0,204.56,49,2.67,2.67,0,0,0,204.61,46.8Zm-50.26,19c-10.72-.06-18.91-7.84-18.9-18s8.29-17.71,19.08-18c10.74,0.35,18.92,8,18.9,18S165.09,65.87,154.35,65.81Z" />
    <path class="cls-2" d="M152.55,36a12.41,12.41,0,0,0-6.45,2.82c-0.47.38-.55,0.69-0.06,1.15,2.06,1.9,4.1,3.83,6.13,5.76,0.64,0.61,1.25,1.24,2.11,2.1H141.84a10.5,10.5,0,0,0,2.1,6.71,13.14,13.14,0,0,0,13.9,4.83c7.1-1.9,11.06-9.07,8.54-15.56C164.22,38.29,158.83,35.28,152.55,36Z" />
    <rect class="cls-4" x="292.5" y="360" width="146.25" height="120" />
    <path class="cls-2" d="M383.68,406c1.54,1,3.13,1.89,4.62,2.92a37.44,37.44,0,0,1,4.14,3.19,9.08,9.08,0,0,1,3,8.92,27.37,27.37,0,0,1-6,12.26,10,10,0,0,1-2.64,2.06,5.65,5.65,0,0,1-4.76.24,1,1,0,0,1-.48-0.54,9.29,9.29,0,0,1-.41-5c0.34-2,.83-3.94,1.24-5.91a14.4,14.4,0,0,0,.28-2.32c-1.11,3-2.44,5.88-3,9a9.19,9.19,0,0,0,.31,5c-0.31.08-.58,0.16-0.86,0.21a11,11,0,0,1-5.42-.49c-5.46-1.72-10-4.53-13.3-8.91a18.39,18.39,0,0,1-3.92-11.94,21.83,21.83,0,0,1,.28-2.41,1.14,1.14,0,0,1,.34-0.53,15.87,15.87,0,0,1,5.89-3.6c1.05-.42,2.1-0.86,3.11-1.36a4.4,4.4,0,0,0,1.2-1c-3.48,1.15-7.15,1.88-10.24,4a8.37,8.37,0,0,1-.3-0.83,12.19,12.19,0,0,1,.09-5.84,15.48,15.48,0,0,1,3.37-6.85,10.84,10.84,0,0,1,1.42-1.33,6.39,6.39,0,0,1,6.57-1,6.33,6.33,0,0,1,4.43,4.87,1.83,1.83,0,0,1-.56,1.85,5.61,5.61,0,0,0-1.16,1.66l0.62-.56A27.6,27.6,0,0,1,378,397.7c0.71-.35,1.41-0.73,2.08-1.14a2.86,2.86,0,0,0,.78-0.75,3.77,3.77,0,0,1,4.47-1.25,2,2,0,0,1,1.49,1.85,1.68,1.68,0,0,0,1.25,1.63c1.49,0.58,3,1.17,4.42,1.85a15.56,15.56,0,0,1,2.22,1.46,0.59,0.59,0,0,1,.25.48,6.16,6.16,0,0,1-1.32,2.53l-0.58-.42a13.24,13.24,0,0,0-11.17-2.15c-4.28,1.1-7.05,5-6.35,8.8a8.65,8.65,0,0,0,2.68,4.47c1.13,1.13,2.31,2.22,3.56,3.43a3.91,3.91,0,0,0-.35-0.93c-0.61-.84-1.27-1.64-1.89-2.47a18.77,18.77,0,0,1-2.07-2.9c-2-4.22,1.42-9.21,6.5-9.54a13.19,13.19,0,0,1,8.31,2.4,0.9,0.9,0,0,1,.33.4,10.78,10.78,0,0,1-.11,5.35,30,30,0,0,0-8.71-4.95Z" />
    <path class="cls-2" d="M373.74,399c0-.1,0-0.21-0.06-0.33a5.67,5.67,0,0,0-2.27-3.9,0.68,0.68,0,0,1-.23-0.61,11.67,11.67,0,0,1,4.5-5.91,7.9,7.9,0,0,1,6.81-1.29,0.76,0.76,0,0,0,.62-0.13,4.25,4.25,0,0,0,.85-1.32,8.55,8.55,0,0,0,0-4.07c-0.14-.78-0.05-0.88.82-1a4.38,4.38,0,0,1,.83,0,0.74,0.74,0,0,1,.85.75c0,1.06,0,2.12,0,3.17,0,0.89-.14,1.77-0.12,2.65a1,1,0,0,0,.46.83,1.45,1.45,0,0,0,1.1-.36,14.38,14.38,0,0,0,1.31-2c0.4-.7.74-1.43,1.1-2.15a0.69,0.69,0,0,1,.93-0.38,11.21,11.21,0,0,1,1.47.78c0.33,0.2.31,0.43,0.09,0.73-0.7.95-1.35,1.92-2,2.88a2.11,2.11,0,0,0-.09,2.42c0.49,0.88,1,1.73,1.51,2.62a6.13,6.13,0,0,1,.29,5.6c-0.12.28-.26,0.56-0.43,0.93-1.34-.61-2.59-1.18-3.83-1.78a0.72,0.72,0,0,1-.27-0.54c-0.13-1.79-1.36-2.7-3.14-3a4.8,4.8,0,0,0-4.64,1.73,2.51,2.51,0,0,1-.8.8C377.48,397,375.63,398,373.74,399Z" />
    <path class="cls-2" d="M369.57,393.56a8,8,0,0,0-5.5-.65c0.07-.5.11-0.91,0.19-1.31a11,11,0,0,1,3.7-6.13c1.61-1.43,1.82-2.47.84-4.33a10.49,10.49,0,0,0-1.41-1.92,0.85,0.85,0,0,1,0-1.34,10.11,10.11,0,0,1,1.87-1.43,0.85,0.85,0,0,1,1.32.47,11.84,11.84,0,0,0,5.43,5.22c1.22,0.67,2.56.44,3.88,0.38,1,0,2.09,0,3.13-.08a0.5,0.5,0,0,1,.6.52,4.73,4.73,0,0,1-.64,3,0.56,0.56,0,0,1-.71.31,10.09,10.09,0,0,0-10.83,4.24C370.72,391.44,370.21,392.48,369.57,393.56Z" />
    <path class="cls-2" d="M380.64,382.21c-0.79-.13-1.58-0.25-2.37-0.4a0.46,0.46,0,0,1-.29-0.26c-0.17-.54-0.31-1.08-0.44-1.63a0.49,0.49,0,0,1,.09-0.38c0.39-.51,2.09-0.47,2.35.11a24.66,24.66,0,0,1,.84,2.4Z" />
    <rect class="cls-4" x="292.5" width="292.5" height="240" />
    <path class="cls-2" d="M510.86,100.08a24,24,0,0,0-8.41-7.2c-16.24-8-32.79-8.06-49.4-.89-0.76.33-1.53,0.64-2.26,1-6.79,3.42-10.71-.17-13.31-4.55-3-5.07-4.1-10.8-4.3-16.52l-20.53,7c0.68,8.11,3.95,15.48,8.86,22.07,3,4,6,8.09,6.74,13.21,1,6.8.59,13.57-2.38,19.8a105.85,105.85,0,0,1-8.54,14.61c-5.7,8.26-14.22,12-23.86,13.68-3.51.62-7,1.37-10.48,2.18-9.24,2.17-15.49,7.8-18.33,16.73l17.21,10.76c0.52-4.49,3.57-6.78,7.37-8.35,5.7-2.35,11.67-2.29,17.59-1.26,10.74,1.86,21.36,4.72,32.17,5.77,21,2,41.2-.93,57.45-15.51,11.31-10.14,19.34-23,22-38.21C520.7,122.09,518.33,110.33,510.86,100.08Zm1.09,35.16-78.66-.4c2.93-6.17,3.36-12.88,2.36-19.61-0.77-5.08-3.72-9.11-6.69-13.09a42.56,42.56,0,0,1-8.78-21.86c-0.05-.58,8.88-4.1,8.88-4.1a32.06,32.06,0,0,0,4.85,15.67c2.57,4.34,8.69,11.27,15.42,7.88,0.73-.36,29.94-10.6,46-2.69,3.2,1.57,8,2.91,10.1,5.8C512.85,113,514.1,123.07,511.95,135.24Z" />
    <rect class="cls-3" y="240" width="292.5" height="240" />
    <path class="cls-2" d="M152.13,334.07l-5.46,2,5.77,0.58C152.34,335.84,152.22,334.83,152.13,334.07Z" />
    <path class="cls-2" d="M139.92,334.42l7-2C144.47,332.42,141.75,331.64,139.92,334.42Z" />
    <path class="cls-2" d="M136.36,326.75c-3.56-1.93-5.73,1.16-8.61,1.69l0.19,0.7Z" />
    <path class="cls-2" d="M135,333c-1.24-2.13-1-3.49,1.3-4.2s5.07-.12,6.43-3.07c0.52-1.12,2.74-1.54,4.18-2.27l-0.33-.65c-1.89.91-4.31,1.42-5.52,2.84a4.63,4.63,0,0,1-3.42,1.78c-2.44.3-4.69,1-5,3.75-4.71,0-7.82,2.86-7.72,6.91C128.09,332.41,129.32,331.74,135,333Z" />
    <path class="cls-2" d="M127.24,346.13c0.46-2.3,2.9-2.33,4.84-2.65,2.1-.34,3.9-1,5.08-2.83,0.77-1.16,1.62-1.09,3-.45a14.4,14.4,0,0,0,6.16,1.77c2.92-.08,5.81-1,8.7-1.63a4.77,4.77,0,0,0,3.93-4.22,32.62,32.62,0,0,1,1.09-3.53l2.22,1.45c-0.63-3.47,3.33-1.55,3.94-3.53l-5,.81,0.61-5.43-0.44-.15c-0.42.67-1.22,1.34-1.2,2,0.09,2.71-1.74,4.83-2.28,7.24-0.63,2.84-2.2,3.93-4.86,4.4-1.08.19-2.15,0.48-3.22,0.75-3.25.82-6.35,0.9-9.22-1.17a2.7,2.7,0,0,0-4.17.73,7,7,0,0,1-5.25,3,9,9,0,0,0-2.81,1.1,4.31,4.31,0,0,1-6.06-1.64,18.57,18.57,0,0,0-2.18-2.39,3.14,3.14,0,0,0,.67,1.65c0.8,2,1.69,3.85,4.38,4.14a2.07,2.07,0,0,1,.76,1.55c0.23,4.05,1.75,5.59,6.49,6.13a12.79,12.79,0,0,0-1.41-.89C127.55,350.8,126.56,349.48,127.24,346.13Z" />
    <path class="cls-2" d="M157.46,334c-1.53-1.45-3.28-2.49-4-4s-0.4-3.37-.53-5C150.1,326.89,151.12,332,157.46,334Z" />
    <path class="cls-2" d="M185.46,345.45l-5.68,4.72C182.94,350.29,185.08,348.58,185.46,345.45Z" />
    <path class="cls-2" d="M188.73,336.19c0.65-.95,1.74-1.63,3.34-3.07-1.56.44-3.22,0.43-3.67,1.13-1.18,1.81-2.37,3.34-5.51,3.52C186,338.7,187.42,338.11,188.73,336.19Z" />
    <path class="cls-2" d="M159.62,322.15a6.51,6.51,0,0,0,5.43.76c-1.8-.81-3.61-1.65-5.44-2.44s-4.29.1-4.72,1.25C156.39,321.81,158.44,321.38,159.62,322.15Z" />
    <path class="cls-2" d="M174.46,374.87L171,378.52l0.82,0.66,3.34-3.91Z" />
    <path class="cls-2" d="M171.76,338.14l4.29,4.76,2.41-6-0.13-.42-2.94,3.22Z" />
    <path class="cls-2" d="M163.83,337.78c5.44,0.72,8.57-1.91,9-6.78a5.07,5.07,0,0,1,2.42-3.48c1.9-1,4.21-1.29,6.22-1.85-3.18-1.92-5.19-1.44-9.32,2.3l-3.53-3.19-0.48.42c2.3,2.22,4.13,4.6,2.94,7.94S167,337.24,163.83,337.78Z" />
    <path class="cls-2" d="M141.54,359.52l4.17-4.38c-2.61,0-3.48.47-6.06,3.75l-3.94-.15a25.94,25.94,0,0,1,10.24,8.89c0-.75.08-1.46,0.12-2.23l1.92-.47C144.17,364.78,143.57,361.36,141.54,359.52Z" />
    <path class="cls-2" d="M191.12,355.69a21.85,21.85,0,0,1-3.3,1.77c-2,.68-4.22.83-5.55-1s-0.09-3.37,1.2-4.75c1-1,2-2,3-3l-0.49-.52c-1.24,1-2.51,2-3.7,3.12-4.92,4.47-14.55,5.89-20.57,2.89a2.64,2.64,0,0,1-1.43-1.93,3.09,3.09,0,0,1,1.6-2.19c4.07-1.51,8-3.22,12.77-2.35,3.45,0.63,5.45-2.1,4.78-5.69-2.37,5-2.4,5.14-5.68,4.55a6.23,6.23,0,0,1-3.28-1.82c-0.85-.94-1.14-2.32-2-4.16a11.9,11.9,0,0,0-.29,3.16A8.35,8.35,0,0,0,169.4,346c-1.88.66-3.58,1.41-5.36,1.84a12.67,12.67,0,0,1-4.92.57c-8.06-1.43-15.34.65-22.27,4.22-1.5.77-2.6,2.24-3.88,3.38a35.19,35.19,0,0,1,27.16-6c-1.82,4.05-1.38,4.53,6.1,7l-2.8,3.21,0.19,0.28,3.3-1.85-0.22.64L181.89,366c0-1.18.05-1.87,0.07-2.57-6.24.95-10.1-2.89-14.9-6.37a62.56,62.56,0,0,0,7,0,51.56,51.56,0,0,0,6.07-1.45c0.94,2.61,2.39,3.72,5.13,3.8A6.07,6.07,0,0,0,191.12,355.69Z" />
    <path class="cls-2" d="M190.07,361a1.73,1.73,0,0,0-.33.57l3.34-.61,0.21,1.93,3.64-4.07,0.37-3.32,1.93,1.28a35.73,35.73,0,0,1-.84-4.58,24.66,24.66,0,0,1,.39-3.89l-0.83-.13c-0.33,1.33-.7,2.65-1,4a7.82,7.82,0,0,1-.17,1.84C195.31,356.92,194.4,360.42,190.07,361Z" />
    <path class="cls-2" d="M168.25,363.72c-2.19,1-3.45.61-5.55-1.88-2.31,2.35-6.59,2.39-9.42.46-1-.7-2.68-0.59-3.91-0.82,1.26,1.07,3.25,2,3.22,2.89-0.06,1.27-1.58,2.48-2.86,4.24,1.42-.87,2.88-1.25,3.23-2.06,1.18-2.74,3.13-2.58,5.54-2a10,10,0,0,0,3-.11,7.14,7.14,0,0,1,1.64-.11c3.23,0.66,6.45,1.37,9.67,2.07,0-.13,0-0.25,0-0.38Z" />
    <path class="cls-2" d="M191,340.81c-1.6.2-3.07,1.29-4.6,2l0.42,1c2.83-3.37,6.62-1.24,10-2.22A16,16,0,0,0,191,340.81Z" />
    <path class="cls-2" d="M189.75,320.68c-16.81-11.6-48.12-10.35-65.24.27-21.74,13.48-17.16,34.25-13.89,35.5,1.24,0.47.62,5.56-1.45,9.35a81,81,0,0,1-6.7,11.1c-5.84,7.88,2.44,6.88,6.88,6.73,1.71-.06-0.62,3.86-0.79,6.84-0.27.33,3.34,2.35,2.92,2.7-6.47,5.5,3.93,7.15,2.85,9.77-2.73,6.61-3.27,12.82,6.7,12.53,3.87-.11,8.88-1.78,12.41-2.18,3.83-.43,3.21,8.22,3.6,12.69,0.32,3.75.26,5.54,3.33,6.22l15.09,0.27,6.82-.49,26.17,0.49c1.48-2.93-.1-8-2.76-23.08-2.34-7.23-4.06-15.63,6.41-26.54,4.78-5,8.54-13.24,10-16.82C209.71,347,205.94,331.85,189.75,320.68Zm10.31,35.95c-1.16,7.73-6.71,12.32-15,12.22a6,6,0,0,0-2,.17l2.7,0.41c0.83,5.94-5.4,11.18-10.78,10.16-2.78-.53-2.48,2.23-4.35,1.68-0.61-1.63-1.13-3.39-1.92-5s-1.87-3.24-2.81-4.84c2.29-1.46,3.6-1.5,10-.69l-1.1-.83,6.06-.58c0-.15,0-0.31,0-0.46-1.9.16-3.79,0.41-5.7,0.45-4.16.08-8.32,0-12.47,0.1a6.5,6.5,0,0,0-1.82.59c2.13-.39,3.24.58,4.49,2.21,4.85,6.4,5,13.73,5.58,21.39a33.25,33.25,0,0,0-3.37-.32,2.36,2.36,0,0,1-2.73-2.15c-0.43-2.12-1.15-4.18-1.68-6.28a28.08,28.08,0,0,0-6.27-12.22,4.55,4.55,0,0,1-.54-1.83c-2.11.19-4.21,0.41-6.33,0.55a18.4,18.4,0,0,1-16.35-7.23c-1.31-1.66-1.34-4.21-2-6.6-2-.42-4.79-0.82-7.44-1.59a13.52,13.52,0,0,1-7.51-5.87,4.93,4.93,0,0,1-.57-5.25,2.4,2.4,0,0,0,.32-1.35c-0.72-4.37,1.44-7.66,4.27-10.8,4.91-5.46,11.64-7.75,18.34-10.51,4.37-1.8,8.85-2.15,13.23-3,5-.91,10.34-1,15,1.82a6.06,6.06,0,0,0,1.88.57c3.62,0.78,7.38,1.19,10.82,2.42,2.31,0.82,4.18,2.77,6.23,4.23a4.37,4.37,0,0,0,.87.84c4.28,1.22,6.09,4.8,8.19,7.93C199.27,342.93,201.13,349.46,200.06,356.62Z" />
    <path class="cls-2" d="M149.59,344.1l-8.37,1.68C142.9,346.87,146.85,346.2,149.59,344.1Z" />
    <path class="cls-2" d="M151.51,353.69l-4.07,3.48C150.52,357.72,150.9,355.56,151.51,353.69Z" />
    <path class="cls-2" d="M151.07,344.54l5.67-2.25-0.35-.8-5.8,2.12Z" />
    <path class="cls-2" d="M156.9,344.11l6.79,0.68C161.47,344.15,159.38,341.26,156.9,344.11Z" />
    <path class="cls-2" d="M138.22,346.18c-1.07,1.33-2.17,2.63-3.26,3.94a20.79,20.79,0,0,0,4.71-3.44c1.39-1.25,1-2.11,0-2.57C139.05,345,138.68,345.6,138.22,346.18Z" />
    <path class="cls-2" d="M154.85,357.11L146,360.38l0.37,0.38c1.61-.26,3.23-0.5,4.84-0.79A4.39,4.39,0,0,0,154.85,357.11Z" />
    <rect class="cls-1" x="292.5" y="240" width="292.5" height="120" />
    <path class="cls-5" d="M467.5,304.11c-2.78-3.11-3.21-4.38-7.32-4.19s-4.38-.74-7.91-2.6a5.72,5.72,0,0,1-2-2.29,21.25,21.25,0,0,1-1-7.39c0-2.37,2.54-2.19,3.59-5.95,0.46-1.64.7-4.17,1.6-5.61,0.22-.35-0.22-1.15-0.42-1.72s-0.54-.87-0.66-1.34a43.18,43.18,0,0,0-1.42-5.86c-1.45-3.56-7.18-7.1-10.87-7.11s-10.91,3.54-12.38,7.08a36.72,36.72,0,0,0-1.41,6,1.9,1.9,0,0,1-.28,1c-1.57.66-.93,1.71-0.57,2.73a67.48,67.48,0,0,1,2.27,6.61c0.12,0.54,2,1.6,2.59,2.17,1.53,1.58.72,5.1,0.6,7.91-0.09,2-2.29,3.2-4,4-3.75,1.81-4.29,2.46-8.42,2.35-3.64-.1-3.66,1.26-6.13,3.94-0.49.53,3.3,14.18,5.74,16.17l40.71,0C462.45,317.87,468.05,304.73,467.5,304.11ZM448,290a20.63,20.63,0,0,1-.48,3.44,10.2,10.2,0,0,1-.9,3.07c-0.72,1.81-2.75,1.81-4.18,1.09s-0.25-1.33-1.44-1.29c-0.52,0-1.49,1.29-2.19,1.83s-1.44.48-3.17-.54c-1.58-.93-2-3.1-2.22-5.3a20.62,20.62,0,0,1-.22-3.42,4.08,4.08,0,0,1,.36-2.15l0.26-.16c0.48-.3,1.38,2,2.25,2.52,2.11,1.29,3.28,3.06,4.12,3.49,0.09,0-.31-8.62-0.31-8.62H442l-0.23,8.57a17,17,0,0,1,3-2.78c0.95-.55,1.17-1,1.83-2.45s1.18-.75,1.42-0.27S448.17,288.32,448,290Z" />
    <rect class="cls-3" x="438.75" y="360" width="146.25" height="120" />
    <ellipse class="cls-5" cx="505.34" cy="430.76" rx="1.27" ry="1.23" />
    <path class="cls-5" d="M507,421.28a13.37,13.37,0,0,0-1.38.52C506.14,421.61,506.89,421.34,507,421.28Z" />
    <path class="cls-5" d="M504.1,422.62l1.1-.61C504.82,422.2,504.45,422.4,504.1,422.62Z" />
    <path class="cls-5" d="M525.88,421.68c-0.35-.14-0.68-0.26-1-0.36Z" />
    <path class="cls-5" d="M526.05,421.75l-0.17-.07Z" />
    <path class="cls-5" d="M530,424.31a16.77,16.77,0,0,0-3.87-2.53c0.28,0.12,1,.51,1,0.51,0,0.7,0,1.57,0,2.8,0,0.45,2.39.81,2.49,2.71,0,1,0,1.47,0,2.43a3.38,3.38,0,0,1,0,1.18,1.81,1.81,0,0,1,.85,1.51,2,2,0,0,1-4,0,1.71,1.71,0,0,1,1-1.51v-0.24c0-.61,0-1.18,0-1.49a2.11,2.11,0,0,0-.41-1.53,2.21,2.21,0,0,0-1.27-.83,5.28,5.28,0,0,0-2.72.1,1.66,1.66,0,0,0-1.37,1.95c0,1.09-.07,1.1,0,1.72v0.27a1.81,1.81,0,0,1,1,1.58,2,2,0,0,1-4,0,1.84,1.84,0,0,1,1.24-1.7c-0.11,0-.2,0-0.19,0,0.08-1.09,0-2.83,0-3.32,0.23-1.45,1.08-1.77,2.17-2.09,1.48-.43,2.88-0.55,2.88-0.65,0-1,0-3,0-3.8a9.25,9.25,0,0,1-2-.77c-0.48-.29.49-2.46,0.82-3.67,1,0.43,5.93-.31,7-1a6.7,6.7,0,0,0,3.46-5.06,26.49,26.49,0,0,0-.09-4.61,21.15,21.15,0,0,0-4-11,1.3,1.3,0,0,1-.24-1.27c0.95-3.28,1.83-3.77,2.83-7a4.59,4.59,0,0,0-.23-3.27c-1.09-2.62-3.33-4.13-5.93-5.28-0.21-.1-1-0.5-1.2-0.57a25.22,25.22,0,0,0-6.53-1.4c-5.49-.42-10.79.06-15.58,2.92a9.15,9.15,0,0,0-4.05,4.58,3.8,3.8,0,0,0-.08,2.76c1.17,3.38,2.24,4,3.37,7.37a1.3,1.3,0,0,1-.19,1.27,22.53,22.53,0,0,0-4.06,14.88,6.11,6.11,0,0,0,1.39,3.79,12.33,12.33,0,0,0,5.22,3.52c0.22,0.09,4.22-.08,4.22-0.08s1,3.21.55,3.28a15.12,15.12,0,0,0-2.46.55v6a3.62,3.62,0,0,1,2.29,3.3,3.92,3.92,0,0,1-7.82,0,3.66,3.66,0,0,1,2.45-3.37v-4.54c-5.59,3.53-7.23,7.94-7.07,13.62h38.63A15.6,15.6,0,0,0,530,424.31ZM501.87,389.5c-0.87-2-2-3.6-1.81-4.35a8.08,8.08,0,0,1,2.41-4,16,16,0,0,1,7.63-3.3,30.27,30.27,0,0,1,8.38-.4,24.34,24.34,0,0,1,6.75,1.46,11.23,11.23,0,0,1,5.4,3.9,4.51,4.51,0,0,1,.78,4.23c-0.88,2.66-1.56,2.56-2.32,5.25-0.06.18-.13,0.36-0.22,0.63-3.34-3.91-7.78-5.31-12.82-5.35s-9.49,1.32-12.83,5.19C502.81,391.59,502.35,390.59,501.87,389.5Zm14.49,33.75c-1.28,0-1.64-4.54-1.64-4.54s-3.78.09-4-1.19a11,11,0,0,1-.13-2.8,1.28,1.28,0,0,0-.63-1.2,12.92,12.92,0,0,1-4.86-7l-0.19-.63c-1.48,0-1.84-.36-1.87-1.77,0-1.25,0-2.51.05-3.76,0-.55-0.41-1.64.16-1.65a6.68,6.68,0,0,0,3-.74c3.69-2.09,2.1-2.43,3.29-7.19,0-.17.09-1.67,0.18-1.87l0.85,1.56c4.27,8.46,9.59,8.48,14.26,8.07,1-.09,2.71-0.6,3-0.57,1,0.12.63,2,.66,2.88q0.07,1.9,0,3.81a1.38,1.38,0,0,1-1.6,1.41,35.26,35.26,0,0,1-2,4.08,32.17,32.17,0,0,1-2.72,3.09,1.46,1.46,0,0,0-.41.82,29.64,29.64,0,0,1-.1,3.58,14.75,14.75,0,0,1-3.49.89S517.87,423.29,516.36,423.25Z" />
    <polygon class="cls-5" points="514.77 386.56 516.84 386.56 516.84 383.68 519.94 383.68 519.94 381.75 516.84 381.75 516.84 378.87 514.77 378.87 514.77 381.75 511.67 381.75 511.67 383.68 514.77 383.68 514.77 386.56" />
    <path class="cls-5" d="M505.34,421.94l0.32-.14-0.26.11Z" />
    <path class="cls-5" d="M507,421.28h0Z" />
    <path class="cls-5" d="M504,422.68h0l0.11-.06Z" />
    <path class="cls-5" d="M526.05,421.75l0.06,0h0Z" />
    <g id="service_name">
        <text class="cls-6" transform="translate(45.12 221.5)">Оториноларингология</text>
        <text class="cls-6" transform="translate(77.48 105.5)">Офтальмология</text>
        <text class="cls-6" transform="translate(96.45 463.5)">Неврология</text>
        <text class="cls-6" transform="translate(351 221.5)">Гастроэнтерология</text>
        <text class="cls-6" transform="translate(476.9 464.5)">Терапия</text>
        <text class="cls-6" transform="translate(302 463.5)">Кардиология</text>
        <text class="cls-6" transform="translate(360.14 345.33)">Эндокринология</text>
    </g>
</svg>