<svg xmlns="http://www.w3.org/2000/svg" viewBox="0 0 39.52 58.64"><path fill="#fff" d="M15.32.79a34.46 34.46 0 0 0 1.58 3.59c-.26-1.43-1-2.25-1.36-3.59-.09-.01-.17-.15-.22 0zM10.45 15.82c0-.58.36-1.68 0-2.17.1.78-.2 1.54 0 2.17z"/><path fill="#fff" d="M10.09 15.73a2.56 2.56 0 0 0 .07-2c.05.75-.16 1.27-.07 2zM12 13.81c.08 1.73.05 3.79.07 5.34a17.08 17.08 0 0 0-.07-5.34zM11.31 17.15a24.73 24.73 0 0 0 .07-3.09c-.09 0-.07-.15-.14-.17.11.99.06 2.16.07 3.26zM11.1 16a3.94 3.94 0 0 0-.1-2 10.71 10.71 0 0 0 .1 2zM11.67 18.49a14.18 14.18 0 0 0 .07-4.42c.12 1.58-.2 3.1-.07 4.42zM13 18.57a17.87 17.87 0 0 0 0-3.42c.05 1.19-.2 2.43 0 3.42zM30.35 21.16c.56-1.19-1.23-2.39-1.29-1.17-.06.49.78 1.01 1.29 1.17zm-.21-.33c-.26-.34-.73-.43-.79-1a1 1 0 0 1 .79.99zM26.92 25.5a7.09 7.09 0 0 0 .22 2.25c-.14-.64-.09-1.9-.22-2.25zM23.05 31.43c0 .22-.21.32-.29.5.24.02.44-.38.29-.5zM15.68 35.18c-2.08 2.28-4.52 4.59-6.09 7.18a82.1 82.1 0 0 1 6.16-7c.02-.12.11-.18-.07-.18zM17.47 36.35a40.15 40.15 0 0 0-5.37 6.26 67.52 67.52 0 0 1 5.44-6.09c.01-.11.11-.17-.07-.17zM33.92 51.73a2.84 2.84 0 0 0-.52.56 4.32 4.32 0 0 0 .52-.56zM32.66 39.82zM16.75 46.62c.5.92 1.09 1.73 1.65 2.59-.31-.86-1.23-1.73-1.57-2.84.83.92 1.42 2.13 2.29 3-.57-1.17-1.46-2-2.08-3.09 1.08-1.61 2.55-2.75 3.65-4.34-1.31 1.17-2.67 3-4.08 4.34 0 .25-.19.28-.21.5.21.07.13-.23.35-.16zM28.15 38.43c-.14.18-.27.36-.41.57a3.71 3.71 0 0 0 .41-.57zM23.7 50.75c-.12-.21-.24-.43-.37-.63a5.4 5.4 0 0 0 .37.63z"/><path fill="#fff" d="M17.54 46.62A18.08 18.08 0 0 0 20 43.95c-.28.3-.58.58-.8.84-.61.69-1.2 1.28-1.66 1.83zM20 43.9zM28.35 32.76a1.13 1.13 0 0 1 .06-.14.46.46 0 0 0-.06.14z"/><path fill="#fff" d="M39.52 32.18c-.64-1.66-1.92-2.83-2.86-4.34a81.14 81.14 0 0 0-7.59-10.52 12.65 12.65 0 0 0-1.72-1.92 14.76 14.76 0 0 1-2.94-2.09 4.79 4.79 0 0 1-1.36-4.17c-1.21-1.45-2-3.45-3.37-5.26A17.94 17.94 0 0 0 17.83 2C17.2 1.44 16.68.35 16 .12a5.07 5.07 0 0 0-2.22 0A23.7 23.7 0 0 1 11 .88 16.49 16.49 0 0 0 8.59 2C5.13 4 1.91 6 0 9.64c.27 3 .16 5.93.29 8.76a71.5 71.5 0 0 0 .79 8.26c.85 5.27 1.87 10.14 2.51 15.44 2.63 1.43 5.23 3 7.95 4.51s5.6 2.67 8.52 3.92c4.31 1.84 8.67 3.76 13 5.59 1.48.63 3 1.08 4.44 1.75.47.22.78.65 1.22.75.31-4.2.57-8.49.57-13.19s-.42-9.25.23-13.25zM13.6.62c.41 1.08.94 2 1.36 3.09-.18.13-.42.17-.5.42a17.34 17.34 0 0 1-1-2.09c0 .88 1.33 1.91.57 3-.65-1.25-1.11-2.72-1.79-3.92.27-.38.93-.3 1.36-.5zm2.72 5.51a5.37 5.37 0 0 1 .43 1.25c-1.44-.08-1.48-1.78-2.15-2.76 0-.38.28-.4.43-.58a15.34 15.34 0 0 1 1.29 2.51c.21-.07-.09-.21 0-.42zm-.79-2c.58.27.72 1 1 1.67a11.1 11.1 0 0 1-1-1.67zM15 5.72c-.5.06-.69-.52-.5-1 .26.17.32.63.5 1zM.86 9c.22.27.28.74.57.92 0-.53-.54-.79-.36-1.25.41.31.46 1 .79 1.42.06-.47-.65-1.17-.5-1.75.56.33.49 1.37 1 1.75a4.36 4.36 0 0 0-.86-1.87C3.89 5 7.21 3 11.31 1.38c.63 1.6 1.37 3.08 1.93 4.76C13 4.43 11.94 3 11.45 1.29a2.17 2.17 0 0 1 .72-.29c.83 2.09 1.73 4.1 2.65 6.09.08-.26-.32-.68-.36-1.08.17 0 .27.13.5.08.3.8.82 1.91 1.79 1.67 1.36-.33.27-4.4-1.07-4.17-.33-.9-.85-1.57-1.15-2.5-.05.9.93 1.74.93 2.59-.55-.14-.76-.91-1-1.42a18.38 18.38 0 0 1-.72-1.72 4 4 0 0 1 1-.08 18 18 0 0 0 1.43 3.09 13.88 13.88 0 0 0-1.36-3c.22-.19.74 0 1.07-.08a53.57 53.57 0 0 0 2.29 5.26C17.54 3.85 16.72 2.19 16 .37c2 2.19 3 5.29 4.22 8.26s2.58 5.9 3.58 8.93a46.27 46.27 0 0 0-2.9-7.67 63.18 63.18 0 0 0-3.22-7.43c1.19.64 1.94 2.52 2.65 4A8.45 8.45 0 0 0 19 3.63c1.29 1.44 2.36 3.87 3.72 5.51 0 .29 0 1-.21.83 0 1.64 1.23 2.75 1.79 3.84 0 .06.84.65 1.07.84a14 14 0 0 0 1.65 1 12.62 12.62 0 0 1 1.86 2.09 45.93 45.93 0 0 1 5.73 7.76 7.4 7.4 0 0 1 1.57 2.34c.85 1.41 2.1 2.4 2.79 4.09-2.84-1.08-5.61-3-8.66-4.09V27a8.41 8.41 0 0 0-6.16-4.09c-.25-.07-.3.09-.43.17-2.29-1.12-3.78-3.16-6.16-4.17a.23.23 0 0 0-.14-.25 6.33 6.33 0 0 0-.42-2.34 8.4 8.4 0 0 0-5.3-3.17 4 4 0 0 0-2.15.25 43 43 0 0 0-4.94-2.25A16.11 16.11 0 0 0 2.72 7c.43 1.17 1.2 2.66 1.65 4.09-.63-.16-.78-1.12-1-1.75a6 6 0 0 0-.86-1.92c.24 1 1 2.23 1.22 3.51-1.15-.38-.94-2.36-1.86-3A28 28 0 0 1 3 10.64c-.67-.22-1.3-.49-2-.67C1 9.57.62 9.35.86 9zM38.8 40.11c-.15.08-.34.1-.36.33-.2-.19.1-.49 0-.83a4.13 4.13 0 0 1-.93 2.09 3.54 3.54 0 0 1 .43-1.92c.22.21-.08.51 0 .84a5.29 5.29 0 0 1 .79-1.92c.16.3.03.96.07 1.41zm-6.66 13.6c-.22 0-.19-.22-.36-.25.09.31.2.49 0 .75-.21 0-.27-.19-.36-.33A30.58 30.58 0 0 1 34 50.46c.16 0-.06.28-.07.25 0 .13.16 0 .14 0a1.18 1.18 0 0 1 0 .75 1.2 1.2 0 0 1-.16.27.76.76 0 0 1 .16-.1 3.78 3.78 0 0 1-1.79 2.59c-.34-.6.38-1 .72-1.42.14-.16.27-.33.4-.5a4.68 4.68 0 0 0-1.26 1.41zM30.28 52c-.07.17 0 .34-.14.58-.28.07-.26-.2-.43-.25.4-.59.64-1.37 1.29-1.67a3.09 3.09 0 0 1-.57 1.5c-.13.08-.14-.01-.15-.16zm0 1c-.25-.07-.08-.29 0-.42s.04.42 0 .42zm-1.58-.75c.18-.51.6-.75.79-1.25-.46-.1-.55.91-1.07 1-.07.06 0 .39-.14.5.13-1 .37-2.63 1.07-3.26 0 .24.13.35.14.58.18-.23-.29-.76.07-1 .06.33.31 1.92.07 1.08 0 .78-.27 3.72-.92 2.39zm.22.75a.6.6 0 0 0-.14.25 1.62 1.62 0 0 1-.43-.5c0-.26.19-.22.21-.42.15.24.35.36.36.67zm-2.86-2.25c-.24-.05-.25-.37-.43-.5.65-1 1.53-1.78 2.22-2.76a6.39 6.39 0 0 1-1.58 2.92c-.18 0-.12-.36-.29-.42-.24.27.35.54.08.8zM25.13 44a1.29 1.29 0 0 1-1 .42 4.36 4.36 0 0 1 .93-2.09 1 1 0 0 1 .14.67c.36-.1 0-.6.07-.92.23.18.2.65.29 1-.15.35-.56.53-.43.92zM19 47.45c0-.21.11-.26.21-.33.38.14.46.64.72.92 0 .25-.15.33-.22.5-.23-.32-.41-.75-.71-1.09zm.5 1.5a6.9 6.9 0 0 1-.86-1.34c.49-.08.97.84.9 1.39zM19.4 47c.51-.68 1.08-1.3 1.65-1.92-.66.4-1.35 1.48-2.08 2.09a.92.92 0 0 1-.43-.59c.85-.67 1.57-2 2.36-2.42.13-.08.13-.29.21-.42.37.26.54.76 1 .92C21.89 46.35 20.76 47 20 48c-.11-.48-.43-.64-.6-1zm2.15-4.76c-.13 0 0-.28-.14-.33-.16.12 0 .58-.07.84-.07.06-.25-.81 0-.92s.22.17.21.45zm.14.92a1.39 1.39 0 0 1-.14-.75 1.36 1.36 0 0 1 .14.78zm4.51-14.57c-.52-1.06-.29-3-.57-4.34a23.69 23.69 0 0 0 .22 4.09c-.58-1.08-.22-3.25-.43-4.76a2.29 2.29 0 0 1 .86.33 31.31 31.31 0 0 0 .43 4.59 40.88 40.88 0 0 0-.36-4.42c.74-.22 1.39.76 2.08 1.42.51.49 1.47.85 1.58 1.67.2 1.52-1.63 2.41-3 1.75-.25.08-.12-.27-.07-.33-.19 0-.24.48-.43.17a27 27 0 0 1-.57-4.42 20.73 20.73 0 0 0 .26 4.25zm11.53 14.52c-.22-.24.07-.58 0-.92-.16 1.37-1 2-1.5 2.92-.15-1.9 1.34-2.48 1.79-3.76a2.71 2.71 0 0 1-.29 1.76zm.43-.25c.12.26-.12.8-.07 1.25-.16 0 0-.96.07-1.25zm-.36 7.76a2.74 2.74 0 0 1-.5 2.25 1.66 1.66 0 0 1 .43-1.5c-.22-.06-.14.23-.36.17a7.6 7.6 0 0 1 .63-2.92 3.36 3.36 0 0 1-.43 2.09c-.01.16.34.12.23-.09zm-3.58.5a3 3 0 0 1 .57-1.59c0 .91.07 2.18-.57 2.67a1.13 1.13 0 0 1 .22-1.09c-.04-.11-.1.05-.22.01zm.86-3.59a2.54 2.54 0 0 1-.72 2.17 4 4 0 0 1 .72-2.16zm.07-.75c.11.38-.36.8-.5 1.17-.18-.46.35-.78.5-1.17zm-.36 4.67a2.94 2.94 0 0 1 .72-1.84 2.32 2.32 0 0 1-.72 1.85zm0 1.17c-.27-.68.24-1.16.5-1.5.39.49-.29 1.21-.5 1.51zm.21-2.33a3.16 3.16 0 0 1 .65-2.29c.2.94-.4 1.63-.65 2.29zm.22-1.84a2.8 2.8 0 0 1 .57-2.09 2.78 2.78 0 0 1-.57 2.09zm1.72-1.34c0 1-.82 1.77-1.15 2.67-.12-1.14.85-1.78 1.15-2.66zm-7.09 3.34c.14.17.39.65.72.33 0 .09-.35.78-.57.58 0 .44-.14.73-.5.75 0-.49.19-.78.21-1.25.22 0 .15.27.21.42.18-.17-.17-.45-.07-.82zm.21-.58c.22 0 .18.29.22.5-.15-.07-.28-.2-.21-.5zm.36-1.25c.08.2.18 1.5.22 1.75-.45-.15-.11-1.2-.21-1.75zm-1.22.58a2.3 2.3 0 0 1 .71-1.59c.18.11 0 .51 0 .67a3.63 3.63 0 0 1 .93-1.75c-.12-.11-.38.34-.5.5-.08-.73.75-1.12 1-1.75.19 1.25-.82 1.83-1.22 2.67a3.47 3.47 0 0 0 1-1.25 2.12 2.12 0 0 1-.21 1.42c-.77-.12-1.28.54-1.7 1.08zm-.57-.33a3.12 3.12 0 0 1 .79-2 2.73 2.73 0 0 1-.78 2zm-.5 1.59c-.08-.54.43-1.56.79-1.59 0 .09.07 0 .07 0 .15.38-.54 1.2-.86 1.59zM30 45.62c.15.21-.13.46-.14.75-.26-.2-.39.35-.57.5a2.4 2.4 0 0 1 .5-1.42c.13.16 0 .15 0 .42.21.03-.05-.38.21-.25zm1.36-4.09a26 26 0 0 1-.64 3.34.91.91 0 0 1-.43-1.17c-.11.43-.39.28-.79.25.28-.36.55-.75.86-1.09.16.14-.12.47-.07.75a4.64 4.64 0 0 1 1.07-2.08zM34.15 35a6.53 6.53 0 0 0 0-1c.27 0 .17.42.36.5a1 1 0 0 1-.36.5zm0 .33c0-.19.24-.22.29-.42.19.17-.05.52-.29.44zm0-2c-.2.07-.18-.12-.36-.08.09-.23.29-.33.43-.5.19.13-.05.44-.07.59zm-.29.92c.21-.18-.22.58 0 .67-.27.26-.09-.56 0-.66zm0 1.42c.34.13.75.11.86-.25.15.85-.77 1.17-1 1.84-.19-.47.14-1.05.14-1.58zm4.37-1.59c.19.67-.44 1.1-.65 1.59-.16-.67.42-1.17.65-1.57zm.07-.92c.39.43-.34.93-.5 1.25-.23-.53.3-.9.5-1.23zm-1.36 2.34a1.78 1.78 0 0 1 .57-1.42c.22.64-.33 1.07-.57 1.44zm-.29 4.42a4 4 0 0 1-.72 2.34c.25 0 .14-.39.43-.33.08 1-.49 1.15-.79 1.67a2.74 2.74 0 0 1 .72-2.09c-.1-.14-.33.28-.43.42 0-.92.19-2.8.93-3.42a2.19 2.19 0 0 1-.5 1.59c.08.27.29-.43.36-.16zm-7.09 7.93c.14-.56.31-2.26.93-2.25a2.68 2.68 0 0 1-.57 1.4c.49-.12-.08.68-.35.87zm.5-3.17c.19.11.22.27.14.5H30c-.06-.24.12-.18.07-.48zm.65.67c.37-1.5.5-3.83 1.36-4.59-.29 1.05-.07 2.7-.79 3.26.08.2.24-.21.29-.33.23 1.21-.6 1.91-1.07 2.59-.14-.37.13-.56.21-.92zm1.65-5.17a2.87 2.87 0 0 1 .86-2.26c-.19-.14-.41.41-.64.5a3.69 3.69 0 0 1 1-2.51 4.2 4.2 0 0 1-.5 2.25c0 .12.09 0 .21 0a2.62 2.62 0 0 1-.59 1.59 1.51 1.51 0 0 1 .24-.26c.13.57-.31 3.2-.93 3.59a6 6 0 0 1 .66-3.29zm3.72-3a2.13 2.13 0 0 1-1 1.84c.2-1.41.37-2.85 1.22-3.51.18 1.19-.67 1.89-1 2.76.25-.04.51-.79.78-1.09zm-2.36 5.76c-.19-.75.43-1.28.72-1.75.22.81-.44 1.24-.72 1.76zm-.22 1.5c-.23-.88.39-1.5.72-2a2.31 2.31 0 0 1-.72 2.01zm-.86-1.08c-.17-1.14.66-1.85 1.15-2.51a3.31 3.31 0 0 1-1.15 2.51zm1.29-1.59a2.68 2.68 0 0 1 .79-2.09 2.48 2.48 0 0 1-.79 2.1zm1.65-2c-.33.2-.37.73-.79.84a3.9 3.9 0 0 1 1.15-2.42 4.4 4.4 0 0 1-1.22 3.51c-.25-.94.6-1.31.86-1.93zm-1.36.42a5.26 5.26 0 0 1 .93-3.26c.16.47-.27 3.01-.93 3.26zm.07-2a5.66 5.66 0 0 1-1.36 3.67 14 14 0 0 1 .36-2.75c.08-.2.33-.3.36-.42s-.14 0-.22.09c-.13-1.06.71-1.63 1.08-2.34a2.42 2.42 0 0 1-.64 2c.13.24.32-.5.42-.25zm-2.08 1a2.15 2.15 0 0 1-.43 1.67 2.51 2.51 0 0 1 .43-1.67zm0 4.84c.38.68-.42 1.39-.64 1.92-.22-.81.38-1.4.64-1.95zm-.43.5a2.38 2.38 0 0 1 .64-1.92c.27.86-.32 1.45-.63 1.92zm1.65-2.09c.36.84-.65 1.51-.93 2.17-.27-1.06.6-1.53.93-2.17zm.57 1.5c.15.43-.42.73-.57 1.08-.11-.38.43-.71.57-1.07zm1.36-1.25c.21 1.5-.9 2.17-1.36 3.17-.19-1.47.79-2.31 1.36-3.17zm-1 1.17c-.09-.74.8-1.07 1-1.75.23.58-.81 1.1-1 1.75zm.07-.58c-.19-1.17.71-1.78 1.14-2.5.28 1.22-.73 1.75-1.14 2.5zm2-4.59a2.56 2.56 0 0 1 .57-2 2.41 2.41 0 0 1-.56 2zm.29-1.92a2.23 2.23 0 0 1 .57-1.5c.2.61-.29 1.14-.57 1.5zm0-2a1.51 1.51 0 0 1 .28-1.26 1.69 1.69 0 0 1-.28 1.25zm0 .17c.15.34-.11.93-.21 1.25a2.39 2.39 0 0 1 .21-1.26zM35.58 36a2.84 2.84 0 0 1 .93-1.92 2.05 2.05 0 0 1-.93 1.92zm-.64-.42c.18-.74.23-1.62.72-2a1.71 1.71 0 0 1-.73 2.02zm-.07-.5c-.19-.18 0-.61.07-.75.18.18-.04.58-.08.77zm.57.25a2.2 2.2 0 0 1-.72 1.92 2.25 2.25 0 0 1 .72-1.9zm-2-1.08c-.14-.12.14-.44.22-.59.17.18-.2.41-.23.6zm.22 1.17c-.08.41-.43.5-.57.83-.18-.33.09-.84.14-1.17.24 0 .22.3.42.35zm-.57-.17c-.18.54-.18 1.29-.5 1.67-.1 0-.06-.21-.07-.33-.09.62-.51.85-.72 1.34.15-1.11.12-3.27 1.22-3.76.3.87-.14 1.17-.57 1.59.17.14.31-.5.62-.5zm-2.72 3.67a5.05 5.05 0 0 1 1.57-3.59 5 5 0 0 1-1.59 3.61zm1.07-1.25a4.42 4.42 0 0 1-1.43 3c-.16-1.37.86-2.14 1.42-2.98zm.29 1.08c-.51-.07.26-.78.43-1.08.08 0 .06.15.07.25a3.46 3.46 0 0 1 .36-.83 3.46 3.46 0 0 1-.43 2c-.22-.32.13-.68.07-1.09a3.92 3.92 0 0 1-1 2.17 2 2 0 0 1 .48-1.4zm0 1a3 3 0 0 1-.93 2.34 3.13 3.13 0 0 1 .91-2.32zm-.73 8.7c-.4.2-.18 1.21-.07 1.59.3-.28 0-.86.07-1.42.22-.22.39-.11.72-.08-.22.63-.26 1.47-.79 1.75a6 6 0 0 1-.29-1.84zm.86.08h.64c-.27.61-.18 1.63-1.07 1.5a13 13 0 0 1 .43-1.49zm.72.17c.12.52.2.7-.29 1.08-.11-.26.24-.71.28-1.08zm.07-.5c0-.32.29-.33.36-.58.19.2 0 .69-.07.84-.16-.03-.15-.23-.3-.26zm-.64 0c0-.38.16-.48.14-.83-.26.22-.1.94-.64.83a6.67 6.67 0 0 1 1.58-2.25 1.55 1.55 0 0 0-.07.58c.15 0 0-.3.07-.42.21 1.05-.27 1.99-1.09 2.09zm-.86-.08c.57-1.07 1.3-1.93 1.93-2.92.08 0 .06.15.07.25-.77.78-1.23 1.91-2.01 2.67zm.14-.75c.17-1.8 1.39-2.38 2-3.67.06 1.68-1.36 2.81-2.01 3.67zm2.08-.58a2.21 2.21 0 0 1 .57-2.17 3.52 3.52 0 0 1-.58 2.16zm-.07 1.09c-.21-.41.13-.9.29-1.17.2.41-.13.92-.3 1.16zm1.86-3.51c.08 0 0 .17.14.17.08-.71.58-.94.86-1.42.14.09-.09.45 0 .75a25.93 25.93 0 0 0-2.36 3.34c-.15-1.31.97-1.87 1.35-2.85zm2.08-.17c-.16-.13-.35.42-.57.5 0 0 .51-.78.72-1.08.18 1.57-.77 2.55-1.43 3.42-.04-1.47.84-1.89 1.27-2.84zm.43.58c.16.36-.15.89-.29 1.17a1.27 1.27 0 0 1 .28-1.17zm.14-1.34a1.55 1.55 0 0 1-.29 1.34 1.39 1.39 0 0 1 .28-1.34zm-.07 3.09a5 5 0 0 1-.14 1.5 5.41 5.41 0 0 1 .13-1.5zm-.5.59c-.22-.4.17-.8.29-1.09.13.31-.17.82-.3 1.09zm-.07-1.59c.06 1.26-.83 2.15-1.29 3.09-.17-1.38.84-2.12 1.27-3.09zm.22 1.67a3.1 3.1 0 0 1-.43 2 3.18 3.18 0 0 1 .41-2zm.43 1.67a2.15 2.15 0 0 1 .29-1.5c.25.63-.17 1.11-.31 1.5zm0-2.84c-.2-.16.1-.44.07-.67.11.13-.07.5-.09.64zm-.57-4.34c.1.68-.54 1.2-.79 1.75-.27-.84.54-1.21.77-1.75zm-.64.75c-.25-.88.53-1.28.79-1.84.21.88-.59 1.25-.82 1.84zm.14-1.25a3.2 3.2 0 0 1 .93-2.67 3.66 3.66 0 0 1-.96 2.67zm.19-2.19a3.11 3.11 0 0 1 .86-1.84 2 2 0 0 1-.86 1.84zm.29-1.42a2.92 2.92 0 0 1 .77-2.15 2.51 2.51 0 0 1-.77 2.17zm.86 0a1.86 1.86 0 0 1 .21-1.17 1.36 1.36 0 0 1-.21 1.19zm-.22 2a3 3 0 0 1 .29-1.75 3 3 0 0 1-.29 1.78zm.43-3.51a2.72 2.72 0 0 1 .14-1.25c.21.42-.04.98-.14 1.28zm.36-.17c.08.15.07.92-.14 1a5.71 5.71 0 0 1 .14-.97zm-.14-1.5a8.17 8.17 0 0 1 .14-1.67 3 3 0 0 1-.15 1.7zm-.57-1c-.15-.26.09-.78 0-1.25-.25.71-.16 1.82-.79 2.09a2.32 2.32 0 0 1 .36-1.5c-.28-.16-.39.6-.72.67a9.47 9.47 0 0 0 .2-1.9c.55.33 1.13.63 1.72.92-.15.45-.59.57-.78 1zm-2.16 1.2a3.46 3.46 0 0 1 .86-2.17c-.26.05-.36.31-.5.5-.1 0-.06-.21-.07-.33a3.36 3.36 0 0 1-.72 1.17c-.15-.49.16-1.14.14-1.75-.3.71-.13 2-.79 2.25 0-.24-.17-.36-.21-.59a.59.59 0 0 1 .43-.5c-.21-.29-.35.53-.57.25-.26-1 .62-1.27.93-1.84A33.16 33.16 0 0 0 31 36.27a2.59 2.59 0 0 1 .29-1.42c1-1.45 2.7-2.95 3.79-4.26.68.12 1 .68 1.72.75.13 1.31-.11 2.88-1.01 3.26zM29.28 37c-.16-.25-.21.31-.43.25.35-1.89 1.8-2.93 2.86-4.17a33.91 33.91 0 0 0 2.36-2.67c-1.46 1.56-3.21 3.5-4.73 5.26 0-.44.35-1.1.43-1.67 1.38-1.29 2.52-2.84 3.87-4.17.46.16.8.46 1.29.59-1.74 2.12-4.03 4.64-5.65 6.58zm0 0l-.13.16c.02-.05.05-.16.12-.16zm.65-3.35c-.08 0-.06-.15-.07-.25a4.35 4.35 0 0 1-.93 1.42c.09.1.37-.29.5-.42a15 15 0 0 1-1.27 4l.19-.24a4.61 4.61 0 0 1-1.5 3.42 5.18 5.18 0 0 1 .9-2.62 2.75 2.75 0 0 1-.26.28 7.78 7.78 0 0 1 1.07-3.34c0-.12-.13 0-.14.08.36-2.89 2.81-4.07 4.15-6.09-1.15.78-2.17 2.42-3.29 3.51 0-1.4 1.26-2 1.86-3a8.18 8.18 0 0 0-1.36 1.42c.1-1.21 1.4-1.77 1.93-2.75a33.57 33.57 0 0 0-2.51 2.67 2.46 2.46 0 0 1 .94-1.74c-.71.37-1.39 1.5-2.08 2.17 0-.52.52-1.23.64-1.92-.59.87-.82 2.17-1.5 2.92.14 0 .09-.23.29-.17a7.81 7.81 0 0 1-1.79 3.42 3.94 3.94 0 0 1 1-2.25c-.07-.16-.28.22-.36.33a18.8 18.8 0 0 1 .72-2.25c-.71 1.31-1 3.1-2.15 3.92a5.07 5.07 0 0 1 1.22-2.34c-.15-.09-.43.39-.57.58.34-1.83 2-2.87 2.93-4.26a14.48 14.48 0 0 0-2.36 2.67 8.3 8.3 0 0 1 1.43-3.34 2.18 2.18 0 0 0 2.51-1.25 23.89 23.89 0 0 1 3.44 1.5c-1.24 1.27-2.41 2.62-3.59 3.95zm-1.51-1.06c.09-.11 0 .65-.13.89-.25.42-1.06.87-1.22 1.34A7.07 7.07 0 0 1 29 31.17c.22.55-.35.96-.59 1.45zm1.23-1.2c.07.64-.64 1.09-.93 1.58-.07-.58.55-1.14.92-1.54zM28.06 34a6.83 6.83 0 0 1-1.86 3.34A5 5 0 0 1 28.06 34zm1.15-1.42c.09.61-.54 1.38-.65 1.75-.33 1.16-.42 2.35-1.36 3.17.43-1.58.9-3.83 2.01-4.91zM27.7 37.1a6.22 6.22 0 0 1-1.22 3.42 5.56 5.56 0 0 1 1.22-3.42zm-.7 2.84c.07.36-.25 1-.29 1.5a1.11 1.11 0 0 1 .29-1.5zm-1.3 1.25c-.11 0-.33-.5-.36-.84.2.19.21.6.36.84zm-.36-2.42c0-.29.25-.32.29-.58.1.09.01.67-.29.58zm.14 2.92a4 4 0 0 1-.36-1c.19.23.49.68.37 1zm-.21.33a1.37 1.37 0 0 1-.29-.92 1.49 1.49 0 0 1 .29.9zm-1.15-1.42c-.12-.22-.22-.46-.36-.67 0-.35.34-.39.43-.67.07.07.41.48.07.5 0-.14-.07-.14-.07-.25a3.45 3.45 0 0 1-.06 1.1zm.07 2.76a2.71 2.71 0 0 1-.14-2.17 1.94 1.94 0 0 1 .15 2.17zm.14-3.09a1.65 1.65 0 0 1 .29 1.67 1.77 1.77 0 0 1-.28-1.67zm.14-.33a2.5 2.5 0 0 1 .36.84 1 1 0 0 1-.35-.84zm.36 1.67a.77.77 0 0 1-.07 1.09c-.2-.31.03-.81.08-1.09zm-.22-1.92c.18-.16.24.55.43.67-.21.2-.25-.52-.41-.67zm.07-1.09a.63.63 0 0 0-.57.25c0-.48.66-1 .93-1.42.11.32-.19.88-.34 1.17zm-.27-.6a4.24 4.24 0 0 1 1.29-2.5 4.52 4.52 0 0 1-1.29 2.5zm1.43-5.09c-.45.79-1.23 1.28-1.65 2a9.56 9.56 0 0 1 2.43-4.34 9.73 9.73 0 0 1-.78 2.36zm1.5-3.42a16 16 0 0 1-2.15 2.59c.06-.4.3-.6.36-1-.58 1.77-1.89 2.7-2.79 4.09a7.77 7.77 0 0 1 2.3-4.17c.62-.72 1.33-2.18 2.29-1.49zm-7 8.76a11.8 11.8 0 0 1 2.86-5.09c-.26 2.15-1.91 3.84-2.87 5.11zm1.79-2.09c-.27 2.19-1.88 4-2.93 5.26a13.63 13.63 0 0 1 2.92-5.24zm2.51-3.09c-.26 2.08-1.82 3.38-2.79 4.92.15-2.2 1.69-3.5 2.78-4.9zm-1.07 2.84c-.23 1.84-1.66 3-2.51 4.42.17-1.88 1.57-3.08 2.49-4.4zm2.08-2.34c-.37 1.68-1.53 2.44-2.29 3.67a6.12 6.12 0 0 1 2.27-3.64zm-.72 1.75c-.14 1.84-1.61 2.85-2.36 4.26.14-1.8 1.43-2.97 2.34-4.23zm-.57 1.92c0 1.18-1 2-1.5 2.84.26 0 .65-.63.86-1-.18.76-1 1.45-1.65 2 .24-1.5 1.59-2.49 2.27-3.81zm-1 3.09c.08.65-.44 1.33-.5 2.09-.21-.23-.21-.71-.36-1-.12.4.41 1.08.14 1.67-.22-.41-.24-1.06-.43-1.5-.22.69.46 1.43.21 2.17-.25-.6-.26-1.48-.5-2.09.46-.43 1.08-.72 1.42-1.31zm-1.22 3.92a14.06 14.06 0 0 1-.36-2.59c.07.83.55 2.04.34 2.62zM22 45.87c-.12-.23.16-.7.22-1 .23 0 .27.24.57.17-.14 1.67-1.39 2.63-2.43 3.51a.23.23 0 0 0-.14-.25 16.59 16.59 0 0 1 2.36-2.84 1.88 1.88 0 0 0-.58.41zm.57-1.25c0-.28-.12-.42-.07-.75.2 0 .07.31.21.33.21-.25-.18-.86.07-1.17.15.39.62 1.66-.23 1.58zm1.07-4.51c.48.22.38 1.14.14 1.59-.11-.07-.1-.27-.14-.42.1.27 0 1.68-.29 1.42-.09.18.09.93-.29 1-.5-1.31.41-2.3.56-3.59zm-.29 3.34c.24 0 .2.38.22.67.09-.57-.25-1.48.29-1.84.08 1.1.51 1.28.14 2.25h-.93a4.28 4.28 0 0 0 .27-1.09zm2.22-1.75c.15.15.15.49.14.83-.09-.24-.28-.62-.15-.84zm-.5-3.09a4.18 4.18 0 0 1 1.36-2.84c-.22.9-.51 2.42-1.37 2.83zm2.22-2.42a6.45 6.45 0 0 1-1.36 3.17c-.73-1.16.83-2.44 1.34-3.18zm-.72 2.42c.15.4-.25.88-.21 1.42-.27 0-.28-.34-.36-.58a3.47 3.47 0 0 0 .56-.85zm.36 3.17c.17-.52.63-.72.86-1.17A5.27 5.27 0 0 1 26.27 44c-.27-.94.8-1.09.65-2.22zm1.65-2.09c-.08.13-.3.1-.29.33 0-2.46 1.61-3.27 2.72-4.67-.6 1.49-.43 3.62-1.58 4.59-.08 0-.06-.15-.07-.25-.37 1-1.17 1.58-1.65 2.51a4.44 4.44 0 0 1 .85-2.51zm.43.92c.07 0 .05.1.07.17.17-.56.59-.81.86-1.25.19.39-.19.83-.14 1.34-1 .89-1.65 2.14-2.58 3.09.15-1.63 1.1-2.33 1.78-3.35zm1.93-.92c.32 1-.87 1.65-1.22 2.42-.21-1.18.82-1.64 1.21-2.42zM30.71 41a3.34 3.34 0 0 1-1 2.42c-.13-.24.21-.64.21-1a8.92 8.92 0 0 0-.5 1.33c-.22-1.31.8-1.93 1.29-2.75zm-.86 3.26c.06.35-.14.39-.14.67-.15-.08 0-.47-.21-.5s0 .3-.07.42c-.21 0-.17-.47-.07-.58zm-.36 1.17a3.4 3.4 0 0 1-1.07 1.25c.21-.54.4-1.09.57-1.67.26.06.32.32.5.44zm-.29.58c.08 1.15-.91 1.78-1.43 2.5A5 5 0 0 1 29.21 46zm-2.15 3.59c.11 0 0 .11 0 .25a6.4 6.4 0 0 1 1.65-2.09 6 6 0 0 1-1.86 3.09 7 7 0 0 0 1.22-1.25 3 3 0 0 1-.93 2c-.41-.14-.47-.68-.79-.92a5.9 5.9 0 0 1 .72-1.06zm1.58.42c0 .59-.44 1.44-.5 2.25-.99-.54.09-1.78.51-2.27zm.86 2.42c.21 0 .27.19.36.33a.59.59 0 0 1-.43.5c-.27-.21-.04-.56.07-.81zm1.5-.92c-.09-.16.15-.65.21-.92.63-.24 1.37-.35 1.72-.92.09 1.13-1.12 1.95-1.79 2.76-.19.23-.14.59-.5.5-.18-.86.56-1.35.86-1.92-.11-.09-.37.36-.49.52zm-.29 1.84c.28.07.57.42.29.67-.15-.12-.44-.41-.28-.65zm.22-.17a22.69 22.69 0 0 1 2.15-2.76c-.24-1.94.75-3.12 1.5-4.17.07 0 .05.1.07.17a8.93 8.93 0 0 1 1.43-2.25 2.52 2.52 0 0 1-.57 1.92c-.16 0 0-.35-.07-.5a4 4 0 0 1-.72 1.67c-.16 0 0-.41-.07-.59-.13 1.35-1.06 1.77-1.43 2.84a13 13 0 0 0 1.22-1.75c0 .93-.81 1.56-1.15 2.34.34-.11.71-.9 1-1.34.09 2.24-2.22 3.11-2.93 4.84-.23-.01-.35-.23-.42-.4zm2.93-.42c.16 0 0 .35.07.5a2.54 2.54 0 0 1 .59-1.27c.3 1.27-1.19 1.89-1.5 3-.32 0-.3-.43-.5-.58.4-.56.94-1.02 1.35-1.63zm1.36-.42c.26.76-.37 1.18-.64 1.59-.22-.69.37-1.16.65-1.56zm0 1.42c.17-.75.75-1 1.07-1.59.07 0 .05.1.07.17a7.24 7.24 0 0 1-2 2.5c-.12-.45.65-1.26.87-1.05zm.14-.83c0-1.06.64-1.32 1-1.92.39.86-.51 1.55-.99 1.98zm.21-1.25a1.31 1.31 0 0 1 .36-1.25c-.18-.11-.22.33-.29.08.29-.8.77-1.38 1.07-2.17.25 1.21-.54 1.93-.86 2.76.3 0 .41-.85.79-1-.07.99-.81.96-1.05 1.6zm1.29 1.92c.19.1 0 .44 0 .58-.17-.08.02-.41.02-.56zm-.29-1.17a.6.6 0 0 1 .36-.83c.08.45-.2.6-.34.85zm.07-.75a1.6 1.6 0 0 1 .37-1.32 1.39 1.39 0 0 1-.35 1.34zm.07-1.42a3.18 3.18 0 0 1 .45-1.27c.17.48-.03 1.22-.43 1.29zm1 2.34V53c.16-.26 0-.84.43-.84-.06.37-.18 1-.5.84 0 .47-.31.53-.43.83-.2-.58.24-1 .53-1.2zM38 52a5.77 5.77 0 0 1 .29-2.42A4.31 4.31 0 0 1 38 52zm.29-2.67a2.48 2.48 0 0 1 .21-1.59 4.73 4.73 0 0 1-.2 1.63zm-.36-1.92a15.76 15.76 0 0 1 .44-3.41 8 8 0 0 1-.43 3.45zm.43-6.59a3.37 3.37 0 0 1-.14 1.5 3.08 3.08 0 0 1 .15-1.46zm0-1.92a2.73 2.73 0 0 1 .21-1.67c.53.5.07 1.39-.2 1.71zm-13.3-15.24c-.32 1 0 2.49.07 3.59-.38-.12-.24-2.4-.29-3.51-.15 0-.14.12-.14.25-.16 0 0-.3-.07-.42-.21-.09-.13.18-.14.33-.16 0 0-.35-.07-.5.36-.06.5.14.86.08a20.83 20.83 0 0 0 .07 2.76c0 .36.09.94-.07 1.17v-1.16c-.2-.72-.08-1.81-.22-2.59zm-.64 1.17c-.13.22-.05-.49-.07-.67s.04.49.06.67zm-13.25-5.67c-.64-.4-.4-1.82-.72-2.59-.08.49.23 1.23.22 1.92l-.09-.09a.89.89 0 0 1 .23.59c-.62-.2-.76-1.38-.72-2.09a4.34 4.34 0 0 1 .36 1.25c.1-.48-.29-1.11-.29-1.75-.16 0 0 .44-.14.5-.4-.83.2-1.69-.14-2.84-.17.31 0 1-.07 1.42-.35-.7 0 1.19 0 1.67a4.15 4.15 0 0 1 .07-3.51 7.36 7.36 0 0 1 7 3.17 19.42 19.42 0 0 0 .3 2.19c-1.47.86-4.41 1.14-5.87.17-.65-1.6-.47-3.27-.43-5.51a12.31 12.31 0 0 0 .29 5.5zm-1.58-1.59c.18.21.2.6.36.83.21-.33-.25-.6-.14-1.08.33.25.2 1.05.5 1.34-.25.08-1-.41-.86-.75.14 0 0 .28.21.25.06-.3-.1-.33-.07-.59zM6.37 43.19a39.05 39.05 0 0 1 3.65-5A22.9 22.9 0 0 0 6.94 42c-.23.33-.57 1.2-1.07.83-.05-.43.89-1.36 1.22-1.92a11.13 11.13 0 0 0-1.43 1.84c-.23-.1-.38-.28-.64-.33a14.51 14.51 0 0 1 1.65-2.67c.35.35 1.34.54 1.65 0 .35-1.16-1-2-.36-2.59-.42.63-.67-.28-1.22-.25a55.19 55.19 0 0 1 4.15-5.17c-1.7 1.33-3 3.87-4.8 5.34a2.55 2.55 0 0 1-.57 1.09c.12.21.19-.33.43-.25A4.15 4.15 0 0 0 6.3 39a24.78 24.78 0 0 0-1.36 2.09c.66-.41 1-1.67 1.57-1.84.24.58-.4 1-.72 1.5s-.62 1.07-.93 1.5a4.23 4.23 0 0 1-1-.5c-.22-3.54-1.17-6.73-1.72-10a92 92 0 0 1-1.5-10.26c-.2-3.74-.13-7.36-.21-11.35a53.18 53.18 0 0 1 9 3.67c-.23 1.1-1.33 2-.86 3.34-.97 1.55-2.16 2.85-3.2 4.34a49.31 49.31 0 0 0 3.22-4.09c.22.13.25.49.43.67-1.33 1.68-2.69 3.31-4 5a61.83 61.83 0 0 0 4.08-4.84 6.69 6.69 0 0 0 3.08 1.67 109.15 109.15 0 0 0-7.52 8.85c1.52-1.43 2.51-3.48 4.08-4.84-.9 1.15-1.84 2.26-2.65 3.51 1.93-2.31 4-5.14 6.23-7.43 1.13.39 2.11-.08 3.29-.08-1.66 2.07-3.73 3.67-5.23 5.93a2 2 0 0 0-1.07.92c0 1.65.74 2.36 2.15 2.34a27.35 27.35 0 0 1 3-3.42c.13 2 1.69 2.37 2.93 3.09a91.35 91.35 0 0 0-6.3 7.76c2.23-2.49 4.16-5.33 6.51-7.68a1.54 1.54 0 0 0 .72.08 86.39 86.39 0 0 0-5.44 6.76c1.81-2.06 3.76-4.69 5.8-6.76 1.14 0 2.47-.23 2.65-1.17.32-1.67-2.32-2.38-2.15-3.92.08-.73.75-.57 1.07-1.34-.38.31-.72.66-1.07 1-.31 0-.26-.42-.57-.42.45-.57 1-1 1.43-1.59-.48.16-1 1-1.5 1.42a2.21 2.21 0 0 0-1.43.25c.1-.44.79-.91 1.07-1.42-2.2 2-4.33 4.32-6.3 6.43.29-.74-.15-1.37 0-2s1.57-1.72 1.93-2.09a26.39 26.39 0 0 0 2-2c-1.53 1.08-2.66 2.64-4.08 3.84 1.21-1.82 2.83-3.15 4.15-4.84a41.63 41.63 0 0 0-4.22 4.51 2.31 2.31 0 0 0-1 .17 56 56 0 0 1 3.94-4.42 8.67 8.67 0 0 1 1.4-1.43c.49-.28 1.11-.15 1.5-.67 2.27 1.1 3.82 3.06 6.09 4.17a8.57 8.57 0 0 0 1.72 5.09 73.6 73.6 0 0 0-6.37 7.93c2-2.48 4.29-5.35 6.44-7.93.35.2.58.55 1 .67-.73 1.16-1.69 2-2.51 3.09a21.22 21.22 0 0 1 1-2.75 16.17 16.17 0 0 1-3.15 5.34 21.55 21.55 0 0 1 1-2.5c-.64.93-.88 2.31-1.58 3.17-.87 4.92-4.4 6.73-6.66 10-.21 0-.27-.19-.36-.33-.16.12.41.41.14.67-.33.1-.23-.29-.43-.33 0 .31.29.22.21.58-.24.11-.27.46-.57.5a7.45 7.45 0 0 0-.93-1.33c.38.64.8 1.24 1.22 1.84-.2-.34 0-.72.5-.92a9.32 9.32 0 0 0 1.36 1.92c-3.21-1.17-6.17-3.34-9.25-4.93zm.14-5.68a2.68 2.68 0 0 1 .14 1.17 2.35 2.35 0 0 1-.14-1.16zm.57.75c.29.19.06 1 .36 1.17.2-.4-.35-1.25 0-1.59a2.29 2.29 0 0 1 .5 1.75h-.71a7.36 7.36 0 0 0-.14-1.32zm0-.17c-.14 0-.1-.71-.29-.42-.1 0-.06-.21-.07-.33.4-.11.34.33.64.33-.1.24-.22.06-.27.43zM7 39.19c-.21 0-.13-.35-.14-.59.28-.06.14.4.14.59zM9.23 16.4c-.12.13-.21-.47-.22-.75.28.01.05.62.22.75zm-.36.5a.9.9 0 0 1-.07-.84c.2.12.03.59.08.84zm2.72 9.18a2.46 2.46 0 0 1-.5.58c-.16 0-.15-.21-.14-.42-.2.2.08.57.07.83a1 1 0 0 1 .64-.75c.08.92.14 2-.43 2.42a17.94 17.94 0 0 0-.79-2.59c.42 0 .43-.22.93-.25-.06.38-.07.17.23.18zm-.5 2.67c-.73-.27-.77-1.77-.86-2.5a13.5 13.5 0 0 1 .57 2.25c.12 0 .13-.07.14-.17.12.08.12.28.16.42zm9-.42c-.35-.05-.43.22-.79.17s.21-.31.22-.5A22.15 22.15 0 0 0 18 23.5c0 .63.8 2.12 1.07 3.17.33 1.26.26 1.93-1.07 1.92-.12-.17 0-.11 0-.33-.28.36-.78 0-1.07-.17a24.81 24.81 0 0 0-.86-3.34 23.13 23.13 0 0 0 .75 3.25c-.7-.66-.6-2.25-1-3.26a2.61 2.61 0 0 1 2.65-1.42 12.72 12.72 0 0 1 1.65 5.02zM20 26c.49 0 .34 1.5.64 2-.47-.06-.33-1.53-.64-2zm-3.58 1.67c-.55-.28-.77-2.11-.79-3 .37.84.37 2.15.76 3zm-.5-.25c-.25-.64-.88-1.95-.5-2.5.12.85.33 1.64.47 2.5zm-.36-.25A5.08 5.08 0 0 1 15 25.5c-.25.48.16.92.14 1.42-.33-.29-.25-1-.43-1.5a1.23 1.23 0 0 0 .29-.25c.18.69.4 1.3.53 2zm-1.24 18.78c.47 0 .7.67 1 1.09a10.17 10.17 0 0 1 .93 1.33c-.87-.16-1.55-1.7-1.93-2.42zm.21-.17C16 43.61 17.91 42 19.47 40c-.3 2.35-2.38 3.35-3.58 4.92-.15 0-.14-.23-.29-.25.33.36-.26 1.21-.64 1 .54 1 1.45 2.1 1.86 3-.93-.75-1.41-2.05-2.29-2.89zm2.58 3.09c-.62-1-1.24-2-1.93-2.92a1.93 1.93 0 0 1 .82-.75 3 3 0 0 0 .64 1.09c-.34-.65.42-1.07.72-1.42 1-1.21 2.17-2.71 3.22-3.92-1.43 1.25-2.76 3.35-4.29 4.76 0-.31-.27-.35-.29-.67 1-.91 1.84-2 2.79-2.92.08 0 .06.15.07.25.8-1.15 1.64-2.27 2.43-3.42a10.42 10.42 0 0 1-.57 2c.62-.67 1.38-1.9 2.08-2.75 0 1-.78 2-.86 2.92-.46.37-1 .34-1.15 1 0 .2.08.51 0 .75a3 3 0 0 1-.73 1 5.84 5.84 0 0 1 .87-.79c.34.86-.55 1.44-1 1.92a14.27 14.27 0 0 1-1.5 1.59c0 .39.41.41.36.92-.3.2-.36-.5-.64-.59-.12.23.59.56.29 1 .59 0 .85 1 1.22 1.5.22-.11-.13-.37.07-.5.43.25.58.83.93 1.17a36.54 36.54 0 0 1-3.55-1.22zm7.3 2.92A4.71 4.71 0 0 1 22 50.62c-.11 0 .06.15-.07.17a1.87 1.87 0 0 1-1.36-1c-.26-.44-.89-1-.5-1.42a3.47 3.47 0 0 1 .79 1c.12-.12-.22-.4-.29-.58.74-1.31 2.2-1.77 2.36-3.76a2.37 2.37 0 0 1 .93-.08c-.25 1.9-1.49 2.66-2.36 3.84A8.1 8.1 0 0 0 23.12 47c.1 0 .06.21.07.33a8.64 8.64 0 0 1 1.5-2.09c-.42.24-.65.69-1 1-.11-.27.21-.75.21-1.17.38-.28 1-.27 1.36-.58-.32 1-.47 2.12-.72 2.76.71-1 .5-3.16 1.58-3.92a2.48 2.48 0 0 1-.72 1.92c.12.22.38-.55.5-.33a5 5 0 0 0-.21 1 6.73 6.73 0 0 1 1.5-2.92 3.43 3.43 0 0 1-.79 2.25c.09.28.4-.63.43-.17.36-1 1.19-1.51 1.65-2.42.08 0 .06.15.07.25.16-.73.65-1.07 1-1.59.17 1.09-.66 1.74-1.07 2.42-.08 0-.06-.15-.07-.25-1.49 2.51-3.67 4.18-5.36 6.51 0 .26.21-.21.21.08a.77.77 0 0 1 .36-.58c.66.87 1.16 1.94 1.86 2.75-.38-.92-1-1.51-1.43-2.42.17-.16.32-.36.5-.08 0-.17-.2-.11-.14-.33 1.06-1.24 2.2-2.39 3.22-3.67a45.07 45.07 0 0 0-3.15 3.59c-.1 0-.2 0-.21-.08 0 .13 0 .6-.36.58.05-.23-.14-.17-.14-.33a41.12 41.12 0 0 1 4.29-4.92v.25c.11-.71.9-1.19 1.22-1.92.25.71-.27 1.24-.5 1.67 0 .12.09 0 .21 0-.39 2.68-2.2 3.72-3.36 5.51-.15 0-.19-.06-.29-.08s.17.4 0 .42c.67.4 1 1.85 1.65 2.59a5.07 5.07 0 0 1-3.29-2.21 5.21 5.21 0 0 0 .71.97zm1.72-.67a.33.33 0 0 1 .07-.33 29.41 29.41 0 0 1 1.8 2.59c-.56.22-1.71-1.51-1.87-2.26zm2.43 2.59c-.72-.33-.9-1.29-1.43-1.84.1-.25.33-.34.43-.58-.17.57.39.89.5 1.59a.62.62 0 0 1 .5.83zm.07-.08c.23-.07.22.13.36.17-.05.2-.41.04-.35-.17zm.21-.25a.23.23 0 0 0 .14-.25.42.42 0 0 1 .22.75c-.13-.14-.32-.23-.35-.5zm.5.67c-.05-.23.14-.17.14-.33a.59.59 0 0 1 .43.5 1 1 0 0 1-.56-.22zm.29-.5c.09-.18.2-.33.29-.5.43.1.36.77.14 1-.19-.11-.28-.34-.42-.5zm.5.83c0-.37.25-.37.29-.67.23.09.53.45.36.75.3-.2.33.24.57.33 0-.32-.37-.45-.14-.75.22 0 .45.29.29.5.23 0 .56.35.64.75a17.33 17.33 0 0 0-2-.91zm1.72-.25a.31.31 0 0 1 .21-.08c.24.67.77 1 1 1.67a1.92 1.92 0 0 1-1.2-1.59zM33.79 56a1 1 0 0 1-.72-.67c-.05-.23.14-.17.14-.33.27.21.73.5.58 1zm-.36-1.17a14.23 14.23 0 0 1 .93-1.42c.34.29-.15 1-.29 1.25 0 .23.23.24.29.42s-.24.27-.29.5c-.33-.14-.45-.5-.64-.78zm.43 1.17c.44 0 .23-.81.79-.67a5.11 5.11 0 0 1 1.65-2.26c0 .05-.18.32 0 .33a2.27 2.27 0 0 1 .43-.92c.13 1.82-1.65 2.14-2 3.67a2.24 2.24 0 0 0 .57-.67c.1.13-.1.75.07 1-.57-.02-.94-.34-1.51-.48zm1.65-.25c-.22-.72.75-1.15 1-1.84.19.94-.71 1.29-1 1.89zm-.07.83c-.06-.82.87-1.49 1.36-2.17s1-.92 1.22-1.5c0 1.73-1.8 2-2.15 3.59.28-.09.35-.42.5-.67.21.28-.1.65-.07 1-.4.1-.51-.2-.86-.2zm1.22-.42a1.13 1.13 0 0 1 .29-1.09c.26.51-.21.83-.3 1.15zm-.29.83a4.6 4.6 0 0 1 .57-1c.27.43-.16.76-.22 1.09-.17.09-.15-.08-.35-.03zm.93.33c-.21 0-.22-.19-.43-.17a12.69 12.69 0 0 1 1-1.42c.28.81-.45 1.1-.57 1.65zm1 .5c-.25-.18-.61-.23-.86-.42l.43-.75c.22.15-.08.4 0 .67.26-.08.19-.55.22-.92.21.23 0 .62 0 .92a.07.07 0 0 0 .14 0c.16.08.03.42.07.57zm.14-1.75c-.42-.85 0-2.4.22-3.51.09 1.35-.35 2.3-.22 3.57zm.43-5.07c-.16-.11 0-.58-.07-.83-.27.22-.1.95-.14 1.42-.61 1.09-.14 4.11-1.5 4.59-.06-.85.54-.93.72-1.5-.17-.17-.53.6-.65.5 0-.83.72-.83.93-1.42.31-3 .59-5.52.72-8.93-.47.59 0 2.26-.43 2.92a19.31 19.31 0 0 1 .43-4.67c-.12-.08-.18-.23-.14-.5-.22.25-.18.79-.36 1.09a2.77 2.77 0 0 1 .43-2c-.18-.11-.23.33-.29.08a2.88 2.88 0 0 1 .22-1.34c.18.19 0 1 .21.84-.05 3.26.05 6.7-.08 9.75zm.07-17.7c-.07.83-.09-.53-.07-.83a.23.23 0 0 1 .14.17 1.79 1.79 0 0 1-.07.7z"/><path fill="#fff" d="M11 4a22.73 22.73 0 0 0 1.5 3.09C12.17 6 11.29 4.61 11 4zM16 6.22a8.13 8.13 0 0 0-1.29-1.67A3.32 3.32 0 0 0 16 6.22zM9.66 10.81C8.81 9 7.75 6.36 7 5c.64 1.79 1.6 3.74 2.36 5.34.09.12.1.59.3.47zM4.8 6a50.25 50.25 0 0 0 2.86 5.93A50.74 50.74 0 0 0 4.8 6zM8.73 12.14A50.5 50.5 0 0 0 5.8 6c.74 1.49 1.5 3.26 2.15 4.76.24.53.48 1.24.78 1.38zM6.66 6.13a48.08 48.08 0 0 0 2.51 5.51c-.79-1.89-1.66-3.69-2.51-5.51zM4 6.38c.9 1.78 1.7 3.62 2.59 5.43A30.83 30.83 0 0 0 4 6.38zM3.22 6.55a35.94 35.94 0 0 0 2.15 4.17 23.73 23.73 0 0 0-2.15-4.17zM17.83 7c1.63 3.91 3.14 8 4.87 11.77-1.5-4.11-3.16-7.99-4.87-11.77zM21 7.8c1.57 3.09 2.7 7.15 4.29 9.93-1.51-3.18-2.72-7.14-4.29-9.93zM12.81 9.06a4.87 4.87 0 0 0-.5-1.17 4.89 4.89 0 0 0 .5 1.17zM17.4 8.39C19 11.82 20.28 16 22 19.07c-1.61-3.49-2.91-7.32-4.6-10.68zM13.82 11.73a14.33 14.33 0 0 0-1-2.59c.34.86.59 1.8 1 2.59zM20.26 11.39c.18.15.18.52.36.67.22.89.15.26 0-.17s-.41-1-.5-1.25-.53-1.24-.36-.58a7.2 7.2 0 0 1 .5 1.33zM16.54 12.23c1.09 2.1 2 4.38 3.22 6.34a43.22 43.22 0 0 0-3.22-6.34zM21 13.06a3.62 3.62 0 0 0 .43 1 3.56 3.56 0 0 0-.43-1zM8.38 14.06c-1.81 2.51-4.16 4.84-5.58 7.51 1.63-2.7 4-5.01 5.58-7.51zM12.46 19.24c.23-1 .43-4.24-.07-5.09a27.22 27.22 0 0 1 .07 5.09zM6.3 15.23C5.07 17 3.4 18.64 2.51 20.49c.91-1.32 2-2.87 2.93-4.09.32-.4.95-.81.86-1.17zM22.41 16.4c-.18-.15-.18-.52-.36-.67.06.22.3 1 .36.67zM8.38 15.82A28.16 28.16 0 0 0 4.29 21c1.21-1.86 2.94-3.55 4.09-5.18zM22.84 17.4c-.13-.14-.4-.88-.36-.67s.3 1 .36.67zM11.6 19.24c-.21-.79-.34-1.66-.57-2.42a8.17 8.17 0 0 0 .57 2.42zM3.51 18c-.16.15-.22.14-.29.25-.68 1.03.31-.04.29-.25zM9.45 25.25c1.4-1.6 2.82-3.16 4.3-4.67-.06 0-.14 0-.14.08a33.45 33.45 0 0 0-4.16 4.59zM7.45 26.83c1.63-2.14 3.39-4.11 5.08-6.18a46.47 46.47 0 0 0-5.08 6.18zM7.8 20.74c-1.33 1.6-3.06 3.16-4.15 4.76C5 23.89 6.67 22.29 7.8 20.74zM13.32 25.67c.91-1.14 1.94-2.13 2.86-3.26a15.42 15.42 0 0 0-2.86 3.26zM2.58 29.92c1.7-2.42 4-5.16 5.66-7.09a42.66 42.66 0 0 0-5.66 7.09zM20.76 24.66c.3-.44 1-1.28 1.07-1.42-.36.42-1 .95-1.07 1.42zM18.47 23.83a37.64 37.64 0 0 1 1.36 4.34 10.13 10.13 0 0 0-1.36-4.34zM18 26.25a6.23 6.23 0 0 0-.65-1.75 18.06 18.06 0 0 0 .65 1.75zM19 28.17a12.41 12.41 0 0 0-1.15-3.59c.48 1.14.85 2.35 1.15 3.59zM22.48 24.58c-.19.39-.72.83-.72 1.17.24-.37.72-.83.72-1.17zM9.31 26c-.14.17-1 1.28-.57.75A13.86 13.86 0 0 0 10 25.16a7.17 7.17 0 0 0-.69.84zM10.09 25.08c0-.13.07-.14.07-.25a1.28 1.28 0 0 1-.16.33zM17.25 27.09a16.85 16.85 0 0 0-.79-2.25 10.2 10.2 0 0 0 .79 2.25zM5.87 35.43a56.51 56.51 0 0 1 4.58-6.26 23.92 23.92 0 0 0-4.58 6.26zM6.73 35.43c1.61-2.16 3.29-4.23 5-6.26a32.22 32.22 0 0 0-5 6.26zM4.8 35.27c1.27-2.14 3.1-4.07 4.3-6-1.44 1.94-3.3 3.82-4.3 6zM15.75 29.26A78.12 78.12 0 0 0 10 36.6c1.84-2.5 4-5.07 5.75-7.34zM16.75 32.68a29.33 29.33 0 0 0 2.79-3.42A52.71 52.71 0 0 0 14 36.1s-.08.07 0 .08c.84-1.18 1.78-2.37 2.75-3.5zM20.9 29.34c-.9 1.2-2.32 2.25-3 3.42.94-1.15 2.41-2.14 3-3.42zM21 30.09c-.57 1.07-1.79 1.81-2.22 2.75.7-.96 1.93-1.7 2.22-2.75zM21.91 30.17a29.13 29.13 0 0 0-3.65 4.51c1.1-1.57 2.68-3.05 3.65-4.51zM8.73 35.18a37 37 0 0 1 3-4.34 17.76 17.76 0 0 0-3 4.34zM6.8 31a13.66 13.66 0 0 0-2 2.84c.63-.84 1.58-2.27 2-2.84zM3.58 33.93c.37-.71 1.07-1.48 1.29-2.09-.38.7-1.14 1.4-1.29 2.09zM19.26 34.18a18.55 18.55 0 0 0 1.58-2.34 18.19 18.19 0 0 0-1.58 2.34zM21.41 32.18A6.69 6.69 0 0 0 20 34.1c.34-.67 1.25-1.57 1.41-1.92zM15.89 36.1A78.31 78.31 0 0 0 9.81 43c1.78-1.94 3.75-4.19 5.51-6.09.25-.24.68-.65.57-.81zM16.39 36.68a75.43 75.43 0 0 0-5.8 6.59c1.69-1.85 3.6-4 5.23-5.84.24-.27.68-.55.57-.75zM7.37 42.78c1.49-1.75 3.24-4.07 4.51-5.51a41.89 41.89 0 0 0-4.51 5.51zM13 42.86a23.09 23.09 0 0 0 2-2.17 28.82 28.82 0 0 0 2.4-3.09c-1.71 1.85-3.24 3.9-5 5.68.22.11.45-.28.6-.42zM29.71 38.1c-.11.39-.3.64-.14 1-.09-.45.49-.77.14-1zM5.8 38.77c-.12.27-.36.42-.43.75-.7.77.55-.52.43-.75zM8.09 43a23.34 23.34 0 0 0 3.36-4.09c-1.11 1.41-2.24 2.75-3.36 4.09zM13.74 45.28c1.65-2.11 3.95-3.91 5.44-5.93-1.77 1.97-4.05 3.79-5.44 5.93zM22.27 50a4.8 4.8 0 0 0 .73 1.21 5.78 5.78 0 0 0-.73-1.21zM22.27 50c-.1-.08-.07 0 0 0zM13.17 44.95c.46-.66 1.42-1.62 1.65-2a12 12 0 0 0-1.65 2zM12.1 45.28A10 10 0 0 0 13.17 44a10 10 0 0 0-1.07 1.28zM11.56 44.94a.24.24 0 0 1 .11-.08.16.16 0 0 0-.11.08zM11.54 45zM11.54 45c0 .08-.09.16-.23.14a5.59 5.59 0 0 1-.72-.83c0 .56.9.89.36 1.34.23 0 .19-.23.36-.25.26.31.62.95.93.92-.4-.39-.86-1.06-.7-1.32zM27.49 46.87c.1 0 .12-.1.21 0 0-.31.33-.55.21-.67a.07.07 0 0 1-.14 0c0-.16.21-1.07.07-.67-.51 2.18-2.33 2.85-3.22 4.59.29-.13.4-.47.64-.75a29.91 29.91 0 0 0 2.23-2.5zM25.13 50.62a10.07 10.07 0 0 0 1 1.75 15.23 15.23 0 0 0-1-1.75z"/></svg>