<svg id="Слой_1" data-name="Слой 1" xmlns="http://www.w3.org/2000/svg" viewBox="0 0 52.9 55.38"><defs><style>.cls-1{fill-rule:evenodd;fill:#fff}</style></defs><title>icon</title><path class="cls-1" d="M18.37 6.28a74.64 74.64 0 0 0-4.87 9.09c1.67-3 3-6.13 4.95-9-.02-.08.02-.14-.08-.09zM23.62 23.17a3.71 3.71 0 0 0 .21.68c.17-.13-.07-.56-.21-.68zM23.66 24.12c-.12-.21-.19-.73-.33-.73.19.27.08.61.33.73zM24.63 22.81a5.32 5.32 0 0 0 .32 1 1.11 1.11 0 0 0-.32-1zM25.45 22.92a4.5 4.5 0 0 0 .4 1c.15-.19-.19-.84-.4-1zM14.55 36.92c.05-.49.32-.91.33-1.41-.19.4-.61 1.05-.33 1.41zM25 37.71c0-.22-.22-.75-.42-.83.08.22.26.78.42.83zM25.6 37.32c0-.17-.17-.76-.41-.69.06.21.16.71.41.69zM25.53 36.52a7 7 0 0 0 .28.84c.19-.14-.07-.77-.28-.84zM47 28.23c.14-.29-.21-.85-.39-1.08a7.71 7.71 0 0 0 .39 1.08zM16.14 45.28a6 6 0 0 0 .71-2 5.53 5.53 0 0 0-.71 2zM36.6 36.33c.14-.17 0-.45-.07-.7-.16.15-.06.55.07.7zM27.31 50c0 .28.05.6.08.93s-.06.77.28.84c0-.57.09-1.43-.34-1.93.03.1-.08.16-.02.16z"/><path class="cls-1" d="M52.34 36.06c-.76-1.5-1.52-2.78-2.09-4.2-1.64.43-3.11.38-3.88-1.5 0-.86.82-1.41 1.7-1.93a23 23 0 0 1-.73-2.48 17.78 17.78 0 0 0-1.54-3c-.55-1-1.19-1.87-1.73-2.76s-1.06-2-1.65-2.9a30.13 30.13 0 0 1-1.63-2.85c-2-4.2-4.42-8.06-6.26-12.46-3.2 1.67-6.89 1.71-7.74-2-2.34 1-5.05 2.16-7.4 3.39s-4.79 2.4-7.24 3.51-5 2.32-7.36 3.47c-.82.4-1.51.86-2.25 1.26a7.34 7.34 0 0 0-1.19.59c-.2.18-.25.58-.49.85s-.32.32-.47.46-.33.23-.39.42c1.94 3.45 3.45 7.75 5.42 11.14C6.3 26.6 7 28.2 7.86 29.75c1.27 2.41 2.62 4.9 3.76 7.14a12.57 12.57 0 0 1 1.71-.09c2 .31 4 2.92 3.63 5.25-.64.83-1.05 1.74-1.65 2.59 2 3.43 3.88 7.44 6 10.75 2.53-1 5-2.43 7.54-3.6q2-.89 4-1.7a36.08 36.08 0 0 0 3.66-1.89c2.5-1.36 5.12-2.48 7.67-3.75 1.22-.61 2.46-1.22 3.73-1.73a28.42 28.42 0 0 0 4.74-2.19 16.58 16.58 0 0 0 .11-2.67 1.88 1.88 0 0 1 0-.39c.08-.23.21-.14.17-.37a5.84 5.84 0 0 0-.59-1.04zm-4.6-7.72a3.64 3.64 0 0 0-1.59 1.54c-.05-.11-.1-.2 0-.16.21-.36-.45-.88-.37-1.24a4.53 4.53 0 0 1 .46.91c.25-.08 0-.28.27-.27-.18-.5-.58-1.09-.48-1.48.25.5.27 1 .56 1.35.1-.41-.34-1-.49-1.52.35.11.42 1 .75 1.12a5.22 5.22 0 0 0-.58-1.29 2.93 2.93 0 0 1 .82-.76 6.45 6.45 0 0 0 .65 1.8zm-1.87-.27c.12-.09.1.05.09.1.24.48.04.24-.09-.1zM.27 14c.16-.23.42-.42.58-.65.1 0 0 .32-.12.49a4.79 4.79 0 0 1-.24.54A1.56 1.56 0 0 0 .27 14zm1.09-1c.1 0 .12.22.19.3a4.57 4.57 0 0 0-.65 1.45c.33-.24.45-1 .72-1.3a1.46 1.46 0 0 1-.26.94 5.69 5.69 0 0 1-.5.71c-.55-.85.28-1.51.5-2.1zm.16 1.43a1.81 1.81 0 0 0 .2-.62c.12 0 .14.27.22.38-.33.46-.59.94-.87 1.41-.16-.48.27-.81.46-1.18zm.52 0c.15.39-.27.63-.41.91a6.09 6.09 0 0 1-.31.82c-.23-.78.46-1.34.68-1.78zm-.67 1.85c.36-.43.4-1.16.85-1.45.08.68-.59 1.07-.64 1.7-.09-.07-.12-.25-.21-.3zm1-1.07c.1-.08.06.2.15.13a7.22 7.22 0 0 1-.79 1.57c-.15-.63.49-1.16.62-1.75zm.2.34c.1 0 .11.19.17.26-.4.4-.49 1.09-.83 1.39a13 13 0 0 1 .64-1.69zm-.16 1.14a1.59 1.59 0 0 0 .35-.74c.15-.1.15.2.23.29-.36.43-.56 1.1-.85 1.45-.14-.47.24-.69.25-1.04zm.59-.26l.12-.05c.32.62-.62 1.14-.66 1.76-.37-.63.43-1.14.54-1.71zm-.26 2.44a7.46 7.46 0 0 0 .66-1.76c-.48.26-.47 1.18-.77 1.51 0-.07-.08-.13-.09-.2 0-.33.63-1.26.85-1.55a2.15 2.15 0 0 0 .35.67A4.42 4.42 0 0 0 3 19.07c.43-.22.46-1.05.76-1.32.11.36-.2.66-.35.93a2.09 2.09 0 0 0-.37.9c-.13-.11-.2-.48-.33-.7zm1.2-.68c.16-.09.16.23.24.33A16.33 16.33 0 0 0 3.24 20c-.24-.61.49-1.26.67-1.81zm-.18 1.44c.14-.28.29-.57.45-.83h.12a8 8 0 0 0-.84 1.69c-.14-.31.11-.59.24-.86zm-.11 1.26a11.7 11.7 0 0 1 .7-1.77c.1-.1.11.06.15.13a8.18 8.18 0 0 0-.67 2c.39-.38.51-1.32.82-1.73l.09.2c-.22.64-.55 1.24-.75 1.89-.18-.16-.24-.51-.37-.72zm.44 1c.2-.66.55-1.26.73-1.93.59.52-.7 1.49-.44 2.24.22-.13.29-.52.41-.82a2.64 2.64 0 0 1 .41-.82c.1.19-.07.4-.14.55a6.58 6.58 0 0 0-.54 1.6c-.22-.18-.31-.59-.46-.85zm1.17-1c.15-.1.15.2.23.29-.4.57-.38 1.31-.81 1.87a12.69 12.69 0 0 1 .55-2.15zm.26.46c.15 0 .21.28.3.45-.48.38-.55 1.2-.92 1.72-.05-.79.58-1.36.59-2.16zm-.14 2.92c-.1-.62.55-1.24.59-1.92-.49.3-.49 1.08-.85 1.55 0-.74.58-1.3.69-2 .19.16.27.57.42.83-.54.27-.6 1.06-.88 1.56zm.09.2c.28-.53.5-1.08.72-1.63h.1c-.1.59-.56 1-.68 1.62.38-.25.47-1.07.8-1.33l.13.28c-.51.4-.49 1-.91 1.43zm1 1.88c-.24-.36-.42-.9-.66-1.25a9.28 9.28 0 0 1 .83-1.59c0 .62-.59 1.08-.68 1.71.45-.25.5-.95.84-1.35 0 .65-.73 1-.68 1.72a3.64 3.64 0 0 0 .75-1.36c.42.51-.62 1.18-.49 1.82.36-.27.52-1.07.79-1.37a2.32 2.32 0 0 1-.52 1.21c-.08.17-.05.36-.21.48zm.38-.35a9.31 9.31 0 0 0 .43-1c.22.09 0 .51 0 .69a10.45 10.45 0 0 1-.56 1.13c-.22-.25.01-.58.13-.82zm0 1a4.09 4.09 0 0 0 .67-1.52h.1c.07.71-.61 1.13-.53 1.84a4.07 4.07 0 0 0 .65-1.46c.33.29 0 .74-.18 1.1a4.28 4.28 0 0 0-.27.9c-.23-.19-.29-.61-.48-.86zm.48.95c.42-.41.36-1.18.73-1.49.06.71-.44 1.22-.51 1.88-.16-.04-.19-.34-.27-.41zm.29.55a9.91 9.91 0 0 0 .58-1.62c.35.14 0 .69-.12 1a5.28 5.28 0 0 1-.35.84zm.26.56a9 9 0 0 0 .58-1.72c.61.7-.47 1.34-.26 2.11a4.52 4.52 0 0 0 .63-1.5 4 4 0 0 1-.59 1.82 4.54 4.54 0 0 0-.41-.77zm1.34-.26c-.27.52-.31 1.13-.62 1.64l-.22-.48A4.8 4.8 0 0 0 9 28.33c.22.05.27.53.47.61a5.91 5.91 0 0 1-.63 1.83c0-.73.48-1.27.46-2-.07.01-.09-.02-.13 0zm.37.61c.12 0 .16.16.25.23a8.83 8.83 0 0 0-.62 1.2c-.06-.42.36-.94.32-1.46zm.48.85c-.42.23-.5 1.06-.8 1.33-.23-.26.12-.51.25-.74a4.11 4.11 0 0 0 .35-.94c.81.72-.1 1.57-.31 2.22-.26-.79.54-1.13.44-1.9zM10 31.71a4.43 4.43 0 0 0 .39-1s.05 0 .08.06c.1.3-.15.54-.23.78a5 5 0 0 1-.36 1c-.35-.14-.04-.55.12-.84zm.57-.45c.16-.09.16.23.24.33-.36.45-.45 1-.79 1.47.05-.64.45-1.15.52-1.8zm.34.53s.05 0 .08.06a8.79 8.79 0 0 1-.66 1.76c-.22-.75.44-1.18.54-1.82zm-.14 1.52c.15-.4.19-.81.32-1.11.14 0 .2.25.28.41-.51.32-.42 1.16-.76 1.65-.32-.37.02-.68.12-.95zm.3.45c.11-.36.21-.74.3-1.06.14 0 .21.26.3.45a5.47 5.47 0 0 0-.74 1.59c-.31-.25 0-.67.07-.98zM10.95 35a8.84 8.84 0 0 0 .74-1.59c.13 0 .16.17.23.29-.5.4-.51 1-.85 1.45C11 35 11 35 10.95 35zm1-1.13c.16-.09.16.23.25.33-.37.43-.56 1.1-.85 1.45-.14-.76.45-1.2.59-1.82zm-.27 2.3c-.27-.6.39-1.15.54-1.7h.14c.06.24.27.34.18.5s0-.16-.22 0a6.44 6.44 0 0 0-.65 1.17zm.73.45a.58.58 0 0 1 .24-.45l.07.16c-.25.01-.17.17-.32.25zm.45-.3v-.18l.12-.05a.17.17 0 0 1-.13.19zm.31-.82c0 .16 0 .35-.18.47-.15-.15-.04-.42.17-.51zm0-.49c.15 0 0 .24 0 .34-.17-.03 0-.28.01-.35zM13 36.49c.15 0 .36-.14.45 0a.41.41 0 0 1-.45 0zm.73-1a.31.31 0 0 1-.17.37c-.02-.13.07-.36.21-.33zm.16-.51c0 .16 0 .38-.17.37 0-.12 0-.27.21-.35zm-.55.29c0-.13 0-.21.05-.31s.12 0 .2 0c.02.17-.01.4-.2.35zm.07.16a.44.44 0 0 1-.16.41c.02-.12.02-.28.21-.37zm0 .69c0-.1.17-.22.22-.05s-.1.08-.2.09zm.22.39a.13.13 0 0 0 0-.12c.12-.1.12.1.17.17s.07-.15.2-.19 0 .2.07.36c-.07-.02-.29-.03-.42-.18zm.71-.9c.06.14 0 .33-.15.31a.24.24 0 0 1 .17-.27zm.18-.57a.62.62 0 0 1-.16.51.39.39 0 0 1 .18-.47zm-.47.36c0-.17 0-.38.17-.37.04.18-.01.43-.15.41zm-.14.45a.24.24 0 0 1 .09-.25c.07.12.11.24-.06.29zm.15.32c0-.1 0-.22.17-.17s-.03.26-.15.21zm.12.58a8.32 8.32 0 0 0 .54-1.75c.21 0 .33.24.54.24A15.58 15.58 0 0 0 14.7 37a1.4 1.4 0 0 1-.5-.21zm.82-.32a4.39 4.39 0 0 0 .3-1.06c.15-.1.18.12.29.11a13.5 13.5 0 0 0-.59 1.8c-.28-.11-.07-.55 0-.81zm.33 1.06c-.24-.21-.06-.6 0-.89a2.6 2.6 0 0 0 .26-1c.16 0 .22.23.36.27a5.93 5.93 0 0 1-.59 1.66zm.25.23c.08-.57.43-1 .48-1.62h.1c.19.67-.58 1.16-.27 1.77a5.83 5.83 0 0 0 .43-1.41c.12 0 .15.31.26.37a3.66 3.66 0 0 0-.55 1.36 3 3 0 0 0-.43-.43zm1.06-.33c-.3.29-.15.74-.4 1.05 0-.54.28-1 .3-1.49.52.39.08 1 0 1.39-.05-.21.28-.56.13-.92zm.09 1.8c-.17-.32.13-.8.2-1.16 0-.09-.1-.29.07-.27a5.61 5.61 0 0 1-.25 1.47zm-.2 4c-.07.37-.45.92-.59 1.38a3.67 3.67 0 0 1 .62-1.37zm-.83 1.49c-.06 0-.07-.11-.14-.09s.08-.19.23-.25c.03.14-.07.22-.06.35zm.2.44c.23-.76.68-1.44.9-2.2l.26.56a7 7 0 0 0-.87 2c-.11.01-.19-.29-.26-.35zm1.15 2a10.53 10.53 0 0 0 .68-2.12 7.8 7.8 0 0 0-.73 1.84 9.48 9.48 0 0 1-.65-1 7.46 7.46 0 0 1 .82-2.16c.12.44-.23.78-.36 1.13a2.89 2.89 0 0 0-.26 1.19c.41-.58.37-1.33.79-1.91-.07.73-.51 1.33-.64 2 .28 0 0 .22.2.34a5.3 5.3 0 0 0 .56-1.56c0-.12-.19-.29.06-.51a4.7 4.7 0 0 0 .46.91 5.21 5.21 0 0 0-.68 2.15c.45-.53.43-1.42.81-1.87-.11.78-.69 1.57-.49 2.36.23-.06.16-.36.2-.53a6.9 6.9 0 0 1 .45-1.47c.18.89-.62 1.59-.31 2.42a14.91 14.91 0 0 0 .51-2c.43.39 0 .89-.15 1.28s-.18.88-.27 1.24a13.24 13.24 0 0 1-.98-1.71zm1 1.86a6.51 6.51 0 0 0 .64-2c.11 0 .12.22.19.3-.14.74-.68 1.5-.43 2.28.35-.58.26-1.5.61-2l.07.16a3.94 3.94 0 0 0-.46 2.2c0 .11.12.11.22 0 0 .19-.18.51.08.6a15.31 15.31 0 0 0 .52-2.08c.57 1-.54 1.6-.3 2.56.43-.51.43-1.35.69-1.81.09.41-.23.86-.33 1.31s0 .68-.21.92c-.34-.78-.84-1.5-1.23-2.42zm1.13-1c.11 0 .13.25.2.35-.09.12-.08.28-.21.39s0 .41-.1.63-.12.47-.2.43c.13-.66.3-1.22.37-1.78zm1.22 5.12a12.85 12.85 0 0 1-.89-1.44c.31 0 .28-.67.36-1s.2-.71.24-1c0 0 .05 0 .08.06 0 .81-.57 1.59-.27 2.4.39-.58.18-1.38.51-2 .27.49 0 1-.08 1.44a3.21 3.21 0 0 0-.12 1.12c0 .1.19.13.16 0 .13.1-.03.32.01.42zm.33-2.28c.44.59-.21 1.05-.2 1.59a6.22 6.22 0 0 1 .2-1.59zm.29.64c.11 0 .14.1.19.21a13.61 13.61 0 0 0-.52 2.08 6.79 6.79 0 0 1 .31-2.28zm.23 3.1c-.5-.46-.21-.87-.12-1.45A8.65 8.65 0 0 1 21.3 52h.1c.2.94-.27 1.64-.15 2.56zm.32.49c-.16 0-.11-.12-.09-.2s.1.15.09.2zm.44-.54a10.24 10.24 0 0 1 .07-1.78 6.35 6.35 0 0 1-.08 1.78zm.29.21c-.19-.31.11-1.08 0-1.6a4 4 0 0 1 0 1.6zm0-2.2c.15 0 0 .24.07.36-.1-.02-.03-.26-.05-.35zm.34-.21c.07.16-.05.25 0 .42-.02-.03-.1-.34.03-.41zm.38 2c0-.72-.12-1.45-.15-2.16l.16-.07a12 12 0 0 1-.03 2.26zm.32-2c-.11-.07-.11-.37 0-.48.12.12-.02.37.02.52zm.22-.59c.19.2.07.85.17 1.23-.19-.28-.05-.78-.15-1.18zm.43 2a3.89 3.89 0 0 1 0-1A1.5 1.5 0 0 1 24 53.8zm0-2.32a5.27 5.27 0 0 1 0 .62v.39c.01-.26-.25-.68.01-.93zm.68 1.93c-.08-.74-.07-1.43-.21-2.19a5.14 5.14 0 0 1 .2 2.27zm.07-2.31c.14 0 .09-.12.22-.15.06.32.12 1 0 1a1.47 1.47 0 0 0-.23-.77zm.26 2.19c0-.36-.08-.74-.06-1.09a1.45 1.45 0 0 1 .06 1.09zm.65-1.21c-.2-.36-.11-.89-.2-1.32.29.32.08.95.2 1.32zm-.06.08c.12.16 0 .53.11.78-.2-.02-.05-.51-.11-.74zm.25-.94a1.2 1.2 0 0 0-.13-.62l.12-.05c.04.28.17.53.01.71zm.23-.78c.25 0 0 .35.14.52-.1-.02-.14-.34-.14-.48zm.19 2.24v-.24c0-.1 0 0 .06 0 .17.07.33-.29.46-.06-.25.13-.32.27-.52.34zm1.07-.53a19.15 19.15 0 0 0-.25-2.17l.6-.27c.16.7-.08 1.42.25 2.07.28-.16.09-.32.37-.36a4.3 4.3 0 0 0-.3-1.85l.28-.13a20.44 20.44 0 0 1 .21 2.18zm1.61-2.67c-.13 0-.12-.24-.14-.32.2-.03.03.25.14.36zm-.14 1.42c-.2-.43-.16-1.06-.33-1.6l.16-.07a13.1 13.1 0 0 1 .17 1.71zm0 .59v-.32c0-.12.09.22.21.15s.17-.09.11-.19c.09 0 .15.08.23.09.15-.15.31-.26.48-.22a5.33 5.33 0 0 1-1.05.54zm.6-2.65c.22.18.14.78.21 1.12a4.39 4.39 0 0 1-.23-1.07zm.53 2.14a8.94 8.94 0 0 0-.25-2.27h.08c.36.52.09 1.43.33 2.13.18 0 .25-.15.19-.33.09 0 .13.2.21.25zm.22-2.52a6.89 6.89 0 0 1 .16 1.33c-.09-.27-.31-.94-.18-1.29zm.51 2.2c0-.76-.13-1.54-.17-2.3a8.54 8.54 0 0 1 .17 1.23 4.31 4.31 0 0 1-.03 1.11zm.36-.16a11.12 11.12 0 0 0-.35-2.27c.14 0 .09-.12.22-.15.25.67 0 1.59.36 2.31.21-.05.19-.2.19-.33.1.09.21 0 .3-.09s.05.16.11.14c-.19.26-.6.31-.85.43zm.12-2.53l.2-.09v1.05c-.16-.19-.08-.6-.23-.92zm.48-.22a6.43 6.43 0 0 1 .08.93c0 .27.07.69-.07.71.08-.47-.18-1.11-.03-1.6zM32 50c.11-.13.25.09.26-.07.19.02-.26.19-.26.07zm.59-.85a9.67 9.67 0 0 1-.16-1.33c0-.08-.16-.21-.07-.26l-.05-.12.16-.07c.17.72.13 1.65.24 2.46-.24-.14-.12-.49-.14-.72zm.2-1.93c.07.17 0 .28.06.46-.09-.08-.26-.44-.08-.5zm.31.25c0-.14-.27-.38.06-.41 0 .5.1 1 .12 1.55a6.44 6.44 0 0 1-.21-1.18zm.54 1.94a23.12 23.12 0 0 0-.28-2.45l.16-.07a15.74 15.74 0 0 1 .17 2.2c0 .1.12.1.19.11s-.17.11-.27.17zm.14-2.59c.16 0 .06.27.12.38-.14-.06-.13-.31-.15-.41zm.16 2.4a1.18 1.18 0 0 0 0-.63s.23.52-.03.6zm.3-1.59a5.75 5.75 0 0 1-.14-1c.23.16.11.73.18 1-.08.06-.11-.02-.07-.03zm.28-1.1a4.77 4.77 0 0 1 .11.78 1 1 0 0 1-.14-.81zm.29 2.25h-.08c-.08-.1 0-.13-.05-.22s.19.12.1.18zm0-2.41h.14a5.08 5.08 0 0 0 0 .67c-.13-.17-.13-.59-.19-.71zm.57 2.12a12.62 12.62 0 0 0-.38-2.23l.2-.09a8.14 8.14 0 0 1 .27 1.24c.05.33.2.85-.14 1.04zm.61-2.51c-.11 0-.11.11 0 .21-.3-.26-.1.57 0 1s.23.9 0 1a11 11 0 0 0-.35-2.07 3.59 3.59 0 0 0 .75-.39 11.12 11.12 0 0 1 .26 2.07 6.71 6.71 0 0 0-.71-1.86zm.47-.36l.16-.07a13.48 13.48 0 0 1 .31 2.09c-.28-.64-.29-1.5-.52-2.06zm.64.88a7.82 7.82 0 0 1-.2-1.08 2.19 2.19 0 0 1 .1.58c.07.18.09.55 0 .46zm.42.83c-.09-.33-.05-.72-.11-1.11s-.37-.8 0-1.05c.21.66.12 1.2.3 1.85.18.1.21-.19.42 0a5.55 5.55 0 0 0-.13-1.69c.06-.16-.23-.44.12-.49a13 13 0 0 1 .21 1.75c0 .11.3 0 .24-.11s.14.17.25.13a6.9 6.9 0 0 0-.12-2.08l.12-.06c.21.69.08 1.26.24 1.93.21 0 .31-.28.54-.1-.69.3-1.48.62-2.13.99zm.07-2.21c.21-.05.1.26.16.36-.18-.06-.08-.28-.21-.41zm.91.08c-.13-.07-.12-.38-.14-.52.15.05.03.32.09.47zm1.04-1.2c.27.21.16.84.19 1.18a6.68 6.68 0 0 1-.19-1.18zm.28-.13l.2-.09a21.1 21.1 0 0 1 .17 2.1c-.37-.47.08-1.23-.37-1.98zm.94 1.76c-.11-.06 0-.22 0-.38a15.38 15.38 0 0 0-.21-1.55l-.05-.12.12-.05c.13.67.22 1.33.38 2zm.45-.3c0-.21 0-.07.22-.15a3.32 3.32 0 0 0-.23-1.69c-.29.28-.05.76-.07 1.14 0 .13-.2-.59-.21-.78l-.18-.4a6.13 6.13 0 0 0 .63-.33A11 11 0 0 1 41.6 45c.06 0 .12.1.22 0a3.2 3.2 0 0 0-.1-1.61c0-.15-.2-.35-.06-.46.34.47.12 1.47.38 2-.15.22-.66.54-.83.43zm1.12-.41c-.15-.18-.09-.61-.14-1s-.19-.7-.19-1.04l.12-.05a8.34 8.34 0 0 1 .23 1.79c-.01.18.19.23-.01.33zm0-2.22l.2-.09c.07.53.14 1.06.17 1.57-.2-.35-.17-.94-.4-1.45zm.35 2.07v-.34c.09.24.32 0 .39.11-.22.09-.22.21-.41.26zm.22-2c-.11 0-.19-.31 0-.34a2.55 2.55 0 0 0-.02.38zm.45 1.64a.67.67 0 0 0-.07-.36c.13-.07.16.12.28.07s.08-.22.09-.33a.72.72 0 0 1 .22 0c0-.08.16-.12.09-.23.12 0 .05.27.27.17a4.86 4.86 0 0 0-.08-1.9c0-.05.09-.07.22-.15.1.74 0 1.4.09 2.14-.46.24-.72.47-1.14.63zm-.17-2.1A4.81 4.81 0 0 1 43.3 44a8.33 8.33 0 0 1-.15-1.65zm.4-.18c0 .3.07.63.08.93-.08-.15-.24-.66-.11-.89zm.35.13c-.15 0 0-.16-.11-.24.18-.02.06.21.08.28zm.85.15c-.12-.17-.09-.57-.13-.82.21.13.02.61.1.86zm0 1.31a.71.71 0 0 1 0-.32c.07 0 .13.07.22 0a4 4 0 0 0 0-2c.14 0 .09-.12.22-.15.12.64-.06 1.16 0 1.78 0 .08.27.11.28 0s0 .15.11.24a4.29 4.29 0 0 1-.85.49zM45.9 43c.09 0 .08.14.13.18-.18.04-.14-.13-.13-.18zm.4 0a8.44 8.44 0 0 1-.09-1.61 4.67 4.67 0 0 1 .08 1.61zm0-2.2c.06 0 .12 0 .1-.09.19 0 0 .24.12.38-.08-.09-.11-.27-.2-.32zm.59 2c-.17-.6.07-1.51-.25-2.17l.57-.26a15.65 15.65 0 0 0 .21 2.19c-.31-.43-.09-1.41-.46-2-.33.57.35 1.58-.05 2.17zm.55-2.53a8.1 8.1 0 0 1 .28 2 19.26 19.26 0 0 1-.25-2.07zm.61 2c-.1-.72-.18-1.43-.29-2.15l.12-.05a7.06 7.06 0 0 1 .2 2.14zm.07-2.31c.06 0 .12 0 .1-.09s.08 0 .1 0a13.45 13.45 0 0 1 .27 2.13c-.3-.46-.13-1.39-.44-2.11zm.39-.22l.12-.05a8.46 8.46 0 0 1 .29 2.25 13.33 13.33 0 0 0-.38-2.27zm.36-.16l.12-.05a11.69 11.69 0 0 1 .33 2.23c-.21-.7-.09-1.48-.42-2.25zm.28-.13c0-.07.12-.11.22-.15a10 10 0 0 1 .14 1.05c-.15-.25-.07-.75-.33-.97zm.45 2.17a.42.42 0 0 1 .49-.32c.17-.74-.07-1.63 0-2.39.21.85-.09 1.68.18 2.44-.16.01-.44.22-.64.2zm.25-2.62a9.91 9.91 0 0 0 0 1.15c-.1-.1-.08-.34-.12-.58s-.19-.49.12-.57zm.73 2.15c-.07-.83 0-1.61-.14-2.46l.2-.09a15.55 15.55 0 0 0 .11 2.28c.19.09.38-.12.54-.2.06.32-.5.32-.71.5zm.69-1.91a7.19 7.19 0 0 1-.22-.92c.06 0 .16 0 .14-.11.22.18.01.73.08 1.05zm.38 1.38a8.07 8.07 0 0 1 0-2.57c-.01.87.03 1.75 0 2.6zm.8-2.64c-.17 0 0-.29-.17-.27s.06-.13.17-.17c.07.2-.07.29 0 .46zm-5.1 1.91c-.1-.13.08-.45.17-.7.61-1.78 1.17-3.81 1.61-5.68-.77 2.12-1.18 4.37-2 6.47-.48.2-.89.42-1.31.64-.15-.23.09-.47.17-.71.59-1.79 1.1-3.83 1.73-5.63a65.44 65.44 0 0 0-2.1 6.43c-.52.09-.56.37-1.15.57-.17-.08 0-.3 0-.39.62-2.28 1.57-4.69 2.12-7q-1.31 3.7-2.34 7.51c-.37.16-.62.37-1 .51-.09 0 0-.36 0-.55.82-3.07 1.83-6.36 2.84-9.39a54.38 54.38 0 0 0-2.78 8.78A5.62 5.62 0 0 1 43 42c-.28.32-.91.25-1.23.6-.1-.41.15-.79.24-1.18.71-2.78 1.48-5.68 2.35-8.44a11.31 11.31 0 0 0-.84 2.32 156.4 156.4 0 0 0-1.89 7.31c-.95.53-1.83.93-2.95 1.43.24-1.58 1.07-3.23 1.5-4.85a13.9 13.9 0 0 0-1 2.38c-.28.84-.43 1.73-.69 2.54-.34.07-.67.56-.78.21a.68.68 0 0 1-.23.35 33.16 33.16 0 0 1-3.33 1.55c.1-.84.39-1.61.49-2.45a20.35 20.35 0 0 0-.64 2.55c-1.09.39-2.17 1-3.36 1.47-.11-.13 0-.43 0-.69.6-3.85 1-8 2-11.72-1.21 3.88-1.57 8.36-2.24 12.56-1.35.56-2.33 1.28-3.89 1.9.52-3.47.88-7 1.56-10.41a1.48 1.48 0 0 0 .47-.89c0-.21-.13-.41-.13-.62 0-.65.51-1.28.23-1.85a4.05 4.05 0 0 1-.34 1.51c-1.13-3.18-6-.78-5 1.78a2.73 2.73 0 0 0 1.7 1.46 5.36 5.36 0 0 0 2.84-1.23c-.55 3.28-1 6.88-1.46 10.31l-.65.29a81 81 0 0 1 1.68-10 30.19 30.19 0 0 0-1.15 5.08c-.22 1.31-.37 2.59-.55 3.94-.05.39.08 1-.36 1.23a1.8 1.8 0 0 1 0-.87c.24-2.12.74-4.43 1-6.57a62.67 62.67 0 0 0-1.21 7.53c-.56.25-1 .55-1.53.79.3-3 .81-6 1.28-9a78.57 78.57 0 0 0-1.45 9.15c-.41.19-1 .73-1.48.91-.15-.14-.23-.46-.37-.61.41-3.51.7-7.07 1.33-10.5a81.62 81.62 0 0 0-1.38 10.28C20 48.84 18.48 45.73 17 42.72a6.23 6.23 0 0 0 .45-4.81 5.92 5.92 0 0 0-1.52-2.52 4.43 4.43 0 0 0-3.15-1C9 27.55 4.86 19.67 1.46 12.46a29.84 29.84 0 0 0 2.65-1.54c1.08-.56 2.24-1 3.35-1.51C11 7.64 14.73 5.89 18.29 4.28 21.09 3 23.8 1.49 26.66.35a3.6 3.6 0 0 0 2.25 2.72 7.24 7.24 0 0 0 5.51-.69c1.61 3.86 3.52 7 5.25 10.44.36.71.64 1.44 1 2.16 1.92 3.6 4.5 7.1 6.36 11.2a3.6 3.6 0 0 0-1.34 1.33c-.66 1.3.11 3.57 1.43 4.45a3.34 3.34 0 0 0 2.86.31c.8 1.73 1.72 3.13 2.5 4.89-1.65.97-3.38 1.91-5.14 2.76zm-23.83-1.48c.13.06.2.31.32.39 0-.11 0-.21.14-.11 0-.31-.39-.54-.36-.8.22.08.28.62.51.69a.92.92 0 0 0-.24.45c-.2-.16-.5-.34-.37-.62zm.27 1.14a.53.53 0 0 1-.24-.43.52.52 0 0 1 .24.42zm.21-2.23c.24 0 .24.59.45.67.21-.26-.49-.69-.2-.88.16 0 .25.68.46.81.1-.21-.22-.66-.34-.86a1.06 1.06 0 0 1 .55-.39c.12.24.11.66.33.73.08-.19-.1-.59-.25-.76a1.45 1.45 0 0 1 .82-.22c.1.28.13.69.36.9.12-.23-.2-.63-.16-.9.3 0 .19.75.48.95.15-.27-.31-.76-.12-1 .13.36.17.69.28 1 .15.09.15 0 .23.29a2.53 2.53 0 0 0-2.74.8c.06-.33-.61-.7-.28-.94a3 3 0 0 0 .37.71c.23-.18-.32-.66-.24-.91zm3.12-.73c.33.27.18.91.25 1.3-.56 0-.33-.93-.56-1.45.3.19.12 1.07.42 1.26.17-.29-.1-.7-.12-1.11zm-1.55 1.19c.81-.2 2.42.53 2.13 1.61-1 .75-3.11 1.73-3.66.49-.35-.77.56-1.88 1.52-2.11zm-8.31 1.47a1.48 1.48 0 0 1-.12.93c-.08-.36.1-.61.11-.94z"/><path class="cls-1" d="M17.55 12.08a23.17 23.17 0 0 0 1.82-3.93 150.16 150.16 0 0 0-6.85 16c1.18-2.63 2-5.44 3.29-8.08.62-1.31 1.1-2.69 1.74-3.99zM17.47 14.06c-.07.16-.25.53-.14.45.4-1 1-2 1.41-3a24.48 24.48 0 0 0-1.27 2.55zM18.79 13.22a88.72 88.72 0 0 0-4.39 11c1.49-3.65 2.66-7.43 4.39-11zM16.49 20.81c.71-1.67 1.4-3.36 2.06-5a10.5 10.5 0 0 0 .62-1.64c-1.85 4.42-3.8 8.79-5.34 13.33 1-2.17 1.72-4.5 2.66-6.69zM28.49 10.1c-.16.15-.45 1-.26.5a1.39 1.39 0 0 0 .26-.5zM20.16 14.2a148.45 148.45 0 0 0-6.42 16.1c1.86-5.47 4.19-10.76 6.42-16.1zM28 11.09c-.4.77.13-.16.07-.17a.26.26 0 0 0-.07.17zM16.94 23.42c1.17-2.83 2.45-5.64 3.58-8.41A171.65 171.65 0 0 0 13.62 32c.64-1.37 1.14-2.83 1.67-4.25s1.07-2.91 1.65-4.33zM27.42 12.24c-.07.16-.21.3-.25.41-.28.61.34-.42.25-.41zM26.45 14.18c.07-.23.38-.55.31-.72-.04.26-.29.45-.31.72zM23.09 22.1c1-2.61 2.24-5.5 3.3-7.85a69.74 69.74 0 0 0-3.3 7.85zM22.26 20.68c.7-1.7 1.52-3.35 2.18-5.06-.77 1.62-1.43 3.29-2.19 4.92-.08.26-.18.53.01.14zM12.68 26.12c.76-2 1.8-4.36 2.44-6.2-.81 2.08-1.83 4.19-2.44 6.2zM29.4 13.62c-1 1.78-2 3.71-2.79 5.43.95-1.74 2.02-3.85 2.79-5.43zM31.86 12.51a97.62 97.62 0 0 0-5.1 10.31c1.57-3.47 3.47-6.98 5.1-10.31zM17.46 27.79c1.34-3.66 3-7.21 4.54-10.78a86.71 86.71 0 0 0-4.54 10.78zM15.82 29.85a15.88 15.88 0 0 0-.56 1.66c1.61-4.47 3.34-9.08 5.18-13.35-1.7 3.84-3.32 7.77-4.62 11.69zM32.36 13.5a104.64 104.64 0 0 0-5.23 10.13c1.55-3.43 3.56-6.86 5.23-10.13zM19 25.38c.86-2.35 2.13-4.72 3-6.95a58.88 58.88 0 0 0-3 6.95zM34 14a91.36 91.36 0 0 0-5.93 12.33c1.57-3.64 3.32-7.36 5.2-10.84A4.88 4.88 0 0 0 34 14zM30.15 27.21c1.62-3.09 3.13-6.21 4.85-9.27a67.47 67.47 0 0 0-4.85 9.27zM20.77 43.18c0 .1 0 .11.06 0 .52-3.68 1.36-7.42 2.06-10.92-.89 3.6-1.52 7.25-2.12 10.92zM40.09 25.58a2.7 2.7 0 0 0-2.61.35A6.54 6.54 0 0 0 36 27.56a3.52 3.52 0 0 0-.2 1.6 1.91 1.91 0 0 0 .93 1c.68.28 2.35-.16 3.42-.81a2.21 2.21 0 0 0-.06-3.77zM38.8 26.7c.12-.28-.12-.76-.22-1 .09 0 .15 0 .26-.07a8.5 8.5 0 0 0 .16 1c.27-.23-.09-.7 0-1 .42.08.09.86.41 1.12.13-.28-.08-.7-.08-1a.92.92 0 0 1 .43.1 6.6 6.6 0 0 1 .12 1.45c-.37-.33-.14-1-.32-1.46-.19.33 0 .8 0 1.21a2 2 0 0 0-1-.24c0-.32-.17-.67-.2-1 .39.09.17.69.44.89zm-.88-.7c.27 0 .12.48.33.72.2-.2-.13-.61-.1-.87.24.09.17.58.28.84l-.32.15c0-.23-.28-.59-.19-.84zm0 1c-.14 0-.22-.5-.37-.71.31-.29.45.55.37.71zm-.53-.54c.21 0 .34.54.31.68s-.4-.55-.31-.68zm0 1a1.05 1.05 0 0 1-.23-.72c.15-.02.35.57.23.69zm-.19.23a1 1 0 0 1-.27-.6c.19-.09.21.42.27.57zm-.35.4a.92.92 0 0 1-.26-.56c.22-.04.21.39.26.54zm-.63 1a2.48 2.48 0 0 1-.1-.44c.11-.01.21.35.1.35zm.15-.31c0-.14-.15-.35-.12-.48.11-.01.29.36.12.42zm0-.89c.19 0 .38.53.11.58a.94.94 0 0 1-.08-.64zm3.37 1.34c-.91.34-2.91 1.37-3.21.19a3.61 3.61 0 0 1 1.87-2.3 1.42 1.42 0 0 1 1.6 1.05c.14.4-.09.52-.23 1zm.3-3.19c.21 0 .1.43.17.6-.14-.18.03-.44-.13-.64zM20.36 39.05a27.84 27.84 0 0 0-.82 3.13c-.05.32-.2.72 0 1 .33-3 1.52-5.81 2.1-8.57-.45 1.47-.85 2.95-1.28 4.44zM22.07 40.9c.38-1.94.77-4.05 1.07-5.91-.38 1.94-.79 4.01-1.07 5.91zM29.92 42.5q1-5.46 2.25-10.82A43.52 43.52 0 0 0 30.85 37a43.72 43.72 0 0 0-.93 5.5zM28.1 44.68a101.53 101.53 0 0 1 2.38-11.6 52.85 52.85 0 0 0-2.38 11.6zM22.06 43.67c.4-2.1 1-4.17 1.22-6.23A127.81 127.81 0 0 0 21.06 50c.37-2.06.6-4.22 1-6.33zM30.48 35c.06-.08-.09-.21 0 0-.9 4.54-1.58 9.34-2.23 13.87.75-4.61 1.39-9.28 2.23-13.87zM29.76 48.15c.73-3.8 1.19-7.85 2.06-11.55a3.89 3.89 0 0 0 .24-1.6c-1.06 4.24-1.65 8.85-2.3 13.15zM25.56 41.12c-.49 2.52-.79 5.29-1 7.8.37-2.56.72-5.31 1-7.8zM40.47 43.07c.89-2.82 1.76-5.78 2.63-8.56a2.45 2.45 0 0 0 .29-1.2c-1.08 3.19-2.09 6.59-2.92 9.76zM22.59 51.83c-.08-2.95.36-5.88.52-8.63-.22 2.8-.8 5.71-.52 8.63zM42 35.14c0-.11.21-.36 0-.45-.4 1.36-.91 2.86-1.17 4.17.43-1.18.83-2.57 1.17-3.72zM31.88 45.11h.06c.22-1.48.63-2.88.79-4.38a29.89 29.89 0 0 0-.85 4.38zM33.07 42.38a15.14 15.14 0 0 0-.73 3.53c.18-1.2.66-2.3.73-3.53zM23.7 48.17c-.08.87-.25 1.89-.24 2.68 0-.43.12-.89.17-1.34a5.31 5.31 0 0 0 .07-1.34zM33.27 45.5c.07-.21.08-.5.2-1a2.37 2.37 0 0 0-.21.82c.03-.24-.11.52.01.18zM48.56 39.08c0-.18.25-.44.14-.55.01.18-.22.47-.14.55zM23.71 12.5c.4-.28.83-.29 1.17-.63a1.76 1.76 0 0 0-.33-2.57c-1-.81-2.52.47-2.43 1.39.38 1 .88 1.81 1.59 1.81zm.68-2.15c-.22-.23-.09-.61-.22-.92.23.24.09.62.22.92zm-.93.08c.22-.22-.18-.67-.14-1 .32.11.14.76.38.95.2-.27-.23-.78-.1-1.07.32.22.09.79.35 1.2.29-.3-.25-.92 0-1.25.24.36.16.88.3 1.32-.3 0-.55-.15-.89 0 .09-.27-.38-.74-.26-1 .27.08.11.7.35.86zm-.29.23C23 10.53 23 10.21 23 10c.16.15.11.47.17.66zm-.29.23a2 2 0 0 1-.17-.8 1 1 0 0 1 .17.8zm1.79.74c-.6.55-1.5 1-1.8-.11.13-1.04 1.44-.95 1.8.11zM13 20.17a2 2 0 0 0-1.59-1.47 1.89 1.89 0 0 0-1.24.37c-1.77 1.2.3 4 2.17 2.66a1.8 1.8 0 0 0 .66-1.56zm-1 .26a3.31 3.31 0 0 0-.46-1.34c.35.17.46 1.01.46 1.34zm-.25-.23c-.17-.26-.22-.75-.47-1.15.27.07.33.84.43 1.15zm-.57-1.15c0 .34.4.82.19 1.08-.1-.33-.09-.75-.37-1-.11.27.33.75.1 1a3.36 3.36 0 0 0-.28-.94.49.49 0 0 1 .32-.14zm-.44.1a4.44 4.44 0 0 1 .18.84c-.3.18-.29-.48-.49-.55-.06.18.3.52 0 .61s-.31-.46-.31-.59.39-.2.58-.31zm-.89 1.55c-.11-.18-.05-.29-.1-.44.08.04.25.37.1.44zm.21-.29c-.12 0-.06-.31-.22-.39 0-.14.1-.25.11-.39.22 0 .21.4.29.55-.12 0-.14-.27-.22-.39-.21.13.11.46.04.63zm2 1.07c-.61.41-1.65.38-1.93-.2a.81.81 0 0 1 .32-1c.64-.28 1.84.22 1.64 1.21zM26.11 22.87a2.82 2.82 0 0 0-3 0 2.54 2.54 0 0 0-1 1 3.8 3.8 0 0 0 .12 3.49 2.6 2.6 0 0 0 1.91 1.22c.13 0 .32-.06.5-.08s.36 0 .52 0a3.12 3.12 0 0 0 2.64-2.65 5.68 5.68 0 0 0-.8-2.19 2.24 2.24 0 0 0-.89-.79zm0 .22c.26.29.18.73.29 1.08-.25-.14-.1-.78-.43-1.07.03-.04.03.01.09-.01zm-.31-.15c.09.34.28.73.33 1.06-.19.09-.3 0-.45 0a9.81 9.81 0 0 0-.31-1.12.6.6 0 0 1 .38.06zm-.57-.18c0 .35.36.87.19 1.17-.19-.29-.17-.77-.45-1.2a1.2 1.2 0 0 1 .21.03zm-.41-.06a3.52 3.52 0 0 1 .37 1.14c-.15.1-.21 0-.36.07a5.85 5.85 0 0 1-.37-1.24 1.71 1.71 0 0 0 .31.03zm-.49 0a7.7 7.7 0 0 1 .31 1.22c-.22-.11-.15-.83-.49-1.09-.15-.1.08-.1.13-.15zm-1.21.55c.07.31.23.64.28.94.15-.24-.09-.69-.24-1a2.33 2.33 0 0 1 .81-.46 2.37 2.37 0 0 1 .39 1.27c-.42 0-.26-.63-.54-1-.09.28.14.68.22 1a4.23 4.23 0 0 0-.83.42 4 4 0 0 0-.37-1c.16-.07.16-.15.23-.19zm-.68.74c.1.07.25.45.16.56-.11-.27-.29-.37-.22-.55zM22 25.54c.14.19.42.52.21.68-.11-.31-.21-.43-.21-.68zm.1.87c0-.13.15.25.2.35s-.11-.25-.17-.35zm0-1.25c.11 0 .13.25.2.34.21-.07-.06-.49-.16-.56a3.11 3.11 0 0 1 .13-.69c.21.11.11.47.31.59.33-.23-.1-.75-.06-1.09.22.17.22.55.36.81.16-.22-.18-.62-.28-.94.06-.05.16-.09.17-.17.15.19.22.78.4 1a2.43 2.43 0 0 0-.8 1.33 1 1 0 0 1-.27-.61zm5.06 1.74a2.84 2.84 0 0 1-.86.88 7 7 0 0 1-2.24.53 1.78 1.78 0 0 1-1.51-1.41c-.53-1.85 1.65-3.34 3.35-2.68.38.53 1.09 1 1.27 1.85.06.28-.12.57-.01.84zM34.22 37.4a2.14 2.14 0 0 0 2.21 1.67 3 3 0 0 0 2.22-2c-.31-.62-.42-1.13-.79-1.44-1.17-.93-3.8.37-3.64 1.77zm1.61-1.6c.05.19 0 .35.1.54a1 1 0 0 1-.28 0c-.06-.19-.2-.59.18-.54zm-.46.16c.13.07.24.42.08.5a.58.58 0 0 1-.08-.46zm-.17.17a.84.84 0 0 1 .06.46c-.16 0-.08-.2-.21-.34.08-.03.07-.09.15-.11zm-.12.59c-.1 0-.19-.29-.16-.36s.08.26.16.36zm-.16.17c-.1 0-.12-.22-.19-.3.14-.09.2.25.18.31zm-.27-.07a.45.45 0 0 1 .06.46c-.05-.08-.31-.35-.07-.45zm1.74 1.93a2.78 2.78 0 0 1-.43-.1c-.36 0-1-.12-1.18-.58-.26-.69.74-1.55 1.62-1.46a1.33 1.33 0 0 1 1.14 1.57 3.73 3.73 0 0 1-1.15.58zm.61-3.06c-.09.08-.08.19 0 .34 0 .67-.06.22-.13-.28l-.05-.12c-.17.18 0 .48 0 .73-.21.06-.36-.06-.55 0a1.67 1.67 0 0 0-.08-.6c-.18 0 0 .41 0 .59-.28.06-.16-.44-.23-.62a1.88 1.88 0 0 1 1.75.23c-.24-.04-.4-.3-.71-.27zM38.26 37c.14 0 .1.3 0 .36a1.71 1.71 0 0 0 0-.36z"/></svg>