<?xml version="1.0" encoding="utf-8"?>
<svg version="1.1" id="Слой_1" xmlns="http://www.w3.org/2000/svg" xmlns:xlink="http://www.w3.org/1999/xlink" x="0px" y="0px"
	 viewBox="0 0 87.2 99.2" style="enable-background:new 0 0 87.2 99.2;" xml:space="preserve" fill="#fff">
<g>
	<path d="M31.4,45.4c-1.9-1.2-4.1-1.8-6.3-1.7c-2.1,0-4.2,0.1-6.3,0.4v20.4h4.6v-7.4c0.5,0.1,1.1,0.1,1.6,0.1
		c2.4,0.2,4.8-0.6,6.7-2.1c1.3-1.3,2-3.1,1.9-4.9C33.7,48.3,32.9,46.6,31.4,45.4z M25,53.6c-0.5,0-1,0-1.6-0.1v-6.1
		c0.6-0.1,1.3-0.2,1.9-0.2c2.3,0,3.6,1.1,3.6,3C29,52.4,27.5,53.6,25,53.6L25,53.6z"/>
	<path d="M51.3,45.9c-2-1.5-4.5-2.2-8.5-2.2c-2.1,0-4.2,0.1-6.3,0.4v20.3c1.8,0.2,3.5,0.3,5.3,0.3c4,0,7.3-0.9,9.5-2.7
		c2.3-2.1,3.6-5.2,3.4-8.4C55,50.7,53.7,47.8,51.3,45.9z M42.9,61.1c-0.5,0-1.1,0-1.6-0.1V47.4c0.7-0.1,1.4-0.2,2.1-0.2
		c4,0,6.5,2.3,6.5,6.6C49.9,58.8,47.1,61.1,42.9,61.1z"/>
	<polygon points="57.9,64.5 62.6,64.5 62.6,56.2 70,56.2 70,52.4 62.6,52.4 62.6,47.7 70.5,47.7 70.5,43.9 57.9,43.9 	"/>
</g>
<path d="M81.7,23.7l-22-19.6C56.7,1.5,52.9,0,48.9,0H16.2C7.3,0,0,7.3,0,16.2v66.7c0,8.9,7.3,16.2,16.2,16.2h54.7
	c8.9,0,16.2-7.3,16.2-16.2V35.8C87.2,31.2,85.2,26.8,81.7,23.7z M76.2,82.9c0,2.9-2.3,5.2-5.2,5.2H16.2c-2.9,0-5.2-2.3-5.2-5.2V16.2
	c0-2.9,2.3-5.2,5.2-5.2h29.7v15.1c0,5,4.1,9,9,9h21.2c0,0.2,0,0.4,0,0.6V82.9z"/>
</svg>