<svg xmlns="http://www.w3.org/2000/svg" viewBox="0 0 95.65 111.45" fill="#fff"><path d="M95.64,36a4,4,0,0,0,0-.85,12.5,12.5,0,0,0-3.87-8L66.32,3.37A12.4,12.4,0,0,0,59.72.16,4,4,0,0,0,58.66,0H12.45A12.47,12.47,0,0,0,0,12.45V99a12.47,12.47,0,0,0,12.45,12.45H83.2A12.47,12.47,0,0,0,95.65,99V36.27C95.65,36.18,95.64,36.09,95.64,36ZM83.2,103.45H12.45A4.45,4.45,0,0,1,8,99V12.45A4.45,4.45,0,0,1,12.45,8H52.11V29.27A10.53,10.53,0,0,0,62.63,39.79h25V99A4.45,4.45,0,0,1,83.2,103.45Z"/><path d="M38.22,52.38a7.77,7.77,0,0,0-4.95-1.3,30,30,0,0,0-4.95.34v16h3.63V61.6a9.25,9.25,0,0,0,1.25.07A7.5,7.5,0,0,0,38.46,60a5.17,5.17,0,0,0,1.49-3.84A4.73,4.73,0,0,0,38.22,52.38Zm-5,6.48a5.61,5.61,0,0,1-1.22-.1V54a6.25,6.25,0,0,1,1.51-.14c1.83,0,2.86.89,2.86,2.38C36.32,57.88,35.12,58.87,33.17,58.87Z"/><path d="M53.85,52.81c-1.56-1.18-3.55-1.73-6.63-1.73a32.73,32.73,0,0,0-4.95.34v15.9a31.69,31.69,0,0,0,4.16.24c3.17,0,5.76-.67,7.47-2.09a8.21,8.21,0,0,0,2.69-6.56A7.16,7.16,0,0,0,53.85,52.81ZM47.22,64.7a6.71,6.71,0,0,1-1.27-.07V54a7.6,7.6,0,0,1,1.66-.14c3.15,0,5.12,1.78,5.09,5.14C52.7,62.9,50.54,64.73,47.22,64.7Z"/><polygon points="58.99 67.39 62.66 67.39 62.66 60.88 68.48 60.88 68.48 57.91 62.66 57.91 62.66 54.21 68.88 54.21 68.88 51.2 58.99 51.2 58.99 67.39"/></svg>