<svg xmlns="http://www.w3.org/2000/svg" viewBox="0 0 800 800" fill="#fff"><path d="M646 246.2H498.3c-21.8 0-34.1-12.3-34.1-33.9-.1-45.5 0-90.9 0-136.4V64.4H193c-23.9 0-32.3 8.5-32.3 32.5v176.2c0 11-3 20.7-12.1 27.4-9.6 7.1-20.1 8.4-31.2 3-11-5.4-16.8-14.7-16.9-26.5-.3-61.6-1-123.2.2-184.7 1-46 45.4-88 91.5-88.1 100.7-.3 201.5-.3 302.2.3 7.5 0 16.8 4.5 22.3 9.9C577 73.8 636.6 133.9 696.5 193.7c6.6 6.6 10.1 14.1 10 23.6-.2 18.9 0 37.9-.1 56.8-.1 19.2-13.3 33.2-30.5 32.8-17.1-.3-29.5-13.9-29.7-32.7-.2-8.9-.2-17.7-.2-28zm-121-60.9h75.7c-25.3-25.3-50.5-50.4-75.7-75.6v75.6zM402.8 791.9H198.3c-49.3 0-89.8-34.5-97.4-83-3.1-19.6 9.1-36.3 27.7-37.9 17.4-1.5 31.5 12.6 32.1 32.1.6 19.2 9.7 28.4 28.8 28.4 142.7.1 285.3.1 428 0 19.1 0 28.1-9.2 28.7-28.5.6-19.5 14.8-33.5 32.2-32 18.6 1.7 30.1 18.3 27.6 38-5.5 42.9-48 84.4-98.6 83.3-68.3-1.5-136.5-.4-204.6-.4zM312.5 488.6c0-29-.1-58.1 0-87.1 0-21.2 12.4-33.8 33.4-33.6 23.6.2 47.5-1.1 70.8 2.1 41.8 5.6 77.2 48.3 77.2 90.3 0 23.9 1 48.1-2 71.8-5.4 42.2-48.1 77.7-90.7 78-18.6.1-37.2.1-55.9 0-20.4-.1-32.8-12.7-32.9-33.3.1-29.5.1-58.8.1-88.2zm60.9-60.5v121.3c13 0 25.6.8 38.1-.2 13.6-1.1 22-10.9 22.2-25 .4-23.7.4-47.3 0-71-.3-15.1-10.1-24.6-25.2-25.1-11.4-.3-22.8 0-35.1 0zM160.6 550.3c0 9.7.1 18.9 0 28-.4 17.9-13.1 31.4-29.8 31.6-17 .3-30.4-13.5-30.4-31.8-.1-59.6-.1-119.2 0-178.9 0-16.8 10.9-30.5 27.1-30.9 26.1-.7 52.5-1.4 78.3 1.8 39.3 4.9 75.1 47.9 76.1 87.6 1 39.6-36.4 83.5-77.1 89.7-14.2 2.1-28.8 2-44.2 2.9zm.4-61.2h8.3c9.5 0 18.9.4 28.4-.2 14.5-1 23.2-10.6 23.9-25.5 1-21-5.3-32.8-21-34.6-12.9-1.5-26.2-.3-39.6-.3v60.6zM585.5 428.1v30.7c20.2 0 40-.3 59.8.1 12.2.2 21.7 5.7 27.4 17 5.3 10.7 4 20.9-2.6 30.4-6.2 9-15.4 12.7-26.1 12.8-19.2.1-38.4 0-59 0 0 20.1.2 39.5-.1 59-.1 13-5.4 23.2-17.6 28.9-19.7 9.1-42.2-4.4-42.4-26.6-.5-60.9-.4-121.9 0-182.8.1-16.7 13-29.3 29.7-29.5 40.4-.4 80.8-.3 121.3 0 17.2.1 30.4 13.7 30.4 30 0 16.7-13.4 29.9-31.3 30.1-26.2.3-52.4.1-78.6.1-3.4-.2-6.8-.2-10.9-.2z"></path></svg>