<svg xmlns="http://www.w3.org/2000/svg" viewBox="0 0 370 337"><defs><style>.cls-1{isolation:isolate;}.cls-2{mix-blend-mode:multiply;}.cls-3{fill:#f2f2f2;stroke:#ccc;stroke-miterlimit:10;stroke-width:2px;}.cls-4{fill:#666;}.cls-5{font-size:33.93px;fill:#4d4d4d;font-family:Open Sans;font-weight:700;}.cls-6{fill:#ce202e;}.cls-7{fill:#2c76ab;}.cls-8{fill:#b51c28;}.cls-9{fill:#999;}</style></defs><title>Image_uslugi</title><g class="cls-1"><g id="_1" data-name="1"><g class="cls-2"><path class="cls-3" d="M236.3,296.52H74.2a2.14,2.14,0,0,1-2.09-2.18v-251a2.14,2.14,0,0,1,2.09-2.18H267.68a2.14,2.14,0,0,1,2.09,2.18V261.6C269.77,262.81,237.46,296.52,236.3,296.52Z"/><path class="cls-4" d="M133.79,269.56l-45.9-33L133.19,222ZM92,237.18l39.89,28.7-0.52-41.35Z"/><polygon class="cls-4" points="125.13 255.81 103.69 240.37 124.31 234.33 125.13 255.81"/><text class="cls-5" transform="translate(93.38 102.16)">Справки</text><path class="cls-6" d="M296.8,281.79a39.51,39.51,0,0,0-7.73-2.75c-11.46-2.47-23.2-2.86-34.95-3.15-7.18-.18-17.18.28-28.24,1.07-3,7.16-.56,12.5,3.34,18.72,12.85-.21,27.8,0,40.55-1.46,7.18-.81,14.35-1.78,21.15-3.89a59.73,59.73,0,0,0,6-2.44C299.71,285.51,299.43,283,296.8,281.79Z"/><path class="cls-6" d="M222.88,277c-24.78,1.75-54.91,5.1-70.87,6.43-2.78.23-3.38,0.84-3.28,3.11,0.16,3.49-.27,2.52-0.12,6,0.12,2.7,53.37,3.91,62.92,4.09,5.61,0.11,9.08-.25,14.68-0.34C222.32,290,219.92,284.12,222.88,277Z"/><path class="cls-7" d="M113.28,290.53l8.9-.22c1.62,0,3.24-.07,4.85-0.12a1.4,1.4,0,0,1,1.34.51,3,3,0,0,0,3.13.76,2.29,2.29,0,0,0,1.78-2.25,2.51,2.51,0,0,0-2.09-2.09,3.06,3.06,0,0,0-3,1,1.22,1.22,0,0,1-.74.48c-4.68.14-9.36,0.25-14.12,0.37,2.61-.89,5.2-1.64,7.63-2.65,3-1.23,5.81-2.69,8.72-4a2.16,2.16,0,0,1,1.21-.18q7,1.48,14,3.05a0.92,0.92,0,0,1,.61.61c0.14,2.1.24,4.21,0.29,6.31a0.94,0.94,0,0,1-.6.69q-6.82,1.91-13.67,3.74a1.59,1.59,0,0,1-1,0,76.13,76.13,0,0,0-16.82-5.78A4,4,0,0,1,113.28,290.53Z"/><path class="cls-8" d="M232.36,296.63a1.14,1.14,0,0,1-.3-1.14,1.21,1.21,0,0,1,1.23-1.12,19.85,19.85,0,0,1,3.77.07c1.54,0.18,3.11.42,4.63,0.64,2.61,0.39,5.3.79,8,1a80.71,80.71,0,0,0,28.81-3,21.45,21.45,0,0,0,3.67-1.48c2-1.06,2-2.08,1.28-3.48a13.34,13.34,0,0,1,1.64-1.47c1-.57,2.35-0.82,4.76-0.36l0.06,0c1.92,2.82,1.29,4.48-2.46,6.59-5.22,2.94-11.3,4.83-19.12,5.93a98.75,98.75,0,0,1-30.16-.33,25,25,0,0,1-4.25-1.26l-1.13-.4A1.33,1.33,0,0,1,232.36,296.63Z"/><path class="cls-7" d="M173.94,252.79c-1.32,4.87-4.38,7.42-9.19,7.78-2.74.21-4.23-1.27-4.07-4,0.25-4.29,3.76-8.18,8.31-9.21,0.49-.11,1-0.19,1.58-0.3-0.23-2-.62-4-0.66-6-0.16-8.23,2.59-15.29,9-20.66a12.37,12.37,0,0,1,5-2.5,4.47,4.47,0,0,1,5.67,4.93,71.14,71.14,0,0,1-2.32,10.46,93.58,93.58,0,0,1-8.91,22.21c0.87,0.2,1.65.65,2.25,0.47a21.59,21.59,0,0,0,4.62-1.85c1.94-1.1,3.73-2.47,5.59-3.7a7.34,7.34,0,0,1,7.52-.63,15.88,15.88,0,0,0,6.24,1.17,44.75,44.75,0,0,0,8.72-1,13.47,13.47,0,0,0,4.42-2.18c0.95-.63,1.72-1,2.59-0.13s0.54,1.88-.33,2.5a16.19,16.19,0,0,1-4,2.39,34.87,34.87,0,0,1-13.08,1.7,15.32,15.32,0,0,1-5.33-1.45,4.72,4.72,0,0,0-5.22.49c-1.7,1.23-3.42,2.44-5.19,3.56a20.36,20.36,0,0,1-3.48,1.76,7.5,7.5,0,0,1-6.86-.37c-0.31.47-.57,0.95-0.89,1.37-3.42,4.47-6.81,9-10.29,13.38-1.21,1.54-1.92,1.63-2.73.84s-0.69-1.88.49-3.15a96.38,96.38,0,0,0,10.74-14.1A3.11,3.11,0,0,0,173.94,252.79Zm3.18-1.85,0.33-.61c4.2-7.88,6.37-16.46,8.68-25,0.36-1.32,1-3-.38-3.9s-2.79.12-4,.92a18.92,18.92,0,0,0-6.33,7.49c-2.75,5.51-2.71,11.31-1.68,17.2a1.49,1.49,0,0,0,.38.68C175.1,248.79,176.1,249.84,177.11,250.93Zm-6.32-.27c-3.09.08-6,2.15-6.83,4.74-0.52,1.72,0,2.3,1.75,1.91C168.92,256.61,170.77,254.21,170.79,250.66Z"/><path class="cls-6" d="M119.77,139.92a24.68,24.68,0,1,0,24.69,24.68A24.68,24.68,0,0,0,119.77,139.92Zm3.91,29.44V184h-7.31V169.36H101.76v-7.31h14.62V147.44h7.31v14.61H138.3v7.31H123.68Z"/><rect class="cls-6" x="97.95" y="112.62" width="40.76" height="4.09" rx="1" ry="1"/><rect class="cls-9" x="158.95" y="137.02" width="82.97" height="9.87" rx="1" ry="1"/><rect class="cls-9" x="158.95" y="161.3" width="82.97" height="9.87" rx="1" ry="1"/><rect class="cls-9" x="158.95" y="186.67" width="82.97" height="9.87" rx="1" ry="1"/></g></g></g></svg>