<svg xmlns="http://www.w3.org/2000/svg" viewBox="0 0 370 340"><defs><style>.cls-1{isolation:isolate;}.cls-2{mix-blend-mode:multiply;}.cls-3{fill:#ce202e;}.cls-4{fill:#666;}.cls-5{fill:#ccc;}.cls-6{fill:#999;}.cls-7{fill:#b3b3b3;}</style></defs><title>Image_uslugi</title><g class="cls-1"><g id="_1" data-name="1"><g class="cls-2"><path class="cls-3" d="M141.19,215.07c2.1,20.69,14.33,35.51,26.52,51,1.76-4.81,3.41-8.93,4.72-13.16a5.27,5.27,0,0,0-.59-3.9c-3.08-4.82-6.61-9.36-9.58-14.25-4-6.55-7.21-13.52-6.91-21.39,0.17-4.45,1.3-8.85,2.07-13.68a35.06,35.06,0,0,0-4.57-2.68,5.27,5.27,0,0,0-3.71-.29l-0.15.06S141,215.15,141.19,215.07Z"/><path class="cls-3" d="M188.21,325.73c0.72-14.2,1.4-28.41,2.24-42.61a8.46,8.46,0,0,1,1.75-4.46c5.82-7.36,12-14.47,17.67-21.91,9.42-12.27,17.73-25.13,19.21-41.63L222.88,201l-2.48-4.75c-0.64-.27-2.65.78-3.21,1.07-2.14,1.14-2.9,1.59-5.06,2.9,5.13,11.19,3,21.53-2.38,31.52a70.08,70.08,0,0,1-6,9.83C195.23,252.44,186.51,263.16,178,274a6.77,6.77,0,0,0-1.67,3.86c0.39,14.81,1,29.62,1.48,44.43,0.08,2.21.15,11.77,0.26,14.11l10.11-.15C188.13,335.22,188.15,326.8,188.21,325.73Z"/><path class="cls-4" d="M249,197.74l-47-19.4c13.56-11.86,19.69-27.65,24.5-44.67l4.07,22.12c3.72-7.41-.08-33.13-7.11-45.65-8.33-14.82-22.07-22.53-37.71-27.88,0.92,1,1.79,2.08,2.78,3,7.77,7.44,15.6,14.83,23.33,22.31a53.87,53.87,0,0,1,5,5.84,42.66,42.66,0,0,1,2.6,4.4,5.9,5.9,0,0,1-1.24-.19l-21.92-11.73c-12.36-6.6-23.3-14.84-31-26.74-19.13,11.64-32.4,49.2-24.24,66.33l2.38-13c5.1,17.5,11.73,33.8,26.26,45.65l-48.33,19.42c0-.79-0.14-1.71-0.12-2.64,0.39-22.42.43-44.85,1.3-67.25,0.65-16.65,2.08-33.32,7.55-49.28C135,64.18,143,52.43,157,45.75c11-5.24,22.71-6.33,34.7-5.49,10.52,0.74,20.44,3.35,29.14,9.59,11.32,8.12,17.8,19.62,20.92,32.75a237.67,237.67,0,0,1,5.41,33.52c2.35,26,2.11,52.1,1.84,78.18C249,195.35,249,196.41,249,197.74Z"/><path class="cls-5" d="M185.17,249.4c-8.19-10.32-16.11-19.94-19.71-33.22,13.28,3.75,26,4,39.33-.09C201.43,229.48,193.28,239,185.17,249.4Z"/><path class="cls-5" d="M223.8,299.4c-1.67-3.23-3.5-6.39-5-9.7A39.43,39.43,0,0,1,215,273.82a23,23,0,0,1,2.43-11.12,24.79,24.79,0,0,1,10.23-10,1,1,0,0,1,.15,0l-2.37-4.91a2.23,2.23,0,0,1-.42.34,37,37,0,0,0-7.68,5.88,25.93,25.93,0,0,0-6.45,11,34.61,34.61,0,0,0,.14,18.62,62.69,62.69,0,0,0,9.27,20.08,1.16,1.16,0,0,1,.12.26l3.87-3.87A1.18,1.18,0,0,1,223.8,299.4Z"/><path class="cls-3" d="M235.08,306.32c-0.64-.35-1.28-0.69-1.93-1a15.18,15.18,0,0,1-5.89-4.68,1.74,1.74,0,0,0-2.18-.69,1,1,0,0,1-.79,0l-3.87,3.87a0.71,0.71,0,0,1,0,.41,2,2,0,0,0,.79,2.17,13.53,13.53,0,0,1,2.16,2.37c1.14,1.78,2.15,3.66,3.17,5.51s2.93,2.36,4.64.91c0.46-.39.88-0.82,1.31-1.24,1.07-1,2.17-2,3.21-3.1C237.32,309.26,237,307.4,235.08,306.32Z"/><path class="cls-3" d="M259.91,300.34c-1.31-.8-1.6-0.78-2.35.4a13.89,13.89,0,0,1-5.58,4.89c-0.93.48-1.87,0.94-2.76,1.48-2,1.18-2.18,2.95-.57,4.58,1.4,1.42,2.84,2.81,4.31,4.15,1.83,1.67,3.75,1.28,4.9-.93,0.47-.9.92-1.81,1.4-2.7a16.41,16.41,0,0,1,4.32-5.48c1.29-1,1.35-1.45.25-2.63h0v0l0,0,0,0h0l0.07-.11-4-3.67Z"/><path class="cls-5" d="M274.22,268.75a25.78,25.78,0,0,0-4.89-12,29.88,29.88,0,0,0-8.72-7.82,3.14,3.14,0,0,1-1-.92l-2.33,5.17a1.38,1.38,0,0,1,.53.19,43.54,43.54,0,0,1,4,2.94,20.89,20.89,0,0,1,7.17,12.62,31.07,31.07,0,0,1-.71,12.92,56.84,56.84,0,0,1-5.77,14.23c-0.81,1.44-1.68,2.84-2.52,4.26l4,3.67c1.4-2.4,2.78-4.66,4-7a55.63,55.63,0,0,0,5.63-14.89c0.44-2,.71-4.12,1.05-6.18v-4.76C274.48,270.37,274.33,269.57,274.22,268.75Z"/><path class="cls-6" d="M259.24,247.22a3.48,3.48,0,0,0-2.17-2.6c-3-1.06-6-2-9-3a1,1,0,0,1-.89-1.19c0.11-1.93.13-3.87,0.21-5.8a5.49,5.49,0,0,0-1.06-3.28,2.05,2.05,0,0,1-.3-1.26s0,0,0-.05l-5.46-.16a1.55,1.55,0,0,1-.41.44,5,5,0,0,0-2.28,4.26c-0.05,1.9-.15,3.81-0.16,5.71a1.06,1.06,0,0,1-.93,1.19c-2.47.7-4.93,1.44-7.39,2.17a4.89,4.89,0,0,0-3.48,3.32,2,2,0,0,1-.5.75l2.37,4.91a1.25,1.25,0,0,1,.8,0,5,5,0,0,0,3.44.13q4.78-1.44,9.58-2.82a2.2,2.2,0,0,1,1.19,0c3.3,1,6.59,2.07,9.88,3.12a6.33,6.33,0,0,0,3.74.16,2,2,0,0,1,.84,0l2.33-5.17A2.29,2.29,0,0,1,259.24,247.22Z"/><path class="cls-7" d="M294.84,340H75.16a1.82,1.82,0,0,1-1.82-1.86c0.08-3.48,2.24-85.4,17.72-108,8.32-12.14,56.47-32.73,58.1-33.42l-2.29,5c-0.39.16-45.1,19.2-52.81,30.46-13.63,19.9-16.6,91.64-17,104.16H293c-0.3-12.49-2.58-84.41-16.23-104.26-8.84-12.86-53.42-31-53.88-31.15l-2.5-4.85c1.89,0.75,49.92,20.18,59.38,33.94,15.51,22.56,16.86,104.64,16.91,108.12A1.82,1.82,0,0,1,294.84,340Z"/><path class="cls-5" d="M245.48,207.4l-5.23-2.2c0,0.38.54,23.87,0.49,24.24a1.05,1.05,0,0,1-.17.42L246,230C246.08,228.86,245.43,208,245.48,207.4Z"/><path class="cls-5" d="M141,200.24c0-.21-5.64,2.52-5.77,2.35,0,0-.45,4.18-0.76,6.68a82.06,82.06,0,0,0-.15,10.47c0.13,2.27.52,6.6-.11,9.35a32.51,32.51,0,0,1-5,10.63c-2.18,3.28-4.46,6.5-6.61,9.79-3.08,4.71-5.58,9.68-6.3,15.35-1,7.92,2.11,13.83,8.94,17.81a2.5,2.5,0,0,1,1.5,2.18l0.42-7.07a11,11,0,0,1-3.46-3c-2.46-3.1-2.83-6.66-2.1-10.4,1-5,3.4-9.28,6.2-13.41,2.35-3.47,4.74-6.91,7-10.46a31.63,31.63,0,0,0,5-12.83C140.25,223.05,138.93,214.25,141,200.24Z"/><path class="cls-3" d="M146,276.65a17,17,0,0,0-3.66-8.92c-2.86-3.33-6.92-3.39-10-.27a19.34,19.34,0,0,0-4.74,8.92l-0.39,1.45-0.08,0-0.42,7.07c0,0.09,0,.15,0,0.25a20.2,20.2,0,0,0,2.12,9.06,9.41,9.41,0,0,0,4.22,4.68,6.08,6.08,0,0,0,6.84-1,14.52,14.52,0,0,0,4-5.5A28,28,0,0,0,146,276.65Zm-10,8.22A5.77,5.77,0,0,1,134,288.1a2.17,2.17,0,0,1-3-.16,4.81,4.81,0,0,1-1.55-3.09l0.06,0,0.22-5.56,0,0a13.25,13.25,0,0,1,.89-1.81c1.75-2.49,4-2.27,5.21.51A9.64,9.64,0,0,1,136,284.87Z"/><path class="cls-5" d="M133.69,283.73c0.58-1.33,0-2.61-1.55-3.4-0.73-.37-1.55-0.67-2.47-1.05,0,0-.36,2.22-0.4,2.88a13.85,13.85,0,0,0,.17,2.69l0.76,0.22C131.86,285.57,133.1,285.1,133.69,283.73Z"/></g></g></g></svg>