<svg xmlns="http://www.w3.org/2000/svg" viewBox="0 0 370 340"><defs><style>.cls-1{isolation:isolate;}.cls-2,.cls-3{fill:#e6e6e6;mix-blend-mode:multiply;}.cls-2,.cls-3,.cls-4{fill-rule:evenodd;}.cls-3{stroke:gray;stroke-miterlimit:10;}.cls-4{fill:#fff;}.cls-5{fill:#ce202e;}</style></defs><title>Image_uslugi</title><g class="cls-1"><g id="_1" data-name="1"><path class="cls-2" d="M217,193.57c1.07,0,2.19-.82,3.33-2.22-1.16,2.26-2.25,4.51-3.46,6.77A32.94,32.94,0,0,0,217,193.57Z"/><path class="cls-2" d="M202,190l0,0.16-0.19.09A1.43,1.43,0,0,1,202,190Z"/><path class="cls-3" d="M253.12,214.95c23.8-21.38,34.64-49.29,40.07-79.84,3.27-18.38,2.86-36.68-4.42-54.16-9.62-23.14-28-38.29-49.6-48.77-40-19.41-79.2-15-116.25,8.72C106.88,51.14,99.46,67.36,97,85.53c-1.55,11.46-.78,23.21-1.44,34.81A30.51,30.51,0,0,1,93,131.9C88,142,82.27,151.62,77.15,161.6c-3.84,7.49-3.13,9.36,4.14,13.78,2.92,1.77,6,3.28,9,4.91-7.68,13.89-7.68,13.89,3.94,26.41-1.34,3.71-4,7.63-3.63,11.18,0.34,3,4.29,5.6,6.64,8.37l2.4-.91c-0.66,2.8-.88,5.8-2,8.37-6.3,13.81-2.44,24,11.91,29.08,10.11,3.58,20.47,6.44,30.8,9.35,5.37,1.52,6.51,4.29,4.79,9.52-5,15.06-9.56,30.24-14.27,45.38a18.57,18.57,0,0,0-.8,3.57,77.79,77.79,0,0,0,0,9.39H261.5l-0.72-8.75c-0.88-5.18-1.9-10.43-4.14-15-4.47-9.13-10.37-17.55-15.5-26.37-3.27-5.62-6.14-11.46-9.37-17.11-9.17-16-3.59-33.72,7.91-45.27C244,223.16,248.56,219,253.12,214.95Z"/><path class="cls-4" d="M218.54,191.9c-1.19,2.37-2.31,4.75-3.56,7.12-1.49,15.51-12.89,26.54-18.38,43.48-5.16,15.93-3.05,32.12,2.31,47.89q8.25,24.25,16.21,48.61h-8.68c-1.94-5.43-3.8-10.68-5.47-16-5-16.09-10.19-32.16-14.53-48.45-3.43-12.86-.44-25.75,3.73-37.81,6.26-18.12,7.12-27.42,6.5-44.73-6.41,3.29-9.72-40.33-10.67-40.33s-6.91,2.17-19-1.91-17.55-9.91-19.05-14.56a17.34,17.34,0,0,1-.67-8.71s-27.15-5.65-33.35-19.69C104.69,85.86,117.4,56,124.2,52.35s32.89-19.72,42.13-20.69,17.15-3,24.7-1.2,16.23-1.94,19.81.39,14.34,2.52,22.27,6.21,11.5,3.75,15.09,8.22,5.73,4.39,14.72,14.48,11.73,16.53,15.13,23.71,6.22,12.92,4.71,20.88-7.57,26.5-14.17,27.08-29,20.23-31.43,19.66C235,150.59,226.25,182.21,218.54,191.9Z"/><path class="cls-5" d="M221.07,173a15,15,0,0,1-10.87,4.44A14.79,14.79,0,0,1,199.38,173,15,15,0,0,1,210,147.27a15.2,15.2,0,0,1,11,4.41,14.25,14.25,0,0,1,4.56,10.63A14.47,14.47,0,0,1,221.07,173Z"/><path class="cls-5" d="M251.65,86a41,41,0,0,1-5.31,10.29q-2.12,3.09-10.16,10.39-7.68,6.94-9.62,9.8a25.55,25.55,0,0,0-3.27,7.61,60.09,60.09,0,0,0-1.68,13.2H197.66l-0.1-4a51.77,51.77,0,0,1,4.33-21.41q4.34-9.63,14.06-18.08,9.38-8.18,11.32-11.26a13.21,13.21,0,0,0,1.93-7.21,12,12,0,0,0-4.73-9.56c-3.15-2.6-7.38-3.9-12.67-3.9s-9.88,1.59-13.35,4.78a16.19,16.19,0,0,0-5.31,12.28H170q-0.19-16.94,11.66-28t31.19-11.05q12.47,0,21.22,4.57a35.35,35.35,0,0,1,14,13.19,34.28,34.28,0,0,1,5.25,18.12A31.58,31.58,0,0,1,251.65,86Z"/></g></g></svg>