<svg xmlns="http://www.w3.org/2000/svg" viewBox="0 0 370 337"><defs><style>.cls-1{isolation:isolate;}.cls-2{mix-blend-mode:darken;}.cls-3{fill:#f2f2f2;}.cls-3,.cls-4{stroke:#ccc;stroke-miterlimit:10;}.cls-3,.cls-4,.cls-5,.cls-6,.cls-7{fill-rule:evenodd;}.cls-4,.cls-6{fill:#ce202e;}.cls-5{fill:gray;}.cls-7{fill:#fff;}</style></defs><title>Image_uslugi</title><g class="cls-1"><g id="_1" data-name="1"><g class="cls-2"><path class="cls-3" d="M344.27,230.2c-1.91-.13.3-73.46,0-80.67-0.19-5-4.64-9.92-9.66-10.78a11.84,11.84,0,0,1-6.15-3.29c-2.24-2-4.45-4.09-6.68-6.13q-24.77-22.52-49.55-45a3.91,3.91,0,0,0-2.28-1c-2.74-.14-5.47-0.1-8.22-0.1h-222c-8.9,0-14.26,5.4-14.26,14.3q0,50.75,0,101.5c0,12.76,0,25.53,0,38.3a12.9,12.9,0,0,0,9.84,12.42c2.18,0.51,3.28.24,3.7-2.45a39.66,39.66,0,0,1,18.39-28.2c24.47-15.83,57.45-1.23,62.49,27.67,0.51,3,1.57,3.41,4.2,3.4q57.37-.12,114.73-0.05c1.6,0,3.19-.05,4.79,0,1.42,0.06,2-.49,2.25-1.94,1.75-11.93,7.73-21.22,17.4-28.28,14.38-10.49,36.71-9.3,49.93,2.64a42.42,42.42,0,0,1,14.1,25.69,2.51,2.51,0,0,0,1.35,1.8c3.66,0.2,7.23,0,10.39-2.39C345.2,243.07,344.69,236.66,344.27,230.2ZM273,170.72c-5-.06-9.93,0-14.89,0-1.47,0-2-.54-2-2s0.65-2,2.09-2c2.57,0.07,5.14,0,7.71,0,2.39,0,4.78,0,7.17,0,1.38,0,1.87.54,1.88,1.9S274.59,170.74,273,170.72Zm51.2-17.48c-0.78,2.23-2.82,1.78-4.55,1.79q-14.63,0-29.27,0H260.56c-3.48,0-4.23-.74-4.24-4.25,0-17.4,0-34.81.06-52.21,0-1.34.64-3.36,1.58-3.81s2.91,0.35,3.9,1.21q27.35,24,54.55,48.21c1.79,1.59,3.64,3.12,5.42,4.73C323.11,150.08,325,151,324.2,153.24Z"/><path class="cls-4" d="M92.45,159.92a53.77,53.77,0,0,0,53.38,54c29.53,0.11,53.67-24.17,53.66-54A53.76,53.76,0,0,0,146,106.09C116.54,106,92.54,130.17,92.45,159.92Z"/><path class="cls-5" d="M317.44,250.07a30,30,0,0,1-30,30.35A30.34,30.34,0,1,1,317.44,250.07Zm-16.6.13A13.44,13.44,0,1,0,274,250,13.44,13.44,0,1,0,300.84,250.19Z"/><path class="cls-5" d="M78.12,280.42A30.35,30.35,0,0,1,48,250.09c-0.17-16.49,13.84-30.37,30.21-30.35A30.34,30.34,0,0,1,78.12,280.42Zm13.59-30.3a13.75,13.75,0,0,0-13.6-13.62A13.58,13.58,0,1,0,91.7,250.12Z"/><path class="cls-6" d="M251.77,68.76c0,1.87,0,3.74,0,5.61s-0.85,3-2.84,3c-4.07,0-8.14,0-12.21,0-1.91,0-2.74-1-2.74-2.82,0-4.09,0-8.19,0-12.28,0-1.91,1-2.72,2.83-2.71,4,0,8,0,11.93,0,2.07,0,3.12.86,3,3.05S251.77,66.72,251.77,68.76Z"/><path class="cls-7" d="M157.62,196.57h-23c-0.07-1-.2-1.9-0.2-2.84,0-6.51-.08-13,0-19.54,0-2-.64-2.62-2.61-2.58-6.38.1-12.77,0-19.15,0h-3V148.41c1-.05,1.91-0.14,2.84-0.15,6.29,0,12.59-.13,18.89.05,2.52,0.07,3.12-.8,3.06-3.2-0.14-7.13-.05-14.26-0.05-21.64h23v24.69H182.5v3.94c0,5.71-.07,11.43,0,17.13,0,1.87-.54,2.47-2.4,2.44-6.48-.09-13,0-19.43,0h-3.09v24.92Z"/></g></g></g></svg>