<svg xmlns="http://www.w3.org/2000/svg" viewBox="0 0 370 340"><defs><style>.cls-1{isolation:isolate;}.cls-2{mix-blend-mode:multiply;}.cls-3{fill:#ce202e;}.cls-4{fill:#fff;}.cls-5{fill:gray;}.cls-6{fill:#ccc;}</style></defs><title>Image_uslugi</title><g class="cls-1"><g id="_1" data-name="1"><g class="cls-2"><path class="cls-3" d="M110.67,266.9a9.37,9.37,0,0,1,9.42-9.14,9,9,0,0,1,9.22,9.4A9.16,9.16,0,0,1,120,276.3,9.34,9.34,0,0,1,110.67,266.9Z"/><path class="cls-4" d="M122.71,211a8,8,0,0,1,8.35-8,8.27,8.27,0,0,1,8.23,8.27,8.48,8.48,0,0,1-8.31,8.27C125.73,219.56,122.14,214.9,122.71,211Zm8.24,7a6.73,6.73,0,1,0,0-13.47c-3.33-.19-6.72,3.11-6.74,6.63A6.88,6.88,0,0,0,131,218Z"/><path class="cls-3" d="M192.25,84.6c0,5.68-.08,11.36,0,17,0,1.93-.64,2.43-2.44,2.38-3.51-.11-7-0.08-10.55,0-1.47,0-2-.48-2-2q0.06-17.45,0-34.9c0-1.52.6-2,2-2,3.65,0.05,7.3.07,11,0,1.47,0,2,.51,2,2C192.21,73,192.25,78.78,192.25,84.6ZM181.32,72.77a3.81,3.81,0,0,0,3.41,3.81,3.92,3.92,0,0,0,3.77-3.74,3.6,3.6,0,0,0-3.68-3.5A3.51,3.51,0,0,0,181.32,72.77Z"/><path class="cls-3" d="M192.13,157a7.2,7.2,0,0,1-6.89,7.08c-3.63.29-7.08-3.45-7-7.17a7.29,7.29,0,0,1,7-7A7.37,7.37,0,0,1,192.13,157Z"/><path class="cls-3" d="M131,218a6.88,6.88,0,0,1-6.78-6.83c0-3.53,3.41-6.82,6.74-6.63A6.73,6.73,0,1,1,131,218Z"/><path class="cls-3" d="M78.27,143.61c5.1-.27,9.34,4.37,9.28,9.39A9.4,9.4,0,0,1,78,162.12c-5.6,0-9.22-5.13-9.22-9.31S72.49,143.22,78.27,143.61Z"/><path class="cls-3" d="M259.33,266.9a9.37,9.37,0,0,0-9.42-9.14,9,9,0,0,0-9.22,9.4A9.16,9.16,0,0,0,250,276.3,9.34,9.34,0,0,0,259.33,266.9Z"/><path class="cls-4" d="M239,219.56a8.48,8.48,0,0,1-8.31-8.27,8.27,8.27,0,0,1,8.23-8.27,8,8,0,0,1,8.35,8C247.86,214.9,244.27,219.56,239,219.56Zm6.81-8.4c0-3.53-3.41-6.82-6.74-6.63A6.73,6.73,0,1,0,245.83,211.16Z"/><path class="cls-3" d="M239,218a6.88,6.88,0,0,0,6.78-6.83c0-3.53-3.41-6.82-6.74-6.63A6.73,6.73,0,1,0,239,218Z"/><path class="cls-3" d="M291.73,143.61c-5.1-.27-9.34,4.37-9.28,9.39a9.4,9.4,0,0,0,9.55,9.12c5.6,0,9.22-5.13,9.22-9.31S297.51,143.22,291.73,143.61Z"/><path class="cls-5" d="M93.14,170.87a100.89,100.89,0,0,0,5.67-8.63,22.23,22.23,0,0,0,1.94-6.73c0.22-1.36.45-2.11,2-2.13,7.36-.07,14.74-0.58,22.07-0.16A124.31,124.31,0,0,1,144.61,156c11.3,2.52,21.75,6.8,28.7,16.89a26.72,26.72,0,0,1,4.31,15.8,1.68,1.68,0,0,1-.73-0.16,54.55,54.55,0,0,0-21.32-12.23c-4.68-1.44-9.44-2.61-14.18-3.82-1.62-.41-3.36-0.39-4.92-0.93a4.93,4.93,0,0,1-2.25-2.06,23.2,23.2,0,0,0-10-9.08c-9.13-4.29-21-1.18-26.71,7.08a8.86,8.86,0,0,0-1.23,1.85A2.26,2.26,0,0,1,93.14,170.87Z"/><path class="cls-5" d="M276.86,170.87a100.89,100.89,0,0,1-5.67-8.63,22.23,22.23,0,0,1-1.94-6.73c-0.22-1.36-.45-2.11-2-2.13-7.36-.07-14.74-0.58-22.07-0.16A124.31,124.31,0,0,0,225.39,156c-11.3,2.52-21.75,6.8-28.7,16.89a26.72,26.72,0,0,0-4.31,15.8,1.68,1.68,0,0,0,.73-0.16,54.55,54.55,0,0,1,21.32-12.23c4.68-1.44,9.44-2.61,14.18-3.82,1.62-.41,3.36-0.39,4.92-0.93a4.93,4.93,0,0,0,2.25-2.06,23.2,23.2,0,0,1,10-9.08c9.13-4.29,21-1.18,26.71,7.08a8.86,8.86,0,0,1,1.23,1.85A2.26,2.26,0,0,0,276.86,170.87Z"/><path class="cls-5" d="M94.8,180.24a20.31,20.31,0,0,1,40.61.07A20.31,20.31,0,1,1,94.8,180.24Zm20.4,15.89a15.78,15.78,0,1,0-.17-31.56A15.78,15.78,0,1,0,115.2,196.14Z"/><path class="cls-5" d="M108.33,218.27c11.66,0.21,20.32,9.19,20.25,20.17-0.08,11.81-8.4,20.34-20.19,20.46S88,250,87.94,238.49A20.27,20.27,0,0,1,108.33,218.27Zm-0.39,4.51c-8.31-.29-15.52,7.15-15.59,15.62a15.91,15.91,0,0,0,31.73,1.86,14.78,14.78,0,0,0-4.93-13.2A15.4,15.4,0,0,0,107.94,222.78Z"/><path class="cls-5" d="M141.31,267a21.33,21.33,0,0,1-15.11,20.2c-12.8,3.81-25.42-4.73-26.82-17-0.34-3,.19-6.14.47-9.2,0.15-1.63,1.31-1.85,2.68-1.38s2.34,0.81,1.78,2.65a16.28,16.28,0,0,0,11.91,20.89c11.53,2.9,22.33-7.44,20.06-19.13a16.49,16.49,0,0,0-8.5-11.62c-0.71-.41-2.09-0.48-1.15-1.93,1.77-2.73,1.45-3,3.45-1.9a20.4,20.4,0,0,1,10.09,12.32A53.62,53.62,0,0,1,141.31,267Z"/><path class="cls-5" d="M160.89,202c5.17-.16,12.64,6.14,14.51,13,2,7.26.15,13.23-5,18.23s-11.54,6.18-18.22,3.9A17,17,0,0,1,141,225.55a5.2,5.2,0,0,1,.21-3.46,25.91,25.91,0,0,0,2.45-11.18,4.49,4.49,0,0,1,1-2.7C148.3,204.18,152.83,202.15,160.89,202ZM144,220.1a14.2,14.2,0,1,0,14.22-14.21A14,14,0,0,0,144,220.1Z"/><path class="cls-5" d="M177.51,197.46a67.38,67.38,0,0,0-18.82-16.61,54,54,0,0,0-22.79-7.11l0.32-1.19c2.35,0.37,4.71.68,7,1.14a69.35,69.35,0,0,1,19.79,6.68c4.8,2.6,9.11,6.11,13.61,9.26a2,2,0,0,1,.8,1.31C177.56,192.95,177.51,195,177.51,197.46Z"/><path class="cls-5" d="M185.12,148.41a8.64,8.64,0,1,1-.09,17.27,8.8,8.8,0,0,1-8.67-8.61A8.6,8.6,0,0,1,185.12,148.41Zm7,8.62a7.37,7.37,0,0,0-6.91-7.09,7.29,7.29,0,0,0-7,7c-0.06,3.72,3.39,7.46,7,7.17A7.2,7.2,0,0,0,192.13,157Z"/><path class="cls-5" d="M99.2,152.85c0.37,11.69-9.83,21.14-21,21.17a21.18,21.18,0,0,1-21.06-21.15A21,21,0,1,1,99.2,152.85ZM78.07,169.33a16.51,16.51,0,1,0,.17-33A16.51,16.51,0,0,0,78.07,169.33Z"/><path class="cls-5" d="M254.75,200.72a20.34,20.34,0,0,1,.18-40.69A20.34,20.34,0,1,1,254.75,200.72Zm15.94-20.26a15.88,15.88,0,0,0-31.75-.26A15.88,15.88,0,0,0,270.69,180.45Z"/><path class="cls-5" d="M282.06,238.49C282,250,273.46,259,261.61,258.9s-20.12-8.65-20.19-20.46c-0.07-11,8.59-20,20.25-20.17A20.27,20.27,0,0,1,282.06,238.49Zm-31.21-11.42a14.78,14.78,0,0,0-4.93,13.2,15.91,15.91,0,0,0,31.73-1.86c-0.08-8.48-7.29-15.91-15.59-15.62A15.4,15.4,0,0,0,250.86,227.07Z"/><path class="cls-5" d="M228.69,267a21.33,21.33,0,0,0,15.11,20.2c12.8,3.81,25.42-4.73,26.82-17,0.34-3-.19-6.14-0.47-9.2-0.15-1.63-1.31-1.85-2.68-1.38s-2.34.81-1.78,2.65a16.28,16.28,0,0,1-11.91,20.89c-11.53,2.9-22.33-7.44-20.06-19.13a16.49,16.49,0,0,1,8.5-11.62c0.71-.41,2.09-0.48,1.15-1.93-1.77-2.73-1.45-3-3.45-1.9a20.4,20.4,0,0,0-10.09,12.32A53.62,53.62,0,0,0,228.69,267Z"/><path class="cls-5" d="M225.29,208.21a4.49,4.49,0,0,1,1,2.7,25.91,25.91,0,0,0,2.45,11.18,5.2,5.2,0,0,1,.21,3.46,17,17,0,0,1-11.15,11.61c-6.68,2.28-13.07,1.09-18.22-3.9s-7-11-5-18.23c1.87-6.85,9.34-13.16,14.51-13C217.17,202.15,221.7,204.18,225.29,208.21Zm-13.52-2.32A14.24,14.24,0,1,0,226,220.1,14.07,14.07,0,0,0,211.77,205.89Z"/><path class="cls-5" d="M192.49,197.46a67.38,67.38,0,0,1,18.82-16.61,54,54,0,0,1,22.79-7.11l-0.32-1.19c-2.35.37-4.71,0.68-7,1.14a69.35,69.35,0,0,0-19.79,6.68c-4.8,2.6-9.11,6.11-13.61,9.26a2,2,0,0,0-.8,1.31C192.44,192.95,192.49,195,192.49,197.46Z"/><path class="cls-5" d="M291.78,131.71a21,21,0,0,1,21.05,21.15A21.18,21.18,0,0,1,291.77,174c-11.14,0-21.34-9.47-21-21.17A20.92,20.92,0,0,1,291.78,131.71Zm16.57,21.16a16.53,16.53,0,1,0-33.06.08A16.53,16.53,0,0,0,308.35,152.87Z"/><path class="cls-5" d="M104.47,116.73c-3.52,0-6.82.05-10.12,0-4.1-.08-6.63-2.05-6.35-6.25s0.05-8.65.07-13c0-2.9,1.16-4.73,4-4.91a116,116,0,0,1,13.73.07c2.08,0.11,3.51,2.18,3.52,4.26,0,5,.21,10-0.11,15-0.11,1.69-1.56,3.29-2.37,4.87,2.16,0.79,2.73,1.55,2.73,4.35q0,11.86,0,23.73a9.82,9.82,0,0,1-.08,1.42,2.88,2.88,0,0,1-3.19,2.72,3,3,0,0,1-3-3.12c0-8.59,0-17.17,0-25.76C103.32,119.12,104,118.14,104.47,116.73Z"/><path class="cls-5" d="M266,116.85c-3.3-1.32-4.61-3.66-4.37-7.27,0.28-4,.06-8.1.07-12.16,0-2.63,1.48-4.7,4.13-4.87a109.72,109.72,0,0,1,13.13,0c2.78,0.16,4.32,2.33,4.33,5.17,0,4.32,0,8.65,0,13,0,3.87-2.07,6-6,6.06-3.78.06-7.57,0.05-11.35,0.07Z"/><path class="cls-5" d="M165.95,156.61c-6.88-1.4-13.39-2.84-20-4a131.37,131.37,0,0,0-26.79-2.42c-2.09.05-2.68-.62-2.59-2.65,0.19-4.46-.49-3.92,3.88-3.93,14.41,0,28.82,0,43.22,0,1.83,0,2.53.46,2.44,2.36-0.13,2.83,0,5.68,0,8.52C166.11,155.12,166,155.84,165.95,156.61Z"/><path class="cls-5" d="M230.34,143.56c7.37,0,14.74.06,22.11,0,1.89,0,2.66.44,2.6,2.47-0.13,4.68.23,4.09-4.2,4.12a145.73,145.73,0,0,0-28.55,3.09c-5,1-10,2.13-15,3.24-1.2.27-1.8,0-1.78-1.32,0-3.31.06-6.63,0-9.94,0-1.66,1-1.62,2.13-1.62h22.72Z"/><path class="cls-5" d="M265.95,116.79c1.59,1.81,1.66,4,1.64,6.26-0.07,7.37,0,14.73,0,22.1,0,2.3-1,3.61-2.75,3.85-2.08.29-3.38-.82-3.41-3.19-0.08-5.61-.05-11.22,0-16.83,0-2.7-.13-5.42.12-8.1,0.36-3.79.7-4,4.55-4Z"/><path class="cls-6" d="M143.64,206.71a83.25,83.25,0,0,0-6.06-19.6,13.17,13.17,0,0,1-.63-4.48c-0.12-1.82,0-3.65-.14-5.46-0.16-2.18.09-2.65,2.27-2.17a79.19,79.19,0,0,1,11.67,3.08,53.21,53.21,0,0,1,18.66,12.09c3.12,3.14,5.85,6.66,8.72,10a2.4,2.4,0,0,1,.64,1.43c-0.17,5.59-.4,11.19-0.64,16.78a7.89,7.89,0,0,1-.33,1.29c-0.76-8.65-4.73-14.83-12.66-17.78S150,200.74,143.64,206.71Z"/><path class="cls-6" d="M136,187.89c3.53,8.66,6.91,16.88,5.78,25.93-1.06,8.58-6.1,15.29-11.49,21.91-5.35-14.94-9.84-18.22-26.12-19.07,1.09-1.74,2-3.41,3.14-5a3.92,3.92,0,0,0,.58-3.79c-0.73-2.3-1.31-4.65-2.06-7.37C119.34,204.73,129.39,200.85,136,187.89ZM122.71,211c-0.58,3.88,3,8.54,8.27,8.54a8.48,8.48,0,0,0,8.31-8.27,8.27,8.27,0,0,0-8.23-8.27A8,8,0,0,0,122.71,211Z"/><path class="cls-6" d="M94.34,187.53A24.77,24.77,0,0,0,103,198.65c0.66,0.46.91,1.62,1.17,2.5q1.05,3.59,1.93,7.23a2.83,2.83,0,0,1-.12,1.91c-1.42,2.36-2.9,4.69-4.5,6.94a7.63,7.63,0,0,1-2,1.24c-3.06,2.1-6.1,4.22-9.2,6.36a14.71,14.71,0,0,1-.16-1.69c0-3.58-.06-7.17,0-10.75,0-1.7-.53-2.49-2.32-2.45-3.45.07-6.9,0.05-10.34,0-1.48,0-2.26.46-2.23,2.1,0.06,4.12,0,8.25,0,12.37,0,1.46.52,2.08,2,2,3.38-.06,6.76,0,10.14,0,0.65,0,1.3.06,2.26,0.1L88,230.06c-0.21-2.32-1.64-2.35-3.27-2.32-3,.07-6,0-8.92,0-1.28,0-1.83-.42-1.82-1.75q0.07-7.71,0-15.42c0-1.42.57-1.94,1.92-1.92,3,0,6.09-.05,9.13,0,1.75,0.05,2.37-.58,2.33-2.36-0.1-4.8,0-9.6,0-14.22Z"/><path class="cls-6" d="M88.56,190.21c0-2,0-3.54,0-5.06,0-3.1.17-6.21-.05-9.29-0.17-2.29.71-3.38,2.83-3.71,1-.16,2.06-0.26,3.28-0.42a6.14,6.14,0,0,1-.11,1.67c-1.53,3.63-1.34,7.4-.8,11.14a2.56,2.56,0,0,1-1.46,3.1A40.25,40.25,0,0,0,88.56,190.21Z"/><path class="cls-6" d="M175.93,228.69c-4.24,7.42-10.51,11.58-19,11s-14.26-5.34-17.56-13.53c-1.37,2.08-2.53,3.92-3.77,5.72-2.51,3.63-6.34,6.58-6,11.69,0,0.36-.43.76-0.4,1.12a2.15,2.15,0,0,0,.53,1.47c1.7,1.16,3.49,2.19,5.51,3.42,0.07-.93.16-1.64,0.17-2.35,0-2.44,0-4.87,0-7.31,0-1.44.46-2.12,2-2.09q4.67,0.09,9.34,0c1.43,0,1.9.57,1.87,1.93-0.05,2.77,0,5.55,0,8.32s0,2.82-2.8,2.82h-9.07c0.61,0.93.89,1.44,1.24,1.89a23.51,23.51,0,0,1,4.49,9.83,22.79,22.79,0,1,1-44.94,7.49,7.42,7.42,0,0,0-.31-1.35l-0.58-2.26,0.63-2.61,0-.08c0.19-.64.37-1.5,0.56-2.08,0.13-.38.25-0.77,0.4-1.15a2.36,2.36,0,0,0-1.34-3.45c-3.7-1.58-5.6-4.87-7.74-7.94a18.6,18.6,0,0,1-1.11-2.1l-0.65.16c0,3.62,0,7.24,0,10.86,0,1.49-.12,2.55-2.18,1.68l0.35,0.45-1.92-1.87,0.09-.11c-13.24-10.59-20.08-24.33-20.2-41.2s6.61-30.71,20-41.76a15.73,15.73,0,0,0-1.58,0,22.23,22.23,0,0,1-12.52-1.43c-1.94-.88-2.73-0.18-3.76,1.17a63.81,63.81,0,0,0-13.5,34.31c-0.12,1.44-.7,2.07-2.14,2-2.37,0-4.74-.07-7.1,0a5,5,0,0,0-1.74.89c0.57,0.38,1.15,1.07,1.72,1.07,1.59,0,1.92.73,1.89,2.14q-0.1,5.07,0,10.15c0,1.5-.34,2.26-2,2.23-0.52,0-1.07.83-1.6,1.29a4.47,4.47,0,0,0,1.65.91c2.91,0.09,5.82.08,8.73,0a1.79,1.79,0,0,1,2.14,1.6,34.25,34.25,0,0,0,1.17,4.29,64.11,64.11,0,0,0,22,31.24,4,4,0,0,0,.77.48l0.05,0.09,3.07,2s0,0,0,0l1.58,1,0.43,0.27h0c0.25,0.15.5,0.3,0.76,0.43,1.34,0.69,2.78,2.39,4-.24a3.27,3.27,0,0,1,1.4-.37c0,1,0,1.76,0,2.48,0,1.33-.38,2.77,0,4a64.53,64.53,0,0,0,3.66,9.41c1.82,3.6,4.3,6.8,8.67,7.5A42.47,42.47,0,0,0,109,295a48.83,48.83,0,0,0,18.17-4.43c3.12-1.36,6.52-2.59,9-4.75a228.08,228.08,0,0,0,17.63-16.63,91.16,91.16,0,0,0,21-34.8c0.56-1.75,1-3.54,1.5-5.32Z"/><path class="cls-6" d="M226.36,206.71a83.25,83.25,0,0,1,6.06-19.6,13.17,13.17,0,0,0,.63-4.48c0.12-1.82,0-3.65.14-5.46,0.16-2.18-.09-2.65-2.27-2.17a79.19,79.19,0,0,0-11.67,3.08,53.21,53.21,0,0,0-18.66,12.09c-3.12,3.14-5.85,6.66-8.72,10a2.4,2.4,0,0,0-.64,1.43c0.17,5.59.4,11.19,0.64,16.78a7.89,7.89,0,0,0,.33,1.29c0.76-8.65,4.73-14.83,12.66-17.78S220,200.74,226.36,206.71Z"/><path class="cls-6" d="M264.14,200.54c-0.75,2.72-1.34,5.07-2.06,7.37a3.92,3.92,0,0,0,.58,3.79c1.11,1.54,2.05,3.21,3.14,5-16.27.85-20.77,4.13-26.12,19.07-5.4-6.62-10.43-13.34-11.49-21.91-1.12-9.05,2.25-17.27,5.78-25.93C240.61,200.85,250.66,204.73,264.14,200.54ZM238.94,203a8.27,8.27,0,0,0-8.23,8.27,8.48,8.48,0,0,0,8.31,8.27c5.25,0,8.85-4.66,8.27-8.54A8,8,0,0,0,238.94,203Z"/><path class="cls-6" d="M275.66,187.53A24.77,24.77,0,0,1,267,198.65c-0.66.46-.91,1.62-1.17,2.5q-1.05,3.59-1.93,7.23a2.83,2.83,0,0,0,.12,1.91c1.42,2.36,2.9,4.69,4.5,6.94a7.63,7.63,0,0,0,2,1.24c3.06,2.1,6.1,4.22,9.2,6.36a14.71,14.71,0,0,0,.16-1.69c0-3.58.06-7.17,0-10.75,0-1.7.53-2.49,2.32-2.45,3.45,0.07,6.9.05,10.34,0,1.48,0,2.26.46,2.23,2.1-0.06,4.12,0,8.25,0,12.37,0,1.46-.52,2.08-2,2-3.38-.06-6.76,0-10.14,0-0.65,0-1.3.06-2.26,0.1l1.7,3.47c0.21-2.32,1.64-2.35,3.27-2.32,3,0.07,6,0,8.92,0,1.28,0,1.83-.42,1.82-1.75q-0.07-7.71,0-15.42c0-1.42-.57-1.94-1.92-1.92-3,0-6.09-.05-9.13,0-1.75.05-2.37-.58-2.33-2.36,0.1-4.8,0-9.6,0-14.22Z"/><path class="cls-6" d="M281.44,190.21c0-2,0-3.54,0-5.06,0-3.1-.17-6.21.05-9.29,0.17-2.29-.71-3.38-2.83-3.71-1-.16-2.06-0.26-3.28-0.42a6.14,6.14,0,0,0,.11,1.67c1.53,3.63,1.34,7.4.8,11.14a2.56,2.56,0,0,0,1.46,3.1A40.25,40.25,0,0,1,281.44,190.21Z"/><path class="cls-6" d="M194.07,228.69c4.24,7.42,10.51,11.58,19,11s14.26-5.34,17.56-13.53c1.37,2.08,2.53,3.92,3.77,5.72,2.51,3.63,6.34,6.58,6,11.69,0,0.36.43,0.76,0.4,1.12a2.15,2.15,0,0,1-.53,1.47c-1.7,1.16-3.49,2.19-5.51,3.42-0.07-.93-0.16-1.64-0.17-2.35,0-2.44,0-4.87,0-7.31,0-1.44-.46-2.12-2-2.09q-4.67.09-9.34,0c-1.43,0-1.9.57-1.87,1.93,0.05,2.77,0,5.55,0,8.32s0,2.82,2.8,2.82h9.07c-0.61.93-.89,1.44-1.24,1.89a23.51,23.51,0,0,0-4.49,9.83,22.79,22.79,0,1,0,44.94,7.49,7.42,7.42,0,0,1,.31-1.35l0.58-2.26-0.63-2.61,0-.08c-0.19-.64-0.37-1.5-0.56-2.08-0.13-.38-0.25-0.77-0.4-1.15a2.36,2.36,0,0,1,1.34-3.45c3.7-1.58,5.6-4.87,7.74-7.94a18.6,18.6,0,0,0,1.11-2.1l0.65,0.16c0,3.62,0,7.24,0,10.86,0,1.49.12,2.55,2.18,1.68l-0.35.45,1.92-1.87-0.09-.11c13.24-10.59,20.08-24.33,20.2-41.2s-6.61-30.71-20-41.76a15.73,15.73,0,0,1,1.58,0,22.23,22.23,0,0,0,12.52-1.43c1.94-.88,2.73-0.18,3.76,1.17a63.81,63.81,0,0,1,13.5,34.31c0.12,1.44.7,2.07,2.14,2,2.37,0,4.74-.07,7.1,0a5,5,0,0,1,1.74.89c-0.57.38-1.15,1.07-1.72,1.07-1.59,0-1.92.73-1.89,2.14q0.1,5.07,0,10.15c0,1.5.34,2.26,2,2.23,0.52,0,1.07.83,1.6,1.29a4.47,4.47,0,0,1-1.65.91c-2.91.09-5.82,0.08-8.73,0a1.79,1.79,0,0,0-2.14,1.6,34.25,34.25,0,0,1-1.17,4.29,64.11,64.11,0,0,1-22,31.24,4,4,0,0,1-.77.48l-0.05.09-3.07,2s0,0,0,0l-1.58,1-0.43.27h0c-0.25.15-.5,0.3-0.76,0.43-1.34.69-2.78,2.39-4-.24a3.27,3.27,0,0,0-1.4-.37c0,1,0,1.76,0,2.48,0,1.33.38,2.77,0,4a64.53,64.53,0,0,1-3.66,9.41c-1.82,3.6-4.3,6.8-8.67,7.5A42.47,42.47,0,0,1,261,295a48.83,48.83,0,0,1-18.17-4.43c-3.12-1.36-6.52-2.59-9-4.75a228.08,228.08,0,0,1-17.63-16.63,91.16,91.16,0,0,1-21-34.8c-0.56-1.75-1-3.54-1.5-5.32Z"/><path class="cls-6" d="M258.48,92.56c-4.8.11-9.61,0-14.41,0.06-1.4,0-2-.46-1.91-1.87a31.65,31.65,0,0,0,0-4.06c-0.14-1.82.7-2.37,2.4-2.34,3.58,0.07,7.17-.05,10.75,0,2.2,0.05,1.87-1.4,1.9-2.73s0-2.53-2-2.47c-3.65.12-7.31,0-11,.06a2.12,2.12,0,0,1-2.49-1.69,5.07,5.07,0,0,0-5.33-3.79c-9,0-18,0-27,0a4.91,4.91,0,0,0-5,3.85,1.79,1.79,0,0,1-2.13,1.59,13.36,13.36,0,0,0-2.43,0c-2.11.3-2.64-.61-2.61-2.62,0.12-9.2.12-18.4,0.13-27.6,0-1.26-.14-2.53-0.22-3.88-0.83,0-1.42-.1-2-0.1-7.1,0-14.21.05-21.31,0-1.85,0-2.28.66-2.27,2.37,0.06,9.47,0,18.94,0,28.41,0,3.95.49,3.38-3.46,3.44-1.16,0-2.24.08-2.75-1.42-0.84-2.48-2.39-3.46-5-3.46-9,0-18,.05-27,0-2.53,0-4.21,1-5,3.26-0.65,1.87-2,1.77-3.42,1.62-1.58-.16-1.09-1.46-1.13-2.37-0.11-2.3-1.36-3.71-3.59-3.77-2.57-.06-5.14-0.07-7.71,0a3.14,3.14,0,0,0-3.27,3.32c0,3.72,0,7.44,0,11.16,0,1.43.55,2.52,1.88,2.75a51.31,51.31,0,0,0,7.37.78c3.85,0.1,5.12-1.11,5.32-4.87,0.08-1.47.84-1.8,2.09-1.82a1.52,1.52,0,0,1,1.81,1.82c-0.05,1.55-.06,3.11,0,4.67,0.06,1.31-.47,1.79-1.78,1.77-3.58-.06-7.17,0-10.76,0-4.61,0-4.6,0-3.85,4.4,0.15,0.86.22,1.74,0.32,2.62,0.5,4.36.94,8.73,1.52,13.08,1.11,8.37,2.38,16.71,3.41,25.09,0.23,1.87.77,2.49,2.69,2.49q23.74-.1,47.49,0c1.84,0,2.49-.49,2.4-2.38a100.19,100.19,0,0,1,2.33-28.94,38.31,38.31,0,0,1,1.54-4.19l0.64,0.25c-0.06.3-.12,0.6-0.18,0.89-1.08,5.05-2.8,10.06-3.11,15.16-0.74,12-.73,23.93,3.53,35.43,1.51,4.08,3.27,8,6.71,10.88s6.86,2.72,9.63-.59a36.79,36.79,0,0,0,5.38-8.44c3.1-6.91,4-14.43,4.69-21.87,1-10-.57-19.9-3.16-29.6-0.17-.63-0.24-1.29-0.35-1.94l0.65-.13a60.48,60.48,0,0,1,1.62,5.88,112.64,112.64,0,0,1,1.7,12c0.33,5,.33,10.11.22,15.16,0,2.26-.22,2.41,2.12,2.41,16.44,0,32.88,0,49.32,0,1.57,0,2.19-.56,2.37-2,0.66-5.43,1.37-10.85,2-16.27,0.4-3.27.7-6.56,1.14-9.82q1.19-8.72,2.51-17.42C260.75,93.07,260.23,92.53,258.48,92.56ZM174.15,94H164V83.85h10.15V94ZM185,165.68a8.8,8.8,0,0,1-8.67-8.61,8.6,8.6,0,0,1,8.76-8.66A8.64,8.64,0,1,1,185,165.68Zm7-59.84q-7.2-.1-14.41,0c-1.62,0-2.13-.66-2.12-2.19,0-6.36,0-12.72,0-19.07s0-12.45,0-18.67c0-1.91.63-2.67,2.59-2.62,4.6,0.12,9.2.13,13.8,0.09,1.68,0,2.25.68,2.25,2.31q0,19,0,37.95C194.12,105.13,193.66,105.86,192,105.84ZM206.29,94H196.14V83.85h10.15V94Z"/><rect class="cls-3" x="222.87" y="239.25" width="10.35" height="10.42"/><rect class="cls-3" x="136.83" y="239.25" width="10.35" height="10.42"/></g></g></g></svg>