<svg id="_1" data-name="1" xmlns="http://www.w3.org/2000/svg" xmlns:xlink="http://www.w3.org/1999/xlink" viewBox="0 0 370 340"><defs><style>.cls-1,.cls-14,.cls-15,.cls-16,.cls-2,.cls-25,.cls-26,.cls-27,.cls-40,.cls-43,.cls-53,.cls-54,.cls-55,.cls-59,.cls-60,.cls-61,.cls-68{fill:none;}.cls-2,.cls-26,.cls-40,.cls-43{stroke:#1d1d1b;}.cls-12,.cls-15,.cls-2,.cls-24,.cls-25,.cls-40,.cls-54,.cls-59,.cls-66,.cls-67,.cls-68{stroke-linecap:round;}.cls-2,.cls-40{stroke-width:2px;}.cls-3{fill:#1d1d1b;}.cls-4{fill:#415682;}.cls-5{fill:#324164;}.cls-6{fill:url(#linear-gradient);}.cls-7{fill:#c5a778;}.cls-8{fill:url(#linear-gradient-2);}.cls-9{fill:url(#linear-gradient-3);}.cls-10{fill:url(#linear-gradient-4);}.cls-11{fill:url(#linear-gradient-5);}.cls-12,.cls-13{fill:#86c2eb;}.cls-12,.cls-14,.cls-15{stroke:#74a7c9;}.cls-12,.cls-15,.cls-24,.cls-25,.cls-40,.cls-54,.cls-66,.cls-67,.cls-68{stroke-linejoin:round;}.cls-15,.cls-17,.cls-59,.cls-67,.cls-68{stroke-width:0.5px;}.cls-16{stroke:#c3e1f5;}.cls-17,.cls-31{fill:#f2f2f2;}.cls-17,.cls-41,.cls-42{stroke:#fff;}.cls-18{fill:#5e5e5d;}.cls-18,.cls-19,.cls-20,.cls-21,.cls-22,.cls-23{fill-rule:evenodd;}.cls-19{fill:url(#Безымянный_градиент_495);}.cls-20{fill:url(#Безымянный_градиент_495-2);}.cls-21{fill:url(#Безымянный_градиент_495-3);}.cls-22{fill:url(#Безымянный_градиент_495-4);}.cls-23{fill:url(#Безымянный_градиент_144);}.cls-24,.cls-32{fill:#fff;}.cls-24,.cls-25,.cls-66{stroke:#c6c6c5;}.cls-26{stroke-width:3px;}.cls-27{stroke:#b1b1b1;}.cls-27,.cls-55{stroke-width:1.5px;}.cls-28{fill:#ccc;}.cls-29{fill:#d9d9d9;}.cls-30{fill:#e5e5e5;}.cls-33{fill:#b9b9b9;}.cls-34{fill:#a6a6a6;}.cls-35{fill:#939393;}.cls-36{fill:gray;}.cls-37{fill:#bfbfbf;}.cls-38{fill:#b2b2b2;}.cls-39{fill:#999;}.cls-41{stroke-width:0.4px;fill:url(#linear-gradient-6);}.cls-42{stroke-width:0.61px;fill:url(#linear-gradient-7);}.cls-44{fill:#706f6f;}.cls-45{fill:#fcd7b8;}.cls-46{fill:#c6c6c6;}.cls-47{fill:#fcd2ab;}.cls-48{clip-path:url(#clip-path);}.cls-49{fill:#3a4b74;}.cls-50{clip-path:url(#clip-path-2);}.cls-51{fill:#fbcdab;}.cls-52{fill:#d4a788;}.cls-53,.cls-54{stroke:#d4a788;stroke-width:0.6px;}.cls-55{stroke:#b9653e;}.cls-56{fill:#b9653e;}.cls-57{fill:url(#linear-gradient-8);}.cls-58{fill:url(#linear-gradient-9);}.cls-59{stroke:#fffdfd;}.cls-60,.cls-61{stroke:#ededed;}.cls-60{stroke-width:0.4px;}.cls-61{stroke-width:0.3px;}.cls-62{fill:#ededed;}.cls-63{fill:#fffdfd;}.cls-64{fill:#dadad8;}.cls-65{fill:#c6c6c4;}.cls-66{fill:#e3e3e2;}.cls-67,.cls-68{stroke:#fbcdab;}.cls-67{fill:url(#linear-gradient-10);}.cls-69{fill:url(#Безымянный_градиент_32);}.cls-70{fill:url(#Безымянный_градиент_37);}.cls-71{fill:url(#linear-gradient-11);}</style><linearGradient id="linear-gradient" x1="25" y1="293.3" x2="345" y2="293.3" gradientUnits="userSpaceOnUse"><stop offset="0" stop-color="#e9d8bf"/><stop offset="0.05" stop-color="#e9d8bf"/><stop offset="0.47" stop-color="#d4b380"/><stop offset="1" stop-color="#d4b380"/></linearGradient><linearGradient id="linear-gradient-2" x1="205.48" y1="315.06" x2="339.56" y2="315.06" gradientUnits="userSpaceOnUse"><stop offset="0" stop-color="#d4b380"/><stop offset="0.05" stop-color="#d4b380"/><stop offset="0.47" stop-color="#c9aa7a"/><stop offset="1" stop-color="#c9aa7a"/></linearGradient><linearGradient id="linear-gradient-3" x1="25" y1="309.23" x2="205.48" y2="309.23" gradientUnits="userSpaceOnUse"><stop offset="0" stop-color="#d8ba8c"/><stop offset="0.05" stop-color="#d8ba8c"/><stop offset="0.47" stop-color="#ccac7c"/><stop offset="1" stop-color="#ccac7c"/></linearGradient><linearGradient id="linear-gradient-4" x1="32.03" y1="322.27" x2="205.48" y2="322.27" gradientUnits="userSpaceOnUse"><stop offset="0" stop-color="#e0c9a5"/><stop offset="0.05" stop-color="#e0c9a5"/><stop offset="0.47" stop-color="#d8ba8c"/><stop offset="1" stop-color="#d8ba8c"/></linearGradient><linearGradient id="linear-gradient-5" x1="239.97" y1="158.39" x2="239.97" y2="191.62" gradientUnits="userSpaceOnUse"><stop offset="0" stop-color="#fbcdab"/><stop offset="0.96" stop-color="#fcd7b8"/></linearGradient><radialGradient id="Безымянный_градиент_495" cx="215.16" cy="-19874.81" r="2.65" gradientTransform="matrix(1, 0, 0, -1, 0, -19642)" gradientUnits="userSpaceOnUse"><stop offset="0" stop-color="#d61016"/><stop offset="0.2" stop-color="#cc1116"/><stop offset="0.53" stop-color="#b11315"/><stop offset="0.96" stop-color="#861814"/><stop offset="1" stop-color="#811814"/></radialGradient><radialGradient id="Безымянный_градиент_495-2" cx="221.32" cy="-19880.42" r="4.1" gradientTransform="matrix(0.26, -0.97, -1.45, -0.39, -28640.48, -7265.94)" xlink:href="#Безымянный_градиент_495"/><radialGradient id="Безымянный_градиент_495-3" cx="208.91" cy="-19880.38" r="4.13" gradientTransform="matrix(0.26, 0.97, 1.45, -0.39, 28959.3, -7681.54)" xlink:href="#Безымянный_градиент_495"/><radialGradient id="Безымянный_градиент_495-4" cx="231.62" cy="-19880.37" r="4.15" gradientTransform="matrix(0, 1, 1.5, 0, 30052.17, 6.75)" xlink:href="#Безымянный_градиент_495"/><radialGradient id="Безымянный_градиент_144" cx="225.85" cy="-19874.77" r="2.39" gradientTransform="matrix(0, 1, 1.5, 0, 30038.01, 6.91)" gradientUnits="userSpaceOnUse"><stop offset="0" stop-color="#d61016"/><stop offset="0.3" stop-color="#b81315"/><stop offset="0.76" stop-color="#901714"/><stop offset="1" stop-color="#811814"/></radialGradient><linearGradient id="linear-gradient-6" x1="768.58" y1="38.67" x2="771.14" y2="38.67" gradientTransform="matrix(0, 1, -1, 0, 292.55, -554.28)" gradientUnits="userSpaceOnUse"><stop offset="0" stop-color="#fff"/><stop offset="1" stop-color="gray"/></linearGradient><linearGradient id="linear-gradient-7" x1="770.32" y1="39.72" x2="768.31" y2="42.95" gradientTransform="matrix(0, 1, -1, 0, 293.97, -551.09)" xlink:href="#linear-gradient-6"/><clipPath id="clip-path"><path class="cls-1" d="M243.77,116.95c-1.71.22-3.52-.12-5.57-2.28a5.27,5.27,0,0,0-8.74,3.4s0.44,1.43,1.49,1.48,8.78,0.08,10.48-.56A4.37,4.37,0,0,0,243.77,116.95Z"/></clipPath><clipPath id="clip-path-2"><path class="cls-1" d="M200.51,118.83c1.5,0.33,1.57-.38,3-2.61s5.72-2.74,7.16,2.28c0,0-.22,1.38-1.13,1.56s-5.47.76-6.51,0.41A10.69,10.69,0,0,1,200.51,118.83Z"/></clipPath><linearGradient id="linear-gradient-8" x1="141.58" y1="290.5" x2="221.47" y2="293.11" gradientUnits="userSpaceOnUse"><stop offset="0.28" stop-color="#c6c6c4"/><stop offset="0.62" stop-color="#dadad8"/><stop offset="0.76" stop-color="#bbbbb9"/></linearGradient><linearGradient id="linear-gradient-9" x1="96.27" y1="293.42" x2="225.54" y2="293.42" gradientUnits="userSpaceOnUse"><stop offset="0.04" stop-color="#c6c6c4"/><stop offset="0.12" stop-color="#a3a39c"/><stop offset="0.45" stop-color="#a3a39c"/><stop offset="0.5" stop-color="#a3a39c"/><stop offset="0.53" stop-color="#a5a59f"/><stop offset="0.56" stop-color="#acaca7"/><stop offset="0.57" stop-color="#b8b8b5"/><stop offset="0.58" stop-color="#bbbbb9"/><stop offset="0.6" stop-color="#bdbdbc"/><stop offset="0.61" stop-color="#c5c5c4"/><stop offset="0.62" stop-color="#d3d3d2"/><stop offset="0.63" stop-color="#e7e7e6"/><stop offset="0.63" stop-color="#ededed"/><stop offset="0.71" stop-color="#a3a39c"/><stop offset="0.83" stop-color="#a5a59f"/><stop offset="0.9" stop-color="#acaca7"/><stop offset="0.96" stop-color="#b8b8b5"/><stop offset="0.97" stop-color="#bbbbb9"/></linearGradient><linearGradient id="linear-gradient-10" x1="269.95" y1="266.32" x2="243.79" y2="266.32" gradientTransform="translate(16.52 18.43) rotate(-2.29)" gradientUnits="userSpaceOnUse"><stop offset="0" stop-color="#fbcdab"/><stop offset="1" stop-color="#fcd7b8"/></linearGradient><linearGradient id="Безымянный_градиент_32" x1="140.89" y1="307.57" x2="113.33" y2="245.74" gradientUnits="userSpaceOnUse"><stop offset="0.05" stop-color="#dadad8"/><stop offset="1" stop-color="#494947"/></linearGradient><linearGradient id="Безымянный_градиент_37" x1="119.63" y1="256.05" x2="93.4" y2="207.88" gradientUnits="userSpaceOnUse"><stop offset="0" stop-color="gray"/><stop offset="1" stop-color="#1d1d1b"/></linearGradient><linearGradient id="linear-gradient-11" x1="68.32" y1="208.71" x2="194.82" y2="278.82" gradientUnits="userSpaceOnUse"><stop offset="0.14" stop-color="#c6c6c4"/><stop offset="0.28" stop-color="#a3a39c"/><stop offset="0.42" stop-color="#a3a39c"/><stop offset="0.44" stop-color="#a3a39c"/><stop offset="0.47" stop-color="#a5a59f"/><stop offset="0.49" stop-color="#acaca7"/><stop offset="0.5" stop-color="#b8b8b5"/><stop offset="0.5" stop-color="#bbbbb9"/><stop offset="0.52" stop-color="#bdbdbc"/><stop offset="0.53" stop-color="#c5c5c4"/><stop offset="0.54" stop-color="#d3d3d2"/><stop offset="0.55" stop-color="#e7e7e6"/><stop offset="0.55" stop-color="#ededed"/><stop offset="0.63" stop-color="#a3a39c"/><stop offset="0.79" stop-color="#a5a59f"/><stop offset="0.88" stop-color="#acaca7"/><stop offset="0.95" stop-color="#b8b8b5"/><stop offset="0.97" stop-color="#bbbbb9"/></linearGradient></defs><title>Image_uslugi</title><path class="cls-2" d="M217.75,155.13c9.8-8.1,25.07-13,36.71-1.08"/><path class="cls-3" d="M293.17,207.4c22.53,0.76,39.85,24.75,40.48,47.4S332.92,298,332.92,298H242.07s2.56-27.88,6.13-44.26S262,206.36,293.17,207.4Z"/><path class="cls-4" d="M286.15,205.09c23.91,0.75,38.92,24.48,39.56,46.88s-0.83,42.75-.83,42.75H231.81s2.75-27.58,6.56-43.78S253.06,204.06,286.15,205.09Z"/><path class="cls-5" d="M285.14,229.53c14.33,0.48,23.22,15.68,23.5,30s-0.7,27.38-.7,27.38h-55.8s1.78-17.67,4.14-28S265.31,228.87,285.14,229.53Z"/><polygon class="cls-6" points="145.23 271.94 345 282.26 205.48 314.66 25 297.26 145.23 271.94"/><polygon class="cls-7" points="205.48 314.66 205.48 321.2 345 288.81 345 282.26 205.48 314.66"/><polygon class="cls-8" points="205.48 339.99 339.56 339.99 339.56 290.13 205.48 321.2 205.48 339.99"/><polygon class="cls-9" points="25 303.81 205.48 321.2 205.48 314.66 25 297.26 25 303.81"/><polygon class="cls-10" points="32.03 304.55 32.03 339.99 205.48 339.99 205.48 321.2 32.03 304.55"/><path class="cls-11" d="M247.4,121.71s1.77,29.91,3.5,32.84c3.07,5.2,9.93,9.76,18.17,12.71s21.46,9.32,21.75,22.3-7,35.4-10.57,43.36-5.12,8.61-6.89,17.46-3.48,32-3.48,32l-74.61-.06s0.68-19.52.33-23.39-0.51-10.38-1.09-15.14a63.09,63.09,0,0,1-.52-10.38c0.11-1.77-1.94-4.75-2.82-8s-2.07-17.4-2.07-22.12,0.08-22.29,4.8-25.83,20.89-12,22.07-16.47-0.2-18.1-.2-18.1Z"/><path class="cls-12" d="M198.32,173.44c-4.41,2.65-13.76,6.94-16.52,19.48-0.26,1.16-2.65,10.41-5.29,20.11s-5.71,24.67-5.71,24.67a10.25,10.25,0,0,1,6.08,4.94c2.09,4,7.33,6.06,18.14,3.46C195,246.11,202.73,170.79,198.32,173.44Z"/><path class="cls-13" d="M255.34,159.21c-7.79,12.11-28.15,36.28-31,43.19-5-10.81-10.85-25.78-10.85-36.81-5.53,2.42-14.69,7.54-16.74,8.53C195,183,189,226,189,226a464.17,464.17,0,0,0-1.15,57.14h90.47V243.22s6.26-42.15,7.55-49.94,3.65-17.68-3.25-21.41C276.8,168.72,267.7,165.39,255.34,159.21Z"/><path class="cls-14" d="M196.8,174.35c2-1,11.21-6.11,16.74-8.53,0,11,5.88,26,10.85,36.81,2.81-6.92,23.17-31.09,31-43.19,12.36,6.18,21.46,9.51,27.3,12.67,6.89,3.73,4.54,13.63,3.25,21.41s-7.55,49.94-7.55,49.94v39.91H187.86A464.17,464.17,0,0,1,189,226.22c1.15-11.78,3.16-22.4,3.16-22.4"/><path class="cls-15" d="M273.56,225.1c0.22-13.41,3.24-30.05,12.11-38.92"/><path class="cls-13" d="M282.64,172.1c11.63,5.73,19.83,16.06,20.68,32.29,0.41,7.93.86,41.36,0.86,41.36-1.95,2.81-19,12.17-32.17,2C272,247.76,268.58,185.73,282.64,172.1Z"/><path class="cls-14" d="M282.64,172.1c11.63,5.73,19.83,16.06,20.68,32.29,0.41,7.93.86,41.36,0.86,41.36-1.95,2.81-19,12.17-32.17,2,0,0,.29-33.6,3.45-40.21"/><path class="cls-12" d="M206.83,169.17s5.29-3.76,6.37-5.27a4.37,4.37,0,0,1,2.55-1.77,6.63,6.63,0,0,0-.67,4.34c0.43,2.59,8.65,32.05,13.63,41.35H216.81A266,266,0,0,1,206.83,169.17Z"/><path class="cls-12" d="M259.37,161.88s-5.41-3.53-6.49-5-2.38-1.08-3.24.22S222,194.42,216.81,207.82h11.89S254.18,167.07,259.37,161.88Z"/><path class="cls-16" d="M258.51,161c-7.24,13.44-31.6,64.57-37.25,65.17"/><path class="cls-17" d="M223.82,227.8a3.27,3.27,0,0,0,0-.43,3.57,3.57,0,1,0-7.14,0,3.68,3.68,0,0,0,0,.43H203.18v23.61h35.33V227.8H223.82Zm-5.48-.43a2,2,0,0,1,3.91,0,1.93,1.93,0,0,1-.05.43h-3.81A2,2,0,0,1,218.34,227.37Z"/><path class="cls-16" d="M211.7,165c-5.51,1,.05,37.46,7.28,60.78,0.48,1.56,2.22.09,2.22,0.09"/><path id="_Составной_контур_" data-name="&lt;Составной контур&gt;" class="cls-18" d="M208.18,244.71a0.56,0.56,0,0,1,.32.08,0.32,0.32,0,0,1,.12.28v3.78a0.39,0.39,0,0,1-.09.26,0.44,0.44,0,0,1-.35.11,0.38,0.38,0,0,1-.46-0.38v-3.33h-1.08c0,0.16,0,.31,0,0.45l0,0.45c0,0.15,0,.32,0,0.48s0,0.34-.06.5,0,0.33-.08.48-0.06.3-.1,0.43a1.37,1.37,0,0,1-.39.67,1.09,1.09,0,0,1-.75.24,0.55,0.55,0,0,1-.38-0.09,0.35,0.35,0,0,1-.09-0.25,0.47,0.47,0,0,1,.07-0.25,0.36,0.36,0,0,1,.3-0.13,0.53,0.53,0,0,0,.18,0,0.32,0.32,0,0,0,.13-0.1,0.72,0.72,0,0,0,.1-0.19,2.09,2.09,0,0,0,.07-0.31c0-.13,0-0.25.06-0.36s0-.21,0-0.32,0-.22,0-0.33l0-.38,0-.37c0-.11,0-0.22,0-0.33s0-.21,0-0.32,0-.23,0-0.36a0.46,0.46,0,0,1,.1-0.28,0.39,0.39,0,0,1,.3-0.1h2Zm2.17,3.65-0.24.63a0.36,0.36,0,0,1-.16.19,0.49,0.49,0,0,1-.23.06,0.55,0.55,0,0,1-.38-0.11,0.35,0.35,0,0,1-.11-0.27,0.5,0.5,0,0,1,0-.21l1.41-3.67a0.43,0.43,0,0,1,.22-0.25,0.72,0.72,0,0,1,.31-0.07,0.74,0.74,0,0,1,.3.06,0.44,0.44,0,0,1,.22.26l1.41,3.67a0.53,0.53,0,0,1,0,.19,0.39,0.39,0,0,1-.11.28,0.51,0.51,0,0,1-.77-0.14l-0.26-.61h-1.7Zm0.84-2.48-0.57,1.7h1.14l-0.57-1.7h0Zm3.48,0.59h0.82a3.24,3.24,0,0,1,.71.07,1.5,1.5,0,0,1,.53.23,1,1,0,0,1,.33.4,1.46,1.46,0,0,1,.11.61,1.23,1.23,0,0,1-.46,1.07,2.17,2.17,0,0,1-1.28.33h-1.29a0.31,0.31,0,0,1-.36-0.34V245a0.3,0.3,0,0,1,.09-0.23,0.39,0.39,0,0,1,.28-0.09h2.29a0.34,0.34,0,0,1,.27.1,0.41,0.41,0,0,1,.09.28,0.47,0.47,0,0,1-.08.28,0.3,0.3,0,0,1-.27.11h-1.79v1h0Zm1.57,1.35a1,1,0,0,0,0-.25,0.47,0.47,0,0,0-.12-0.2,0.55,0.55,0,0,0-.22-0.14,1,1,0,0,0-.34,0h-0.87v1.25h0.87a0.71,0.71,0,0,0,.54-0.18,0.64,0.64,0,0,0,.16-0.44h0Zm5.52-1.8-1,2.85a0.41,0.41,0,0,1-.18.24,0.59,0.59,0,0,1-.29.07,0.56,0.56,0,0,1-.35-0.09,0.62,0.62,0,0,1-.18-0.26l-1-2.58v2.63a0.37,0.37,0,0,1-.09.26,0.45,0.45,0,0,1-.35.11,0.48,0.48,0,0,1-.33-0.09,0.39,0.39,0,0,1-.1-0.29v-3.74a0.37,0.37,0,0,1,.16-0.34,0.8,0.8,0,0,1,.44-0.1,0.75,0.75,0,0,1,.43.11,0.63,0.63,0,0,1,.22.3l1.1,3.19,1.05-3.16a0.58,0.58,0,0,1,.25-0.33,0.93,0.93,0,0,1,.47-0.1,0.79,0.79,0,0,1,.43.1,0.34,0.34,0,0,1,.15.31v3.8a0.37,0.37,0,0,1-.09.26,0.45,0.45,0,0,1-.35.11,0.44,0.44,0,0,1-.33-0.1,0.4,0.4,0,0,1-.1-0.29V246h0Zm4.43-1.32a0.31,0.31,0,0,1,.25.1,0.42,0.42,0,0,1,.08.28,0.51,0.51,0,0,1-.08.28,0.29,0.29,0,0,1-.26.12h-1.66v3.39a0.37,0.37,0,0,1-.1.26,0.46,0.46,0,0,1-.35.11,0.37,0.37,0,0,1-.45-0.36V245a0.3,0.3,0,0,1,.09-0.23,0.36,0.36,0,0,1,.26-0.09h2.21Zm4.7,1.32-1,2.85a0.4,0.4,0,0,1-.18.24,0.59,0.59,0,0,1-.29.07,0.56,0.56,0,0,1-.35-0.09,0.61,0.61,0,0,1-.18-0.26l-1-2.58v2.63a0.37,0.37,0,0,1-.09.26,0.45,0.45,0,0,1-.35.11,0.48,0.48,0,0,1-.33-0.09,0.4,0.4,0,0,1-.09-0.29v-3.74a0.38,0.38,0,0,1,.16-0.34,0.81,0.81,0,0,1,.44-0.1,0.75,0.75,0,0,1,.43.11,0.63,0.63,0,0,1,.22.3l1.1,3.19,1.06-3.16a0.57,0.57,0,0,1,.25-0.33,0.94,0.94,0,0,1,.47-0.1,0.79,0.79,0,0,1,.43.1,0.34,0.34,0,0,1,.15.31v3.8a0.37,0.37,0,0,1-.09.26,0.6,0.6,0,0,1-.68,0,0.4,0.4,0,0,1-.1-0.29V246h0Zm3.51,2.29a1.69,1.69,0,0,1-.55.7,1.33,1.33,0,0,1-.76.21,0.67,0.67,0,0,1-.36-0.07,0.3,0.3,0,0,1-.11-0.26,0.47,0.47,0,0,1,.09-0.29,0.38,0.38,0,0,1,.31-0.13,0.55,0.55,0,0,0,.32-0.11,0.83,0.83,0,0,0,.19-0.23l0.16-.29-1.28-2.52a0.8,0.8,0,0,1-.06-0.15,0.51,0.51,0,0,1,0-.15,0.32,0.32,0,0,1,.14-0.26,0.57,0.57,0,0,1,.36-0.11,0.4,0.4,0,0,1,.27.08,0.64,0.64,0,0,1,.14.19l0.93,2L235,245a0.79,0.79,0,0,1,.15-0.24,0.37,0.37,0,0,1,.27-0.08,0.55,0.55,0,0,1,.36.11,0.34,0.34,0,0,1,.14.27,0.66,0.66,0,0,1-.06.27Z"/><g id="_Группа_" data-name="&lt;Группа&gt;"><path id="_Контур_" data-name="&lt;Контур&gt;" class="cls-19" d="M218,234.32a2.43,2.43,0,0,1-.93-1.94,2,2,0,0,0-2-2h0a2,2,0,0,0-2,2,2.41,2.41,0,0,1-.82,1.85l0.75,0.93a2.89,2.89,0,0,1,2.07-.81,2.85,2.85,0,0,1,2.13.87Z"/><path id="_Контур_2" data-name="&lt;Контур&gt;" class="cls-20" d="M217.23,235.22a5.12,5.12,0,0,1,.88,3.52s0,0.09,0,.13a3.65,3.65,0,1,0,3.65-3.65,3.59,3.59,0,0,0-.51,0,5,5,0,0,1-3.22-.94Z"/><path id="_Контур_3" data-name="&lt;Контур&gt;" class="cls-21" d="M212.28,234.23a4.87,4.87,0,0,1-3.33,1,3.6,3.6,0,0,0-.51,0,3.65,3.65,0,1,0,3.65,3.65s0-.09,0-0.13a5,5,0,0,1,.94-3.58Z"/><path id="_Контур_4" data-name="&lt;Контур&gt;" class="cls-22" d="M227.49,235.14a4.94,4.94,0,0,1,1,3.6s0,0.09,0,.13a3.65,3.65,0,1,0,3.65-3.65,3.57,3.57,0,0,0-.51,0,4.05,4.05,0,0,1-3.32-1.05Z"/><path id="_Контур_5" data-name="&lt;Контур&gt;" class="cls-23" d="M228.27,234.21a3.83,3.83,0,0,1-.88-1.83,2,2,0,1,0-2,2,2.92,2.92,0,0,1,2.07.78Z"/></g><path class="cls-24" d="M178.94,278.55c2.89-1.7,5.88-4,7-8.35,1.62-6.49,8.63-46.49,8.63-46.49l9.24-56.34s-11.45,3.08-13.31,3.79c-6.15,2.32-11.25,13-12.86,17.53-0.58,1.62-3.18,7.45-2.55,11.6,0.21,1.38.59,2.53-1.21,4.86-1.66,2.16-.07,4.39.25,6.63s-9.73,39.21-8.71,40.74-0.51,1.36-1.19,2,0.34,2,.34,2a1.47,1.47,0,0,0-1.53.34c-0.7.46-.79,1.34-1.44,1.79-1,.67-10.75,7-13,9.24,4.47,3.51,12.57,18.22,12.57,18.22S176.06,280.25,178.94,278.55Z"/><path class="cls-25" d="M167.33,256.31s3.82-1.74,4.64-1.46,9.93,5.37,11.14,7.92"/><path class="cls-25" d="M165.7,257a20.33,20.33,0,0,1,13.41,2.22"/><path class="cls-24" d="M181.75,274.11l23.58,1.22-0.4-25.6c-5.93-43.12.36-64.38,7-87.67,0,0-11.19,4.73-21.46,9.1-2.76,1.18-7.08,15-5,28.92C187.26,212.54,178.17,239,181.75,274.11Z"/><path class="cls-24" d="M211.94,169.65c-1.76,4.07-10.91,44-7,79.25,0,0-11.64-44.9-11.73-59.16l8.54-7.17-7.23-4.68s20.26-19,21.94-20.7l-0.66,4.93A75.64,75.64,0,0,0,211.94,169.65Z"/><line class="cls-25" x1="206.66" y1="178.75" x2="201.71" y2="182.57"/><path class="cls-24" d="M252.12,155.18s-6.73,44.91-18.79,90.71c0,0-4.48,18-1.77,30.8l51.78,2.68s-1.82-44.84,0-58.77,19-39.44,12.42-42.4S252.12,155.18,252.12,155.18Z"/><path class="cls-24" d="M233.33,245.88c10.85-13.26,32-53.4,32-53.4l-9.41-8.61,14-2.81s-18.91-30.6-20-31l0.31,2.14C249.89,163,244.18,191.65,233.33,245.88Z"/><line class="cls-25" x1="253.39" y1="181.17" x2="255.91" y2="183.88"/><path class="cls-26" d="M195.87,176.61a9.22,9.22,0,1,1,17.63,5.17"/><path class="cls-27" d="M213.5,181.77l-15.84,47.79c-3.53,10.64-16.89,8.92-20.27,4.5"/><path class="cls-3" d="M174.86,232.33c-1.35,1.06,2.39,3.94,3.48,3.08s-0.82-5.17-2.16-4.11Z"/><path class="cls-27" d="M198,240.12c-5.23,1.89-17.4-3.88-14.63-14.74l12.47-48.77"/><path class="cls-3" d="M200.48,239.67c0.56,1.62-4.14,2-4.59.71s3.48-3.9,4-2.29Z"/><circle class="cls-28" cx="253.15" cy="219.71" r="6.55" transform="translate(-25.47 406.06) rotate(-74.73)"/><path class="cls-28" d="M246.95,219.4l5.61-1.28-3.79,6.22A8.75,8.75,0,0,1,246.95,219.4Z"/><path class="cls-29" d="M248.46,223.76a6,6,0,0,1-1.44-3.93l5.25-1.47Z"/><path class="cls-30" d="M248.14,223.18s-1-.58-1.06-2.92l4.9-1.66Z"/><path class="cls-31" d="M247.83,222.59s-0.6.13-.68-1.91l4.54-1.84Z"/><path class="cls-32" d="M247.21,221.11l4.18-2L247.51,222S247.28,222.85,247.21,221.11Z"/><path class="cls-28" d="M248.28,223.85l3.89-5.28-1.3,7.08A4.36,4.36,0,0,1,248.28,223.85Z"/><path class="cls-33" d="M250.64,225.56a3.73,3.73,0,0,1-2.17-1.5l3.61-5.27Z"/><path class="cls-34" d="M250.42,225.47a3.09,3.09,0,0,1-1.74-1.2L252,219Z"/><path class="cls-35" d="M250.19,225.39a2.42,2.42,0,0,1-1.31-.9l3-5.25Z"/><path class="cls-36" d="M249.08,224.7l2.75-5.24L250,225.31A1.76,1.76,0,0,1,249.08,224.7Z"/><path class="cls-28" d="M257.17,214.3l-3.91,3.95-0.66-4.83A9.12,9.12,0,0,1,257.17,214.3Z"/><path class="cls-29" d="M252.93,213.4a8.58,8.58,0,0,1,3.77.69l-3.31,4Z"/><path class="cls-30" d="M253.26,213.37a8.63,8.63,0,0,1,3,.5l-2.72,4Z"/><path class="cls-31" d="M253.58,213.35a12.37,12.37,0,0,1,2.18.31l-2.12,4Z"/><path class="cls-32" d="M255.3,213.45l-1.53,4,0.13-4.13A6.78,6.78,0,0,0,255.3,213.45Z"/><path class="cls-28" d="M256.94,224.67l-4.43-6.56,7.17,1.26S259.5,222.92,256.94,224.67Z"/><path class="cls-37" d="M259.62,219.89s-0.24,3-2.35,4.48l-4.44-6.08Z"/><path class="cls-38" d="M259.57,220.41s-0.3,2.54-2,3.67l-4.44-5.6Z"/><path class="cls-34" d="M259.52,220.92a5,5,0,0,1-1.59,2.86l-4.44-5.11Z"/><path class="cls-39" d="M258.26,223.49l-4.45-4.64,5.65,2.58A4.41,4.41,0,0,1,258.26,223.49Z"/><path class="cls-40" d="M254.47,154.05c11,11.61,6.19,35.66-.64,60.34"/><path class="cls-2" d="M207.49,169.63c1.92-6.55,5.37-10.51,8.82-14.35"/><rect class="cls-41" x="251.73" y="214.29" width="3.74" height="2.56" transform="translate(-21.09 403.54) rotate(-74.75)"/><circle class="cls-42" cx="252.24" cy="218.12" r="2.2" transform="translate(-24.56 404.09) rotate(-74.75)"/><circle class="cls-43" cx="253.15" cy="219.71" r="6.55" transform="translate(-25.47 406.06) rotate(-74.73)"/><path class="cls-44" d="M198,104.28l59.83,20.46,4.86-10.15a19.09,19.09,0,0,0,1.18-4.48c0.06-1.6,1.32-3.87,1.73-6a17.08,17.08,0,0,0-.31-5.41c0.22-.75-0.63-4.17-0.63-4.17-0.46-6.27-3.58-8.75-3.58-8.75-0.13-3.57-4-7.25-4-7.25-0.77-1.33-3.57-5.05-10-4.34C240,66,226.2,68.55,215.53,72a13.62,13.62,0,0,0-8.11,7.06s-4.21.76-6.2,2.8-3.64,6.66-4.31,8.41-1.8,3.88-1.15,5.34c0,0,.49,3.68,1.27,5A10.9,10.9,0,0,1,198,104.28Z"/><path class="cls-45" d="M250.23,147.06c1.64-2.42,3.81-14.16,3.81-14.16a3.94,3.94,0,0,0,2.93.75c3.65-.22,5.46-6.58,6.33-10,1.29-5.1.19-9.7-2.78-10.53-1.88-.52-4,1.15-5.73,3.38,0-.57,0-1.13,0-1.71-0.2-24.55-3.82-42-31.61-41-15.51.54-26,3.56-25.77,36.77a17.64,17.64,0,0,0,.78,6.7c2.69,8.44-1,16.89,3.27,27,2.64,6.21,13.28,13.09,15.44,14.78,3.6,2.82,9.27,1.64,12.58.48S246.51,152.55,250.23,147.06Z"/><path class="cls-44" d="M242.83,82s-7.72,5.67-13.34,6.35c0,0,5.22-5.1,6.13-6.7,0,0-9.66,5.26-13.36,6,0,0,6.53-5.51,7.45-6.62,0,0-11.38,4.12-14.65,6.75a27.87,27.87,0,0,1,5.31-6.07s-15.64,9.43-17.83,11.91c0,0,2.42-6.33,3.11-7.31,0,0-6,6.57-7.82,9.76,0,0,1-15.13,11.06-20.19,7.43-3.75,25.48-5.94,35.84,1.86s14.55,35,14.55,35-2.45.13-5.13,4.29a11.42,11.42,0,0,0-2.51-4.4l2.51,0.9a31.14,31.14,0,0,0-2.88-2.62l3.1,0.87s-2.38-1.9-3.73-2.81c0,0,3.51.84,4,.94,0,0-3.33-2.4-4.32-3.33a18.37,18.37,0,0,1,4,1.78S251,105,250,104.22a29.49,29.49,0,0,1,4.13,1.54s-3.35-3-4.59-4.28a22.28,22.28,0,0,1,3.54,1s-3.37-3.09-4.72-4.12l3.77,1.43-4-3.34,3.67,1-4.41-4.16,4.15,1.86-4.33-4.25L251,92.32a18.59,18.59,0,0,1-5.2-4.62A23.49,23.49,0,0,1,242.83,82Z"/><path class="cls-46" d="M197.41,97.48a37.65,37.65,0,0,1,13.31-14.67S201,85.48,197.41,97.48Z"/><path class="cls-46" d="M220.71,75.49s14.43-4.86,21.25-1.55C242,73.94,237.43,68.28,220.71,75.49Z"/><path class="cls-46" d="M203.23,92.9S217,82.58,227.71,78.84a50,50,0,0,0-13.63,5A49.47,49.47,0,0,0,203.23,92.9Z"/><path class="cls-46" d="M222.25,87.68s9.32-8,10.72-9.38C233,78.3,230.62,83.06,222.25,87.68Z"/><path class="cls-46" d="M230.72,88S238.5,80.63,241,76.1C241,76.1,239.42,82.78,230.72,88Z"/><path class="cls-46" d="M245.09,78.06s9.24-.37,18.13,13.66c0,0-3.61-7.44-7.33-10.55S247.13,77.46,245.09,78.06Z"/><path class="cls-46" d="M245.7,83.75a32.47,32.47,0,0,0,11.24,5.73S248.66,89.29,245.7,83.75Z"/><path class="cls-46" d="M253.46,90.91s9.16,4.6,11.81,8.23C265.27,99.14,262.92,93.58,253.46,90.91Z"/><path class="cls-46" d="M251.19,93a36.52,36.52,0,0,1,10.7,14.14S259.83,96.44,251.19,93Z"/><path class="cls-46" d="M260.31,97.87s3.54,5.16,3.73,10.67C264,108.55,266.16,103.79,260.31,97.87Z"/><path class="cls-46" d="M252.21,97.8a15.64,15.64,0,0,1,8.37,6A55,55,0,0,0,252.21,97.8Z"/><path class="cls-46" d="M249.45,98.94A36.38,36.38,0,0,1,261,109.46S253,101.75,249.45,98.94Z"/><path class="cls-46" d="M250.55,104.5s4.15,2.5,5.31,3.84a17.1,17.1,0,0,1,2.8,4.5A65,65,0,0,0,250.55,104.5Z"/><path class="cls-44" d="M227.67,106.64s10.64-1.42,14-1.07c1.83,0.19,4.25,3.64,4.25,3.64s-6.94-2.7-21.88.58Z"/><path class="cls-44" d="M207.53,107.84s-6.89-.28-7.69.1c-1.41.65-1.93,3.58-1.93,3.58s3.65-2.15,12.69-1.27Z"/><path class="cls-47" d="M243.77,116.95a6.26,6.26,0,0,1-5.57-2.28,5.27,5.27,0,0,0-8.74,3.4s0.08-7.06,6.35-7.55C241.5,110.07,243.93,114.45,243.77,116.95Z"/><path class="cls-47" d="M200.51,118.83c1.5,0.33,1.57-.38,3-2.61s5.72-2.74,7.16,2.28c0,0,.29-6.69-5.22-6.5C200.28,112.17,200.51,118.83,200.51,118.83Z"/><path class="cls-32" d="M243.77,116.95a6.43,6.43,0,0,1-5.57-2.28,5.27,5.27,0,0,0-8.74,3.4s0.44,1.43,1.49,1.48,8.78,0.08,10.48-.56A4.37,4.37,0,0,0,243.77,116.95Z"/><g class="cls-48"><path class="cls-49" d="M239.45,116.58a3.13,3.13,0,1,1-3.16-3.1A3.11,3.11,0,0,1,239.45,116.58Z"/><ellipse class="cls-32" cx="237.25" cy="116.75" rx="0.46" ry="0.49" transform="translate(-1.07 2.2) rotate(-0.53)"/></g><path class="cls-3" d="M228.93,118a5.73,5.73,0,0,1,5.56-5.15h0a5.46,5.46,0,0,1,4.09,1.48h0c1.74,1.81,3,2.61,4.5,2.57l0.64-.05,0.11,0.66c-0.24,0-.49,0-0.73.06h0c-1.72.07-3.44-.54-5.29-2.5h0a4.43,4.43,0,0,0-3.28-1.15h0a4.94,4.94,0,0,0-4.85,4.28l-0.75-.19h0Z"/><path class="cls-32" d="M200.51,118.83c1.5,0.33,1.57-.38,3-2.61s5.72-2.74,7.16,2.28c0,0-.22,1.38-1.13,1.56s-5.57.78-6.61,0.42A9.28,9.28,0,0,1,200.51,118.83Z"/><g class="cls-50"><path class="cls-49" d="M204.86,118a2.68,2.68,0,0,0,2.91,2.46,2.73,2.73,0,0,0,2.27-3.09,2.68,2.68,0,0,0-2.91-2.46A2.73,2.73,0,0,0,204.86,118Z"/><ellipse class="cls-32" cx="209.02" cy="117.98" rx="0.38" ry="0.44" transform="translate(-12.46 25.47) rotate(-6.77)"/></g><path class="cls-3" d="M200.39,119.35h0l0-.63a2.21,2.21,0,0,0,.62,0,1.52,1.52,0,0,0,.75-0.77h0c0.29-.38.66-1.06,1.26-2h0a4.18,4.18,0,0,1,3.34-1.87h0c1.89-.08,3.92,1.22,4.77,4.28h0l-0.82.29c-0.81-2.74-2.54-3.53-3.91-3.5h0A3.12,3.12,0,0,0,204,116.5h0c-0.59.91-.94,1.57-1.3,2.06h0a1.86,1.86,0,0,1-1.44.87h0A6.44,6.44,0,0,1,200.39,119.35Z"/><path class="cls-51" d="M241.66,100.27a16.75,16.75,0,0,0-4.26-1.53c-2.18-.41-7.54.74-13.58,3.11a19.2,19.2,0,0,1-13.3.7c-2.67-.87-7.2.13-7.2,0.13s5,0.31,7.45,1.32,9.53,0.38,11.69-.25,9-3.81,11.68-4.06S239.65,99.32,241.66,100.27Z"/><path class="cls-51" d="M219.9,95.75c-4.94,2.81-8.15.28-8.15,0.28a4.27,4.27,0,0,0,3.87,1.87A7.44,7.44,0,0,0,219.9,95.75Z"/><path class="cls-51" d="M229.33,146.81c-7.49,3.94-12.32,1.27-12.32,1.27s2.53,3.11,5.08,3A8.16,8.16,0,0,0,229.33,146.81Z"/><path class="cls-51" d="M252.16,121.11c-1.36-3.23-7.82-2.6-7.82-2.6l2,1.15-2.39-.12s4.07,2,4.44,4.85a15.78,15.78,0,0,0-1.17-4.35A11.53,11.53,0,0,1,252.16,121.11Z"/><path class="cls-51" d="M214.65,130.93c0.19-2.23,1.17-7.33,1.17-7.33a32.92,32.92,0,0,0-2.64,5.79c-0.22.16-.46,0.35-0.69,0.55-0.86.74-2.21,2.92-1.56,3.79s3.41,1.13,3.56,1.14c0.76,0.72,1.53,1.2,1.78,1.43C216.26,136.3,214.46,133.16,214.65,130.93Z"/><path class="cls-51" d="M230.19,130a12,12,0,0,0,6.38,2.54s3.52,3.71,2.75,7.12a18.45,18.45,0,0,0-3.73-4.85C233.84,133.33,230.19,130,230.19,130Z"/><path class="cls-51" d="M209.9,132.43s-2.24,4.61-2.15,7.19c0,0-.94-0.71-0.3-5.65Z"/><path class="cls-51" d="M201,119.78a12.5,12.5,0,0,0-1,2.37S199.23,120.12,201,119.78Z"/><path class="cls-52" d="M216.83,147.79s2,1.88,10.28,0c0,0-.44,1.3-4.65,1.66C219.39,149.74,217.66,148.85,216.83,147.79Z"/><path class="cls-52" d="M231.49,142.79a7.66,7.66,0,0,1-2.94.94c-3.59.52-6.18-.05-8.84,0-2.43.05-4.9,0.88-5.44,0.65-1.21-.51-0.89-0.75-0.9-0.76a0.87,0.87,0,0,0-.88-0.08c-0.23.13-.2,0.39,0.05,0.57a8.39,8.39,0,0,0,1.79.91c0.59,0.25,3.26-.71,5.39-0.76,3.3-.08,6.8.31,8.67,0,2.68-.43,3.84-1,4.26-1.45a0.35,0.35,0,0,0-.29-0.59A1.07,1.07,0,0,0,231.49,142.79Z"/><path class="cls-53" d="M231.27,112.82a6.15,6.15,0,0,1,4.54-2.31c4.27-.33,6.71,2,7.59,4.31"/><path class="cls-54" d="M209.21,113.54a4.4,4.4,0,0,0-3.76-1.55c-3.08.11-4.25,2.52-4.68,4.45"/><path class="cls-54" d="M203.33,102.69s4.53-1,7.2-.13a19.2,19.2,0,0,0,13.3-.7c6-2.37,11.4-3.52,13.58-3.11a16.75,16.75,0,0,1,4.26,1.53"/><path class="cls-54" d="M211.74,96s3.21,2.53,8.15-.28"/><path class="cls-54" d="M207.45,134s-0.7,3.25,0,5"/><path class="cls-54" d="M244.33,118.51s6.91-.51,7.82,2.6"/><path class="cls-54" d="M244,119.54s4.07,2,4.44,4.85"/><path class="cls-54" d="M244.33,118.51s6.91-.51,7.82,2.6"/><path class="cls-54" d="M248.4,124.39c-0.37-2.87-4.44-4.85-4.44-4.85"/><path class="cls-54" d="M200.06,121.32a3.86,3.86,0,0,1,.92-1.54"/><path class="cls-54" d="M210.92,130.24s-0.52,3.16-5.69,4.51"/><path class="cls-54" d="M240.85,132.34c-8.33.92-10.52-2.42-10.52-2.42"/><path class="cls-54" d="M236.17,132.33s3.07,2.86,3.18,6.09"/><path class="cls-54" d="M211.14,134s2,1.19,3.36.87"/><path class="cls-54" d="M213.37,133.56a19,19,0,0,1,2.62,2.79c0.57,1,3.11,1.6,4.43.56s2.46-1.79,2.46-1.79a8.84,8.84,0,0,0,2.14-.61"/><path class="cls-54" d="M212,140.58s-2,1.06-1.79,5.46"/><path class="cls-54" d="M233.37,139.65s2.11,1.09,2,4.61"/><path class="cls-55" d="M214.34,115.26s2.34-3.54,8.82-.61"/><path class="cls-55" d="M225.79,123.12c2.11,0.72,13,.51,15.94.07s4-1.54,4.23-3.07a48.25,48.25,0,0,0,.09-5.93,2,2,0,0,0-1.8-2c-2.63-.5-15,0-19.26.58a2.68,2.68,0,0,0-2.16,3c0,1,0,1.64.06,3.06A4.59,4.59,0,0,0,225.79,123.12Z"/><path class="cls-55" d="M212,123.69c-2,.85-9.69,1.08-12.6.77a3.32,3.32,0,0,1-2.81-2.65A51.8,51.8,0,0,1,196,116a2,2,0,0,1,1.4-1.9c2.6-.65,13.27-1.19,15.53-0.61a2.14,2.14,0,0,1,1.37,2,39.87,39.87,0,0,1,0,5.08A3.54,3.54,0,0,1,212,123.69Z"/><path class="cls-56" d="M258.74,113.17c-1.31-.25-12.84-0.56-12.84-0.56s0.06,2.79.07,3.32l1.42,0,0.57-.6,7.68,0.11A9.75,9.75,0,0,1,258.74,113.17Z"/><path class="cls-57" d="M183,300.25c2.65-.27,36.5-8.61,38.55-9.23s3.28-1.12,3.28-2.55v-1.33c0-1.64-.41-1.64-2.46-1.85s-80.79-3.19-80.79-3.19-47.18,6.82-48.35,7.49a1.73,1.73,0,0,0,.57,3.07C95.22,293.06,180.92,300.45,183,300.25Z"/><path class="cls-58" d="M185.44,295.75a19.73,19.73,0,0,1-5.54.21c-2.89-.28-71.7-5.53-85.73-6.61a5.61,5.61,0,0,0-1,.24,1.73,1.73,0,0,0,.57,3.08c1.45,0.4,87.15,7.79,89.2,7.59,2.65-.27,36.5-8.61,38.55-9.23s3.28-1.12,3.28-2.55v-1.33a5.44,5.44,0,0,0,0-.55C217.25,288.32,186.69,295.39,185.44,295.75Z"/><path class="cls-59" d="M223.58,286.93s-36.71,8.41-38.14,8.82a17,17,0,0,1-5.54.21"/><polygon class="cls-60" points="108.37 293.38 103.6 293.02 103.58 291.13 108.36 291.49 108.37 293.38"/><line class="cls-61" x1="107.61" y1="291.93" x2="104.2" y2="291.67"/><line class="cls-61" x1="107.61" y1="291.4" x2="107.62" y2="293.28"/><line class="cls-61" x1="107.04" y1="291.36" x2="107.06" y2="293.24"/><line class="cls-61" x1="106.47" y1="291.32" x2="106.49" y2="293.2"/><line class="cls-61" x1="105.9" y1="291.27" x2="105.92" y2="293.16"/><line class="cls-61" x1="105.33" y1="291.23" x2="105.35" y2="293.12"/><line class="cls-61" x1="104.77" y1="291.19" x2="104.78" y2="293.07"/><line class="cls-61" x1="104.2" y1="291.15" x2="104.21" y2="293.03"/><line class="cls-61" x1="107.62" y1="292.68" x2="104.21" y2="292.43"/><polygon class="cls-60" points="113.94 293.87 109.17 293.51 109.16 291.63 113.93 291.98 113.94 293.87"/><line class="cls-61" x1="113.18" y1="292.42" x2="109.77" y2="292.17"/><line class="cls-61" x1="113.18" y1="291.89" x2="113.19" y2="293.78"/><line class="cls-61" x1="112.61" y1="291.85" x2="112.63" y2="293.74"/><line class="cls-61" x1="112.04" y1="291.81" x2="112.06" y2="293.69"/><line class="cls-61" x1="111.47" y1="291.77" x2="111.49" y2="293.65"/><line class="cls-61" x1="110.91" y1="291.72" x2="110.92" y2="293.61"/><line class="cls-61" x1="110.34" y1="291.68" x2="110.35" y2="293.57"/><line class="cls-61" x1="109.77" y1="291.64" x2="109.79" y2="293.52"/><line class="cls-61" x1="113.19" y1="293.17" x2="109.78" y2="292.92"/><ellipse class="cls-62" cx="94.63" cy="291.06" rx="0.95" ry="0.99"/><ellipse class="cls-3" cx="94.59" cy="291.02" rx="0.32" ry="0.36"/><ellipse class="cls-63" cx="186.22" cy="297.45" rx="0.91" ry="1.02"/><ellipse class="cls-63" cx="186.26" cy="297.49" rx="0.95" ry="0.99"/><ellipse class="cls-3" cx="186.22" cy="297.45" rx="0.32" ry="0.36"/><polygon class="cls-64" points="117.12 292.56 117.09 292.22 115.36 292.08 115.36 292.43 114.81 292.42 114.81 293.93 117.67 294.21 117.67 292.61 117.12 292.56"/><polygon class="cls-3" points="116.91 292.87 116.91 292.65 115.56 292.52 115.56 292.74 115.15 292.74 115.15 293.67 117.33 293.88 117.33 292.91 116.91 292.87"/><polygon class="cls-3" points="116.75 292.94 116.75 292.78 115.73 292.68 115.73 292.85 115.42 292.85 115.42 293.55 117.06 293.71 117.06 292.98 116.75 292.94"/><polygon class="cls-64" points="120.45 292.89 120.42 292.55 118.68 292.41 118.68 292.76 118.14 292.75 118.14 294.26 120.99 294.54 120.99 292.94 120.45 292.89"/><polygon class="cls-3" points="120.24 293.2 120.24 292.98 118.89 292.85 118.89 293.06 118.47 293.06 118.47 294 120.65 294.21 120.65 293.24 120.24 293.2"/><polygon class="cls-3" points="120.07 293.27 120.07 293.11 119.06 293.01 119.06 293.17 118.74 293.18 118.74 293.88 120.38 294.04 120.38 293.3 120.07 293.27"/><polygon class="cls-64" points="157.61 295.87 157.58 295.53 155.84 295.39 155.84 295.74 155.3 295.72 155.3 297.24 158.15 297.51 158.15 295.92 157.61 295.87"/><polygon class="cls-3" points="157.4 296.17 157.4 295.95 156.05 295.82 156.05 296.04 155.64 296.04 155.64 296.97 157.81 297.19 157.81 296.21 157.4 296.17"/><polygon class="cls-3" points="157.23 296.25 157.23 296.08 156.21 295.99 156.21 296.15 155.9 296.16 155.9 296.85 157.54 297.01 157.54 296.28 157.23 296.25"/><polygon class="cls-64" points="160.93 296.19 160.9 295.85 159.16 295.71 159.16 296.07 158.62 296.05 158.62 297.56 161.47 297.84 161.47 296.24 160.93 296.19"/><polygon class="cls-3" points="160.72 296.5 160.72 296.28 159.37 296.15 159.37 296.37 158.96 296.37 158.96 297.3 161.13 297.51 161.13 296.54 160.72 296.5"/><polygon class="cls-3" points="160.56 296.58 160.56 296.41 159.54 296.31 159.54 296.48 159.22 296.49 159.22 297.18 160.87 297.34 160.87 296.61 160.56 296.58"/><line class="cls-59" x1="183.13" y1="299.27" x2="183.13" y2="296.37"/><line class="cls-59" x1="209.09" y1="287.66" x2="140.98" y2="283.89"/><line class="cls-59" x1="204.58" y1="288.61" x2="135.97" y2="284.53"/><line class="cls-59" x1="200.07" y1="289.57" x2="130.97" y2="285.17"/><line class="cls-59" x1="195.56" y1="290.53" x2="125.96" y2="285.81"/><line class="cls-59" x1="191.05" y1="291.49" x2="120.96" y2="286.45"/><line class="cls-59" x1="186.54" y1="292.45" x2="115.95" y2="287.09"/><line class="cls-59" x1="182.03" y1="293.4" x2="110.94" y2="287.73"/><line class="cls-59" x1="182.03" y1="293.4" x2="209.09" y2="287.66"/><line class="cls-59" x1="175.6" y1="292.89" x2="202.9" y2="287.31"/><line class="cls-59" x1="169.17" y1="292.37" x2="196.71" y2="286.97"/><line class="cls-59" x1="162.73" y1="291.86" x2="190.52" y2="286.63"/><line class="cls-59" x1="156.3" y1="291.34" x2="184.33" y2="286.29"/><line class="cls-59" x1="149.87" y1="290.82" x2="178.13" y2="285.95"/><line class="cls-59" x1="143.44" y1="290.31" x2="171.94" y2="285.6"/><line class="cls-59" x1="137.01" y1="289.79" x2="165.75" y2="285.26"/><line class="cls-59" x1="130.57" y1="289.28" x2="159.56" y2="284.92"/><line class="cls-59" x1="124.14" y1="288.76" x2="153.36" y2="284.58"/><line class="cls-59" x1="117.71" y1="288.25" x2="147.17" y2="284.23"/><line class="cls-59" x1="111.28" y1="287.73" x2="140.98" y2="283.89"/><path class="cls-65" d="M162.85,297.88a0.23,0.23,0,0,1-.23.23h0a0.23,0.23,0,0,1-.23-0.23v-2.3a0.23,0.23,0,0,1,.23-0.23h0a0.23,0.23,0,0,1,.23.23v2.3Z"/><path class="cls-65" d="M163.83,295.66V298a0.23,0.23,0,0,1-.23.23h0a0.23,0.23,0,0,1-.23-0.23v-2.3a0.23,0.23,0,0,1,.23-0.23h0A0.23,0.23,0,0,1,163.83,295.66Z"/><path class="cls-65" d="M164.82,295.73V298a0.23,0.23,0,0,1-.23.23h0a0.23,0.23,0,0,1-.23-0.23v-2.3a0.23,0.23,0,0,1,.23-0.23h0A0.23,0.23,0,0,1,164.82,295.73Z"/><path class="cls-65" d="M165.81,295.81v2.3a0.23,0.23,0,0,1-.23.23h0a0.23,0.23,0,0,1-.23-0.23v-2.3a0.23,0.23,0,0,1,.23-0.23h0A0.23,0.23,0,0,1,165.81,295.81Z"/><path class="cls-65" d="M166.8,295.88v2.3a0.23,0.23,0,0,1-.23.23h0a0.23,0.23,0,0,1-.23-0.23v-2.3a0.23,0.23,0,0,1,.23-0.23h0A0.23,0.23,0,0,1,166.8,295.88Z"/><path class="cls-65" d="M167.78,296v2.3a0.23,0.23,0,0,1-.23.23h0a0.23,0.23,0,0,1-.23-0.23V296a0.23,0.23,0,0,1,.23-0.23h0A0.23,0.23,0,0,1,167.78,296Z"/><path class="cls-65" d="M168.77,296v2.3a0.23,0.23,0,0,1-.23.23h0a0.23,0.23,0,0,1-.23-0.23V296a0.23,0.23,0,0,1,.23-0.23h0A0.23,0.23,0,0,1,168.77,296Z"/><path class="cls-65" d="M169.76,296.11v2.3a0.23,0.23,0,0,1-.23.23h0a0.23,0.23,0,0,1-.23-0.23v-2.3a0.23,0.23,0,0,1,.23-0.23h0A0.23,0.23,0,0,1,169.76,296.11Z"/><path class="cls-65" d="M170.75,296.18v2.3a0.23,0.23,0,0,1-.23.23h0a0.23,0.23,0,0,1-.23-0.23v-2.3a0.23,0.23,0,0,1,.23-0.23h0A0.23,0.23,0,0,1,170.75,296.18Z"/><path class="cls-65" d="M171.74,296.26v2.3a0.23,0.23,0,0,1-.23.23h0a0.23,0.23,0,0,1-.23-0.23v-2.3a0.23,0.23,0,0,1,.23-0.23h0A0.23,0.23,0,0,1,171.74,296.26Z"/><path class="cls-65" d="M172.72,296.33v2.3a0.23,0.23,0,0,1-.23.23h0a0.23,0.23,0,0,1-.23-0.23v-2.3a0.23,0.23,0,0,1,.23-0.23h0A0.23,0.23,0,0,1,172.72,296.33Z"/><path class="cls-65" d="M173.71,296.41v2.3a0.23,0.23,0,0,1-.23.23h0a0.23,0.23,0,0,1-.23-0.23v-2.3a0.23,0.23,0,0,1,.23-0.23h0A0.23,0.23,0,0,1,173.71,296.41Z"/><path class="cls-65" d="M174.7,296.48v2.3a0.23,0.23,0,0,1-.23.23h0a0.23,0.23,0,0,1-.23-0.23v-2.3a0.23,0.23,0,0,1,.23-0.23h0A0.23,0.23,0,0,1,174.7,296.48Z"/><path class="cls-65" d="M175.69,296.56v2.3a0.23,0.23,0,0,1-.23.23h0a0.23,0.23,0,0,1-.23-0.23v-2.3a0.23,0.23,0,0,1,.23-0.23h0A0.23,0.23,0,0,1,175.69,296.56Z"/><path class="cls-65" d="M176.67,296.63v2.3a0.23,0.23,0,0,1-.23.23h0a0.23,0.23,0,0,1-.23-0.23v-2.3a0.23,0.23,0,0,1,.23-0.23h0A0.23,0.23,0,0,1,176.67,296.63Z"/><path class="cls-65" d="M177.66,296.71V299a0.23,0.23,0,0,1-.23.23h0a0.23,0.23,0,0,1-.23-0.23v-2.3a0.23,0.23,0,0,1,.23-0.23h0A0.23,0.23,0,0,1,177.66,296.71Z"/><path class="cls-65" d="M178.65,299.08a0.23,0.23,0,0,1-.23.23h0a0.23,0.23,0,0,1-.23-0.23v-2.3a0.23,0.23,0,0,1,.23-0.23h0a0.23,0.23,0,0,1,.23.23v2.3Z"/><path class="cls-65" d="M188.76,297.78a0.23,0.23,0,0,1-.23.23h0a0.23,0.23,0,0,1-.23-0.23v-1.84a0.23,0.23,0,0,1,.23-0.23h0a0.23,0.23,0,0,1,.23.23v1.84Z"/><path class="cls-65" d="M189.75,295.7v1.84a0.23,0.23,0,0,1-.23.23h0a0.23,0.23,0,0,1-.23-0.23V295.7a0.23,0.23,0,0,1,.23-0.23h0A0.23,0.23,0,0,1,189.75,295.7Z"/><path class="cls-65" d="M190.73,295.47v1.84a0.23,0.23,0,0,1-.23.23h0a0.23,0.23,0,0,1-.23-0.23v-1.84a0.23,0.23,0,0,1,.23-0.23h0A0.23,0.23,0,0,1,190.73,295.47Z"/><path class="cls-65" d="M191.72,295.24v1.84a0.23,0.23,0,0,1-.23.23h0a0.23,0.23,0,0,1-.23-0.23v-1.84a0.23,0.23,0,0,1,.23-0.23h0A0.23,0.23,0,0,1,191.72,295.24Z"/><path class="cls-65" d="M192.71,295v1.84a0.23,0.23,0,0,1-.23.23h0a0.23,0.23,0,0,1-.23-0.23V295a0.23,0.23,0,0,1,.23-0.23h0A0.23,0.23,0,0,1,192.71,295Z"/><path class="cls-65" d="M193.7,294.78v1.84a0.23,0.23,0,0,1-.23.23h0a0.23,0.23,0,0,1-.23-0.23v-1.84a0.23,0.23,0,0,1,.23-0.23h0A0.23,0.23,0,0,1,193.7,294.78Z"/><path class="cls-65" d="M194.69,294.55v1.84a0.23,0.23,0,0,1-.23.23h0a0.23,0.23,0,0,1-.23-0.23v-1.84a0.23,0.23,0,0,1,.23-0.23h0A0.23,0.23,0,0,1,194.69,294.55Z"/><path class="cls-65" d="M195.67,294.32v1.84a0.23,0.23,0,0,1-.23.23h0a0.23,0.23,0,0,1-.23-0.23v-1.84a0.23,0.23,0,0,1,.23-0.23h0A0.23,0.23,0,0,1,195.67,294.32Z"/><path class="cls-65" d="M196.66,294.09v1.84a0.23,0.23,0,0,1-.23.23h0a0.23,0.23,0,0,1-.23-0.23v-1.84a0.23,0.23,0,0,1,.23-0.23h0A0.23,0.23,0,0,1,196.66,294.09Z"/><path class="cls-65" d="M197.65,293.86v1.84a0.23,0.23,0,0,1-.23.23h0a0.23,0.23,0,0,1-.23-0.23v-1.84a0.23,0.23,0,0,1,.23-0.23h0A0.23,0.23,0,0,1,197.65,293.86Z"/><path class="cls-65" d="M198.64,293.63v1.84a0.23,0.23,0,0,1-.23.23h0a0.23,0.23,0,0,1-.23-0.23v-1.84a0.23,0.23,0,0,1,.23-0.23h0A0.23,0.23,0,0,1,198.64,293.63Z"/><path class="cls-65" d="M199.63,293.4v1.84a0.23,0.23,0,0,1-.23.23h0a0.23,0.23,0,0,1-.23-0.23V293.4a0.23,0.23,0,0,1,.23-0.23h0A0.23,0.23,0,0,1,199.63,293.4Z"/><path class="cls-65" d="M200.61,293.17V295a0.23,0.23,0,0,1-.23.23h0a0.23,0.23,0,0,1-.23-0.23v-1.84a0.23,0.23,0,0,1,.23-0.23h0A0.23,0.23,0,0,1,200.61,293.17Z"/><path class="cls-65" d="M201.6,292.94v1.84a0.23,0.23,0,0,1-.23.23h0a0.23,0.23,0,0,1-.23-0.23v-1.84a0.23,0.23,0,0,1,.23-0.23h0A0.23,0.23,0,0,1,201.6,292.94Z"/><path class="cls-65" d="M202.59,292.71v1.84a0.23,0.23,0,0,1-.23.23h0a0.23,0.23,0,0,1-.23-0.23v-1.84a0.23,0.23,0,0,1,.23-0.23h0A0.23,0.23,0,0,1,202.59,292.71Z"/><path class="cls-65" d="M203.58,292.48v1.84a0.23,0.23,0,0,1-.23.23h0a0.23,0.23,0,0,1-.23-0.23v-1.84a0.23,0.23,0,0,1,.23-0.23h0A0.23,0.23,0,0,1,203.58,292.48Z"/><path class="cls-65" d="M204.56,294.09a0.23,0.23,0,0,1-.23.23h0a0.23,0.23,0,0,1-.23-0.23v-1.84a0.23,0.23,0,0,1,.23-0.23h0a0.23,0.23,0,0,1,.23.23v1.84Z"/><line class="cls-59" x1="205.79" y1="292.84" x2="223.46" y2="288.62"/><path class="cls-66" d="M226.29,267.27c-2.65.41-7.63,6.42-2.81,15.26,3.72,6.82,14.11,5.83,16.46,4.82l8-3.61-10.84-17.66Z"/><path class="cls-67" d="M232.68,283.7s44-1.29,52.11-1.94,15.65-2.52,16.16-8.7c0.68-8.19-10.17-9.72-18.23-9.46s-54.41,5.91-60.48,5.29c-2.65-.27-22.53-3.81-22.53-3.81-1.32-.29-2,0.26-3.44,1-2,1-9.74,2.26-12.84,3.53-2,.8-7.35,8.52-9,10.16s1.83,3,4,2,7.68-7,7.68-7l9-3.14-11,5.47s-8.15,7.47-9.47,8.77,2.62,4.38,6.31,1.43c2-1.64,6.49-5.36,6.49-5.36l11.64-6-8.8,4.31s-5.85,6.41-6.77,8.51,2.94,3.3,5.9.62a61.34,61.34,0,0,0,5.22-5.5l8.19-4.1-4.76,3a29.62,29.62,0,0,0-5.13,5c-1.47,2.21,1,3.68,4.38,1.3a44.81,44.81,0,0,0,3.81-3.39l7.62-2.26s2.12,0.42,3.55.76c2.36,0.56,6,2.74,8.3,2.77S230.21,285.81,232.68,283.7Z"/><path class="cls-68" d="M198.12,268.22a12.6,12.6,0,0,1-.93,1.6,21.51,21.51,0,0,1-2.14,1.73"/><path class="cls-68" d="M200.75,274.11A15.71,15.71,0,0,1,199,275.9"/><path class="cls-68" d="M204.26,277.72a8.83,8.83,0,0,1-1.49,2"/><path class="cls-24" d="M305.41,268.68l0.16-34.79a22.37,22.37,0,0,0,1-4c0-.83-0.39-2.68-0.49-4.54s0.46-16.37-.28-22.55-3.94-23.22-10-24.35c-2.32-.43-7,3.19-10.5,8-6.4,8.71-13.54,33.55-14,36.68s0.81,5.06,1.94,6.86-0.05,2.73-.41,3.78,2.29,3.65,2.37,5.1,0,16.59,0,16.59-1.6,2.71-.93,3.2c0,0-2-1.84-2.86-.82a5,5,0,0,1-1.84,1.43l-43.36,8c12-2.41,20.18,15.18,13.65,20.07,12.45-1.61,43.36-2.81,53.8-5.62C299.31,280.23,305.42,273.64,305.41,268.68Z"/><polyline class="cls-25" points="276.07 257.64 278.48 256.84 284.9 261.65"/><path class="cls-25" d="M278.48,258.84s8.43,3.61,10.84,4,4.42,3.61,4.42,3.61"/><path class="cls-69" d="M149.54,228.16c-3.3,0-88-3.9-89.84-3.9s-2.46,1.85-.62,4.92,29.12,57,29.94,58.44,2.05,1.44,4.1,1.85,83.93,7.39,85.58,7.39c2,0,2.76-1.26,2.15-2.91s-26.42-61.7-27.24-63.14S152,228.16,149.54,228.16Z"/><path class="cls-70" d="M152.46,229.21a3.85,3.85,0,0,0-2.93-1c-3.3,0-88-3.9-89.84-3.9s-2.46,1.85-.62,4.92c1.35,2.25,16.26,31.62,24.52,47.86,11.55-7.71,23.35-11,37-15.58C136.84,256,144.81,242.58,152.46,229.21Z"/><path class="cls-71" d="M179.7,296.73s-27.52-63.24-27.93-64.26-1-1.35-2.37-1.66c-1.73-.39-91.39-4.28-91.39-4.28-0.22-1.44.47-2.26,1.69-2.26,1.84,0,86.54,3.9,89.84,3.9,2.47,0,3.26,1.23,4.08,2.67s26.62,61.5,27.24,63.14C181.38,295.37,180.89,296.42,179.7,296.73Z"/><path class="cls-59" d="M179.47,296.23s-27.29-62.74-27.7-63.76-1-1.35-2.37-1.66c-1.73-.39-91.13-4.27-91.13-4.27"/><line class="cls-59" x1="151.77" y1="229.8" x2="150.74" y2="231.24"/></svg>