<svg xmlns="http://www.w3.org/2000/svg" viewBox="0 0 370 340"><defs><style>.cls-1{isolation:isolate;}.cls-2{fill:#cecbcb;}.cls-3,.cls-5{fill:none;}.cls-3{stroke:#cecbcb;}.cls-3,.cls-4{stroke-miterlimit:10;}.cls-4{fill:#f2f2f2;stroke:#e6e6e6;mix-blend-mode:darken;}.cls-5{stroke:#ce202e;stroke-linecap:round;stroke-linejoin:round;stroke-width:5px;}</style></defs><title>Image_uslugi</title><g class="cls-1"><g id="_1" data-name="1"><path class="cls-2" d="M368.5,1.5v337H1.5V1.5h367m1-1H0.5v339h369V0.5h0Z"/><line class="cls-3" x1="0.5" y1="283" x2="369.5" y2="283"/><line class="cls-3" x1="0.5" y1="226.5" x2="369.5" y2="226.5"/><line class="cls-3" x1="0.5" y1="170" x2="369.5" y2="170"/><line class="cls-3" x1="0.5" y1="113.5" x2="369.5" y2="113.5"/><line class="cls-3" x1="0.5" y1="57" x2="369.5" y2="57"/><line class="cls-3" x1="308" y1="0.5" x2="308" y2="339.5"/><line class="cls-3" x1="246.5" y1="0.5" x2="246.5" y2="339.5"/><line class="cls-3" x1="185" y1="0.5" x2="185" y2="339.5"/><line class="cls-3" x1="123.5" y1="0.5" x2="123.5" y2="339.5"/><line class="cls-3" x1="62" y1="0.5" x2="62" y2="339.5"/><path class="cls-4" d="M262.13,28.37c-40.68-3-72.88,22.41-77.59,23.35-5.17,1,3,6-27.11-15.82s-69.29-3-69.29-3C14.32,69,25.62,137.59,25.62,137.59c6,82.09,152.14,173.22,152.14,173.22s6,4.52,9,3.76,3,5.28,80.59-60.24,77.57-122,77.57-122C346.48,42.68,288.21,30.3,262.13,28.37Z"/><polyline class="cls-5" points="2.5 214.24 53.3 214.24 67.41 195.46 92.81 195.46 110.21 212.83 147.37 212.83 173.01 238.41 198.17 101.59 198.17 214.24 257.44 214.24 286.13 185.61 312 211.42 367.5 211.42"/></g></g></svg>