<svg xmlns="http://www.w3.org/2000/svg" viewBox="0 0 372 340"><defs><style>.cls-1{isolation:isolate;}.cls-2{mix-blend-mode:multiply;}.cls-3,.cls-7{fill:#ccc;}.cls-3,.cls-8,.cls-9{stroke:#ccc;}.cls-13,.cls-3,.cls-8,.cls-9{stroke-miterlimit:10;}.cls-4{fill:#fff;}.cls-5{fill:#666;}.cls-6{fill:gray;}.cls-8{fill:#f2f2f2;}.cls-13,.cls-9{fill:#e6e6e6;}.cls-10{fill:#b3b3b3;}.cls-11{fill:#ce202e;}.cls-12{fill:#999;}.cls-13{stroke:#b3b3b3;stroke-width:3px;}</style></defs><title>Image_uslugi</title><g class="cls-1"><g id="_1" data-name="1"><g class="cls-2"><path class="cls-3" d="M84.76,166.17c0.92-2.68.64-5-1.51-7.08A14.25,14.25,0,0,1,81,155.82c-3.29-5.79-2-14.36,2.7-18.35,5.68-4.81,17-4.09,22,1.46,2,2.2,3.14,4.87,2.42,7.76a5.83,5.83,0,0,0,1.15,5.67,5.73,5.73,0,0,1,1.08,6.49c-0.47,1.15-.73,2.39-1.17,3.56-1.77,4.78-3.21,5.86-8.22,5.44-2-.16-2.7.45-2.89,2.25a5.42,5.42,0,0,1-.6,2.25A3.4,3.4,0,0,1,95.63,174a22,22,0,0,1-12.55-2.35C83.67,169.73,84.16,167.93,84.76,166.17Zm9.9-13.25c3.29,2.2,3.5,3.26,1.3,6.61-1.71,2.61-1.49,3.75,1.17,5.53a8.6,8.6,0,0,0,7.87.81,3.3,3.3,0,0,0,1.74-1.74,55.32,55.32,0,0,0,2.56-7.53c0.22-.92-0.53-2.08-0.86-3.22-1.18.38-1.9,0.66-2.65,0.84-3.3.77-6.43,1-9.22-1.63a12,12,0,0,0-4.24-2.4c-2.37-.82-4.08,1-3.47,3.87C91.58,151,91.77,151,94.65,152.92Z"/><path class="cls-4" d="M88.86,154.07c2.72-3,2.91-3.07,5.79-1.15,3.29,2.2,3.5,3.26,1.3,6.61-1.71,2.61-1.49,3.75,1.17,5.53a8.6,8.6,0,0,0,7.87.81,3.3,3.3,0,0,0,1.74-1.74,55.32,55.32,0,0,0,2.56-7.53c0.22-.92-0.53-2.08-0.86-3.22-1.18.38-1.9,0.66-2.65,0.84-3.3.77-6.43,1-9.22-1.63a12,12,0,0,0-4.24-2.4C90,149.38,88.25,151.23,88.86,154.07Z"/><path class="cls-5" d="M100.61,293.18c-1.09,5.68-3.7,8.42-8.07,8.59-4.79.19-7.44-2.27-9.14-8.59H57.14a1.6,1.6,0,0,0-.23.51c0.25,6.57-1.79,5.58-6.14,5.57H38.37c-3.55,0-4.18-.61-4.26-4.09,0-.62-0.08-1.24-0.14-2.13H29.41c-1.69,0-2.88-.87-2.91-2.52-0.1-6,0-12,0-18,31.58,0,62.94.09,94.3,0,12.69-.05,24.58-3.54,35.81-9.43a8.14,8.14,0,0,1,3.58-.91c9.22-.08,18.43-0.05,27.65,0,3.72,0,4.47.76,4.47,4.46q0,11,0,21.93c0,3.92-.58,4.5-4.56,4.54H185a2.36,2.36,0,0,0-.35.61c-0.32,5.6-.32,5.6-5.92,5.61h-12.4c-4,0-4.44-.47-4.52-4.53,0-.47-0.06-0.93-0.1-1.56H100.61Z"/><path class="cls-6" d="M77,271.25c-15.9,0-31.79,0-47.69,0A9,9,0,0,1,20,262.11a9.11,9.11,0,0,1,9.19-9.5q42.21-.07,84.42,0a3.27,3.27,0,0,1,1.77.47c5.06,3.5,10.42,3.22,15.65.83,11.8-5.4,23.18-11.55,32.79-20.45a106.88,106.88,0,0,0,21.39-27.55c2.84-5.22,8.07-7,13.09-4.42,4.65,2.39,6.25,8.06,3.43,13.16C190.4,235.12,175.35,252,154.27,262.8a74.82,74.82,0,0,1-34.85,8.45c-14.15,0-28.29,0-42.44,0h0Z"/><path class="cls-7" d="M102.54,233.52c0.22,5.95,1.82,7.9,7.52,8.78,19.07,3,34.48-3.48,46.46-18.42a6.7,6.7,0,0,0-1.16-9.89c-2.94-2.22-6.85-1.49-9.38,1.84-5.79,7.63-13.36,12.23-23.54,13.88,1-.74,1.5-1.06,1.95-1.42,6.67-5.26,13.3-10.56,20-15.76a22.79,22.79,0,0,1,5.65-3.42c7.6-2.88,13.6,1.13,14.15,9.24a16.31,16.31,0,0,1-3.78,11.72,72.4,72.4,0,0,1-31.13,22.45c-4.76,1.79-9.46,1.84-13.72-1.67a4.84,4.84,0,0,0-2.87-.66c-21.22,0-42.45,0-63.67-.12a12,12,0,0,1-6.34-2,7.66,7.66,0,0,1-2.48-9,8.19,8.19,0,0,1,7.85-5.53c10.16,0,20.33.11,30.49,0.12,7.07,0,14.14-.09,21.22-0.13h2.77Z"/><path class="cls-8" d="M98.07,197c-3.31-2.77-5.17-6.48-6.68-10.43a6.74,6.74,0,0,0-7-4.6,6.43,6.43,0,0,0-5.78,5.74,8.7,8.7,0,0,0,.54,3.69A39.37,39.37,0,0,0,89.9,207.76a3.88,3.88,0,0,1,1.21,2.54c-0.07,7-.28,14-0.46,21.27H77.79c-2,0-4-.13-5.91,0-1.62.14-2.71-.47-3.09-1.91a67.85,67.85,0,0,1-2.2-9.91A71.36,71.36,0,0,1,71,187.06c2.17-5.8,6-9.83,12.32-11.07,4.5-.89,8.3.63,10.07,4.8,2.18,5.13,3.74,10.53,5.57,15.81Z"/><path class="cls-9" d="M184.69,195.27A15,15,0,1,1,170.43,180,15,15,0,0,1,184.69,195.27Z"/><path class="cls-7" d="M113.12,215c-16.5.18-28.45-10.72-33.13-24.81a5.27,5.27,0,0,1,3.39-6.71A5.41,5.41,0,0,1,90.22,187c3,8,7.87,14.12,16.4,16.58,4.63,1.34,9.27.73,13.86-.38,1.54-.37,3-0.94,4.56-1.37a5.27,5.27,0,0,1,6.68,3.36,5.19,5.19,0,0,1-3.24,6.75A44.3,44.3,0,0,1,113.12,215Z"/><path class="cls-10" d="M118.06,242c-3-.41-6.41-0.76-9.76-1.38a5.12,5.12,0,0,1-4.37-6,5.28,5.28,0,0,1,6-4.45c2.6,0.23,5.19.83,7.79,0.89,12.18,0.24,21.74-4.95,29.16-14.41,2.75-3.51,6.9-3.61,9.14-.18,1.44,2.21,1.11,4.39-.41,6.42-7.26,9.67-16.72,15.91-28.65,18.17C124.18,241.57,121.31,241.67,118.06,242Z"/><path class="cls-8" d="M94.51,231c-0.43-5.15-1.59-14.54,0-19.35a33.3,33.3,0,0,1,5.81,2.6c0.69,0.47,5.16,15.1,4.79,16C103.15,232.3,99.43,231,94.51,231Z"/><path d="M130.27,212.77l2.86-3.52a55.81,55.81,0,0,1,3.58,6.07,3.31,3.31,0,0,1-.68,3c-1.06,1-2.22.2-2.93-.93C132.13,215.86,131.21,214.3,130.27,212.77Z"/><path class="cls-11" d="M123,197.5a1.5,1.5,0,0,1-1.49-1.35,20.41,20.41,0,0,0-.92-3.48c-1.61-5-4-12.68,1.65-20.7,14.77-20.79,31-19,48.13-17.19h0.13c11.17,1.21,18.83,11.12,26.23,20.71,7.68,9.95,14.94,19.34,25,17a1.5,1.5,0,0,1,.69,2.92c-11.91,2.81-20.11-7.8-28-18.06-7-9.09-14.28-18.49-24.18-19.56h-0.13c-17-1.84-31.61-3.42-45.36,15.94-4.83,6.81-2.76,13.31-1.24,18.05a21.83,21.83,0,0,1,1.05,4.09,1.5,1.5,0,0,1-1.34,1.64H123Z"/><path d="M120.63,195.08a11.61,11.61,0,0,0,.89,5c0.23,0.52,2,.51,3.1.47a29.77,29.77,0,0,0,3.9-.66c-1.09-1.74-1.93-3.35-3-4.78a10.35,10.35,0,0,1-.62-0.94l-4.22.6C120.65,194.87,120.63,195,120.63,195.08Z"/><rect class="cls-12" x="222.07" y="186.36" width="20.05" height="110.92"/><rect class="cls-13" x="220.33" y="39.72" width="128.17" height="120.16" rx="11.7" ry="11.7"/><rect class="cls-12" x="241.25" y="225.73" width="73.75" height="9.31"/><path class="cls-11" d="M224.4,154.19c0.19-1.76.35-3,.53-4.8a55.25,55.25,0,0,1,4.75-18.24,19.57,19.57,0,0,1,7.79-9,15.68,15.68,0,0,1,10.23-1.69c5.69,0.78,11.35,1.83,17.12,1.93a33.47,33.47,0,0,0,13.71-2.25,20.88,20.88,0,0,0,11.83-12.81,45.57,45.57,0,0,0,2.58-13.5,12.58,12.58,0,0,0-3.24-8.72,30.29,30.29,0,0,0-8.09-6.54c-2.63-1.57-5.15-3.26-6.71-6a25.69,25.69,0,0,1-2.73-7.87c-1.46-7.53-1.54-15.14-1.5-22.77a1,1,0,0,1,.55-0.73c4.54,0,9.07,0,13.69,0,0,0.34,0,.61,0,0.88,0.19,4.31.24,8.63,0.63,12.93a25,25,0,0,0,2.52,9.21c2,4,5.36,4.94,9.21,2.45A54.83,54.83,0,0,1,307,61.13a20.2,20.2,0,0,1,14-.63,28.37,28.37,0,0,1,9.71,5.84,38.58,38.58,0,0,1,8.62,10.31,31.45,31.45,0,0,1,3.81,10.9q0.3,2,.6,4v5.34c-0.23,1.63-.42,3.26-0.68,4.89a82.54,82.54,0,0,1-5.8,19.16,55.77,55.77,0,0,1-8.87,14.67,47.86,47.86,0,0,1-14.68,11.9,38.26,38.26,0,0,1-16.45,4.26c-9.25.28-17.75-2.41-25.7-6.89-3.72-2.09-7.23-4.56-10.79-6.94a26.69,26.69,0,0,0-8.18-4.16A8.24,8.24,0,0,0,245,135.1a12,12,0,0,0-3.59,4.95,42.44,42.44,0,0,0-2.81,13.35c-0.13,1.53-.22,3.31-0.34,4.9l-1.63,0c-4.19,0-6.56-.16-7.92-0.73C227.91,157.19,224.4,155.33,224.4,154.19Z"/><rect class="cls-12" x="275.53" y="161.39" width="6.71" height="64.38"/></g></g></g></svg>