<svg xmlns="http://www.w3.org/2000/svg" viewBox="0 0 370 337"><defs><style>.cls-1{isolation:isolate;}.cls-2{mix-blend-mode:multiply;}.cls-3,.cls-4{fill:#ce202e;}.cls-4{stroke:#323230;stroke-width:0.04px;}</style></defs><title>Image_uslugi</title><g class="cls-1"><g id="_1" data-name="1"><g class="cls-2"><path class="cls-3" d="M190.63,284.24c-0.37-6.6-.82-13.2-1.11-19.81-0.31-7.22-.65-14.44-0.91-21.66-0.27-7.62-.53-15.23-0.64-22.86s-0.18-15.31-.23-23c0-7.43,0-14.86.07-22.29,0-6.78.32-13.56,0.54-20.33,0.23-7.07.51-14.15,0.77-21.22,0.13-3.49-.25-6.92.14-10.41a44.52,44.52,0,0,1,2.17-10.09c2.32-6.57,5.56-13,10.49-18.13S212.44,84.54,219,82c3.23-1.24,6.46-2.88,9.86-3.57A30.33,30.33,0,0,1,239.51,78a25.3,25.3,0,0,1,17.2,10.66A47.09,47.09,0,0,1,261.33,98a39.83,39.83,0,0,1,2.81,9.85,44.45,44.45,0,0,1-2.51,21.17c-2.55,6.85-7.37,12.38-11.07,18.62A169.56,169.56,0,0,0,241,165.82a132.75,132.75,0,0,0-7.23,20.25,221.87,221.87,0,0,0-4.49,21.74A139,139,0,0,0,228,228a145.52,145.52,0,0,0,1.59,22.16c0.09,0.59,0,2.22.4,2.7a3.66,3.66,0,0,0,1.55.4l5.93,1.25a192.53,192.53,0,0,1-1.84-25.18,157.05,157.05,0,0,1,2-24.66,140.38,140.38,0,0,1,5.52-23.19,161.75,161.75,0,0,1,9.14-22.61c1.85-3.64,3.75-7.24,5.94-10.7s4.31-7.55,7-10.78a17.74,17.74,0,0,0,2.66-5.63,53.28,53.28,0,0,0,1.68-5.45,56.13,56.13,0,0,0,1.72-11.89,58.82,58.82,0,0,0-4.2-24.23c-0.34-.82-0.66-1.65-1.05-2.45-0.31-.64-0.93-2.68-1.54-3-0.38-.22-1.18.23-1.55,0a4.44,4.44,0,0,1-.62-1.07,19.2,19.2,0,0,0-2.23-2.21,38,38,0,0,0-34.36-9.53,14.23,14.23,0,0,0-5.08,1.82C218.85,74.88,217,76,215.14,77c-3.76,2-7.58,3.8-11.47,5.53-1.79.8-3.6,1.52-5.43,2.24a47.09,47.09,0,0,0,1.51-6.61,25.9,25.9,0,0,0-.17-7.46,30,30,0,0,0-.66-3.08,6.51,6.51,0,0,1-.65-2.06c0.1-.45.85-0.55,1.28-0.74a11.87,11.87,0,0,0,5-4.62,12.07,12.07,0,0,0,2.06-6.49,11.48,11.48,0,0,0-.57-3.24,2.25,2.25,0,0,1-.23-1.42c0.3-.53,1.49-0.87,2-1.26a3.24,3.24,0,0,0,1.47-2.06,38.37,38.37,0,0,0,0-4.77,7.6,7.6,0,0,0-2-5.67c-0.86-.88-1.71-2.3-2.94-2.43a14.39,14.39,0,0,0-1.51,0,8.72,8.72,0,0,0-2.44,0c-0.9.34-1.86,1.92-2.5,2.66a14.38,14.38,0,0,0-1.9,3.13,31.48,31.48,0,0,0-2,6.61,7.26,7.26,0,0,1-2,3.14,5.24,5.24,0,0,0-1.07,2.55c-0.6,2.4-1.35,4.7-1,7.2,0.28,2.09,1.68,4.27,1.31,6.37-0.27,1.53-.7,3-1,4.55a21.81,21.81,0,0,0-.9,3.89c-0.06,2,1.09,4.11,1.46,6a48.69,48.69,0,0,1,0,15c-0.15,1.19,0,2.4-.09,3.6a19.1,19.1,0,0,1-1,3.48c-0.64,2-1.52,4-2,6.12-0.31,1.31-.56,2.65-0.84,4-1-.45-2.47-0.78-3.11-1.66A15.81,15.81,0,0,1,182,106a38.89,38.89,0,0,1-2.67-8.12c-0.16-1.11.06-2.29,0-3.41-0.1-1.3-.44-2.59-0.51-3.89a64.15,64.15,0,0,1,0-8c0.36-5.22,2.65-10.21,2.52-15.5,0-1.3-.42-2.59-0.48-3.9s0.82-2.4,1.2-3.63a11.05,11.05,0,0,0,.06-7A11.86,11.86,0,0,0,177,46.7c-0.72-.43-0.73-0.29-0.58-1.09,0.12-.64.32-1.18,0.38-1.82a16.72,16.72,0,0,0,0-4,12.37,12.37,0,0,0-2.89-6.7,17.23,17.23,0,0,0-2.81-2.56,1.79,1.79,0,0,0-1.56-.55,16.61,16.61,0,0,0-2.12.26,9.78,9.78,0,0,0-6.17,4.07,10.66,10.66,0,0,0-1.81,7.25,9.9,9.9,0,0,0,3.18,6.32,16.4,16.4,0,0,1,1.52,1.16c0.2,0.38-.3,1.38-0.42,1.86a9.71,9.71,0,0,0-.4,3.48,13.28,13.28,0,0,0,2.88,7A11.78,11.78,0,0,0,169,64a8.38,8.38,0,0,0,1.68.87c0.84,0.32.93,0.16,0.9,0.87a11.06,11.06,0,0,1-.67,2.11c-0.18.68-.29,1.39-0.42,2.09a28,28,0,0,0-.54,3.37,27.86,27.86,0,0,0,.68,7.85c0.28,1.19.76,2.35,1.06,3.54a159.5,159.5,0,0,1-22.55-11.06c-3.21-2-7.58-2.39-11.3-2.62a35.49,35.49,0,0,0-12,1.37,40.12,40.12,0,0,0-11.18,5.18,36.31,36.31,0,0,0-4.83,3.86,21,21,0,0,0-2.16,2.26,2.61,2.61,0,0,1-.78,1c-0.42.18-1.12-.19-1.49,0.07-0.67.47-1.23,2.38-1.58,3.12s-0.76,1.8-1.14,2.7a51.56,51.56,0,0,0-1.75,5.21A50.43,50.43,0,0,0,98.72,108a62.24,62.24,0,0,0,3.47,24.18,20.79,20.79,0,0,0,2.7,5.41c1.31,1.76,2.44,3.67,3.64,5.52,2.25,3.47,4.36,7,6.41,10.58a151.37,151.37,0,0,1,10,22.3,136.46,136.46,0,0,1,6.44,23.14,149.81,149.81,0,0,1,2.91,24.16,185.74,185.74,0,0,1-.82,24.86c-0.25,2.12-.62,4.24-0.93,6.36l6.05-1.27a2.42,2.42,0,0,0,1.43-.47c0.45-.65.38-2.46,0.49-3.22a93.34,93.34,0,0,0,1.1-10,217.61,217.61,0,0,0,0-22.48,143.21,143.21,0,0,0-2.92-21.06,148.4,148.4,0,0,0-5.72-20,146.38,146.38,0,0,0-9-20.45c-3.36-6.15-7-12-10.95-17.83A44,44,0,0,1,105.63,118a41.55,41.55,0,0,1,3-20c1.3-3.27,2.61-6.79,4.7-9.67a27.31,27.31,0,0,1,7.78-7c6.05-3.77,13.19-4.32,20.08-2.89a26.39,26.39,0,0,1,4.94,1.71c1.71,0.71,3.49,1.26,5.19,2a48.1,48.1,0,0,1,9.19,5.57c5.87,4.29,10.12,9.68,14.08,15.67,1.86,2.81,2.88,6.34,4,9.5a43.84,43.84,0,0,1,2.13,10.26c0.35,3.41,0,6.82.1,10.24s0.24,7,.37,10.52q0.42,11.54.75,23.09c0.22,7.45.23,14.9,0.29,22.36,0.05,6.81-.05,13.63-0.12,20.44-0.07,6.48-.11,13-0.3,19.44-0.2,7.13-.32,14.26-0.69,21.39-0.38,7.58-.77,15.16-1.2,22.74l-0.62,10.88h11.32Z"/><path class="cls-3" d="M182.68,280.56c0.72-13.24,1.57-25.24,1.93-38.1,0.12-4.19.24-8.14,0.35-12.33,0.46,12.84.86,25.35,1.57,38.19,0.23,4.19.47,8.93,0.7,12.24h-4.57Zm50.13-30.21c-0.49-3.28-1.15-6.46-1.85-9.71a38.52,38.52,0,0,1-1.26-8,72.38,72.38,0,0,1,.75-10.42c0.37-2.61.6-5.24,1-7.85,1.64-12.14,3.9-24.41,8-36a150.88,150.88,0,0,1,7.31-17.18,181.78,181.78,0,0,1,9-16.27c1.64-2.55,3.61-5,5.19-7.46a47.26,47.26,0,0,0,4.18-8.78A44.73,44.73,0,0,0,267.6,111c-0.29-6.09-2.19-11.67-4.58-17.25s-5.87-10.8-11-14.09c-1.29-.82-2.59-1.62-3.9-2.41a33.8,33.8,0,0,1,11.44,8.17,9.89,9.89,0,0,1,1.09,1.82c0.59,1.1.63,0.38,1.7,0.77s1.68,3.09,2.06,4c0.59,1.41,1.05,2.88,1.5,4.34a43.31,43.31,0,0,1,1.89,8.59A61.78,61.78,0,0,1,267,123a62.5,62.5,0,0,1-2.69,9.35c-1.07,2.85-3.05,5.23-4.71,7.8A167.13,167.13,0,0,0,243,172.39a162,162,0,0,0-9.27,36.75,176,176,0,0,0-.56,37.37c0.12,1.35.27,2.67,0.46,4Zm-96.2-1.89c0.52-6.35.85-12.67,0.91-19a158.1,158.1,0,0,0-1.11-18.09,143.06,143.06,0,0,0-8-34.87c-2.2-5.89-4.46-11.77-7.19-17.44a164.1,164.1,0,0,0-9.56-16.8c-1.52-2.39-3.11-4.73-4.72-7.06s-2.46-5.75-3.27-8.58c-0.42-1.47-.59-3-1-4.46-0.35-1.32-1-2.55-1.41-3.85a16.31,16.31,0,0,1-.6-8.89c1.36-5.85,2.44-11.87,4.8-17.44,0.34-.8,1.1-3.55,1.94-4,1.11-.57,1.08.46,1.82-0.76a13.69,13.69,0,0,1,1.18-1.8,28.79,28.79,0,0,1,7.32-6,27.54,27.54,0,0,1,4-2.2c-2.49,1.51-5.19,3-7.28,5a29.87,29.87,0,0,0-5.48,7.09,56.27,56.27,0,0,0-6.38,17.61c-1.88,11.91,1.51,23.74,8.23,33.62,7,10.3,13.32,21.17,17.62,32.86a160,160,0,0,1,9.09,35.94,152.08,152.08,0,0,1,.1,37.12c-0.11.9-.28,1.8-0.41,2.69s0,1.17-1,1.38Zm48.15-94.26c-0.22-6-.35-12-0.66-18-0.12-2.38-.51-4.74-0.66-7.12-0.16-2.68,0-5.38-.1-8.07a35.79,35.79,0,0,0-1.59-8.56l2.09,0.93c0.87,0.38,2.58.77,3.24,1.43,0.45,0.45,0,1.11-.15,1.82L186.31,119c-0.83,3.17-1.59,6.25-1.27,9.56,0.13,1.33.51,2.63,0.51,4,0,1.7-.09,3.41-0.14,5.11L185,151.9c-0.08,3.14-.12,6.28-0.16,9.42Q184.81,157.76,184.76,154.2Zm8.77-55.82V92.54c0-.49-0.55-2.36-0.28-2.8a3.93,3.93,0,0,1,1.63-.73c4.08-1.48,8-3,12-4.65,1.84-.77,3.61-1.63,5.42-2.46a57.44,57.44,0,0,0-16.1,14.56c-1.28,1.76-2.23,3.51-3.6,5.22C192.85,100.57,193.53,99.48,193.53,98.38Zm-17.82,1a66.68,66.68,0,0,0-7.94-9.61,54.37,54.37,0,0,0-10.48-7.92c3.45,1.61,6.89,3.27,10.4,4.74l3.71,1.54c1.1,0.45,3.26.8,4.23,1.48a1.71,1.71,0,0,1,1.1,1.48v3.7c0,1.11-.85,2.36-0.66,3.45a14.11,14.11,0,0,0,.83,3C176.62,100.55,176,99.94,175.72,99.34Zm-0.64-16.48c-0.57-1.9-1.55-3.77-2.09-5.68a9.12,9.12,0,0,1-.59-3.07,15.09,15.09,0,0,1,.72-2.92c0.19-.81.06-1.68,0.18-2.5,0.15-1,.47-1.93.56-2.92a9,9,0,0,0,0-1.87c-0.09-.68.05-0.46-0.52-0.91-0.75-.59-1.69-0.85-2.47-1.37A11.79,11.79,0,0,1,167.16,57a16.11,16.11,0,0,1-1.22-2.73c-0.29-1.05.14-1.62,0.53-2.58s0.72-2.2,1.07-3.3-0.22-1.1-1.3-1.73a7.64,7.64,0,0,1-3.54-4.22c-0.84-3.69,1.11-8.16,5.06-9.09a2.4,2.4,0,0,1,2.81.82,9.86,9.86,0,0,1,1.81,2.28c0.63,1.07.89,1.36,0.47,2.54a6.76,6.76,0,0,0-.62,2.91c0.06,0.81.59,1.46,0.58,2.23,0,1-1,2.61-.7,3.58,0.19,0.66,1.74.95,2.45,1.28a9.87,9.87,0,0,1,2.36,1.48c3.19,2.9,2.83,6.92,1.09,10.43-1,1.92,0,4.06.06,6.11a26.65,26.65,0,0,1,.06,5.55,68.48,68.48,0,0,0-1.39,11.29v3.25C176.74,85.72,175.41,84.29,175.08,82.85Zm18.45-.41a32.53,32.53,0,0,0-.36-5.36c-0.24-1.44-.87-3.08-0.64-4.52,0.38-2.33,1-4.65,1.58-7a7,7,0,0,0-.18-4.13,18,18,0,0,1-.95-5.75,13.8,13.8,0,0,1,.49-2.28,14.68,14.68,0,0,1,.72-2.87,17,17,0,0,1,2-2.35,4.2,4.2,0,0,0,.79-2,43.74,43.74,0,0,1,1.63-5.59,10.11,10.11,0,0,1,2.74-4.22c1.52-1.21,3.08.18,3.83,1.62,0.93,1.77.56,3.93,0.56,5.85a1.94,1.94,0,0,1-.3,1.55,18.09,18.09,0,0,1-2.95,1.93c-0.78.56-.54,0.69-0.36,1.69a19.77,19.77,0,0,1,.51,2.88c0,0.87-.12,1.72-0.07,2.6a8.22,8.22,0,0,1-.06,2.55,9.16,9.16,0,0,1-3,4.16A11.33,11.33,0,0,1,197,62.43a4.39,4.39,0,0,0-1.88,1.82c-0.95,1.28.54,3.17,0.79,4.65a33.26,33.26,0,0,1,.23,5.65,50.94,50.94,0,0,1-.08,5.21c-0.16,1.57-1.11,3-1.72,4.49a7.73,7.73,0,0,0-.84,2.74V82.44Zm25.4-3.9a38.28,38.28,0,0,1,4.57-2.81,22.94,22.94,0,0,1,5.38-1.13,35.86,35.86,0,0,1,10.33,0A33.08,33.08,0,0,1,244.91,76a15.87,15.87,0,0,0-5.4-.74c-1.89,0-3.77.11-5.66,0.11-3.55,0-6.94.1-10.24,1.51-1.83.78-3.71,1.45-5.57,2.14ZM149.25,78a40.26,40.26,0,0,0-4.65-1.91,38.19,38.19,0,0,0-5.83-.53c-1.84-.14-3.63-0.15-5.47-0.19a30.55,30.55,0,0,0-5.56.07,33.58,33.58,0,0,0-5.55,1.67,37.6,37.6,0,0,1,11.54-2.88,30,30,0,0,1,6.29.23,26.93,26.93,0,0,1,6.2,1.2c2,0.77,3.79,2.33,5.7,3.34Zm96.22-1.83c0.86,0.25,1.68.65,2.5,1Z"/><polygon class="cls-4" points="149.16 264.92 149.02 262.57 148.49 260.34 147.84 258.1 147.01 256.13 146.11 254.54 146.11 254.54 144.9 253.23 143.69 252.31 142.11 251.38 140.64 250.75 138.9 250.34 137.17 250.19 135.43 250.19 133.82 250.6 132.23 251.12 130.76 252.05 129.29 253.09 128.23 254.28 128.08 254.54 128.08 254.54 125.03 257.55 123.43 260.45 121.96 263.35 121.96 266.36 120.61 272.16 122.23 275.32 122.5 278.48 122.88 281.49 123.7 284.5 124.49 287.54 125.03 288.59 149.16 264.92 149.16 264.92"/><polygon class="cls-4" points="220.91 264.92 220.91 262.57 221.44 260.34 222.12 258.1 222.91 256.13 223.85 254.54 223.85 254.54 225.06 253.23 226.24 252.31 227.85 251.38 229.32 250.75 231.06 250.34 232.79 250.19 234.38 250.19 236.12 250.6 237.7 251.12 239.17 252.05 240.65 253.09 241.7 254.28 242 254.54 242 254.54 244.9 257.55 246.53 260.45 247.99 263.35 247.99 266.36 249.46 272.16 247.73 275.32 247.47 278.48 247.05 281.49 246.26 284.5 245.44 287.54 244.9 288.59 220.91 264.92 220.91 264.92"/><polygon class="cls-3" points="155.16 126.03 157.31 129.71 159.58 133.36 162.22 136.78 165.05 140.09 168.11 143.1 171.16 145.99 174.63 148.75 178.1 151.24 181.83 153.73 185.31 155.59 185.31 155.59 185.84 150.72 186.25 145.99 186.36 141.01 186.25 136.14 185.71 131.39 185.04 126.56 183.98 121.81 182.9 117.22 181.43 112.47 179.72 107.89 177.84 103.4 175.57 99.08 173.16 95 173.16 95 170.9 95.4 168.51 96.04 166.22 96.97 164.1 98.16 162.1 99.46 160.22 101.06 158.63 102.76 157.16 104.74 155.84 106.71 154.9 108.93 154.11 111.17 153.57 113.55 153.43 116.03 153.31 118.38 153.57 120.64 154.11 123.13 154.9 125.36 155.16 126.03 155.16 126.03"/><polygon class="cls-3" points="214.76 126.03 212.65 129.71 210.38 133.36 207.71 136.78 204.91 140.09 201.83 143.1 198.77 145.99 195.3 148.75 191.83 151.24 188.1 153.73 184.78 155.59 184.78 155.59 183.98 150.72 183.72 145.99 183.57 141.01 183.72 136.14 184.24 131.39 184.89 126.56 185.84 121.81 187.04 117.22 188.51 112.47 190.24 107.89 192.24 103.4 194.36 99.08 196.78 95 196.78 95 199.03 95.4 201.57 96.04 203.71 96.97 205.83 98.16 207.83 99.46 209.71 101.06 211.3 102.76 212.91 104.74 214.12 106.71 215.03 108.93 215.85 111.17 216.39 113.55 216.5 116.03 216.65 118.38 216.39 120.64 215.85 123.13 215.18 125.36 214.76 126.03 214.76 126.03"/><polygon class="cls-3" points="131.03 297.39 132.34 299.48 133.82 301.45 135.43 303.31 137.55 305.01 139.55 306.46 141.81 307.62 143.96 308.55 146.49 309.34 149.02 309.74 151.58 310 153.96 310 156.49 309.74 159.04 309.22 161.42 308.44 163.69 307.51 165.69 306.32 165.69 306.32 167.04 305.01 168.11 303.42 169.04 301.98 169.69 300.14 170.1 298.44 170.37 296.62 170.25 294.9 169.84 293.2 169.04 291.23 168.37 289.77 167.16 288.18 165.96 286.88 164.48 285.69 164.22 285.57 164.22 285.57 162.49 284.5 160.49 282.93 158.75 281.34 157.02 279.52 155.57 277.4 154.37 275.32 153.43 273.09 152.75 270.7 152.22 268.22 152.1 265.84 152.1 263.35 152.1 263.35 151.84 262.16 151.17 260.97 150.23 259.93 149.28 259.14 148.11 258.48 146.9 258.1 145.55 257.96 144.23 258.1 143.02 258.36 141.54 257.55 139.96 259 139.96 259 135.43 260.45 133.55 263.35 131.55 264.79 129.82 266.36 128.35 268.22 127.03 270.18 125.82 272.16 124.88 274.39 124.34 276.5 123.96 278.99 123.7 281.23 123.96 283.46 124.34 285.95 124.88 288.18 125.03 288.59 131.03 297.39 131.03 297.39"/><polygon class="cls-3" points="238.91 297.39 237.59 299.48 236.12 301.45 234.38 303.31 232.53 305.01 230.39 306.46 228.12 307.62 225.97 308.55 223.59 309.34 220.91 309.74 218.39 310 215.98 310 213.44 309.74 211.03 309.22 208.65 308.44 206.24 307.51 204.24 306.32 204.24 306.32 202.92 305.01 201.83 303.42 200.92 301.98 200.24 300.14 199.83 298.44 199.71 296.62 199.71 294.9 200.24 293.2 200.77 291.23 201.57 289.77 202.65 288.18 203.98 286.88 205.45 285.69 205.71 285.57 205.71 285.57 207.45 284.5 209.45 282.93 211.19 281.34 212.91 279.52 214.38 277.4 215.59 275.32 216.5 273.09 217.18 270.7 217.59 268.22 217.86 265.84 217.86 263.35 217.86 263.35 218.24 262.16 218.77 260.97 219.59 259.93 220.65 259.14 221.85 258.48 223.05 258.1 224.38 257.96 225.7 258.1 226.91 258.36 228.38 257.55 229.97 259 229.97 259 234.38 260.45 236.38 263.35 238.38 264.79 240.11 266.36 241.58 268.22 242.91 270.18 244.26 272.16 245.05 274.39 245.73 276.5 246.12 278.99 246.26 281.23 246.12 283.46 245.73 285.95 245.05 288.18 244.9 288.59 238.91 297.39 238.91 297.39"/></g></g></g></svg>