<svg xmlns="http://www.w3.org/2000/svg" viewBox="0 0 370 340"><defs><style>.cls-1{isolation:isolate;}.cls-2{mix-blend-mode:multiply;}.cls-3{fill:gray;}.cls-3,.cls-4,.cls-5{fill-rule:evenodd;}.cls-4{fill:#999;}.cls-12,.cls-5{fill:#e6e6e6;}.cls-5,.cls-7{stroke:#ccc;stroke-miterlimit:10;}.cls-6{fill:#b3b3b3;}.cls-7,.cls-8{fill:#f2f2f2;}.cls-9{fill:#ce202e;}.cls-10{fill:#fff;}.cls-11{fill:#ccc;}</style></defs><title>Image_uslugi</title><g class="cls-1"><g id="_1" data-name="1"><g class="cls-2"><path class="cls-3" d="M37.7,291.85c17.73,0,35.82,0,53.9,0l86.52-.05c25,0,25,0,43.92,22.92H207.75l-154.42,0C33.27,314.76,32.55,313.79,37.7,291.85Z"/><path class="cls-4" d="M228.94,244.13c-0.69-4.51-7.26-10.21-11.47-10.88a137.24,137.24,0,0,0-34.39-1c-38.43,3.54-76.79,8.1-115.2,11.9-23.38,2.31-32,12.39-30.11,38.29,5.07,0,10.29,0,15.5,0,43.95-.32,87.91-0.33,131.85-1.21,4.78-.1,29.24,3.48,34.78,2.6,8.38-1.32,12-16.35,12-16.35C233.21,259.72,230.34,253.47,228.94,244.13Z"/><path class="cls-5" d="M239.76,252.28a30.16,30.16,0,1,1,60.32,1A30.16,30.16,0,0,1,239.76,252.28Z"/><path class="cls-6" d="M294.14,310.24c-44.38-.94-75.68-12.12-94.91-37.2-3.18-4.15-4.14-8.36.94-12.26,4.5-3.45,10.31-4.43,16.29-2.71a17.93,17.93,0,0,1,8.14,5c18.23,21.15,47.11,30.14,82.32,25.38,3.91-.53,7.8-1.28,11.74-1.5,8.41-.45,14.74,3,16.14,8.58,1.24,4.93-3.41,10.25-11.08,11.36C312.71,308.44,301.51,309.41,294.14,310.24Z"/><path class="cls-7" d="M146.14,72.32c0.12-2.4-.11-4.91,2.21-6.61a1.37,1.37,0,0,0,.26-1.08,3.61,3.61,0,0,1,1.2-3c4.39-4.93,10.11-7.23,16.42-8.2a50.83,50.83,0,0,1,22,1.09,24.18,24.18,0,0,1,12.12,7.69,1.17,1.17,0,0,1,.38.44c-0.33,3,2.61,4.7,2.8,7.64,0.44,6.63-1.92,12.09-6.06,17a8.78,8.78,0,0,0-1.53,2.63c-2.67,7.49-7.21,13.24-15,15.72-8.76,2.78-18-.46-23.34-8.38-1.81-2.66-2.68-5.93-4.29-8.75s-3.74-5.23-5.32-8A15.24,15.24,0,0,1,146.14,72.32Z"/><path class="cls-8" d="M203.24,47.14c0,3.47,0,6.95,0,10.42a3,3,0,0,1-.62,1.73,1.06,1.06,0,0,1-1.77-.12c-5.15-5.59-11.87-7.55-19.13-8.4A56.4,56.4,0,0,0,161.37,52a25,25,0,0,0-12.18,6.77,2.54,2.54,0,0,1-1.76.75,3.29,3.29,0,0,1-1.05-2.08c-0.09-5.26-.06-10.52-0.06-15.78,0-1.29.09-2.59,0-3.87a5.56,5.56,0,0,1,2-4.72c3.82-3.61,8.57-5.23,13.53-6.42a59.46,59.46,0,0,1,18.77-1.11c5.93,0.48,11.76,1.7,17,4.78a28.61,28.61,0,0,1,2.68,1.87,6.72,6.72,0,0,1,3,6.36c-0.24,2.86-.05,5.75-0.05,8.63h0Zm-28.47.63a10.2,10.2,0,1,0,0-20.4,10.4,10.4,0,0,0-10.23,10.28A10.41,10.41,0,0,0,174.77,47.78Z"/><path class="cls-9" d="M174.77,47.78a10.41,10.41,0,0,1-10.2-10.12,10.23,10.23,0,1,1,20.46,0A10.23,10.23,0,0,1,174.77,47.78ZM176.49,36c0-1.51,0-2.79,0-4.07s-0.29-2.13-1.68-2.13-1.63,1-1.63,2.16c0,0.94,0,1.89,0,2.83A1,1,0,0,1,172,36c-1-.06-2.08,0-3.12,0s-1.91.4-1.92,1.57,0.79,1.71,2,1.7c1.37,0,2.73,0,4.26,0,0,1.44,0,2.67,0,3.91s0.25,2.12,1.59,2.27c1.06,0.11,1.7-.79,1.72-2.29,0-1.26,0-2.53,0-3.88,1.58,0,2.92,0,4.25,0,1.18,0,2-.51,2-1.71s-0.85-1.57-2-1.55C179.42,36,178.09,36,176.49,36Z"/><path class="cls-10" d="M176.49,36c1.6,0,2.93,0,4.26,0,1.1,0,1.93.41,2,1.55s-0.79,1.72-2,1.71c-1.33,0-2.67,0-4.25,0,0,1.35,0,2.62,0,3.88,0,1.5-.66,2.4-1.72,2.29-1.34-.14-1.61-1.12-1.59-2.27s0-2.46,0-3.91c-1.52,0-2.89,0-4.26,0-1.18,0-2-.48-2-1.7S167.77,36,168.87,36,171,36,172,36a1,1,0,0,0,1.19-1.23c0-.94,0-1.88,0-2.83,0-1.13.2-2.16,1.63-2.16s1.68,1,1.68,2.13S176.49,34.5,176.49,36Z"/><path class="cls-11" d="M186.36,99.24S177.8,101,174.9,101s-11.1-1.8-11.1-1.8c-1.3,0-2.45-1.18-2.84-2.92l-2.49-11c-0.61-2.7,13.69-9.41,17.12-9.41s17,6.82,16.36,9.54l-2.77,11C188.75,98.12,187.63,99.24,186.36,99.24Z"/><polygon class="cls-11" points="159.49 87.23 151.96 87.23 151.02 84.41 159.49 84.41 159.49 87.23"/><polygon class="cls-11" points="161.77 94.78 155.69 94.78 155.04 91.89 161.77 91.89 161.77 94.78"/><polygon class="cls-11" points="190.64 87.04 197.79 87.04 198.82 84.62 190.64 84.62 190.64 87.04"/><polygon class="cls-11" points="187.85 94.62 193.79 94.62 194.73 92.24 187.85 92.24 187.85 94.62"/><path class="cls-9" d="M231,129.69c-2.81-10.88-8.77-19.21-19.42-23.54v0l-9.67-4.07-0.14-.09c-2.54-1.08-5.11-2.08-7.74-3.14-0.06.34-.11,0.52-0.14,0.71a143.59,143.59,0,0,1-5.07,25.77c-1.83,5.84-4.06,11.52-8.11,16.24-4.28,5-8.82,5.07-13,0a40.72,40.72,0,0,1-5.09-8.16c-3.25-6.74-5-14-6.29-21.31-0.76-4.22-1.34-8.47-2-12.87l-8.09,3,0-.1-1.66.7-1,.37v0.05c-1.57.66-3.12,1.32-4.63,2-4.3,1.93-8.67,3.82-12,7.25-7.7,7.86-13.62,17.5-14,28.23,0,0.27-4.23,12.2-8.06,24.56L125.12,178c0.39-1.5.79-3,1.16-4.51a53.77,53.77,0,0,1,5.4,11.19l0.42,1,2.36,38.62c0,3.65,0,9.2,0,10.92,4.27-.49,21-3,29.74-3.64,14.62-1,37.06-3.54,47.17-1.76,0-7.14,0-11.7,0-18.76l1.5-32.31a6.87,6.87,0,0,0,.53-3.2c-0.25-7.34-.08-14.69-0.08-22l1.81-.52q1.74,4.28,3.5,8.55l20.51-11.92C238.23,147.74,231.82,133,231,129.69Z"/><path class="cls-12" d="M249.31,179.13a128.71,128.71,0,0,0-10.15-29.51l-20.51,11.92c1.78,4.36,3.54,8.73,5.18,13.15,0.3,0.81-1,2.82-2,3.39-9,5.06-18.17,9.23-28.89,8.63-4.9-.27-8.65,2.11-10.75,6.68-4,8.61,2.34,16.88,13,16.75,19.22-.24,35.38-8.49,50.24-19.83C249.12,187.53,250.27,183.5,249.31,179.13Z"/><path class="cls-12" d="M99.46,185.16c-1.77,9,.73,16.2,8.07,21.41,14.68,10.43,31.83,13.94,49.19,16.3,5.87,0.8,10.43-4,11.28-10,1-7-3.7-11.73-12.29-13.77-9.88-2.35-19.61-5.4-29.31-8.42-1.4-.44-3.41-2.6-3.25-3.7a82.14,82.14,0,0,1,2-9.07l-20.27-12.69C102.61,172.5,100.5,179.88,99.46,185.16Z"/></g></g></g></svg>