<svg id="Body" xmlns="http://www.w3.org/2000/svg" viewBox="0 0 270 130"><defs><style>.cls-1,.cls-7{fill:#f2f2f2;}.cls-2,.cls-6{fill:#ccc;}.cls-2,.cls-7,.cls-8{stroke:#ccc;}.cls-11,.cls-2,.cls-7,.cls-8{stroke-miterlimit:10;}.cls-3{fill:#fff;}.cls-4{fill:#666;}.cls-5{fill:gray;}.cls-11,.cls-8{fill:#e6e6e6;}.cls-9{fill:#b3b3b3;}.cls-10{fill:none;stroke-linecap:round;stroke-linejoin:round;}.cls-10,.cls-11{stroke:red;stroke-width:2px;}.cls-12{fill:#999;}.cls-13{fill:red;}</style></defs><title>Image_Akci</title><g id="Image"><g id="_2" data-name="2"><rect class="cls-1" width="268" height="130"/><path class="cls-2" d="M200.68,52.23a12.25,12.25,0,0,1-7,1.3,1.89,1.89,0,0,1-1-.92,3,3,0,0,1-.33-1.25c-0.11-1-.51-1.34-1.61-1.25-2.78.23-3.59-.37-4.57-3-0.24-.65-0.39-1.34-0.65-2a3.19,3.19,0,0,1,.6-3.61,3.25,3.25,0,0,0,.64-3.15A4.7,4.7,0,0,1,188.12,34c2.77-3.09,9.07-3.49,12.23-.81,2.62,2.22,3.33,7,1.5,10.21a7.93,7.93,0,0,1-1.26,1.82,3.44,3.44,0,0,0-.84,3.94C200.08,50.16,200.35,51.16,200.68,52.23Zm-3.21-9.79c0.34-1.58-.61-2.61-1.93-2.15a6.65,6.65,0,0,0-2.36,1.34c-1.55,1.47-3.3,1.33-5.13.9-0.42-.1-0.82-0.26-1.47-0.47a4.31,4.31,0,0,0-.48,1.79A30.78,30.78,0,0,0,187.52,48a1.84,1.84,0,0,0,1,1,4.78,4.78,0,0,0,4.38-.45c1.48-1,1.61-1.62.65-3.08-1.22-1.87-1.11-2.46.72-3.68C195.85,40.74,195.95,40.75,197.46,42.45Z"/><path class="cls-3" d="M197.46,42.45c-1.52-1.69-1.62-1.71-3.22-.64-1.83,1.22-1.95,1.81-.72,3.68,1,1.45.83,2.09-.65,3.08a4.78,4.78,0,0,1-4.38.45,1.84,1.84,0,0,1-1-1,30.78,30.78,0,0,1-1.42-4.19,4.31,4.31,0,0,1,.48-1.79c0.65,0.21,1.06.37,1.47,0.47,1.83,0.43,3.58.57,5.13-.9a6.65,6.65,0,0,1,2.36-1.34C196.85,39.84,197.8,40.87,197.46,42.45Z"/><path class="cls-4" d="M190.93,119.68c0.61,3.22,2.06,4.69,4.49,4.78,2.67,0.1,4.14-1.57,5.09-4.78h14.61a0.6,0.6,0,0,1,.13.37c-0.14,3.66,1,3.15,3.42,3.14l6.9,0c2,0,2.32-.33,2.37-2.26,0-.34,0-0.68.08-1.18h2.53a1.42,1.42,0,0,0,1.62-1.4c0.06-3.35,0-6.69,0-10-17.57,0-35,0-52.46,0a42.86,42.86,0,0,1-19.92-5.24,4.53,4.53,0,0,0-2-.5c-5.13,0-10.25,0-15.38,0-2.07,0-2.48.42-2.49,2.48q0,6.1,0,12.2c0,2.18.32,2.5,2.53,2.52H144a1.32,1.32,0,0,1,.19.34c0.18,3.12.18,3.12,3.29,3.12h6.9c2.21,0,2.47-.35,2.52-2.6a8.87,8.87,0,0,1,.06-1h34Z"/><path class="cls-5" d="M204.47,107.65c8.57,0,17.49,0,26.33,0a4.93,4.93,0,0,0,5.07-5.08,5.11,5.11,0,0,0-5.16-5.29q-23.48,0-47,0a1.86,1.86,0,0,0-1,.26c-2.81,1.95-5.8,1.79-8.71.46-6.56-3-12.9-6.43-18.25-11.38a59.47,59.47,0,0,1-11.9-15.33c-1.58-2.91-4.49-3.89-7.28-2.46-2.59,1.33-3.48,4.48-1.91,7.32,6.3,11.38,14.67,20.76,26.4,26.78a42.42,42.42,0,0,0,19.59,4.7c7.87,0,15.23,0,23.81,0h0Z"/><path class="cls-6" d="M189.85,86.66c-0.12,3.31-1,4.4-4.19,4.89-10.61,1.64-19.18-1.94-25.85-10.25a3.73,3.73,0,0,1,.65-5.5c1.63-1.24,3.81-.83,5.22,1a19.53,19.53,0,0,0,13.09,7.72c-0.57-.41-0.83-0.59-1.08-0.79-3.71-2.93-7.4-5.88-11.14-8.77a12.68,12.68,0,0,0-3.14-1.9c-4.23-1.6-7.57.63-7.87,5.14a9.07,9.07,0,0,0,2.1,6.52A40.28,40.28,0,0,0,175,97.24c2.65,1,5.26,1,7.63-.93a2.69,2.69,0,0,1,1.6-.37c11.81,0,23.61,0,35.42-.06a6.66,6.66,0,0,0,3.53-1.13,4.26,4.26,0,0,0,1.38-5,4.56,4.56,0,0,0-4.36-3.07c-5.65,0-11.31.06-17,.07-3.93,0-7.87,0-11.8-.07h-1.54Z"/><path class="cls-7" d="M192.34,66.34a13.45,13.45,0,0,0,3.72-5.8A3.75,3.75,0,0,1,200,58a3.58,3.58,0,0,1,3.21,3.2,4.84,4.84,0,0,1-.3,2.05,21.91,21.91,0,0,1-6,9.09,2.6,2.6,0,0,0-.67,1.59c0,3.9.16,7.72,0.26,12h7.16c1.1,0,2.2-.25,3.29-0.16a1.49,1.49,0,0,0,1.72-1.15,38.33,38.33,0,0,0,1.23-5.56,39.8,39.8,0,0,0-2.46-18.23c-1.21-3.23-3.35-5.48-6.85-6.17-2.5-.49-4.62.34-5.6,2.67-1.21,2.86-2.08,5.85-3.1,8.79Z"/><path class="cls-8" d="M144.15,65.37a8.34,8.34,0,1,0,7.93-8.47A8.33,8.33,0,0,0,144.15,65.37Z"/><path class="cls-6" d="M184,76.34c9.18,0.1,15.83-6,18.43-13.81a2.93,2.93,0,0,0-1.89-3.73,3,3,0,0,0-3.8,2c-1.66,4.44-4.38,7.86-9.12,9.23a14.81,14.81,0,0,1-7.71-.21c-0.86-.21-1.69-0.52-2.53-0.76a2.93,2.93,0,0,0-3.72,1.87,2.89,2.89,0,0,0,1.8,3.75A24.64,24.64,0,0,0,184,76.34Z"/><path class="cls-9" d="M181.22,91.38c1.68-.23,3.57-0.42,5.43-0.77a2.85,2.85,0,0,0,2.43-3.36,2.94,2.94,0,0,0-3.35-2.48c-1.45.13-2.89,0.46-4.34,0.49-6.78.14-12.09-2.75-16.22-8-1.53-2-3.84-2-5.08-.1a2.89,2.89,0,0,0,.23,3.57,25.28,25.28,0,0,0,15.94,10.11C177.81,91.13,179.41,91.19,181.22,91.38Z"/><path class="cls-7" d="M194.32,85.23c0.24-2.87.89-8.09,0-10.77a18.52,18.52,0,0,0-3.23,1.45c-0.38.26-2.87,8.4-2.67,8.91C189.51,86,191.58,85.23,194.32,85.23Z"/><path d="M174.43,75.11l-1.59-2a31.06,31.06,0,0,0-2,3.38,1.84,1.84,0,0,0,.38,1.67c0.59,0.54,1.23.11,1.63-.52C173.39,76.83,173.91,76,174.43,75.11Z"/><path class="cls-10" d="M178.46,65.78c0.24-2.4,3-7.16-.26-12.89a23.13,23.13,0,0,0-22.31-11.28c-12.33,1.33-14.39,12.09-19.41,15.83-2.54,1.89-11.16,3.19-16.11,1.23"/><path d="M179.79,65.26A6.46,6.46,0,0,1,179.3,68c-0.13.29-1.13,0.28-1.72,0.26a16.56,16.56,0,0,1-2.17-.37c0.6-1,1.07-1.87,1.68-2.66a5.76,5.76,0,0,0,.34-0.52l2.35,0.34C179.78,65.15,179.79,65.2,179.79,65.26Z"/><rect class="cls-6" x="109.08" y="51.09" width="11.79" height="70.74" transform="translate(229.96 172.91) rotate(180)"/><rect class="cls-11" x="35.13" y="6.07" width="71.81" height="66.45" rx="11.7" ry="11.7"/><rect class="cls-12" x="35.13" y="82.17" width="71.81" height="39.66" transform="translate(142.07 203.99) rotate(180)"/><path class="cls-13" d="M64.21,11.43c0.46,2.14-1.19,3.38-2.44,4.81-0.13,0-.26-0.1-0.39-0.11,0-1.44,0-2.77,0-4.21a1.27,1.27,0,0,1,1-.49h1.75Z"/><path class="cls-13" d="M72.93,52.2c-0.56-2.2-.09-4.5-1-6.52l-0.35,0c-0.7,1.78-1.48,3.54-2.09,5.35a1.36,1.36,0,0,1-1.73,1.13,1.88,1.88,0,0,0-.33,0c-1.8,0-1.8,0-2.51,1.78-0.3-3.52-.59-6.87-0.88-10.22-0.15-1.74-.26-3.49-0.46-5.22a5.49,5.49,0,0,0-.73-1.45c-0.93,5.23-1.8,9.71-2.68,15.07H52.29c0.13-1.07.13-3.09,0.43-4.59a22.59,22.59,0,0,1,8.5-13.86c3.81-2.95,8-3.2,12.37-1.3A8.14,8.14,0,0,1,77.65,37c0.56,1.3,1,2.67,1.39,4,0.2,0.62.45,1.14,1.2,0.92a1,1,0,0,0,.66-1.38c-0.27-.86-0.52-1.72-0.81-2.67,2.2,0.64,4.32,1.23,6.42,1.9a3,3,0,0,1,1.2.9c2.92,3.3,3.68,7.24,3.41,11.56-2,0-4,0-5.93,0a1.53,1.53,0,0,0-1.67,1.07,15.56,15.56,0,0,1-1.53,3c0-2.9,0-5.81,0-8.71a5.68,5.68,0,0,0-.44-1.47c-1.25,2.1-2.37,4-3.51,5.87a0.72,0.72,0,0,1-.53.25C75.95,52.21,74.43,52.2,72.93,52.2Z"/><path class="cls-13" d="M53.05,54c2.64,0,5,0,7.31,0a1.28,1.28,0,0,0,1.54-1.27,19.37,19.37,0,0,1,.9-4l1.73,11.49a4.89,4.89,0,0,0,.83-1.15c0.47-1.41.88-2.85,1.26-4.29a0.82,0.82,0,0,1,1-.79,1.25,1.25,0,0,0,.22,0c2.21,0,2.21,0,3.23-2l1.33,5.45c0.77,0,.76-0.79.95-1.38s0.35-1.32.53-2c1.22,0,2.39-.08,3.55,0a1.79,1.79,0,0,0,2.18-1.46,1.34,1.34,0,0,1,.58-0.76l0.87,10.1A4.07,4.07,0,0,0,82,61q1.44-3.06,2.77-6.18A1.1,1.1,0,0,1,86,54c1.6,0,3.2,0,5,0a18.26,18.26,0,0,1-.4,2.31A42.79,42.79,0,0,1,88.61,62a8.33,8.33,0,0,1-7.9,5.07A1.76,1.76,0,0,1,80,67c-3.8-1.82-8-2.27-12-3.19-5.12-1.18-9.74-3.26-13.21-7.37C54.18,55.77,53.71,55,53.05,54Z"/><path class="cls-13" d="M53.15,27.86c0.46-3,.93-5.88,1.34-8.79a27,27,0,0,0,.46-4.54c-0.08-2.85.68-3.62,3.52-3.14a6.93,6.93,0,0,1,.78.22c0.18,2.12.38,4.18,0.52,6.25a1.69,1.69,0,0,1-.39.86,0.9,0.9,0,0,0,.16,1.42,1,1,0,0,0,1.41-.33c1.22-1.4,2.44-2.8,3.69-4.18a2.55,2.55,0,0,1,.83-0.38L66,13.12l0.35-.06A27.13,27.13,0,0,1,67.63,16,2,2,0,0,1,67,18.36c-4.13,2.73-4.36,6.83-4.06,11.16a1.3,1.3,0,0,1-.33,1,1.34,1.34,0,0,1-1.11-.23C59.14,28.65,57.79,28.21,53.15,27.86Z"/><path class="cls-13" d="M72.21,12.39a33.57,33.57,0,0,0,.63,3.46,4.32,4.32,0,0,0,1.1,1.87c2,1.91,2.58,4,1.6,6.52a2.19,2.19,0,0,1-.87,1c-1.62.95-3.22,1.87-3.8,3.85a0.73,0.73,0,0,1-.57.35c-1.77,0-3.53,0-5.4,0a11.65,11.65,0,0,1,.3-6.11,6,6,0,0,1,2-2.5c2.48-1.95,3-3.75,1.78-6.64-0.37-.86-0.83-1.68-1.4-2.8Z"/><path class="cls-13" d="M88.43,37.91a12.79,12.79,0,0,1-1.82-.26c-2-.59-4-1.2-5.93-1.86a7.6,7.6,0,0,1-3.3-2.18,19.61,19.61,0,0,0-3.9-3.08c-0.7-.45-0.9-0.83-0.45-1.44a6.81,6.81,0,0,1,4.38-2.79c1-.17,1.92-0.34,2.89-0.45,0.69-.08,1.44-0.31,1.92.55a1.6,1.6,0,0,0,.93.45,2.93,2.93,0,0,1,2,3.3,0.92,0.92,0,0,1-.56.53,4.77,4.77,0,0,1-1.19.15A1,1,0,0,0,82.2,31.9a1,1,0,0,0,1.37.87c1.16-.23,2.31-0.55,3.5-0.84,0.79,1.5.75,1.68-.74,2.91C88.4,34.84,88.4,34.84,88.43,37.91Z"/><path class="cls-13" d="M50.7,48C48,43.45,46.78,38.91,48.75,34c1.45-3.62,3.7-4.79,7.51-3.92a33.71,33.71,0,0,1,4.21,1.58C54.72,35.79,52,41.34,50.7,48Z"/></g></g></svg>