<svg id="Body" xmlns="http://www.w3.org/2000/svg" xmlns:xlink="http://www.w3.org/1999/xlink" viewBox="0 0 270 130"><defs><style>.cls-1{fill:#fff;}.cls-2,.cls-3,.cls-4,.cls-5,.cls-6{fill-rule:evenodd;}.cls-2{fill:url(#GradientFill_1);}.cls-3{fill:url(#GradientFill_2);}.cls-4{fill:#6d1e18;}.cls-5{fill:url(#GradientFill_3);}.cls-6{fill:url(#GradientFill_4);}</style><linearGradient id="GradientFill_1" x1="123.99" y1="48.52" x2="2.47" y2="-5.59" gradientTransform="translate(65.47 22.14) rotate(15.18)" gradientUnits="userSpaceOnUse"><stop offset="0" stop-color="#d6a3a3"/><stop offset="0.45" stop-color="#b29085"/><stop offset="0.67" stop-color="#eedcdc"/><stop offset="0.84" stop-color="#f0e4e5"/><stop offset="1" stop-color="#e4c2bf"/></linearGradient><linearGradient id="GradientFill_2" x1="-20.51" y1="4.28" x2="27.48" y2="-16.09" gradientTransform="translate(65.47 22.14) rotate(15.18)" gradientUnits="userSpaceOnUse"><stop offset="0" stop-color="#e20613"/><stop offset="0.24" stop-color="#8e261b"/><stop offset="0.46" stop-color="#a6251a"/><stop offset="0.73" stop-color="#cf1516"/><stop offset="1" stop-color="#8e231a"/></linearGradient><linearGradient id="GradientFill_3" x1="-1.24" y1="47.06" x2="132.39" y2="-9.67" gradientTransform="translate(65.47 22.14) rotate(15.18)" gradientUnits="userSpaceOnUse"><stop offset="0" stop-color="#70231a"/><stop offset="0.11" stop-color="#c31c16"/><stop offset="0.18" stop-color="#e20613"/><stop offset="0.26" stop-color="#e20613"/><stop offset="0.41" stop-color="#582218"/><stop offset="0.53" stop-color="#b5271c"/><stop offset="0.75" stop-color="#e20613"/><stop offset="0.89" stop-color="#e20613"/><stop offset="1" stop-color="#c91616"/></linearGradient><linearGradient id="GradientFill_4" x1="83.46" y1="17.85" x2="61.57" y2="46.9" gradientTransform="translate(65.47 22.14) rotate(15.18)" gradientUnits="userSpaceOnUse"><stop offset="0" stop-color="#e8473f"/><stop offset="0.24" stop-color="#e63632"/><stop offset="0.46" stop-color="#c91616"/><stop offset="0.82" stop-color="#e20613"/><stop offset="1" stop-color="#cf1514"/></linearGradient></defs><title>Image_Akci</title><g id="Image"><g id="_3" data-name="3"><rect class="cls-1" width="268" height="130"/><path class="cls-2" d="M127.36,115.83c-9-9.37-17.64-39.21-25.62-42.21-21.37-8.1-36-17.06-41.66-21C45.56,42.67,48.18,28.55,62,24c20.75-6.87,54,23.4,59.67,26.17,36.83,17.75,79.57,23.66,79.57,23.66,6,24.31,23.68,29.26,21.34,30.19s-41.43-8.39-70.15-16.46c7.45,12.88,16,26.45,24.47,38.13,0.73,1,1.41,3.36,2.15,4.35,0,0-4.06-.32-14.16-3.51S138.17,117.93,127.36,115.83Z"/><path class="cls-3" d="M111.94,29.71L89.47,6.19S76.85-4.64,53.07,2.35s8.11,32.76,8.11,32.76C53.41,24.56,83.17,15.77,111.94,29.71Z"/><path class="cls-4" d="M110.16,27.84l-0.63-.65h0l-0.06,0-0.18.28,0.09,0,0.36,0.15,0.36,0.17,0.09,0h0ZM90.49,7.27l0,0h0l0,0h0ZM90.15,6.9l-0.31-.34-0.06,0-0.18-.07-0.21-.11L89.2,6.29,89,6.22l-0.21-.11L88.63,6,88.42,6l-0.18-.1-0.06,0L88,6.15h0l0.21,0.08,0.18,0.1,0.18,0.07L88.85,6.5,89,6.57l0.18,0.1,0.21,0.08,0.18,0.1,0.18,0.07L90,7l0.09,0,0.11-.15h0Zm-45,8.74a2.53,2.53,0,0,1,.16.42l0.36,0-0.06-.17,0-.18,0-.18,0-.18,0-.18,0-.16,0-.18V14.68l0-.18V14.38l-0.46,0v0.13l0,0.18,0,0.18,0,0.18,0,0.18,0,0.18,0,0.18v0.1h0Zm0.33,0.77a11.23,11.23,0,0,0,.49,1.07l0-.11,0-.19L45.79,17l0-.18,0-.19,0-.18,0,0H45.45ZM57,31.37c0.16,0.15.26,0.27,0.4,0.39l0-.12V31.49l0-.12,0-.14,0-.14V31l-0.41-.11,0,0.09,0,0.14,0,0.14,0,0.12h0ZM109,27l-0.27-.12-0.36-.15L108,26.54l-0.36-.15-0.36-.15-0.34-.12-0.15.29,0.33,0.14,0.36,0.15,0.36,0.15L108.2,27l0.39,0.16,0.24,0.12L109,27h0Zm-2.52-1h0l-0.36-.15-0.36-.15-0.4-.13L105,25.38l-0.37-.13-0.24-.09-0.12.32,0.21,0.08,0.4,0.13,0.36,0.15L105.62,26,106,26.12l0.37,0.13h0l0.15-.29h0ZM104,25l-0.06,0-0.4-.13-0.37-.13-0.37-.13-0.37-.13-0.38-.1-0.18-.07-0.12.32,0.19,0.05,0.37,0.13,0.37,0.13L103,25.06l0.37,0.13,0.37,0.13,0.09,0L104,25h0Zm-2.57-.82-0.12-.06-0.38-.1-0.38-.1-0.34-.12-0.38-.1-0.38-.1-0.22-.06-0.09.33,0.22,0.06L99.71,24l0.34,0.09,0.37,0.13,0.38,0.1,0.38,0.1,0.09,0,0.11-.3h0Zm-2.62-.76-0.09,0-0.34-.09-0.38-.08-0.38-.1L97.22,23,96.84,23l-0.28-.08-0.06.34,0.28,0.08,0.35,0.07,0.38,0.1,0.35,0.07,0.38,0.1,0.38,0.1,0.06,0,0.09-.33h0Zm-2.62-.64h0l-0.35-.07-0.38-.1L95,22.55l-0.38-.08L94.3,22.4l-0.35-.07h0l-0.06.34h0l0.35,0.07,0.38,0.08L95,22.88,95.32,23,95.71,23l0.34,0.09h0l0.09-.33h0Zm-2.68-.55-0.26,0-0.35-.07-0.35-.07-0.36,0-0.35-.07-0.36,0-0.19,0,0,0.32,0.19,0,0.35,0.07,0.36,0,0.35,0.07,0.35,0.07,0.36,0,0.25,0.07,0-.35h0Zm-2.67-.45-0.06,0-0.36,0-0.36,0-0.36,0-0.33,0-0.36,0-0.36,0-0.06,0v0.35h0.07l0.36,0,0.33,0,0.36,0L90,22l0.32,0.06,0.36,0h0.07l0-.32h0Zm-2.67-.34-0.19,0-0.33,0-0.36,0-0.33,0-0.36,0-0.33,0H85.89v0.33l0.33,0h0.33l0.36,0h0.33l0.36,0,0.33,0,0.19,0V21.46h0Zm-2.69-.25H83.2l0.07,0.35h1.3l0.33,0h0.56l0-.36h0Zm-2.66-.12H80.55l0.07,0.35h1l0.31,0h0.9l-0.07-.35h0Zm-2.66,0H79.63l-0.31,0H79l-0.31,0H78.38l-0.31,0H77.93L78,21.52h0.14l0.31,0,0.31,0,0.31,0,0.31,0h0.78l-0.07-.35h0Zm-2.63.12h0l-0.28,0-0.31,0-0.31,0-0.31,0-0.28,0-0.31,0-0.28,0-0.06,0,0.14,0.34h0l0.28,0,0.31,0,0.28,0,0.31,0,0.31,0,0.28,0,0.31,0,0,0-0.11-.33h0Zm-2.59.23H74.8l-0.31,0-0.28,0-0.28,0-0.28,0-0.28,0-0.28,0-0.28,0h0l0.14,0.34,0,0,0.28,0,0.28,0,0.28,0,0.28,0,0.28,0,0.28,0,0.28,0H75l-0.14-.34h0Zm-2.55.34-0.11,0-0.28,0-0.25.06-0.28,0L71.17,22l-0.28,0-0.25.06-0.28,0H70.28l0.17,0.35,0.08,0,0.28,0,0.25-.06,0.25-.06,0.28,0,0.25-.06,0.28,0,0.25-.06h0.14l-0.17-.35h0Zm-2.5.51h0l-0.25.06-0.25.06-0.25.06-0.26.08-0.25.06-0.25.06-0.23.09-0.25.06h0l0.21,0.34h0L68.3,23,68.55,23l0.25-.06L69,22.86l0.26-.08,0.25-.06,0.25-.06L70,22.61h0l-0.21-.34h0Zm-2.4.64-0.08,0L67.16,23l-0.26.08-0.22.07-0.23.09-0.22.07L66,23.41l-0.22.07-0.23.09h0l0.25,0.32,0,0,0.2-.1,0.22-.07,0.23-.09,0.22-.07,0.23-.09,0.22-.07,0.25-.06,0.23-.09h0.07l-0.21-.34h0Zm-2.31.81h0l-0.23.09-0.23.09L64.5,24l-0.2.1-0.23.09-0.2.1-0.19.08-0.2.1-0.16.08,0.26,0.3,0.16-.08,0.19-.08,0.2-.1,0.23-.09,0.19-.08,0.2-.1,0.2-.1,0.22-.07,0.2-.1h0l-0.26-.3h0Zm-2.15,1-0.08,0-0.2.1L62.56,25l-0.2.1-0.16.08-0.2.1-0.16.11-0.16.11-0.16.11-0.16.11,0,0L61.64,26v0l0.16-.11L62,25.73l0.16-.11,0.19-.08,0.16-.11,0.16-.11,0.2-.1L63,25.13l0.19-.08,0.08,0L63,24.71h0ZM61,25.9L60.87,26l-0.13.12-0.17.13-0.16.11-0.13.12-0.13.12L60,26.68l-0.16.11-0.13.12L59.57,27v0l0.34,0.22,0,0,0.13-.12L60.21,27l0.13-.12,0.13-.12,0.13-.12,0.16-.11,0.13-.09L61,26.38l0.16-.11,0.13-.12L61,25.9h0ZM59.3,27.3l-0.09.08-0.11.15L59,27.64l-0.1.12-0.13.12-0.1.12-0.1.12-0.1.12-0.1.12-0.11.15-0.07.13h0l0.42,0.19v0l0.1-.12,0.1-.12,0.06-.11,0.1-.12,0.1-.12,0.1-.12L59.24,28l0.1-.12,0.1-.12,0.13-.12,0.09-.08L59.3,27.3h0ZM57.93,29L57.88,29l-0.07.13-0.07.13-0.07.13-0.08.16-0.07.13-0.07.13L57.39,30l0,0.14-0.07.13,0,0.14,0,0.14,0.44,0.12,0-.12,0-.14,0.07-.13,0-.14L57.89,30,58,29.89l0-.14,0.07-.13,0.07-.13,0.1-.12,0.07-.13,0.05-.06L57.93,29h0ZM45.46,14l0-.06V13.62l0-.18V12.92l0-.14V12.43l0-.09-0.45-.1,0,0.09V13.2l0,0.2v0.35l0,0.18v0l0.46,0h0Zm0.17-2,0-.09,0-.16V11.59l0-.16,0-.16,0-.16,0.08-.16,0-.16,0-.16,0.08-.16v0l-0.43-.14v0l0,0.16-0.08.16,0,0.16,0,0.16-0.08.18,0,0.16,0,0.16v0.17l0,0.16,0,0.09L45.63,12h0Zm0.59-1.91L46.29,10l0.08-.16,0.08-.16,0.08-.16,0.11-.15,0.08-.16L46.77,9l0.11-.15L47,8.75l0.06-.11-0.38-.2-0.1.12-0.08.16-0.11.15L46.28,9l-0.08.16-0.08.18L46,9.5l-0.08.16-0.08.16,0,0.14,0.39,0.16h0Zm1.05-1.76,0,0,0.11-.15L47.52,8l0.13-.12,0.11-.15,0.14-.14L48,7.47l0.14-.14,0.14-.14,0.13-.12-0.37-.25L48,6.94l-0.14.14-0.14.14-0.15.16-0.14.14-0.11.15-0.14.14L47,8,46.9,8.1v0l0.38,0.2h0Zm1.46-1.52,0,0,0.14-.14,0.16-.11,0.17-.13,0.17-.13,0.17-.13L49.75,6l0.17-.13,0.2-.1,0.05-.06-0.29-.28-0.08.05-0.17.13-0.2.12-0.17.13L49.08,6l-0.17.13-0.17.13-0.17.13-0.17.13,0,0,0.37,0.25h0Zm1.76-1.29h0l0.2-.12,0.2-.12,0.23-.09,0.2-.12L51.55,5l0.2-.12L52,4.75l0.2-.1-0.25-.32-0.2.12-0.23.09-0.23.11L51,4.77l-0.2.12L50.6,5l-0.2.12-0.2.12h0l0.29,0.28h0Zm2.06-1,0.12-.07,0.26-.11,0.23-.11,0.26-.08L53.69,4l0.26-.08,0.26-.11,0.18-.05-0.21-.34L54,3.53l-0.26.08-0.3.1-0.26.11-0.23.11L52.69,4l-0.26.11-0.12.07,0.25,0.32h0Zm2.21-.84,0.3-.1,0.29-.07,0.3-.1,0.26-.08,0.29-.07,0.3-.1,0.25-.06-0.18-.33-0.25.06-0.3.1L55.72,3l-0.3.1-0.29.07-0.3.1-0.29.07,0.21,0.34h0ZM57.14,3l0.22-.07,0.28,0,0.29-.07,0.29-.07,0.28,0,0.29-.07,0.28,0,0.11,0L59,2.21H58.93l-0.29.07-0.31,0L58,2.41l-0.29.07-0.28,0-0.29.07L57,2.67,57.14,3h0Zm2.43-.53,0.08,0,0.28,0,0.28,0,0.31,0,0.28,0h0.27l0.28,0,0.28,0h0l-0.11-.33h0l-0.28,0-0.28,0-0.31,0L60.34,2,60.07,2,59.78,2l-0.29.07H59.43l0.14,0.34h0Zm2.49-.38H62.2l0.28,0,0.28,0L63,2l0.28,0,0.28,0,0.28,0,0.28,0,0.06,0L64.1,1.53H64l-0.28,0-0.28,0-0.28,0-0.28,0-0.31,0-0.28,0-0.28,0L62,1.75l0.11,0.33h0Zm2.56-.24h0.07l0.28,0h0.27l0.31,0h0.27l0.28,0H66.8l-0.07-.35H66.29L66,1.43H65.44l-0.28,0-0.28,0H64.55l0.07,0.35h0Zm2.62-.1h1.28l0.26,0h0.27l0.26,0h0.1l0-.36H68.74l-0.26,0H67.17l0.07,0.35h0ZM69.85,1.8l0.26,0h0.27l0.26,0,0.26,0,0.26,0,0.26,0,0.26,0h0.23l0.13,0V1.61H71.92l-0.26,0-0.26,0-0.26,0-0.26,0-0.26,0-0.26,0-0.26,0H69.85V1.8h0ZM72.52,2h0.2l0.26,0,0.26,0,0.26,0,0.26,0,0.23,0,0.26,0,0.26,0,0.23,0V1.94l-0.19,0-0.26,0L74,1.84l-0.26,0-0.26,0-0.26,0L73,1.71l-0.26,0-0.19,0V2h0Zm2.64,0.34,0.09,0,0.26,0,0.26,0,0.26,0,0.23,0,0.26,0,0.26,0L77,2.7l0.26,0,0.13,0,0.06-.34-0.13,0L77,2.36l-0.25-.07-0.23,0-0.26,0L76,2.17l-0.26,0-0.26,0L75.31,2,75.18,2l0,0.35h0Zm2.65,0.52,0.16,0L78.22,3l0.23,0L78.7,3.06l0.22,0.06,0.26,0L79.4,3.23,79.65,3.3l0.22,0.06,0.13,0,0.06-.34L80,3,79.71,3,79.49,2.9l-0.26,0L79,2.79l-0.25-.07-0.26,0-0.22-.06L78,2.55l-0.16,0-0.06.34h0ZM80.4,3.5l0.16,0,0.25,0.07L81,3.67l0.22,0.06L81.5,3.8l0.22,0.06,0.21,0.08L82.18,4,82.4,4.07l0.15,0.07,0.12-.32-0.18-.07-0.22-.06-0.22-.06L81.8,3.55l-0.21-.08-0.22-.06-0.25-.07L80.9,3.28l-0.25-.07-0.16,0L80.4,3.5h0ZM83,4.25l0.06,0,0.21,0.08,0.25,0.07L83.73,4.5l0.21,0.08,0.22,0.06,0.21,0.08,0.21,0.08,0.22,0.06L85,5l0.09,0,0.15-.29-0.12-.06-0.22-.06-0.21-.08L84.5,4.41l-0.21-.08-0.22-.06-0.21-.08-0.22-.06L83.39,4,83.17,4l-0.06,0L83,4.25h0Zm2.55,0.89,0.09,0,0.22,0.06,0.21,0.08,0.21,0.08L86.46,5.5l0.21,0.08,0.21,0.08,0.18,0.07,0.21,0.11,0.21,0.08,0.13,0,0.18-.28-0.15-.07-0.21-.08-0.18-.07L87,5.37l-0.21-.08L86.6,5.21l-0.18-.07-0.21-.08L86,5l-0.21-.08-0.09,0Z"/><path class="cls-5" d="M201.23,73.79s-46.93-7.48-83.76-25.23S77.8,30,62,24,44.1,13.2,44.49,9.29c0,0-1.95,1.85,2.84,15.47s5.29,15.5,5.29,15.5,1.41,7.2,9.24,12.61S90.18,69.32,128.8,80.63s94.14,22.08,94.14,22.08A189.67,189.67,0,0,1,201.23,73.79Z"/><path class="cls-4" d="M44.66,15.72c0,0.13.09,0.3,0.12,0.44L45,16l-0.06,0,0-.06-0.08-.07-0.05-.06,0-.06h0Zm8,24.69c0,0.19.15,0.57,0.34,1.1h0l0.09,0.15,0.1,0.13,0.07,0.12L53.34,42l0.07,0.1L53.79,42l0-.09-0.1-.13-0.1-.13-0.09-.15-0.07-.12-0.1-.13-0.1-.13L53.09,41,53,40.87l-0.09-.15-0.1-.13-0.1-.13,0-.06h0Zm168.85,60.71-0.29-.31,0,0.24,0.19,0.05h0.13Zm-19.33-25.8-0.23-.39-0.19,0-0.22-.06-0.23,0-0.23,0-0.23,0-0.23,0-0.26,0-0.16,0-0.05.31L200.32,75l0.23,0,0.26,0,0.23,0,0.23,0,0.23,0,0.23,0,0.19,0,0.22,0.06h0Zm18.62,25.33-0.06,0-0.22-.06-0.23,0-0.26,0-0.26,0-0.25-.07-0.23,0L219,100.3l-0.25-.07-0.16,0-0.06.34,0.19,0,0.25,0.07,0.26,0,0.26,0,0.26,0,0.22,0.06,0.26,0,0.23,0,0.25,0.07,0,0,0.05-.31h0Zm-2.65-.54-0.19,0-0.29-.05-0.25-.07-0.29-.05-0.29-.05-0.29-.05-0.32-.06-0.28-.08h0l-0.06.34h0l0.32,0.06,0.28,0.08,0.29,0.05,0.29,0.05,0.29,0.05,0.29,0.05,0.25,0.07,0.19,0,0.06-.34h0Zm-2.65-.52-0.16,0L215,99.5l-0.29-.05-0.32-.06-0.32-.06-0.32-.06-0.34-.09h-0.13l-0.06.34,0.16,0,0.32,0.06L214,99.64l0.31,0.09,0.32,0.06L215,99.84l0.29,0.05,0.16,0,0.06-.34h0Zm-2.65-.54-0.06,0L212.41,99l-0.32-.06-0.35-.07-0.35-.07L211,98.7l-0.35-.07-0.06,0-0.06.34,0.06,0L211,99l0.35,0.07,0.35,0.07L212,99.25l0.32,0.06,0.35,0.07,0.06,0,0.06-.34h0Zm-2.65-.54-0.19,0-0.38-.08-0.34-.09-0.35-.07-0.38-.08-0.38-.08-0.16,0-0.06.34,0.19,0,0.35,0.07,0.38,0.08,0.35,0.07,0.38,0.08,0.35,0.07,0.19,0.05,0.06-.34h0ZM207.53,98l-0.13,0L207,97.86l-0.38-.08-0.38-.08-0.38-.08-0.41-.09h-0.13l-0.05.31,0.13,0L205.81,98,206.2,98l0.38,0.08L207,98.2l0.38,0.08,0.13,0,0.06-.34h0Zm-2.65-.54-0.22-.06-0.38-.08-0.41-.09-0.38-.08L203.07,97,202.68,97l-0.06.34L203,97.38l0.41,0.09,0.38,0.08,0.41,0.09,0.41,0.09,0.19,0,0.05-.31h0Zm-2.64-.57-0.41-.09-0.41-.09L201,96.61l-0.41-.09-0.45-.1-0.09,0-0.06.34,0.09,0,0.45,0.1,0.41,0.09L201.35,97l0.41,0.09,0.41,0.09,0.06-.34h0Zm-2.64-.57-0.32-.06-0.41-.09-0.45-.1L198,96l-0.45-.1-0.19,0-0.05.31,0.19,0.05,0.45,0.1,0.41,0.09,0.45,0.1,0.41,0.09,0.32,0.06,0.06-.34h0Zm-2.65-.54-0.28-.08-0.45-.1-0.45-.1-0.45-.1-0.45-.1-0.16,0-0.06.34,0.16,0,0.45,0.1,0.45,0.1,0.45,0.1,0.45,0.1,0.29,0.05,0.05-.31h0Zm-2.63-.59L194,95.11l-0.48-.1-0.45-.1-0.45-.1-0.48-.1-0.06,0L192,95l0.06,0,0.48,0.1,0.45,0.1,0.45,0.1,0.48,0.1,0.29,0.05,0.09-.33h0Zm-2.67-.57-0.41-.09-0.48-.1-0.45-.1-0.48-.1-0.38-.08-0.06.34,0.38,0.08,0.45,0.1,0.48,0.1,0.48,0.1,0.41,0.09,0.06-.34h0ZM189,94l-0.13,0-0.48-.1-0.48-.1-0.48-.1-0.48-.1-0.16,0-0.06.34,0.16,0,0.48,0.1,0.48,0.1,0.48,0.1,0.48,0.1,0.13,0L189,94h0Zm-2.63-.59L186,93.38l-0.48-.1L185,93.16,184.56,93,184.18,93l-0.06.34,0.38,0.08,0.48,0.1,0.51,0.11,0.48,0.1,0.34,0.09,0.06-.34h0Zm-2.63-.59-0.16,0-0.48-.1-0.48-.1-0.51-.11-0.48-.1-0.09,0-0.09.33,0.09,0,0.51,0.11,0.48,0.1L183,93l0.48,0.1,0.16,0,0.06-.34h0Zm-2.63-.59-0.48-.1-0.48-.1-0.5-.14-0.51-.11-0.26,0-0.06.34,0.26,0,0.51,0.11,0.51,0.11,0.47,0.13,0.48,0.1,0.06-.34h0Zm-2.63-.61-0.32-.06-0.51-.11-0.51-.11-0.51-.11-0.38-.1-0.06.34,0.38,0.08,0.5,0.14,0.51,0.11,0.51,0.11L178.38,92l0.09-.33h0Zm-2.67-.6L175.61,91l-0.48-.1-0.51-.11-0.51-.11-0.5-.14-0.06.34L174,91l0.5,0.14L175,91.23l0.51,0.11,0.19,0.05,0.06-.34h0Zm-2.63-.61-0.09,0-0.51-.11-0.51-.11-0.5-.14-0.51-.11-0.06,0-0.09.33,0.09,0,0.51,0.11,0.5,0.14,0.51,0.11L173,90.76l0.09,0,0.06-.34h0Zm-2.63-.61h0L170,89.72l-0.5-.14L169,89.47l-0.51-.11-0.13,0-0.09.33,0.16,0,0.51,0.11,0.51,0.11,0.5,0.14,0.51,0.11h0l0.06-.34h0Zm-2.63-.61-0.44-.12L166.94,89l-0.5-.14-0.51-.11-0.22-.06-0.06.34,0.19,0.05,0.54,0.12,0.5,0.14,0.51,0.11,0.45,0.1,0.08-.31h0Zm-2.65-.64-0.38-.1-0.51-.11-0.54-.12-0.5-.14L163.09,88l-0.06.34,0.25,0.07,0.51,0.11,0.5,0.14,0.54,0.12,0.38,0.1,0.06-.34h0Zm-2.62-.64-0.34-.09-0.51-.11-0.5-.14-0.54-.12-0.28-.08-0.09.33,0.31,0.09,0.51,0.11,0.53,0.14,0.51,0.11,0.34,0.09,0.06-.34h0ZM160,87.31l-0.28-.08-0.53-.14L158.69,87l-0.5-.14-0.35-.07-0.09.33,0.35,0.07,0.5,0.14,0.54,0.12,0.5,0.14,0.28,0.08,0.09-.33h0Zm-2.62-.66-0.25-.07-0.51-.11-0.53-.14-0.5-.14-0.41-.09-0.06.34,0.38,0.08,0.53,0.14,0.5,0.14,0.51,0.11L157.31,87l0.09-.33h0ZM154.76,86l-0.19-.05-0.51-.11-0.5-.14L153,85.54l-0.45-.1-0.08.31L153,85.87l0.5,0.14L154,86.12l0.53,0.14,0.19,0.05,0.06-.34h0Zm-2.62-.66-0.13,0-0.5-.14L151,85l-0.51-.11-0.5-.14h0l-0.09.33h0l0.5,0.14,0.54,0.12,0.5,0.14,0.5,0.14,0.13,0,0.09-.33h0Zm-2.61-.68-0.06,0-0.5-.14-0.51-.11-0.53-.14-0.5-.14-0.09,0-0.09.33,0.09,0,0.53,0.14,0.51,0.11,0.5,0.14,0.5,0.14,0.06,0,0.09-.33h0Zm-2.64-.69-0.47-.13-0.5-.14-0.5-.14-0.5-.14-0.19-.05-0.09.33,0.19,0.05,0.5,0.14,0.5,0.14,0.5,0.14,0.5,0.14,0.06-.34h0Zm-2.6-.71-0.38-.08L143.4,83l-0.47-.13-0.5-.14-0.31-.11L142,83l0.31,0.09,0.5,0.14,0.47,0.13,0.5,0.14,0.38,0.1,0.09-.33h0Zm-2.6-.71-0.25-.07-0.5-.14-0.47-.13-0.5-.14-0.47-.13-0.09.33,0.47,0.13,0.5,0.14,0.47,0.13,0.5,0.14,0.25,0.07,0.09-.33h0Zm-2.6-.71-0.09,0-0.5-.14L138,81.54l-0.5-.16L137,81.25l-0.16,0-0.09.33,0.13,0,0.5,0.14,0.47,0.13,0.5,0.16,0.47,0.13,0.09,0,0.12-.32h0Zm-2.63-.74-0.38-.1-0.5-.16-0.47-.13-0.47-.13-0.34-.09-0.08.31,0.34,0.12L135,81l0.47,0.13L136,81.31l0.41,0.11,0.09-.33h0Zm-2.59-.75-0.19-.05-0.47-.13L132.74,80l-0.47-.13-0.46-.15-0.09,0-0.12.32,0.13,0,0.46,0.15,0.47,0.13,0.46,0.15,0.47,0.13,0.19,0.05,0.09-.33h0Zm-2.59-.75-0.4-.13-0.44-.12L130,79.18l-0.47-.13-0.4-.13-0.09.33,0.4,0.13,0.44,0.12,0.46,0.15,0.47,0.13,0.37,0.13,0.12-.32h0Zm-2.58-.78-0.12.32-0.09,0L128.23,79,128,78.94l-0.28-.1-0.22-.06-0.28-.08L127,78.62l-0.25-.07-0.25-.07,0.09-.33,0.25,0.07,0.28,0.08,0.24,0.09,0.25,0.07,0.24,0.09,0.25,0.07,0.25,0.07,0.28,0.1,0.09,0h0Zm-2.58-.8L126,78l-0.28-.08-0.24-.09-0.25-.07L125,77.66l-0.25-.07-0.24-.09-0.28-.08L124,77.36l0,0-0.12.32,0.06,0,0.24,0.09,0.25,0.07,0.24,0.09L124.9,78l0.24,0.09,0.28,0.08,0.25,0.07,0.24,0.09,0.09,0,0.09-.33h0Zm-2.58-.8h0l-0.24-.09L123,77l-0.24-.09-0.25-.07-0.24-.09L122,76.72l-0.24-.09-0.25-.07-0.13,0-0.11.3,0.12,0.06,0.25,0.07L121.89,77l0.25,0.07,0.24,0.09,0.25,0.07,0.24,0.09,0.25,0.07,0.25,0.07,0,0,0.12-.32h0ZM121,76.38l-0.18-.07-0.22-.06-0.24-.09-0.25-.07L119.82,76l-0.25-.07-0.24-.09-0.22-.06-0.24-.09h0l-0.12.32h0L119,76.1l0.22,0.06,0.24,0.09,0.25,0.07,0.24,0.09,0.25,0.07,0.24,0.09,0.25,0.07,0.15,0.07,0.12-.32h0Zm-2.56-.85h0l-0.22-.06-0.24-.09-0.24-.09-0.22-.06-0.24-.09-0.25-.07L116.73,75l-0.25-.07-0.21-.08-0.12.32,0.22,0.06,0.24,0.09,0.21,0.08,0.25,0.07,0.24,0.09,0.22,0.06,0.24,0.09L118,75.76l0.21,0.08h0l0.12-.32h0Zm-2.56-.85-0.06,0-0.21-.08-0.25-.07-0.21-.08-0.24-.09-0.22-.06-0.24-.09-0.21-.08L114,74.05,113.71,74h0l-0.12.32h0l0.21,0.08,0.25,0.07,0.21,0.08,0.24,0.09,0.22,0.06L115,74.76l0.22,0.06,0.24,0.09L115.65,75l0.06,0,0.12-.32h0Zm-2.56-.87h0L113,73.73l-0.22-.06-0.24-.09-0.21-.08-0.22-.06-0.24-.09-0.21-.08-0.22-.06-0.21-.08-0.09,0-0.15.29,0.09,0,0.25,0.07,0.21,0.08,0.21,0.08L112,73.72l0.24,0.09,0.21,0.08L112.66,74,112.91,74l0.21,0.08h0l0.12-.32h0Zm-2.55-.89-0.16,0-0.21-.08-0.21-.08-0.22-.06-0.21-.08-0.24-.09-0.22-.06L109,72.34l-0.21-.08-0.21-.08h0l-0.15.31h0l0.21,0.08,0.21,0.08,0.22,0.06,0.21,0.08,0.21,0.08L109.77,73,110,73l0.24,0.09,0.21,0.08,0.16,0,0.12-.32h0ZM108.17,72L108,71.94l-0.22-.06-0.21-.08-0.21-.08-0.21-.08-0.22-.06-0.21-.08-0.18-.07-0.21-.08-0.22-.06-0.11.3,0.18,0.07,0.21,0.08,0.21,0.08,0.22,0.06L107,72,107.19,72l0.21,0.08,0.22,0.06,0.21,0.08L108,72.35l0.12-.32h0Zm-2.55-.92h0L105.41,71,105.23,71,105,70.89l-0.21-.08-0.21-.08-0.18-.07-0.21-.08L104,70.51l-0.18-.07-0.21-.08-0.06,0-0.12.32h0l0.21,0.08,0.22,0.06L104,70.88,104.25,71,104.46,71l0.21,0.08,0.19,0.05,0.21,0.08,0.21,0.08,0.21,0.08h0l0.12-.32h0Zm-2.51-.93-0.16,0-0.21-.08L102.57,70l-0.21-.08-0.18-.07L102,69.74l-0.19-.05-0.21-.08-0.18-.07-0.21-.08L101,69.38l-0.15.31L101,69.76l0.21,0.08,0.18,0.07L101.62,70,101.81,70,102,70.13l0.21,0.08,0.18,0.07,0.21,0.08,0.19,0.05L103,70.49l0.15-.31h0Zm-2.54-.94h0l-0.21-.08-0.18-.07L100,69l-0.21-.08-0.18-.07-0.18-.07-0.22-.06L99,68.64l-0.18-.07-0.21-.08-0.15-.07-0.15.31,0.15,0.07,0.21,0.08,0.19,0.05L99.06,69l0.21,0.08,0.18,0.07,0.18,0.07,0.21,0.08L100,69.39l0.22,0.06,0.18,0.07h0l0.15-.29h0Zm-2.49-1-0.21-.08-0.18-.07L97.5,68,97.32,68l-0.18-.07L97,67.82l-0.18-.07-0.21-.08-0.18-.07-0.18-.07L96,67.44h0l-0.15.31h0L96,67.83l0.18,0.07L96.41,68l0.21,0.08,0.18,0.07L97,68.19l0.18,0.07,0.18,0.07,0.18,0.07,0.21,0.08,0.18,0.07,0.15-.31h0Zm-2.53-1-0.09,0-0.19-.05-0.18-.07L94.92,67l-0.18-.07-0.18-.07-0.18-.07-0.15-.07L94,66.65l-0.18-.07-0.18-.07-0.18-.07h0l-0.18.3h0l0.18,0.07,0.18,0.07L93.86,67,94,67l0.18,0.07,0.18,0.07,0.19,0.05,0.18,0.07L95,67.38l0.18,0.07,0.18,0.07,0.09,0,0.15-.31h0Zm-2.49-1-0.09,0-0.18-.07-0.18-.07L92.43,66l-0.15-.07-0.18-.07-0.18-.07-0.19-.05-0.15-.07-0.18-.07-0.18-.07-0.15-.07L91,65.4l-0.18.3,0.06,0,0.18,0.07,0.18,0.07,0.15,0.07L91.59,66l0.18,0.07L92,66.16l0.15,0.07,0.18,0.07,0.18,0.07,0.18,0.07,0.15,0.07,0.12,0.06,0.15-.31h0Zm-2.48-1h0l-0.18-.07-0.15-.07L90,65l-0.15-.07-0.18-.07-0.15-.07-0.18-.07-0.15-.07L89,64.59l-0.15-.07-0.15-.07-0.18-.07,0,0-0.18.3,0.06,0,0.15,0.07,0.18,0.07,0.15,0.07L89,64.95,89.23,65l0.15,0.07,0.18,0.07,0.15,0.07,0.18,0.07L90,65.37l0.18,0.07,0.18,0.07h0l0.18-.28h0Zm-2.48-1.05h0l-0.15-.07L87.75,64,87.6,64l-0.15-.07-0.15-.07-0.18-.07L87,63.7l-0.14-.09-0.15-.07-0.18-.07-0.15-.07-0.15-.07-0.13,0-0.18.28L86,63.64l0.15,0.07,0.18,0.07,0.15,0.07,0.15,0.07L86.79,64,87,64.05l0.15,0.07,0.15,0.07,0.15,0.07,0.18,0.07,0.15,0.07,0.18,0.07h0l0.18-.28h0Zm-2.47-1.07-0.09,0L85.4,63l-0.15-.07-0.15-.07L85,62.8l-0.15-.07-0.15-.07L84.5,62.6l-0.15-.07-0.15-.07L84,62.4l-0.15-.07-0.15-.07L83.6,62.2l-0.18.28,0.15,0.07,0.15,0.07,0.15,0.07L84,62.75l0.15,0.07,0.14,0.09L84.47,63,84.62,63l0.15,0.07,0.15,0.07,0.15,0.07,0.15,0.07,0.18,0.07,0.09,0,0.15-.29h0ZM83.21,62l-0.06,0L83,61.92l-0.15-.07-0.15-.07-0.15-.07-0.15-.07-0.15-.07-0.12-.06L82,61.47l-0.15-.07-0.15-.07-0.12-.06-0.15-.07-0.15-.07-0.12-.06L81,61.37l0.12,0.06,0.15,0.07,0.15,0.07,0.12,0.06,0.14,0.09,0.15,0.07L82,61.84,82.1,61.9,82.25,62,82.4,62l0.15,0.07,0.15,0.07,0.15,0.07L83,62.29h0L83.21,62h0Zm-2.43-1.11,0,0-0.15-.07-0.15-.07-0.12-.06-0.15-.07-0.12-.06-0.15-.07-0.12-.06-0.15-.07-0.12-.06-0.15-.07-0.12-.06-0.15-.07L79,60,78.85,60l-0.09,0-0.18.28,0.09,0,0.12,0.06,0.15,0.07,0.12,0.06,0.15,0.07,0.12,0.06,0.15,0.07,0.12,0.06,0.14,0.09,0.15,0.07L80,60.93,80.15,61,80.27,61l0.15,0.07,0.15,0.07h0l0.21-.27h0Zm-2.41-1.16-0.12-.06L78,59.61l-0.21-.11-0.18-.1-0.21-.08-0.18-.1-0.21-.08L76.85,59l-0.18-.1-0.18-.07-0.15-.07-0.18.28,0.12,0.06,0.21,0.11,0.18,0.07,0.21,0.11,0.18,0.1,0.21,0.08,0.18,0.1,0.21,0.11,0.21,0.08L78.07,60l0.09,0,0.21-.3h0ZM76,58.59l-0.06,0-0.18-.1-0.18-.07-0.18-.1-0.21-.08L75,58.12,74.8,58l-0.18-.07-0.18-.1-0.18-.07-0.18-.1L74,57.62l-0.21.27L73.9,58l0.18,0.07,0.18,0.1,0.18,0.07,0.18,0.1L74.8,58.4,75,58.5l0.18,0.1,0.18,0.07,0.21,0.11,0.18,0.07,0,0,0.21-.3h0Zm-2.41-1.18-0.18-.07-0.14-.09L73,57.17l-0.18-.1L72.69,57l-0.14-.09-0.18-.07-0.18-.1L72,56.64l-0.18-.07-0.14-.09-0.15-.07-0.18.3,0.12,0.06,0.15,0.07,0.18,0.1L72,57l0.14,0.09,0.18,0.1,0.18,0.07,0.14,0.09,0.18,0.07L73,57.54l0.18,0.07,0.18,0.1,0.18-.3h0Zm-2.37-1.2-0.12-.06-0.18-.07L70.74,56l-0.14-.09-0.18-.07-0.14-.09-0.15-.07-0.18-.1-0.14-.09-0.15-.07-0.14-.09-0.15-.07-0.11-.08L69,55.46l0.15,0.07,0.14,0.09,0.15,0.07,0.14,0.09,0.15,0.07,0.18,0.1L70.05,56l0.15,0.07,0.18,0.1,0.15,0.07,0.14,0.09,0.18,0.07L71,56.5l0.21-.3h0ZM68.83,55l-0.09,0-0.12-.06-0.14-.09-0.14-.09-0.15-.07L68,54.52l-0.15-.07-0.14-.09-0.14-.09-0.15-.07-0.11-.08L67.19,54,67,54l-0.11-.08-0.24.26,0.11,0.08L67,54.3l0.14,0.09,0.14,0.09,0.15,0.07,0.14,0.09,0.11,0.08,0.15,0.07,0.14,0.09L68.09,55,68.24,55l0.14,0.09,0.14,0.09,0.09,0L68.83,55h0Zm-2.27-1.3-0.06,0-0.11-.08-0.14-.09-0.12-.06L66,53.33l-0.11-.08-0.14-.09L65.6,53.1,65.45,53l-0.11-.08-0.14-.09-0.11-.08-0.15-.07-0.11-.08-0.11-.08h0l-0.27.25h0l0.14,0.09,0.12,0.06L64.84,53,65,53.1l0.11,0.08,0.14,0.09,0.12,0.06,0.14,0.09,0.14,0.09,0.11,0.08,0.14,0.09L66,53.74l0.14,0.09,0.14,0.09h0l0.24-.26h0Zm-2.22-1.38h0l-0.14-.09-0.12-.06L64,52.05,63.85,52l-0.14-.09-0.11-.08-0.11-.08-0.11-.08-0.11-.08-0.11-.08L63,51.39l-0.11-.08-0.11-.08-0.11-.08-0.11-.08-0.26.23,0.11,0.08,0.11,0.08,0.11,0.08,0.11,0.08,0.14,0.09L63,51.79l0.11,0.08,0.11,0.08L63.33,52l0.14,0.09,0.11,0.08,0.11,0.08,0.11,0.08L64,52.45l0.11,0.08h0l0.27-.25h0Zm-2.13-1.46h0l-0.11-.1L62,50.63l-0.11-.08-0.11-.08-0.11-.08-0.11-.08-0.11-.1-0.11-.08L61.21,50,61.13,50,61,49.86l-0.11-.08-0.11-.08-0.11-.08-0.11-.1h0l-0.29.2,0,0,0.11,0.08,0.11,0.1L60.61,50l0.11,0.08,0.11,0.1,0.11,0.08L61,50.35l0.11,0.1,0.11,0.08,0.11,0.08,0.11,0.08,0.11,0.08,0.11,0.1L61.83,51,61.94,51h0l0.26-.23h0Zm-2-1.59-0.09,0-0.11-.1L59.94,49l-0.08-.1-0.11-.08-0.11-.1-0.11-.08-0.08-.1-0.11-.08-0.11-.1-0.11-.08-0.08-.1-0.11-.1L58.84,48l-0.08-.1,0-.06L58.35,48l0.06,0,0.11,0.1,0.11,0.1,0.11,0.08,0.07,0.1,0.11,0.1L59,48.64l0.11,0.1,0.11,0.08,0.07,0.1L59.43,49l0.11,0.1,0.11,0.08,0.11,0.1,0.11,0.08,0,0.06,0.33-.21h0Zm-1.83-1.68-0.06,0-0.11-.1-0.08-.1-0.11-.08L58,47.11,57.89,47l-0.11-.1-0.11-.1-0.08-.1-0.11-.1-0.11-.1-0.08-.1-0.11-.1-0.11-.1L57,46.1l0,0-0.35.16,0,0,0.08,0.1,0.1,0.13L57,46.59l0.11,0.1,0.08,0.1,0.11,0.1L57.35,47l0.08,0.1,0.11,0.1,0.11,0.1,0.08,0.07,0.11,0.1,0.11,0.1L58,47.69l0,0,0.35-.18h0Zm-1.71-1.78-0.07-.1-0.08-.1-0.11-.1-0.07-.12-0.11-.1-0.11-.1L56.1,45,56,44.92l-0.11-.1-0.07-.12-0.11-.1-0.07-.12-0.11-.1-0.1-.13h0l-0.38.15h0l0.07,0.12,0.11,0.1,0.1,0.13,0.07,0.1L55.55,45l0.11,0.1,0.07,0.12,0.11,0.1,0.08,0.1L56,45.52l0.11,0.1,0.08,0.1,0.11,0.1,0.08,0.1,0.35-.16h0Zm-1.52-1.85,0,0-0.07-.1L55,43.66l-0.1-.13-0.07-.12-0.11-.1-0.1-.13-0.07-.12-0.1-.13-0.1-.13-0.07-.12-0.1-.13-0.1-.13L54,42.33l-0.37.13,0.07,0.12,0.1,0.13,0.1,0.13L54,43l0.1,0.13,0.1,0.13,0.08,0.1,0.1,0.13,0.1,0.13,0.07,0.12,0.1,0.13,0.11,0.1L54.79,44l0,0,0.38-.15h0ZM45,16.51L45,16.57l0.08,0.07,0.06,0,0.08,0.07,0.05,0.06,0.08,0.07L45.43,17l0.09,0,0.05,0.06,0.08,0.07,0.08,0.07,0.09,0,0.05,0.06L46,17.41,46,17.49l0.09,0,0.08,0.07,0.08,0.07,0.09,0,0.08,0.07,0.08,0.07,0,0,0.3-.22,0,0-0.08-.07-0.08-.07-0.09,0-0.08-.07-0.08-.07-0.09,0,0-.06-0.08-.07-0.09,0L46,17l-0.08-.07,0-.06-0.09,0-0.08-.07,0-.06-0.08-.07-0.06,0-0.08-.07-0.08-.07-0.05-.06-0.06,0L45,16.51h0Zm2,1.65,0,0,0.11,0.08,0.08,0.07,0.09,0,0.08,0.07,0.09,0,0.11,0.08,0.08,0.07,0.09,0,0.08,0.07,0.12,0.06L48,18.92,48.08,19l0.09,0,0.08,0.07,0.12,0.06,0.08,0.07,0.12,0.06,0.08,0.07,0.06,0,0.24-.26,0,0-0.12-.06L48.72,19l-0.12-.06-0.08-.07-0.09,0-0.11-.08-0.08-.07-0.09,0L48,18.54l-0.09,0-0.08-.07-0.09,0-0.08-.07-0.11-.08-0.09,0-0.08-.07-0.09,0L47.25,18l-0.06,0-0.26.23h0Zm2.15,1.49,0.08,0.07,0.12,0.06,0.11,0.08,0.09,0L49.6,20l0.11,0.08,0.09,0,0.11,0.08L50,20.24l0.11,0.08,0.12,0.06,0.11,0.08,0.09,0,0.12,0.06,0.11,0.08,0.12,0.06,0.11,0.08h0l0.24-.26h0l-0.11-.08-0.12-.06-0.11-.08-0.12-.06-0.12-.06-0.08-.07-0.12-.06L50.27,20l-0.12-.06L50,19.84l-0.09,0-0.12-.06-0.11-.08-0.09,0-0.11-.08-0.09,0-0.11-.08-0.24.26h0ZM51.34,21l0.06,0,0.14,0.09,0.12,0.06,0.12,0.06,0.11,0.08L52,21.38l0.12,0.06,0.14,0.09,0.12,0.06,0.12,0.06,0.12,0.06,0.14,0.09,0.12,0.06L53,21.91,53.16,22l0.12,0.06h0l0.21-.27,0,0-0.12-.06-0.15-.07-0.12-.06L53,21.5l-0.15-.07-0.12-.06-0.12-.06-0.11-.08-0.12-.06-0.15-.07L52.11,21,52,21l-0.12-.06-0.11-.08-0.12-.06-0.06,0L51.34,21h0Zm2.35,1.27,0.12,0.06L54,22.39l0.12,0.06,0.15,0.07,0.11,0.08,0.15,0.07,0.15,0.07,0.12,0.06,0.15,0.07,0.14,0.09L55.18,23l0.15,0.07,0.15,0.07,0.15,0.07,0.09,0,0.18-.3-0.09,0-0.15-.07-0.14-.09-0.12-.06-0.15-.07-0.15-.07L55,22.51l-0.15-.07-0.11-.08-0.15-.07-0.15-.07-0.12-.06-0.15-.07L54,22,53.91,22l-0.21.3h0Zm2.41,1.16,0.09,0,0.15,0.07,0.15,0.07,0.15,0.07,0.15,0.07,0.15,0.07,0.15,0.07,0.15,0.07L57.4,24l0.15,0.07,0.15,0.07,0.18,0.1L58,24.3l0.15,0.07,0.15-.31L58.17,24,58,23.92l-0.15-.07-0.15-.07-0.15-.07-0.15-.07-0.15-.07-0.15-.07L57,23.46l-0.14-.09-0.15-.07-0.15-.07-0.15-.07-0.06,0-0.21.27h0Zm2.46,1.1,0.09,0,0.15,0.07L59,24.71l0.18,0.07,0.15,0.07,0.16,0L59.63,25,59.78,25l0.15,0.07,0.18,0.07,0.15,0.07,0.18,0.07,0.15,0.07,0.06,0,0.15-.29,0,0L60.59,25l-0.16,0-0.18-.07-0.15-.07-0.18-.07-0.15-.07-0.15-.07-0.18-.07-0.15-.07-0.15-.07L59,24.33l-0.15-.07-0.06,0-0.18.28h0Zm2.51,1,0,0,0.18,0.07,0.18,0.07,0.16,0,0.18,0.07L62,25.93,62.14,26l0.18,0.07,0.18,0.07,0.19,0.05,0.18,0.07L63,26.34l0.12,0.06,0.15-.31L63.18,26,63,26l-0.15-.07-0.18-.07-0.18-.07-0.18-.07-0.15-.07L62,25.57l-0.18-.07-0.15-.07-0.18-.07-0.18-.07h0l-0.15.29h0Zm2.49,1,0.18,0.07,0.18,0.07,0.18,0.07,0.18,0.07,0.19,0.05L64.67,27,64.86,27,65,27.11l0.19,0.05,0.18,0.07,0.18,0.07,0.09,0L65.84,27l-0.09,0-0.18-.07-0.18-.07-0.19-.05L65,26.73l-0.18-.07-0.19-.05-0.18-.07-0.18-.07-0.18-.07-0.18-.07-0.19-.05-0.15.29h0Zm2.53,1h0l0.18,0.07,0.19,0.05,0.15,0.07,0.18,0.07,0.16,0,0.18,0.07L67.3,28,67.49,28l0.15,0.07,0.18,0.07,0.16,0,0.15,0.07,0.09,0L68.37,28l-0.09,0-0.16,0-0.18-.07-0.15-.07-0.16,0-0.18-.07-0.15-.07-0.19-.05L67,27.46l-0.18-.07-0.18-.07-0.16,0-0.18-.07h0l-0.15.31h0Zm2.54,0.94,0.12,0.06,0.16,0,0.15,0.07,0.15,0.07,0.16,0,0.15,0.07,0.15,0.07,0.16,0L70,29,70.14,29l0.16,0,0.15,0.07L70.6,29.2l0.13,0h0l0.15-.31h0l-0.16,0-0.12-.06-0.15-.07-0.16,0-0.15-.07-0.16,0-0.15-.07-0.15-.07-0.16,0-0.15-.07-0.15-.07-0.16,0-0.15-.07-0.15-.07-0.12.32h0Zm2.5,1h0l0.12,0.06,0.16,0,0.15,0.07,0.12,0.06,0.16,0L72,29.74l0.12,0.06,0.16,0,0.12,0.06L72.58,30l0.13,0,0.15,0.07L73,30.13l0.16,0,0.12,0.06,0.15-.31-0.12-.06-0.16,0L73,29.76l-0.15-.07-0.13,0-0.15-.07-0.13,0-0.15-.07-0.15-.07-0.13,0-0.15-.07-0.12-.06-0.16,0-0.15-.07-0.15-.07h0l-0.15.31h0Zm2.53,1,0.13,0,0.12,0.06,0.15,0.07,0.12,0.06,0.16,0,0.12,0.06,0.12,0.06,0.16,0,0.12,0.06L75,30.92l0.16,0L75.26,31l0.12,0.06,0.16,0,0.12,0.06,0.09,0,0.15-.31-0.09,0-0.13,0-0.12-.06-0.15-.07-0.13,0-0.12-.06L75,30.55l-0.13,0-0.15-.07-0.12-.06-0.12-.06-0.16,0-0.12-.06-0.15-.07-0.13,0-0.12-.06-0.15.31h0Zm2.49,1h0l0.15,0.07,0.13,0,0.12,0.06,0.15,0.07,0.12,0.06,0.16,0,0.12,0.06,0.12,0.06,0.15,0.07L77.49,32l0.13,0,0.15,0.07,0.12,0.06L78,32.18l0.12,0.06,0.06,0L78.4,32l-0.06,0-0.15-.07-0.12-.06-0.15-.07-0.13,0-0.15-.07-0.12-.06-0.12-.06-0.16,0-0.12-.06L77,31.37l-0.15-.07-0.13,0-0.15-.07-0.12-.06-0.12-.06h0l-0.15.31h0Zm2.48,1,0.06,0,0.12,0.06L79,32.59l0.13,0,0.15,0.07,0.12,0.06,0.15,0.07,0.15,0.07,0.12,0.06L79.94,33l0.12,0.06,0.15,0.07,0.16,0,0.12,0.06,0.15,0.07,0.06,0,0.18-.3-0.06,0-0.15-.07-0.15-.07-0.12-.06-0.15-.07-0.15-.07L80,32.63l-0.15-.07-0.12-.06-0.16,0-0.15-.07-0.12-.06-0.15-.07L79,32.22l-0.15-.07-0.06,0-0.15.29h0Zm2.44,1.07,0.12,0.06,0.15,0.07,0.15,0.07,0.15,0.07,0.15,0.07L82,33.88l0.15,0.07L82.26,34l0.15,0.07,0.14,0.09,0.15,0.07,0.15,0.07L83,34.36l0.12,0.06,0.18-.3-0.12-.06L83,34l-0.15-.07-0.18-.07-0.15-.07-0.15-.07-0.15-.07-0.15-.07L82,33.52l-0.12-.06-0.15-.07-0.15-.07-0.15-.07-0.12-.06-0.18.28h0Zm2.46,1.12,0.09,0,0.15,0.07,0.14,0.09,0.18,0.07,0.15,0.07L84.44,35l0.15,0.07,0.18,0.1,0.15,0.07,0.18,0.07,0.15,0.07,0.18,0.1,0.15,0.07,0.18-.3-0.15-.07-0.18-.07L85.28,35l-0.18-.1L85,34.87l-0.18-.07-0.15-.07-0.18-.1-0.15-.07-0.18-.07L84,34.42l-0.15-.07-0.09,0-0.18.3h0ZM86,35.72l0.15,0.07,0.18,0.07L86.47,36,86.66,36l0.18,0.07L87,36.21l0.18,0.07,0.18,0.1,0.21,0.08,0.18,0.07,0.18,0.1,0.06,0,0.18-.28-0.06,0-0.18-.07-0.18-.1-0.18-.07L87.37,36l-0.18-.1L87,35.83l-0.18-.1-0.18-.07-0.18-.07-0.18-.1-0.15-.07-0.18.3h0Zm2.43,1.11,0.12,0.06L88.72,37l0.21,0.08,0.18,0.1,0.21,0.11,0.21,0.08,0.18,0.1,0.21,0.08,0.21,0.11,0.21,0.11,0.09,0,0.18-.28-0.09,0-0.21-.11-0.21-.08-0.21-.11-0.18-.07L89.5,37l-0.21-.11-0.18-.07-0.21-.11-0.18-.07-0.15-.07-0.18.28h0ZM90.81,38L91,38.06l0.21,0.08,0.24,0.11,0.21,0.11,0.21,0.11,0.24,0.09,0.21,0.11,0.24,0.12,0.21,0.11,0.12,0.06,0.18-.3-0.09,0-0.24-.12-0.24-.09-0.21-.11L92,38.17l-0.21-.11L91.58,38l-0.21-.11-0.24-.12L91,37.7l-0.21.3h0Zm2.42,1.14,0.18,0.07,0.24,0.12,0.24,0.12,0.24,0.12,0.24,0.11,0.27,0.12,0.24,0.12L95.1,40l0.15,0.07,0.18-.28-0.14-.09L95,39.6l-0.24-.12-0.24-.09-0.24-.12-0.24-.12L93.85,39l-0.24-.12-0.18-.1-0.21.3h0Zm2.42,1.14,0.21,0.11,0.27,0.12,0.24,0.12,0.27,0.12,0.27,0.12L97.16,41l0.27,0.12,0.24,0.12,0.18-.3-0.24-.12-0.27-.12-0.27-.12-0.27-.12-0.24-.12-0.27-.12-0.24-.12L95.85,40l-0.21.27h0Zm2.41,1.16,0.18,0.07,0.26,0.15,0.27,0.12,0.3,0.13,0.26,0.15,0.3,0.13,0.3,0.13,0.14,0.09,0.18-.3L100.11,42l-0.29-.16-0.27-.12-0.3-.13L99,41.48l-0.3-.13-0.27-.12-0.15-.07-0.21.27h0Zm2.41,1.16h0l0.3,0.13,0.29,0.16L101.4,43l0.29,0.16L102,43.3l0.33,0.16,0.18,0.07,0.18-.28-0.18-.1L102.2,43l-0.33-.16-0.3-.13-0.29-.16-0.3-.13-0.3-.13v0l-0.21.3h0Zm2.41,1.16h0l0.33,0.16,0.33,0.14,0.29,0.16,0.33,0.14,0.33,0.16,0.33,0.16,0.06,0,0.18-.28-0.06,0-0.33-.14-0.33-.16-0.29-.16-0.33-.14-0.33-.16-0.29-.16h0l-0.21.3h0Zm2.42,1.14L105.51,45l0.36,0.17,0.33,0.16,0.33,0.16,0.36,0.15,0.36,0.17,0.09,0,0.18-.28-0.09,0-0.36-.17-0.33-.16L106.37,45,106,44.86l-0.33-.14-0.21-.11-0.21.27h0ZM107.71,46l0.21,0.11,0.36,0.17,0.36,0.17L109,46.67l0.39,0.18L109.74,47l0.18-.3-0.36-.17-0.36-.17-0.36-.17L108.49,46l-0.36-.15-0.21-.11-0.21.27h0Zm2.41,1.16,0.36,0.17,0.39,0.18,0.36,0.17,0.39,0.18,0.38,0.2,0.15,0.07,0.18-.3-0.15-.07-0.39-.18-0.36-.17L111,47.27l-0.39-.18-0.36-.17-0.18.28h0Zm2.41,1.16,0.24,0.12,0.42,0.19,0.38,0.2L114,49.05l0.42,0.19,0.18,0.1,0.18-.3L114.56,49l-0.38-.2-0.42-.19-0.39-.18L113,48.2l-0.27-.12-0.18.28h0ZM115,49.52l0.24,0.12,0.42,0.19L116,50l0.42,0.19,0.44,0.22,0.09,0,0.18-.28-0.09,0L116.65,50l-0.41-.21-0.42-.19-0.41-.21-0.27-.12-0.18.3h0Zm2.41,1.16,0.18-.3,0.39,0.18,0.41,0.21L118.8,51l0.41,0.21,0.36,0.15-0.18.3L119,51.46l-0.42-.19-0.44-.22-0.45-.2-0.36-.17h0Zm2.42,1.14,0.15,0.07,0.42,0.19,0.45,0.2,0.45,0.2,0.44,0.22,0.12,0.06,0.18-.3-0.15-.07-0.42-.19L121,52l-0.45-.2-0.41-.21L120,51.51l-0.18.3h0Zm2.46,1.1,0.33,0.16,0.45,0.2,0.45,0.2,0.46,0.17,0.36,0.17,0.18-.3-0.36-.15-0.45-.2-0.45-.2-0.45-.2-0.33-.14-0.18.28h0ZM124.71,54L124.83,54l0.45,0.2,0.45,0.2,0.46,0.17,0.45,0.2,0.13,0,0.18-.28-0.12-.06-0.45-.2-0.46-.17-0.45-.2-0.45-.2-0.16,0-0.15.29h0ZM127.19,55l0.39,0.16L128,55.37l0.45,0.2L129,55.74l0.33,0.14,0.15-.31-0.33-.14-0.46-.17-0.46-.17-0.45-.2-0.39-.16-0.15.31h0Zm2.49,1,0.21,0.08,0.46,0.17,0.46,0.17,0.46,0.17,0.49,0.18,0,0,0.15-.31h0l-0.48-.21L131,56.16,130.5,56,130,55.81l-0.21-.08-0.15.31h0Zm2.53,1h0l0.46,0.17,0.49,0.18,0.43,0.17L134,57.71l0.24,0.09,0.15-.31-0.24-.09-0.46-.15-0.46-.17-0.46-.17-0.46-.17h0l-0.15.29h0Zm2.5,1,0.28,0.1,0.49,0.18,0.46,0.15,0.46,0.17,0.43,0.14,0.11-.3-0.4-.16-0.46-.15-0.49-.18-0.46-.17-0.31-.11-0.12.32h0Zm2.55,0.92,0.09,0,0.49,0.18,0.46,0.15,0.46,0.17,0.5,0.16,0.12,0.06,0.12-.32-0.13,0-0.46-.17-0.5-.16L138,58.77l-0.46-.17-0.13,0-0.12.32h0Zm2.55,0.89,0.4,0.13,0.46,0.15,0.49,0.18,0.46,0.15,0.31,0.11,0.12-.32-0.31-.11-0.46-.15-0.5-.16-0.46-.17-0.4-.13-0.12.32h0Zm2.56,0.87,0.22,0.06L143,60.88l0.5,0.16L144,61.19l0.5,0.16h0l0.12-.32h0l-0.5-.16-0.46-.15-0.5-.16-0.46-.15-0.21-.08-0.12.32h0Zm2.56,0.85h0l0.46,0.15,0.5,0.16L146.39,62l0.5,0.16,0.22,0.06,0.09-.33L147,61.8l-0.46-.15L146,61.49l-0.5-.16-0.46-.15h0l-0.12.32h0Zm2.57,0.82,0.31,0.09,0.5,0.16,0.46,0.15,0.46,0.15L149.68,63l0.09-.33-0.41-.11-0.46-.15-0.5-.16-0.46-.15L147.63,62l-0.12.32h0Zm2.61,0.81,0.09,0,0.46,0.15,0.5,0.14,0.46,0.15,0.47,0.13,0.16,0,0.12-.32-0.19-.05-0.47-.13-0.46-.15L150.79,63l-0.46-.15-0.13,0-0.09.33h0Zm2.58,0.78L153,64l0.5,0.16L154,64.29l0.47,0.13,0.4,0.13,0.09-.33-0.41-.11L154.1,64l-0.47-.13-0.46-.15-0.34-.09-0.12.32h0Zm2.59,0.75,0.13,0,0.47,0.13L156.35,65l0.47,0.13,0.47,0.13,0.19,0.05,0.09-.33-0.19-.05-0.44-.12-0.47-.13-0.5-.14-0.46-.15-0.09,0-0.12.32h0Zm2.63,0.74,0.31,0.09,0.46,0.15,0.47,0.13,0.47,0.13L160.07,66l0.09-.33-0.44-.12-0.47-.13-0.47-.13-0.47-.13L158,65.07l-0.09.33h0Zm2.6,0.73,0.06,0L161,66.26l0.47,0.13L162,66.52l0.44,0.12,0.31,0.09,0.09-.33-0.31-.09L162,66.19l-0.47-.13-0.47-.13-0.44-.12-0.06,0-0.09.33h0Zm2.63,0.71,0.19,0.05L163.77,67l0.48,0.1,0.44,0.12,0.47,0.13,0.16,0,0.09-.33-0.16,0-0.47-.13-0.44-.12-0.48-.1-0.44-.12-0.19-.05-0.09.33h0Zm2.61,0.68,0.31,0.09,0.45,0.1L167,67.82,167.43,68l0.45,0.1,0.09,0,0.06-.34H168l-0.47-.13L167,67.49l-0.44-.12-0.48-.1-0.28-.08-0.09.33h0Zm2.62,0.66,0.38,0.1,0.45,0.1,0.44,0.12,0.44,0.12,0.45,0.1,0.06,0,0.06-.34h0l-0.45-.1-0.44-.12-0.44-.12-0.45-.1-0.38-.1-0.09.33h0ZM171,68.85l0.38,0.08L171.84,69l0.45,0.1,0.41,0.11,0.45,0.1,0.06,0,0.09-.33-0.06,0-0.45-.1-0.44-.12-0.45-.1-0.41-.11-0.41-.09-0.06.34h0Zm2.63,0.61L174,69.56l0.45,0.1,0.41,0.11,0.45,0.1L175.7,70l0.16,0,0.06-.34-0.16,0-0.41-.11-0.41-.09-0.45-.1-0.41-.11-0.35-.07-0.08.31h0Zm2.62,0.64,0.29,0.05L177,70.26l0.41,0.09,0.41,0.09,0.41,0.09,0.28,0.08,0.06-.34-0.29-.05-0.41-.11L177.44,70,177,69.92l-0.41-.11-0.26,0-0.09.33h0Zm2.67,0.6,0.09,0,0.41,0.09,0.41,0.09,0.38,0.1,0.41,0.09,0.41,0.09,0.06,0,0.06-.34-0.06,0-0.41-.09-0.41-.09-0.38-.08-0.41-.11-0.41-.09-0.09,0-0.06.34h0Zm2.63,0.59,0.28,0.08,0.38,0.08,0.38,0.08L183,71.61l0.38,0.08,0.35,0.07,0.06-.34-0.35-.07-0.38-.08-0.41-.09-0.38-.08L181.91,71l-0.28-.08-0.06.34h0Zm2.64,0.57,0.34,0.09L184.94,72l0.38,0.08,0.35,0.07,0.38,0.08,0.35,0.07,0.06-.34-0.35-.07-0.38-.08-0.35-.07L185,71.68l-0.38-.08-0.34-.09-0.06.34h0Zm2.64,0.57,0.32,0.06,0.35,0.07,0.35,0.07,0.38,0.08,0.35,0.07L189,72.84l0.13,0,0-.35H189l-0.35-.07-0.38-.08-0.35-.09-0.35-.07-0.35-.07-0.32-.06-0.06.34h0ZM189.5,73l0.16,0L190,73.07l0.32,0.06,0.35,0.07L191,73.27l0.32,0.06,0.35,0.07h0l0-.35h0L191.41,73l-0.35-.07-0.32-.06-0.35-.07L190,72.72l-0.32-.06-0.16,0L189.5,73h0Zm2.65,0.52,0.19,0.05,0.32,0.06L193,73.65l0.32,0.06,0.32,0.06,0.32,0.06,0.32,0.06h0.13l0-.32-0.13,0L194,73.5l-0.32-.06-0.32-.06L193,73.31l-0.32-.06-0.32-.06-0.19-.05-0.06.34h0ZM194.81,74l0.06,0,0.29,0.05,0.32,0.06,0.29,0.05,0.29,0.05,0.29,0.05,0.29,0.05,0.29,0.05,0.13,0,0-.35L197,74,196.66,74l-0.26,0-0.29-.05-0.32-.06-0.29-.05-0.29-.05-0.32-.06h0l-0.06.34h0Zm2.66,0.49,0.29,0.05,0.26,0,0.29,0.05,0.26,0,0.26,0,0.26,0,0.26,0,0.26,0,0.09,0,0.06-.34h-0.13l-0.26,0-0.22-.06-0.29-.05-0.26,0-0.26,0-0.26,0-0.29-.05-0.26,0Z"/><path class="cls-6" d="M127.5,115.33s-17.57-29.82-21.83-55.68S100.7,18,89.47,6.19l22.56,20s19.45,16.44,24.92,31.13,24.84,47.55,41.8,70.16c0,0-4.58.15-14.66-3A376.64,376.64,0,0,0,127.5,115.33Z"/><path class="cls-4" d="M94.87,11l0.93,0.78h0l0.09,0.18L96,12.1l0.09,0.15,0.09,0.18,0,0.06-0.4.09,0-.06-0.13-.16-0.09-.15L95.52,12l-0.13-.16-0.09-.15-0.09-.15-0.13-.14L95,11.27l-0.13-.16L94.8,11h0.07Zm31.49,29.63,0.48,0.59,0,0,0-.06L126.62,41l-0.12-.18-0.12-.18,0,0h0Zm0.76,0.91c0.4,0.51.83,1,1.26,1.55l-0.3.1v0L128,43l-0.12-.18-0.12-.18-0.16-.17-0.12-.18-0.12-.18-0.12-.18-0.12-.18L127,41.55l0.11,0h0Zm1.51,1.87,0.52,0.67,0,0.06,0.12,0.18,0.12,0.18,0.12,0.18,0.12,0.18L129.74,45l-0.4.12L129.24,45l-0.12-.18L129,44.63l-0.12-.18-0.12-.18-0.12-.18-0.12-.18-0.12-.18-0.12-.18,0,0,0.33-.09h0Zm48.26,84-0.52-.07-0.14-.22,0.37-.13,0.2,0.26,0.09,0.15h0Zm-46.77-11.53-0.13,0,0.11,0,0,0.06h0Zm46.27,10.79-0.2-.26-0.22-.29-0.19-.28-0.19-.3-0.22-.29-0.12-.18-0.38.15,0.12,0.16,0.19,0.3,0.22,0.29,0.19,0.28,0.22,0.29,0.16,0.27,0.41-.14h0Zm-1.4-1.92,0-.06-0.19-.3-0.22-.29-0.19-.3-0.22-.29-0.19-.28,0-.06-0.37.13,0,0.06,0.22,0.29,0.19,0.3,0.23,0.29,0.19,0.3,0.22,0.29,0,0.06,0.37-.13h0Zm-1.33-1.93-0.15-.19-0.22-.31L173.1,122l-0.22-.31-0.22-.31-0.14-.22-0.38.15,0.14,0.22,0.22,0.29,0.19,0.3,0.22,0.29,0.19,0.3,0.15,0.19,0.4-.12h0Zm-1.36-1.94-0.05-.06-0.19-.3-0.22-.29-0.19-.3-0.22-.31-0.22-.31,0,0-0.37.13,0,0.06,0.22,0.29,0.19,0.3,0.22,0.31,0.19,0.3,0.22,0.29,0,0.06,0.37-.13h0ZM171,118.92l-0.17-.25-0.19-.3-0.22-.31-0.22-.31-0.19-.3-0.12-.16-0.37.13,0.09,0.15,0.22,0.31,0.19,0.3,0.22,0.31,0.22,0.31L170.6,119l0.37-.13h0Zm-1.32-2-0.09-.15-0.19-.3-0.22-.31-0.22-.31-0.19-.3-0.17-.25-0.4.12,0.17,0.25,0.22,0.31,0.22,0.31,0.19,0.3,0.22,0.31,0.09,0.15,0.37-.13h0ZM168.36,115l0-.06-0.19-.3-0.22-.31-0.22-.31-0.19-.3-0.21-.34h0l-0.4.12h0l0.21,0.34,0.22,0.31,0.19,0.3,0.22,0.31,0.22,0.31,0,0.06,0.4-.12h0Zm-1.28-2-0.19-.28-0.22-.31-0.21-.34-0.19-.3-0.22-.31,0-.09-0.4.12,0,0.09,0.22,0.31,0.22,0.31,0.18,0.33,0.22,0.31,0.19,0.28,0.4-.12h0Zm-1.29-1.94-0.14-.24-0.22-.31-0.22-.31-0.18-.33-0.22-.31-0.1-.13-0.36.1,0.06,0.14,0.22,0.31,0.21,0.34,0.19,0.3,0.22,0.31,0.14,0.24,0.4-.12h0Zm-1.28-2-0.09-.18-0.22-.31-0.21-.34-0.19-.3-0.21-.34-0.12-.18-0.4.12,0.12,0.18,0.21,0.34,0.22,0.31,0.18,0.33L164,109.1l0.12,0.18,0.37-.13h0Zm-1.25-2-0.06-.14-0.22-.31-0.21-.34-0.19-.3-0.21-.34-0.14-.22-0.4.12,0.14,0.22,0.21,0.34,0.22,0.31,0.18,0.33,0.22,0.31,0.09,0.15,0.37-.13h0Zm-1.25-2,0-.09-0.22-.31-0.18-.33-0.22-.31-0.21-.34-0.14-.24-0.4.09,0.16,0.27,0.19,0.3,0.21,0.34,0.21,0.34,0.19,0.3,0.08,0.1,0.37-.13h0Zm-1.22-1.95,0-.06-0.18-.33-0.22-.31-0.18-.33-0.22-.31-0.19-.3-0.4.09,0.19,0.3,0.21,0.34,0.19,0.3,0.21,0.34,0.18,0.33,0,0.06,0.4-.12h0Zm-1.25-2v0l-0.22-.31-0.18-.33-0.21-.34-0.19-.3-0.21-.34h0l-0.4.09,0,0,0.19,0.3,0.21,0.34,0.18,0.33,0.22,0.31,0.18,0.33,0,0,0.37-.13h0Zm-1.22-2-0.19-.3-0.18-.33-0.19-.3-0.21-.34-0.18-.33,0-.06-0.4.12,0,0.06,0.19,0.3,0.21,0.34,0.18,0.33,0.22,0.31,0.18,0.33,0.37-.13h0Zm-1.18-2L157,97.09l-0.21-.34-0.19-.3-0.18-.33-0.21-.34,0-.09-0.4.12,0,0.09L156,96.22l0.18,0.33,0.21,0.34,0.19,0.3,0.16,0.27,0.4-.09h0Zm-1.21-2-0.11-.21-0.21-.34-0.19-.3-0.18-.33L155,93.85l-0.06-.14-0.4.12L154.64,94l0.19,0.3L155,94.61l0.18,0.33,0.22,0.31,0.11,0.23,0.4-.12h0Zm-1.18-2-0.09-.15-0.18-.33-0.19-.3-0.21-.34-0.18-.33-0.11-.21-0.4.12L153.48,92l0.18,0.33,0.22,0.31L154.06,93l0.19,0.3,0.09,0.18,0.4-.12h0Zm-1.18-2,0-.09-0.19-.3-0.18-.33-0.21-.34-0.19-.3-0.16-.29-0.4.12,0.16,0.27,0.18,0.33,0.22,0.31,0.18,0.33,0.18,0.33,0,0.09,0.4-.12h0Zm-1.15-2h0l-0.18-.33L152,88.75l-0.19-.3-0.18-.33-0.19-.3,0-.06-0.4.09,0,0.06,0.18,0.33,0.19,0.3,0.18,0.33,0.19,0.3L152,89.5l0,0,0.4-.12h0Zm-1.18-2-0.14-.24-0.18-.33-0.16-.29-0.18-.33-0.19-.3-0.09-.18-0.4.09L150,86l0.19,0.3,0.15,0.32,0.19,0.3,0.18,0.33,0.14,0.24,0.4-.09h0Zm-1.14-2L150,85.3,149.84,85l-0.16-.29-0.18-.33-0.19-.3-0.16-.29-0.4.12,0.16,0.27,0.18,0.33,0.16,0.29,0.19,0.3,0.18,0.33,0.07,0.12,0.4-.09h0Zm-1.11-2h0l-0.19-.3-0.15-.32-0.19-.3-0.19-.3-0.15-.32-0.07-.12-0.4.09L147.72,82l0.16,0.29,0.19,0.3,0.15,0.32,0.19,0.3,0.19,0.3h0l0.4-.09h0Zm-1.11-2-0.09-.15L147.6,81l-0.16-.29-0.19-.3-0.16-.29-0.16-.29-0.43.09,0.19,0.3,0.16,0.29,0.19,0.3,0.15,0.32,0.16,0.29,0.09,0.15,0.43-.09h0Zm-1.11-2-0.16-.29-0.19-.3-0.16-.29-0.16-.29L146,78l-0.11-.21-0.4.09,0.08,0.2,0.19,0.3,0.16,0.29L146,78.94l0.19,0.3,0.12,0.29,0.43-.09h0Zm-1.1-2,0-.06-0.16-.29-0.16-.29-0.16-.29L145,76.18l-0.16-.29-0.06-.14-0.43.09L144.41,76l0.19,0.3,0.16,0.29,0.16,0.29,0.16,0.29,0.16,0.29,0,0.06,0.4-.09h0Zm-1.07-2-0.07-.12L144.37,75l-0.16-.29-0.16-.29-0.16-.29-0.16-.27,0-.11-0.4.09,0,0.11,0.16,0.27,0.16,0.29,0.16,0.29,0.12,0.29,0.16,0.29,0.07,0.12,0.43-.09h0Zm-1.07-2-0.06-.14L143.3,73l-0.16-.27L143,72.42l-0.16-.29-0.16-.27,0-.11-0.43.09,0.07,0.12,0.16,0.27,0.12,0.29,0.16,0.29,0.16,0.27L143,73.35l0.09,0.15,0.4-.09h0Zm-1-2-0.08-.1L142.29,71l-0.16-.27L142,70.45l-0.16-.27-0.12-.29-0.09-.18-0.43.09L141.29,70l0.16,0.27,0.12,0.29,0.16,0.27,0.12,0.29L142,71.36l0,0.11,0.43-.09h0Zm-1-2,0,0-0.13-.26-0.13-.26L141,68.54l-0.16-.29L140.75,68l-0.13-.26,0,0-0.39.07,0,0.06,0.13,0.26,0.13,0.26,0.13,0.26,0.12,0.29,0.13,0.26L141,69.43v0l0.43-.09h0Zm-1-2-0.09-.15-0.13-.26-0.13-.26L140,66.41l-0.13-.26-0.13-.26-0.11-.23-0.4.09L139.31,66l0.13,0.26,0.1,0.25,0.13,0.26L139.8,67l0.13,0.26L140,67.44l0.43-.09h0Zm-1-2-0.11-.23-0.13-.26-0.1-.25L139,64.35l-0.13-.26-0.1-.25-0.11-.21-0.4.09,0.08,0.2,0.14,0.24,0.1,0.25,0.13,0.26,0.13,0.26,0.11,0.23L139,65.4l0.42-.06h0Zm-1-2.05-0.11-.21-0.11-.23-0.1-.25L138,62.35l-0.11-.23-0.1-.25-0.11-.23,0,0-0.42.06,0,0L137.4,62l0.11,0.23,0.14,0.24,0.1,0.25,0.11,0.23L138,63.17l0.08,0.2,0.43-.09h0Zm-0.93-2,0-.11-0.11-.23-0.14-.24-0.07-.22-0.11-.23L137,60l-0.11-.23-0.08-.2-0.42.06,0.08,0.2,0.11,0.23,0.11,0.23,0.11,0.23,0.11,0.23L137,61l0.1,0.25,0,0.09,0.42-.06h0Zm-0.93-2,0-.13-0.11-.23-0.11-.23-0.08-.2-0.11-.23L136.13,58,136,57.76l-0.07-.22,0,0-0.42.06,0,0,0.07,0.22L135.71,58l0.07,0.22,0.11,0.23,0.08,0.2,0.11,0.23,0.11,0.23,0.06,0.14,0.39-.07h0Zm-0.86-2.05,0-.06-0.08-.2-0.07-.22-0.08-.2-0.08-.2-0.08-.2-0.07-.22-0.08-.2-0.11-.21h0l-0.41,0v0l0.08,0.2,0.08,0.2,0.08,0.2L135,56.35l0.08,0.2,0.08,0.2L135.25,57l0.08,0.2,0,0.06,0.42-.06h0ZM135,55.1l0,0-0.08-.2-0.07-.22-0.08-.2-0.08-.2L134.5,54l-0.08-.2,0-.19-0.08-.2,0,0-0.42.06,0,0,0.08,0.2,0.08,0.2,0.11,0.21,0,0.19,0.08,0.2,0.08,0.2,0.07,0.22,0.08,0.2,0,0L135,55.1h0Zm-0.86-2v0l-0.08-.2-0.11-.21-0.08-.2-0.11-.21-0.09-.18-0.08-.2-0.11-.21-0.08-.2,0-.09-0.43.09,0,0.09,0.08,0.2,0.12,0.18,0.08,0.2,0.11,0.21,0.08,0.2,0.11,0.21,0.08,0.2,0.08,0.2h0l0.39-.07h0Zm-1-2L133,50.87l-0.11-.21-0.08-.2-0.11-.21-0.09-.18-0.11-.21-0.11-.21-0.09-.18-0.09-.15-0.4.09,0.06,0.14L132,49.76,132.14,50l0.08,0.2,0.12,0.18,0.08,0.2,0.11,0.21,0.09,0.18,0.09,0.18,0.42-.06h0Zm-1.06-2L132,48.89l-0.08-.2-0.12-.18-0.11-.21-0.12-.18-0.08-.2-0.12-.18-0.11-.21-0.12-.18h0l-0.4.09h0l0.11,0.21L131,47.83,131,48l0.12,0.18,0.11,0.21,0.12,0.18,0.08,0.2L131.59,49l0.07,0.12,0.4-.09h0Zm-1.11-2,0-.06-0.09-.18-0.12-.18-0.11-.21-0.12-.18L130.35,46l-0.11-.21-0.12-.18L130,45.45l0-.09-0.4.12,0,0.09,0.12,0.18,0.12,0.18,0.12,0.18,0.12,0.18,0.11,0.21,0.12,0.18,0.12,0.18,0.08,0.2,0.06,0,0.4-.09h0ZM96.06,12.93l0,0.09,0.09,0.18,0.09,0.15,0.12,0.18,0.09,0.15,0.09,0.18L96.68,14l0.09,0.18,0.09,0.18,0.09,0.15,0,0.09,0.4-.09,0-.09-0.09-.18-0.09-.15-0.09-.18L97,13.76l-0.09-.18-0.09-.18-0.09-.15-0.12-.18-0.09-.15,0-.09-0.4.09h0Zm1.11,2,0,0.09,0.09,0.18,0.09,0.18,0.06,0.14,0.09,0.18,0.09,0.18L97.71,16,97.8,16.2l0.09,0.18,0.06,0.17,0,0.06,0.43-.09,0-.06-0.09-.18-0.09-.18-0.06-.17L98,15.76,98,15.59l-0.09-.15-0.09-.18-0.09-.18-0.09-.18,0-.09-0.4.09h0Zm1,2L98.21,17l0.06,0.17,0.08,0.2,0.09,0.18,0.06,0.17,0.09,0.18,0.09,0.18,0.06,0.17,0.09,0.18,0,0.19h0l0.45-.05h0l0-.19-0.09-.18L99.08,18,99,17.86l-0.09-.18,0-.19-0.09-.18-0.09-.18L98.6,17l0-.11-0.43.09h0ZM99,19h0l0.08,0.2,0.06,0.17,0.09,0.18,0,0.19,0.09,0.18,0,0.19,0.09,0.18,0,0.19,0.09,0.18v0.08l0.45,0,0-.09,0-.19-0.09-.18,0-.19-0.09-.18,0-.19-0.09-.18,0-.19-0.09-.18,0-.19h0L99,19h0ZM99.78,21l0,0.13,0,0.19L100,21.53l0,0.19,0,0.19,0.09,0.18,0,0.19,0,0.19,0.08,0.2v0.08l0.45,0,0-.09,0-.19-0.08-.2,0-.19,0-.19-0.09-.18,0-.19,0-.19-0.09-.18,0-.13-0.41,0h0Zm0.65,2.07,0,0.13,0.08,0.2,0,0.19,0,0.19,0,0.19,0.08,0.2,0,0.19,0,0.19,0,0.19,0,0.06,0.45,0,0-.06,0-.19-0.08-.2,0-.19,0-.19,0-.19,0-.19L101,23.4l0-.19,0-.13-0.45,0h0ZM101,25.19l0,0.19,0,0.19,0,0.19,0,0.21,0,0.19,0.08,0.2,0,0.21,0,0.19,0,0.13h0.44l0-.13-0.08-.2,0-.21,0-.19,0-.21,0-.19,0-.19-0.07-.22,0-.19-0.41,0h0Zm0.52,2.06,0,0.13,0,0.19,0,0.21,0,0.21,0.08,0.2,0,0.21,0,0.21,0,0.21L102,29h0.44l0-.16,0-.19,0-.21-0.07-.22,0-.19,0-.21,0-.21,0-.19,0-.13h-0.44ZM102,29.33l0,0.13,0,0.21,0,0.21,0,0.21,0,0.21,0,0.21,0,0.21,0,0.21,0,0.11h0.44l0-.11,0-.21,0-.21,0-.21,0-.21,0-.21,0-.21,0-.21,0-.13H102Zm0.44,2.09,0,0.19,0,0.21,0,0.24,0,0.21,0,0.21,0,0.24,0,0.21,0,0.21h0.44l0-.21,0-.21,0-.24,0-.21,0-.21,0-.21,0-.24,0-.19h-0.44Zm0.41,2.08v0.1l0,0.24,0,0.21,0,0.24,0,0.21,0,0.24,0,0.21,0.07,0.25v0h0.44v0l0-.24-0.07-.25,0-.21,0-.24,0-.24,0-.21,0-.24v-0.1H102.9Zm0.37,2.1v0.08l0,0.21,0,0.24,0,0.24,0,0.24,0,0.24,0,0.24,0,0.24h0l0.46,0,0,0,0-.24,0-.24,0-.24,0-.24,0-.21,0-.24,0-.24V35.59h-0.44Zm0.35,2.06v0.13L103.69,38l0,0.24,0,0.24,0,0.24,0,0.24,0,0.26,0,0.16,0.46,0,0-.19,0-.24,0-.24,0-.26,0-.24,0-.24,0-.24,0-.11-0.43,0h0ZM104,39.75L104,40l0,0.26,0,0.24,0,0.26,0,0.24,0.06,0.27,0,0.24v0l0.43,0v0l0-.26,0-.24-0.06-.27,0-.24,0-.26,0-.24,0-.21-0.43,0h0Zm0.34,2.09V42l0,0.26,0.06,0.27,0,0.24,0,0.26,0,0.26,0.06,0.27,0,0.06,0.43,0V43.51l0-.26L104.9,43l0-.26,0-.26,0-.26L104.74,42V41.85l-0.43,0h0Zm0.31,2.08V44l0.06,0.27,0,0.26,0,0.26,0.06,0.27,0,0.26,0,0.26,0,0.06,0.43,0v0l-0.06-.27,0-.26-0.06-.27,0-.26,0-.26,0-.26,0-.11-0.43,0h0ZM104.93,46l0,0.16L105,46.42l0,0.26,0,0.26,0.06,0.29,0,0.26,0,0.24,0.43,0,0-.26,0-.26,0-.26-0.06-.27,0-.28-0.06-.27V46l-0.46,0h0Zm0.34,2.09,0,0.24,0,0.28,0.06,0.27,0,0.28,0.06,0.27,0,0.28,0,0.11,0.43,0V49.71l-0.06-.27-0.06-.29,0-.26-0.06-.29,0-.26,0-.24-0.43,0h0Zm0.31,2.08,0,0.11,0,0.28,0.06,0.29,0,0.26,0.06,0.29,0.06,0.29V51.9l0.46,0,0-.21-0.06-.29,0-.28-0.06-.29-0.06-.29,0-.26,0-.11-0.43,0h0Zm0.34,2.09v0L106,52.57,106,52.86l0,0.28,0.06,0.29,0.06,0.29,0,0.26,0.43,0,0-.26-0.06-.29-0.06-.29,0-.28-0.06-.29-0.06-.29v0l-0.43,0h0Zm0.34,2.09,0,0.28,0.06,0.29,0,0.32,0.06,0.29,0.06,0.29,0,0.26H107l0-.24,0-.32-0.06-.29-0.06-.29,0-.31-0.06-.27-0.43,0h0Zm0.34,2.09h0l0,0.32L106.72,57l0,0.32,0.06,0.29,0,0.32,0,0.21h0.44l0-.21-0.06-.29,0-.32-0.06-.29,0-.32L107,56.44v0h-0.44ZM107,58.51l0,0.06,0,0.32,0,0.32,0.08,0.32,0,0.32,0,0.32v0.08l0.43,0v-0.1l0-.32,0-.32,0-.32-0.09-.3,0-.32V58.51H107Zm0.38,2.07,0,0.21,0,0.32,0,0.32,0,0.32,0.08,0.32,0,0.26h0.44l0-.26,0-.32-0.08-.32,0-.32,0-.32,0-.19-0.43,0h0Zm0.37,2.1,0,0,0,0.32,0.08,0.32,0,0.32L108,64l0.08,0.32v0.08h0.44V64.34L108.43,64l-0.08-.32,0-.34L108.22,63l0-.32,0,0h-0.44Zm0.44,2.09,0,0.21,0.08,0.32,0.08,0.32L108.44,66l0,0.32,0.07,0.22H109l-0.07-.22-0.08-.32,0-.32-0.08-.32L108.63,65l0-.21h-0.44Zm0.48,2.08v0.08l0.08,0.32,0.08,0.32,0.08,0.32L109,68.23l0.11,0.33v0h0.44l0,0-0.08-.32-0.08-.32-0.08-.32-0.08-.32-0.08-.32V66.84h-0.44Zm0.54,2.09,0.06,0.27,0.08,0.32,0.08,0.32,0.11,0.33,0.08,0.32,0.06,0.17,0.41,0,0-.16-0.11-.33-0.08-.32-0.08-.32-0.08-.32-0.1-.25-0.41,0h0ZM109.73,71l0.06,0.14,0.08,0.32,0.08,0.32,0.11,0.33,0.08,0.32,0.09,0.3,0.45,0-0.09-.3-0.11-.33-0.08-.32-0.08-.32-0.12-.31,0-.13h-0.44Zm0.61,2.09h0l0.11,0.33,0.08,0.32,0.11,0.33,0.12,0.31,0.08,0.32,0,0.11,0.45,0,0-.11-0.11-.33-0.09-.3L111,73.72l-0.11-.33-0.08-.32h0l-0.45,0h0ZM111,75.19l0.09,0.18,0.08,0.32L111.26,76l0.12,0.31,0.11,0.33,0.07,0.25,0.41,0-0.07-.25-0.11-.33L111.68,76l-0.08-.32-0.11-.33,0-.19-0.45.05h0Zm0.69,2.06,0,0.06,0.11,0.33,0.12,0.31L112,78.28l0.12,0.31,0.08,0.32,0,0.06,0.41,0V78.86l-0.12-.31-0.11-.33-0.12-.31-0.11-.33-0.09-.3,0-.06-0.45,0h0Zm0.71,2.09,0.07,0.22,0.12,0.31,0.12,0.31,0.11,0.33,0.12,0.31L113,81l0.41,0-0.07-.22-0.11-.33-0.12-.31L113,79.84l-0.11-.33-0.07-.22-0.45.05h0Zm0.76,2v0.08l0.12,0.31,0.12,0.31,0.12,0.31,0.14,0.34L113.77,83v0.08l0.42-.06V83l-0.12-.31L114,82.36l-0.12-.31-0.11-.33-0.12-.31,0-.06-0.41,0h0Zm0.78,2.08,0.08,0.2L114.12,84l0.12,0.31,0.12,0.31,0.12,0.31,0.12,0.29,0.42-.06-0.12-.29-0.12-.31-0.12-.31-0.12-.31-0.12-.31-0.08-.2-0.42.06h0Zm0.79,2.06h0l0.12,0.31L115,86.15l0.12,0.31,0.12,0.31,0.16,0.29,0.06,0.17,0.42-.06L115.79,87l-0.16-.29-0.12-.31-0.12-.31-0.12-.31-0.12-.31h0l-0.42.06h0Zm0.86,2.05,0,0.11L115.72,88l0.12,0.29L116,88.6l0.12,0.31,0.12,0.29,0,0.09,0.42-.06,0-.09-0.12-.31-0.12-.29-0.15-.32-0.12-.29L116,87.62l0-.11-0.42.06h0Zm0.86,2.05,0.09,0.18,0.12,0.31,0.12,0.29,0.12,0.29L117,91l0.16,0.29,0,0.06,0.39-.07v0l-0.16-.29-0.12-.31-0.12-.29L117.05,90l-0.15-.32-0.06-.17-0.42.06h0Zm0.89,2.06,0.08,0.2,0.12,0.29,0.16,0.29,0.12,0.29L117.93,93,118,93.35l0,0,0.42-.06,0-.06L118.35,93l-0.12-.29-0.16-.29-0.12-.29-0.12-.29-0.07-.22-0.43.09h0Zm0.9,2,0.11,0.21,0.12,0.29,0.13,0.26,0.12,0.29L118.83,95,119,95.33l0,0.09,0.43-.09,0-.06L119.25,95l-0.12-.29L119,94.41l-0.12-.29-0.16-.29-0.08-.2-0.43.09h0Zm1,2,0.06,0.17,0.13,0.26,0.12,0.29,0.13,0.26L119.74,97l0.12,0.29L120,97.45l0.42-.06-0.09-.18L120.16,97,120,96.67l-0.12-.29-0.13-.26-0.12-.29-0.09-.15-0.39.07h0Zm0.93,2,0.06,0,0.12,0.29,0.13,0.26,0.12,0.29,0.13,0.26,0.13,0.26,0.13,0.26v0l0.43-.09h0l-0.12-.29-0.13-.26-0.13-.26-0.13-.26L120.68,98l-0.13-.26,0-.06-0.43.09h0Zm1,2,0.09,0.15,0.13,0.26,0.13,0.26,0.13,0.26,0.07,0.25,0.13,0.26,0.11,0.23,0.43-.09-0.11-.23-0.14-.24-0.13-.26-0.13-.26-0.1-.25-0.13-.26-0.06-.17-0.43.09h0Zm1,2,0.11,0.21,0.13,0.26,0.13,0.26,0.11,0.23,0.13,0.26,0.14,0.24,0.11,0.23,0.4-.09-0.11-.23-0.11-.23-0.13-.26-0.14-.24-0.13-.26-0.14-.24-0.07-.22-0.43.09h0Zm1,2,0.09,0.18,0.14,0.24,0.1,0.25,0.14,0.24,0.11,0.23,0.14,0.24,0.11,0.23,0,0.06,0.43-.09,0-.06-0.14-.24-0.11-.23-0.14-.24-0.11-.23-0.13-.26-0.14-.24-0.09-.18-0.4.09h0Zm1,2,0,0.06,0.14,0.22,0.11,0.23,0.14,0.24,0.11,0.21,0.11,0.23,0.14,0.24,0.11,0.21,0,0.06,0.4-.09,0-.06-0.11-.21-0.11-.23-0.14-.22-0.11-.23-0.11-.23-0.14-.24-0.11-.21,0-.06-0.43.09h0Zm1.07,2,0,0.06,0.14,0.22,0.11,0.21,0.11,0.23,0.11,0.21,0.11,0.21,0.11,0.21,0.11,0.21,0.06,0.14,0.43-.09-0.09-.15-0.11-.21-0.11-.21-0.11-.21-0.11-.21-0.11-.23-0.11-.21-0.11-.21-0.05-.06-0.4.09h0Zm1.1,2,0.07,0.12,0.11,0.21,0.08,0.2,0.12,0.18,0.11,0.21,0.12,0.18,0.08,0.2,0.12,0.18,0.09,0.18,0.43-.09-0.12-.18-0.08-.2-0.12-.18-0.12-.18-0.11-.21-0.09-.18-0.11-.21-0.11-.21-0.07-.12-0.4.09h0Zm1.11,2,0,0.06,0.09,0.18,0.12,0.18,0.09,0.18,0.09,0.18,0.12,0.16L128,113l0.09,0.18,0.09,0.15,0.12,0.18,0,0.06,0.4-.09,0-.06-0.09-.18-0.12-.16-0.09-.18-0.09-.18-0.09-.18-0.12-.18-0.09-.15-0.11-.21-0.09-.18,0,0-0.4.09h0Zm1.11,2,0.07,0.1,0.09,0.18,0.09,0.15,0.06,0.14,0.09,0.15,0.09,0.15,0.09,0.15,0.06,0.14,0.09,0.15,0.1,0.13,0.06,0.14,0,0.09,0.4-.12,0-.09-0.07-.12-0.09-.15-0.06-.14-0.09-.15-0.1-.13-0.09-.15-0.06-.14-0.09-.18-0.09-.15L129,113.9l0-.09Z"/></g></g></svg>