<svg id="Body" xmlns="http://www.w3.org/2000/svg" viewBox="0 0 270 130"><defs><style>.cls-1{fill:#fff;}.cls-2{fill:#bd2e2b;}.cls-3{fill:#84322d;}.cls-4{fill:#f4d9be;}</style></defs><title>Image_Akci</title><g id="Image"><g id="_5" data-name="5"><rect class="cls-1" width="268" height="130"/><path class="cls-2" d="M138.95,37.62a13.5,13.5,0,0,0-3.87.76c-0.68.37-2.2,1.05-2.86,1.46a25.14,25.14,0,0,0-2.82,1.94c-0.69.63-1,.41-1.91,2.9a12.69,12.69,0,0,1-2.8,3.91c-1.35,1-9.67,6.56-10.59,8.86-0.48,1.2.28,2.75,0.88,3.89,1,1.81,5.18,3.09,6.73,2.24,0.7-.39-0.12,2.37-0.17,3.17-0.16,2.47-4.34,1.35-9,4.2a23.09,23.09,0,0,0-6.41,7.33,25.47,25.47,0,0,0-1.57,9.25,21.78,21.78,0,0,0,2.24,7.8c2.29,3.65,3.42,5,5.27,5.49,3.6,0.89,5.18,1.22,5.18,1.22s-1.08,7.33-1.17,8.61c-0.2,2.78-3.29,15-.92,16.43,7.69,4.7,19.68,3,28.39-.12,1.92-.69-0.5-10.57-0.43-12.61,0.07-2.23,3.82-2.67,3.23-11.1-0.38-5.48-4-7.27-6.57-9.89-2.16-2.21-3.35-5.19-2.85-11.24,0.13-1.63,1-10.47,1.13-12.09,0.31-3.08,1.77-7.26,2.57-10.95,0.52-2.4,2.13-8.59,2.29-13a9.31,9.31,0,0,0-1.57-5.26C140.64,39.56,140.45,37.82,138.95,37.62Z"/><path class="cls-3" d="M140.39,6.64c0.85,0.79-.64-1.47.38-3.13A7.28,7.28,0,0,1,148,.09,14.38,14.38,0,0,1,152,1.58a11.1,11.1,0,0,1,2.73,3.05c0.62,1.15,1.62,4.16,1.42,5.45-1,6.19-4.33,7.9-8.75,7.42a23.28,23.28,0,0,1-.25,4.86A19.26,19.26,0,0,1,145,27.24a10.74,10.74,0,0,1-3.62,2.4c-1.2.43-3.82,1.18-5,.78a3.91,3.91,0,0,1-1.75-1.74,11.87,11.87,0,0,1-.49-5.32c0.17-.66,1.36-1.6,1.51-2.26a6,6,0,0,0-.06-3.29c-0.36-.75-1.49-0.85-2.47-0.52A2.05,2.05,0,0,0,131.87,19c0,0.57-.62-1.6-0.8-2.14-0.43-1.28-.55-4.25-1.52-5.21-0.8-.78-3.22-1-4.33-1.17-0.72-.09-2.48.64-2.91,0.05-0.69-.92.63-3.53,1.4-4.39,1.1-1.23,4.39-2.5,6-2.67a24.08,24.08,0,0,1,6.32.95A13.1,13.1,0,0,1,140.39,6.64Z"/><path class="cls-3" d="M120.47,16.68a5.73,5.73,0,0,1-.63-0.85,1.27,1.27,0,0,1-.16-0.65,1.11,1.11,0,0,1,.11-0.3,3.07,3.07,0,0,0,.6,1.18,3,3,0,0,0,.82.56,3.68,3.68,0,0,0,.66.17l-0.51.7S120.67,16.91,120.47,16.68Z"/><path class="cls-4" d="M130.36,43.42a11.64,11.64,0,0,0-1,3.42c-0.33,1.76-.45,5.33-0.58,7.12-0.31,4.62.75,14.73-.67,19.14-0.56,1.74-3.31,3.95-4.3,5.48s-2.65,4.36-3.7,5.69c-2.21,2.81-6.85,10.41-10.13,11.48-0.47.16-1.9-1.09-2.38-1.53a5.35,5.35,0,0,1-1.36-1.31c-0.11-.38-0.74-0.77-0.74-0.22,0,1.41.73,2,1.06,2.78a22.12,22.12,0,0,0,3.67,4.52c1,0.56,1.78,1.19,2.44,1a1.65,1.65,0,0,0,1-.71,6.33,6.33,0,0,1,.38-1.7c3.45-7.15,20.92-17.43,22.13-21.71,1.37-4.84,1.8-9.94,3-20.3,0.28-2.47,1.43-9,1-11.42-0.29-1.5-.6-2.87-1.83-3.79a6.64,6.64,0,0,0-4.24-.93C132.9,40.69,131,42.43,130.36,43.42Z"/><path class="cls-4" d="M129.4,41.78a23.79,23.79,0,0,1,5.13-3.16c1.87-.93,4.4-0.6,4.06-1.13a11.24,11.24,0,0,1-.94-2.76c-0.36-1.27-.48-3.66-1.28-4.31-1-.8-1.78-0.72-2.19-2.36a39,39,0,0,1-.09-4.47c0.19-1.16,1.29-1.34,1.56-2.49,0.18-.76.35-2.73-0.09-3.36a2.11,2.11,0,0,0-2.37-.48c-1.75.84-1.22,2-1.29,1.87a16,16,0,0,1-1.13-3.69c-0.25-1-.49-3.1-1.21-3.79-1.15-1.1-5-1.25-6.47-.9-0.3.07-.28-0.08-0.46,0.17a7.48,7.48,0,0,0-1,3.83,7.8,7.8,0,0,1,.21,2c-0.15.23-.37,0.52-0.56,0.8-0.56.85-2.81,1.8-3.11,2.67-0.19.57,1.61,1.26,1.45,1.84-0.11.41-1,.63-1,1.05s1,0.4,1,1c0,0.3-1,.11-1,0.41-0.07.45,1,1.55,0.94,2-0.2,1-.71,2.13-0.56,2.71,0.21,0.8,1.61.62,2.4,0.86,1.69,0.52,5.52-1.15,6.58.26s1.73,4.67,2.12,6.15c0.19,0.72.32,2.07,0.44,2.8C130.57,39.75,129.08,42.08,129.4,41.78Z"/></g></g></svg>