<svg id="Body" xmlns="http://www.w3.org/2000/svg" xmlns:xlink="http://www.w3.org/1999/xlink" viewBox="0 0 270 130"><defs><style>.cls-1{fill:url(#Безымянный_градиент_103);}.cls-2{fill:#f26918;}.cls-3{fill:#e3542c;}.cls-4{fill:#d11119;}.cls-5{fill:none;stroke:#d11119;stroke-width:0.25px;}.cls-6,.cls-73{fill:#f9caa4;}.cls-7{fill:#fdd5ba;}.cls-8{fill:#f4bd94;}.cls-9{fill:#edbc9e;}.cls-10,.cls-16,.cls-17,.cls-38{fill:#fff;}.cls-11{fill:#b4693e;}.cls-12{fill:#8e5239;}.cls-13{fill:url(#linear-gradient);}.cls-14{fill:#e88850;}.cls-15{fill:#12100b;}.cls-16,.cls-46,.cls-47,.cls-48,.cls-49,.cls-50,.cls-51,.cls-52,.cls-53,.cls-54,.cls-55,.cls-56,.cls-57,.cls-58,.cls-59,.cls-65,.cls-71{opacity:0.5;}.cls-17,.cls-73{opacity:0.8;}.cls-18{fill:url(#linear-gradient-2);}.cls-19{fill:#e69d6d;}.cls-20{fill:#eea699;}.cls-21{fill:#b53a3a;}.cls-22{fill:#694738;}.cls-23{fill:#d92240;}.cls-24{fill:#c12823;}.cls-25{fill:#fdd7b5;}.cls-26{fill:#f6c8a3;}.cls-26,.cls-40{opacity:0.6;}.cls-27{fill:#fdeadd;}.cls-27,.cls-41,.cls-42{opacity:0.7;}.cls-28{fill:#c37743;}.cls-29{fill:#f6c5a2;}.cls-30{fill:#b3663d;}.cls-31{fill:#dd8c54;}.cls-32{fill:#e2a47b;}.cls-33{fill:url(#linear-gradient-3);}.cls-34{fill:url(#linear-gradient-4);}.cls-35{fill:#eaaa80;}.cls-36{fill:#ed8798;}.cls-37{fill:#c9596b;}.cls-38{opacity:0.2;}.cls-39{fill:#eaeaea;}.cls-40{fill:#edb892;}.cls-41{fill:#f4f2f3;}.cls-42{fill:#e1dedc;}.cls-43{fill:#f9cdaa;}.cls-44{fill:#b66d40;}.cls-45{fill:#985634;}.cls-46{fill:url(#linear-gradient-5);}.cls-47{fill:url(#linear-gradient-6);}.cls-48{fill:url(#linear-gradient-7);}.cls-49{fill:url(#linear-gradient-8);}.cls-50{fill:url(#linear-gradient-9);}.cls-51{fill:url(#linear-gradient-10);}.cls-52{fill:url(#linear-gradient-11);}.cls-53{fill:url(#linear-gradient-12);}.cls-54{fill:url(#linear-gradient-13);}.cls-55{fill:url(#linear-gradient-14);}.cls-56{fill:url(#linear-gradient-15);}.cls-57{fill:url(#linear-gradient-16);}.cls-58{fill:url(#linear-gradient-17);}.cls-59{fill:url(#linear-gradient-18);}.cls-60{fill:#e9a16f;}.cls-61{fill:#f3be98;}.cls-62,.cls-65{fill:#e5a87e;}.cls-63{fill:#fcdece;}.cls-64{fill:#f9c9a1;}.cls-66{fill:#fcd8bf;}.cls-67{fill:#f8c6a5;}.cls-68{fill:#f8a989;}.cls-69{fill:#ea8966;}.cls-70,.cls-71{fill:#d5a68a;}.cls-70{opacity:0.3;}.cls-72{fill:#d5290d;}.cls-74{fill:#a9190e;}</style><linearGradient id="Безымянный_градиент_103" y1="65" x2="268" y2="65" gradientUnits="userSpaceOnUse"><stop offset="0" stop-color="#7a202e"/><stop offset="0.53" stop-color="#b0202e"/><stop offset="0.66" stop-color="#a6202e"/><stop offset="0.89" stop-color="#89202e"/><stop offset="1" stop-color="#7a202e"/></linearGradient><linearGradient id="linear-gradient" x1="120.51" y1="34.33" x2="119.9" y2="33.61" gradientTransform="translate(19.73 -40.29) rotate(20.72)" gradientUnits="userSpaceOnUse"><stop offset="0" stop-color="#ec903a"/><stop offset="1"/></linearGradient><linearGradient id="linear-gradient-2" x1="310.36" y1="-26.13" x2="309.74" y2="-26.85" gradientTransform="matrix(-0.94, 0.35, 0.35, 0.94, 427.14, -53.54)" xlink:href="#linear-gradient"/><linearGradient id="linear-gradient-3" x1="253.56" y1="40.56" x2="252.84" y2="38.77" gradientTransform="matrix(0, 1, -1, 0, 180, -210.56)" gradientUnits="userSpaceOnUse"><stop offset="0" stop-color="#d88055"/><stop offset="1"/></linearGradient><linearGradient id="linear-gradient-4" x1="261.96" y1="41.75" x2="261.12" y2="39.66" gradientTransform="translate(188.82 -215.87) rotate(90)" xlink:href="#linear-gradient-3"/><linearGradient id="linear-gradient-5" x1="149.04" y1="45.15" x2="164.88" y2="45.15" gradientUnits="userSpaceOnUse"><stop offset="0" stop-color="#d88055"/><stop offset="0.43" stop-color="#fff"/><stop offset="1" stop-color="#ca6a43"/></linearGradient><linearGradient id="linear-gradient-6" x1="149.72" y1="41.34" x2="167.93" y2="41.34" xlink:href="#linear-gradient-5"/><linearGradient id="linear-gradient-7" x1="153.28" y1="37.31" x2="165.74" y2="37.31" xlink:href="#linear-gradient-5"/><linearGradient id="linear-gradient-8" x1="155.27" y1="48.35" x2="165.47" y2="48.35" xlink:href="#linear-gradient-5"/><linearGradient id="linear-gradient-9" x1="156.58" y1="48.06" x2="162.96" y2="48.06" xlink:href="#linear-gradient-5"/><linearGradient id="linear-gradient-10" x1="156.44" y1="58.13" x2="160.11" y2="58.13" xlink:href="#linear-gradient-5"/><linearGradient id="linear-gradient-11" x1="150.49" y1="60.72" x2="155.85" y2="60.72" xlink:href="#linear-gradient-5"/><linearGradient id="linear-gradient-12" x1="154.22" y1="62.5" x2="157.21" y2="62.5" xlink:href="#linear-gradient-5"/><linearGradient id="linear-gradient-13" x1="129.84" y1="51.56" x2="132.82" y2="51.56" xlink:href="#linear-gradient-5"/><linearGradient id="linear-gradient-14" x1="126.49" y1="56.95" x2="132.3" y2="56.95" xlink:href="#linear-gradient-5"/><linearGradient id="linear-gradient-15" x1="124.4" y1="57.62" x2="129.37" y2="57.62" xlink:href="#linear-gradient-5"/><linearGradient id="linear-gradient-16" x1="137.87" y1="31.5" x2="146.06" y2="31.5" xlink:href="#linear-gradient-5"/><linearGradient id="linear-gradient-17" x1="155.71" y1="70.11" x2="161.71" y2="70.11" xlink:href="#linear-gradient-5"/><linearGradient id="linear-gradient-18" x1="151.01" y1="71.25" x2="153.75" y2="71.25" xlink:href="#linear-gradient-5"/></defs><title>Image_Akci</title><g id="Image"><g id="_6" data-name="6"><rect class="cls-1" width="268" height="130"/><path class="cls-2" d="M118.7,40.47l-1.1.76a35.56,35.56,0,0,0-4.13,2.69c-1.88,1.46-5.34,3.87-6.91,4.92a27.48,27.48,0,0,0-5.76,5.34C99.55,56,97.88,56.9,97,59.72s-0.94,5.34-1.46,7,0.21,3.77-.52,4.92-0.94,4.08-1.36,5.44-1.26,3.45-1.26,3.45a56.13,56.13,0,0,0,7.22.94c2.3,0,11.72-1.46,11.72-1.46L130,59l16.11-4,14.75,6.38s4.29-7.12,8.16-7,3.14,0.52,3.14.52A33.72,33.72,0,0,0,166.1,50c-2.93-1.67-5.23-2.83-6.07-3.35S118.7,40.47,118.7,40.47Z"/><path class="cls-3" d="M118,41.78a8.47,8.47,0,0,0-.16,7,6.88,6.88,0,0,1-.24-7s-2.83,1.18-3.3,5.42c0,0-.55-4.19,4.39-6.72L118,41.78"/><path class="cls-3" d="M98.76,59a3.08,3.08,0,0,0,.78,1.33A3.48,3.48,0,0,1,100.88,63a12.37,12.37,0,0,0,4,6.51c1.88,1.33,2.2,2,1.57,2s-2.9-.71-3.69-0.63a4.75,4.75,0,0,1-3-1.33c-0.47-.63-3.3-5.49-2.59-8.71s-0.86.71-.78,2.67,1.49,4.24,2.51,5.49,4.63,1.88,5.26,2.43-1.73-.86-1.73.08-2-1-3.06-.86-2.59.31-2-1.81-1.73,2.51,0,3.14,5.1,1.41,6.2,1.26,3.14,0.24,2.75,1.49,0,1-.39,2.2,0.24,1-.94,2-5.18-.78-8.24-0.55c0,0,7.14,1,8.71,1.18s4.87,0.39,5.57-.86,12.56-14.75,13-15.07,2.28-1.73,2.43-2.51-3.45-1.33-4.47-2.75,0.47,0.47-.86.94-2.12-.08-2.43-1.65-0.08,1.65-.39,1.57-2.12-.39-2.12-4.39,0.16,6.83.86,8.4-1.26,1.57-1.33-.08-2-6.51-2.67-6.75-2.9-1.57-3.22,3.85a80.57,80.57,0,0,1-1.26,10.28c-0.24,1.41.39-4.32-.31-6.28s-2.35-.39-1.33,1,1.26,4.24,1.26,4.87-0.78-1.49-1.49-3.22-0.63-1.1.63,2.75-0.16,1.49-1.26.08a23.8,23.8,0,0,1-3.61-5.49c-0.78-2-1.49-2.35-1.57-3.3S99.71,60.06,98.76,59Z"/><path class="cls-4" d="M100.33,60.46a20.59,20.59,0,0,1,1.18,2.12c0.47,1,2.28,4.24,2.9,5.18a19.25,19.25,0,0,0,2.28,2.75c0.78,0.78,1.57,2.12,1.26.71s-0.31-2.2-.47-2.51-0.55-1-.55-1,1.18,3.3,1.33,2.43a9.59,9.59,0,0,0-.16-3.22c-0.24-1.88-.31-2.12-0.47-2.35a3.7,3.7,0,0,1,.78,1.57,38.09,38.09,0,0,1,.24,4.39,21.7,21.7,0,0,0-.16,6c0.31,3,1.26,2.75-.16,2.75s-2.83-.39-2.28-0.55a1.34,1.34,0,0,0,.86-1.57,0.7,0.7,0,0,1,.55-0.94c0.24-.08.31-0.39-0.08-0.94s1.26-1-.55-2-1.88-1.49-2.9-1.57a5.9,5.9,0,0,1,2,.71c1.18,0.63,1.33.24,0.55-.24s0.24-.63.24-0.63,0.71-.08-0.86-1.41a15.69,15.69,0,0,1-3.45-5.26A36.92,36.92,0,0,1,100.33,60.46Z"/><path class="cls-4" d="M99,70.89a9,9,0,0,1,3.06.94A9,9,0,0,0,105.28,73a13.75,13.75,0,0,1-3.37-.94C100.1,71.29,99,70.89,99,70.89Z"/><path class="cls-4" d="M99.08,61.56a8.17,8.17,0,0,0,1.49,3.37A3.9,3.9,0,0,1,99.08,61.56Z"/><path class="cls-4" d="M110.14,62.81s-0.78,4.94.55,3.61,2.2-3,3.45-3-3.14,7.14-3.22,8.95-0.55,6.12-.63,6.44-0.94.47-1,0S107.48,75.13,110.14,62.81Z"/><path class="cls-4" d="M117.13,63.2s-0.39-3.37-.39-4,0.39,1.57,1,2,0.71-.31.78-1.33,0.08,2.43.24,3.06,1.18-.16,1.18-0.16a12.26,12.26,0,0,0,.16-2.51c-0.08-1.18.86,1.65,1.57,1.65a23.51,23.51,0,0,0,4.63-.86c1.1-.39-2.83,2-4.32,2.67a19.19,19.19,0,0,1-5.26,1.65C115.48,65.48,117.13,63.2,117.13,63.2Z"/><path class="cls-4" d="M118.23,50.41s3.92,9.65,12.16,3.37C130.39,53.79,123.09,60.38,118.23,50.41Z"/><path class="cls-5" d="M114.38,47.66a15,15,0,0,1-3.85,2c-1.33.24-1.73,1.1-2.51,1.88s-1.49.63-2.67,1.73-0.78,1.26-1.73,1.73a4,4,0,0,0-2.12,2,1.65,1.65,0,0,1-1.26,1.41"/><path class="cls-3" d="M104.49,57.08a3.88,3.88,0,0,1,1-3.22C106.85,52.69,103.08,54.81,104.49,57.08Z"/><path class="cls-3" d="M114.85,47.51a32.24,32.24,0,0,0,0,5.73C115.17,55.36,113.52,49.86,114.85,47.51Z"/><path class="cls-3" d="M115.72,46.41a41.74,41.74,0,0,0,3,5.49c0.94,1.1,0,1.57.39,3.45s-1.74-4.92-2.12-2.51C116.34,56.85,116,53.16,115.72,46.41Z"/><path class="cls-6" d="M112.73,34.32a2.87,2.87,0,0,0-.08,2c0.39,0.78.94,1.18,1.33,2s1.81,2.35,1.88,1.26a11,11,0,0,1,1.73,1.73,7.08,7.08,0,0,1,1.26,2c0,0.39.24,4.16,1.1,5.89s4.24,6.12,8.32,3.85,6-8.71,6.12-9.65S134.94,30.48,135,30s-0.16-2.59-.86-2.9-3-4.24-3.53-5.89-2-3.37-3.92-3.3-2.9,1.57-4.55,1.49-6.36,0-7.69,1.33S107.87,27.42,112.73,34.32Z"/><path class="cls-7" d="M130.16,24.2s-2.28-2.67-3.37-2.67-2.12,1.81-.39,3.77,1.57,3.22.63,4.24,0.94,0,2,.24-2.43,1.49-2.75,1.73-1.81.39-.16,3.77,0.94,2.9,1.81,2.28,0.86-1,.24-1.18,0.16-.55-0.63-1.18-2.67-2-.94-2.83,2.9,0.24,3.77-.39,1-.55,1,0.24,0.78,1,.78,1.65,0.24-.47.63-2,0.71-.78.39-2.83S130.16,24.2,130.16,24.2Z"/><path class="cls-8" d="M114.77,35.81A28.59,28.59,0,0,0,116,39.27a5.86,5.86,0,0,0,1,1.26,9.77,9.77,0,0,1,1.8,2.75,20.26,20.26,0,0,0,.63,5.81c0.71,2,4.32,6.59,8.08,4.55s3.69-4.24,2.28-4.16-2.35.78-3.3,0.16-1.57,1-3.77-.31a6.28,6.28,0,0,1-3.14-4c-0.31-1.18-.71-1.88,0-1.1a30.06,30.06,0,0,0,5.49,3.45c1.33,0.63,5.57.78,7.3-2.75a11.61,11.61,0,0,0,1.88-4,41.24,41.24,0,0,0,.16-6c-0.08-.47-0.71,1.49-0.78,3.06s0.08,3.37-.71,5-2.59,6.28-7.46,4.24-4.87-3.85-6.83-5.57A13.5,13.5,0,0,1,114.77,35.81Z"/><path class="cls-9" d="M118.36,34.61a2.14,2.14,0,0,0,2.17.05c1.12-.65.86-0.89,1.73-1a0.82,0.82,0,0,0-.68-0.39c-0.55-.08-0.13.47-0.5,0.78a3.16,3.16,0,0,1-2.59.34Z"/><path class="cls-10" d="M121.57,33.29a1.56,1.56,0,0,1-1.43,1.17c-1.31.25-1.44,0-1.6-.07a2.87,2.87,0,0,1,3-1.1"/><path class="cls-11" d="M116.55,34.38s1-1.86,2.22-2a4.25,4.25,0,0,1,2.67.16c0.6,0.34-.37.18-1,0.5s-1.28.05-1.78,0.29S116.74,33.93,116.55,34.38Z"/><path class="cls-12" d="M121,32.73a2,2,0,0,1-.94-0.05,1.72,1.72,0,0,0-1.62.1c-0.55.39-1.6,1.18-1.67,1.28s1-.52,1.33-0.6a5.19,5.19,0,0,1,1-.31A3.23,3.23,0,0,0,121,32.73Z"/><ellipse class="cls-13" cx="120.09" cy="33.83" rx="0.78" ry="0.6" transform="matrix(0.94, -0.35, 0.35, 0.94, -4.2, 44.67)"/><path class="cls-14" d="M118.54,34.47a2.56,2.56,0,0,0,2.32-.19c0.22-.12,1-1,0.8-1-0.42-.09-0.25,0-0.25.14a1.51,1.51,0,0,1-1,1A3.3,3.3,0,0,1,118.54,34.47Z"/><path class="cls-12" d="M122.26,33.64a2.68,2.68,0,0,0-1.81-.55c-0.53,0-2.35.76-2.49,1.88a0.63,0.63,0,0,0,.47-0.29C118.65,34.4,119.61,32.47,122.26,33.64Z"/><ellipse class="cls-15" cx="120.09" cy="33.84" rx="0.27" ry="0.27"/><circle class="cls-16" cx="119.74" cy="33.86" r="0.23"/><ellipse class="cls-17" cx="120.39" cy="33.92" rx="0.12" ry="0.13"/><path class="cls-9" d="M129.68,30.75a2.14,2.14,0,0,1-1.66,1.4c-1.29.19-1.23-.15-2,0.28a0.82,0.82,0,0,1,.28-0.73c0.38-.4.4,0.29,0.88,0.3a3.16,3.16,0,0,0,2.23-1.36Z"/><path class="cls-10" d="M126.35,31.73a1.56,1.56,0,0,0,1.85,0c1.18-.63,1.14-0.88,1.2-1.05a2.87,2.87,0,0,0-3.05,1"/><path class="cls-11" d="M130.94,29.44s-1.94-.83-3-0.2a4.25,4.25,0,0,0-2,1.79c-0.26.64,0.4-.09,1.07-0.22s1-.76,1.57-0.89S130.52,29.2,130.94,29.44Z"/><path class="cls-12" d="M126.44,30.93a2,2,0,0,0,.7-0.63,1.72,1.72,0,0,1,1.33-.93c0.67,0,2-.08,2.11,0s-1.08.2-1.42,0.37a5.19,5.19,0,0,0-1,.36A3.23,3.23,0,0,1,126.44,30.93Z"/><ellipse class="cls-18" cx="127.84" cy="31.22" rx="0.78" ry="0.6" transform="translate(-3.39 41.1) rotate(-18.03)"/><path class="cls-14" d="M129.45,30.75a2.56,2.56,0,0,1-1.93,1.31c-0.25,0-1.4-.11-1.26-0.28,0.27-.34.19-0.15,0.28,0a1.51,1.51,0,0,0,1.44.13A3.3,3.3,0,0,0,129.45,30.75Z"/><path class="cls-12" d="M126,32.36a2.86,2.86,0,0,1,1.1-1.49c0.48-.24,2.31-0.88,3.12-0.09a0.63,0.63,0,0,1-.55.07A2.89,2.89,0,0,0,126,32.36Z"/><ellipse class="cls-15" cx="127.84" cy="31.23" rx="0.27" ry="0.27" transform="translate(8.59 86.88) rotate(-38.74)"/><circle class="cls-16" cx="128.13" cy="31.03" r="0.23" transform="translate(8.77 87.01) rotate(-38.74)"/><ellipse class="cls-17" cx="127.66" cy="31.48" rx="0.12" ry="0.13" transform="translate(8.39 86.82) rotate(-38.74)"/><path class="cls-8" d="M123.2,38s-0.13,1,.63,1a4,4,0,0,1,2,.44,1.2,1.2,0,0,0,1.28,0,1.33,1.33,0,0,0,.52-0.86,2.09,2.09,0,0,1,1-1c0.34,0,.13.16-0.13,0.29a3.16,3.16,0,0,0-.86,1.12,1.45,1.45,0,0,1-2,.55c-1-.52-1.44,0-2-0.37A0.92,0.92,0,0,1,123.2,38Z"/><path class="cls-8" d="M122.7,38.3s-1.6,1.88-1.88,2.3-0.47.76,0.71,1.7a1.52,1.52,0,0,1-.55-1.78C121.5,39.58,122.62,38.85,122.7,38.3Z"/><path class="cls-8" d="M129.74,36.39a3.15,3.15,0,0,0,1.12.81A1.2,1.2,0,0,1,132,38.69a1.49,1.49,0,0,0-.16-1.62C131.23,36.52,130.84,37.38,129.74,36.39Z"/><path class="cls-19" d="M132.14,38.15A1.23,1.23,0,0,0,131,37.09a2.89,2.89,0,0,1-.76-0.27,1.38,1.38,0,0,0,.92.43A2,2,0,0,1,132.14,38.15Z"/><path class="cls-20" d="M126.49,41.12s-0.78-.42-4,0a2,2,0,0,0,.73,1c0.62,0.49,3.87,2.29,6.9-1.39a3.56,3.56,0,0,0,.88-1.91l-0.13-.1A32.83,32.83,0,0,0,126.49,41.12Z"/><path class="cls-21" d="M124,41.46a5.1,5.1,0,0,1-1.47-.31c-0.31-.16-0.2.1,0.19,0.34a4.23,4.23,0,0,0,3.09.68,6.58,6.58,0,0,0,4.79-2.85s0.84-1.28,0-.42a8.41,8.41,0,0,1-3.87,2.62A6.08,6.08,0,0,1,124,41.46Z"/><path class="cls-10" d="M126.55,41.47s-2.71-.08-3.1-0.06a1.24,1.24,0,0,0,1.1.8,6.82,6.82,0,0,0,5.25-1.87,1.19,1.19,0,0,0,.47-1.08A23.68,23.68,0,0,1,126.55,41.47Z"/><path class="cls-8" d="M118,35.34a3.16,3.16,0,0,0,2.39.08C121.52,34.91,119.48,35.74,118,35.34Z"/><path class="cls-8" d="M129,32.48s1.45-.39,1.41-1.14S130.55,31.76,129,32.48Z"/><path class="cls-8" d="M114.7,37.74a0.6,0.6,0,0,0-.51-0.75c-0.67-.16-0.71,0-0.94-0.35s0.12,0.43.59,0.59S114.42,38.21,114.7,37.74Z"/><path class="cls-12" d="M115.25,37.5a2,2,0,0,0-1.18-.94c-0.59,0-.27-0.39-0.94-1.14s-0.55-.63-0.63-0.31,0.16-.16-0.59-0.75-0.43-.86-1.45-2-1.26-4.43-1.61-5.34A8.93,8.93,0,0,1,109,22a4,4,0,0,0,.43-2.59c-0.08-.9.78-2.2,1.57-3.26s0.78-2.35,1.49-2.75,1.88-.39,2.55-0.86a6.42,6.42,0,0,1,1.73-.86c0.55-.2,1.22-1.26,2-1.41a10.27,10.27,0,0,1,4-.16,13,13,0,0,1,4.39,2,18.2,18.2,0,0,1,3.1,3.45c0.55,0.71,1.33,1.06,1.73,2.39a26.16,26.16,0,0,0,1.57,4.12,12.7,12.7,0,0,1,1.06,4.2v1.37s-0.43-1.06-.75-0.71-0.43.59-.08,1.8a7.11,7.11,0,0,1,.24,2.75c0,0.78-.12-0.51-0.51-1s-2-1.77-2.28-3.45-0.86-4.63-1.57-5.61-2.39-2.55-3.73-1.77-2.83,2.63-5.18,2.51-1.57.63-2.9,0.35-2.71-.94-3.53.12-1.37,3.37-1.88,4.2,0.2,1.81.94,3.22a7.93,7.93,0,0,1,1.06,3.57A13.91,13.91,0,0,0,115.25,37.5Z"/><path class="cls-11" d="M117.21,22.16s-1.65-2.79-3.65-1.26C113.56,20.9,115.09,19.49,117.21,22.16Z"/><path class="cls-11" d="M118.74,21.22s-1.49-2.12-3.34-2C115.4,19.26,117.29,18.51,118.74,21.22Z"/><path class="cls-11" d="M113.68,22.9a4.43,4.43,0,0,0-.63,2.35c0.12,1.14-.94,2.2-2.2,2.83,0,0,2.12-1.26,2.08-3S113.6,23.06,113.68,22.9Z"/><path class="cls-11" d="M118.7,19.65s-1.45-4.08,1.73-4C120.43,15.61,116.74,15.21,118.7,19.65Z"/><path class="cls-11" d="M122,19.14s0.82-3.14,2.67-3A4.17,4.17,0,0,1,128.12,18S124.07,13.53,122,19.14Z"/><path class="cls-11" d="M119.48,16.63A3.6,3.6,0,0,0,118,13.88C116.54,13.13,119.05,14.11,119.48,16.63Z"/><path class="cls-11" d="M113,20.82a4.59,4.59,0,0,0-2.35,4.63s-0.47-2.28.31-3.37a3.87,3.87,0,0,0-.79,2.28q0,0.12,0,.24c0.08,1.49-.47-2,0.71-3.22a3.35,3.35,0,0,0-1.26,2,4.6,4.6,0,0,1,3.22-3.45,3.89,3.89,0,0,0-1.33,1.1,6.76,6.76,0,0,1,2-1.1,9.77,9.77,0,0,0-2,1.49A5.24,5.24,0,0,1,113,20.82Z"/><path class="cls-22" d="M126.55,19.18s1.57-1.1,3.61.55,1,1.33,1,1.33l-1.73-.78,2.28,1.57L130,21.06a16.62,16.62,0,0,0,2.2,2.43,6.67,6.67,0,0,1-2.28-1.92c-0.94-1.29-2.2-2.24-3.06-2.16S125.84,19.41,126.55,19.18Z"/><path class="cls-11" d="M123,14.63s3.77-.94,5.41,1.73a3.69,3.69,0,0,0-2.9-2.12,3.7,3.7,0,0,1,2.83,1.1,4.54,4.54,0,0,0-3.69-1.65,6.72,6.72,0,0,1,3.22.55s-2-1.81-5.89-.39c0,0,1.57-.16,2.12-0.16,0,0-1.65.24-2,.94a5.61,5.61,0,0,1,2.51-.63A9.35,9.35,0,0,0,123,14.63Z"/><path class="cls-11" d="M116.27,15.25a3.82,3.82,0,0,0-4.71,3.14S113,14.63,116.27,15.25Z"/><path class="cls-11" d="M116.5,15.41s-3,.16-3.14,2.67C113.36,18.08,114.62,14.94,116.5,15.41Z"/><path class="cls-11" d="M121.37,11.41a2.07,2.07,0,0,0-2.75,1.26S119.88,10.78,121.37,11.41Z"/><path class="cls-11" d="M127.41,13.13s-1.9-1.27-3.17-.47l-0.21.16C122.78,13.92,125.21,11.41,127.41,13.13Z"/><path class="cls-23" d="M92,89.74A16.37,16.37,0,0,0,91,95.86c0,4-.24,34.14-0.24,34.14h16.72s2.12-17.66,3.06-20.25,6.59,3.77,6.59,3.77l3.3-23.78S96.29,79.15,92,89.74Z"/><path class="cls-24" d="M112.73,94.15s-0.78,3.9,0,5.62a2.66,2.66,0,0,1-.08,2.82c-0.16.47-.16,3.22-0.71,3.85s-0.78.39-1.18,0-2.59-7.61-3.37-8.32,4,7.56,3.15,11.63-1.19-5.11-3.08-6.53,2.2,7.69,1.41,13.81-1.65,10-3.45,4.87-5.49-12.71-5.49-16,4,17.89,4.87,21-0.16,2.9-.16,2.9l2.84,0.17,2.65-18.61s0.16-4.87,4.71-.16,1.81-6.51,1.81-6.51-2.83-13.21-3.92-10.57"/><path class="cls-24" d="M92.88,90.28a3.07,3.07,0,0,0-.55,1.81s-1.41,1.41-1,2.59,0.78,0,.31,2.67a36.4,36.4,0,0,0-.47,5.49,57,57,0,0,1-.24-8.32,8.76,8.76,0,0,0-.78-4.63l2.75-2.12s1.33,0.71,0,2.28"/><path class="cls-24" d="M91,127.63s3.3-3.92,3.45-7.69a39.57,39.57,0,0,1,.47-5.34,22.64,22.64,0,0,1,.16,5.26c-0.31,2-1.57,9-1.18,9.89l-3.06.08Z"/><path class="cls-23" d="M172.22,122.06a3.35,3.35,0,0,1,1.65,2.59c0,1.65.39,4.94,0.39,4.94h-22.6s-0.31-3.85-.31-5.81,6.59-8.4,6.67-8.79,1.26-4.55,1.26-4.55S171,117.35,172.22,122.06Z"/><path class="cls-24" d="M154.56,121.43s3-2.9,4.94-.63,7.93,1.65,9.5,1.1,3.06-.16,2-3-3.06-4.16-3.77-5.26-7.77-3.06-8.32-2.12S154.56,121.43,154.56,121.43Z"/><path class="cls-25" d="M133.82,49.23A5.34,5.34,0,0,0,134,51c0.24,0.39-.39,5.34-1.88,6.91s-6,3.53-9.65,4-4.63,1.26-7.06,1.18-4.87,2.59-5.34,5,0.31,10.36.78,13.18,2.12,12.32,2.2,14.52,1.33,12.87,1.57,15.54,2.35,12,5,16.17l1.33,2.2,5.18-5.65s-1.57-9.57-1.73-13.89-1.41-9.65-1.26-14.13-0.78-7.3-.94-10.75,28.57,10.59,28.57,10.59l10.59,7.77s0.63,0.24.86-1.49,4.79-16,4.63-18.44-1.41-4.63-1.81-6.75-0.16-4.4-2-6.59-10.44-13.18-10.12-14.83,1.57-11.85,1.57-11.85l0.08-7.3-1.57-3L141.59,32l-2.9.71s-1.65,2.59-1.8,2.9-1.73,4.94-1.81,5.57S133.82,46.8,133.82,49.23Z"/><path class="cls-26" d="M147.47,43.35s-2.25.6-2.3,2.25,0.16,1,.39.44,0.58,0.05,1.18.58,3.17,1.31,4,.26,0.5,0.84-.31,1.75-1.94,3.4-3.37,2.2-1.15-.94-0.71-0.26,1.33,1.57.71,2.15,1-.63.81-0.26a9.83,9.83,0,0,1-2.43,4c-1.78,1.73-4.47,2.77-7,1.62a6.78,6.78,0,0,0,6.07.21,7.8,7.8,0,0,1-2,1.94,32.59,32.59,0,0,0,2.88-2.17s-3.45,5.49-3.79,7.87-0.5,2.59-1.23,2.12-1.57.68-2.62-.24-0.86.31,0.08,1.1a4.2,4.2,0,0,0,3.69.73c1.23-.37,6,1,7.14,1.86s3.92,1.07,3.92,1.07l-1-19.44,1.67-6,0.37-3.53L153.33,38l-3.09-3L146,34.61a8.82,8.82,0,0,0,2.83,1.6c1.62,0.52,1.91.81,2.28,1.83s-0.89,1.62-1,2.56,0.34,2.85-.13,2.83A5.12,5.12,0,0,0,147.47,43.35Z"/><path class="cls-26" d="M142.09,40.89s1.49,1.4,1.53,2.62-0.27,2.71-.79,1.49-0.63-2-1.57-2.59,0.47-1-.16-1.65S142.09,40.89,142.09,40.89Z"/><path class="cls-27" d="M144.67,45.13a21.66,21.66,0,0,0-1,3.24c0,0.65-.31.71-0.29,0.05A14.74,14.74,0,0,1,144.67,45.13Z"/><path class="cls-28" d="M142.58,42a7.72,7.72,0,0,1-1.75-1.18c-0.84-.76-0.89-0.92-2-0.89a2.13,2.13,0,0,0-1.33.29,2.94,2.94,0,0,1,2.69-.52c1.47,0.52,1.36.6,1.86,1.18S143,42,142.58,42Z"/><path class="cls-28" d="M147,43.56a3.1,3.1,0,0,1,2.12-.31c1.18,0.26,2.17.34,2.67,0.89a3.88,3.88,0,0,1,.68,1.62s-0.63-1.41-1.2-1.52-1.86.05-2.49-.1S146.74,43.82,147,43.56Z"/><path class="cls-29" d="M146.43,45s1.52-1.49,3.53.29a3.13,3.13,0,0,1,.76,1.18s-0.18.5-1.26,0.42-2.4-1.19-3-1.23c-0.39,0-.58-0.21-0.31-0.42Z"/><path class="cls-29" d="M142.58,43.92a3.16,3.16,0,0,0-.91-1.88C141,41.6,140,41.2,138.21,42c0,0-.18.16,0.63,0.47s1.82,0.82,2.42,1.05S142.6,44.34,142.58,43.92Z"/><path class="cls-30" d="M142.58,41.88a2.61,2.61,0,0,0-.47-0.86,3.31,3.31,0,0,0,0,.37,2.62,2.62,0,0,0-.42-0.81,1.23,1.23,0,0,1,.16.52,2.3,2.3,0,0,0-.65-0.84,1.32,1.32,0,0,1,.13.5,1.15,1.15,0,0,0-.58-0.76,3.78,3.78,0,0,1,.18.58,1.56,1.56,0,0,0-.86-0.76,3.42,3.42,0,0,0-1.67.16,2.52,2.52,0,0,1,1.91.39C141,41,142.61,42.14,142.58,41.88Z"/><path class="cls-15" d="M142.3,43.17s-1-2.37-4-1.2C138.3,42,141.16,40.44,142.3,43.17Z"/><path class="cls-31" d="M146.56,45s2-1.67,3.85,1C150.4,46,148.66,43.56,146.56,45Z"/><path class="cls-32" d="M138.68,42.38a5.2,5.2,0,0,1,.76.29,11,11,0,0,0,2,.85,0.64,0.64,0,0,1,.43.05c0.12,0.08.22-.07,0-0.38S138.76,42.38,138.68,42.38Z"/><path class="cls-32" d="M146.6,45.29s-0.22.1,0,.23,1.12,0.43,1.45.67a3.49,3.49,0,0,0,2.28.5l-0.16-.25Z"/><path class="cls-10" d="M138.75,42.29s0.94,0.45,1.53.69,1,0.63,1.67.22A2.06,2.06,0,0,0,138.75,42.29Z"/><path class="cls-10" d="M146.72,45.45a2,2,0,0,1,.55.2,4,4,0,0,0,2.81.8s-1.06-2.67-3.47-1.16C146.6,45.29,146.54,45.39,146.72,45.45Z"/><ellipse class="cls-33" cx="140.6" cy="42.53" rx="0.6" ry="0.66" transform="translate(64.81 168.36) rotate(-75.77)"/><path class="cls-15" d="M146.6,45.29s2-1.73,3.81,1.2l0.08,0.24a0.72,0.72,0,0,1-.67-0.47A2.1,2.1,0,0,0,146.6,45.29Z"/><path class="cls-15" d="M142,43.29s-0.61-2.28-3.28-1.18l-0.43.14a1.07,1.07,0,0,0,1,0A1.78,1.78,0,0,1,142,43.29Z"/><ellipse class="cls-15" cx="140.58" cy="42.44" rx="0.33" ry="0.35"/><ellipse class="cls-16" cx="140.38" cy="42.33" rx="0.23" ry="0.24"/><ellipse class="cls-16" cx="140.74" cy="42.83" rx="0.14" ry="0.13"/><ellipse class="cls-34" cx="148.43" cy="45.54" rx="0.7" ry="0.77" transform="translate(67.79 178.21) rotate(-75.77)"/><ellipse class="cls-15" cx="148.4" cy="45.43" rx="0.38" ry="0.4"/><ellipse class="cls-16" cx="148.16" cy="45.31" rx="0.27" ry="0.28"/><ellipse class="cls-16" cx="148.59" cy="45.88" rx="0.16" ry="0.15"/><path class="cls-29" d="M141.12,48.74a1.1,1.1,0,0,1,.78.37c0.39,0.39.44,0.63,1.1,0.47a1.15,1.15,0,0,1,1.2.18c0.26,0.24.11,0.18-.71,0a3.7,3.7,0,0,1-1.31-.21C141.69,49.31,140.67,48.87,141.12,48.74Z"/><path class="cls-35" d="M142.12,49.53a2.07,2.07,0,0,0-1.12-.69A2.52,2.52,0,0,0,142.12,49.53Z"/><path class="cls-35" d="M144.27,49.91a1.9,1.9,0,0,0-1.27-.2S144.15,49.91,144.27,49.91Z"/><path class="cls-26" d="M141.42,47.59a11.47,11.47,0,0,0-3.18.77c-1.14.57-1.24,0.59-1,1.2a0.64,0.64,0,0,1-.08-0.92,8.09,8.09,0,0,1,4.47-1.18S141.81,47.51,141.42,47.59Z"/><path class="cls-29" d="M147.15,52.59s0.71-.41.39-0.77a5.14,5.14,0,0,0-.8-0.69S147.62,52.12,147.15,52.59Z"/><path class="cls-36" d="M141.85,51a1.27,1.27,0,0,0-1-.71,8.72,8.72,0,0,1-2.3-.73c-0.71-.37-1.2-0.81-1-0.1s0.89,3.51,1.94,4.39a4,4,0,0,0,4.66.31,15.67,15.67,0,0,0,1.73-1.26c0.34-.42.44-0.65-0.05-0.63a6.77,6.77,0,0,1-2.12-.78A2.13,2.13,0,0,0,141.85,51Z"/><path class="cls-37" d="M138.89,50.15l-0.1,0a2.27,2.27,0,0,1-1.11-.85c-0.26-.55-0.29.08-0.05,0.52A7.46,7.46,0,0,0,139.18,52a5.4,5.4,0,0,0,4.16,1.44c1.94-.08,2.05-0.35,2.6-0.82,0.34-.29-0.77.25-1.32,0s-4.21-1.36-4.21-1.36Z"/><path class="cls-38" d="M143.37,54.07a3.09,3.09,0,0,1-2.69-.08c-1.18-.77-0.13-0.52.22-0.33A5.27,5.27,0,0,0,143.37,54.07Z"/><path class="cls-38" d="M142.23,54.15a3.44,3.44,0,0,1-1.11-.26c-0.44-.22-0.44-0.14-0.22.1A1.21,1.21,0,0,0,142.23,54.15Z"/><path class="cls-10" d="M138.54,50s-0.05.26-.09,0.5a1.25,1.25,0,0,0,.09.72c0.17,0.22.21,0.18,0.3,0.1a0.54,0.54,0,0,0,.09.33,0.39,0.39,0,0,0,.34.21,0.86,0.86,0,0,0,.34.39,0.63,0.63,0,0,0,.39,0,1,1,0,0,0,.51.59,1.52,1.52,0,0,0,.75.08,1.07,1.07,0,0,0,.27.25,1,1,0,0,0,1,0,0.65,0.65,0,0,0,.8.05,0.54,0.54,0,0,0,.61-0.08s0.2,0.26.51-.12l0.14-.17a1.11,1.11,0,0,0,.19-0.32l-0.25-.1c-0.48-.16-0.69-0.25-1.16-0.4-0.83-.28-1.43-0.45-1.7-0.54a10,10,0,0,1-1-.46l-0.75-.39-0.63-.35A1.3,1.3,0,0,0,138.54,50Z"/><path class="cls-36" d="M138.51,50s1.91,1.1,2.24,1.32a4.19,4.19,0,0,0,1.62.61c0.8,0.1,2,.75,2.37.74s0.25-.16.25-0.16Z"/><path class="cls-39" d="M138.84,51.37a1.59,1.59,0,0,1,.24-0.88A1.27,1.27,0,0,0,138.84,51.37Z"/><path class="cls-39" d="M139.27,51.9a3.5,3.5,0,0,1,.37-1A2.58,2.58,0,0,0,139.27,51.9Z"/><path class="cls-39" d="M140,52.33a3.73,3.73,0,0,1,.48-1A3.07,3.07,0,0,0,140,52.33Z"/><path class="cls-39" d="M141.26,53s0.18-.68.24-1A7,7,0,0,1,141.26,53Z"/><path class="cls-39" d="M142.49,53.28a4.25,4.25,0,0,0,.18-1A8.24,8.24,0,0,1,142.49,53.28Z"/><path class="cls-39" d="M143.29,53.33a2.32,2.32,0,0,0,.14-1A2.47,2.47,0,0,1,143.29,53.33Z"/><path class="cls-39" d="M143.9,53.25a1.78,1.78,0,0,0,.17-0.56A1.43,1.43,0,0,1,143.9,53.25Z"/><path class="cls-26" d="M134.12,51.47s1.1,4.32,4.24,6.59c0,0-3.34-3.34-4.55-.47s-2.16,4.83-4.32,6.12,3.14-5.22,1.57-4.36a14,14,0,0,1-6.55,2.28s6.63-1.65,8.16-4.47A12.53,12.53,0,0,0,134.12,51.47Z"/><path class="cls-26" d="M131.37,66.77a42.84,42.84,0,0,0-5.93-1.84,7.83,7.83,0,0,1-2.67-.67,3.45,3.45,0,0,1-1.18-1.18,15.17,15.17,0,0,0,4.32,1.69c2.24,0.43,5.61.51,6.83,1.26S132.63,67.25,131.37,66.77Z"/><path class="cls-40" d="M138,68.66a1.31,1.31,0,0,1-1.06-1.22C136.75,66.3,137.06,67.52,138,68.66Z"/><path class="cls-26" d="M138,81.92s0.43-3.49-.94-5.14,0.86,0.12,1.84.9-0.47,2.55-.35,4.08S138.2,82.74,138,81.92Z"/><path class="cls-40" d="M138.4,82.16s0.43-.35,0-2.59,0,1.65-.39,2.35S138.4,82.16,138.4,82.16Z"/><path class="cls-26" d="M113.56,63.75a8.58,8.58,0,0,1,4.43.78c2.47,1.1,4.24,1.65,5,2.67s-0.24-1.53-.39-1.77-4.36-1.14-4.08-1.81,1.41-.27,2.43-0.16-0.2-1.18-.2-1.18a27.48,27.48,0,0,0-2.83.59,10.34,10.34,0,0,1-2.9.27A1.78,1.78,0,0,0,113.56,63.75Z"/><path class="cls-26" d="M121.92,73.09a9,9,0,0,1-.08,2.71,11.53,11.53,0,0,0,.16,3.92,1.37,1.37,0,0,0,1.18,1.06l1.1-6-0.2-4.67a7,7,0,0,0-.16,2.75,6.44,6.44,0,0,1-.71,3.81A25.85,25.85,0,0,1,122,79.1a25.13,25.13,0,0,1,.16-2.59C122.35,75.17,122.66,74.35,121.92,73.09Z"/><path class="cls-10" d="M119.84,62.46a6.87,6.87,0,0,1,1.57,1.26,9.34,9.34,0,0,1,1.22,3c0.31,1.1.63,2.75,0.86,3.85s0.75,3.73.39,4.9a26,26,0,0,1-1.45,3.1l-0.35.82s0.16,1.41.16,2.55a37.31,37.31,0,0,0,.08,4.55c0.2,2,.9,6.47.82,7.77a80.61,80.61,0,0,0,.63,10,32,32,0,0,1,.2,6.47l2.63,2.51,5.92,1.26,2.67-4.55L146.6,95.11l-0.67-13.18a38.94,38.94,0,0,1-6.71,0C135,81.69,127.8,80,126.51,78.47s-2.16-2.79-2.16-3.34,0.59-4.39-.35-7.57-1.65-4-2.43-4.83-0.63-.59-1.06-0.47S119.64,62.14,119.84,62.46Z"/><path class="cls-41" d="M144.32,82.27A13.51,13.51,0,0,0,142.67,86c-0.31,1.61-3.06,3.18-2.59,5.1s-0.43,3-3.06,2.43-3.69-.16-3.14.24-1,.71-1.88,1,0.63,0.47.9,1.14-0.2,1.45-1.65,1.22-5.61-.31-6.59-0.86a4.37,4.37,0,0,1-1.53-2l0.16,4.55s0.39,4.94.59,6.87,0,4.12,0,4.94,2.83,2,2.83,2a28.09,28.09,0,0,0,3.73.31c0.12-.16,3.77-4,3.77-4l5.22-8.67,5.65-5,0.63-4.9-0.08-7.1-0.39-1.18Z"/><path class="cls-42" d="M123.45,97.18a5.47,5.47,0,0,1,2.59.16,9,9,0,0,0,3,.71,12.79,12.79,0,0,1,4.39.86c1.22,0.59-4.39-.9-5.73-0.9s-3.88-.47-4.08-0.47-0.39.43,0.47,0.59a22.72,22.72,0,0,0,3.57.08,15.63,15.63,0,0,1-4,0s-0.67.31,0.2,0.43a25.57,25.57,0,0,0,4.9,0,2.55,2.55,0,0,1,1.69.35c0.51,0.2-1.69.75-2.67,0.67a25.66,25.66,0,0,0-3-.35c-1,0-1.61-.12-1.45.24a2.4,2.4,0,0,0,.86,1.45,7.52,7.52,0,0,1,1.77,1.77c0.31,0.43-2.08-2-2.35-1.33s0.63,0.75,1.77,1.69a2.57,2.57,0,0,1,1.14,1.73l5,3.77-1.69,1.1a5.29,5.29,0,0,0,2.47.08c1.1-.31-0.55.43-1.65,0.43s-2.9.27-2.28,0.55a23.36,23.36,0,0,0,2.51,1,15.3,15.3,0,0,0-2.83-.51,23,23,0,0,0-2.35-.16c-0.31,0,1.73,0,2.2-.51s0.2-.47-0.67-0.39a9.35,9.35,0,0,1-2.51.12c-0.67-.16-0.63-0.16-0.63-0.55a2,2,0,0,0,0-.51s2.71,0.55,4,0-2.86-5.26-2.86-5.26-1.22-1-1.53-1.22-0.31-4.36-.43-5.14S123.45,97.18,123.45,97.18Z"/><path class="cls-43" d="M115.83,92.16s0.31,6.91.86,8.4-1,8-.08,13.11-1.14,3-1.45,1.45-1.1-9.46-1.33-10.79-0.82-10-1-10.63-1.49-10.4-1.49-10.4Z"/><path class="cls-6" d="M160.76,61.08s0.1,5.55,2.41,6.91,4.5,2.41,4.5,2.41-0.1,2.09-.31,3.45-1.36,4.29-1,6.59-2.41,11.2-3.56,16.11S160.14,111,159.61,113s-0.94,2.3-.84,4.19-0.42,4.39.73,5.34a48.59,48.59,0,0,0,4.5,2.82,1.76,1.76,0,0,0-.1-1.46c-0.42-.73,1.57.63,3.14-0.52,0,0,2.51-.21,3.66-1.36,0,0-.21-2.09-2.09-1.57,0,0-1-1.78-.31-2.62,0,0,.52-1.26,1,1.26a5.09,5.09,0,0,0,2.83,3.87c1.15,0.73,1.46.42,0.84-1.15s-1.78-4.71-1.47-6.17,1.67-9.73.63-12.14-0.63-3.56.42-5S180.8,83.69,180.12,72c0,0,.84-6.49-2.51-11.3a23.12,23.12,0,0,0-6.7-6.7S166.2,52.82,160.76,61.08Z"/><path class="cls-26" d="M163.75,72.07a3,3,0,0,1-.05,2.88,9.6,9.6,0,0,0,.73,8c1.62,2.51,1.1,3,.42,5.7S162,100.43,161.6,102s-2.72-3.66-3.19-4.45A23.69,23.69,0,0,1,157.26,95s4.55-5.28,5.44-7.06-0.94-7.12-2.93-9.52-3.71-5.34-3-7.12S163.75,72.07,163.75,72.07Z"/><path class="cls-44" d="M140.88,27.55s-6.33-3.35-7,3.56c0,0,1.36-4.55,4.66-3.09h0s-2.56-.1-3.51,2a3.43,3.43,0,0,1,3.56-1.67s-1.94,2.51-3.66,1.31-1.26,1.15-1,2.25,0.52,4.24.63,6a15.44,15.44,0,0,1-1.62,6.49,8,8,0,0,1-2.77,3.14c-0.68.26-1.1,1.31-1.73,2.15S126,50.2,126,51.93c0,0-.05-1.16,2.18-1.65h0a9.72,9.72,0,0,1-2.59,3.38c-1.52,1-1.57.63-1.57,0.63s1.67,0.1,3.77-2.41-0.1,0-.1,0-3.4,4.19-1.94,6.59c0,0-1.26-2.41,1.52-4.5,0,0,.42,2.25-2.88,4.34s-1.78,4-1.78,4-0.78-1.83,1.41-3.09,1.2,0.05.26,0.52-0.58.42-.58,0.42a3,3,0,0,0,2.2-.37c1.15-.68-0.89,1.52-0.89,1.52s6.28-1,7.64-4.13,1.67-5.13,1.46-5.81a11.86,11.86,0,0,1,.63-6.07c1-2.62,1.31-5.34,3-6.75s2.15-3.82,4.24-4.24,2-.58,3.3.21a5,5,0,0,0,2.56,1,2.51,2.51,0,0,1-1.46-.94,15.09,15.09,0,0,0,3.35,1.78c1.41,0.42,1.52.21,2.35,2.46s0.47,5.6.31,7.32-1.1,3.19-1.46,4.29a28.32,28.32,0,0,1-3.3,5.49c-0.84.94-1.46,0.84-1.73,2.2s-3.24,6-.78,8.32,5,2.41,3.82,3.51-4.5,1.78-4.45,4.76c0,0-.1-2.2,3.77-3.82,0,0-4.92,2.77-1,6.07a2.7,2.7,0,0,1,.1-4.13S146.69,76.1,149,77.2a2.14,2.14,0,0,1-1-1.67s0.1,0.94,1.67.63c0,0-3-.42-1.2-3.61s2.67-2,2.67-2a14.2,14.2,0,0,1-.31,4.34A12.22,12.22,0,0,1,148.57,78s2.67-1.83,3.19-3.24a5.84,5.84,0,0,1-1.26,2.56l2.72,0.1s0.1-2.72.1-2.88a4.6,4.6,0,0,0,.73-1.94c0.31-1.62,1.41-1.1.94,0S153.6,78,153.6,78s1.1-4.81,1.78-5.44-1.67,3.92,3,4.76,0.16,0.1.16,0.1-3.66-1.2-2-4.39a1.21,1.21,0,0,1,.89,1.52,3.65,3.65,0,0,0,.73,2.46,3,3,0,0,1,.78-4c2.2-1.88,3.77-.42,1.62,1.88a3.17,3.17,0,0,0,1.57-2.41c0.1-1.62.47-.42,1.52,0.16s1,0.26,1,.26a2.47,2.47,0,0,0-.42-2.88c-1.26-1.67-2.51-2.88-2.77-5.44s-0.21-4.92,1.94-6.49a3.19,3.19,0,0,0,3.19.84s-2-1-1.62-2.46,0-.16,0-0.16a6.68,6.68,0,0,0,4.76-1.26s-3.45,1.73-6.12-.84-1-1.57-.26-4.39,0.84-3.3-.78-5.86-0.89-5.44-2.15-7.64-2.56-3.24-3.56-5.34-2.41-5-7-4a9.69,9.69,0,0,1-2.88-.37c-2.09-.47-3.71-1.26-5.28-0.37S140.88,27.55,140.88,27.55Z"/><path class="cls-45" d="M148.6,27.81s2.67-1.81,4.94,0c0,0-1.92-1-3.26-.35,0,0,2-.43,2.9.86l-1.53-.2s3.61,1.61,4.63,4,0.27,0.71.27,0.71-1.65-4.71-6.51-3.14A6.09,6.09,0,0,1,155.66,32h0s-2.28-2.08-3.85-1.73c0,0,2.63.47,3.69,2.2a5.41,5.41,0,0,0-7.22-.86,5.94,5.94,0,0,1,6.75.94s-3-2.94-6.32-.67c0,0,3.34-1.92,6.63,2.08h0s-3-3.61-6.47-1.69c0,0,4,.27,5,1.81s2.28,2.86,2,4.51-0.12,4,.71,5.34a12.83,12.83,0,0,1-1.06-5.65c0.08-3.41-1.06.67-.75,1.88s0,2.71,1.18,4.36,2.67,3.81,1.14,6.16-2,3.06-1.37,5.06-2,1.1-3.1,2.71a7.1,7.1,0,0,1-1.88,1.88c0,0.16.16-2.43,1.49-3.69A6.74,6.74,0,0,0,150,61.56,4.61,4.61,0,0,1,151.27,56s-3.37.39-2.28,5.92,0,0-1.37,1-1.84-.39-2.08,1.1-0.39,2.2.39,3-3.14-1.26-1.45-5.22,1.33-4.12,1.84-4.59a17.66,17.66,0,0,0,2.16-2.28c0.63-.86,3.69-6.12,4-8.87s0.59-5.53-.67-8.08a1.77,1.77,0,0,0-1.37-1.49c-1.37-.51-2.55-0.59-3.53-1.69a10.07,10.07,0,0,1-1.41-2s0.47,0,.12-0.71-0.08-.82.39-0.27,0.2-.75-0.27-1.37a3,3,0,0,0-3-1.29s1.33-1,3.88,1.29a1.47,1.47,0,0,1,.55-0.75c0.39-.24,0-0.9-0.75-1.18,0,0,1.26.47,1.29-.43s0.9,0.2.94-.63,0.2-.2,1-0.47S148.6,27.81,148.6,27.81Z"/><path class="cls-46" d="M149,32.31s5.08-.05,6.54,4.24,1.2,4.55,3.09,6.23,5.08,3.45,5.28,6.28-1.15,7.74-.21,8.95a15,15,0,0,1,.58-6.07c1-2.62.68-4-1.15-6.07s-3.77-2.09-5-5.28S156.73,32.15,149,32.31Z"/><path class="cls-47" d="M149.72,31.42s3.09-.47,4.5,1.15,4.45,7.17,6.64,8.16,3.87,4.13,4.08,6.07,0.89,4,3,4.66c0,0-2.46-.89-2.62-4.34s-0.84-5-4.13-6.75-3.56-2.88-4.5-5.07S153.7,30.48,149.72,31.42Z"/><path class="cls-48" d="M153.28,30.79s2.88,1,5,5.23,4,3.24,5.28,3.56,2.41,2.2,2.09,4.24c0,0,1-3.87-2.93-4.71s-4.92-4.24-5.44-5.28S154.9,30.95,153.28,30.79Z"/><path class="cls-49" d="M155.27,40.52a9.27,9.27,0,0,0,1.88,5.39,14.91,14.91,0,0,1,3.3,7.06c0.16,1.73,2.15,3.24,5,3.19a5.27,5.27,0,0,1-4.87-3.87,14.63,14.63,0,0,0-3.51-7.12C155.37,43.09,155.27,41.94,155.27,40.52Z"/><path class="cls-50" d="M156.58,42s0.05,2.51,1.78,3.56,3.3,1.73,3.14,3.92,0.1,3.56,1.46,4.55a4.16,4.16,0,0,1-1.2-4.5c0.89-2.88-.78-3-2.67-4S156.79,43.82,156.58,42Z"/><path class="cls-51" d="M156.47,55a2.38,2.38,0,0,0,1.15,2.41c1.47,0.94,3.77,2.35,1,3.92a1.74,1.74,0,0,0,1-2.77C158.41,56.43,156.63,58,156.47,55Z"/><path class="cls-52" d="M155.06,56.64s0.16,0.68-2.35,2.41-2.77,2.77-1.36,5.13c0,0-1.36-1.83.05-3.3,0,0-.42,2.62,1.2,3.92,0,0-2.09-3-.21-4.39s2.72-.37,3.45-2.51l-1.15.89,0.78-1.1-0.63.47,0.52-1.46-1,1.78Z"/><path class="cls-53" d="M157.21,58.47a7.86,7.86,0,0,1-1.78,3.92c-1.47,1.52-1.2,2.88-.47,4.29,0,0-1.78-2,.21-4.76s2-3.4,2-3.56v0.1Z"/><path class="cls-54" d="M132.46,50.73a6.14,6.14,0,0,0-1.94,3.56L130.94,52l-0.84,1.31,0.58-1.46-0.73.63L130.57,51l-0.73,1,1-1.43L132,48.84l-1,1.94,1.26-1.31L131.36,51l1.47-1.41-1.52,1.88,1.2-.84Z"/><path class="cls-55" d="M132.3,54.49a7.43,7.43,0,0,1-1.88,1.62c-1.2.73-2,3.14-3.92,3.3A7.08,7.08,0,0,0,129,57.16C130.52,55.22,131.1,56,132.3,54.49Z"/><path class="cls-56" d="M129.37,55.38a4.15,4.15,0,0,0-2.46,2c-1,1.73-1.2,2.46-2.51,2.46,0,0,.78-0.05,2.25-2.46S129.37,55.38,129.37,55.38Z"/><path class="cls-57" d="M145.12,34.14a4.83,4.83,0,0,1-1.94-2.46c-0.68-1.78-1.1-2.77-3.3-1.41s-1.78,3.61-1.78,4.5a4.07,4.07,0,0,1,.63-3.87c1.47-1.62,4.39-4.24,7-1.41,0,0-2.09-1.78-3.77-.63a4.18,4.18,0,0,1,1.78,1.88,4.94,4.94,0,0,0,2.3,3.14s-1.83.21-2.93-3.71C143.13,30.16,142.5,31.63,145.12,34.14Z"/><path class="cls-45" d="M126,60.88s6.44-3.3,6.8-7-0.16-4.29.31-6.91a32.82,32.82,0,0,1,2.62-8c0.78-1.31-.05-0.1-0.05-0.1s-1.78,6.54-1.78,9.47,0.26,3.19.05,4.24-0.78,4.55-2.09,5.6A12.49,12.49,0,0,1,126,60.88Z"/><path class="cls-58" d="M160,65.53a32.1,32.1,0,0,1,1.31,4.66c0.31,1.94.84,3.3-.16,4.08,0,0,1.15-1.2-.21-4.13,0,0-1.57,1.73-2.67,2.83s-0.89,1.94-.52,3.35a3.93,3.93,0,0,1,.16-3.24c0.89-1.57,1.88-2.09,2.25-3.19,0,0-2.51,2.2-2.56,3.14a5.7,5.7,0,0,1,1.83-2.93s-2.46,2-2.3,3.09c0,0-.21-1.2,1.36-2.67,0,0-3,2.72-2.46,4.5a2.83,2.83,0,0,0,1.94,2s-2.88-.37-2.09-4,2.25-2,2.67-4.55,0.73-3.35-.89-4.81,2.3,0.62,1.65,3.65l0,0.12c-0.79,3.09.89-1.57-.05-2.93s0.73,0.94.73,0.94"/><path class="cls-59" d="M153.75,70.76a27.33,27.33,0,0,0-.84,4.66,13.36,13.36,0,0,1,.1-3.24c0.31-1.15-.37.79-1.73,2.72s2.72-2.82,1.78-6.64S153.75,69.35,153.75,70.76Z"/><path class="cls-60" d="M169,117.39a2.29,2.29,0,0,0-.2-1.84c-0.55-.82-1.1-1-1.18-1.33a7.83,7.83,0,0,1,.55,3.1A6.38,6.38,0,0,0,168,119S167.79,117,169,117.39Z"/><path class="cls-60" d="M163.78,123.87a2.62,2.62,0,0,1-1.26-.75c-0.9-.75-1.18-0.9-1.1-1.84s-0.35-4.71-.35-4.71a7.88,7.88,0,0,1,.43,2.12c0,0.9-.59,4,2.28,4.94v0.24Z"/><path class="cls-60" d="M167.28,123.24a2.1,2.1,0,0,1-1.53-.63c-0.75-.71,1.18.78,2.28-0.08,0,0,.55.79,2-0.27A3.5,3.5,0,0,1,167.28,123.24Z"/><path class="cls-6" d="M112.73,94.15h0.21c-1.26.73-2.67-2.15-2.67-2.15-0.73,1.78-2.56.1-3.19-.68a36.29,36.29,0,0,0-3.45-3.66,6.66,6.66,0,0,0-4.29-1.36c-2-.1-3.56,1.88-4.76,2.51S92,90.07,91.49,91.22s0.16,1.41-.1,2.41a1.13,1.13,0,0,1-1,1c-1.46-2.88.1-8.63,0.68-9.84s1.52-4.19,1.52-4.19,4.6,1,5.91.78a17.11,17.11,0,0,1,6.8-2.62c3.4-.31,5.39-0.68,6.28.05A28.14,28.14,0,0,1,115.51,84a7.55,7.55,0,0,0,.58,1.15,12.45,12.45,0,0,0,2.62.78c1.15,0.16,2.15.42,1.52,1.26s-1.94,1.67-3,1.26l-0.42-.16a15.84,15.84,0,0,1,.42,3.51c-0.1,1.2-1,1.94-1.88.58a5.94,5.94,0,0,1-1-2.2s0.37,2-.1,2.67-0.78.37-.78,0.37A1.12,1.12,0,0,1,112.73,94.15Z"/><path class="cls-61" d="M98.33,81.65a6.71,6.71,0,0,0-2.28,2.08C95.31,85,95.39,85.26,93.62,86s-2.51,1.1-2.51,1.1,4-2,4.12-3.77-0.59-2.28-.59-2.28,3,0.65,3.86.29S98.33,81.65,98.33,81.65Z"/><path class="cls-62" d="M104,83.84a11,11,0,0,1,1.8,1.33c0.78,0.75,1.18,1.88,2,2.83A31.35,31.35,0,0,1,110,90.59a4.83,4.83,0,0,1,.35,1.41s0.55-1.06-1.37-2.86a7.5,7.5,0,0,1-2.08-2.75C106.34,85.57,103.79,83.25,104,83.84Z"/><path class="cls-62" d="M107.75,83a7.15,7.15,0,0,0,1,1.45c0.75,0.86,1.84,1.88,2,2.67s1.29,3.3,1.57,3.92a11.27,11.27,0,0,0,.67,1.26s-1.49-3.45-1.84-4.47a4.73,4.73,0,0,0-1.26-2.24C109.16,84.75,107.52,82.47,107.75,83Z"/><path class="cls-62" d="M111.16,82.82s1.45,2.12,1.77,2.79a8.32,8.32,0,0,1,.75,2.35,20.28,20.28,0,0,0,.63,2.39c0.16,0.59-.39-1.92-0.35-2.79a4.49,4.49,0,0,0-1.1-2.39C112.42,84.55,111,82.12,111.16,82.82Z"/><path class="cls-63" d="M110.18,91.38l-0.06-.07c-0.21-.26-1-1.13-1.55-0.56s-0.08,1.37.59,2S110.65,92.4,110.18,91.38Z"/><path class="cls-63" d="M111.64,93.77s0-1.53,1-1.41a2.23,2.23,0,0,1,.9,1.14C113.79,94.28,112.58,94.83,111.64,93.77Z"/><path class="cls-63" d="M113.09,92.4s0.63-.9.9-0.63a1.15,1.15,0,0,1,0,1.57C113.4,93.81,113,93.1,113.09,92.4Z"/><path class="cls-63" d="M115.44,92a1.57,1.57,0,0,1,.43-0.9,0.7,0.7,0,0,1,1.22.43c0.12,0.71,0,2.35-1.49,1.37A1.57,1.57,0,0,1,115.44,92Z"/><path class="cls-61" d="M116.76,88.29s-0.38-2-.61-2.72,0.39,1.29.63,1.92a1.66,1.66,0,0,0,2.12.71A1.7,1.7,0,0,1,116.76,88.29Z"/><path class="cls-25" d="M159.46,111.94s-1.2,3.61-1.88,5.18a57.14,57.14,0,0,1-6.17,8.74l-0.1.52s2.2-.58,1.57.42-1.83,2.67-2.72,3-20.88,0-20.88,0-9.1-1.26-10.31-4-2-4.29-2-4.29l5.76-3.77,2.15,3.35s0.58,2.83,1.73,2.93,9.31-.47,11-0.73,3.45,0.37,4.87,0,3.71-2.62,5.23-5S154.75,105,154.75,105Z"/><path class="cls-64" d="M130.42,129.41a12.44,12.44,0,0,1,3.56-1.57c1.26-.21,6.64-0.1,7.9-0.31l4.13-.68a65.53,65.53,0,0,1-8.11.31c-2.72-.21-5.39,1-3.4-0.84s-2.62.05-2.62,0.05l-5.7-2.41a9.52,9.52,0,0,0-3,0c-0.73.31-.68,1.15,0.89,2.35s-1,0-1.52-1,0.52-1.78,1.52-2,1.15-.78-0.1-1.94a28.41,28.41,0,0,1-2.51-2.72s0.31-1,1.31-.05,1.52,1,2.09,2.51,0.37,2.35,2,3a44.68,44.68,0,0,0,6.12,1.26Z"/><path class="cls-65" d="M154.56,105.5s-2.67,6-3.92,8.24-3.61,6.75-4.87,7.85-7.46,2.51-8.95,2.35-1.26,1-2.28,2.12-11.46,1.57-11.46,1.57l-4.47-2.2s0,0.78-.24-0.31,3.22,0.86,3.22.86,1.65,1.57,4.32-1.1c1.49-1.49,2.12-4.87,2.35-4.87s4.71,0.31,4.94.31,5.34-.16,5.73-0.16,7.46-.55,7.53-0.86,1.41-5.73,1.65-6.12,2.28-3.14,2.59-3.45,3.69-6.12,3.69-6.12a34.08,34.08,0,0,1,2.75,2.35,12.72,12.72,0,0,0,1.41,3.06,23.19,23.19,0,0,1,1.73,2.35l-0.84.55s-2.69-2-3.48-3.61-1.41-2.83-1.41-2.83"/><path class="cls-65" d="M123.88,109.35s-6.59-.71-7.3-3.06-1.41-1.73-1.81-1.26-1.1-.39-0.39-0.94a18.69,18.69,0,0,0,2-2.28s0.31-2,1.73-1.33,2,2.35,3,3.06a3.46,3.46,0,0,0,2.51.31Z"/><path class="cls-65" d="M122.73,118.58a9.94,9.94,0,0,0-1.44,1.13c-0.86.78-3.14,1.49-3.45,2.12s-0.55,1-.55,1l-0.37-1.33Z"/><path class="cls-66" d="M150.61,78.19c-0.2,0-3.77.42-5,2.51a14.67,14.67,0,0,0-1.67,4.6,16.6,16.6,0,0,0-.47,2.25s-0.05-.89-0.63-0.63-0.21.89-.21,1.36-0.42,2.88,0,3.56c0,0,.16.21,0.26-0.21a10.43,10.43,0,0,0,.68,2.14c0.31,0.47-.1,1.36.26,1.67s1.78,2.88,6.54,1.73,6.38-1.46,6.91-1.83a4.72,4.72,0,0,0,1-2.25,2.17,2.17,0,0,0,.1-1.88,0.82,0.82,0,0,0-1.15-.1,6.76,6.76,0,0,0,1.41-2.93c0.21-1.52.37-5.08-.58-6.23S154.17,77.46,150.61,78.19Z"/><path class="cls-67" d="M143.13,88.32a1.28,1.28,0,0,0-.26-1c-0.39-.39-0.24.29-0.13,0.58a3.5,3.5,0,0,1-.13,1.33C142.56,89.31,143.13,88.32,143.13,88.32Z"/><path class="cls-67" d="M143,90.49a8.52,8.52,0,0,1,0-1.1,2.84,2.84,0,0,0-.31,1.12C142.69,90.88,142.82,90.78,143,90.49Z"/><path class="cls-67" d="M156.68,92.63s-0.05.31-.13,0.63-0.34.6-.1,0.73,0.44,0.13.63-.26-0.1-.34-0.16-0.76S156.66,92.37,156.68,92.63Z"/><path class="cls-67" d="M157.7,91.43a0.37,0.37,0,0,1,.55.42c-0.05.68-.44,0.65-0.47,1.12s-0.1,1.78-.89,1.75c0,0,.65.21,1.07-1.46s0.44-1.12.42-1.52S158.07,91.06,157.7,91.43Z"/><path class="cls-10" d="M145,87.19a2.53,2.53,0,0,1,1.75-.44c0.89,0.18,1.44.89,0.89,1a4.49,4.49,0,0,1-2-.34A1.78,1.78,0,0,1,145,87.19Z"/><path class="cls-15" d="M146.32,87.63a0.69,0.69,0,0,1,0-.78,0.51,0.51,0,0,1,.53-0.07,1.74,1.74,0,0,1,.94.56c0.09,0.19.26,0.55-.66,0.49A2.68,2.68,0,0,1,146.32,87.63Z"/><ellipse class="cls-16" cx="146.71" cy="87.05" rx="0.11" ry="0.11"/><path class="cls-67" d="M145,87.18a2.31,2.31,0,0,1,1.54-.51c0.64,0.18,1.25.28,1.35,0.83a1.54,1.54,0,0,0-1.4-.77A2.46,2.46,0,0,0,145,87.18Z"/><path class="cls-67" d="M148.19,87.27s0.57,0.27.18,0.6a8.83,8.83,0,0,1-1.27.76S148.58,87.89,148.19,87.27Z"/><path class="cls-67" d="M147.91,90.32a1.32,1.32,0,0,1-.39-0.49c-0.07-.24,0-0.31.17-0.24a1.19,1.19,0,0,1,.5.48C148.19,90.22,148.19,90.33,147.91,90.32Z"/><path class="cls-67" d="M149.25,90.55a0.33,0.33,0,0,1-.12-0.39c0.11-.24.25-0.22,0.33-0.07s0.46,0.25.32,0.39A0.37,0.37,0,0,1,149.25,90.55Z"/><path class="cls-67" d="M149.84,89.4a1.22,1.22,0,0,1,.36.34,0.67,0.67,0,0,1,.11.88,0.77,0.77,0,0,1-.9.32,0.76,0.76,0,0,0,1-.25c0.31-.56.16-0.66,0.36-0.47L151.61,91a6.74,6.74,0,0,1-1.3-1.48C150,88.93,149.9,89.15,149.84,89.4Z"/><path class="cls-67" d="M151.91,90.2s-1.66-1.17-1.54-1.72a1,1,0,0,1,.77-0.89S150.1,88.68,151.91,90.2Z"/><path class="cls-67" d="M151.09,88.79a0.73,0.73,0,0,1,.65-0.55A2.35,2.35,0,0,1,154,89.37s0,0.26-.38.07a4.9,4.9,0,0,0-1.32,0A1.62,1.62,0,0,1,151.09,88.79Z"/><path class="cls-10" d="M151.15,88.84a0.88,0.88,0,0,1,1-.57c0.79,0.07.16,1.11,0.16,1.11A1.55,1.55,0,0,1,151.15,88.84Z"/><path class="cls-15" d="M153.86,89.41a2,2,0,0,0-1.69-1.14,0.62,0.62,0,0,0,.09,1.11A10.86,10.86,0,0,1,153.86,89.41Z"/><ellipse class="cls-16" cx="152.25" cy="88.72" rx="0.13" ry="0.13"/><path class="cls-67" d="M146.85,94.69a1,1,0,0,1,1.22.06c0.73,0.49.37,0.63,0.37,0.63a0.36,0.36,0,0,0,.12-0.41,0.33,0.33,0,0,1,.22-0.43,2.74,2.74,0,0,1-1.61-.43S147.34,94.42,146.85,94.69Z"/><path class="cls-68" d="M148.27,92.44s-0.16-.27-0.77-0.06a3.12,3.12,0,0,1-.92.22,1.58,1.58,0,0,0,.65,1,1.93,1.93,0,0,0,2.32.2s0.31-.16,0-0.45S148.89,92.26,148.27,92.44Z"/><path class="cls-69" d="M146.7,92.67a4.59,4.59,0,0,0,.88,0c0.14-.06.33,0.24,0.63,0.22A3.06,3.06,0,0,0,149,93a1,1,0,0,1,.51.51,1.69,1.69,0,0,0-1-.35,6.94,6.94,0,0,1-1.08-.35A1.34,1.34,0,0,1,146.7,92.67Z"/><path class="cls-70" d="M151.66,86.39s-1.1.16-.43,0.47,1.92,0.08,2.86,1.14,1.29,0.71.59-.08A3.8,3.8,0,0,0,151.66,86.39Z"/><path class="cls-70" d="M148.28,85.81s-2-1.37-3.26-.59c0,0-.31-0.35.86-0.59S149.07,85.33,148.28,85.81Z"/><path class="cls-71" d="M143.3,86.71a4,4,0,0,0,.51-1.29c0-.51.43-3.61,2.08-5.22s3.61-2.47,5-2.31,2.39,0,3,.47,2.35,0.75,3.37,1.84,2.71,3.34,2.28,5.26a30.27,30.27,0,0,0-.86,5.1c0,0.86.27,0.59-.55,0.47s-0.84.09-.84,0.09l-0.65.5s0.71-2.59,1-4.47,0.63-4.67-1.61-6.28-3.49-.67-6.16-1-3.61-.24-4.59,2a28.17,28.17,0,0,0-1.69,5.65C143.5,88,143.54,87,143.3,86.71Z"/><path class="cls-66" d="M131,102.91a1.37,1.37,0,0,1-1.1.31,30.26,30.26,0,0,0-4.67.82c-1.45.35-2.55-.2-3.18-0.12s-0.47.39-.94-0.39a6.76,6.76,0,0,0-1.33-2.16c-0.63-.43-0.63-0.86-1.29-0.9s-1.33-.39-1.61.2a2,2,0,0,0-.08,1.26,0.62,0.62,0,0,0-.94,0,1.55,1.55,0,0,0-.39,1.22s-0.47,0-.47.24-1.41.12-1.37,0.9,0.47,1.14.86,0.71,0.27-.86.39-0.55a9,9,0,0,0,1.33,1.41l1.37,1.41a3.21,3.21,0,0,0,2.24.78c0.78-.16,1.06.51,1.61,0.67a21.62,21.62,0,0,0,6.12.39c1.57-.35,4,0.82,6-2.28s-3.49,7.38-3.49,7.38-0.51-.27-0.86-0.51A33.36,33.36,0,0,0,124.7,111c-1.53-.63-3.77-1.1-5.18.16s-2.83,2.71-3.81,3.61a6.74,6.74,0,0,0-1.8,2.08c-0.35.75-.43,1-0.71,0.63a19.69,19.69,0,0,1-2-2.28,3.06,3.06,0,0,0-1.53-1.53c-0.59-.2-2.2-0.43-1.92.94l0,0.27a2.12,2.12,0,0,0-1-.55,0.66,0.66,0,0,0-.55,1.14s-1.06-.47-1.06.24a0.86,0.86,0,0,0,.59.86s-1,.12-0.35.86,0.39,0.55.39,0.55-0.86.31-.39,0.9a2.31,2.31,0,0,0,1.18.94c0.24,0,1.06,1.41,1.65,1.77s4.79,3.37,5.45,3.73a2.28,2.28,0,0,0,2,0s0.27,1.1,1,1,0.12,0.08.12,0.08-0.35,1,.08,1.06a1.23,1.23,0,0,0,.16,1.18,0.83,0.83,0,0,0,.16,1.14l0.12,0.12h12.44a24,24,0,0,0,2.71-1.84c0.55-.55,3.65-3.37,4.32-4.28s0.75-.43,1.14-0.39a8,8,0,0,1,1.41,0c0.55,0.12,3.26.75,5.18-1s1.77-2.59,1.77-2.59l0-3.14-7.34-4.94L132.12,115s-1.61,3.49-1.73,3.53S127,124,127,124s-2.79,3.69-4.67,2.75-3.06-2.08-3.73-2.24-1.65-.31-1.65-0.31a2.58,2.58,0,0,0-.12-1.14,5.62,5.62,0,0,1,1.53-1.61,22.24,22.24,0,0,0,3.92-2.94,29.16,29.16,0,0,0,3.34,3.3c1,0.67,5-6.91,5-6.91l4.24-6.32,1.37-4.67Z"/><path class="cls-66" d="M161.9,104.76a7.21,7.21,0,0,1,1.92,2.32,33.2,33.2,0,0,1,2,5.34c0.2,1.18,1,3.73.82,4.36a5.1,5.1,0,0,1,1.06,1.65,4.34,4.34,0,0,1-.08,2.24,2.49,2.49,0,0,1-1.45,1.61c-0.67.12-1.26,0-1-.31,0,0-1.18,0-1.1-.82,0,0-1.1.63-1.33,0,0,0-.75.86-0.9,0.43,0,0-1.1.78-1.37-.35a10,10,0,0,1,0-1.1,2.44,2.44,0,0,1,0-2c0.59-1,1-1.69,1-1.69a2,2,0,0,0-.31-1.73c-0.63-.94-3.18-5.14-3.92-6S158.53,102.76,161.9,104.76Z"/><path class="cls-72" d="M130.59,99.42a10.9,10.9,0,0,0,.67,4.16,12.56,12.56,0,0,0,2,2.71,4.48,4.48,0,0,1-.51,1.77c-0.43.67-.82,2.55-1.41,3.06a3.3,3.3,0,0,0-1.33,1.65c-0.12.67-.51,2.51-0.67,3.22a5.46,5.46,0,0,1-1.41,2.51c-0.75.71-2,2.35-2.51,2.79s1.73,2.39,2.2,1.57,2.39-2.55,2.71-3.18a27.56,27.56,0,0,1,2.94-4.67c0.82-.75,2.9-2.24,5.06-1.26a24.64,24.64,0,0,1,3.53,1.84,11.62,11.62,0,0,1,2.75,2.12c0.51,0.71,1.61,1.61,1.49,2.24s0,0.75.27,0.35,2.51-3.85,3.41-5.77,4.16-7.65,4.39-8.63,0.24,0,.75.59a16.67,16.67,0,0,1,1.69,2.24,4.08,4.08,0,0,0,1.18,1.26c0.24,0.08-.71-1.3,0-2.24a2.92,2.92,0,0,0,.75-1.65c0-.27.47,0,0.82-0.12a9.34,9.34,0,0,0,1.88-1.06,0.93,0.93,0,0,1,1.26.12c0.16,0.27.67-.75,0.71-1.14s-0.16-.55-0.71-1a9.78,9.78,0,0,1-2.24-3c-0.24-.86,0-3.61-0.55-3.92s-1.65-.24-2.55-0.59-1.41-.67-1.77-0.35a5.76,5.76,0,0,1-2.51,1.18c-1,.12-3.06.78-4,0.86a7.78,7.78,0,0,1-4.2-1.26,10.35,10.35,0,0,0-1.53-1.22c-0.2-.12-3.34-0.9-4.28-0.47a11.71,11.71,0,0,0-2.71,1.57c-0.2.31-.43,0.67-0.67,1.1s0,0.67-.47,1.06a16.45,16.45,0,0,1-2.28,1.33C132.16,99.42,131.1,99.81,130.59,99.42Z"/><path class="cls-6" d="M130.67,103.23s0.43,1.77.67,2.9,0,0.35-.43-0.82a18.09,18.09,0,0,0-.86-2.12A0.49,0.49,0,0,0,130.67,103.23Z"/><path class="cls-6" d="M119.6,102.52s-0.27-.35-0.78-0.9-0.39-.24,0,0.12,0.86,0.86.24,0.71a2,2,0,0,0-1.29,0C117.6,102.52,119.4,102.36,119.6,102.52Z"/><path class="cls-6" d="M116.82,101.93l0.47,0.67a1.53,1.53,0,0,0-.27,1.26A4.25,4.25,0,0,1,116.82,101.93Z"/><path class="cls-65" d="M117.4,104.44a2,2,0,0,0,.78-0.35c0.24-.24.47,0.35,0.63,0.47s-0.51-.35-0.27.39a6.25,6.25,0,0,1,.27,1.18,2.69,2.69,0,0,0-1.14-.2c-0.27.12,0.08-.71-0.2-0.78S117.6,104.68,117.4,104.44Z"/><path class="cls-62" d="M115.48,103.78a2.13,2.13,0,0,0,.71.94,3.46,3.46,0,0,0,1,.31A2,2,0,0,1,115.48,103.78Z"/><path class="cls-62" d="M114.93,103.74a1.54,1.54,0,0,1-.27.9C114.38,104.91,114.93,103.74,114.93,103.74Z"/><path class="cls-73" d="M123.25,113.9s-0.35,3-1.18,4.12-0.08.9-1,1.49l1.22-1,2.67,2.75,0.43,0.2a4.88,4.88,0,0,1,.75-0.94c0.39-.35,2.43-2.67,2.43-2.67a12,12,0,0,0,.9-2.47c0-.55-1.1,2-2.35,2.75s-1.88.86-1.37-.12,0.9-2,.9-2-0.82,2.2-1.45,2.28a0.93,0.93,0,0,1-1.26-.71c0-.63,1-1.41,1-2.35s-0.86,2.32-1.53,2.47-0.16-.82,0-1.92A3.47,3.47,0,0,0,123.25,113.9Z"/><path class="cls-65" d="M108,115.78l-0.35.35s-0.63,0-.59-0.35l-0.31.08a1.94,1.94,0,0,1,.67.71c0,0.2-.27.67-0.59,0.39a2.29,2.29,0,0,0-.63-0.39,4.49,4.49,0,0,1,.63.63,0.72,0.72,0,0,1,0,.75c-0.12.2-.47,0-0.63-0.2a6.8,6.8,0,0,0,.43.59,1.11,1.11,0,0,1,.31.75,2.46,2.46,0,0,1,.2-1.37c0.27-.27,0-0.47.43-0.94s0.16-.9.94-0.67a0.88,0.88,0,0,0,1,0,1.33,1.33,0,0,1-1.3-.75C107.91,114.53,108.18,115.31,108,115.78Z"/><path class="cls-65" d="M109.95,119.16a4.42,4.42,0,0,1-1.29-1.53C108.61,117.12,108.89,118.53,109.95,119.16Z"/><path class="cls-65" d="M116.93,126.22a2.06,2.06,0,0,1,1.61,0c0.82,0.39.24-.51-0.55-0.43s-1.45.55-1.77,0.2S115.79,126.38,116.93,126.22Z"/><path class="cls-65" d="M116.78,127s0.08,0.43,1.14.35,1,0.27,1,.27-1.57-.47-2-0.16A0.29,0.29,0,0,1,116.78,127Z"/><path class="cls-65" d="M116.89,128a0.82,0.82,0,0,0,.47.63c0.39,0.12,1.41.35,1.41,0.35l-1.77-.35A0.65,0.65,0,0,1,116.89,128Z"/><path class="cls-65" d="M139.81,119.32a4.18,4.18,0,0,1-1.49,2.31C137.22,122.3,139.34,122.22,139.81,119.32Z"/><path class="cls-73" d="M163.63,115.2a4,4,0,0,0-1.61.86,1.38,1.38,0,0,1-.59.55,1.82,1.82,0,0,0,.08-1.45c-0.35-.51-2-3.1-2-3.1a16.87,16.87,0,0,0-1.45-2.31c-0.39-.35.47-0.47,0.9-1.1s0.75-1.61,1.22-2.16,0.47-.43.16,0.2,0.75-.71,1.14-0.9-0.78.9-1.33,1.57-1.22.75-.78,1.73a42.73,42.73,0,0,0,2.2,4.47c0.67,1,.94,1.37,2,1.37a4.52,4.52,0,0,1,2.24.9S164.41,114.72,163.63,115.2Z"/><path class="cls-65" d="M163.39,118a20.71,20.71,0,0,1-.9,2c-0.31.51-.55,0.9-0.31,0.75a0.32,0.32,0,0,1,.51.12,20.07,20.07,0,0,1,.78-2.67C163.82,117.71,163.39,118,163.39,118Z"/><path class="cls-65" d="M165,119.16A9.72,9.72,0,0,1,163.9,121c-0.31.24,0.12,0.12,0.43-.31A2.84,2.84,0,0,0,165,119.16Z"/><path class="cls-65" d="M166.53,119.75s-0.86,1.88-1.49,2.08,0.27,0.08.75-.43A2.12,2.12,0,0,0,166.53,119.75Z"/><path class="cls-65" d="M160.53,119.87s0.16-.75.35-1.37S160.45,119,160.53,119.87Z"/><path class="cls-74" d="M136.07,98.49s-0.94,4.81-.68,5.18-0.58,1.36-1.26,2,2.15-1.36,1.83-2.67a4.15,4.15,0,0,1,.89-3.77c1-1.31,1.46-1.62,1.1-2.83s0.16-.1-0.58,1.15S136.59,99.17,136.07,98.49Z"/><path class="cls-74" d="M156.21,99.91a3.44,3.44,0,0,1-.94,2.77c-1.2,1.26-1.62,1.26-1.47,1.94s-1.57-.73-2.72-0.47,1.88-.42.84-1.2,2.15,1.88,1-.05-0.89-.89-2.3-2.15a15.56,15.56,0,0,0-2.83-2,50.32,50.32,0,0,1,4.76,2.93c0.89,0.78.94,1.94,1.73,1.2s1.73-1.62,1.73-2.46,0.26-.68.26-0.68"/><path class="cls-74" d="M151.24,108.54s-6.33,4.87-10.57,5.23S143.34,115.6,151.24,108.54Z"/></g></g></svg>