<svg id="Layer_1" data-name="Layer 1" xmlns="http://www.w3.org/2000/svg" xmlns:xlink="http://www.w3.org/1999/xlink" viewBox="0 0 46.67 56.17"><defs><style>.cls-1{fill:#fafafa;}.cls-2{fill:#223af0;}.cls-3{fill:url(#linear-gradient);}</style><linearGradient id="linear-gradient" x1="34.08" y1="19.52" x2="34.08" y2="7.77" gradientUnits="userSpaceOnUse"><stop offset="0" stop-color="#223af0"/><stop offset="1" stop-color="#00d2ff"/></linearGradient></defs><title>icon</title><rect class="cls-1" width="46.67" height="56.17" rx="4.4" ry="4.4"/><rect class="cls-2" x="5.9" y="46.4" width="34.88" height="2"/><rect class="cls-2" x="5.9" y="38.67" width="34.88" height="2"/><rect class="cls-2" x="5.9" y="30.95" width="34.88" height="2"/><rect class="cls-2" x="5.9" y="23.22" width="34.88" height="2"/><rect class="cls-2" x="5.9" y="15.5" width="17.44" height="2"/><rect class="cls-2" x="5.9" y="7.77" width="17.44" height="2"/><path class="cls-3" d="M35.81,19.52H35A5.87,5.87,0,1,1,35,7.77h2.25a1,1,0,0,1,1,1V10.4a1,1,0,1,1-2,0V9.77H35a3.87,3.87,0,1,0,0,7.75h.79A1.21,1.21,0,0,0,37,16.31v-2H34.4a1,1,0,0,1,0-2H38a1,1,0,0,1,1,1v3A3.21,3.21,0,0,1,35.81,19.52Z"/></svg>