<svg xmlns="http://www.w3.org/2000/svg" xmlns:xlink="http://www.w3.org/1999/xlink" preserveAspectRatio="xMidYMid" width="205" height="157" viewBox="0 0 205 157">
  <defs>
    <style>
      .cls-2 {fill: #ffffff; stroke: #d04929; stroke-linejoin: round; stroke-width: 1px}
    </style>
  </defs>
  <path d="M304.500,414.136 C304.500,414.136 -264.314,455.419 -264.314,455.419 C-264.314,455.419 -264.314,455.500 -264.314,455.500 C-264.314,455.500 -264.853,455.458 -264.853,455.458 C-264.853,455.458 -265.438,455.500 -265.438,455.500 C-265.438,455.500 -265.438,455.411 -265.438,455.411 C-265.438,455.411 -836.500,410.376 -836.500,410.376 C-836.500,410.376 -669.003,0.500 -669.003,0.500 C-669.003,0.500 -264.876,90.623 -264.876,90.623 C-264.876,90.623 139.252,0.500 139.252,0.500 C139.252,0.500 304.500,414.136 304.500,414.136 Z" id="path-1" class="cls-2" fill-rule="evenodd"/>
</svg>