<svg id="Layer_1" data-name="Layer 1" xmlns="http://www.w3.org/2000/svg" viewBox="0 0 87 87"><defs><style>.cls-1{fill:none;stroke:#000;stroke-miterlimit:10;stroke-width:2px;}</style></defs><title>Untitled-2</title><path class="cls-1" d="M43.5,86A42.5,42.5,0,1,1,86,43.5,42.55,42.55,0,0,1,43.5,86Zm0-80A37.5,37.5,0,1,0,81,43.5,37.54,37.54,0,0,0,43.5,6Z"/><circle class="cls-1" cx="43.5" cy="23.5" r="5.5"/><path class="cls-1" d="M43.5,34A5.51,5.51,0,0,0,38,39.5v24a5.5,5.5,0,0,0,11,0v-24A5.51,5.51,0,0,0,43.5,34Z"/></svg>