<svg id="ipv-industries" xmlns="http://www.w3.org/2000/svg" viewBox="0 0 52.51 41.96"><title>ipv-industries</title><rect x="21.64" y="35.73" width="0.55" height="5.85"/><polygon points="25.49 40.27 23.63 35.73 23.23 35.73 23.23 41.58 23.7 41.58 23.7 36.99 25.57 41.58 25.96 41.58 25.96 35.73 25.49 35.73 25.49 40.27"/><path d="M28.25,35.73H27v5.85h1.32a1.39,1.39,0,0,0,1.19-.47,2.2,2.2,0,0,0,.35-1.34V37.45a2,2,0,0,0-.36-1.27A1.5,1.5,0,0,0,28.25,35.73Zm1,4a4,4,0,0,1-.06.81.85.85,0,0,1-.29.49,1,1,0,0,1-.66.18h-.74v-5h.71a1.16,1.16,0,0,1,.65.15.75.75,0,0,1,.3.44,2.94,2.94,0,0,1,.08.76Z"/><path d="M33.14,40a1.58,1.58,0,0,1-.22.89,1,1,0,0,1-1.5,0,1.64,1.64,0,0,1-.21-.9V35.73h-.53V40A2,2,0,0,0,31,41.22a1.38,1.38,0,0,0,1.17.43,1.37,1.37,0,0,0,1.15-.44A2,2,0,0,0,33.66,40V35.73h-.53Z"/><path d="M36.36,38.71l-1-1a1.6,1.6,0,0,1-.32-.42,1,1,0,0,1-.09-.43.71.71,0,0,1,.23-.58,1,1,0,0,1,.63-.19.72.72,0,0,1,.65.29,1.82,1.82,0,0,1,.24.88l.47-.12a1.78,1.78,0,0,0-.4-1.13,1.31,1.31,0,0,0-1-.35,1.4,1.4,0,0,0-1,.33,1.19,1.19,0,0,0-.36.93,1.49,1.49,0,0,0,.13.62,1.85,1.85,0,0,0,.4.55l1,1a3.57,3.57,0,0,1,.55.63,1.17,1.17,0,0,1,.17.63.74.74,0,0,1-.82.85.77.77,0,0,1-.7-.33,2.21,2.21,0,0,1-.28-1l-.48.14a2,2,0,0,0,.41,1.17,1.3,1.3,0,0,0,1,.42,1.36,1.36,0,0,0,1-.35,1.28,1.28,0,0,0,.37-1,1.65,1.65,0,0,0-.23-.85A3.63,3.63,0,0,0,36.36,38.71Z"/><polygon points="37.4 36.16 38.58 36.16 38.58 41.58 39.13 41.58 39.13 36.16 40.27 36.16 40.27 35.73 37.4 35.73 37.4 36.16"/><path d="M43.34,38.14a2,2,0,0,0,.18-.92,1.64,1.64,0,0,0-.33-1.11,1.42,1.42,0,0,0-1.12-.38H40.75v5.85h.55V38.71h.92l.86,2.87h.53l-.9-3A.85.85,0,0,0,43.34,38.14ZM42,38.3H41.3V36.14h.76a.89.89,0,0,1,.73.25,1.34,1.34,0,0,1,.2.82,1.31,1.31,0,0,1-.21.82A.9.9,0,0,1,42,38.3Z"/><rect x="44.46" y="35.73" width="0.55" height="5.85"/><polygon points="46.6 38.76 47.87 38.76 47.87 38.35 46.6 38.35 46.6 36.16 48.16 36.16 48.16 35.73 46.04 35.73 46.04 41.58 48.17 41.58 48.17 41.17 46.6 41.17 46.6 38.76"/><path d="M50.66,38.71l-1-1a1.6,1.6,0,0,1-.32-.42,1,1,0,0,1-.09-.43.71.71,0,0,1,.23-.58,1,1,0,0,1,.63-.19.72.72,0,0,1,.65.29,1.82,1.82,0,0,1,.24.88l.47-.12A1.78,1.78,0,0,0,51,36a1.31,1.31,0,0,0-1-.35,1.4,1.4,0,0,0-1,.33,1.19,1.19,0,0,0-.36.93,1.49,1.49,0,0,0,.13.62,1.85,1.85,0,0,0,.4.55l1,1a3.57,3.57,0,0,1,.55.63,1.17,1.17,0,0,1,.17.63.74.74,0,0,1-.82.85.77.77,0,0,1-.7-.33,2.21,2.21,0,0,1-.28-1l-.48.14a2,2,0,0,0,.41,1.17,1.3,1.3,0,0,0,1,.42,1.36,1.36,0,0,0,1-.35,1.28,1.28,0,0,0,.37-1,1.65,1.65,0,0,0-.23-.85A3.63,3.63,0,0,0,50.66,38.71Z"/><path d="M16.58,39.27H14.81L11.42,10.51a.67.67,0,0,0-.63-.59A1.73,1.73,0,0,0,9,8.23,1.73,1.73,0,0,0,7.14,9.92a.67.67,0,0,0-.64.59L3.12,39.27H1.34a1.34,1.34,0,1,0,0,2.69H16.58a1.34,1.34,0,1,0,0-2.69Zm-5.29-18.4,1,8.78L6.43,25.73Zm-3.52-9.6h2.39l.75,6.42-3.28-3.1a.67.67,0,0,0-.24-.14ZM7.21,16l3.61,3.41L6.27,24ZM5.92,27,12.4,31.3,4.48,39.22ZM9.41,39.27H6.33L12.7,32.9l.75,6.37Z"/><rect x="21.54" y="11.15" width="3.01" height="21.99"/><path d="M31.17,22.91h2.42a5.21,5.21,0,0,0,4-1.49A5.92,5.92,0,0,0,39,17.23,6.93,6.93,0,0,0,37.7,12.7a5.1,5.1,0,0,0-4.14-1.55H28.11v22h3.07Zm0-9.56h1.44a5.84,5.84,0,0,1,2.27.33,1.72,1.72,0,0,1,1,1.11,9.06,9.06,0,0,1,.24,2.47,5.4,5.4,0,0,1-.33,2.12,1.91,1.91,0,0,1-1.07,1,5.86,5.86,0,0,1-2.1.3H31.17Z"/><polygon points="47.66 33.14 52.52 11.15 49.72 11.15 46.41 27.36 42.93 11.15 40.05 11.15 44.97 33.14 47.66 33.14"/><path d="M11.41,2.3A2.32,2.32,0,0,0,9,0,2.32,2.32,0,0,0,6.52,2.3C6.52,4.66,9,5.93,9,7.24,9,5.93,11.41,4.66,11.41,2.3Z"/></svg>