<svg id="f" xmlns="http://www.w3.org/2000/svg" viewBox="0 0 835.7 841.5"><style>.st0{fill:rgba(255,255,255,.02)}</style><path class="st0" d="M798.2 260.1c-20.8-49.2-50.6-93.3-88.5-131.2-37.9-37.9-82.1-67.7-131.2-88.5C527.6 18.9 473.5 8 417.8 8 362.1 8 308 18.9 257.1 40.4 208 61.2 163.9 90.9 126 128.9 88.1 166.8 58.3 211 37.5 260.1 16 311 5.1 365 5.1 420.7c0 55.7 10.9 109.8 32.4 160.7 20.8 49.2 50.6 93.3 88.5 131.2 37.9 37.9 82.1 67.7 131.2 88.5 50.9 21.5 105 32.4 160.7 32.4 55.7 0 109.8-10.9 160.7-32.4 49.2-20.8 93.3-50.6 131.2-88.5 37.9-37.9 67.7-82.1 88.5-131.2 21.5-50.9 32.4-105 32.4-160.7 0-55.7-10.9-109.7-32.5-160.6zM302.1 471.4c-10.6-1.6-20.7-3.6-30.1-6.1-2.1-.5-4.2-1.1-6.2-1.7l-3-.9-6-1.8c-1-.3-2-.6-2.9-1-11.6-3.9-22.2-8.4-32-13.3l-2.4-1.2c-16-8.3-29.4-17.8-40.8-27.6l-3.3-3c-5.5-4.9-10.4-9.9-14.8-14.9-.4-.5-.9-1-1.3-1.5-3.9-4.5-7.5-8.9-10.6-13.2-1.1-1.4-2.1-2.9-3.1-4.3-4.4-6.3-8-12.3-11-17.9-.6-1.1-1.2-2.2-1.7-3.2l-.9-1.8c-.8-1.6-1.5-3.1-2.2-4.5-.3-.7-.6-1.4-.9-2l-.9-2.1c-.1-.3-.2-.6-.4-.8-.3-.7-.6-1.4-.8-2-.2-.5-.4-1.1-.6-1.6-1.5-3.8-2.5-6.8-3.1-8.7 0-.1-.1-.2-.1-.3-.5-1.5-.7-2.3-.7-2.3 18.2 24.2 75.7 43.9 75.7 43.9l-2.4-2.4-.5-.5c-.7-.8-1.5-1.6-2.2-2.3l-.4-.4c-.7-.7-1.3-1.4-2-2.2-.1-.1-.2-.2-.3-.4l-2.1-2.4c-.2-.2-.3-.4-.5-.5-.7-.8-1.3-1.6-2-2.4 0-.1-.1-.1-.1-.2-.6-.8-1.2-1.5-1.8-2.3-.1-.2-.3-.4-.4-.5-.6-.8-1.2-1.6-1.8-2.3-.1-.2-.2-.3-.4-.5-.5-.7-1.1-1.4-1.6-2.1-.1-.1-.2-.2-.3-.4-.6-.8-1.1-1.6-1.7-2.4-.1-.2-.3-.4-.4-.6-.5-.8-1.1-1.6-1.6-2.4-.1-.1-.1-.2-.2-.3-.5-.7-.9-1.4-1.4-2.1-.1-.2-.2-.4-.4-.6-.5-.8-1-1.5-1.4-2.3-.1-.2-.2-.4-.4-.6l-1.2-2.1c-.1-.1-.2-.3-.2-.4-.4-.8-.9-1.5-1.3-2.3-.1-.2-.2-.4-.4-.7-.4-.8-.8-1.5-1.2-2.3-.1-.2-.2-.3-.3-.5-.3-.7-.7-1.3-1-2l-.3-.6c-.4-.7-.7-1.5-1.1-2.2-.1-.2-.2-.5-.3-.7-.3-.7-.6-1.3-.9-2-.1-.2-.2-.3-.2-.5-.3-.7-.7-1.4-1-2.2-.1-.2-.2-.5-.3-.7-.3-.7-.6-1.4-.9-2.2l-.3-.6c-.2-.6-.5-1.2-.7-1.8-.1-.2-.2-.5-.3-.7-.3-.7-.5-1.4-.8-2.1-.1-.3-.2-.5-.3-.8-.2-.6-.5-1.2-.7-1.8-.1-.2-.2-.5-.3-.7-.2-.6-.4-1.2-.6-1.9-.1-.3-.2-.5-.3-.8-.2-.7-.4-1.4-.7-2-.1-.2-.1-.5-.2-.7-.2-.5-.3-1.1-.5-1.6-.1-.2-.1-.5-.2-.7-.2-.7-.4-1.3-.6-2-.1-.3-.1-.5-.2-.8-.2-.6-.3-1.2-.5-1.8-.1-.3-.1-.5-.2-.8-.1-.5-.3-1.1-.4-1.6-.1-.3-.1-.5-.2-.8-.2-.6-.3-1.3-.4-1.9-.1-.3-.1-.5-.2-.8l-.3-1.5c0-.2-.1-.5-.1-.7-.1-.6-.3-1.3-.4-1.9-.1-.3-.1-.5-.2-.8-.1-.6-.2-1.2-.3-1.7 0-.3-.1-.5-.1-.8-.1-.5-.2-1-.2-1.5 0-.3-.1-.5-.1-.8l-.3-1.8c0-.2-.1-.5-.1-.7-.1-.5-.1-1-.2-1.4 0-.2-.1-.4-.1-.6-.1-.6-.1-1.2-.2-1.8 0-.2-.1-.5-.1-.7-.1-.6-.1-1.2-.2-1.8 0-.2 0-.4-.1-.6 0-.5-.1-1-.1-1.4 0-.2 0-.4-.1-.7 0-.6-.1-1.2-.1-1.8v-.7c0-.5-.1-1-.1-1.5v-.5c0-.6-.1-1.1-.1-1.7v-.6c0-.6 0-1.1-.1-1.7v-.5-1.4-.5-1.7-.5-1.6-.2-1.7-.4c0-.6 0-1.1.1-1.7v-.3c0-.5 0-1 .1-1.6v-.2c0-.6.1-1.1.1-1.7v-.3c.1-1.1.1-2.3.2-3.3v-.2c0-.6.1-1.1.1-1.7 1.4-14.9 4.4-24.2 4.4-24.3 1.6 6.1 3.2 11.8 5 17.1v.1c2.1 6.1 4.2 11.7 6.5 16.9.4.9.8 1.7 1.2 2.6.6 1.4 1.2 2.7 1.9 4 .3.7.7 1.4 1 2.1.7 1.4 1.4 2.8 2.2 4.2.4.7.8 1.4 1.1 2.1 2.4 4.4 4.9 8.3 7.3 11.8 2.8 4.1 5.6 7.7 8.1 10.6.5.6 1 1.2 1.5 1.7 1.4 1.6 2.8 3.1 4.1 4.3 5.2 5.1 8.6 7.3 8.6 7.3-37.8-112 33.3-161.9 33.3-161.9l-3.6 8c-6.6 16.2-18.2 54.3-.9 88.8 22.7 45.4 71.1 60.5 71.1 60.5s9.8 31.7 26.3 56.4l13 16c2.4 2.4 5 4.5 7.6 6.3 0 0-2-1.1-5.2-3.4l5.2 6.4c-45.4-21.2-62-69.6-62-69.6-37.8-7.6-65.1-40.9-65.1-40.9 15.1 53 57.5 92.3 57.5 92.3s-27.2-4.5-43.9-12.1c0 0 6.1 15.1 36.3 30.3 30.3 15.1 42.4 24.2 42.4 24.2s-51.4-4.5-65.1 3c0 0 88.7 17.7 141.9 76.6.6.7 1.2 1.4 1.9 2.1l.4-.1c-.1-.5-.3-1-.4-1.4-15.1-49.9 5.3-129.4 9.8-161.1C407.3 296.6 380 289 380 289c12.1-6.1 31.8 9.1 31.8 9.1-12.1-34.8-43.9-31.8-43.9-31.8-3-9.1-15.1-9.1-15.1-9.1s13.6-18.2 37.8 0l-7.6 4.5s22.7 6.1 34.8 27.2c0 0 4.5-4.5-1.5-10.6h15.1s-6.1-21.2-31.8-22.7c0 0 27.2-19.7 62 21.2h-15.1s17.7 9.6 2.7 90.9c-.2.9-.3 1.8-.5 2.7-.1.3-.1.7-.2 1-.1.8-.3 1.6-.5 2.4-.1.6-.2 1.2-.4 1.8-.1.6-.2 1.2-.4 1.9-.2 1.2-.5 2.5-.8 3.7v.1c-9.8 76.4-3.8 108.2-3.8 108.2 53-60.5 143.7-78.7 143.7-78.7-13.6-7.6-65.1-3-65.1-3s12.1-9.1 42.4-24.2c30.3-15.1 36.3-30.3 36.3-30.3-16.6 7.6-43.9 12.1-43.9 12.1s42.4-39.3 57.5-92.3c0 0-27.2 33.3-65.1 40.9 0 0-16.6 48.4-62 69.6l5.2-6.4c-3.2 2.3-5.2 3.4-5.2 3.4 2.6-1.8 5.1-3.9 7.6-6.3l13-16c16.5-24.7 26.3-56.4 26.3-56.4s48.4-15.1 71.1-60.5c17.3-34.6 5.6-72.6-.9-88.8l-3.6-8s71.1 49.9 33.3 161.9c0 0 12.4-7.7 25.8-29.3.3-.5.7-1.1 1-1.6 1.7-2.8 3.4-5.8 5-9.1.3-.6.7-1.3 1-2l1.5-3c.4-.7.7-1.5 1.1-2.3 1.5-3.2 2.9-6.6 4.3-10.2l.9-2.4c2.8-7.4 5.4-15.7 7.8-24.8 0 .1 3 9.3 4.4 24.3.1.5.1 1.1.1 1.6v.2c.1 1.1.2 2.2.2 3.3v.3c0 .5.1 1.1.1 1.7v.2c0 .5 0 1 .1 1.5v10.5c0 .6 0 1.1-.1 1.7v.6c0 .5 0 1.1-.1 1.6v.6c0 .5-.1 1-.1 1.4v.7c0 .6-.1 1.2-.1 1.7 0 .2 0 .4-.1.7 0 .5-.1.9-.1 1.4 0 .2 0 .4-.1.6-.1.6-.1 1.2-.2 1.8 0 .2-.1.5-.1.8-.1.6-.1 1.2-.2 1.8 0 .2-.1.5-.1.7-.1.5-.1.9-.2 1.4 0 .3-.1.5-.1.8l-.3 1.8c0 .3-.1.5-.1.8-.1.5-.2 1-.2 1.5 0 .3-.1.5-.1.8-.1.6-.2 1.1-.3 1.7-.1.3-.1.5-.2.8-.1.6-.2 1.3-.4 1.9 0 .2-.1.5-.1.7l-.3 1.5c-.1.3-.1.5-.2.8-.1.6-.3 1.3-.4 1.9-.1.3-.1.5-.2.8-.1.5-.3 1.1-.4 1.6-.1.3-.1.6-.2.8-.2.6-.3 1.2-.5 1.7-.1.3-.1.5-.2.8-.2.7-.4 1.3-.6 2-.1.2-.1.5-.2.7-.2.5-.3 1.1-.5 1.6-.1.2-.2.5-.2.7-.2.7-.4 1.4-.7 2-.1.3-.2.5-.3.8l-.6 1.8c-.1.2-.2.5-.3.7-.2.6-.4 1.2-.7 1.8-.1.3-.2.5-.3.8-.3.7-.5 1.4-.8 2.1-.1.2-.2.5-.3.7-.2.6-.5 1.2-.7 1.8l-.3.6c-.3.7-.6 1.4-.9 2.2-.1.2-.2.5-.3.7-.3.7-.6 1.4-1 2.1-.1.2-.2.3-.2.5-.3.6-.6 1.3-.9 1.9-.1.2-.2.5-.3.7-.4.7-.7 1.5-1.1 2.2l-.3.6c-.3.6-.7 1.3-1 1.9-.1.2-.2.3-.3.5-.4.8-.8 1.5-1.2 2.3-.1.2-.2.4-.4.7-.4.8-.9 1.5-1.3 2.3-.1.1-.2.3-.2.4-.4.7-.8 1.4-1.2 2-.1.2-.2.4-.4.6-.5.8-.9 1.5-1.4 2.3-.1.2-.3.4-.4.6-.5.7-.9 1.4-1.4 2.1-.1.1-.2.2-.2.3-.5.8-1.1 1.6-1.6 2.3-.1.2-.3.4-.4.6-.5.8-1.1 1.6-1.7 2.3-.1.1-.2.3-.3.4-.5.7-1 1.4-1.6 2.1-.1.2-.3.3-.4.5-.6.8-1.2 1.6-1.8 2.3-.1.2-.3.4-.4.5-.6.8-1.2 1.5-1.8 2.3 0 .1-.1.1-.1.2-.7.8-1.3 1.6-2 2.4-.2.2-.3.4-.5.5-.7.8-1.4 1.6-2 2.4-.1.1-.2.3-.3.4-.6.7-1.3 1.4-2 2.2l-.4.4c-.7.8-1.5 1.6-2.2 2.3l-.5.5c-.8.8-1.5 1.6-2.3 2.4 0 0 57.5-19.7 75.7-43.9 0 0-.2.7-.6 2-.1.3-.2.5-.3.9-.9 2.9-2.7 8-5.6 14.4l-.9 2.1a546 546 0 0 1-3.9 8c-.4.8-.9 1.6-1.3 2.5-2 3.7-4.4 7.7-7 11.8-.9 1.4-1.8 2.8-2.8 4.2-1 1.4-2 2.8-3 4.3-.7 1-1.4 1.9-2.1 2.9-.7 1-1.5 1.9-2.2 2.9l-1.2 1.5c-1.6 2-3.2 3.9-4.9 5.9-.6.7-1.3 1.5-1.9 2.2-1.6 1.8-3.2 3.5-4.8 5.3-.9 1-1.9 2-2.9 3-1.5 1.5-3 3-4.6 4.5-.5.5-1.1 1-1.6 1.5-.8.8-1.7 1.5-2.5 2.3-2.7 2.4-5.5 4.8-8.5 7.2-.9.8-1.9 1.5-2.9 2.2-1.2 1-2.5 1.9-3.8 2.9-1.3.9-2.6 1.9-3.9 2.8-3.3 2.3-6.8 4.6-10.4 6.9-1.5.9-2.9 1.8-4.4 2.6-.7.4-1.5.9-2.3 1.3-9.1 5.2-19.1 10-30.1 14.3-5.5 2.1-11.2 4.1-17.2 6-3 .9-6 1.8-9.1 2.6-2.1.6-4.2 1.1-6.3 1.6-8.5 2.1-17.5 3.9-27 5.3l13.3-12.5 12.5-11.7h-.1c-4.1.4-95.5 10.2-141.5 127.1l.9 3c-.3-.9-.7-1.8-1-2.6-.1.4-.3.7-.4 1.1l.3-.9.1-.4-.4 1.3s-.6-2.3-1.7-6.5c-.3-.8-.7-1.6-1.1-2.5 0-.1-.1-.1-.1-.2-.3-.8-.7-1.5-1-2.3 0-.1-.1-.2-.1-.3-.3-.7-.7-1.5-1-2.2-.1-.1-.1-.3-.2-.4-.3-.7-.6-1.4-1-2.1-.1-.2-.1-.3-.2-.5-.3-.7-.6-1.3-1-2-.1-.2-.2-.3-.2-.5-.3-.7-.6-1.3-1-1.9-.1-.2-.2-.3-.3-.5-.3-.6-.6-1.3-1-1.9-.1-.2-.2-.4-.3-.5-.3-.6-.6-1.2-1-1.8-.1-.2-.2-.4-.3-.5-.3-.6-.6-1.2-1-1.8l-.3-.6c-.3-.6-.6-1.2-1-1.7l-.3-.6c-.3-.6-.6-1.1-1-1.7l-.3-.6c-.3-.6-.6-1.1-1-1.7l-.3-.6c-.3-.6-.6-1.1-1-1.6l-.3-.6c-.3-.5-.7-1.1-1-1.6-.1-.2-.2-.4-.3-.5-.3-.5-.7-1.1-1-1.6-.1-.2-.2-.4-.3-.5-.3-.5-.7-1.1-1-1.6-.1-.2-.2-.3-.3-.5-.3-.5-.7-1-1-1.5-.1-.2-.2-.3-.3-.5-.3-.5-.7-1-1-1.5-.1-.2-.2-.3-.3-.5-.3-.5-.7-1-1-1.5-.1-.2-.2-.3-.3-.5-.3-.5-.7-1-1-1.5-.1-.2-.2-.3-.3-.5-.3-.5-.7-1-1-1.5-.1-.1-.2-.3-.3-.4-.4-.5-.7-1-1.1-1.5-.1-.1-.2-.3-.3-.4-.4-.5-.7-1-1.1-1.5-.1-.1-.2-.3-.3-.4-.4-.5-.7-1-1.1-1.4-.1-.1-.2-.2-.3-.4-.4-.5-.7-1-1.1-1.4l-.3-.3c-.4-.5-.8-1-1.1-1.4-.1-.1-.2-.2-.2-.3-.4-.5-.8-1-1.2-1.4-.1-.1-.1-.2-.2-.3-.4-.5-.8-1-1.2-1.4l-.2-.2-1.2-1.5c0-.1-.1-.1-.1-.2-.4-.5-.9-1-1.3-1.5l-.1-.1c-.5-.5-.9-1-1.4-1.5-8.1-9-16.4-16.5-24.5-22.9-.5-.4-.9-.7-1.4-1.1 0 0-.1 0-.1-.1-.4-.3-.9-.7-1.3-1l-.1-.1c-.4-.3-.9-.6-1.3-.9-.1 0-.1-.1-.2-.1-.4-.3-.8-.6-1.3-.9-.1 0-.1-.1-.2-.1l-1.2-.9c-.1 0-.1-.1-.2-.1-.4-.3-.8-.6-1.2-.8l-.2-.2c-.4-.3-.8-.5-1.2-.8-.1-.1-.2-.1-.2-.2-.4-.3-.8-.5-1.2-.8-.1-.1-.2-.1-.3-.2-.4-.3-.8-.5-1.1-.7-.1-.1-.2-.1-.3-.2-.4-.2-.8-.5-1.1-.7-.1-.1-.2-.1-.3-.2-.4-.2-.8-.5-1.1-.7-.1-.1-.2-.1-.3-.2-.4-.2-.8-.5-1.1-.7-.1-.1-.2-.1-.3-.2-.4-.2-.7-.4-1.1-.7-.1-.1-.2-.1-.3-.2-.4-.2-.7-.4-1.1-.6-.1-.1-.2-.1-.3-.2-.4-.2-.7-.4-1.1-.6-.1-.1-.2-.1-.3-.2-.4-.2-.7-.4-1.1-.6-.1-.1-.2-.1-.3-.2-.4-.2-.7-.4-1.1-.6-.1 0-.2-.1-.3-.1-.4-.2-.7-.4-1.1-.6-.1 0-.2-.1-.3-.1-.4-.2-.7-.4-1.1-.6-.1 0-.2-.1-.2-.1-.4-.2-.7-.4-1.1-.6-.1 0-.2-.1-.2-.1-.4-.2-.7-.4-1.1-.5-.1 0-.1-.1-.2-.1-.4-.2-.7-.4-1.1-.5-.1 0-.1-.1-.2-.1-.4-.2-.7-.4-1.1-.5-.1 0-.1-.1-.2-.1-.4-.2-.7-.3-1.1-.5-.1 0-.1-.1-.2-.1-.4-.2-.7-.3-1.1-.5 0 0-.1 0-.1-.1-.4-.2-.8-.3-1.1-.5h-.1c-.4-.2-.8-.3-1.2-.5h-.1c-6.1-2.7-11.7-4.7-16.7-6.2l-.9-.3h-.1c-.3-.1-.6-.2-.8-.2h-.1c-.3-.1-.5-.2-.8-.2h-.2c-.2-.1-.5-.1-.7-.2-.1 0-.1 0-.2-.1-.2-.1-.5-.1-.7-.2-.1 0-.1 0-.2-.1-.2-.1-.4-.1-.7-.2-.1 0-.2 0-.2-.1-.2-.1-.4-.1-.6-.2-.1 0-.2 0-.2-.1-.2-.1-.4-.1-.6-.2-.1 0-.2 0-.2-.1-.2 0-.4-.1-.6-.1-.1 0-.2 0-.2-.1-.2 0-.4-.1-.5-.1-.1 0-.2 0-.3-.1-.2 0-.3-.1-.5-.1-.1 0-.2 0-.3-.1-.2 0-.3-.1-.5-.1-.1 0-.2 0-.3-.1-.2 0-.3-.1-.5-.1-.1 0-.2 0-.3-.1-.2 0-.3-.1-.5-.1-.1 0-.2 0-.3-.1-.1 0-.3-.1-.4-.1-.1 0-.2 0-.3-.1-.1 0-.3-.1-.4-.1h-.2c-.1 0-.3-.1-.4-.1h-.3c-.1 0-.2 0-.4-.1h-.2c-.1 0-.2 0-.3-.1h-.2c-.1 0-.2 0-.3-.1h-.2c-.1 0-.2 0-.3-.1H277.4 277.1 276.8h-.5-.1H275.9l26.2 24.1zM400 261.5c9.1-3 21.2 7.6 21.2 7.6h-10.6c-4.6-6-10.6-7.6-10.6-7.6zm38.3 349.1c4 4 11.2 15.7 15.3 28.1L436 617c-.3-5.5.6-8.1 2.3-6.4zm22.7-5.4c-7.7-15.4-12.7-35.8-6.1-59.6 0 0 2.8 23 16.2 58.2L460 591.7l1 13.5zm-61.3 13.7l-18.5 24.5c3.8-13.4 11.9-26.9 16.2-31.2 1.8-1.9 2.7.9 2.3 6.7zm-23.4-15.6v-17.5l-8 9.2c10.2-29.3 12.4-47.9 12.4-47.9 6.2 22.1 2.4 41.2-4.4 56.2zm402.3-30.2c-13.4 31.7-30.7 61.2-51.8 88.1-5.8.7-142.2 16-191.8-34.2-18.4-18.6-31.5-39.4-40.6-58.5-5.6-18.4-7.6-30.7-7.6-30.7 27.2-30.3 78.7-40.9 78.7-40.9 213.4-54.5 183.1-234.5 183.1-234.5-16.6 28.7-37.8 37.8-37.8 37.8 13.6-95.3-36.3-139.2-36.3-139.2 1.5 15.1-6.1 42.4-6.1 42.4-37.9-95.2-127.2-105.8-127.2-105.8s49.9 21.2 49.9 98.4-80.2 89.3-80.2 89.3c0 32.4-18.3 50.3-29.4 52.7 0 0-10.7-1.2-10.7-20.9 0 0 1.5-12.9 0-18.9-1.5-6.1 4.5-3 4.5-3l5.3 6.8c-7.6-81.7-89.3-57.5-89.3-57.5-45.4-16.6-60.5 21.2-60.5 21.2 15.1-6.1 27.2 9.1 27.2 9.1 15.1 0 21.2 4.5 21.2 4.5-15.1-1.5-30.3 13.6-30.3 13.6s31 2.3 31 23.5-24.2 22.7-24.2 22.7l-1.6.5c-11.1-2.4-29.4-20.3-29.4-52.7 0 0-80.2-12.1-80.2-89.3s49.9-98.4 49.9-98.4-89.3 10.6-127.1 105.9c0 0-7.6-27.2-6.1-42.4 0 0-49.9 43.9-36.3 139.2 0 0-21.2-9.1-37.8-37.8 0 0-30.3 180.1 183.1 234.5 0 0 51.4 10.6 78.7 40.9 0 0-2 12.1-7.5 30.3-9.1 18.7-22 39.1-40.1 57.3-50.7 51.2-192 34.1-192 34.1l.9 1.8c-21.6-27.4-39.4-57.5-53.1-89.9-20.4-48.3-30.8-99.5-30.8-152.4 0-52.9 10.3-104.1 30.8-152.4 19.7-46.6 47.9-88.5 83.9-124.4 36-36 77.8-64.2 124.4-83.9 48.3-20.4 99.5-30.8 152.4-30.8S522 39.6 570.2 60c46.6 19.7 88.5 47.9 124.4 83.9 36 36 64.2 77.8 83.9 124.4 20.4 48.3 30.8 99.5 30.8 152.4 0 52.9-10.3 104.2-30.7 152.4zm-602 132.4c8.4-1.3 16.7-3.1 24.9-5.1 2.1-.5 4.1-1.1 6.1-1.6 2-.6 4.1-1.1 6.1-1.7l3-.9 3-.9c2-.7 4-1.2 6-1.9 8-2.7 15.9-5.6 23.6-8.9 3.9-1.7 7.7-3.3 11.5-5.1l2.9-1.3c1-.4 1.9-.9 2.8-1.4 1.9-1 3.8-1.9 5.6-2.8l5.6-3c.9-.5 1.8-1 2.8-1.5l2.7-1.6 2.7-1.6 2.7-1.6 5.4-3.3c3.5-2.3 7.1-4.6 10.5-7 3.5-2.4 6.8-4.9 10.2-7.4.9-.6 1.7-1.3 2.5-1.9l2.5-2c1.6-1.3 3.3-2.6 4.9-4l4.8-4.1c.4-.3.8-.7 1.2-1l1.2-1.1 2.3-2.1 2.4-2.1 1.2-1.1c.4-.4.8-.7 1.1-1.1 1.5-1.5 3-3 4.5-4.4 1.6-1.4 3-3 4.5-4.5s2.9-3.1 4.4-4.6c-1.3 1.7-2.6 3.4-3.8 5.1-1.3 1.7-2.6 3.4-4 5s-2.8 3.2-4.1 4.9c-.3.4-.7.8-1 1.2l-1.1 1.2-2.2 2.3-2.2 2.3-1.1 1.2c-.4.4-.8.7-1.1 1.1l-4.6 4.5c-1.5 1.5-3.1 2.9-4.7 4.3l-2.4 2.1-2.4 2.1-5 4.1-1.2 1c-.4.3-.9.6-1.3 1l-2.6 1.9c-3.4 2.6-7 5-10.5 7.4-7.2 4.7-14.5 9.1-22.2 13.1-15.2 7.9-31.2 14.3-47.7 18.9-8.2 2.3-16.6 4.2-25 5.7l-3.2.5-3.2.5c-1.1.2-2.1.3-3.2.4-1.1.1-2.1.3-3.2.4-4.1 0-8.4.3-12.6.4zm73.7 13.3c6.1-2.2 12-4.8 17.8-7.6 5.8-2.8 11.5-5.8 17-9 11.1-6.4 21.7-13.6 31.7-21.6 5-4 9.8-8.2 14.5-12.5 4.7-4.3 9.1-9 13.5-13.6 8.6-9.5 16.6-19.6 24.1-30.2-5.6 11.7-12.7 22.7-20.9 32.9-1 1.3-2.1 2.5-3.2 3.8l-1.6 1.9c-.5.6-1.1 1.2-1.6 1.8l-3.3 3.6-3.5 3.5c-.6.6-1.1 1.2-1.7 1.7l-1.8 1.7-3.6 3.3-3.7 3.2c-1.2 1.1-2.5 2.1-3.8 3.1-10.2 8.2-21.3 15.3-33 21.1-5.9 2.9-11.9 5.5-18 7.7-6.2 2.2-12.5 4.1-18.9 5.2zm93.2 11c1.5-1.5 2.8-3.1 4-4.7.6-.8 1.3-1.6 1.9-2.4l1.8-2.5c.6-.8 1.2-1.7 1.8-2.5.6-.8 1.2-1.7 1.7-2.5 1.1-1.7 2.3-3.4 3.3-5.1l1.6-2.6.8-1.3.8-1.3c1-1.8 2.1-3.5 3.1-5.2 1-1.8 2-3.5 3-5.3l1.5-2.7 1.5-2.7c1-1.8 2-3.6 2.9-5.4l2.8-5.4c1.9-3.6 3.7-7.3 5.6-10.9 1.8-3.7 3.6-7.4 5.5-11 .9-1.8 1.8-3.7 2.8-5.5l1.4-2.8 1.5-2.7c-.2 1-.5 2-.7 3l-.8 3c-.5 2-1.1 4-1.7 6-1.3 3.9-2.7 7.8-4.1 11.7-.8 1.9-1.6 3.8-2.4 5.8l-1.2 2.9-.6 1.4-.7 1.4c-1.8 3.7-3.6 7.5-5.6 11.1l-1.5 2.7c-.5.9-1 1.8-1.6 2.7-1.1 1.8-2.2 3.6-3.3 5.3-2.3 3.5-4.6 6.9-7.2 10.2l-1 1.2c-.3.4-.7.8-1 1.2l-2 2.4c-.7.8-1.4 1.6-2.1 2.3-.7.8-1.4 1.5-2.2 2.3l-2.3 2.2-2.4 2.1c-.8.7-1.6 1.3-2.5 1.9-.6.6-1.5 1.2-2.4 1.7zM250 755.9c3.8-2.1 7.5-4.2 11.3-6.4 3.7-2.1 7.4-4.3 11.1-6.5 7.4-4.4 14.6-8.9 21.7-13.6l2.7-1.8c.9-.6 1.8-1.2 2.6-1.8l2.6-1.8 2.6-1.8c.9-.6 1.7-1.2 2.6-1.9l2.6-1.9c1.7-1.3 3.4-2.5 5.1-3.8 6.8-5.2 13.4-10.7 19.9-16.3-4.9 7.2-10.8 13.7-17.2 19.6-3.2 3-6.6 5.8-10 8.4-1.7 1.3-3.5 2.6-5.2 3.9-.9.6-1.8 1.2-2.7 1.9l-2.7 1.8c-7.3 4.8-14.9 9.1-22.7 12.9-3.9 1.9-7.9 3.6-12 5.2-2 .8-4.1 1.5-6.1 2.2-2 .6-4.1 1.2-6.2 1.7zm-50.2-23.5l22.1-5.9 5.5-1.4c1.8-.5 3.7-1 5.5-1.4 1.9-.4 3.7-.9 5.6-1.3 1.9-.4 3.7-.9 5.7-1.2-1.7 1-3.4 1.8-5.1 2.7-1.8.8-3.5 1.6-5.3 2.2-1.8.7-3.6 1.3-5.4 1.9-.9.3-1.8.6-2.8.9l-2.8.8c-3.7 1-7.5 1.8-11.3 2.3-1.9.2-3.8.5-5.8.5-2 .1-3.9.1-5.9-.1zm150.1-50.7c1.6-3.5 3.3-6.8 5.2-10 1.8-3.2 3.8-6.3 5.8-9.4 2-3 4.2-6 6.5-8.9 1.1-1.5 2.3-2.9 3.6-4.3 1.3-1.4 2.6-2.8 4-4-1 3.7-2.4 7.2-4.1 10.6-1.7 3.3-3.5 6.6-5.6 9.7-2.1 3.1-4.4 6.1-6.9 8.9-1.3 1.4-2.6 2.7-4 4-1.4 1.2-2.8 2.4-4.5 3.4zm-73.7 91.9c2.6-1.3 5.2-2.7 7.7-4.1 1.3-.7 2.5-1.4 3.8-2.1 1.3-.7 2.5-1.4 3.7-2.1 5-2.9 9.9-5.9 14.7-8.9 2.4-1.6 4.8-3.1 7.2-4.7l3.6-2.4 3.6-2.4 1.8-1.2 1.8-1.2 3.6-2.4c2.4-1.6 4.8-3.3 7.3-4.8-1 1.1-2 2.1-3 3.2-1 1-2 2.1-3.1 3.1s-2.2 2-3.2 2.9c-1.1 1-2.2 1.9-3.3 2.8-1.1.9-2.3 1.8-3.4 2.7-1.1.9-2.3 1.7-3.5 2.6-1.2.8-2.4 1.7-3.6 2.5l-3.7 2.4c-4.9 3.1-10.1 5.9-15.4 8.4-1.3.6-2.7 1.2-4 1.7l-2 .8-2.1.8c-1.4.5-2.8.9-4.2 1.3-1.4.4-2.9.8-4.3 1.1zm140.7-128.5c-1.6 7-3.7 13.8-5.9 20.6-2.3 6.8-4.8 13.5-7.6 20.1-5.5 13.2-11.8 26.1-18.9 38.5-7.1 12.4-15 24.4-23.8 35.7l-1.6 2.1-1.7 2.1-3.4 4.2-3.5 4.1-1.8 2-1.8 2-3.7 3.9-3.8 3.8-1.9 1.9-2 1.8c-1.3 1.2-2.6 2.4-4 3.6 1.1-1.4 2.3-2.8 3.4-4.2l1.7-2.1 1.7-2.1 3.3-4.2 3.2-4.2 1.6-2.1 1.6-2.1 3.2-4.3c2-2.9 4.2-5.7 6.1-8.7 8.1-11.6 15.6-23.6 22.6-35.9 7-12.3 13.6-24.8 19.8-37.6 3.1-6.4 6.1-12.8 9-19.3 2.8-6.4 5.6-13 8.2-19.6zm240.4 60.4c-4.3 0-8.5-.4-12.8-.8-1.1-.1-2.1-.2-3.2-.4-1.1-.1-2.1-.3-3.2-.4l-3.2-.5-3.2-.5c-8.4-1.4-16.8-3.3-25-5.7-16.5-4.6-32.5-11-47.7-18.9-7.6-4-15-8.4-22.2-13.1-3.5-2.4-7.1-4.8-10.5-7.4l-2.6-1.9c-.4-.3-.9-.6-1.3-1l-1.2-1-5-4.1-2.4-2.1-2.4-2.1c-1.6-1.4-3.2-2.8-4.7-4.3l-4.6-4.5c-.4-.4-.8-.7-1.1-1.1l-1.1-1.2-2.2-2.3-2.2-2.3-1.1-1.2c-.4-.4-.7-.8-1-1.2-1.4-1.6-2.8-3.2-4.1-4.9-1.4-1.6-2.7-3.3-4-5-1.3-1.7-2.6-3.4-3.8-5.1 1.5 1.5 3 3 4.4 4.6 1.5 1.5 2.9 3.1 4.5 4.5 1.5 1.5 3 3 4.5 4.4l1.1 1.1 1.2 1.1 2.4 2.1 2.3 2.1 1.2 1.1c.4.4.8.7 1.2 1l4.8 4.1c1.6 1.4 3.3 2.7 4.9 4l2.5 2c.8.7 1.6 1.3 2.5 1.9 3.4 2.5 6.7 5.1 10.2 7.4 3.4 2.4 7 4.7 10.5 7l5.4 3.3 2.7 1.6 2.7 1.6 2.7 1.6c.9.5 1.8 1.1 2.8 1.5l5.6 3c1.9 1 3.8 1.9 5.6 2.8.9.5 1.9 1 2.8 1.4l2.9 1.3c3.8 1.8 7.7 3.5 11.5 5.1 7.7 3.3 15.7 6.2 23.6 8.9 2 .7 4 1.3 6 1.9l3 .9 3 .9c2 .6 4.1 1.2 6.1 1.7s4.1 1.1 6.1 1.6c8.4 2.4 16.7 4.2 25.1 5.5zm-73.7 13.3c-6.4-1.1-12.7-3-18.8-5.2-6.1-2.2-12.1-4.8-18-7.7-11.7-5.8-22.8-12.9-33-21.1-1.3-1-2.6-2-3.8-3.1l-3.7-3.2-3.6-3.3-1.8-1.7-1.7-1.7-3.5-3.5-3.3-3.6c-.5-.6-1.1-1.2-1.6-1.8l-1.6-1.9c-1.1-1.3-2.1-2.5-3.2-3.8-8.2-10.2-15.3-21.2-20.9-32.9 7.5 10.6 15.5 20.7 24.1 30.2 4.4 4.7 8.8 9.3 13.5 13.6 4.7 4.4 9.5 8.6 14.5 12.5 10 8 20.6 15.2 31.7 21.6 5.5 3.2 11.2 6.2 17 9 5.7 2.8 11.6 5.4 17.7 7.6zm-93.2 11c-.9-.5-1.8-1.1-2.6-1.7-.8-.6-1.7-1.3-2.5-1.9l-2.4-2.1-2.3-2.2c-.7-.7-1.4-1.5-2.2-2.3-.7-.8-1.4-1.5-2.1-2.3l-2-2.4c-.3-.4-.7-.8-1-1.2l-1-1.2c-2.6-3.3-4.9-6.7-7.2-10.2-1.1-1.8-2.2-3.6-3.3-5.3-.6-.9-1-1.8-1.6-2.7l-1.5-2.7c-2-3.6-3.8-7.4-5.6-11.1l-.7-1.4-.6-1.4-1.2-2.9c-.8-1.9-1.6-3.8-2.4-5.8-1.4-3.9-2.8-7.8-4.1-11.7-.6-2-1.2-4-1.7-6l-.8-3c-.2-1-.5-2-.7-3l1.5 2.7 1.4 2.8c1 1.8 1.9 3.7 2.8 5.5 1.9 3.7 3.7 7.3 5.5 11 1.9 3.6 3.7 7.3 5.6 10.9l2.8 5.4c.9 1.8 1.9 3.6 2.9 5.4l1.5 2.7 1.5 2.7c1 1.8 2 3.5 3 5.3 1 1.8 2.1 3.5 3.1 5.2l.8 1.3.8 1.3 1.6 2.6c1 1.8 2.2 3.4 3.3 5.1.5.9 1.2 1.7 1.7 2.5.6.8 1.2 1.7 1.8 2.5l1.8 2.5c.6.8 1.3 1.6 1.9 2.4 1.4 1.6 2.7 3.2 4.2 4.7zm93.5 26.1c-2.1-.5-4.2-1.2-6.3-1.8-2.1-.7-4.1-1.4-6.1-2.2-4.1-1.6-8-3.3-12-5.2-7.8-3.8-15.4-8-22.7-12.9l-2.7-1.8c-.9-.6-1.8-1.2-2.7-1.9-1.8-1.3-3.5-2.6-5.2-3.9-3.4-2.7-6.8-5.5-10-8.4-6.4-5.9-12.3-12.4-17.2-19.6 6.6 5.7 13.1 11.2 19.9 16.3 1.7 1.3 3.4 2.6 5.1 3.8l2.6 1.9c.9.6 1.7 1.3 2.6 1.9l2.6 1.8 2.6 1.8c.9.6 1.8 1.2 2.6 1.8l2.7 1.8c7.1 4.7 14.4 9.2 21.7 13.6 3.7 2.2 7.4 4.4 11.1 6.5 3.8 2.3 7.6 4.4 11.4 6.5zm50.2-23.5c-1.9.2-3.9.1-5.8.1-1.9-.1-3.9-.3-5.8-.5-3.8-.5-7.6-1.3-11.3-2.3l-2.8-.8c-.9-.3-1.8-.6-2.8-.9-1.8-.6-3.6-1.2-5.4-1.9-1.8-.7-3.6-1.5-5.3-2.2-1.7-.8-3.5-1.7-5.1-2.7 1.9.3 3.8.7 5.7 1.2 1.9.4 3.7.9 5.6 1.3 1.9.4 3.7 1 5.5 1.4l5.5 1.4 22 5.9zm-76.4 41.2c-1.4-.3-2.9-.6-4.3-1s-2.8-.8-4.2-1.3l-2.1-.8-2-.8c-1.4-.5-2.7-1.1-4-1.7-5.3-2.4-10.4-5.3-15.4-8.4l-3.7-2.4c-1.2-.8-2.4-1.7-3.6-2.5-1.2-.9-2.4-1.7-3.5-2.6-1.1-.9-2.3-1.8-3.4-2.7-1.1-.9-2.2-1.9-3.3-2.8-1.1-1-2.2-1.9-3.2-2.9-1.1-1-2.1-2-3.1-3.1-1-1-2-2.1-3-3.2 2.5 1.5 4.9 3.2 7.3 4.8l3.6 2.4 1.8 1.2 1.8 1.2 3.6 2.4 3.6 2.4c2.4 1.6 4.8 3.1 7.2 4.7 4.9 3.1 9.7 6.1 14.7 8.9 1.2.7 2.5 1.5 3.7 2.1 1.3.7 2.5 1.4 3.8 2.1 2.5 1.3 5.1 2.7 7.7 4zM416.9 645.1c2.7 6.6 5.4 13.2 8.4 19.6 2.9 6.5 5.9 12.9 9 19.3 6.2 12.8 12.7 25.3 19.8 37.6 7 12.3 14.5 24.3 22.6 35.9 2 2.9 4.1 5.8 6.1 8.7l3.2 4.3 1.6 2.1 1.6 2.1 3.2 4.2 3.3 4.2 1.7 2.1 1.7 2.1c1.1 1.4 2.3 2.8 3.4 4.2-1.3-1.2-2.6-2.4-4-3.6l-2-1.8-1.9-1.9c-1.3-1.2-2.5-2.5-3.8-3.8l-3.7-3.9-1.8-2-1.8-2-3.5-4.1-3.4-4.2-1.7-2.1-1.6-2.1c-8.8-11.3-16.7-23.3-23.8-35.7-7.1-12.4-13.4-25.3-18.9-38.5-2.7-6.6-5.3-13.3-7.6-20.1-2.4-6.8-4.5-13.6-6.1-20.6z"/></svg>