<svg id="Layer_1" data-name="Layer 1" xmlns="http://www.w3.org/2000/svg" viewBox="0 0 171.74 53.08"><title>1</title><path d="M18.75,0,0,33.33,9.88,53.08H33.4l9.88-19.76L24.53,0Zm9.57,44.85H15L9.32,33.55l12.32-21.9L34,33.55Z"/><path d="M83.41,4.57A23.41,23.41,0,1,0,106.69,28,23.48,23.48,0,0,0,83.41,4.57Zm0,39.48C75.21,44,68.26,37.62,68.26,28s7-16.07,15.15-16.07S98.49,18.34,98.49,28,91.61,44,83.41,44Z"/><polygon points="114.23 50.93 121.84 50.93 121.84 28.57 137.12 28.57 137.12 22.47 121.84 22.47 121.84 11.39 137.12 11.39 137.12 5.03 114.23 5.03 114.23 50.93"/><path d="M159.87,23.91l-3.61-2.23c-3.08-2-3.8-3.93-3.8-5.9,0-2.69,1.9-4.46,4.72-4.46s4.39,1.9,5.64,4.33h6.89c-1.9-6.1-6.36-11.08-12.72-11.08-7.08,0-12.13,4.66-12.13,11.21,0,6.89,5.44,10.36,10.3,13.38l3.34,2.1c4.39,2.75,5.25,5,5.25,7.61,0,3.74-2.49,5.77-6.43,5.77s-6.43-2.23-7.54-5.64h-7.08c1,7.28,6.62,12.39,14.62,12.39s14.43-4.85,14.43-12.53S166.1,28,159.87,23.91Z"/></svg>