<?xml version="1.0" encoding="utf-8"?>
<!-- Generator: Adobe Illustrator 21.0.2, SVG Export Plug-In . SVG Version: 6.00 Build 0)  -->
<svg version="1.1" id="Слой_1" xmlns="http://www.w3.org/2000/svg" xmlns:xlink="http://www.w3.org/1999/xlink" x="0px" y="0px"
	 viewBox="0 0 835.7 841.5" style="enable-background:new 0 0 835.7 841.5;" xml:space="preserve">
<style type="text/css">
	.st0{fill:#FFFFFF;}
</style>
<g>
	<path class="st0" d="M798.2,260.1c-20.8-49.2-50.6-93.3-88.5-131.2c-37.9-37.9-82.1-67.7-131.2-88.5
		c-50.9-21.5-105-32.4-160.7-32.4c-55.7,0-109.8,10.9-160.7,32.4C208,61.2,163.9,90.9,126,128.9c-37.9,37.9-67.7,82.1-88.5,131.2
		C16,311,5.1,365,5.1,420.7c0,55.7,10.9,109.8,32.4,160.7c20.8,49.2,50.6,93.3,88.5,131.2c37.9,37.9,82.1,67.7,131.2,88.5
		c50.9,21.5,105,32.4,160.7,32.4c55.7,0,109.8-10.9,160.7-32.4c49.2-20.8,93.3-50.6,131.2-88.5c37.9-37.9,67.7-82.1,88.5-131.2
		c21.5-50.9,32.4-105,32.4-160.7C830.7,365,819.8,311,798.2,260.1z M302.1,471.4c-10.6-1.6-20.7-3.6-30.1-6.1
		c-2.1-0.5-4.2-1.1-6.2-1.7c-1-0.3-2-0.6-3-0.9c-2-0.6-4-1.2-6-1.8c-1-0.3-2-0.6-2.9-1c-11.6-3.9-22.2-8.4-32-13.3
		c-0.8-0.4-1.6-0.8-2.4-1.2c-16-8.3-29.4-17.8-40.8-27.6c-1.1-1-2.2-2-3.3-3c-5.5-4.9-10.4-9.9-14.8-14.9c-0.4-0.5-0.9-1-1.3-1.5
		c-3.9-4.5-7.5-8.9-10.6-13.2c-1.1-1.4-2.1-2.9-3.1-4.3c-4.4-6.3-8-12.3-11-17.9c-0.6-1.1-1.2-2.2-1.7-3.2c-0.3-0.6-0.6-1.2-0.9-1.8
		c-0.8-1.6-1.5-3.1-2.2-4.5c-0.3-0.7-0.6-1.4-0.9-2c-0.3-0.7-0.6-1.4-0.9-2.1c-0.1-0.3-0.2-0.6-0.4-0.8c-0.3-0.7-0.6-1.4-0.8-2
		c-0.2-0.5-0.4-1.1-0.6-1.6c-1.5-3.8-2.5-6.8-3.1-8.7c0-0.1-0.1-0.2-0.1-0.3c-0.5-1.5-0.7-2.3-0.7-2.3l0,0v0
		c18.2,24.2,75.7,43.9,75.7,43.9c-0.8-0.8-1.6-1.6-2.4-2.4c-0.2-0.2-0.3-0.3-0.5-0.5c-0.7-0.8-1.5-1.6-2.2-2.3
		c-0.1-0.1-0.3-0.3-0.4-0.4c-0.7-0.7-1.3-1.4-2-2.2c-0.1-0.1-0.2-0.2-0.3-0.4c-0.7-0.8-1.4-1.6-2.1-2.4c-0.2-0.2-0.3-0.4-0.5-0.5
		c-0.7-0.8-1.3-1.6-2-2.4c0-0.1-0.1-0.1-0.1-0.2c-0.6-0.8-1.2-1.5-1.8-2.3c-0.1-0.2-0.3-0.4-0.4-0.5c-0.6-0.8-1.2-1.6-1.8-2.3
		c-0.1-0.2-0.2-0.3-0.4-0.5c-0.5-0.7-1.1-1.4-1.6-2.1c-0.1-0.1-0.2-0.2-0.3-0.4c-0.6-0.8-1.1-1.6-1.7-2.4c-0.1-0.2-0.3-0.4-0.4-0.6
		c-0.5-0.8-1.1-1.6-1.6-2.4c-0.1-0.1-0.1-0.2-0.2-0.3c-0.5-0.7-0.9-1.4-1.4-2.1c-0.1-0.2-0.2-0.4-0.4-0.6c-0.5-0.8-1-1.5-1.4-2.3
		c-0.1-0.2-0.2-0.4-0.4-0.6c-0.4-0.7-0.8-1.4-1.2-2.1c-0.1-0.1-0.2-0.3-0.2-0.4c-0.4-0.8-0.9-1.5-1.3-2.3c-0.1-0.2-0.2-0.4-0.4-0.7
		c-0.4-0.8-0.8-1.5-1.2-2.3c-0.1-0.2-0.2-0.3-0.3-0.5c-0.3-0.7-0.7-1.3-1-2c-0.1-0.2-0.2-0.4-0.3-0.6c-0.4-0.7-0.7-1.5-1.1-2.2
		c-0.1-0.2-0.2-0.5-0.3-0.7c-0.3-0.7-0.6-1.3-0.9-2c-0.1-0.2-0.2-0.3-0.2-0.5c-0.3-0.7-0.7-1.4-1-2.2c-0.1-0.2-0.2-0.5-0.3-0.7
		c-0.3-0.7-0.6-1.4-0.9-2.2c-0.1-0.2-0.2-0.4-0.3-0.6c-0.2-0.6-0.5-1.2-0.7-1.8c-0.1-0.2-0.2-0.5-0.3-0.7c-0.3-0.7-0.5-1.4-0.8-2.1
		c-0.1-0.3-0.2-0.5-0.3-0.8c-0.2-0.6-0.5-1.2-0.7-1.8c-0.1-0.2-0.2-0.5-0.3-0.7c-0.2-0.6-0.4-1.2-0.6-1.9c-0.1-0.3-0.2-0.5-0.3-0.8
		c-0.2-0.7-0.4-1.4-0.7-2c-0.1-0.2-0.1-0.5-0.2-0.7c-0.2-0.5-0.3-1.1-0.5-1.6c-0.1-0.2-0.1-0.5-0.2-0.7c-0.2-0.7-0.4-1.3-0.6-2
		c-0.1-0.3-0.1-0.5-0.2-0.8c-0.2-0.6-0.3-1.2-0.5-1.8c-0.1-0.3-0.1-0.5-0.2-0.8c-0.1-0.5-0.3-1.1-0.4-1.6c-0.1-0.3-0.1-0.5-0.2-0.8
		c-0.2-0.6-0.3-1.3-0.4-1.9c-0.1-0.3-0.1-0.5-0.2-0.8c-0.1-0.5-0.2-1-0.3-1.5c0-0.2-0.1-0.5-0.1-0.7c-0.1-0.6-0.3-1.3-0.4-1.9
		c-0.1-0.3-0.1-0.5-0.2-0.8c-0.1-0.6-0.2-1.2-0.3-1.7c0-0.3-0.1-0.5-0.1-0.8c-0.1-0.5-0.2-1-0.2-1.5c0-0.3-0.1-0.5-0.1-0.8
		c-0.1-0.6-0.2-1.2-0.3-1.8c0-0.2-0.1-0.5-0.1-0.7c-0.1-0.5-0.1-1-0.2-1.4c0-0.2-0.1-0.4-0.1-0.6c-0.1-0.6-0.1-1.2-0.2-1.8
		c0-0.2-0.1-0.5-0.1-0.7c-0.1-0.6-0.1-1.2-0.2-1.8c0-0.2,0-0.4-0.1-0.6c0-0.5-0.1-1-0.1-1.4c0-0.2,0-0.4-0.1-0.7
		c0-0.6-0.1-1.2-0.1-1.8c0-0.2,0-0.4,0-0.7c0-0.5-0.1-1-0.1-1.5c0-0.2,0-0.4,0-0.5c0-0.6-0.1-1.1-0.1-1.7c0-0.2,0-0.4,0-0.6
		c0-0.6,0-1.1-0.1-1.7c0-0.2,0-0.3,0-0.5c0-0.5,0-1,0-1.4c0-0.2,0-0.3,0-0.5c0-0.6,0-1.1,0-1.7c0-0.2,0-0.3,0-0.5c0-0.5,0-1.1,0-1.6
		c0-0.1,0-0.1,0-0.2c0-0.6,0-1.1,0-1.7c0-0.1,0-0.3,0-0.4c0-0.6,0-1.1,0.1-1.7c0-0.1,0-0.2,0-0.3c0-0.5,0-1,0.1-1.6
		c0-0.1,0-0.2,0-0.2c0-0.6,0.1-1.1,0.1-1.7c0-0.1,0-0.2,0-0.3c0.1-1.1,0.1-2.3,0.2-3.3c0-0.1,0-0.1,0-0.2c0-0.6,0.1-1.1,0.1-1.7
		c0,0,0,0,0,0c1.4-14.9,4.4-24.2,4.4-24.3c0,0,0,0,0,0c1.6,6.1,3.2,11.8,5,17.1c0,0,0,0,0,0.1c2.1,6.1,4.2,11.7,6.5,16.9
		c0.4,0.9,0.8,1.7,1.2,2.6c0.6,1.4,1.2,2.7,1.9,4c0.3,0.7,0.7,1.4,1,2.1c0.7,1.4,1.4,2.8,2.2,4.2c0.4,0.7,0.8,1.4,1.1,2.1
		c2.4,4.4,4.9,8.3,7.3,11.8c2.8,4.1,5.6,7.7,8.1,10.6c0.5,0.6,1,1.2,1.5,1.7c1.4,1.6,2.8,3.1,4.1,4.3c5.2,5.1,8.6,7.3,8.6,7.3
		c-37.8-112,33.3-161.9,33.3-161.9l0,0l-3.6,8c-6.6,16.2-18.2,54.3-0.9,88.8c22.7,45.4,71.1,60.5,71.1,60.5s9.8,31.7,26.3,56.4l0,0
		l13,16c2.4,2.4,5,4.5,7.6,6.3c0,0-2-1.1-5.2-3.4l5.2,6.4c-45.4-21.2-62-69.6-62-69.6c-37.8-7.6-65.1-40.9-65.1-40.9
		c15.1,53,57.5,92.3,57.5,92.3s-27.2-4.5-43.9-12.1c0,0,6.1,15.1,36.3,30.3c30.3,15.1,42.4,24.2,42.4,24.2s-51.4-4.5-65.1,3
		c0,0,88.7,17.7,141.9,76.6c0.6,0.7,1.2,1.4,1.9,2.1l0.4-0.1c-0.1-0.5-0.3-1-0.4-1.4c-15.1-49.9,5.3-129.4,9.8-161.1
		C407.3,296.6,380,289,380,289c12.1-6.1,31.8,9.1,31.8,9.1c-12.1-34.8-43.9-31.8-43.9-31.8c-3-9.1-15.1-9.1-15.1-9.1
		s13.6-18.2,37.8,0l-7.6,4.5c0,0,22.7,6.1,34.8,27.2c0,0,4.5-4.5-1.5-10.6h15.1c0,0-6.1-21.2-31.8-22.7c0,0,27.2-19.7,62,21.2h-15.1
		c0,0,17.7,9.6,2.7,90.9h0c0,0,0,0,0,0c-0.2,0.9-0.3,1.8-0.5,2.7c-0.1,0.3-0.1,0.7-0.2,1c-0.1,0.8-0.3,1.6-0.5,2.4
		c-0.1,0.6-0.2,1.2-0.4,1.8c-0.1,0.6-0.2,1.2-0.4,1.9c-0.2,1.2-0.5,2.5-0.8,3.7c0,0,0,0.1,0,0.1c-9.8,76.4-3.8,108.2-3.8,108.2h0
		c53-60.5,143.7-78.7,143.7-78.7c-13.6-7.6-65.1-3-65.1-3s12.1-9.1,42.4-24.2c30.3-15.1,36.3-30.3,36.3-30.3
		c-16.6,7.6-43.9,12.1-43.9,12.1s42.4-39.3,57.5-92.3c0,0-27.2,33.3-65.1,40.9c0,0-16.6,48.4-62,69.6l5.2-6.4
		c-3.2,2.3-5.2,3.4-5.2,3.4c2.6-1.8,5.1-3.9,7.6-6.3l13-16l0,0c16.5-24.7,26.3-56.4,26.3-56.4s48.4-15.1,71.1-60.5
		c17.3-34.6,5.6-72.6-0.9-88.8l-3.6-8l0,0c0,0,71.1,49.9,33.3,161.9c0,0,12.4-7.7,25.8-29.3c0.3-0.5,0.7-1.1,1-1.6
		c1.7-2.8,3.4-5.8,5-9.1c0.3-0.6,0.7-1.3,1-2c0.5-1,1-2,1.5-3c0.4-0.7,0.7-1.5,1.1-2.3c1.5-3.2,2.9-6.6,4.3-10.2
		c0.3-0.8,0.6-1.6,0.9-2.4c2.8-7.4,5.4-15.7,7.8-24.8l0,0c0,0.1,3,9.3,4.4,24.3c0,0,0,0,0,0c0.1,0.5,0.1,1.1,0.1,1.6
		c0,0.1,0,0.1,0,0.2c0.1,1.1,0.2,2.2,0.2,3.3c0,0.1,0,0.2,0,0.3c0,0.5,0.1,1.1,0.1,1.7c0,0.1,0,0.2,0,0.2c0,0.5,0,1,0.1,1.5
		c0,0.1,0,0.2,0,0.3c0,0.6,0,1.1,0,1.7c0,0.1,0,0.3,0,0.4c0,0.6,0,1.1,0,1.7c0,0.1,0,0.2,0,0.2c0,0.5,0,1.1,0,1.6c0,0.2,0,0.3,0,0.5
		c0,0.6,0,1.1,0,1.7c0,0.2,0,0.3,0,0.5c0,0.5,0,0.9,0,1.4c0,0.2,0,0.3,0,0.5c0,0.6,0,1.1-0.1,1.7c0,0.2,0,0.4,0,0.6
		c0,0.5,0,1.1-0.1,1.6c0,0.2,0,0.4,0,0.6c0,0.5-0.1,1-0.1,1.4c0,0.2,0,0.4,0,0.7c0,0.6-0.1,1.2-0.1,1.7c0,0.2,0,0.4-0.1,0.7
		c0,0.5-0.1,0.9-0.1,1.4c0,0.2,0,0.4-0.1,0.6c-0.1,0.6-0.1,1.2-0.2,1.8c0,0.2-0.1,0.5-0.1,0.8c-0.1,0.6-0.1,1.2-0.2,1.8
		c0,0.2-0.1,0.5-0.1,0.7c-0.1,0.5-0.1,0.9-0.2,1.4c0,0.3-0.1,0.5-0.1,0.8c-0.1,0.6-0.2,1.2-0.3,1.8c0,0.3-0.1,0.5-0.1,0.8
		c-0.1,0.5-0.2,1-0.2,1.5c0,0.3-0.1,0.5-0.1,0.8c-0.1,0.6-0.2,1.1-0.3,1.7c-0.1,0.3-0.1,0.5-0.2,0.8c-0.1,0.6-0.2,1.3-0.4,1.9
		c0,0.2-0.1,0.5-0.1,0.7c-0.1,0.5-0.2,1-0.3,1.5c-0.1,0.3-0.1,0.5-0.2,0.8c-0.1,0.6-0.3,1.3-0.4,1.9c-0.1,0.3-0.1,0.5-0.2,0.8
		c-0.1,0.5-0.3,1.1-0.4,1.6c-0.1,0.3-0.1,0.6-0.2,0.8c-0.2,0.6-0.3,1.2-0.5,1.7c-0.1,0.3-0.1,0.5-0.2,0.8c-0.2,0.7-0.4,1.3-0.6,2
		c-0.1,0.2-0.1,0.5-0.2,0.7c-0.2,0.5-0.3,1.1-0.5,1.6c-0.1,0.2-0.2,0.5-0.2,0.7c-0.2,0.7-0.4,1.4-0.7,2c-0.1,0.3-0.2,0.5-0.3,0.8
		c-0.2,0.6-0.4,1.2-0.6,1.8c-0.1,0.2-0.2,0.5-0.3,0.7c-0.2,0.6-0.4,1.2-0.7,1.8c-0.1,0.3-0.2,0.5-0.3,0.8c-0.3,0.7-0.5,1.4-0.8,2.1
		c-0.1,0.2-0.2,0.5-0.3,0.7c-0.2,0.6-0.5,1.2-0.7,1.8c-0.1,0.2-0.2,0.4-0.3,0.6c-0.3,0.7-0.6,1.4-0.9,2.2c-0.1,0.2-0.2,0.5-0.3,0.7
		c-0.3,0.7-0.6,1.4-1,2.1c-0.1,0.2-0.2,0.3-0.2,0.5c-0.3,0.6-0.6,1.3-0.9,1.9c-0.1,0.2-0.2,0.5-0.3,0.7c-0.4,0.7-0.7,1.5-1.1,2.2
		c-0.1,0.2-0.2,0.4-0.3,0.6c-0.3,0.6-0.7,1.3-1,1.9c-0.1,0.2-0.2,0.3-0.3,0.5c-0.4,0.8-0.8,1.5-1.2,2.3c-0.1,0.2-0.2,0.4-0.4,0.7
		c-0.4,0.8-0.9,1.5-1.3,2.3c-0.1,0.1-0.2,0.3-0.2,0.4c-0.4,0.7-0.8,1.4-1.2,2c-0.1,0.2-0.2,0.4-0.4,0.6c-0.5,0.8-0.9,1.5-1.4,2.3
		c-0.1,0.2-0.3,0.4-0.4,0.6c-0.5,0.7-0.9,1.4-1.4,2.1c-0.1,0.1-0.2,0.2-0.2,0.3c-0.5,0.8-1.1,1.6-1.6,2.3c-0.1,0.2-0.3,0.4-0.4,0.6
		c-0.5,0.8-1.1,1.6-1.7,2.3c-0.1,0.1-0.2,0.3-0.3,0.4c-0.5,0.7-1,1.4-1.6,2.1c-0.1,0.2-0.3,0.3-0.4,0.5c-0.6,0.8-1.2,1.6-1.8,2.3
		c-0.1,0.2-0.3,0.4-0.4,0.5c-0.6,0.8-1.2,1.5-1.8,2.3c0,0.1-0.1,0.1-0.1,0.2c-0.7,0.8-1.3,1.6-2,2.4c-0.2,0.2-0.3,0.4-0.5,0.5
		c-0.7,0.8-1.4,1.6-2,2.4c-0.1,0.1-0.2,0.3-0.3,0.4c-0.6,0.7-1.3,1.4-2,2.2c-0.1,0.1-0.3,0.3-0.4,0.4c-0.7,0.8-1.5,1.6-2.2,2.3
		c-0.2,0.2-0.3,0.3-0.5,0.5c-0.8,0.8-1.5,1.6-2.3,2.4c0,0,0,0,0,0c0,0,57.5-19.7,75.7-43.9c0,0-0.2,0.7-0.6,2
		c-0.1,0.3-0.2,0.5-0.3,0.9c-0.9,2.9-2.7,8-5.6,14.4c-0.3,0.7-0.6,1.4-0.9,2.1c-1.2,2.5-2.5,5.2-3.9,8c-0.4,0.8-0.9,1.6-1.3,2.5
		c-2,3.7-4.4,7.7-7,11.8c-0.9,1.4-1.8,2.8-2.8,4.2c-1,1.4-2,2.8-3,4.3c-0.7,1-1.4,1.9-2.1,2.9c-0.7,1-1.5,1.9-2.2,2.9
		c-0.4,0.5-0.8,1-1.2,1.5c-1.6,2-3.2,3.9-4.9,5.9c-0.6,0.7-1.3,1.5-1.9,2.2c-1.6,1.8-3.2,3.5-4.8,5.3c-0.9,1-1.9,2-2.9,3
		c-1.5,1.5-3,3-4.6,4.5c-0.5,0.5-1.1,1-1.6,1.5c-0.8,0.8-1.7,1.5-2.5,2.3c-2.7,2.4-5.5,4.8-8.5,7.2c-0.9,0.8-1.9,1.5-2.9,2.2
		c-1.2,1-2.5,1.9-3.8,2.9c-1.3,0.9-2.6,1.9-3.9,2.8c-3.3,2.3-6.8,4.6-10.4,6.9c-1.5,0.9-2.9,1.8-4.4,2.6c-0.7,0.4-1.5,0.9-2.3,1.3
		c-9.1,5.2-19.1,10-30.1,14.3c-5.5,2.1-11.2,4.1-17.2,6c-3,0.9-6,1.8-9.1,2.6c-2.1,0.6-4.2,1.1-6.3,1.6c-8.5,2.1-17.5,3.9-27,5.3
		l13.3-12.5l12.5-11.7c0,0,0,0,0,0c0,0,0,0,0,0c0,0-0.1,0-0.1,0c-4.1,0.4-95.5,10.2-141.5,127.1l0.9,3c-0.3-0.9-0.7-1.8-1-2.6
		c-0.1,0.4-0.3,0.7-0.4,1.1l0.3-0.9l0.1-0.4c0,0,0,0,0,0c0,0,0,0,0,0c0,0,0,0,0,0l-0.4,1.3c0,0-0.6-2.3-1.7-6.5l0,0
		c-0.3-0.8-0.7-1.6-1.1-2.5c0-0.1-0.1-0.1-0.1-0.2c-0.3-0.8-0.7-1.5-1-2.3c0-0.1-0.1-0.2-0.1-0.3c-0.3-0.7-0.7-1.5-1-2.2
		c-0.1-0.1-0.1-0.3-0.2-0.4c-0.3-0.7-0.6-1.4-1-2.1c-0.1-0.2-0.1-0.3-0.2-0.5c-0.3-0.7-0.6-1.3-1-2c-0.1-0.2-0.2-0.3-0.2-0.5
		c-0.3-0.7-0.6-1.3-1-1.9c-0.1-0.2-0.2-0.3-0.3-0.5c-0.3-0.6-0.6-1.3-1-1.9c-0.1-0.2-0.2-0.4-0.3-0.5c-0.3-0.6-0.6-1.2-1-1.8
		c-0.1-0.2-0.2-0.4-0.3-0.5c-0.3-0.6-0.6-1.2-1-1.8c-0.1-0.2-0.2-0.4-0.3-0.6c-0.3-0.6-0.6-1.2-1-1.7c-0.1-0.2-0.2-0.4-0.3-0.6
		c-0.3-0.6-0.6-1.1-1-1.7c-0.1-0.2-0.2-0.4-0.3-0.6c-0.3-0.6-0.6-1.1-1-1.7c-0.1-0.2-0.2-0.4-0.3-0.6c-0.3-0.6-0.6-1.1-1-1.6
		c-0.1-0.2-0.2-0.4-0.3-0.6c-0.3-0.5-0.7-1.1-1-1.6c-0.1-0.2-0.2-0.4-0.3-0.5c-0.3-0.5-0.7-1.1-1-1.6c-0.1-0.2-0.2-0.4-0.3-0.5
		c-0.3-0.5-0.7-1.1-1-1.6c-0.1-0.2-0.2-0.3-0.3-0.5c-0.3-0.5-0.7-1-1-1.5c-0.1-0.2-0.2-0.3-0.3-0.5c-0.3-0.5-0.7-1-1-1.5
		c-0.1-0.2-0.2-0.3-0.3-0.5c-0.3-0.5-0.7-1-1-1.5c-0.1-0.2-0.2-0.3-0.3-0.5c-0.3-0.5-0.7-1-1-1.5c-0.1-0.2-0.2-0.3-0.3-0.5
		c-0.3-0.5-0.7-1-1-1.5c-0.1-0.1-0.2-0.3-0.3-0.4c-0.4-0.5-0.7-1-1.1-1.5c-0.1-0.1-0.2-0.3-0.3-0.4c-0.4-0.5-0.7-1-1.1-1.5
		c-0.1-0.1-0.2-0.3-0.3-0.4c-0.4-0.5-0.7-1-1.1-1.4c-0.1-0.1-0.2-0.2-0.3-0.4c-0.4-0.5-0.7-1-1.1-1.4c-0.1-0.1-0.2-0.2-0.3-0.3
		c-0.4-0.5-0.8-1-1.1-1.4c-0.1-0.1-0.2-0.2-0.2-0.3c-0.4-0.5-0.8-1-1.2-1.4c-0.1-0.1-0.1-0.2-0.2-0.3c-0.4-0.5-0.8-1-1.2-1.4
		c-0.1-0.1-0.1-0.1-0.2-0.2c-0.4-0.5-0.8-1-1.2-1.5c0-0.1-0.1-0.1-0.1-0.2c-0.4-0.5-0.9-1-1.3-1.5c0,0-0.1-0.1-0.1-0.1
		c-0.5-0.5-0.9-1-1.4-1.5c0,0,0,0,0,0c-8.1-9-16.4-16.5-24.5-22.9c0,0,0,0,0,0c-0.5-0.4-0.9-0.7-1.4-1.1c0,0-0.1,0-0.1-0.1
		c-0.4-0.3-0.9-0.7-1.3-1c0,0-0.1-0.1-0.1-0.1c-0.4-0.3-0.9-0.6-1.3-0.9c-0.1,0-0.1-0.1-0.2-0.1c-0.4-0.3-0.8-0.6-1.3-0.9
		c-0.1,0-0.1-0.1-0.2-0.1c-0.4-0.3-0.8-0.6-1.2-0.9c-0.1,0-0.1-0.1-0.2-0.1c-0.4-0.3-0.8-0.6-1.2-0.8c-0.1-0.1-0.1-0.1-0.2-0.2
		c-0.4-0.3-0.8-0.5-1.2-0.8c-0.1-0.1-0.2-0.1-0.2-0.2c-0.4-0.3-0.8-0.5-1.2-0.8c-0.1-0.1-0.2-0.1-0.3-0.2c-0.4-0.3-0.8-0.5-1.1-0.7
		c-0.1-0.1-0.2-0.1-0.3-0.2c-0.4-0.2-0.8-0.5-1.1-0.7c-0.1-0.1-0.2-0.1-0.3-0.2c-0.4-0.2-0.8-0.5-1.1-0.7c-0.1-0.1-0.2-0.1-0.3-0.2
		c-0.4-0.2-0.8-0.5-1.1-0.7c-0.1-0.1-0.2-0.1-0.3-0.2c-0.4-0.2-0.7-0.4-1.1-0.7c-0.1-0.1-0.2-0.1-0.3-0.2c-0.4-0.2-0.7-0.4-1.1-0.6
		c-0.1-0.1-0.2-0.1-0.3-0.2c-0.4-0.2-0.7-0.4-1.1-0.6c-0.1-0.1-0.2-0.1-0.3-0.2c-0.4-0.2-0.7-0.4-1.1-0.6c-0.1-0.1-0.2-0.1-0.3-0.2
		c-0.4-0.2-0.7-0.4-1.1-0.6c-0.1,0-0.2-0.1-0.3-0.1c-0.4-0.2-0.7-0.4-1.1-0.6c-0.1,0-0.2-0.1-0.3-0.1c-0.4-0.2-0.7-0.4-1.1-0.6
		c-0.1,0-0.2-0.1-0.2-0.1c-0.4-0.2-0.7-0.4-1.1-0.6c-0.1,0-0.2-0.1-0.2-0.1c-0.4-0.2-0.7-0.4-1.1-0.5c-0.1,0-0.1-0.1-0.2-0.1
		c-0.4-0.2-0.7-0.4-1.1-0.5c-0.1,0-0.1-0.1-0.2-0.1c-0.4-0.2-0.7-0.4-1.1-0.5c-0.1,0-0.1-0.1-0.2-0.1c-0.4-0.2-0.7-0.3-1.1-0.5
		c-0.1,0-0.1-0.1-0.2-0.1c-0.4-0.2-0.7-0.3-1.1-0.5c0,0-0.1,0-0.1-0.1c-0.4-0.2-0.8-0.3-1.1-0.5c0,0-0.1,0-0.1,0
		c-0.4-0.2-0.8-0.3-1.2-0.5c0,0,0,0-0.1,0c-6.1-2.7-11.7-4.7-16.7-6.2c0,0,0,0,0,0c-0.3-0.1-0.6-0.2-0.9-0.3c0,0-0.1,0-0.1,0
		c-0.3-0.1-0.6-0.2-0.8-0.2c0,0-0.1,0-0.1,0c-0.3-0.1-0.5-0.2-0.8-0.2c-0.1,0-0.1,0-0.2,0c-0.2-0.1-0.5-0.1-0.7-0.2
		c-0.1,0-0.1,0-0.2-0.1c-0.2-0.1-0.5-0.1-0.7-0.2c-0.1,0-0.1,0-0.2-0.1c-0.2-0.1-0.4-0.1-0.7-0.2c-0.1,0-0.2,0-0.2-0.1
		c-0.2-0.1-0.4-0.1-0.6-0.2c-0.1,0-0.2,0-0.2-0.1c-0.2-0.1-0.4-0.1-0.6-0.2c-0.1,0-0.2,0-0.2-0.1c-0.2,0-0.4-0.1-0.6-0.1
		c-0.1,0-0.2,0-0.2-0.1c-0.2,0-0.4-0.1-0.5-0.1c-0.1,0-0.2,0-0.3-0.1c-0.2,0-0.3-0.1-0.5-0.1c-0.1,0-0.2,0-0.3-0.1
		c-0.2,0-0.3-0.1-0.5-0.1c-0.1,0-0.2,0-0.3-0.1c-0.2,0-0.3-0.1-0.5-0.1c-0.1,0-0.2,0-0.3-0.1c-0.2,0-0.3-0.1-0.5-0.1
		c-0.1,0-0.2,0-0.3-0.1c-0.1,0-0.3-0.1-0.4-0.1c-0.1,0-0.2,0-0.3-0.1c-0.1,0-0.3-0.1-0.4-0.1c-0.1,0-0.2,0-0.2,0
		c-0.1,0-0.3-0.1-0.4-0.1c-0.1,0-0.2,0-0.3,0c-0.1,0-0.2,0-0.4-0.1c-0.1,0-0.2,0-0.2,0c-0.1,0-0.2,0-0.3-0.1c-0.1,0-0.2,0-0.2,0
		c-0.1,0-0.2,0-0.3-0.1c-0.1,0-0.2,0-0.2,0c-0.1,0-0.2,0-0.3-0.1c-0.1,0-0.1,0-0.2,0c-0.1,0-0.2,0-0.3,0c-0.1,0-0.1,0-0.2,0
		c-0.1,0-0.2,0-0.3,0c-0.1,0-0.1,0-0.2,0c-0.1,0-0.2,0-0.2,0c-0.1,0-0.1,0-0.2,0c-0.1,0-0.2,0-0.2,0c-0.1,0-0.1,0-0.2,0
		c-0.1,0-0.1,0-0.2,0c-0.1,0-0.1,0-0.2,0c-0.1,0-0.1,0-0.2,0c-0.1,0-0.1,0-0.2,0c-0.1,0-0.1,0-0.2,0c-0.1,0-0.1,0-0.2,0
		c0,0-0.1,0-0.1,0c-0.1,0-0.1,0-0.2,0c0,0-0.1,0-0.1,0c-0.1,0-0.1,0-0.2,0c0,0-0.1,0-0.1,0c-0.1,0-0.1,0-0.2,0c0,0,0,0,0,0
		c-0.1,0-0.1,0-0.2,0c0,0,0,0,0,0c0,0-0.1,0-0.1,0c0,0,0,0,0,0c0,0-0.1,0-0.1,0c0,0,0,0,0,0c-0.1,0-0.2,0-0.2,0L302.1,471.4z
		 M400,261.5c9.1-3,21.2,7.6,21.2,7.6h-10.6C406,263.1,400,261.5,400,261.5z M438.3,610.6c4,4,11.2,15.7,15.3,28.1L436,617
		C435.7,611.5,436.6,608.9,438.3,610.6z M461,605.2c-7.7-15.4-12.7-35.8-6.1-59.6c0,0,2.8,23,16.2,58.2l-11.1-12.1L461,605.2z
		 M399.7,618.9l-18.5,24.5c3.8-13.4,11.9-26.9,16.2-31.2C399.2,610.3,400.1,613.1,399.7,618.9z M376.3,603.3v-17.5l-8,9.2
		c10.2-29.3,12.4-47.9,12.4-47.9C386.9,569.2,383.1,588.3,376.3,603.3z M778.6,573.1c-13.4,31.7-30.7,61.2-51.8,88.1
		c-5.8,0.7-142.2,16-191.8-34.2c-18.4-18.6-31.5-39.4-40.6-58.5c-5.6-18.4-7.6-30.7-7.6-30.7c27.2-30.3,78.7-40.9,78.7-40.9
		c213.4-54.5,183.1-234.5,183.1-234.5c-16.6,28.7-37.8,37.8-37.8,37.8c13.6-95.3-36.3-139.2-36.3-139.2c1.5,15.1-6.1,42.4-6.1,42.4
		C630.5,108.2,541.2,97.6,541.2,97.6s49.9,21.2,49.9,98.4s-80.2,89.3-80.2,89.3c0,32.4-18.3,50.3-29.4,52.7c0,0-10.7-1.2-10.7-20.9
		c0,0,1.5-12.9,0-18.9c-1.5-6.1,4.5-3,4.5-3l5.3,6.8c-7.6-81.7-89.3-57.5-89.3-57.5c-45.4-16.6-60.5,21.2-60.5,21.2
		c15.1-6.1,27.2,9.1,27.2,9.1c15.1,0,21.2,4.5,21.2,4.5c-15.1-1.5-30.3,13.6-30.3,13.6s31,2.3,31,23.5c0,21.2-24.2,22.7-24.2,22.7
		l-1.6,0.5c-11.1-2.4-29.4-20.3-29.4-52.7c0,0-80.2-12.1-80.2-89.3c0-77.2,49.9-98.4,49.9-98.4s-89.3,10.6-127.1,105.9
		c0,0-7.6-27.2-6.1-42.4c0,0-49.9,43.9-36.3,139.2c0,0-21.2-9.1-37.8-37.8c0,0-30.3,180.1,183.1,234.5c0,0,51.4,10.6,78.7,40.9
		c0,0-2,12.1-7.5,30.3c-9.1,18.7-22,39.1-40.1,57.3c-50.7,51.2-192,34.1-192,34.1s0.3,0.6,0.9,1.8c-21.6-27.4-39.4-57.5-53.1-89.9
		c-20.4-48.3-30.8-99.5-30.8-152.4c0-52.9,10.3-104.1,30.8-152.4c19.7-46.6,47.9-88.5,83.9-124.4c36-36,77.8-64.2,124.4-83.9
		c48.3-20.4,99.5-30.8,152.4-30.8S522,39.6,570.2,60c46.6,19.7,88.5,47.9,124.4,83.9c36,36,64.2,77.8,83.9,124.4
		c20.4,48.3,30.8,99.5,30.8,152.4C809.3,473.6,799,524.9,778.6,573.1z M176.6,705.5c8.4-1.3,16.7-3.1,24.9-5.1
		c2.1-0.5,4.1-1.1,6.1-1.6c2-0.6,4.1-1.1,6.1-1.7l3-0.9c1-0.3,2-0.6,3-0.9c2-0.7,4-1.2,6-1.9c8-2.7,15.9-5.6,23.6-8.9
		c3.9-1.7,7.7-3.3,11.5-5.1l2.9-1.3c1-0.4,1.9-0.9,2.8-1.4c1.9-1,3.8-1.9,5.6-2.8l5.6-3c0.9-0.5,1.8-1,2.8-1.5l2.7-1.6l2.7-1.6
		l2.7-1.6c1.8-1.1,3.6-2.2,5.4-3.3c3.5-2.3,7.1-4.6,10.5-7c3.5-2.4,6.8-4.9,10.2-7.4c0.9-0.6,1.7-1.3,2.5-1.9l2.5-2
		c1.6-1.3,3.3-2.6,4.9-4l4.8-4.1c0.4-0.3,0.8-0.7,1.2-1l1.2-1.1l2.3-2.1l2.4-2.1l1.2-1.1c0.4-0.4,0.8-0.7,1.1-1.1
		c1.5-1.5,3-3,4.5-4.4c1.6-1.4,3-3,4.5-4.5c1.5-1.5,2.9-3.1,4.4-4.6c-1.3,1.7-2.6,3.4-3.8,5.1c-1.3,1.7-2.6,3.4-4,5
		c-1.4,1.6-2.8,3.2-4.1,4.9c-0.3,0.4-0.7,0.8-1,1.2l-1.1,1.2l-2.2,2.3l-2.2,2.3l-1.1,1.2c-0.4,0.4-0.8,0.7-1.1,1.1l-4.6,4.5
		c-1.5,1.5-3.1,2.9-4.7,4.3l-2.4,2.1c-0.8,0.7-1.6,1.4-2.4,2.1l-5,4.1l-1.2,1c-0.4,0.3-0.9,0.6-1.3,1l-2.6,1.9
		c-3.4,2.6-7,5-10.5,7.4c-7.2,4.7-14.5,9.1-22.2,13.1c-15.2,7.9-31.2,14.3-47.7,18.9c-8.2,2.3-16.6,4.2-25,5.7l-3.2,0.5l-3.2,0.5
		c-1.1,0.2-2.1,0.3-3.2,0.4c-1.1,0.1-2.1,0.3-3.2,0.4C185.1,705.1,180.8,705.4,176.6,705.5z M250.3,718.8c6.1-2.2,12-4.8,17.8-7.6
		c5.8-2.8,11.5-5.8,17-9c11.1-6.4,21.7-13.6,31.7-21.6c5-4,9.8-8.2,14.5-12.5c4.7-4.3,9.1-9,13.5-13.6c8.6-9.5,16.6-19.6,24.1-30.2
		c-5.6,11.7-12.7,22.7-20.9,32.9c-1,1.3-2.1,2.5-3.2,3.8l-1.6,1.9c-0.5,0.6-1.1,1.2-1.6,1.8l-3.3,3.6l-3.5,3.5
		c-0.6,0.6-1.1,1.2-1.7,1.7l-1.8,1.7c-1.2,1.1-2.4,2.2-3.6,3.3l-3.7,3.2c-1.2,1.1-2.5,2.1-3.8,3.1c-10.2,8.2-21.3,15.3-33,21.1
		c-5.9,2.9-11.9,5.5-18,7.7C263,715.8,256.7,717.7,250.3,718.8z M343.5,729.8c1.5-1.5,2.8-3.1,4-4.7c0.6-0.8,1.3-1.6,1.9-2.4
		l1.8-2.5c0.6-0.8,1.2-1.7,1.8-2.5c0.6-0.8,1.2-1.7,1.7-2.5c1.1-1.7,2.3-3.4,3.3-5.1l1.6-2.6l0.8-1.3l0.8-1.3c1-1.8,2.1-3.5,3.1-5.2
		c1-1.8,2-3.5,3-5.3c0.5-0.9,1-1.8,1.5-2.7l1.5-2.7c1-1.8,2-3.6,2.9-5.4l2.8-5.4c1.9-3.6,3.7-7.3,5.6-10.9c1.8-3.7,3.6-7.4,5.5-11
		c0.9-1.8,1.8-3.7,2.8-5.5l1.4-2.8c0.5-0.9,1-1.8,1.5-2.7c-0.2,1-0.5,2-0.7,3l-0.8,3c-0.5,2-1.1,4-1.7,6c-1.3,3.9-2.7,7.8-4.1,11.7
		c-0.8,1.9-1.6,3.8-2.4,5.8l-1.2,2.9l-0.6,1.4l-0.7,1.4c-1.8,3.7-3.6,7.5-5.6,11.1l-1.5,2.7c-0.5,0.9-1,1.8-1.6,2.7
		c-1.1,1.8-2.2,3.6-3.3,5.3c-2.3,3.5-4.6,6.9-7.2,10.2l-1,1.2c-0.3,0.4-0.7,0.8-1,1.2l-2,2.4c-0.7,0.8-1.4,1.6-2.1,2.3
		c-0.7,0.8-1.4,1.5-2.2,2.3l-2.3,2.2c-0.8,0.7-1.6,1.4-2.4,2.1c-0.8,0.7-1.6,1.3-2.5,1.9C345.3,728.7,344.4,729.3,343.5,729.8z
		 M250,755.9c3.8-2.1,7.5-4.2,11.3-6.4c3.7-2.1,7.4-4.3,11.1-6.5c7.4-4.4,14.6-8.9,21.7-13.6c0.9-0.6,1.8-1.2,2.7-1.8
		c0.9-0.6,1.8-1.2,2.6-1.8l2.6-1.8l2.6-1.8c0.9-0.6,1.7-1.2,2.6-1.9l2.6-1.9c1.7-1.3,3.4-2.5,5.1-3.8c6.8-5.2,13.4-10.7,19.9-16.3
		c-4.9,7.2-10.8,13.7-17.2,19.6c-3.2,3-6.6,5.8-10,8.4c-1.7,1.3-3.5,2.6-5.2,3.9c-0.9,0.6-1.8,1.2-2.7,1.9c-0.9,0.6-1.8,1.2-2.7,1.8
		c-7.3,4.8-14.9,9.1-22.7,12.9c-3.9,1.9-7.9,3.6-12,5.2c-2,0.8-4.1,1.5-6.1,2.2C254.2,754.8,252.1,755.4,250,755.9z M199.8,732.4
		l22.1-5.9l5.5-1.4c1.8-0.5,3.7-1,5.5-1.4c1.9-0.4,3.7-0.9,5.6-1.3c1.9-0.4,3.7-0.9,5.7-1.2c-1.7,1-3.4,1.8-5.1,2.7
		c-1.8,0.8-3.5,1.6-5.3,2.2c-1.8,0.7-3.6,1.3-5.4,1.9c-0.9,0.3-1.8,0.6-2.8,0.9l-2.8,0.8c-3.7,1-7.5,1.8-11.3,2.3
		c-1.9,0.2-3.8,0.5-5.8,0.5C203.7,732.6,201.8,732.6,199.8,732.4z M349.9,681.7c1.6-3.5,3.3-6.8,5.2-10c1.8-3.2,3.8-6.3,5.8-9.4
		c2-3,4.2-6,6.5-8.9c1.1-1.5,2.3-2.9,3.6-4.3c1.3-1.4,2.6-2.8,4-4c-1,3.7-2.4,7.2-4.1,10.6c-1.7,3.3-3.5,6.6-5.6,9.7
		c-2.1,3.1-4.4,6.1-6.9,8.9c-1.3,1.4-2.6,2.7-4,4C353,679.5,351.6,680.7,349.9,681.7z M276.2,773.6c2.6-1.3,5.2-2.7,7.7-4.1
		c1.3-0.7,2.5-1.4,3.8-2.1c1.3-0.7,2.5-1.4,3.7-2.1c5-2.9,9.9-5.9,14.7-8.9c2.4-1.6,4.8-3.1,7.2-4.7c1.2-0.8,2.4-1.6,3.6-2.4
		c1.2-0.8,2.4-1.6,3.6-2.4l1.8-1.2l1.8-1.2c1.2-0.8,2.4-1.6,3.6-2.4c2.4-1.6,4.8-3.3,7.3-4.8c-1,1.1-2,2.1-3,3.2c-1,1-2,2.1-3.1,3.1
		c-1.1,1-2.2,2-3.2,2.9c-1.1,1-2.2,1.9-3.3,2.8c-1.1,0.9-2.3,1.8-3.4,2.7c-1.1,0.9-2.3,1.7-3.5,2.6c-1.2,0.8-2.4,1.7-3.6,2.5
		l-3.7,2.4c-4.9,3.1-10.1,5.9-15.4,8.4c-1.3,0.6-2.7,1.2-4,1.7l-2,0.8l-2.1,0.8c-1.4,0.5-2.8,0.9-4.2,1.3
		C279.1,772.9,277.6,773.3,276.2,773.6z M416.9,645.1c-1.6,7-3.7,13.8-5.9,20.6c-2.3,6.8-4.8,13.5-7.6,20.1
		c-5.5,13.2-11.8,26.1-18.9,38.5c-7.1,12.4-15,24.4-23.8,35.7l-1.6,2.1l-1.7,2.1l-3.4,4.2l-3.5,4.1l-1.8,2l-1.8,2l-3.7,3.9
		c-1.3,1.3-2.5,2.5-3.8,3.8l-1.9,1.9l-2,1.8c-1.3,1.2-2.6,2.4-4,3.6c1.1-1.4,2.3-2.8,3.4-4.2l1.7-2.1l1.7-2.1
		c1.1-1.4,2.2-2.8,3.3-4.2l3.2-4.2l1.6-2.1l1.6-2.1l3.2-4.3c2-2.9,4.2-5.7,6.1-8.7c8.1-11.6,15.6-23.6,22.6-35.9
		c7-12.3,13.6-24.8,19.8-37.6c3.1-6.4,6.1-12.8,9-19.3C411.5,658.3,414.3,651.7,416.9,645.1z M657.3,705.5c-4.3,0-8.5-0.4-12.8-0.8
		c-1.1-0.1-2.1-0.2-3.2-0.4c-1.1-0.1-2.1-0.3-3.2-0.4l-3.2-0.5l-3.2-0.5c-8.4-1.4-16.8-3.3-25-5.7c-16.5-4.6-32.5-11-47.7-18.9
		c-7.6-4-15-8.4-22.2-13.1c-3.5-2.4-7.1-4.8-10.5-7.4l-2.6-1.9c-0.4-0.3-0.9-0.6-1.3-1l-1.2-1l-5-4.1c-0.8-0.7-1.6-1.4-2.4-2.1
		l-2.4-2.1c-1.6-1.4-3.2-2.8-4.7-4.3l-4.6-4.5c-0.4-0.4-0.8-0.7-1.1-1.1l-1.1-1.2l-2.2-2.3l-2.2-2.3l-1.1-1.2
		c-0.4-0.4-0.7-0.8-1-1.2c-1.4-1.6-2.8-3.2-4.1-4.9c-1.4-1.6-2.7-3.3-4-5c-1.3-1.7-2.6-3.4-3.8-5.1c1.5,1.5,3,3,4.4,4.6
		c1.5,1.5,2.9,3.1,4.5,4.5c1.5,1.5,3,3,4.5,4.4c0.4,0.4,0.7,0.7,1.1,1.1l1.2,1.1l2.4,2.1l2.3,2.1l1.2,1.1c0.4,0.4,0.8,0.7,1.2,1
		l4.8,4.1c1.6,1.4,3.3,2.7,4.9,4l2.5,2c0.8,0.7,1.6,1.3,2.5,1.9c3.4,2.5,6.7,5.1,10.2,7.4c3.4,2.4,7,4.7,10.5,7
		c1.8,1.1,3.6,2.2,5.4,3.3l2.7,1.6l2.7,1.6l2.7,1.6c0.9,0.5,1.8,1.1,2.8,1.5l5.6,3c1.9,1,3.8,1.9,5.6,2.8c0.9,0.5,1.9,1,2.8,1.4
		l2.9,1.3c3.8,1.8,7.7,3.5,11.5,5.1c7.7,3.3,15.7,6.2,23.6,8.9c2,0.7,4,1.3,6,1.9c1,0.3,2,0.6,3,0.9l3,0.9c2,0.6,4.1,1.2,6.1,1.7
		c2,0.5,4.1,1.1,6.1,1.6C640.6,702.4,648.9,704.2,657.3,705.5z M583.6,718.8c-6.4-1.1-12.7-3-18.8-5.2c-6.1-2.2-12.1-4.8-18-7.7
		c-11.7-5.8-22.8-12.9-33-21.1c-1.3-1-2.6-2-3.8-3.1l-3.7-3.2c-1.2-1.1-2.4-2.2-3.6-3.3l-1.8-1.7c-0.6-0.6-1.2-1.2-1.7-1.7l-3.5-3.5
		l-3.3-3.6c-0.5-0.6-1.1-1.2-1.6-1.8l-1.6-1.9c-1.1-1.3-2.1-2.5-3.2-3.8c-8.2-10.2-15.3-21.2-20.9-32.9
		c7.5,10.6,15.5,20.7,24.1,30.2c4.4,4.7,8.8,9.3,13.5,13.6c4.7,4.4,9.5,8.6,14.5,12.5c10,8,20.6,15.2,31.7,21.6
		c5.5,3.2,11.2,6.2,17,9C571.6,714,577.5,716.6,583.6,718.8z M490.4,729.8c-0.9-0.5-1.8-1.1-2.6-1.7c-0.8-0.6-1.7-1.3-2.5-1.9
		c-0.8-0.7-1.6-1.4-2.4-2.1l-2.3-2.2c-0.7-0.7-1.4-1.5-2.2-2.3c-0.7-0.8-1.4-1.5-2.1-2.3l-2-2.4c-0.3-0.4-0.7-0.8-1-1.2l-1-1.2
		c-2.6-3.3-4.9-6.7-7.2-10.2c-1.1-1.8-2.2-3.6-3.3-5.3c-0.6-0.9-1-1.8-1.6-2.7l-1.5-2.7c-2-3.6-3.8-7.4-5.6-11.1l-0.7-1.4l-0.6-1.4
		l-1.2-2.9c-0.8-1.9-1.6-3.8-2.4-5.8c-1.4-3.9-2.8-7.8-4.1-11.7c-0.6-2-1.2-4-1.7-6l-0.8-3c-0.2-1-0.5-2-0.7-3
		c0.5,0.9,1,1.8,1.5,2.7l1.4,2.8c1,1.8,1.9,3.7,2.8,5.5c1.9,3.7,3.7,7.3,5.5,11c1.9,3.6,3.7,7.3,5.6,10.9l2.8,5.4
		c0.9,1.8,1.9,3.6,2.9,5.4l1.5,2.7c0.5,0.9,1,1.8,1.5,2.7c1,1.8,2,3.5,3,5.3c1,1.8,2.1,3.5,3.1,5.2l0.8,1.3l0.8,1.3l1.6,2.6
		c1,1.8,2.2,3.4,3.3,5.1c0.5,0.9,1.2,1.7,1.7,2.5c0.6,0.8,1.2,1.7,1.8,2.5l1.8,2.5c0.6,0.8,1.3,1.6,1.9,2.4
		C487.6,726.7,488.9,728.3,490.4,729.8z M583.9,755.9c-2.1-0.5-4.2-1.2-6.3-1.8c-2.1-0.7-4.1-1.4-6.1-2.2c-4.1-1.6-8-3.3-12-5.2
		c-7.8-3.8-15.4-8-22.7-12.9c-0.9-0.6-1.8-1.2-2.7-1.8c-0.9-0.6-1.8-1.2-2.7-1.9c-1.8-1.3-3.5-2.6-5.2-3.9c-3.4-2.7-6.8-5.5-10-8.4
		c-6.4-5.9-12.3-12.4-17.2-19.6c6.6,5.7,13.1,11.2,19.9,16.3c1.7,1.3,3.4,2.6,5.1,3.8l2.6,1.9c0.9,0.6,1.7,1.3,2.6,1.9l2.6,1.8
		l2.6,1.8c0.9,0.6,1.8,1.2,2.6,1.8c0.9,0.6,1.8,1.2,2.7,1.8c7.1,4.7,14.4,9.2,21.7,13.6c3.7,2.2,7.4,4.4,11.1,6.5
		C576.3,751.7,580.1,753.8,583.9,755.9z M634.1,732.4c-1.9,0.2-3.9,0.1-5.8,0.1c-1.9-0.1-3.9-0.3-5.8-0.5c-3.8-0.5-7.6-1.3-11.3-2.3
		l-2.8-0.8c-0.9-0.3-1.8-0.6-2.8-0.9c-1.8-0.6-3.6-1.2-5.4-1.9c-1.8-0.7-3.6-1.5-5.3-2.2c-1.7-0.8-3.5-1.7-5.1-2.7
		c1.9,0.3,3.8,0.7,5.7,1.2c1.9,0.4,3.7,0.9,5.6,1.3c1.9,0.4,3.7,1,5.5,1.4l5.5,1.4L634.1,732.4z M557.7,773.6
		c-1.4-0.3-2.9-0.6-4.3-1c-1.4-0.4-2.8-0.8-4.2-1.3l-2.1-0.8l-2-0.8c-1.4-0.5-2.7-1.1-4-1.7c-5.3-2.4-10.4-5.3-15.4-8.4l-3.7-2.4
		c-1.2-0.8-2.4-1.7-3.6-2.5c-1.2-0.9-2.4-1.7-3.5-2.6c-1.1-0.9-2.3-1.8-3.4-2.7c-1.1-0.9-2.2-1.9-3.3-2.8c-1.1-1-2.2-1.9-3.2-2.9
		c-1.1-1-2.1-2-3.1-3.1c-1-1-2-2.1-3-3.2c2.5,1.5,4.9,3.2,7.3,4.8c1.2,0.8,2.4,1.6,3.6,2.4l1.8,1.2l1.8,1.2c1.2,0.8,2.4,1.6,3.6,2.4
		c1.2,0.8,2.4,1.6,3.6,2.4c2.4,1.6,4.8,3.1,7.2,4.7c4.9,3.1,9.7,6.1,14.7,8.9c1.2,0.7,2.5,1.5,3.7,2.1c1.3,0.7,2.5,1.4,3.8,2.1
		C552.5,770.9,555.1,772.3,557.7,773.6z M416.9,645.1c2.7,6.6,5.4,13.2,8.4,19.6c2.9,6.5,5.9,12.9,9,19.3
		c6.2,12.8,12.7,25.3,19.8,37.6c7,12.3,14.5,24.3,22.6,35.9c2,2.9,4.1,5.8,6.1,8.7l3.2,4.3l1.6,2.1l1.6,2.1l3.2,4.2
		c1.1,1.4,2.2,2.8,3.3,4.2l1.7,2.1l1.7,2.1c1.1,1.4,2.3,2.8,3.4,4.2c-1.3-1.2-2.6-2.4-4-3.6l-2-1.8l-1.9-1.9
		c-1.3-1.2-2.5-2.5-3.8-3.8l-3.7-3.9l-1.8-2l-1.8-2l-3.5-4.1l-3.4-4.2l-1.7-2.1l-1.6-2.1c-8.8-11.3-16.7-23.3-23.8-35.7
		c-7.1-12.4-13.4-25.3-18.9-38.5c-2.7-6.6-5.3-13.3-7.6-20.1C420.6,658.9,418.5,652.1,416.9,645.1z"/>
</g>
</svg>
