<?xml version="1.0" encoding="utf-8"?>
<!-- Generator: Adobe Illustrator 21.0.2, SVG Export Plug-In . SVG Version: 6.00 Build 0)  -->
<svg version="1.1" id="Layer_1" xmlns="http://www.w3.org/2000/svg" xmlns:xlink="http://www.w3.org/1999/xlink" x="0px" y="0px"
	 viewBox="0 0 3664.8 1368.7" style="enable-background:new 0 0 3664.8 1368.7;" xml:space="preserve">
<style type="text/css">
	.st0{fill:#FFFFFF;}
	.st1{font-family:'HelveticaNeue-Light';}
	.st2{font-size:129.6861px;}
	.st3{font-family:'BloomingElegantSans';}
	.st4{font-size:1145.396px;}
</style>
<g>
	<text transform="matrix(1 0 0 1 1827.2633 1160.2017)" class="st0 st1 st2">торгово промышленная группа</text>
	<g>
		<text transform="matrix(1 0 0 1 1758.9169 973.5762)" class="st0 st3 st4">FENIX</text>
	</g>
	<rect x="1821.2" y="1028.4" class="st0" width="1841.1" height="5"/>
	<g>
		<defs>
			<path id="SVGID_1_" d="M1506.5,482.4c-32-75.5-77.7-143.4-135.9-201.6c-58.3-58.3-126.1-104-201.6-135.9
				C1090.7,111.8,1007.6,95,922,95c-85.6,0-168.7,16.8-246.9,49.9c-75.5,32-143.4,77.7-201.6,135.9
				c-58.3,58.3-104,126.1-135.9,201.6c-33.1,78.2-49.9,161.3-49.9,246.9c0,85.6,16.8,168.7,49.9,246.9
				c32,75.5,77.7,143.4,135.9,201.6c58.3,58.3,126.1,104,201.6,135.9c78.2,33.1,161.3,49.9,246.9,49.9c85.6,0,168.7-16.8,246.9-49.9
				c75.5-32,143.4-77.7,201.6-135.9c58.3-58.3,104-126.1,135.9-201.6c33.1-78.2,49.9-161.3,49.9-246.9
				C1556.4,643.7,1539.6,560.7,1506.5,482.4z M592.7,1155.6l-4.8,0.8l-4.9,0.7c-1.6,0.2-3.2,0.5-4.9,0.7c-1.6,0.2-3.2,0.4-4.9,0.6
				c-6.5,0.7-13,1.2-19.6,1.3c12.9-2,25.6-4.7,38.2-7.9c3.2-0.8,6.3-1.6,9.4-2.4c3.1-0.9,6.2-1.7,9.3-2.7l4.6-1.4
				c1.6-0.5,3.1-0.9,4.6-1.4c3.1-1,6.2-1.9,9.2-3c12.2-4.2,24.4-8.6,36.3-13.7c5.9-2.6,11.9-5.1,17.7-7.9l4.4-2
				c1.5-0.7,2.9-1.4,4.3-2.1c2.9-1.5,5.8-2.9,8.6-4.4l8.5-4.5c1.4-0.7,2.8-1.6,4.2-2.4l4.2-2.4l4.2-2.4l4.1-2.5
				c2.7-1.7,5.5-3.3,8.2-5.1c4.5-2.9,9-5.8,13.4-8.8c-3.9,5.8-8,11.7-12.3,17.4c-10,6.4-20.3,12.5-30.9,18
				c-23.4,12.1-47.9,21.9-73.2,28.9C618.4,1150.5,605.6,1153.4,592.7,1155.6z M744.1,807.2c-16.4-2.5-31.8-5.6-46.3-9.4
				c-3.2-0.8-6.4-1.7-9.6-2.6c-1.6-0.4-3.1-0.9-4.7-1.4c-3.1-0.9-6.2-1.9-9.2-2.8c-1.5-0.5-3-1-4.5-1.5c-17.8-6-34.2-12.9-49.1-20.4
				c-1.2-0.6-2.5-1.3-3.7-1.9c-24.5-12.8-45.2-27.3-62.7-42.4c-1.7-1.5-3.5-3-5.1-4.5c-8.4-7.6-16-15.3-22.8-22.9
				c-0.7-0.8-1.4-1.5-2-2.3c-6-6.9-11.5-13.7-16.4-20.4c-1.6-2.2-3.2-4.4-4.7-6.6c-6.7-9.7-12.3-19-16.9-27.5
				c-0.9-1.7-1.8-3.3-2.6-5c-0.5-0.9-0.9-1.8-1.4-2.7c-1.2-2.4-2.3-4.7-3.4-6.9c-0.5-1.1-1-2.1-1.4-3.1c-0.5-1.1-1-2.2-1.4-3.3
				c-0.2-0.4-0.4-0.9-0.6-1.3c-0.5-1.1-0.9-2.1-1.3-3.1c-0.3-0.8-0.7-1.7-1-2.4c-2.3-5.8-3.9-10.4-4.8-13.4c0-0.1-0.1-0.3-0.1-0.4
				c-0.7-2.3-1-3.5-1-3.5l0,0v0c27.9,37.2,116.3,67.4,116.3,67.4c-1.2-1.2-2.4-2.5-3.6-3.7c-0.3-0.3-0.5-0.5-0.7-0.8
				c-1.1-1.2-2.3-2.4-3.4-3.6c-0.2-0.2-0.4-0.4-0.6-0.6c-1-1.1-2-2.2-3-3.3c-0.2-0.2-0.3-0.4-0.5-0.6c-1.1-1.2-2.1-2.4-3.2-3.6
				c-0.2-0.3-0.5-0.5-0.7-0.8c-1-1.2-2.1-2.5-3.1-3.7c-0.1-0.1-0.1-0.2-0.2-0.2c-1-1.2-1.9-2.3-2.8-3.5c-0.2-0.3-0.4-0.5-0.6-0.8
				c-0.9-1.2-1.9-2.4-2.8-3.6c-0.2-0.3-0.4-0.5-0.6-0.8c-0.8-1.1-1.6-2.2-2.4-3.3c-0.1-0.2-0.3-0.4-0.4-0.6
				c-0.9-1.2-1.7-2.4-2.6-3.6c-0.2-0.3-0.4-0.6-0.6-0.9c-0.8-1.2-1.7-2.4-2.5-3.6c-0.1-0.2-0.2-0.3-0.3-0.5
				c-0.7-1.1-1.4-2.2-2.1-3.3c-0.2-0.3-0.4-0.6-0.6-0.9c-0.7-1.2-1.5-2.4-2.2-3.5c-0.2-0.3-0.4-0.6-0.6-0.9
				c-0.6-1.1-1.3-2.1-1.9-3.2c-0.1-0.2-0.2-0.4-0.4-0.6c-0.7-1.2-1.4-2.4-2-3.5c-0.2-0.3-0.4-0.7-0.6-1c-0.6-1.2-1.3-2.3-1.9-3.5
				c-0.1-0.3-0.3-0.5-0.4-0.8c-0.5-1-1.1-2-1.6-3c-0.2-0.3-0.3-0.6-0.5-1c-0.6-1.1-1.1-2.3-1.7-3.4c-0.2-0.4-0.3-0.7-0.5-1.1
				c-0.5-1-1-2-1.4-3c-0.1-0.2-0.2-0.5-0.3-0.7c-0.5-1.1-1-2.2-1.5-3.3c-0.2-0.4-0.3-0.7-0.5-1.1c-0.5-1.1-1-2.2-1.4-3.3
				c-0.1-0.3-0.3-0.6-0.4-1c-0.4-0.9-0.7-1.8-1.1-2.7c-0.1-0.3-0.3-0.7-0.4-1c-0.4-1.1-0.8-2.2-1.2-3.3c-0.1-0.4-0.3-0.8-0.4-1.2
				c-0.4-0.9-0.7-1.9-1-2.8c-0.1-0.4-0.3-0.7-0.4-1.1c-0.3-1-0.7-1.9-1-2.8c-0.1-0.4-0.3-0.8-0.4-1.2c-0.3-1.1-0.7-2.1-1-3.1
				c-0.1-0.4-0.2-0.7-0.3-1.1c-0.3-0.8-0.5-1.7-0.8-2.5c-0.1-0.4-0.2-0.7-0.3-1.1c-0.3-1-0.6-2.1-0.9-3.1c-0.1-0.4-0.2-0.8-0.3-1.2
				c-0.2-0.9-0.5-1.8-0.7-2.7c-0.1-0.4-0.2-0.8-0.3-1.2c-0.2-0.8-0.4-1.7-0.6-2.5c-0.1-0.4-0.2-0.8-0.3-1.2c-0.2-1-0.5-2-0.7-3
				c-0.1-0.4-0.2-0.8-0.3-1.2c-0.2-0.8-0.3-1.5-0.5-2.3c-0.1-0.4-0.1-0.7-0.2-1.1c-0.2-1-0.4-2-0.6-2.9c-0.1-0.4-0.2-0.8-0.2-1.2
				c-0.2-0.9-0.3-1.8-0.5-2.7c-0.1-0.4-0.1-0.8-0.2-1.2c-0.1-0.8-0.3-1.5-0.4-2.3c-0.1-0.4-0.1-0.8-0.2-1.2
				c-0.1-0.9-0.3-1.9-0.4-2.8c-0.1-0.4-0.1-0.8-0.2-1.1c-0.1-0.7-0.2-1.5-0.3-2.2c0-0.3-0.1-0.7-0.1-1c-0.1-0.9-0.2-1.8-0.3-2.7
				c0-0.4-0.1-0.8-0.1-1.1c-0.1-0.9-0.2-1.8-0.3-2.8c0-0.3-0.1-0.6-0.1-0.9c-0.1-0.7-0.1-1.5-0.2-2.2c0-0.3-0.1-0.7-0.1-1
				c-0.1-0.9-0.1-1.8-0.2-2.7c0-0.3,0-0.7-0.1-1c0-0.8-0.1-1.5-0.1-2.3c0-0.3,0-0.5,0-0.8c0-0.9-0.1-1.7-0.1-2.6c0-0.3,0-0.6,0-0.9
				c0-0.9-0.1-1.8-0.1-2.6c0-0.2,0-0.5,0-0.7c0-0.7,0-1.5,0-2.2c0-0.2,0-0.5,0-0.7c0-0.9,0-1.8,0-2.6c0-0.2,0-0.5,0-0.7
				c0-0.8,0-1.7,0-2.5c0-0.1,0-0.2,0-0.3c0-0.9,0-1.7,0-2.6c0-0.2,0-0.4,0-0.6c0-0.9,0-1.7,0.1-2.6c0-0.1,0-0.3,0-0.4
				c0-0.8,0.1-1.6,0.1-2.4c0-0.1,0-0.2,0-0.3c0-0.9,0.1-1.7,0.1-2.6c0-0.1,0-0.3,0-0.4c0.1-1.8,0.2-3.5,0.4-5.1c0-0.1,0-0.2,0-0.2
				c0.1-0.9,0.1-1.7,0.2-2.5c0,0,0,0,0,0c2.1-22.9,6.7-37.1,6.8-37.4c0,0,0,0,0,0c2.4,9.3,5,18.1,7.7,26.2c0,0,0,0.1,0,0.1
				c3.2,9.4,6.5,18,10,26c0.6,1.4,1.2,2.7,1.8,4c0.9,2.1,1.9,4.1,2.9,6.1c0.5,1.1,1.1,2.2,1.6,3.3c1.1,2.2,2.2,4.3,3.3,6.4
				c0.6,1.1,1.2,2.2,1.8,3.2c3.7,6.8,7.5,12.8,11.1,18.2c4.3,6.4,8.5,11.8,12.4,16.3c0.8,0.9,1.6,1.8,2.3,2.7
				c2.2,2.5,4.3,4.7,6.3,6.6c8,7.9,13.2,11.2,13.2,11.2c-58.1-172.1,51.2-248.8,51.2-248.8l0,0l-5.5,12.3
				c-10.1,24.9-28,83.4-1.4,136.5c34.9,69.8,109.3,93,109.3,93s15,48.8,40.4,86.7l0,0l20,24.6c3.7,3.6,7.6,6.9,11.6,9.6
				c0,0-3.1-1.8-8.1-5.3l8.1,9.9c-69.8-32.6-95.3-107-95.3-107c-58.1-11.6-100-62.8-100-62.8c23.3,81.4,88.4,141.8,88.4,141.8
				s-41.9-7-67.4-18.6c0,0,9.3,23.3,55.8,46.5s65.1,37.2,65.1,37.2s-79.1-7-100,4.7c0,0,136.3,27.3,218.1,117.7
				c1,1.1,1.9,2.1,2.8,3.2l0.7-0.1c-0.2-0.7-0.4-1.5-0.7-2.2c-23.3-76.7,8.1-198.8,15.1-247.7c7-48.8-34.9-60.5-34.9-60.5
				c18.6-9.3,48.8,14,48.8,14c-18.6-53.5-67.4-48.8-67.4-48.8c-4.7-14-23.3-14-23.3-14s20.9-27.9,58.1,0l-11.6,7
				c0,0,34.9,9.3,53.5,41.9c0,0,7-7-2.3-16.3h23.3c0,0-9.3-32.6-48.8-34.9c0,0,41.9-30.2,95.3,32.6h-23.3c0,0,27.3,14.7,4.1,139.6h0
				c0,0,0,0,0,0c-0.3,1.4-0.5,2.7-0.8,4.1c-0.1,0.5-0.2,1-0.3,1.6c-0.2,1.2-0.5,2.4-0.7,3.6c-0.2,0.9-0.4,1.8-0.5,2.7
				c-0.2,1-0.4,1.9-0.6,2.9c-0.4,1.9-0.8,3.8-1.2,5.7c0,0.1,0,0.1,0,0.2c-15.1,117.4-5.8,166.3-5.8,166.3h0.1
				c81.4-93,220.9-120.9,220.9-120.9c-20.9-11.6-100-4.7-100-4.7s18.6-14,65.1-37.2c46.5-23.3,55.8-46.5,55.8-46.5
				c-25.6,11.6-67.4,18.6-67.4,18.6s65.1-60.5,88.4-141.8c0,0-41.9,51.2-100,62.8c0,0-25.6,74.4-95.3,107l8.1-9.9
				c-5,3.5-8.1,5.3-8.1,5.3c4-2.7,7.9-6,11.6-9.6l20-24.6l0,0c25.4-37.9,40.4-86.7,40.4-86.7s74.4-23.3,109.3-93
				c26.6-53.1,8.6-111.6-1.4-136.5l-5.5-12.3l0,0c0,0,109.3,76.8,51.2,248.8c0,0,19.1-11.8,39.6-45.1c0.5-0.8,1-1.7,1.5-2.5
				c2.6-4.3,5.2-8.9,7.7-13.9c0.5-1,1-2,1.5-3c0.8-1.5,1.5-3.1,2.3-4.7c0.5-1.1,1.1-2.3,1.6-3.5c2.3-4.9,4.5-10.1,6.7-15.6
				c0.5-1.2,1-2.5,1.4-3.8c4.3-11.4,8.4-24.1,12-38.2l0,0c0,0.1,4.7,14.3,6.8,37.3c0,0,0,0,0,0c0.1,0.8,0.2,1.7,0.2,2.5
				c0,0.1,0,0.2,0,0.3c0.1,1.7,0.3,3.4,0.4,5.1c0,0.1,0,0.3,0,0.4c0,0.8,0.1,1.7,0.1,2.6c0,0.1,0,0.2,0,0.4c0,0.8,0.1,1.6,0.1,2.4
				c0,0.1,0,0.3,0,0.4c0,0.8,0.1,1.7,0.1,2.6c0,0.2,0,0.4,0,0.7c0,0.9,0,1.7,0,2.6c0,0.1,0,0.2,0,0.4c0,0.8,0,1.6,0,2.4
				c0,0.3,0,0.5,0,0.8c0,0.9,0,1.7,0,2.6c0,0.3,0,0.5,0,0.8c0,0.7,0,1.5,0,2.2c0,0.3,0,0.5,0,0.8c0,0.9-0.1,1.7-0.1,2.6
				c0,0.3,0,0.6,0,1c0,0.8-0.1,1.7-0.1,2.5c0,0.3,0,0.6,0,0.9c0,0.7-0.1,1.5-0.1,2.2c0,0.3,0,0.7-0.1,1c-0.1,0.9-0.1,1.8-0.2,2.7
				c0,0.3-0.1,0.7-0.1,1c-0.1,0.7-0.1,1.4-0.2,2.2c0,0.3-0.1,0.6-0.1,0.9c-0.1,0.9-0.2,1.8-0.3,2.7c0,0.4-0.1,0.8-0.1,1.2
				c-0.1,0.9-0.2,1.8-0.3,2.7c0,0.3-0.1,0.7-0.1,1c-0.1,0.7-0.2,1.5-0.3,2.2c-0.1,0.4-0.1,0.8-0.2,1.2c-0.1,0.9-0.3,1.9-0.4,2.8
				c-0.1,0.4-0.1,0.8-0.2,1.2c-0.1,0.7-0.2,1.5-0.4,2.2c-0.1,0.4-0.1,0.8-0.2,1.3c-0.2,0.9-0.3,1.7-0.5,2.6
				c-0.1,0.4-0.2,0.8-0.2,1.3c-0.2,1-0.4,1.9-0.6,2.9c-0.1,0.4-0.2,0.7-0.2,1.1c-0.2,0.8-0.3,1.5-0.5,2.3c-0.1,0.4-0.2,0.8-0.3,1.2
				c-0.2,1-0.4,2-0.7,3c-0.1,0.4-0.2,0.8-0.3,1.2c-0.2,0.8-0.4,1.6-0.6,2.5c-0.1,0.4-0.2,0.9-0.3,1.3c-0.2,0.9-0.5,1.8-0.7,2.7
				c-0.1,0.4-0.2,0.8-0.3,1.2c-0.3,1-0.6,2-0.9,3.1c-0.1,0.4-0.2,0.7-0.3,1.1c-0.2,0.8-0.5,1.6-0.7,2.5c-0.1,0.4-0.2,0.8-0.4,1.1
				c-0.3,1-0.7,2.1-1,3.1c-0.1,0.4-0.3,0.8-0.4,1.2c-0.3,0.9-0.6,1.9-1,2.8c-0.1,0.4-0.3,0.8-0.4,1.1c-0.3,0.9-0.7,1.9-1,2.8
				c-0.1,0.4-0.3,0.8-0.4,1.2c-0.4,1.1-0.8,2.2-1.2,3.2c-0.1,0.4-0.3,0.7-0.4,1.1c-0.4,0.9-0.7,1.8-1.1,2.7c-0.1,0.3-0.3,0.7-0.4,1
				c-0.5,1.1-0.9,2.2-1.4,3.3c-0.2,0.4-0.3,0.8-0.5,1.1c-0.5,1.1-1,2.2-1.5,3.3c-0.1,0.3-0.2,0.5-0.4,0.8c-0.5,1-0.9,2-1.4,3
				c-0.2,0.4-0.3,0.7-0.5,1.1c-0.5,1.1-1.1,2.3-1.7,3.4c-0.2,0.3-0.3,0.7-0.5,1c-0.5,1-1,2-1.5,3c-0.1,0.3-0.3,0.5-0.4,0.8
				c-0.6,1.2-1.3,2.3-1.9,3.5c-0.2,0.3-0.4,0.7-0.6,1c-0.7,1.2-1.3,2.3-2,3.5c-0.1,0.2-0.3,0.4-0.4,0.6c-0.6,1-1.2,2.1-1.9,3.1
				c-0.2,0.3-0.4,0.6-0.6,0.9c-0.7,1.2-1.4,2.3-2.2,3.5c-0.2,0.3-0.4,0.6-0.6,0.9c-0.7,1.1-1.4,2.2-2.1,3.2
				c-0.1,0.2-0.2,0.4-0.4,0.5c-0.8,1.2-1.6,2.4-2.5,3.6c-0.2,0.3-0.4,0.6-0.6,0.9c-0.8,1.2-1.7,2.4-2.6,3.6
				c-0.1,0.2-0.3,0.4-0.4,0.6c-0.8,1.1-1.6,2.2-2.4,3.3c-0.2,0.3-0.4,0.5-0.6,0.8c-0.9,1.2-1.8,2.4-2.8,3.6
				c-0.2,0.3-0.4,0.6-0.7,0.8c-0.9,1.2-1.9,2.3-2.8,3.5c-0.1,0.1-0.1,0.2-0.2,0.3c-1,1.2-2,2.4-3.1,3.7c-0.2,0.3-0.5,0.6-0.7,0.8
				c-1,1.2-2.1,2.4-3.1,3.6c-0.2,0.2-0.3,0.4-0.5,0.6c-1,1.1-2,2.2-3,3.3c-0.2,0.2-0.4,0.4-0.6,0.6c-1.1,1.2-2.2,2.4-3.4,3.6
				c-0.3,0.3-0.5,0.5-0.8,0.8c-1.2,1.2-2.4,2.4-3.6,3.7c0,0,0,0,0,0c0,0,88.4-30.2,116.3-67.4c0,0-0.3,1.1-0.9,3.1
				c-0.1,0.4-0.3,0.8-0.4,1.3c-1.4,4.5-4.1,12.2-8.5,22.2c-0.5,1-1,2.1-1.5,3.2c-1.8,3.8-3.8,7.9-6.1,12.3c-0.7,1.2-1.3,2.5-2,3.8
				c-3.1,5.7-6.7,11.8-10.8,18.2c-1.4,2.1-2.8,4.3-4.3,6.4c-1.5,2.2-3,4.4-4.6,6.6c-1.1,1.5-2.1,3-3.3,4.4c-1.1,1.5-2.3,3-3.4,4.5
				c-0.6,0.8-1.2,1.5-1.8,2.3c-2.4,3-4.9,6.1-7.5,9.1c-1,1.1-1.9,2.2-2.9,3.4c-2.4,2.7-4.9,5.4-7.4,8.1c-1.5,1.5-2.9,3.1-4.5,4.6
				c-2.3,2.3-4.6,4.6-7.1,6.9c-0.8,0.8-1.6,1.5-2.4,2.3c-1.3,1.2-2.5,2.3-3.8,3.5c-4.2,3.7-8.5,7.4-13.1,11.1
				c-1.4,1.2-2.9,2.3-4.4,3.5c-1.9,1.5-3.9,2.9-5.8,4.4c-2,1.5-4,2.9-6,4.3c-5.1,3.6-10.5,7.1-16,10.5c-2.2,1.4-4.5,2.7-6.8,4.1
				c-1.2,0.7-2.3,1.3-3.5,2c-14,8-29.4,15.4-46.3,21.9c-8.4,3.3-17.2,6.4-26.4,9.2c-4.6,1.4-9.3,2.8-14.1,4.1
				c-3.2,0.9-6.4,1.7-9.7,2.5c-13.1,3.2-26.9,5.9-41.4,8.1l20.4-19.2l19.2-18l0,0c0,0,0,0,0,0c0,0-0.1,0-0.2,0
				c-6.3,0.6-146.7,15.6-217.5,195.4l1.4,4.6c-0.5-1.4-1.1-2.7-1.6-4c-0.2,0.6-0.5,1.1-0.7,1.7l0.4-1.4l0.2-0.6c0,0,0,0,0,0
				c0,0,0,0,0-0.1c0,0,0,0,0,0l-0.6,2c0,0-0.9-3.5-2.7-10c0,0,0,0,0,0c-0.5-1.3-1.1-2.5-1.6-3.8c0-0.1-0.1-0.2-0.1-0.3
				c-0.5-1.2-1-2.4-1.6-3.6c-0.1-0.2-0.1-0.3-0.2-0.5c-0.5-1.1-1-2.3-1.5-3.4c-0.1-0.2-0.2-0.4-0.3-0.6c-0.5-1.1-1-2.1-1.5-3.2
				c-0.1-0.2-0.2-0.5-0.3-0.7c-0.5-1-1-2.1-1.5-3.1c-0.1-0.3-0.2-0.5-0.4-0.8c-0.5-1-1-2-1.5-3c-0.1-0.3-0.3-0.5-0.4-0.8
				c-0.5-1-1-1.9-1.5-2.9c-0.1-0.3-0.3-0.6-0.4-0.8c-0.5-0.9-1-1.9-1.5-2.8c-0.1-0.3-0.3-0.6-0.4-0.8c-0.5-0.9-1-1.8-1.5-2.8
				c-0.2-0.3-0.3-0.6-0.5-0.9c-0.5-0.9-1-1.8-1.5-2.7c-0.2-0.3-0.3-0.6-0.5-0.9c-0.5-0.9-1-1.8-1.5-2.6c-0.2-0.3-0.3-0.6-0.5-0.9
				c-0.5-0.9-1-1.7-1.5-2.6c-0.2-0.3-0.3-0.6-0.5-0.9c-0.5-0.8-1-1.7-1.5-2.5c-0.2-0.3-0.3-0.6-0.5-0.9c-0.5-0.8-1-1.7-1.5-2.5
				c-0.2-0.3-0.3-0.6-0.5-0.8c-0.5-0.8-1-1.6-1.5-2.5c-0.2-0.3-0.3-0.5-0.5-0.8c-0.5-0.8-1-1.6-1.5-2.4c-0.2-0.3-0.3-0.5-0.5-0.8
				c-0.5-0.8-1-1.6-1.5-2.4c-0.2-0.3-0.3-0.5-0.5-0.8c-0.5-0.8-1-1.6-1.6-2.3c-0.2-0.3-0.3-0.5-0.5-0.8c-0.5-0.8-1-1.6-1.6-2.3
				c-0.2-0.2-0.3-0.5-0.5-0.7c-0.5-0.8-1.1-1.5-1.6-2.3c-0.2-0.2-0.3-0.5-0.5-0.7c-0.5-0.8-1.1-1.5-1.6-2.3
				c-0.2-0.2-0.3-0.5-0.5-0.7c-0.5-0.8-1.1-1.5-1.6-2.2c-0.2-0.2-0.3-0.4-0.5-0.6c-0.6-0.7-1.1-1.5-1.7-2.2
				c-0.2-0.2-0.3-0.4-0.5-0.6c-0.6-0.7-1.1-1.5-1.7-2.2c-0.1-0.2-0.3-0.4-0.4-0.6c-0.6-0.7-1.1-1.5-1.7-2.2
				c-0.1-0.2-0.3-0.3-0.4-0.5c-0.6-0.7-1.2-1.5-1.8-2.2c-0.1-0.2-0.3-0.3-0.4-0.5c-0.6-0.7-1.2-1.5-1.8-2.2
				c-0.1-0.1-0.2-0.3-0.3-0.4c-0.6-0.7-1.2-1.5-1.9-2.2c-0.1-0.1-0.2-0.2-0.3-0.3c-0.6-0.8-1.3-1.5-1.9-2.3
				c-0.1-0.1-0.1-0.2-0.2-0.2c-0.7-0.8-1.3-1.5-2-2.3c0,0-0.1-0.1-0.1-0.1c-0.7-0.8-1.4-1.6-2.1-2.3c0,0,0,0,0,0
				c-12.4-13.8-25.1-25.4-37.7-35.1c0,0,0,0,0,0c-0.7-0.5-1.4-1.1-2.1-1.6c0,0-0.1-0.1-0.1-0.1c-0.7-0.5-1.4-1-2-1.5
				c-0.1,0-0.1-0.1-0.2-0.1c-0.7-0.5-1.3-1-2-1.5c-0.1-0.1-0.2-0.1-0.2-0.2c-0.6-0.5-1.3-0.9-1.9-1.4c-0.1-0.1-0.2-0.1-0.3-0.2
				c-0.6-0.5-1.3-0.9-1.9-1.3c-0.1-0.1-0.2-0.1-0.3-0.2c-0.6-0.4-1.2-0.9-1.9-1.3c-0.1-0.1-0.2-0.2-0.3-0.2
				c-0.6-0.4-1.2-0.8-1.8-1.2c-0.1-0.1-0.2-0.2-0.4-0.3c-0.6-0.4-1.2-0.8-1.8-1.2c-0.1-0.1-0.3-0.2-0.4-0.3
				c-0.6-0.4-1.2-0.8-1.8-1.1c-0.1-0.1-0.3-0.2-0.4-0.3c-0.6-0.4-1.2-0.7-1.7-1.1c-0.1-0.1-0.3-0.2-0.4-0.3
				c-0.6-0.4-1.2-0.7-1.7-1.1c-0.1-0.1-0.3-0.2-0.4-0.3c-0.6-0.4-1.2-0.7-1.7-1.1c-0.1-0.1-0.3-0.2-0.4-0.2c-0.6-0.3-1.1-0.7-1.7-1
				c-0.1-0.1-0.3-0.2-0.4-0.2c-0.6-0.3-1.1-0.7-1.7-1c-0.1-0.1-0.3-0.2-0.4-0.2c-0.6-0.3-1.1-0.6-1.7-1c-0.1-0.1-0.3-0.2-0.4-0.2
				c-0.6-0.3-1.1-0.6-1.7-0.9c-0.1-0.1-0.3-0.2-0.4-0.2c-0.6-0.3-1.1-0.6-1.7-0.9c-0.1-0.1-0.3-0.1-0.4-0.2
				c-0.6-0.3-1.1-0.6-1.7-0.9c-0.1-0.1-0.3-0.1-0.4-0.2c-0.6-0.3-1.1-0.6-1.7-0.9c-0.1-0.1-0.3-0.1-0.4-0.2
				c-0.6-0.3-1.1-0.6-1.7-0.9c-0.1-0.1-0.2-0.1-0.4-0.2c-0.6-0.3-1.1-0.6-1.7-0.8c-0.1-0.1-0.2-0.1-0.3-0.2
				c-0.6-0.3-1.1-0.6-1.7-0.8c-0.1,0-0.2-0.1-0.3-0.1c-0.6-0.3-1.1-0.5-1.7-0.8c-0.1,0-0.2-0.1-0.3-0.1c-0.6-0.3-1.1-0.5-1.7-0.8
				c-0.1,0-0.2-0.1-0.3-0.1c-0.6-0.3-1.1-0.5-1.7-0.8c-0.1,0-0.1-0.1-0.2-0.1c-0.6-0.3-1.2-0.5-1.7-0.8c0,0-0.1,0-0.1-0.1
				c-0.6-0.3-1.2-0.5-1.8-0.8c0,0-0.1,0-0.1,0c-9.4-4.1-18-7.2-25.6-9.5c0,0,0,0-0.1,0c-0.5-0.1-0.9-0.3-1.4-0.4c-0.1,0-0.1,0-0.2,0
				c-0.4-0.1-0.9-0.3-1.3-0.4c-0.1,0-0.1,0-0.2-0.1c-0.4-0.1-0.8-0.2-1.2-0.4c-0.1,0-0.2,0-0.2-0.1c-0.4-0.1-0.8-0.2-1.1-0.3
				c-0.1,0-0.2-0.1-0.3-0.1c-0.4-0.1-0.7-0.2-1.1-0.3c-0.1,0-0.2-0.1-0.3-0.1c-0.3-0.1-0.7-0.2-1-0.3c-0.1,0-0.2-0.1-0.4-0.1
				c-0.3-0.1-0.7-0.2-1-0.3c-0.1,0-0.2-0.1-0.4-0.1c-0.3-0.1-0.6-0.2-0.9-0.2c-0.1,0-0.2-0.1-0.4-0.1c-0.3-0.1-0.6-0.1-0.9-0.2
				c-0.1,0-0.3-0.1-0.4-0.1c-0.3-0.1-0.6-0.1-0.8-0.2c-0.1,0-0.3-0.1-0.4-0.1c-0.3-0.1-0.5-0.1-0.8-0.2c-0.1,0-0.3-0.1-0.4-0.1
				c-0.3-0.1-0.5-0.1-0.8-0.2c-0.1,0-0.3-0.1-0.4-0.1c-0.2-0.1-0.5-0.1-0.7-0.2c-0.1,0-0.3-0.1-0.4-0.1c-0.2-0.1-0.5-0.1-0.7-0.1
				c-0.1,0-0.3-0.1-0.4-0.1c-0.2,0-0.4-0.1-0.7-0.1c-0.1,0-0.3-0.1-0.4-0.1c-0.2,0-0.4-0.1-0.6-0.1c-0.1,0-0.3-0.1-0.4-0.1
				c-0.2,0-0.4-0.1-0.6-0.1c-0.1,0-0.3,0-0.4-0.1c-0.2,0-0.4-0.1-0.6-0.1c-0.1,0-0.2,0-0.4-0.1c-0.2,0-0.4-0.1-0.5-0.1
				c-0.1,0-0.2,0-0.4-0.1c-0.2,0-0.3-0.1-0.5-0.1c-0.1,0-0.2,0-0.4-0.1c-0.2,0-0.3-0.1-0.5-0.1c-0.1,0-0.2,0-0.3-0.1
				c-0.1,0-0.3,0-0.4-0.1c-0.1,0-0.2,0-0.3-0.1c-0.1,0-0.3,0-0.4-0.1c-0.1,0-0.2,0-0.3,0c-0.1,0-0.3,0-0.4-0.1c-0.1,0-0.2,0-0.3,0
				c-0.1,0-0.2,0-0.4-0.1c-0.1,0-0.2,0-0.3,0c-0.1,0-0.2,0-0.3,0c-0.1,0-0.2,0-0.3,0c-0.1,0-0.2,0-0.3,0c-0.1,0-0.2,0-0.3,0
				c-0.1,0-0.2,0-0.3,0c-0.1,0-0.2,0-0.3,0c-0.1,0-0.1,0-0.2,0c-0.1,0-0.2,0-0.3,0c0,0-0.1,0-0.1,0c-0.1,0-0.2,0-0.2,0
				c0,0-0.1,0-0.1,0c-0.1,0-0.2,0-0.3,0c0,0,0,0,0,0c-0.1,0-0.2,0-0.3,0h0c-0.1,0-0.1,0-0.2,0c0,0,0,0-0.1,0c-0.1,0-0.1,0-0.1,0
				c0,0,0,0,0,0c-0.2,0-0.2,0-0.2,0L744.1,807.2z M894.5,484.7c14-4.7,32.6,11.6,32.6,11.6h-16.3C903.8,487,894.5,484.7,894.5,484.7
				z M1124.8,1154.6c8.5,4.9,17.2,9.5,26.1,13.8c8.9,4.3,18,8.2,27.3,11.6c-9.8-1.7-19.4-4.6-28.9-7.9c-9.4-3.4-18.6-7.4-27.6-11.8
				c-14.1-7-27.7-15.3-40.4-24.6c6.2,0.9,11.8,1.6,16.9,2.2C1106.8,1143.8,1115.7,1149.4,1124.8,1154.6z M953.4,1021.1
				c6.1,6.1,17.2,24.2,23.5,43.1l-27-33.2C949.4,1022.5,950.7,1018.5,953.4,1021.1z M991.5,1146.5c-0.9-1.4-1.6-2.8-2.4-4.2
				l-2.3-4.2c-3.1-5.6-5.8-11.4-8.6-17.1l-1-2.2l-0.9-2.2l-1.9-4.4c-1.2-2.9-2.5-5.9-3.6-8.8c-2.2-6-4.4-12-6.3-18
				c-0.9-3.1-1.8-6.1-2.6-9.2l-1.2-4.6c-0.4-1.5-0.8-3.1-1.1-4.6c0.8,1.4,1.5,2.8,2.3,4.2l2.2,4.2c1.5,2.8,2.9,5.7,4.3,8.5
				c2.9,5.6,5.7,11.3,8.5,16.9c1.8,3.5,3.6,6.9,5.3,10.4c2.5,17.8,9.3,34,10.7,37.2C992.3,1147.8,991.9,1147.1,991.5,1146.5z
				 M988.3,1012.8c-11.8-23.6-19.5-55-9.3-91.6c0,0,4.2,35.3,24.8,89.5l-17-18.6L988.3,1012.8z M894.1,1033.9l-28.5,37.6
				c5.8-20.6,18.3-41.4,24.9-48C893.3,1020.7,894.6,1024.9,894.1,1033.9z M862.1,1113.1c2.1-4.1,4.1-8.3,6.3-12.3
				c2.7-5.7,5.6-11.3,8.5-16.9c1.4-2.8,2.8-5.7,4.3-8.5l2.2-4.2c0.8-1.4,1.5-2.8,2.3-4.2c-0.4,1.6-0.8,3.1-1.1,4.6l-1.2,4.6
				c-0.8,3.1-1.7,6.1-2.6,9.2c-2,6.1-4.1,12-6.3,18c-1.2,3-2.4,5.9-3.6,8.8l-1.9,4.4l-0.9,2.2l-1,2.2c-2.8,5.7-5.5,11.5-8.6,17.1
				l-2.3,4.2c-0.8,1.4-1.5,2.8-2.4,4.2c-0.4,0.7-0.9,1.4-1.3,2.1C854.6,1142.8,860,1128.5,862.1,1113.1z M858.2,1009.9v-26.9
				l-12.2,14.1c15.6-45.1,19.1-73.6,19.1-73.6C874.4,957.5,868.5,986.9,858.2,1009.9z M720.2,1154.6c7.7-4.5,15.3-9.2,22.7-14.1
				c5.1-0.5,10.7-1.2,17-2.1c-11.7,8.2-23.9,15.5-36.6,21.9c-9,4.5-18.2,8.4-27.6,11.8c-9.4,3.3-19,6.3-28.9,7.9
				c9.4-3.4,18.4-7.4,27.3-11.6C703,1164.1,711.7,1159.6,720.2,1154.6z M746.8,1197.5c-1.3,1-2.7,1.9-4.1,2.9
				c-1.4,1-2.7,1.9-4.1,2.8c-11.1,7.4-22.8,14-34.8,19.7c-6,2.9-12.1,5.5-18.4,7.9c-3.1,1.2-6.2,2.3-9.4,3.4c-3.2,1-6.4,2-9.6,2.8
				c5.8-3.3,11.6-6.5,17.3-9.8c5.7-3.3,11.4-6.6,17.1-10c11.3-6.7,22.4-13.7,33.3-20.9c1.4-0.9,2.7-1.8,4.1-2.7
				c1.4-0.9,2.7-1.8,4.1-2.8l4-2.8l4-2.8c1.3-0.9,2.7-1.9,4-2.9l4-2.9c2.6-2,5.3-3.9,7.9-5.9c10.5-7.9,20.5-16.4,30.6-25.1
				c-7.6,11-16.6,21-26.5,30c-4.9,4.6-10.1,8.8-15.3,12.9C752.3,1193.5,749.5,1195.5,746.8,1197.5z M833.6,1246.6l-2.6,3.2l-5.2,6.4
				l-5.4,6.2l-2.7,3.1l-2.8,3l-5.6,6c-1.9,1.9-3.9,3.9-5.8,5.8l-2.9,2.9l-3,2.8c-2,1.8-4,3.7-6.1,5.5c1.7-2.1,3.5-4.3,5.2-6.4
				l2.6-3.1l2.5-3.2c1.7-2.2,3.4-4.3,5.1-6.4l5-6.5l2.5-3.2l2.4-3.3l4.9-6.6c3.1-4.5,6.4-8.8,9.4-13.3c2.1-3,4.2-6.1,6.2-9.1
				c4.9-2.9,10-6.1,15.4-9.6c-5.2,7.7-10.7,15.2-16.4,22.5L833.6,1246.6z M1047.6,1286l-3-2.8l-2.9-2.9c-2-1.9-3.9-3.9-5.8-5.8
				l-5.6-6l-2.8-3l-2.7-3.1l-5.4-6.2l-5.2-6.4l-2.6-3.2l-2.5-3.3c-6.4-8.3-12.6-16.8-18.4-25.5c5.4,3.5,10.5,6.8,15.5,9.7
				c2.7,4,5.4,8,8.1,12c3,4.5,6.3,8.9,9.4,13.3l4.9,6.6l2.4,3.3l2.5,3.2l5,6.5c1.7,2.1,3.4,4.2,5.1,6.4l2.5,3.2l2.6,3.1
				c1.7,2.1,3.5,4.2,5.2,6.4C1051.6,1289.7,1049.6,1287.8,1047.6,1286z M1169,1234.2c-3.2-1-6.3-2.2-9.4-3.4
				c-6.2-2.4-12.3-5.1-18.4-7.9c-12-5.8-23.7-12.3-34.8-19.7c-1.4-0.9-2.8-1.9-4.1-2.8c-1.4-1-2.8-1.9-4.1-2.9c-2.7-2-5.4-3.9-8-6
				c-5.3-4.1-10.4-8.4-15.3-12.9c-9.9-9-18.9-19-26.5-30c10.1,8.7,20.1,17.2,30.6,25.1c2.6,2,5.2,3.9,7.9,5.9l4,2.9
				c1.3,1,2.6,1.9,4,2.9l4,2.8l4,2.8c1.3,0.9,2.7,1.8,4.1,2.8c1.4,0.9,2.7,1.8,4.1,2.7c10.9,7.3,22,14.2,33.3,20.9
				c5.6,3.4,11.3,6.7,17.1,10c5.7,3.3,11.5,6.6,17.3,9.8C1175.4,1236.2,1172.2,1235.2,1169,1234.2z M1271.8,1158.3
				c-1.6-0.2-3.3-0.4-4.9-0.6c-1.6-0.2-3.2-0.4-4.9-0.7l-4.9-0.7l-4.8-0.8c-12.9-2.2-25.7-5.1-38.3-8.7
				c-25.3-7.1-49.8-16.9-73.2-28.9c-10.1-5.2-19.9-11-29.4-17.1c-4.5-5.8-8.7-11.7-12.7-17.6c4.1,2.8,8.3,5.5,12.4,8.2
				c2.7,1.7,5.5,3.4,8.2,5.1l4.1,2.5l4.2,2.4l4.2,2.4c1.4,0.8,2.8,1.6,4.2,2.4l8.5,4.5c2.8,1.5,5.8,2.9,8.6,4.4
				c1.4,0.7,2.9,1.5,4.3,2.1l4.4,2c5.8,2.8,11.8,5.3,17.7,7.9c11.9,5.1,24,9.5,36.3,13.7c3.1,1.1,6.2,2,9.2,3c1.5,0.5,3.1,1,4.6,1.4
				l4.6,1.4c3.1,0.9,6.2,1.8,9.3,2.7c3.1,0.8,6.3,1.7,9.4,2.4c12.6,3.2,25.3,5.9,38.2,7.9C1284.8,1159.5,1278.3,1159,1271.8,1158.3z
				 M1476.3,963.5c-20.6,48.7-47.2,94-79.6,135.4c-8.9,1-218.6,24.5-294.8-52.5c-28.3-28.6-48.3-60.6-62.4-89.8
				c-8.6-28.3-11.8-47.1-11.8-47.1c41.9-46.5,120.9-62.8,120.9-62.8c327.9-83.7,281.4-360.4,281.4-360.4
				c-25.6,44.2-58.1,58.1-58.1,58.1c20.9-146.5-55.8-213.9-55.8-213.9c2.3,23.3-9.3,65.1-9.3,65.1
				c-58.1-146.5-195.3-162.8-195.3-162.8s76.7,32.6,76.7,151.1S1065,521.2,1065,521.2c0,49.7-28.2,77.4-45.2,81
				c0,0-16.5-1.9-16.5-32.1c0,0,2.3-19.8,0-29.1c-2.3-9.3,7-4.7,7-4.7l8.1,10.5c-11.6-125.6-137.2-88.4-137.2-88.4
				c-69.8-25.6-93,32.6-93,32.6c23.3-9.3,41.9,14,41.9,14c23.3,0,32.6,7,32.6,7c-23.3-2.3-46.5,20.9-46.5,20.9s47.7,3.5,47.7,36
				c0,32.6-37.2,34.9-37.2,34.9l-2.5,0.8c-17-3.6-45.2-31.2-45.2-81c0,0-123.2-18.6-123.2-137.2c0-118.6,76.7-151.1,76.7-151.1
				s-137.2,16.3-195.3,162.8c0,0-11.6-41.9-9.3-65.1c0,0-76.7,67.4-55.8,213.9c0,0-32.6-14-58.1-58.1c0,0-46.5,276.7,281.4,360.4
				c0,0,79.1,16.3,120.9,62.8c0,0-3.1,18.6-11.6,46.6c-14,28.7-33.9,60.1-61.6,88.1c-77.9,78.7-295.1,52.5-295.1,52.5
				s0.5,0.9,1.4,2.7c-33.3-42.1-60.6-88.3-81.7-138.1c-31.4-74.2-47.3-152.9-47.3-234.2c0-81.2,15.9-160,47.3-234.2
				c30.3-71.6,73.7-136,128.9-191.2c55.3-55.3,119.6-98.6,191.2-128.9c74.2-31.4,152.9-47.3,234.2-47.3s160,15.9,234.2,47.3
				c71.6,30.3,136,73.7,191.2,128.9c55.3,55.3,98.6,119.6,128.9,191.2c31.4,74.2,47.3,152.9,47.3,234.2
				C1523.6,810.6,1507.7,889.4,1476.3,963.5z"/>
		</defs>
		<clipPath id="SVGID_2_">
			<use xlink:href="#SVGID_1_"  style="overflow:visible;"/>
		</clipPath>
		<g style="clip-path:url(#SVGID_2_);">
			
				<image style="overflow:visible;" width="2272" height="1704" xlink:href="../../../text/5.jpg"  transform="matrix(0.7504 0 0 0.7504 0 89.9981)">
			</image>
		</g>
	</g>
</g>
</svg>
