<svg id="Layer_1" data-name="Layer 1" xmlns="http://www.w3.org/2000/svg" viewBox="0 0 116.79 112.01"><defs><style>.cls-1{fill:#555d65;}</style></defs><title>1</title><path class="cls-1" d="M116.78,34.37h0s0,0,0-.05,0,0,0,0,0-.05,0-.08v-.09l0-.08s0-.05,0-.08v0h0l0-.07,0-.07,0,0,0,0,0,0L104,20.24a.88.88,0,0,0-.23-.17L66,.09h0l-.08,0L65.68,0h-.33L11.51,13.48h-.05l-.1,0h0l-.08,0,0,0,0,0-.08.08,0,0,0,0,0,0h0a.86.86,0,0,0-.09.19L0,44.86H0s0,0,0,0a.87.87,0,0,0,0,.16s0,0,0,0,0,.05,0,.08a.87.87,0,0,0,0,.11v.06l0,.07,0,.08,0,.07,0,.07,0,0,0,0v0l55.57,66h0l.13.13,0,0,.12.07.06,0,.12,0h.19a.87.87,0,0,0,.59-.23L101.31,71a.85.85,0,0,0,.12-.14l0-.06.05-.1h0v0l6.94-16h0l8.25-20h0s0-.05,0-.08l0-.09s0,0,0-.06ZM97.51,72.11l-40.8,37.6L41.44,78.34,80.9,41.85l25.51,12.76L100,69.82ZM91.27,26.57,112.55,34,81.34,39.81,75.18,20.93ZM73.16,20.35l6.2,19L17.73,15.7ZM17,13.89l48-12,7.36,16.66ZM78.39,41.8,40.35,77,3.11,45.9Zm5.06-.62,31-5.75L107.09,53ZM12.24,15.45l64.4,24.71-47.86,2.6L2.12,44.21,5.5,34.59ZM39.68,78.69l12.92,26.54L7.9,52.16Zm73.2-46.39L74.45,18.84l-7.09-16L102.8,21.53Z"/></svg>