<!-- Generated by IcoMoon.io -->
<svg version="1.1" xmlns="http://www.w3.org/2000/svg" width="33" height="32" viewBox="0 0 33 32">
<title>menu-1</title>
<path fill="#0e5189" d="M16.12 32h-0.052c-0.234-0.015-0.439-0.124-0.58-0.291l-15.295-18.164c-0.12-0.143-0.193-0.328-0.193-0.531 0-0.099 0.017-0.194 0.049-0.281l-0.002 0.006 2.982-8.482c0.094-0.26 0.307-0.457 0.572-0.525l0.006-0.001 14.82-3.706c0.060-0.016 0.129-0.025 0.2-0.025 0.141 0 0.275 0.036 0.391 0.098l-0.004-0.002 10.393 5.506c0.084 0.045 0.156 0.1 0.217 0.165l0 0 3.463 3.703c0.138 0.147 0.222 0.346 0.222 0.564 0 0.117-0.024 0.227-0.068 0.328l0.002-0.005-4.182 9.911c-0.049 0.108-0.117 0.2-0.2 0.275l-0.001 0.001-12.183 11.236c-0.146 0.136-0.343 0.22-0.559 0.22h-0zM1.762 12.841l14.432 17.138 11.42-10.523 3.904-9.27-3.004-3.199-9.994-5.283-14.077 3.527z"></path>
</svg>
