<?xml version="1.0" encoding="utf-8"?>
<!-- Generator: Adobe Illustrator 16.0.0, SVG Export Plug-In . SVG Version: 6.00 Build 0)  -->
<!DOCTYPE svg PUBLIC "-//W3C//DTD SVG 1.1//EN" "http://www.w3.org/Graphics/SVG/1.1/DTD/svg11.dtd">
<svg version="1.1" id="Layer_2" xmlns="http://www.w3.org/2000/svg" xmlns:xlink="http://www.w3.org/1999/xlink" x="0px" y="0px"
	 width="1200.24px" height="921.423px" viewBox="0 0 1200.24 921.423" enable-background="new 0 0 1200.24 921.423"
	 xml:space="preserve">
<g>
	<line opacity="0.25" fill="none" stroke="#B4A79A" stroke-miterlimit="10" x1="0.186" y1="554.932" x2="65.74" y2="482.095"/>
	<line opacity="0.25" fill="none" stroke="#B4A79A" stroke-miterlimit="10" x1="65.74" y1="482.095" x2="65.74" y2="332.301"/>
	<line opacity="0.25" fill="none" stroke="#B4A79A" stroke-miterlimit="10" x1="65.74" y1="482.095" x2="607.08" y2="769.714"/>
	<line opacity="0.25" fill="none" stroke="#B4A79A" stroke-miterlimit="10" x1="0.186" y1="512.918" x2="716.078" y2="921.198"/>
	<line opacity="0.25" fill="none" stroke="#B4A79A" stroke-miterlimit="10" x1="0.186" y1="579.904" x2="179.16" y2="638.176"/>
	<line opacity="0.25" fill="none" stroke="#B4A79A" stroke-miterlimit="10" x1="0.186" y1="609.042" x2="495.482" y2="921.198"/>
	<line opacity="0.25" fill="none" stroke="#B4A79A" stroke-miterlimit="10" x1="0.186" y1="680.836" x2="432.01" y2="921.198"/>
	<line opacity="0.25" fill="none" stroke="#B4A79A" stroke-miterlimit="10" x1="65.74" y1="601.247" x2="65.74" y2="717.326"/>
	<line opacity="0.25" fill="none" stroke="#B4A79A" stroke-miterlimit="10" x1="75.867" y1="722.963" x2="127.132" y2="474.809"/>
	<line opacity="0.25" fill="none" stroke="#B4A79A" stroke-miterlimit="10" x1="0.186" y1="429.661" x2="240.551" y2="513.311"/>
	<line opacity="0.25" fill="none" stroke="#B4A79A" stroke-miterlimit="10" x1="0.186" y1="348.904" x2="1182.236" y2="921.198"/>
	<line opacity="0.25" fill="none" stroke="#B4A79A" stroke-miterlimit="10" x1="240.551" y1="465.279" x2="151.157" y2="704.19"/>
	<line opacity="0.25" fill="none" stroke="#B4A79A" stroke-miterlimit="10" x1="89.672" y1="730.647" x2="372.699" y2="447.757"/>
	<line opacity="0.25" fill="none" stroke="#B4A79A" stroke-miterlimit="10" x1="372.699" y1="447.757" x2="372.699" y2="152.243"/>
	<line opacity="0.25" fill="none" stroke="#B4A79A" stroke-miterlimit="10" x1="372.699" y1="447.757" x2="1177.555" y2="831.195"/>
	<line opacity="0.25" fill="none" stroke="#B4A79A" stroke-miterlimit="10" x1="75.867" y1="456" x2="131.294" y2="152.243"/>
	<line opacity="0.25" fill="none" stroke="#B4A79A" stroke-miterlimit="10" x1="85.785" y1="459.45" x2="358.132" y2="156.406"/>
	<line opacity="0.25" fill="none" stroke="#B4A79A" stroke-miterlimit="10" x1="0.186" y1="320.29" x2="181.066" y2="353.43"/>
	<line opacity="0.25" fill="none" stroke="#B4A79A" stroke-miterlimit="10" x1="0.186" y1="251.093" x2="372.699" y2="413.937"/>
	<line opacity="0.25" fill="none" stroke="#B4A79A" stroke-miterlimit="10" x1="151.157" y1="421.997" x2="247.835" y2="152.243"/>
	<line opacity="0.25" fill="none" stroke="#B4A79A" stroke-miterlimit="10" x1="240.551" y1="760.532" x2="240.551" y2="156.406"/>
	<line opacity="0.25" fill="none" stroke="#B4A79A" stroke-miterlimit="10" x1="271.507" y1="591.422" x2="321.453" y2="156.406"/>
	<line opacity="0.25" fill="none" stroke="#B4A79A" stroke-miterlimit="10" x1="240.551" y1="549.469" x2="524.357" y2="627.771"/>
	<line opacity="0.25" fill="none" stroke="#B4A79A" stroke-miterlimit="10" x1="314.405" y1="569.845" x2="285.334" y2="788.755"/>
	<line opacity="0.25" fill="none" stroke="#B4A79A" stroke-miterlimit="10" x1="240.551" y1="671.992" x2="354.387" y2="714.924"/>
	<line opacity="0.25" fill="none" stroke="#B4A79A" stroke-miterlimit="10" x1="388.398" y1="734.321" x2="456.462" y2="437.09"/>
	<line opacity="0.25" fill="none" stroke="#B4A79A" stroke-miterlimit="10" x1="240.551" y1="372.804" x2="607.08" y2="480.04"/>
	<line opacity="0.25" fill="none" stroke="#B4A79A" stroke-miterlimit="10" x1="0.186" y1="185.021" x2="1182.236" y2="654.823"/>
	<line opacity="0.25" fill="none" stroke="#B4A79A" stroke-miterlimit="10" x1="388.398" y1="416.059" x2="436.171" y2="152.243"/>
	<line opacity="0.25" fill="none" stroke="#B4A79A" stroke-miterlimit="10" x1="397.8" y1="418.812" x2="706.972" y2="128.831"/>
	<line opacity="0.25" fill="none" stroke="#B4A79A" stroke-miterlimit="10" x1="412.283" y1="283.089" x2="529.759" y2="295.042"/>
	<line opacity="0.25" fill="none" stroke="#B4A79A" stroke-miterlimit="10" x1="221.958" y1="156.406" x2="794.378" y2="363.732"/>
	<line opacity="0.25" fill="none" stroke="#B4A79A" stroke-miterlimit="10" x1="794.378" y1="363.732" x2="607.08" y2="320.29"/>
	<line opacity="0.25" fill="none" stroke="#B4A79A" stroke-miterlimit="10" x1="607.08" y1="146.78" x2="607.08" y2="859.037"/>
	<line opacity="0.25" fill="none" stroke="#B4A79A" stroke-miterlimit="10" x1="607.567" y1="426.42" x2="490.458" y2="707.751"/>
	<line opacity="0.25" fill="none" stroke="#B4A79A" stroke-miterlimit="10" x1="397.8" y1="739.684" x2="1135.412" y2="109.321"/>
	<line opacity="0.25" fill="none" stroke="#B4A79A" stroke-miterlimit="10" x1="490.458" y1="379.876" x2="586.009" y2="128.831"/>
	<line opacity="0.25" fill="none" stroke="#B4A79A" stroke-miterlimit="10" x1="465.827" y1="156.406" x2="1182.236" y2="394.168"/>
	<line opacity="0.25" fill="none" stroke="#B4A79A" stroke-miterlimit="10" x1="655.035" y1="886.385" x2="700.729" y2="604.033"/>
	<line opacity="0.25" fill="none" stroke="#B4A79A" stroke-miterlimit="10" x1="607.08" y1="671.992" x2="741.368" y2="707.751"/>
	<line opacity="0.25" fill="none" stroke="#B4A79A" stroke-miterlimit="10" x1="796.246" y1="734.321" x2="794.378" y2="567.086"/>
	<line opacity="0.25" fill="none" stroke="#B4A79A" stroke-miterlimit="10" x1="607.08" y1="526.057" x2="1182.236" y2="654.823"/>
	<line opacity="0.25" fill="none" stroke="#B4A79A" stroke-miterlimit="10" x1="644.991" y1="577.478" x2="700.729" y2="234.366"/>
	<line opacity="0.25" fill="none" stroke="#B4A79A" stroke-miterlimit="10" x1="814.885" y1="743.345" x2="912.219" y2="389.485"/>
	<line opacity="0.25" fill="none" stroke="#B4A79A" stroke-miterlimit="10" x1="791.144" y1="403.533" x2="1189.261" y2="542.445"/>
	<line opacity="0.25" fill="none" stroke="#B4A79A" stroke-miterlimit="10" x1="791.144" y1="403.533" x2="794.378" y2="18.794"/>
	<line opacity="0.25" fill="none" stroke="#B4A79A" stroke-miterlimit="10" x1="794.378" y1="363.732" x2="1200.187" y2="452.698"/>
	<line opacity="0.25" fill="none" stroke="#B4A79A" stroke-miterlimit="10" x1="814.885" y1="368.229" x2="912.219" y2="0.064"/>
	<line opacity="0.25" fill="none" stroke="#B4A79A" stroke-miterlimit="10" x1="566.355" y1="180.469" x2="1182.236" y2="234.366"/>
	<line opacity="0.25" fill="none" stroke="#B4A79A" stroke-miterlimit="10" x1="954.147" y1="318.468" x2="1098.733" y2="18.794"/>
	<line opacity="0.25" fill="none" stroke="#B4A79A" stroke-miterlimit="10" x1="636.735" y1="97.615" x2="1166.595" y2="232.997"/>
</g>
</svg>
