<svg id="Layer_1" data-name="Layer 1" xmlns="http://www.w3.org/2000/svg" viewBox="0 0 35.19 35.19"><title>1</title><path fill="#d04929" d="M35.18,12.07a1,1,0,0,0-.27-.71L24.34.33v0h0A1,1,0,0,0,24,.1l-.09,0A1,1,0,0,0,23.66,0H5.33A5.33,5.33,0,0,0,0,5.33V29.86a5.33,5.33,0,0,0,5.33,5.33H29.86a5.33,5.33,0,0,0,5.33-5.33V12.12S35.18,12.09,35.18,12.07ZM24.6,3.5l7.19,7.56H26.33A1.73,1.73,0,0,1,24.6,9.33Zm5.26,29.69H5.33A3.33,3.33,0,0,1,2,29.86V5.33A3.33,3.33,0,0,1,5.33,2H22.6V9.33a3.73,3.73,0,0,0,3.73,3.73h6.86v16.8A3.33,3.33,0,0,1,29.86,33.19Z"/><path fill="#d04929" d="M9.28,16.3a9.79,9.79,0,0,1,1.62-.11,2.54,2.54,0,0,1,1.62.42,1.55,1.55,0,0,1,.57,1.23,1.69,1.69,0,0,1-.49,1.26,2.46,2.46,0,0,1-1.72.56l-.41,0v1.89H9.28Zm1.19,2.4a1.81,1.81,0,0,0,.4,0c.64,0,1-.32,1-.86s-.34-.78-.94-.78a2,2,0,0,0-.5,0Z"/><path fill="#d04929" d="M15.43,16.3a10.68,10.68,0,0,1,1.62-.11,3.41,3.41,0,0,1,2.17.57,2.34,2.34,0,0,1,.9,2,2.69,2.69,0,0,1-.88,2.15,3.8,3.8,0,0,1-2.44.68,10.41,10.41,0,0,1-1.36-.08Zm1.2,4.32a2.17,2.17,0,0,0,.42,0,1.64,1.64,0,0,0,1.79-1.85,1.52,1.52,0,0,0-1.67-1.68,2.49,2.49,0,0,0-.54,0Z"/><path fill="#d04929" d="M22.48,16.23h3.24v1h-2v1.21h1.9v1h-1.9v2.13h-1.2Z"/></svg>