<svg id="Layer_1" data-name="Layer 1" xmlns="http://www.w3.org/2000/svg" xmlns:xlink="http://www.w3.org/1999/xlink" viewBox="0 0 128.46 209.02"><defs><style>.cls-1{fill:url(#linear-gradient);}.cls-2{fill:url(#linear-gradient-2);}</style><linearGradient id="linear-gradient" y1="104.51" x2="128.46" y2="104.51" gradientUnits="userSpaceOnUse"><stop offset="0" stop-color="#3b67cc"/><stop offset="0.86" stop-color="#3b67cc"/><stop offset="1" stop-color="#3b67cc"/></linearGradient><linearGradient id="linear-gradient-2" x1="44.43" y1="76.17" x2="84.03" y2="76.17" xlink:href="#linear-gradient"/></defs><title>1</title><path class="cls-1" d="M100.73,101.36V59L64.23,0,27.73,59v42.4L0,141.69,12.24,209,44,154.1H84.42L116.22,209l12.24-67.33Zm11.51,84.82L89,146.1H39.42l-23.2,40.08L8.46,143.51l27.27-39.67V61.24l28.5-46,28.5,46v42.6L120,143.51Z"/><polygon class="cls-2" points="66.7 59.24 48.16 63.38 44.43 72.84 63.56 93.09 78.8 80.57 81.19 75.64 84.03 69.51 79.7 65.38 66.7 59.24"/></svg>