<svg id="Layer_1" data-name="Layer 1" xmlns="http://www.w3.org/2000/svg" viewBox="0 0 62.98 68.36"><defs><style>.cls-1{fill:#fff;}</style></defs><title>Untitled-2</title><path d="M25.4,34.19a5.2,5.2,0,0,0-4.12-4.49l-.8-7a3.58,3.58,0,0,1,2.32,2.94.81.81,0,0,0,1.61-.18,5.2,5.2,0,0,0-4.12-4.49l-.35-3a.57.57,0,0,0-.64-.51.58.58,0,0,0-.51.64l.32,2.81c-.16,0-.31,0-.47,0s-.23.05-.34.07L18,18a.58.58,0,0,0-1.15.13l.35,3.13a5.18,5.18,0,0,0,1.12,9.87l.8,7a3.59,3.59,0,0,1-2.44-3,.81.81,0,0,0-1.61.18,5.2,5.2,0,0,0,4.24,4.52l.22,2a.58.58,0,0,0,.58.51h.07a.58.58,0,0,0,.51-.64L20.46,40c.12,0,.23,0,.35,0s.3-.07.46-.1l.21,1.89a.58.58,0,0,0,.58.51h.07a.58.58,0,0,0,.51-.64l-.24-2.12A5.2,5.2,0,0,0,25.4,34.19ZM18.82,22.46a3.54,3.54,0,0,1,.47,0l.81,7.14c-.16,0-.31,0-.47,0s-.23,0-.35,0l-.8-7.07C18.59,22.51,18.7,22.47,18.82,22.46Zm-3.16,4A3.59,3.59,0,0,1,17.36,23l.73,6.46A3.59,3.59,0,0,1,15.66,26.43Zm5,11.91c-.12,0-.23,0-.35,0l-.81-7.14c.12,0,.23,0,.35,0a3.54,3.54,0,0,1,.47,0l.8,7A3.54,3.54,0,0,1,20.62,38.35Zm1.57-.59-.72-6.33a3.56,3.56,0,0,1,.72,6.33Z"/><path d="M9,68.36,0,6.11l24.15-3.5L23.26,61l21,.32.12,1.91ZM2.17,7.74l8.48,58.45,21.56-3.13-10.9-.17.88-58.06Z"/><rect class="cls-1" x="22.75" y="1.26" width="38.8" height="60.98" transform="translate(0.49 -0.63) rotate(0.87)"/><path d="M62,63.5l-40.72-.62L22.27,0,63,.62ZM23.26,61l36.88.56L61,2.51,24.16,1.95Z"/><path d="M45,26.36V25.2a6.56,6.56,0,0,0-6.41,5.21H37.08v1.16h1.34c0,.06,0,.12,0,.18s0,.36,0,.53H37.13v1.16h1.52A6.56,6.56,0,0,0,45,38.3V37.15a5.4,5.4,0,0,1-5.12-3.7h2.71V32.29h-3c0-.18,0-.35,0-.53s0-.12,0-.18h2.94V30.42H39.75A5.4,5.4,0,0,1,45,26.36Z"/><path d="M42.31,46.89A15.14,15.14,0,1,1,57.45,31.75,15.15,15.15,0,0,1,42.31,46.89Zm0-28.57A13.43,13.43,0,1,0,55.74,31.75,13.45,13.45,0,0,0,42.31,18.32Z"/></svg>