<?xml version="1.0" encoding="utf-8"?>
<!-- Generator: Adobe Illustrator 20.1.0, SVG Export Plug-In . SVG Version: 6.00 Build 0)  -->
<svg version="1.1" id="Layer_1" xmlns="http://www.w3.org/2000/svg" xmlns:xlink="http://www.w3.org/1999/xlink" x="0px" y="0px"
	 viewBox="0 0 162.6 158" style="enable-background:new 0 0 162.6 158;" xml:space="preserve">
<title>1</title>
<g>
	<path d="M63.3,8.2V18c-4,1.2-7.8,2.8-11.5,4.8l-8-8c-1.1-1.1-2.7-1.3-4-0.6l-14.5,7.5c-0.6,0.3-1.1,0.8-1.5,1.5l-7.5,14.5
		c-0.7,1.3-0.4,2.9,0.6,4l8.2,8.1c-1.7,3.3-3.2,6.7-4.3,10.3H8.3c-1.5,0-2.8,1-3.3,2.4L0.2,78.1c-0.2,0.7-0.2,1.4,0,2.1l4.9,15.6
		c0.4,1.4,1.8,2.4,3.3,2.4h12.2c1.1,3.6,2.5,7.1,4.2,10.4l-7.7,7.7c-1.1,1.1-1.3,2.7-0.6,4l7.5,14.5c0.3,0.6,0.8,1.1,1.5,1.5
		l14.5,7.5c1.3,0.7,2.9,0.4,4-0.6L51,136c3.9,2.2,8,4,12.3,5.3v8.5c0,1.5,1,2.8,2.4,3.3l15.6,4.9l0-49.9c-16.1,0-29.1-13-29.1-29.1
		c0-16.1,13-29.1,29.1-29.1l0-49.9L65.7,4.9C64.3,5.4,63.3,6.7,63.3,8.2z"/>
	<path d="M162.4,78.1l-4.9-15.6c-0.4-1.4-1.8-2.4-3.3-2.4h-12.5c-1.1-3.6-2.6-7-4.3-10.3l8.2-8.1c1.1-1.1,1.3-2.7,0.6-4l-7.5-14.5
		c-0.3-0.6-0.8-1.1-1.5-1.5l-14.5-7.5c-1.3-0.7-2.9-0.4-4,0.6l-8,8c-3.7-2-7.5-3.6-11.5-4.8V8.2c0-1.5-1-2.8-2.4-3.3L81.3,0l0,49.9
		c16.1,0,29.1,13,29.1,29.1c0,16.1-13,29.1-29.1,29.1l0,49.9l15.6-4.9c1.4-0.4,2.4-1.8,2.4-3.3v-8.5c4.3-1.3,8.4-3.1,12.3-5.3
		l7.1,7.2c1.1,1.1,2.7,1.3,4,0.6l14.5-7.5c0.6-0.3,1.1-0.8,1.5-1.5l7.5-14.5c0.7-1.3,0.4-2.9-0.6-4l-7.7-7.7
		c1.7-3.3,3.1-6.8,4.2-10.4h12.2c1.5,0,2.8-1,3.3-2.4l4.9-15.6C162.7,79.5,162.7,78.8,162.4,78.1z"/>
</g>
</svg>
