<svg id="Layer_1" data-name="Layer 1" xmlns="http://www.w3.org/2000/svg" viewBox="0 0 92 83.13"><title>Untitled-2</title><path d="M13.55,68.16a1.5,1.5,0,0,0,1.9-2.32C7,58.9,4,46.07,3.25,41.5H29l10.61,7.71a1.5,1.5,0,0,0,.88.29H86.19C87.33,60.12,80.4,69,80.33,69.06a1.5,1.5,0,0,0,2.34,1.87C83,70.51,91.07,60.27,89,47.75a1.49,1.49,0,0,0-1.37-1.23L76,33.13V18.5a1,1,0,0,0-1-1H66.5V5.75h3a1,1,0,0,0,0-2h-3V1a1,1,0,0,0-2,0V3.75H61.75a1,1,0,1,0,0,2H64.5V17.5H62a1,1,0,0,0-1,1l-.16,28H41l-10.6-7.71a1.5,1.5,0,0,0-.88-.29H1.5A1.5,1.5,0,0,0,0,40.17C.09,40.93,2.21,58.88,13.55,68.16ZM74,19.5v13H62.92l.07-13Zm-11.09,15H74.54l10.4,12H62.84Z"/><path d="M18,54a1.5,1.5,0,1,0,0,3H28a1.5,1.5,0,0,0,0-3Z"/><path d="M91.84,80.33a1.5,1.5,0,0,0-2-.67,3.35,3.35,0,0,1-2.66,0A13.24,13.24,0,0,1,85.08,78C83.27,76.46,81,74.5,78.5,74.5s-4.77,2-6.58,3.53a13.24,13.24,0,0,1-2.09,1.63,3.56,3.56,0,0,1-2.38.41,1.49,1.49,0,0,0-.62-.06,12.69,12.69,0,0,1-3.94-2.68,14.6,14.6,0,0,0-2.72-2,6.88,6.88,0,0,0-3.51-.77l-.16,0c-2.52,0-4.77,2-6.58,3.53a13.24,13.24,0,0,1-2.09,1.63,3.56,3.56,0,0,1-2.38.41,1.49,1.49,0,0,0-.62-.06,12.69,12.69,0,0,1-3.94-2.68,14.6,14.6,0,0,0-2.72-2,6.88,6.88,0,0,0-3.51-.77l-.16,0c-2.52,0-4.77,2-6.58,3.53a13.21,13.21,0,0,1-2.09,1.63,3.56,3.56,0,0,1-2.38.41,1.49,1.49,0,0,0-.62-.06,12.69,12.69,0,0,1-3.94-2.68,14.6,14.6,0,0,0-2.72-2,6.34,6.34,0,0,0-4.65-.58,1.48,1.48,0,0,0-.94,1.86,1.52,1.52,0,0,0,1.86,1,3.55,3.55,0,0,1,2.39.41,13.21,13.21,0,0,1,2.09,1.63c1.81,1.57,4.06,3.53,6.58,3.53l.16,0,.34,0a7.06,7.06,0,0,0,3.17-.78,14.6,14.6,0,0,0,2.72-2,12.57,12.57,0,0,1,4-2.69,1.52,1.52,0,0,0,.59,0,3.55,3.55,0,0,1,2.39.41,13.21,13.21,0,0,1,2.09,1.63c1.81,1.57,4.06,3.53,6.58,3.53l.16,0,.34,0a7.06,7.06,0,0,0,3.17-.78,14.6,14.6,0,0,0,2.72-2,12.57,12.57,0,0,1,4-2.69,1.52,1.52,0,0,0,.59,0,3.54,3.54,0,0,1,2.39.41,13.24,13.24,0,0,1,2.09,1.63c1.81,1.57,4.06,3.53,6.58,3.53l.16,0,.34,0a7.06,7.06,0,0,0,3.17-.78,14.6,14.6,0,0,0,2.72-2c1.43-1.25,3.21-2.8,4.61-2.8s3.18,1.55,4.61,2.8a14.6,14.6,0,0,0,2.72,2,5.73,5.73,0,0,0,2.58.6,6.69,6.69,0,0,0,2.76-.6A1.5,1.5,0,0,0,91.84,80.33Z"/></svg>