<svg xmlns="http://www.w3.org/2000/svg" xmlns:xlink="http://www.w3.org/1999/xlink" preserveAspectRatio="xMidYMid" width="305" height="179" viewBox="0 0 305 179">
  <defs>
    <style>

      .cls-2 {
        fill: #ffffff;
        stroke: #d04929;
        stroke-linejoin: round;
        stroke-width: 1px;
      }
    </style>
  </defs>
  <path d="M304.500,137.136 C304.500,137.136 -264.314,178.418 -264.314,178.418 C-264.314,178.418 -264.314,178.500 -264.314,178.500 C-264.314,178.500 -264.853,178.457 -264.853,178.457 C-264.853,178.457 -265.438,178.500 -265.438,178.500 C-265.438,178.500 -265.438,178.411 -265.438,178.411 C-265.438,178.411 -836.500,133.376 -836.500,133.376 C-836.500,133.376 -669.003,-276.500 -669.003,-276.500 C-669.003,-276.500 -264.876,-186.378 -264.876,-186.378 C-264.876,-186.378 139.252,-276.500 139.252,-276.500 C139.252,-276.500 304.500,137.136 304.500,137.136 Z" id="path-1" class="cls-2" fill-rule="evenodd"/>
</svg>
