<svg xmlns="http://www.w3.org/2000/svg" xmlns:xlink="http://www.w3.org/1999/xlink" preserveAspectRatio="xMidYMid" width="305" height="179" viewBox="0 0 305 179">
  <defs>
    <style>

      .cls-2 {
        fill: #ffffff;
        stroke: #d04929;
        stroke-linejoin: round;
        stroke-width: 1px;
      }
    </style>
  </defs>
  <path d="M1141.500,137.136 C1141.500,137.136 572.686,178.418 572.686,178.418 C572.686,178.418 572.686,178.500 572.686,178.500 C572.686,178.500 572.148,178.457 572.148,178.457 C572.148,178.457 571.562,178.500 571.562,178.500 C571.562,178.500 571.562,178.411 571.562,178.411 C571.562,178.411 0.500,133.376 0.500,133.376 C0.500,133.376 167.997,-276.500 167.997,-276.500 C167.997,-276.500 572.124,-186.378 572.124,-186.378 C572.124,-186.378 976.252,-276.500 976.252,-276.500 C976.252,-276.500 1141.500,137.136 1141.500,137.136 Z" id="path-1" class="cls-2" fill-rule="evenodd"/>
</svg>
