<svg id="Слой_1" data-name="Слой 1" xmlns="http://www.w3.org/2000/svg" xmlns:xlink="http://www.w3.org/1999/xlink" viewBox="0 0 316.02 71.94"><defs><style>.cls-1{fill:none;}.cls-2{fill:#996f19;}.cls-3{clip-path:url(#clip-path);}.cls-4{fill:#b78a25;}.cls-5{fill:#b88b26;}.cls-6{fill:#b88c27;}.cls-7{fill:#b98d27;}.cls-8{fill:#ba8e28;}.cls-9{fill:#ba8f29;}.cls-10{fill:#bb902a;}.cls-11{fill:#bc912b;}.cls-12{fill:#bc922c;}.cls-13{fill:#bd932c;}.cls-14{fill:#be942d;}.cls-15{fill:#be952e;}.cls-16{fill:#bf962f;}.cls-17{fill:#c09730;}.cls-18{fill:#c09831;}.cls-19{fill:#c19931;}.cls-20{fill:#c29a32;}.cls-21{fill:#c29b33;}.cls-22{fill:#c39c34;}.cls-23{fill:#c49d35;}.cls-24{fill:#c49e36;}.cls-25{fill:#c59f36;}.cls-26{fill:#c6a037;}.cls-27{fill:#c6a138;}.cls-28{fill:#c7a239;}.cls-29{fill:#c8a33a;}.cls-30{fill:#c8a43b;}.cls-31{fill:#c9a53b;}.cls-32{fill:#caa63c;}.cls-33{fill:#caa73d;}.cls-34{fill:#cba83e;}.cls-35{fill:#cca93f;}.cls-36{fill:#ccaa40;}.cls-37{fill:#cdab40;}.cls-38{fill:#ceac41;}.cls-39{fill:#cead42;}.cls-40{fill:#cfae43;}.cls-41{fill:#d0af44;}.cls-42{fill:#d0b045;}.cls-43{fill:#d1b145;}.cls-44{fill:#d2b246;}.cls-45{fill:#d3b447;}.cls-46{fill:#d3b548;}.cls-47{fill:#d4b649;}.cls-48{fill:#d5b749;}.cls-49{fill:#d5b84a;}.cls-50{fill:#d6b94b;}.cls-51{fill:#d7ba4c;}.cls-52{fill:#d7bb4d;}.cls-53{fill:#d8bc4e;}.cls-54{fill:#d9bd4e;}.cls-55{fill:#d9be4f;}.cls-56{fill:#dabf50;}.cls-57{fill:#dbc051;}.cls-58{fill:#dbc152;}.cls-59{fill:#dcc253;}.cls-60{fill:#ddc353;}.cls-61{fill:#ddc454;}.cls-62{fill:#dec555;}.cls-63{fill:#dfc656;}.cls-64{fill:#dfc757;}.cls-65{fill:#e0c858;}.cls-66{fill:#e1c958;}.cls-67{fill:#e1ca59;}.cls-68{fill:#e2cb5a;}.cls-69{fill:#e3cc5b;}.cls-70{fill:#e3cd5c;}.cls-71{fill:#e4ce5d;}.cls-72{fill:#e5cf5d;}.cls-73{fill:#e5d05e;}.cls-74{fill:#e6d15f;}.cls-75{fill:#e7d260;}.cls-76{fill:#e7d361;}.cls-77{fill:#e8d462;}.cls-78{fill:#e9d562;}.cls-79{fill:#e9d663;}.cls-80{fill:#ead764;}.cls-81{fill:#ebd865;}.cls-82{fill:#ebd966;}.cls-83{fill:#ecda67;}.cls-84{fill:#eddb67;}.cls-85{fill:#eddc68;}.cls-86{fill:#eedd69;}.cls-87{fill:#d6b94c;}.cls-88{fill:#d6b84b;}.cls-89{fill:#d5b74a;}.cls-90{fill:#d4b64a;}.cls-91{fill:#d4b549;}.cls-92{fill:#d3b448;}.cls-93{fill:#d2b347;}.cls-94{clip-path:url(#clip-path-2);}.cls-95{clip-path:url(#clip-path-3);}.cls-96{fill:#ead865;}.cls-97{fill:#e8d563;}.cls-98{fill:#e6d261;}.cls-99{fill:#e4d05f;}.cls-100{fill:#e2cd5d;}.cls-101{fill:#e0cb5c;}.cls-102{fill:#dec85a;}.cls-103{fill:#dcc658;}.cls-104{fill:#dac356;}.cls-105{fill:#d8c155;}.cls-106{fill:#d7bf53;}.cls-107{fill:#d5bc51;}.cls-108{fill:#d3ba50;}.cls-109{fill:#d2b84e;}.cls-110{fill:#d0b64d;}.cls-111{fill:#ceb44b;}.cls-112{fill:#cdb24a;}.cls-113{fill:#cbb048;}.cls-114{fill:#caae47;}.cls-115{fill:#c8ac45;}.cls-116{fill:#c7aa44;}.cls-117{fill:#c5a843;}.cls-118{fill:#c4a641;}.cls-119{fill:#c2a540;}.cls-120{fill:#c1a33f;}.cls-121{fill:#c0a13d;}.cls-122{fill:#bea03c;}.cls-123{fill:#bd9e3b;}.cls-124{fill:#bc9c3a;}.cls-125{fill:#bb9b39;}.cls-126{fill:#ba9938;}.cls-127{fill:#b89837;}.cls-128{fill:#b79636;}.cls-129{fill:#b69534;}.cls-130{fill:#b59333;}.cls-131{fill:#b49232;}.cls-132{fill:#b39132;}.cls-133{fill:#b28f31;}.cls-134{fill:#b18e30;}.cls-135{fill:#b08d2f;}.cls-136{fill:#af8c2e;}.cls-137{fill:#ae8b2d;}.cls-138{fill:#ad892c;}.cls-139{fill:#ad882b;}.cls-140{fill:#ac872b;}.cls-141{fill:#ab862a;}.cls-142{fill:#aa8529;}.cls-143{fill:#a98428;}.cls-144{fill:#a98328;}.cls-145{fill:#a88227;}.cls-146{fill:#a78126;}.cls-147{fill:#a68025;}.cls-148{fill:#a57f25;}.cls-149{fill:#a57e24;}.cls-150{fill:#a47d23;}.cls-151{fill:#a37d23;}.cls-152{fill:#a37c22;}.cls-153{fill:#a27b22;}.cls-154{fill:#a27a21;}.cls-155{fill:#a17a21;}.cls-156{fill:#a17920;}.cls-157{fill:#a07920;}.cls-158{fill:#a07820;}.cls-159{fill:#a0771f;}.cls-160{fill:#9f771f;}.cls-161{fill:#9f761e;}.cls-162{fill:#9e761e;}.cls-163{fill:#9e751e;}.cls-164{fill:#9e751d;}.cls-165{fill:#9d751d;}.cls-166{fill:#9d741d;}.cls-167{fill:#9d741c;}.cls-168{fill:#9c731c;}.cls-169{fill:#9c721b;}.cls-170{fill:#9b721b;}.cls-171{fill:#9b711b;}.cls-172{fill:#9a711a;}.cls-173{fill:#9a701a;}.cls-174{fill:#9a7019;}.cls-175{fill:#997019;}</style><clipPath id="clip-path"><path class="cls-1" d="M281.27,5.5s1.5,18.25,2.13,22.63c0,0,1.87-7.63,2.25-11.32S287.09,7.9,281.27,5.5Z"/></clipPath><clipPath id="clip-path-2"><path class="cls-1" d="M287.9,40.88s-4-6.88-2.75-14,5.37-9.13,6.62-9.13,1.88,4-1.25,11.56S287.9,40.88,287.9,40.88Z"/></clipPath><clipPath id="clip-path-3"><rect class="cls-1" y="65.78" width="254.67" height="3.08"/></clipPath></defs><title>logo</title><path class="cls-2" d="M251.69,68.88h3.08l6.88-20.75h20.84c9.59,23.12,21.22,23.81,23.47,23.81s7.25-.63,7.25-5.94-4.69-7.94-9.13-7.94A9.14,9.14,0,0,0,297.27,61l3.13,3.13c2-6.38,11.75-4.13,11.75,1.37s-5,4.63-5,4.63c-19,0-28.13-44.13-28.63-54.88S273.27,0,273.27,0l-21.5,66m13.38-27.5c2.75-12.62,9.62-28.87,9.62-28.87.5,12.37,5.5,28.87,5.5,28.87Z"/><g class="cls-3"><rect class="cls-4" x="281.27" y="27.98" width="5.82" height="0.15"/><rect class="cls-5" x="281.27" y="27.83" width="5.82" height="0.15"/><rect class="cls-6" x="281.27" y="27.68" width="5.82" height="0.15"/><rect class="cls-7" x="281.27" y="27.53" width="5.82" height="0.15"/><rect class="cls-8" x="281.27" y="27.38" width="5.82" height="0.15"/><rect class="cls-9" x="281.27" y="27.23" width="5.82" height="0.15"/><rect class="cls-10" x="281.27" y="27.08" width="5.82" height="0.15"/><rect class="cls-11" x="281.27" y="26.93" width="5.82" height="0.15"/><rect class="cls-12" x="281.27" y="26.78" width="5.82" height="0.15"/><rect class="cls-13" x="281.27" y="26.63" width="5.82" height="0.15"/><rect class="cls-14" x="281.27" y="26.48" width="5.82" height="0.15"/><rect class="cls-15" x="281.27" y="26.33" width="5.82" height="0.15"/><rect class="cls-16" x="281.27" y="26.18" width="5.82" height="0.15"/><rect class="cls-17" x="281.27" y="26.03" width="5.82" height="0.15"/><rect class="cls-18" x="281.27" y="25.88" width="5.82" height="0.15"/><rect class="cls-19" x="281.27" y="25.73" width="5.82" height="0.15"/><rect class="cls-20" x="281.27" y="25.58" width="5.82" height="0.15"/><rect class="cls-21" x="281.27" y="25.43" width="5.82" height="0.15"/><rect class="cls-22" x="281.27" y="25.28" width="5.82" height="0.15"/><rect class="cls-23" x="281.27" y="25.13" width="5.82" height="0.15"/><rect class="cls-24" x="281.27" y="24.98" width="5.82" height="0.15"/><rect class="cls-25" x="281.27" y="24.83" width="5.82" height="0.15"/><rect class="cls-26" x="281.27" y="24.68" width="5.82" height="0.15"/><rect class="cls-27" x="281.27" y="24.54" width="5.82" height="0.15"/><rect class="cls-28" x="281.27" y="24.39" width="5.82" height="0.15"/><rect class="cls-29" x="281.27" y="24.24" width="5.82" height="0.15"/><rect class="cls-30" x="281.27" y="24.09" width="5.82" height="0.15"/><rect class="cls-31" x="281.27" y="23.94" width="5.82" height="0.15"/><rect class="cls-32" x="281.27" y="23.79" width="5.82" height="0.15"/><rect class="cls-33" x="281.27" y="23.64" width="5.82" height="0.15"/><rect class="cls-34" x="281.27" y="23.49" width="5.82" height="0.15"/><rect class="cls-35" x="281.27" y="23.34" width="5.82" height="0.15"/><rect class="cls-36" x="281.27" y="23.19" width="5.82" height="0.15"/><rect class="cls-37" x="281.27" y="23.04" width="5.82" height="0.15"/><rect class="cls-38" x="281.27" y="22.89" width="5.82" height="0.15"/><rect class="cls-39" x="281.27" y="22.74" width="5.82" height="0.15"/><rect class="cls-40" x="281.27" y="22.59" width="5.82" height="0.15"/><rect class="cls-41" x="281.27" y="22.44" width="5.82" height="0.15"/><rect class="cls-42" x="281.27" y="22.29" width="5.82" height="0.15"/><rect class="cls-43" x="281.27" y="22.14" width="5.82" height="0.15"/><rect class="cls-44" x="281.27" y="21.99" width="5.82" height="0.15"/><rect class="cls-45" x="281.27" y="21.84" width="5.82" height="0.15"/><rect class="cls-46" x="281.27" y="21.69" width="5.82" height="0.15"/><rect class="cls-47" x="281.27" y="21.54" width="5.82" height="0.15"/><rect class="cls-48" x="281.27" y="21.39" width="5.82" height="0.15"/><rect class="cls-49" x="281.27" y="21.24" width="5.82" height="0.15"/><rect class="cls-50" x="281.27" y="21.09" width="5.82" height="0.15"/><rect class="cls-51" x="281.27" y="20.95" width="5.82" height="0.15"/><rect class="cls-52" x="281.27" y="20.8" width="5.82" height="0.15"/><rect class="cls-53" x="281.27" y="20.65" width="5.82" height="0.15"/><rect class="cls-54" x="281.27" y="20.5" width="5.82" height="0.15"/><rect class="cls-55" x="281.27" y="20.35" width="5.82" height="0.15"/><rect class="cls-56" x="281.27" y="20.2" width="5.82" height="0.15"/><rect class="cls-57" x="281.27" y="20.05" width="5.82" height="0.15"/><rect class="cls-58" x="281.27" y="19.9" width="5.82" height="0.15"/><rect class="cls-59" x="281.27" y="19.75" width="5.82" height="0.15"/><rect class="cls-60" x="281.27" y="19.6" width="5.82" height="0.15"/><rect class="cls-61" x="281.27" y="19.45" width="5.82" height="0.15"/><rect class="cls-62" x="281.27" y="19.3" width="5.82" height="0.15"/><rect class="cls-63" x="281.27" y="19.15" width="5.82" height="0.15"/><rect class="cls-64" x="281.27" y="19" width="5.82" height="0.15"/><rect class="cls-65" x="281.27" y="18.85" width="5.82" height="0.15"/><rect class="cls-66" x="281.27" y="18.7" width="5.82" height="0.15"/><rect class="cls-67" x="281.27" y="18.55" width="5.82" height="0.15"/><rect class="cls-68" x="281.27" y="18.4" width="5.82" height="0.15"/><rect class="cls-69" x="281.27" y="18.25" width="5.82" height="0.15"/><rect class="cls-70" x="281.27" y="18.1" width="5.82" height="0.15"/><rect class="cls-71" x="281.27" y="17.95" width="5.82" height="0.15"/><rect class="cls-72" x="281.27" y="17.8" width="5.82" height="0.15"/><rect class="cls-73" x="281.27" y="17.65" width="5.82" height="0.15"/><rect class="cls-74" x="281.27" y="17.51" width="5.82" height="0.15"/><rect class="cls-75" x="281.27" y="17.36" width="5.82" height="0.15"/><rect class="cls-76" x="281.27" y="17.21" width="5.82" height="0.15"/><rect class="cls-77" x="281.27" y="17.06" width="5.82" height="0.15"/><rect class="cls-78" x="281.27" y="16.91" width="5.82" height="0.15"/><rect class="cls-79" x="281.27" y="16.76" width="5.82" height="0.15"/><rect class="cls-80" x="281.27" y="16.61" width="5.82" height="0.15"/><rect class="cls-81" x="281.27" y="16.46" width="5.82" height="0.15"/><rect class="cls-82" x="281.27" y="16.31" width="5.82" height="0.15"/><rect class="cls-83" x="281.27" y="16.16" width="5.82" height="0.15"/><rect class="cls-84" x="281.27" y="16.01" width="5.82" height="0.15"/><rect class="cls-85" x="281.27" y="15.86" width="5.82" height="0.15"/><rect class="cls-86" x="281.27" y="15.71" width="5.82" height="0.15"/><rect class="cls-86" x="281.27" y="15.57" width="5.82" height="0.14"/><rect class="cls-85" x="281.27" y="15.42" width="5.82" height="0.14"/><rect class="cls-84" x="281.27" y="15.28" width="5.82" height="0.14"/><rect class="cls-83" x="281.27" y="15.14" width="5.82" height="0.14"/><rect class="cls-82" x="281.27" y="14.99" width="5.82" height="0.14"/><rect class="cls-81" x="281.27" y="14.85" width="5.82" height="0.14"/><rect class="cls-80" x="281.27" y="14.7" width="5.82" height="0.14"/><rect class="cls-79" x="281.27" y="14.56" width="5.82" height="0.14"/><rect class="cls-78" x="281.27" y="14.42" width="5.82" height="0.14"/><rect class="cls-77" x="281.27" y="14.27" width="5.82" height="0.14"/><rect class="cls-76" x="281.27" y="14.13" width="5.82" height="0.14"/><rect class="cls-75" x="281.27" y="13.98" width="5.82" height="0.14"/><rect class="cls-74" x="281.27" y="13.84" width="5.82" height="0.14"/><rect class="cls-73" x="281.27" y="13.7" width="5.82" height="0.14"/><rect class="cls-72" x="281.27" y="13.55" width="5.82" height="0.14"/><rect class="cls-71" x="281.27" y="13.41" width="5.82" height="0.14"/><rect class="cls-70" x="281.27" y="13.27" width="5.82" height="0.14"/><rect class="cls-69" x="281.27" y="13.12" width="5.82" height="0.14"/><rect class="cls-68" x="281.27" y="12.98" width="5.82" height="0.14"/><rect class="cls-67" x="281.27" y="12.83" width="5.82" height="0.14"/><rect class="cls-66" x="281.27" y="12.69" width="5.82" height="0.14"/><rect class="cls-65" x="281.27" y="12.55" width="5.82" height="0.14"/><rect class="cls-64" x="281.27" y="12.4" width="5.82" height="0.14"/><rect class="cls-63" x="281.27" y="12.26" width="5.82" height="0.14"/><rect class="cls-62" x="281.27" y="12.12" width="5.82" height="0.14"/><rect class="cls-61" x="281.27" y="11.97" width="5.82" height="0.14"/><rect class="cls-60" x="281.27" y="11.83" width="5.82" height="0.14"/><rect class="cls-59" x="281.27" y="11.68" width="5.82" height="0.14"/><rect class="cls-58" x="281.27" y="11.54" width="5.82" height="0.14"/><rect class="cls-57" x="281.27" y="11.4" width="5.82" height="0.14"/><rect class="cls-56" x="281.27" y="11.25" width="5.82" height="0.14"/><rect class="cls-55" x="281.27" y="11.11" width="5.82" height="0.14"/><rect class="cls-54" x="281.27" y="10.96" width="5.82" height="0.14"/><rect class="cls-53" x="281.27" y="10.82" width="5.82" height="0.14"/><rect class="cls-52" x="281.27" y="10.68" width="5.82" height="0.14"/><rect class="cls-87" x="281.27" y="10.53" width="5.82" height="0.14"/><rect class="cls-88" x="281.27" y="10.39" width="5.82" height="0.14"/><rect class="cls-89" x="281.27" y="10.25" width="5.82" height="0.14"/><rect class="cls-90" x="281.27" y="10.1" width="5.82" height="0.14"/><rect class="cls-91" x="281.27" y="9.96" width="5.82" height="0.14"/><rect class="cls-92" x="281.27" y="9.81" width="5.82" height="0.14"/><rect class="cls-93" x="281.27" y="9.67" width="5.82" height="0.14"/><rect class="cls-44" x="281.27" y="9.53" width="5.82" height="0.14"/><rect class="cls-43" x="281.27" y="9.38" width="5.82" height="0.14"/><rect class="cls-42" x="281.27" y="9.24" width="5.82" height="0.14"/><rect class="cls-41" x="281.27" y="9.1" width="5.82" height="0.14"/><rect class="cls-40" x="281.27" y="8.95" width="5.82" height="0.14"/><rect class="cls-39" x="281.27" y="8.81" width="5.82" height="0.14"/><rect class="cls-38" x="281.27" y="8.66" width="5.82" height="0.14"/><rect class="cls-37" x="281.27" y="8.52" width="5.82" height="0.14"/><rect class="cls-36" x="281.27" y="8.38" width="5.82" height="0.14"/><rect class="cls-35" x="281.27" y="8.23" width="5.82" height="0.14"/><rect class="cls-34" x="281.27" y="8.09" width="5.82" height="0.14"/><rect class="cls-33" x="281.27" y="7.94" width="5.82" height="0.14"/><rect class="cls-32" x="281.27" y="7.8" width="5.82" height="0.14"/><rect class="cls-31" x="281.27" y="7.66" width="5.82" height="0.14"/><rect class="cls-30" x="281.27" y="7.51" width="5.82" height="0.14"/><rect class="cls-29" x="281.27" y="7.37" width="5.82" height="0.14"/><rect class="cls-28" x="281.27" y="7.23" width="5.82" height="0.14"/><rect class="cls-27" x="281.27" y="7.08" width="5.82" height="0.14"/><rect class="cls-26" x="281.27" y="6.94" width="5.82" height="0.14"/><rect class="cls-25" x="281.27" y="6.79" width="5.82" height="0.14"/><rect class="cls-24" x="281.27" y="6.65" width="5.82" height="0.14"/><rect class="cls-23" x="281.27" y="6.51" width="5.82" height="0.14"/><rect class="cls-22" x="281.27" y="6.36" width="5.82" height="0.14"/><rect class="cls-21" x="281.27" y="6.22" width="5.82" height="0.14"/><rect class="cls-20" x="281.27" y="6.08" width="5.82" height="0.14"/><rect class="cls-19" x="281.27" y="5.93" width="5.82" height="0.14"/><rect class="cls-18" x="281.27" y="5.79" width="5.82" height="0.14"/><rect class="cls-17" x="281.27" y="5.64" width="5.82" height="0.14"/><rect class="cls-16" x="281.27" y="5.5" width="5.82" height="0.14"/></g><g class="cls-94"><rect class="cls-4" x="283.9" y="40.72" width="9.75" height="0.15"/><rect class="cls-5" x="283.9" y="40.57" width="9.75" height="0.15"/><rect class="cls-6" x="283.9" y="40.42" width="9.75" height="0.15"/><rect class="cls-7" x="283.9" y="40.26" width="9.75" height="0.15"/><rect class="cls-8" x="283.9" y="40.11" width="9.75" height="0.15"/><rect class="cls-9" x="283.9" y="39.96" width="9.75" height="0.15"/><rect class="cls-10" x="283.9" y="39.8" width="9.75" height="0.15"/><rect class="cls-11" x="283.9" y="39.65" width="9.75" height="0.15"/><rect class="cls-12" x="283.9" y="39.5" width="9.75" height="0.15"/><rect class="cls-13" x="283.9" y="39.35" width="9.75" height="0.15"/><rect class="cls-14" x="283.9" y="39.19" width="9.75" height="0.15"/><rect class="cls-15" x="283.9" y="39.04" width="9.75" height="0.15"/><rect class="cls-16" x="283.9" y="38.89" width="9.75" height="0.15"/><rect class="cls-17" x="283.9" y="38.73" width="9.75" height="0.15"/><rect class="cls-18" x="283.9" y="38.58" width="9.75" height="0.15"/><rect class="cls-19" x="283.9" y="38.43" width="9.75" height="0.15"/><rect class="cls-20" x="283.9" y="38.28" width="9.75" height="0.15"/><rect class="cls-21" x="283.9" y="38.12" width="9.75" height="0.15"/><rect class="cls-22" x="283.9" y="37.97" width="9.75" height="0.15"/><rect class="cls-23" x="283.9" y="37.82" width="9.75" height="0.15"/><rect class="cls-24" x="283.9" y="37.66" width="9.75" height="0.15"/><rect class="cls-25" x="283.9" y="37.51" width="9.75" height="0.15"/><rect class="cls-26" x="283.9" y="37.36" width="9.75" height="0.15"/><rect class="cls-27" x="283.9" y="37.21" width="9.75" height="0.15"/><rect class="cls-28" x="283.9" y="37.05" width="9.75" height="0.15"/><rect class="cls-29" x="283.9" y="36.9" width="9.75" height="0.15"/><rect class="cls-30" x="283.9" y="36.75" width="9.75" height="0.15"/><rect class="cls-31" x="283.9" y="36.59" width="9.75" height="0.15"/><rect class="cls-32" x="283.9" y="36.44" width="9.75" height="0.15"/><rect class="cls-33" x="283.9" y="36.29" width="9.75" height="0.15"/><rect class="cls-34" x="283.9" y="36.14" width="9.75" height="0.15"/><rect class="cls-35" x="283.9" y="35.98" width="9.75" height="0.15"/><rect class="cls-36" x="283.9" y="35.83" width="9.75" height="0.15"/><rect class="cls-37" x="283.9" y="35.68" width="9.75" height="0.15"/><rect class="cls-38" x="283.9" y="35.52" width="9.75" height="0.15"/><rect class="cls-39" x="283.9" y="35.37" width="9.75" height="0.15"/><rect class="cls-40" x="283.9" y="35.22" width="9.75" height="0.15"/><rect class="cls-41" x="283.9" y="35.07" width="9.75" height="0.15"/><rect class="cls-42" x="283.9" y="34.91" width="9.75" height="0.15"/><rect class="cls-43" x="283.9" y="34.76" width="9.75" height="0.15"/><rect class="cls-44" x="283.9" y="34.61" width="9.75" height="0.15"/><rect class="cls-45" x="283.9" y="34.45" width="9.75" height="0.15"/><rect class="cls-46" x="283.9" y="34.3" width="9.75" height="0.15"/><rect class="cls-47" x="283.9" y="34.15" width="9.75" height="0.15"/><rect class="cls-48" x="283.9" y="34" width="9.75" height="0.15"/><rect class="cls-49" x="283.9" y="33.84" width="9.75" height="0.15"/><rect class="cls-50" x="283.9" y="33.69" width="9.75" height="0.15"/><rect class="cls-51" x="283.9" y="33.54" width="9.75" height="0.15"/><rect class="cls-52" x="283.9" y="33.38" width="9.75" height="0.15"/><rect class="cls-53" x="283.9" y="33.23" width="9.75" height="0.15"/><rect class="cls-54" x="283.9" y="33.08" width="9.75" height="0.15"/><rect class="cls-55" x="283.9" y="32.93" width="9.75" height="0.15"/><rect class="cls-56" x="283.9" y="32.77" width="9.75" height="0.15"/><rect class="cls-57" x="283.9" y="32.62" width="9.75" height="0.15"/><rect class="cls-58" x="283.9" y="32.47" width="9.75" height="0.15"/><rect class="cls-59" x="283.9" y="32.31" width="9.75" height="0.15"/><rect class="cls-60" x="283.9" y="32.16" width="9.75" height="0.15"/><rect class="cls-61" x="283.9" y="32.01" width="9.75" height="0.15"/><rect class="cls-62" x="283.9" y="31.86" width="9.75" height="0.15"/><rect class="cls-63" x="283.9" y="31.7" width="9.75" height="0.15"/><rect class="cls-64" x="283.9" y="31.55" width="9.75" height="0.15"/><rect class="cls-65" x="283.9" y="31.4" width="9.75" height="0.15"/><rect class="cls-66" x="283.9" y="31.24" width="9.75" height="0.15"/><rect class="cls-67" x="283.9" y="31.09" width="9.75" height="0.15"/><rect class="cls-68" x="283.9" y="30.94" width="9.75" height="0.15"/><rect class="cls-69" x="283.9" y="30.78" width="9.75" height="0.15"/><rect class="cls-70" x="283.9" y="30.63" width="9.75" height="0.15"/><rect class="cls-71" x="283.9" y="30.48" width="9.75" height="0.15"/><rect class="cls-72" x="283.9" y="30.33" width="9.75" height="0.15"/><rect class="cls-73" x="283.9" y="30.17" width="9.75" height="0.15"/><rect class="cls-74" x="283.9" y="30.02" width="9.75" height="0.15"/><rect class="cls-75" x="283.9" y="29.87" width="9.75" height="0.15"/><rect class="cls-76" x="283.9" y="29.71" width="9.75" height="0.15"/><rect class="cls-77" x="283.9" y="29.56" width="9.75" height="0.15"/><rect class="cls-78" x="283.9" y="29.41" width="9.75" height="0.15"/><rect class="cls-79" x="283.9" y="29.26" width="9.75" height="0.15"/><rect class="cls-80" x="283.9" y="29.1" width="9.75" height="0.15"/><rect class="cls-81" x="283.9" y="28.95" width="9.75" height="0.15"/><rect class="cls-82" x="283.9" y="28.8" width="9.75" height="0.15"/><rect class="cls-83" x="283.9" y="28.64" width="9.75" height="0.15"/><rect class="cls-84" x="283.9" y="28.49" width="9.75" height="0.15"/><rect class="cls-85" x="283.9" y="28.34" width="9.75" height="0.15"/><rect class="cls-86" x="283.9" y="28.19" width="9.75" height="0.15"/><rect class="cls-86" x="283.9" y="28.04" width="9.75" height="0.15"/><rect class="cls-85" x="283.9" y="27.89" width="9.75" height="0.15"/><rect class="cls-84" x="283.9" y="27.74" width="9.75" height="0.15"/><rect class="cls-83" x="283.9" y="27.6" width="9.75" height="0.15"/><rect class="cls-82" x="283.9" y="27.45" width="9.75" height="0.15"/><rect class="cls-81" x="283.9" y="27.3" width="9.75" height="0.15"/><rect class="cls-80" x="283.9" y="27.16" width="9.75" height="0.15"/><rect class="cls-79" x="283.9" y="27.01" width="9.75" height="0.15"/><rect class="cls-78" x="283.9" y="26.86" width="9.75" height="0.15"/><rect class="cls-77" x="283.9" y="26.72" width="9.75" height="0.15"/><rect class="cls-76" x="283.9" y="26.57" width="9.75" height="0.15"/><rect class="cls-75" x="283.9" y="26.42" width="9.75" height="0.15"/><rect class="cls-74" x="283.9" y="26.28" width="9.75" height="0.15"/><rect class="cls-73" x="283.9" y="26.13" width="9.75" height="0.15"/><rect class="cls-72" x="283.9" y="25.98" width="9.75" height="0.15"/><rect class="cls-71" x="283.9" y="25.83" width="9.75" height="0.15"/><rect class="cls-70" x="283.9" y="25.69" width="9.75" height="0.15"/><rect class="cls-69" x="283.9" y="25.54" width="9.75" height="0.15"/><rect class="cls-68" x="283.9" y="25.39" width="9.75" height="0.15"/><rect class="cls-67" x="283.9" y="25.25" width="9.75" height="0.15"/><rect class="cls-66" x="283.9" y="25.1" width="9.75" height="0.15"/><rect class="cls-65" x="283.9" y="24.95" width="9.75" height="0.15"/><rect class="cls-64" x="283.9" y="24.81" width="9.75" height="0.15"/><rect class="cls-63" x="283.9" y="24.66" width="9.75" height="0.15"/><rect class="cls-62" x="283.9" y="24.51" width="9.75" height="0.15"/><rect class="cls-61" x="283.9" y="24.36" width="9.75" height="0.15"/><rect class="cls-60" x="283.9" y="24.22" width="9.75" height="0.15"/><rect class="cls-59" x="283.9" y="24.07" width="9.75" height="0.15"/><rect class="cls-58" x="283.9" y="23.92" width="9.75" height="0.15"/><rect class="cls-57" x="283.9" y="23.78" width="9.75" height="0.15"/><rect class="cls-56" x="283.9" y="23.63" width="9.75" height="0.15"/><rect class="cls-55" x="283.9" y="23.48" width="9.75" height="0.15"/><rect class="cls-54" x="283.9" y="23.34" width="9.75" height="0.15"/><rect class="cls-53" x="283.9" y="23.19" width="9.75" height="0.15"/><rect class="cls-52" x="283.9" y="23.04" width="9.75" height="0.15"/><rect class="cls-87" x="283.9" y="22.89" width="9.75" height="0.15"/><rect class="cls-88" x="283.9" y="22.75" width="9.75" height="0.15"/><rect class="cls-89" x="283.9" y="22.6" width="9.75" height="0.15"/><rect class="cls-90" x="283.9" y="22.45" width="9.75" height="0.15"/><rect class="cls-91" x="283.9" y="22.31" width="9.75" height="0.15"/><rect class="cls-92" x="283.9" y="22.16" width="9.75" height="0.15"/><rect class="cls-93" x="283.9" y="22.01" width="9.75" height="0.15"/><rect class="cls-44" x="283.9" y="21.87" width="9.75" height="0.15"/><rect class="cls-43" x="283.9" y="21.72" width="9.75" height="0.15"/><rect class="cls-42" x="283.9" y="21.57" width="9.75" height="0.15"/><rect class="cls-41" x="283.9" y="21.42" width="9.75" height="0.15"/><rect class="cls-40" x="283.9" y="21.28" width="9.75" height="0.15"/><rect class="cls-39" x="283.9" y="21.13" width="9.75" height="0.15"/><rect class="cls-38" x="283.9" y="20.98" width="9.75" height="0.15"/><rect class="cls-37" x="283.9" y="20.84" width="9.75" height="0.15"/><rect class="cls-36" x="283.9" y="20.69" width="9.75" height="0.15"/><rect class="cls-35" x="283.9" y="20.54" width="9.75" height="0.15"/><rect class="cls-34" x="283.9" y="20.4" width="9.75" height="0.15"/><rect class="cls-33" x="283.9" y="20.25" width="9.75" height="0.15"/><rect class="cls-32" x="283.9" y="20.1" width="9.75" height="0.15"/><rect class="cls-31" x="283.9" y="19.95" width="9.75" height="0.15"/><rect class="cls-30" x="283.9" y="19.81" width="9.75" height="0.15"/><rect class="cls-29" x="283.9" y="19.66" width="9.75" height="0.15"/><rect class="cls-28" x="283.9" y="19.51" width="9.75" height="0.15"/><rect class="cls-27" x="283.9" y="19.37" width="9.75" height="0.15"/><rect class="cls-26" x="283.9" y="19.22" width="9.75" height="0.15"/><rect class="cls-25" x="283.9" y="19.07" width="9.75" height="0.15"/><rect class="cls-24" x="283.9" y="18.93" width="9.75" height="0.15"/><rect class="cls-23" x="283.9" y="18.78" width="9.75" height="0.15"/><rect class="cls-22" x="283.9" y="18.63" width="9.75" height="0.15"/><rect class="cls-21" x="283.9" y="18.48" width="9.75" height="0.15"/><rect class="cls-20" x="283.9" y="18.34" width="9.75" height="0.15"/><rect class="cls-19" x="283.9" y="18.19" width="9.75" height="0.15"/><rect class="cls-18" x="283.9" y="18.04" width="9.75" height="0.15"/><rect class="cls-17" x="283.9" y="17.9" width="9.75" height="0.15"/><rect class="cls-16" x="283.9" y="17.75" width="9.75" height="0.15"/></g><path class="cls-2" d="M305.27,21.25s-10.87.88-15.12,14.13,3.2,34.62,20,34.25c0,0,4.33-.25,5.83-1.5,0,0-10.75,1.62-15.62-4s-12-12.88-3.63-31.38c0,0-3.25,8.88-2.37,14.38,0,0,3.5-4.63,4.87-6.25s4.13-3.38,4.13-7.38a99.73,99.73,0,0,0-.9-10.5Z"/><path d="M10.12,39.82,26.6,60H23.5L8.08,41H2.61V60H0V20.51h2.6V38.58H8.08L21.8,20.51h3.05Z"/><path d="M55.23,56.25c-2.37,2.88-5.87,4.46-10.61,4.46S36.37,59.13,34,56.25c-3-3.67-4.06-9.26-4.06-16S31,28,34,24.29c2.37-2.87,5.87-4.46,10.62-4.46s8.24,1.59,10.61,4.46c3,3.67,4.06,9.26,4.06,16S58.22,52.58,55.23,56.25Zm-2-30.43c-1.92-2.37-4.86-3.61-8.58-3.61S38,23.45,36,25.82c-2.59,3.22-3.5,8-3.5,14.45s.91,11.24,3.5,14.46c1.92,2.37,4.86,3.61,8.59,3.61s6.66-1.24,8.58-3.61c2.59-3.22,3.5-8,3.5-14.46S55.79,29,53.2,25.82Z"/><path d="M90.69,41H69.8V60H67.2V20.51h2.6V38.64H90.69V20.51h2.59V60H90.69Z"/><path d="M105.2,56.25c-3-3.67-4.06-9.26-4.06-16s1.07-12.31,4.06-16c2.37-2.87,5.87-4.46,10.62-4.46,8.69,0,13.66,5.26,14.22,13.5h-2.65c-.51-6.89-4.35-11.12-11.57-11.12-3.73,0-6.67,1.24-8.59,3.61-2.59,3.22-3.5,8-3.5,14.45s.91,11.24,3.5,14.46c1.92,2.37,4.86,3.61,8.59,3.61,7.22,0,11.06-4.24,11.57-11.12H130c-.56,8.24-5.53,13.49-14.22,13.49C111.07,60.71,107.57,59.13,105.2,56.25Z"/><path d="M134.11,20.51h26.76v2.37H148.79V60h-2.6V22.88H134.11Z"/><path d="M179.9,20.51,194.52,60h-2.76l-3.67-10.1H169L165.34,60h-2.77l14.62-39.52ZM169.85,47.56h17.33l-8.63-23.83Z"/><path d="M223.26,41H202.37V60h-2.59V20.51h2.59V38.64h20.89V20.51h2.6V60h-2.6Z"/><path d="M231.45,20.51h26.77v2.37H246.13V60h-2.59V22.88H231.45Z"/><g class="cls-95"><rect class="cls-86" y="65.78" width="0.9" height="3.08"/><rect class="cls-85" x="0.9" y="65.78" width="0.9" height="3.08"/><rect class="cls-84" x="1.79" y="65.78" width="0.9" height="3.08"/><rect class="cls-83" x="2.69" y="65.78" width="0.9" height="3.08"/><rect class="cls-82" x="3.59" y="65.78" width="0.9" height="3.08"/><rect class="cls-81" x="4.48" y="65.78" width="0.9" height="3.08"/><rect class="cls-80" x="5.38" y="65.78" width="0.9" height="3.08"/><rect class="cls-79" x="6.28" y="65.78" width="0.9" height="3.08"/><rect class="cls-78" x="7.18" y="65.78" width="0.9" height="3.08"/><rect class="cls-77" x="8.07" y="65.78" width="0.9" height="3.08"/><rect class="cls-76" x="8.97" y="65.78" width="0.9" height="3.08"/><rect class="cls-75" x="9.87" y="65.78" width="0.9" height="3.08"/><rect class="cls-74" x="10.76" y="65.78" width="0.9" height="3.08"/><rect class="cls-73" x="11.66" y="65.78" width="0.9" height="3.08"/><rect class="cls-72" x="12.56" y="65.78" width="0.9" height="3.08"/><rect class="cls-71" x="13.45" y="65.78" width="0.9" height="3.08"/><rect class="cls-70" x="14.35" y="65.78" width="0.9" height="3.08"/><rect class="cls-69" x="15.25" y="65.78" width="0.9" height="3.08"/><rect class="cls-68" x="16.14" y="65.78" width="0.9" height="3.08"/><rect class="cls-67" x="17.04" y="65.78" width="0.9" height="3.08"/><rect class="cls-66" x="17.94" y="65.78" width="0.9" height="3.08"/><rect class="cls-65" x="18.83" y="65.78" width="0.9" height="3.08"/><rect class="cls-64" x="19.73" y="65.78" width="0.9" height="3.08"/><rect class="cls-63" x="20.63" y="65.78" width="0.9" height="3.08"/><rect class="cls-62" x="21.53" y="65.78" width="0.9" height="3.08"/><rect class="cls-61" x="22.42" y="65.78" width="0.9" height="3.08"/><rect class="cls-60" x="23.32" y="65.78" width="0.9" height="3.08"/><rect class="cls-59" x="24.22" y="65.78" width="0.9" height="3.08"/><rect class="cls-58" x="25.11" y="65.78" width="0.9" height="3.08"/><rect class="cls-57" x="26.01" y="65.78" width="0.9" height="3.08"/><rect class="cls-56" x="26.91" y="65.78" width="0.9" height="3.08"/><rect class="cls-55" x="27.8" y="65.78" width="0.9" height="3.08"/><rect class="cls-54" x="28.7" y="65.78" width="0.9" height="3.08"/><rect class="cls-53" x="29.6" y="65.78" width="0.9" height="3.08"/><rect class="cls-52" x="30.49" y="65.78" width="0.9" height="3.08"/><rect class="cls-51" x="31.39" y="65.78" width="0.9" height="3.08"/><rect class="cls-50" x="32.29" y="65.78" width="0.9" height="3.08"/><rect class="cls-49" x="33.18" y="65.78" width="0.9" height="3.08"/><rect class="cls-48" x="34.08" y="65.78" width="0.9" height="3.08"/><rect class="cls-47" x="34.98" y="65.78" width="0.9" height="3.08"/><rect class="cls-46" x="35.88" y="65.78" width="0.9" height="3.08"/><rect class="cls-45" x="36.77" y="65.78" width="0.9" height="3.08"/><rect class="cls-44" x="37.67" y="65.78" width="0.9" height="3.08"/><rect class="cls-43" x="38.57" y="65.78" width="0.9" height="3.08"/><rect class="cls-42" x="39.46" y="65.78" width="0.9" height="3.08"/><rect class="cls-41" x="40.36" y="65.78" width="0.9" height="3.08"/><rect class="cls-40" x="41.26" y="65.78" width="0.9" height="3.08"/><rect class="cls-39" x="42.15" y="65.78" width="0.9" height="3.08"/><rect class="cls-38" x="43.05" y="65.78" width="0.9" height="3.08"/><rect class="cls-37" x="43.95" y="65.78" width="0.9" height="3.08"/><rect class="cls-36" x="44.84" y="65.78" width="0.9" height="3.08"/><rect class="cls-35" x="45.74" y="65.78" width="0.9" height="3.08"/><rect class="cls-34" x="46.64" y="65.78" width="0.9" height="3.08"/><rect class="cls-33" x="47.53" y="65.78" width="0.9" height="3.08"/><rect class="cls-32" x="48.43" y="65.78" width="0.9" height="3.08"/><rect class="cls-31" x="49.33" y="65.78" width="0.9" height="3.08"/><rect class="cls-30" x="50.23" y="65.78" width="0.9" height="3.08"/><rect class="cls-29" x="51.12" y="65.78" width="0.9" height="3.08"/><rect class="cls-28" x="52.02" y="65.78" width="0.9" height="3.08"/><rect class="cls-27" x="52.92" y="65.78" width="0.9" height="3.08"/><rect class="cls-26" x="53.81" y="65.78" width="0.9" height="3.08"/><rect class="cls-25" x="54.71" y="65.78" width="0.9" height="3.08"/><rect class="cls-24" x="55.61" y="65.78" width="0.9" height="3.08"/><rect class="cls-23" x="56.5" y="65.78" width="0.9" height="3.08"/><rect class="cls-22" x="57.4" y="65.78" width="0.9" height="3.08"/><rect class="cls-21" x="58.3" y="65.78" width="0.9" height="3.08"/><rect class="cls-20" x="59.19" y="65.78" width="0.9" height="3.08"/><rect class="cls-19" x="60.09" y="65.78" width="0.9" height="3.08"/><rect class="cls-18" x="60.99" y="65.78" width="0.9" height="3.08"/><rect class="cls-17" x="61.88" y="65.78" width="0.9" height="3.08"/><rect class="cls-16" x="62.78" y="65.78" width="0.9" height="3.08"/><rect class="cls-15" x="63.68" y="65.78" width="0.9" height="3.08"/><rect class="cls-14" x="64.58" y="65.78" width="0.9" height="3.08"/><rect class="cls-13" x="65.47" y="65.78" width="0.9" height="3.08"/><rect class="cls-12" x="66.37" y="65.78" width="0.9" height="3.08"/><rect class="cls-11" x="67.27" y="65.78" width="0.9" height="3.08"/><rect class="cls-10" x="68.16" y="65.78" width="0.9" height="3.08"/><rect class="cls-9" x="69.06" y="65.78" width="0.9" height="3.08"/><rect class="cls-8" x="69.96" y="65.78" width="0.9" height="3.08"/><rect class="cls-7" x="70.85" y="65.78" width="0.9" height="3.08"/><rect class="cls-6" x="71.75" y="65.78" width="0.9" height="3.08"/><rect class="cls-5" x="72.65" y="65.78" width="0.9" height="3.08"/><rect class="cls-4" x="73.54" y="65.78" width="0.9" height="3.08"/><rect class="cls-4" x="74.44" y="65.78" width="1.04" height="3.08"/><rect class="cls-5" x="75.48" y="65.78" width="1.04" height="3.08"/><rect class="cls-6" x="76.52" y="65.78" width="1.04" height="3.08"/><rect class="cls-7" x="77.56" y="65.78" width="1.04" height="3.08"/><rect class="cls-8" x="78.59" y="65.78" width="1.04" height="3.08"/><rect class="cls-9" x="79.63" y="65.78" width="1.04" height="3.08"/><rect class="cls-10" x="80.67" y="65.78" width="1.04" height="3.08"/><rect class="cls-11" x="81.71" y="65.78" width="1.04" height="3.08"/><rect class="cls-12" x="82.75" y="65.78" width="1.04" height="3.08"/><rect class="cls-13" x="83.79" y="65.78" width="1.04" height="3.08"/><rect class="cls-14" x="84.83" y="65.78" width="1.04" height="3.08"/><rect class="cls-15" x="85.86" y="65.78" width="1.04" height="3.08"/><rect class="cls-16" x="86.9" y="65.78" width="1.04" height="3.08"/><rect class="cls-17" x="87.94" y="65.78" width="1.04" height="3.08"/><rect class="cls-18" x="88.98" y="65.78" width="1.04" height="3.08"/><rect class="cls-19" x="90.02" y="65.78" width="1.04" height="3.08"/><rect class="cls-20" x="91.06" y="65.78" width="1.04" height="3.08"/><rect class="cls-21" x="92.1" y="65.78" width="1.04" height="3.08"/><rect class="cls-22" x="93.13" y="65.78" width="1.04" height="3.08"/><rect class="cls-23" x="94.17" y="65.78" width="1.04" height="3.08"/><rect class="cls-24" x="95.21" y="65.78" width="1.04" height="3.08"/><rect class="cls-25" x="96.25" y="65.78" width="1.04" height="3.08"/><rect class="cls-26" x="97.29" y="65.78" width="1.04" height="3.08"/><rect class="cls-27" x="98.33" y="65.78" width="1.04" height="3.08"/><rect class="cls-28" x="99.36" y="65.78" width="1.04" height="3.08"/><rect class="cls-29" x="100.4" y="65.78" width="1.04" height="3.08"/><rect class="cls-30" x="101.44" y="65.78" width="1.04" height="3.08"/><rect class="cls-31" x="102.48" y="65.78" width="1.04" height="3.08"/><rect class="cls-32" x="103.52" y="65.78" width="1.04" height="3.08"/><rect class="cls-33" x="104.56" y="65.78" width="1.04" height="3.08"/><rect class="cls-34" x="105.6" y="65.78" width="1.04" height="3.08"/><rect class="cls-35" x="106.63" y="65.78" width="1.04" height="3.08"/><rect class="cls-36" x="107.67" y="65.78" width="1.04" height="3.08"/><rect class="cls-37" x="108.71" y="65.78" width="1.04" height="3.08"/><rect class="cls-38" x="109.75" y="65.78" width="1.04" height="3.08"/><rect class="cls-39" x="110.79" y="65.78" width="1.04" height="3.08"/><rect class="cls-40" x="111.83" y="65.78" width="1.04" height="3.08"/><rect class="cls-41" x="112.87" y="65.78" width="1.04" height="3.08"/><rect class="cls-42" x="113.9" y="65.78" width="1.04" height="3.08"/><rect class="cls-43" x="114.94" y="65.78" width="1.04" height="3.08"/><rect class="cls-44" x="115.98" y="65.78" width="1.04" height="3.08"/><rect class="cls-45" x="117.02" y="65.78" width="1.04" height="3.08"/><rect class="cls-46" x="118.06" y="65.78" width="1.04" height="3.08"/><rect class="cls-47" x="119.1" y="65.78" width="1.04" height="3.08"/><rect class="cls-48" x="120.13" y="65.78" width="1.04" height="3.08"/><rect class="cls-49" x="121.17" y="65.78" width="1.04" height="3.08"/><rect class="cls-50" x="122.21" y="65.78" width="1.04" height="3.08"/><rect class="cls-51" x="123.25" y="65.78" width="1.04" height="3.08"/><rect class="cls-52" x="124.29" y="65.78" width="1.04" height="3.08"/><rect class="cls-53" x="125.33" y="65.78" width="1.04" height="3.08"/><rect class="cls-54" x="126.37" y="65.78" width="1.04" height="3.08"/><rect class="cls-55" x="127.4" y="65.78" width="1.04" height="3.08"/><rect class="cls-56" x="128.44" y="65.78" width="1.04" height="3.08"/><rect class="cls-57" x="129.48" y="65.78" width="1.04" height="3.08"/><rect class="cls-58" x="130.52" y="65.78" width="1.04" height="3.08"/><rect class="cls-59" x="131.56" y="65.78" width="1.04" height="3.08"/><rect class="cls-60" x="132.6" y="65.78" width="1.04" height="3.08"/><rect class="cls-61" x="133.64" y="65.78" width="1.04" height="3.08"/><rect class="cls-62" x="134.67" y="65.78" width="1.04" height="3.08"/><rect class="cls-63" x="135.71" y="65.78" width="1.04" height="3.08"/><rect class="cls-64" x="136.75" y="65.78" width="1.04" height="3.08"/><rect class="cls-65" x="137.79" y="65.78" width="1.04" height="3.08"/><rect class="cls-66" x="138.83" y="65.78" width="1.04" height="3.08"/><rect class="cls-67" x="139.87" y="65.78" width="1.04" height="3.08"/><rect class="cls-68" x="140.9" y="65.78" width="1.04" height="3.08"/><rect class="cls-69" x="141.94" y="65.78" width="1.04" height="3.08"/><rect class="cls-70" x="142.98" y="65.78" width="1.04" height="3.08"/><rect class="cls-71" x="144.02" y="65.78" width="1.04" height="3.08"/><rect class="cls-72" x="145.06" y="65.78" width="1.04" height="3.08"/><rect class="cls-73" x="146.1" y="65.78" width="1.04" height="3.08"/><rect class="cls-74" x="147.14" y="65.78" width="1.04" height="3.08"/><rect class="cls-75" x="148.17" y="65.78" width="1.04" height="3.08"/><rect class="cls-76" x="149.21" y="65.78" width="1.04" height="3.08"/><rect class="cls-77" x="150.25" y="65.78" width="1.04" height="3.08"/><rect class="cls-78" x="151.29" y="65.78" width="1.04" height="3.08"/><rect class="cls-79" x="152.33" y="65.78" width="1.04" height="3.08"/><rect class="cls-80" x="153.37" y="65.78" width="1.04" height="3.08"/><rect class="cls-81" x="154.4" y="65.78" width="1.04" height="3.08"/><rect class="cls-82" x="155.44" y="65.78" width="1.04" height="3.08"/><rect class="cls-83" x="156.48" y="65.78" width="1.04" height="3.08"/><rect class="cls-84" x="157.52" y="65.78" width="1.04" height="3.08"/><rect class="cls-85" x="158.56" y="65.78" width="1.04" height="3.08"/><rect class="cls-86" x="159.6" y="65.78" width="1.04" height="3.08"/><rect class="cls-86" x="160.64" y="65.78" width="0.85" height="3.08"/><rect class="cls-83" x="161.49" y="65.78" width="0.85" height="3.08"/><rect class="cls-96" x="162.35" y="65.78" width="0.85" height="3.08"/><rect class="cls-97" x="163.2" y="65.78" width="0.85" height="3.08"/><rect class="cls-98" x="164.06" y="65.78" width="0.85" height="3.08"/><rect class="cls-99" x="164.91" y="65.78" width="0.85" height="3.08"/><rect class="cls-100" x="165.76" y="65.78" width="0.85" height="3.08"/><rect class="cls-101" x="166.62" y="65.78" width="0.85" height="3.08"/><rect class="cls-102" x="167.47" y="65.78" width="0.85" height="3.08"/><rect class="cls-103" x="168.33" y="65.78" width="0.85" height="3.08"/><rect class="cls-104" x="169.18" y="65.78" width="0.85" height="3.08"/><rect class="cls-105" x="170.04" y="65.78" width="0.85" height="3.08"/><rect class="cls-106" x="170.89" y="65.78" width="0.85" height="3.08"/><rect class="cls-107" x="171.75" y="65.78" width="0.85" height="3.08"/><rect class="cls-108" x="172.6" y="65.78" width="0.85" height="3.08"/><rect class="cls-109" x="173.46" y="65.78" width="0.85" height="3.08"/><rect class="cls-110" x="174.31" y="65.78" width="0.85" height="3.08"/><rect class="cls-111" x="175.17" y="65.78" width="0.85" height="3.08"/><rect class="cls-112" x="176.02" y="65.78" width="0.85" height="3.08"/><rect class="cls-113" x="176.88" y="65.78" width="0.85" height="3.08"/><rect class="cls-114" x="177.73" y="65.78" width="0.85" height="3.08"/><rect class="cls-115" x="178.59" y="65.78" width="0.85" height="3.08"/><rect class="cls-116" x="179.44" y="65.78" width="0.85" height="3.08"/><rect class="cls-117" x="180.3" y="65.78" width="0.85" height="3.08"/><rect class="cls-118" x="181.15" y="65.78" width="0.85" height="3.08"/><rect class="cls-119" x="182.01" y="65.78" width="0.85" height="3.08"/><rect class="cls-120" x="182.86" y="65.78" width="0.85" height="3.08"/><rect class="cls-121" x="183.72" y="65.78" width="0.85" height="3.08"/><rect class="cls-122" x="184.57" y="65.78" width="0.85" height="3.08"/><rect class="cls-123" x="185.43" y="65.78" width="0.85" height="3.08"/><rect class="cls-124" x="186.28" y="65.78" width="0.85" height="3.08"/><rect class="cls-125" x="187.14" y="65.78" width="0.85" height="3.08"/><rect class="cls-126" x="187.99" y="65.78" width="0.85" height="3.08"/><rect class="cls-127" x="188.85" y="65.78" width="0.85" height="3.08"/><rect class="cls-128" x="189.7" y="65.78" width="0.85" height="3.08"/><rect class="cls-129" x="190.55" y="65.78" width="0.85" height="3.08"/><rect class="cls-130" x="191.41" y="65.78" width="0.85" height="3.08"/><rect class="cls-131" x="192.26" y="65.78" width="0.85" height="3.08"/><rect class="cls-132" x="193.12" y="65.78" width="0.85" height="3.08"/><rect class="cls-133" x="193.97" y="65.78" width="0.85" height="3.08"/><rect class="cls-134" x="194.83" y="65.78" width="0.85" height="3.08"/><rect class="cls-135" x="195.68" y="65.78" width="0.85" height="3.08"/><rect class="cls-136" x="196.54" y="65.78" width="0.85" height="3.08"/><rect class="cls-137" x="197.39" y="65.78" width="0.85" height="3.08"/><rect class="cls-138" x="198.25" y="65.78" width="0.85" height="3.08"/><rect class="cls-139" x="199.1" y="65.78" width="0.85" height="3.08"/><rect class="cls-140" x="199.96" y="65.78" width="0.85" height="3.08"/><rect class="cls-141" x="200.81" y="65.78" width="0.85" height="3.08"/><rect class="cls-142" x="201.67" y="65.78" width="0.85" height="3.08"/><rect class="cls-143" x="202.52" y="65.78" width="0.85" height="3.08"/><rect class="cls-144" x="203.38" y="65.78" width="0.85" height="3.08"/><rect class="cls-145" x="204.23" y="65.78" width="0.85" height="3.08"/><rect class="cls-146" x="205.09" y="65.78" width="0.85" height="3.08"/><rect class="cls-146" x="205.94" y="65.78" width="0.85" height="3.08"/><rect class="cls-147" x="206.8" y="65.78" width="0.85" height="3.08"/><rect class="cls-148" x="207.65" y="65.78" width="0.85" height="3.08"/><rect class="cls-149" x="208.51" y="65.78" width="0.85" height="3.08"/><rect class="cls-150" x="209.36" y="65.78" width="0.85" height="3.08"/><rect class="cls-151" x="210.22" y="65.78" width="0.85" height="3.08"/><rect class="cls-152" x="211.07" y="65.78" width="0.85" height="3.08"/><rect class="cls-153" x="211.93" y="65.78" width="0.85" height="3.08"/><rect class="cls-154" x="212.78" y="65.78" width="0.85" height="3.08"/><rect class="cls-155" x="213.64" y="65.78" width="0.85" height="3.08"/><rect class="cls-156" x="214.49" y="65.78" width="0.85" height="3.08"/><rect class="cls-157" x="215.34" y="65.78" width="0.85" height="3.08"/><rect class="cls-158" x="216.2" y="65.78" width="0.85" height="3.08"/><rect class="cls-159" x="217.05" y="65.78" width="0.85" height="3.08"/><rect class="cls-160" x="217.91" y="65.78" width="0.85" height="3.08"/><rect class="cls-161" x="218.76" y="65.78" width="0.85" height="3.08"/><rect class="cls-162" x="219.62" y="65.78" width="0.85" height="3.08"/><rect class="cls-163" x="220.47" y="65.78" width="0.85" height="3.08"/><rect class="cls-164" x="221.33" y="65.78" width="0.85" height="3.08"/><rect class="cls-165" x="222.18" y="65.78" width="0.85" height="3.08"/><rect class="cls-166" x="223.04" y="65.78" width="0.85" height="3.08"/><rect class="cls-167" x="223.89" y="65.78" width="0.85" height="3.08"/><rect class="cls-168" x="224.75" y="65.78" width="0.85" height="3.08"/><rect class="cls-168" x="225.6" y="65.78" width="0.85" height="3.08"/><rect class="cls-168" x="226.46" y="65.78" width="0.85" height="3.08"/><rect class="cls-169" x="227.31" y="65.78" width="0.85" height="3.08"/><rect class="cls-170" x="228.17" y="65.78" width="0.85" height="3.08"/><rect class="cls-170" x="229.02" y="65.78" width="0.85" height="3.08"/><rect class="cls-170" x="229.88" y="65.78" width="0.85" height="3.08"/><rect class="cls-171" x="230.73" y="65.78" width="0.85" height="3.08"/><rect class="cls-171" x="231.59" y="65.78" width="0.85" height="3.08"/><rect class="cls-172" x="232.44" y="65.78" width="0.85" height="3.08"/><rect class="cls-172" x="233.3" y="65.78" width="0.85" height="3.08"/><rect class="cls-172" x="234.15" y="65.78" width="0.85" height="3.08"/><rect class="cls-173" x="235.01" y="65.78" width="0.85" height="3.08"/><rect class="cls-173" x="235.86" y="65.78" width="0.85" height="3.08"/><rect class="cls-173" x="236.72" y="65.78" width="0.85" height="3.08"/><rect class="cls-173" x="237.57" y="65.78" width="0.85" height="3.08"/><rect class="cls-173" x="238.42" y="65.78" width="0.85" height="3.08"/><rect class="cls-174" x="239.28" y="65.78" width="0.85" height="3.08"/><rect class="cls-175" x="240.13" y="65.78" width="0.85" height="3.08"/><rect class="cls-2" x="240.99" y="65.78" width="0.85" height="3.08"/><rect class="cls-2" x="241.84" y="65.78" width="0.85" height="3.08"/><rect class="cls-2" x="242.7" y="65.78" width="0.85" height="3.08"/><rect class="cls-2" x="243.55" y="65.78" width="0.85" height="3.08"/><rect class="cls-2" x="244.41" y="65.78" width="0.85" height="3.08"/><rect class="cls-2" x="245.26" y="65.78" width="0.85" height="3.08"/><rect class="cls-2" x="246.12" y="65.78" width="0.85" height="3.08"/><rect class="cls-2" x="246.97" y="65.78" width="0.85" height="3.08"/><rect class="cls-2" x="247.83" y="65.78" width="0.85" height="3.08"/><rect class="cls-2" x="248.68" y="65.78" width="0.85" height="3.08"/><rect class="cls-2" x="249.54" y="65.78" width="0.85" height="3.08"/><rect class="cls-2" x="250.39" y="65.78" width="0.85" height="3.08"/><rect class="cls-2" x="251.25" y="65.78" width="0.85" height="3.08"/><rect class="cls-2" x="252.1" y="65.78" width="0.85" height="3.08"/><rect class="cls-2" x="252.96" y="65.78" width="0.85" height="3.08"/><rect class="cls-2" x="253.81" y="65.78" width="0.85" height="3.08"/></g></svg>