<svg id="Слой_1" data-name="Слой 1" xmlns="http://www.w3.org/2000/svg" xmlns:xlink="http://www.w3.org/1999/xlink" viewBox="0 0 192.33 68.25"><defs><style>.cls-1{fill:none;}.cls-2{clip-path:url(#clip-path);}.cls-3{fill:#cca93f;}.cls-4{fill:#ccaa40;}.cls-5{fill:#cdab40;}.cls-6{fill:#ceac41;}.cls-7{fill:#cead42;}.cls-8{fill:#cfae43;}.cls-9{fill:#d0af44;}.cls-10{fill:#d0b045;}.cls-11{fill:#d1b145;}.cls-12{fill:#d2b246;}.cls-13{fill:#d3b447;}.cls-14{fill:#d3b548;}.cls-15{fill:#d4b649;}.cls-16{fill:#d5b749;}.cls-17{fill:#d5b84a;}.cls-18{fill:#d6b94b;}.cls-19{fill:#d7ba4c;}.cls-20{fill:#d7bb4d;}.cls-21{fill:#d8bc4e;}.cls-22{fill:#d9bd4e;}.cls-23{fill:#d9be4f;}.cls-24{fill:#dabf50;}.cls-25{fill:#dbc051;}.cls-26{fill:#dbc152;}.cls-27{fill:#dcc253;}.cls-28{fill:#ddc353;}.cls-29{fill:#ddc454;}.cls-30{fill:#dec555;}.cls-31{fill:#dfc656;}.cls-32{fill:#dfc757;}.cls-33{fill:#e0c858;}.cls-34{fill:#e1c958;}.cls-35{fill:#e1ca59;}.cls-36{fill:#e2cb5a;}.cls-37{fill:#e3cc5b;}.cls-38{fill:#e3cd5c;}.cls-39{fill:#e4ce5d;}.cls-40{fill:#e5cf5d;}.cls-41{fill:#e5d05e;}.cls-42{fill:#e6d15f;}.cls-43{fill:#e7d260;}.cls-44{fill:#e7d361;}.cls-45{fill:#e8d462;}.cls-46{fill:#e9d562;}.cls-47{fill:#e9d663;}.cls-48{fill:#eedd69;}.cls-49{fill:#eddc68;}.cls-50{fill:#eddb67;}.cls-51{fill:#ecda67;}.cls-52{fill:#ebd966;}.cls-53{fill:#ebd865;}.cls-54{fill:#ead764;}.cls-55{fill:#cba83e;}.cls-56{fill:#caa73d;}.cls-57{fill:#caa63c;}.cls-58{fill:#c9a53b;}.cls-59{fill:#c8a43b;}.cls-60{fill:#c8a33a;}.cls-61{fill:#c7a239;}.cls-62{fill:#c6a138;}.cls-63{fill:#c6a037;}.cls-64{fill:#c59f36;}.cls-65{fill:#c49e36;}.cls-66{fill:#c49d35;}.cls-67{fill:#c39c34;}.cls-68{fill:#c29b33;}.cls-69{fill:#c29a32;}.cls-70{fill:#c19931;}.cls-71{fill:#c09831;}.cls-72{fill:#c09730;}.cls-73{fill:#bf962f;}.cls-74{fill:#be952e;}.cls-75{fill:#be942d;}.cls-76{fill:#bd932c;}.cls-77{fill:#bc922c;}.cls-78{fill:#bc912b;}.cls-79{fill:#bb902a;}.cls-80{fill:#ba8f29;}.cls-81{fill:#ba8e28;}.cls-82{fill:#b98d27;}.cls-83{fill:#b88c27;}.cls-84{fill:#b88b26;}.cls-85{fill:#b78a25;}.cls-86{clip-path:url(#clip-path-2);}.cls-87{fill:#d6b94c;}.cls-88{fill:#d6b84b;}.cls-89{fill:#d5b74a;}.cls-90{fill:#d4b64a;}.cls-91{fill:#d4b549;}.cls-92{fill:#d3b448;}.cls-93{fill:#d2b347;}.cls-94{clip-path:url(#clip-path-3);}</style><clipPath id="clip-path"><path class="cls-1" d="M61.25,5S19,3.25,5.5,44.5c0,0-4.75-20,10.5-30l.5-6.25a34.52,34.52,0,0,0-15.25,29S0,52.75,16.5,52.75,40.25,35.25,40.25,30.5s-1.5-13-3.25-16c0,0,49-14.5,73.5,22.75,0,0-23.25-19.25-37.5-20.5,0,0,12,10.5,14.25,16.75s7,19.25,23.25,21.5S131,56.5,133,68.25C133,68.25,139,5,61.25,5ZM7.33,45.42s3.89-18.5,20.5-25.5c0,0,6.5,2.66,6.17,12.83S19.67,56.08,7.33,45.42Z"/></clipPath><clipPath id="clip-path-2"><path class="cls-1" d="M95.17,5a51.35,51.35,0,0,1,19.16,11.59c9,8.67,22.17,19.17,31.84,19.17,7.45,0,11.73-3.37,2.23-13.15a58.49,58.49,0,0,0-32.95-17A82.79,82.79,0,0,0,95.17,5Z"/></clipPath><clipPath id="clip-path-3"><path class="cls-1" d="M129,4.64s8.33,2.94,23.5,11.61,18.33,8.83,23.17,8.83,15.83-4.16,16.66-6.83C192.33,18.25,177.83,11,129,4.64Z"/></clipPath></defs><title>logo</title><g class="cls-2"><rect class="cls-3" x="33.75" y="19.92" width="0.59" height="36.17"/><rect class="cls-4" x="33.14" y="19.92" width="0.61" height="36.17"/><rect class="cls-5" x="32.53" y="19.92" width="0.61" height="36.17"/><rect class="cls-6" x="31.91" y="19.92" width="0.61" height="36.17"/><rect class="cls-7" x="31.3" y="19.92" width="0.61" height="36.17"/><rect class="cls-8" x="30.69" y="19.92" width="0.61" height="36.17"/><rect class="cls-9" x="30.08" y="19.92" width="0.61" height="36.17"/><rect class="cls-10" x="29.47" y="19.92" width="0.61" height="36.17"/><rect class="cls-11" x="28.86" y="19.92" width="0.61" height="36.17"/><rect class="cls-12" x="28.25" y="19.92" width="0.61" height="36.17"/><rect class="cls-13" x="27.64" y="19.92" width="0.61" height="36.17"/><rect class="cls-14" x="27.03" y="19.92" width="0.61" height="36.17"/><rect class="cls-15" x="26.41" y="19.92" width="0.61" height="36.17"/><rect class="cls-16" x="25.8" y="19.92" width="0.61" height="36.17"/><rect class="cls-17" x="25.19" y="19.92" width="0.61" height="36.17"/><rect class="cls-18" x="24.58" y="19.92" width="0.61" height="36.17"/><rect class="cls-19" x="23.97" y="19.92" width="0.61" height="36.17"/><rect class="cls-20" x="23.36" y="19.92" width="0.61" height="36.17"/><rect class="cls-21" x="22.75" y="19.92" width="0.61" height="36.17"/><rect class="cls-22" x="22.14" y="19.92" width="0.61" height="36.17"/><rect class="cls-23" x="21.53" y="19.92" width="0.61" height="36.17"/><rect class="cls-24" x="20.91" y="19.92" width="0.61" height="36.17"/><rect class="cls-25" x="20.3" y="19.92" width="0.61" height="36.17"/><rect class="cls-26" x="19.69" y="19.92" width="0.61" height="36.17"/><rect class="cls-27" x="19.08" y="19.92" width="0.61" height="36.17"/><rect class="cls-28" x="18.47" y="19.92" width="0.61" height="36.17"/><rect class="cls-29" x="17.86" y="19.92" width="0.61" height="36.17"/><rect class="cls-30" x="17.25" y="19.92" width="0.61" height="36.17"/><rect class="cls-31" x="16.64" y="19.92" width="0.61" height="36.17"/><rect class="cls-32" x="16.03" y="19.92" width="0.61" height="36.17"/><rect class="cls-33" x="15.41" y="19.92" width="0.61" height="36.17"/><rect class="cls-34" x="14.8" y="19.92" width="0.61" height="36.17"/><rect class="cls-35" x="14.19" y="19.92" width="0.61" height="36.17"/><rect class="cls-36" x="13.58" y="19.92" width="0.61" height="36.17"/><rect class="cls-37" x="12.97" y="19.92" width="0.61" height="36.17"/><rect class="cls-38" x="12.36" y="19.92" width="0.61" height="36.17"/><rect class="cls-39" x="11.75" y="19.92" width="0.61" height="36.17"/><rect class="cls-40" x="11.14" y="19.92" width="0.61" height="36.17"/><rect class="cls-41" x="10.53" y="19.92" width="0.61" height="36.17"/><rect class="cls-42" x="9.91" y="19.92" width="0.61" height="36.17"/><rect class="cls-43" x="9.3" y="19.92" width="0.61" height="36.17"/><rect class="cls-44" x="8.69" y="19.92" width="0.61" height="36.17"/><rect class="cls-45" x="8.08" y="19.92" width="0.61" height="36.17"/><rect class="cls-46" x="7.47" y="19.92" width="0.61" height="36.17"/><rect class="cls-47" x="7.33" y="19.92" width="0.14" height="36.17"/><rect class="cls-48" x="133.11" width="5.89" height="68.25"/><rect class="cls-48" x="132.15" width="0.96" height="68.25"/><rect class="cls-49" x="131.18" width="0.96" height="68.25"/><rect class="cls-50" x="130.22" width="0.96" height="68.25"/><rect class="cls-51" x="129.26" width="0.96" height="68.25"/><rect class="cls-52" x="128.3" width="0.96" height="68.25"/><rect class="cls-53" x="127.34" width="0.96" height="68.25"/><rect class="cls-54" x="126.38" width="0.96" height="68.25"/><rect class="cls-47" x="125.42" width="0.96" height="68.25"/><rect class="cls-46" x="124.45" width="0.96" height="68.25"/><rect class="cls-45" x="123.49" width="0.96" height="68.25"/><rect class="cls-44" x="122.53" width="0.96" height="68.25"/><rect class="cls-43" x="121.57" width="0.96" height="68.25"/><rect class="cls-42" x="120.61" width="0.96" height="68.25"/><rect class="cls-41" x="119.65" width="0.96" height="68.25"/><rect class="cls-40" x="118.68" width="0.96" height="68.25"/><rect class="cls-39" x="117.72" width="0.96" height="68.25"/><rect class="cls-38" x="116.76" width="0.96" height="68.25"/><rect class="cls-37" x="115.8" width="0.96" height="68.25"/><rect class="cls-36" x="114.84" width="0.96" height="68.25"/><rect class="cls-35" x="113.88" width="0.96" height="68.25"/><rect class="cls-34" x="112.92" width="0.96" height="68.25"/><rect class="cls-33" x="111.95" width="0.96" height="68.25"/><rect class="cls-32" x="110.99" width="0.96" height="68.25"/><rect class="cls-31" x="110.03" width="0.96" height="68.25"/><rect class="cls-30" x="109.07" width="0.96" height="68.25"/><rect class="cls-29" x="108.11" width="0.96" height="68.25"/><rect class="cls-28" x="107.15" width="0.96" height="68.25"/><rect class="cls-27" x="106.19" width="0.96" height="68.25"/><rect class="cls-26" x="105.22" width="0.96" height="68.25"/><rect class="cls-25" x="104.26" width="0.96" height="68.25"/><rect class="cls-24" x="103.3" width="0.96" height="68.25"/><rect class="cls-23" x="102.34" width="0.96" height="68.25"/><rect class="cls-22" x="101.38" width="0.96" height="68.25"/><rect class="cls-21" x="100.42" width="0.96" height="68.25"/><rect class="cls-20" x="99.46" width="0.96" height="68.25"/><rect class="cls-19" x="98.49" width="0.96" height="68.25"/><rect class="cls-18" x="97.53" width="0.96" height="68.25"/><rect class="cls-17" x="96.57" width="0.96" height="68.25"/><rect class="cls-16" x="95.61" width="0.96" height="68.25"/><rect class="cls-15" x="94.65" width="0.96" height="68.25"/><rect class="cls-14" x="93.69" width="0.96" height="68.25"/><rect class="cls-13" x="92.72" width="0.96" height="68.25"/><rect class="cls-12" x="91.76" width="0.96" height="68.25"/><rect class="cls-11" x="90.8" width="0.96" height="68.25"/><rect class="cls-10" x="89.84" width="0.96" height="68.25"/><rect class="cls-9" x="88.88" width="0.96" height="68.25"/><rect class="cls-8" x="87.92" width="0.96" height="68.25"/><rect class="cls-7" x="86.96" width="0.96" height="68.25"/><rect class="cls-6" x="85.99" width="0.96" height="68.25"/><rect class="cls-5" x="85.03" width="0.96" height="68.25"/><rect class="cls-4" x="84.07" width="0.96" height="68.25"/><rect class="cls-3" x="83.11" width="0.96" height="68.25"/><rect class="cls-55" x="82.15" width="0.96" height="68.25"/><rect class="cls-56" x="81.19" width="0.96" height="68.25"/><rect class="cls-57" x="80.23" width="0.96" height="68.25"/><rect class="cls-58" x="79.26" width="0.96" height="68.25"/><rect class="cls-59" x="78.3" width="0.96" height="68.25"/><rect class="cls-60" x="77.34" width="0.96" height="68.25"/><rect class="cls-61" x="76.38" width="0.96" height="68.25"/><rect class="cls-62" x="75.42" width="0.96" height="68.25"/><rect class="cls-63" x="74.46" width="0.96" height="68.25"/><rect class="cls-64" x="73.49" width="0.96" height="68.25"/><rect class="cls-65" x="72.53" width="0.96" height="68.25"/><rect class="cls-66" x="71.57" width="0.96" height="68.25"/><rect class="cls-67" x="70.61" width="0.96" height="68.25"/><rect class="cls-68" x="69.65" width="0.96" height="68.25"/><rect class="cls-69" x="68.69" width="0.96" height="68.25"/><rect class="cls-70" x="67.73" width="0.96" height="68.25"/><rect class="cls-71" x="66.76" width="0.96" height="68.25"/><rect class="cls-72" x="65.8" width="0.96" height="68.25"/><rect class="cls-73" x="64.84" width="0.96" height="68.25"/><rect class="cls-74" x="63.88" width="0.96" height="68.25"/><rect class="cls-75" x="62.92" width="0.96" height="68.25"/><rect class="cls-76" x="61.96" width="0.96" height="68.25"/><rect class="cls-77" x="61" width="0.96" height="68.25"/><rect class="cls-78" x="60.03" width="0.96" height="68.25"/><rect class="cls-79" x="59.07" width="0.96" height="68.25"/><rect class="cls-80" x="58.11" width="0.96" height="68.25"/><rect class="cls-81" x="57.15" width="0.96" height="68.25"/><rect class="cls-82" x="56.19" width="0.96" height="68.25"/><rect class="cls-83" x="55.23" width="0.96" height="68.25"/><rect class="cls-84" x="54.27" width="0.96" height="68.25"/><rect class="cls-85" x="53.3" width="0.96" height="68.25"/><rect class="cls-85" x="52.69" width="0.61" height="68.25"/><rect class="cls-84" x="52.08" width="0.61" height="68.25"/><rect class="cls-83" x="51.47" width="0.61" height="68.25"/><rect class="cls-82" x="50.86" width="0.61" height="68.25"/><rect class="cls-81" x="50.25" width="0.61" height="68.25"/><rect class="cls-80" x="49.64" width="0.61" height="68.25"/><rect class="cls-79" x="49.03" width="0.61" height="68.25"/><rect class="cls-78" x="48.41" width="0.61" height="68.25"/><rect class="cls-77" x="47.8" width="0.61" height="68.25"/><rect class="cls-76" x="47.19" width="0.61" height="68.25"/><rect class="cls-75" x="46.58" width="0.61" height="68.25"/><rect class="cls-74" x="45.97" width="0.61" height="68.25"/><rect class="cls-73" x="45.36" width="0.61" height="68.25"/><rect class="cls-72" x="44.75" width="0.61" height="68.25"/><rect class="cls-71" x="44.14" width="0.61" height="68.25"/><rect class="cls-70" x="43.53" width="0.61" height="68.25"/><rect class="cls-69" x="42.91" width="0.61" height="68.25"/><rect class="cls-68" x="42.3" width="0.61" height="68.25"/><rect class="cls-67" x="41.69" width="0.61" height="68.25"/><rect class="cls-66" x="41.08" width="0.61" height="68.25"/><rect class="cls-65" x="40.47" width="0.61" height="68.25"/><rect class="cls-64" x="39.86" width="0.61" height="68.25"/><rect class="cls-63" x="39.25" width="0.61" height="68.25"/><rect class="cls-62" x="38.64" width="0.61" height="68.25"/><rect class="cls-61" x="38.03" width="0.61" height="68.25"/><rect class="cls-60" x="37.41" width="0.61" height="68.25"/><rect class="cls-59" x="36.8" width="0.61" height="68.25"/><rect class="cls-58" x="36.19" width="0.61" height="68.25"/><rect class="cls-57" x="35.58" width="0.61" height="68.25"/><rect class="cls-56" x="34.97" width="0.61" height="68.25"/><rect class="cls-55" x="34.36" width="0.61" height="68.25"/><rect class="cls-3" x="33.75" width="0.61" height="68.25"/><rect class="cls-4" x="33.14" width="0.61" height="68.25"/><rect class="cls-5" x="32.53" width="0.61" height="68.25"/><rect class="cls-6" x="31.91" width="0.61" height="68.25"/><rect class="cls-7" x="31.3" width="0.61" height="68.25"/><rect class="cls-8" x="30.69" width="0.61" height="68.25"/><rect class="cls-9" x="30.08" width="0.61" height="68.25"/><rect class="cls-10" x="29.47" width="0.61" height="68.25"/><rect class="cls-11" x="28.86" width="0.61" height="68.25"/><rect class="cls-12" x="28.25" width="0.61" height="68.25"/><rect class="cls-13" x="27.64" width="0.61" height="68.25"/><rect class="cls-14" x="27.03" width="0.61" height="68.25"/><rect class="cls-15" x="26.41" width="0.61" height="68.25"/><rect class="cls-16" x="25.8" width="0.61" height="68.25"/><rect class="cls-17" x="25.19" width="0.61" height="68.25"/><rect class="cls-18" x="24.58" width="0.61" height="68.25"/><rect class="cls-19" x="23.97" width="0.61" height="68.25"/><rect class="cls-20" x="23.36" width="0.61" height="68.25"/><rect class="cls-21" x="22.75" width="0.61" height="68.25"/><rect class="cls-22" x="22.14" width="0.61" height="68.25"/><rect class="cls-23" x="21.53" width="0.61" height="68.25"/><rect class="cls-24" x="20.91" width="0.61" height="68.25"/><rect class="cls-25" x="20.3" width="0.61" height="68.25"/><rect class="cls-26" x="19.69" width="0.61" height="68.25"/><rect class="cls-27" x="19.08" width="0.61" height="68.25"/><rect class="cls-28" x="18.47" width="0.61" height="68.25"/><rect class="cls-29" x="17.86" width="0.61" height="68.25"/><rect class="cls-30" x="17.25" width="0.61" height="68.25"/><rect class="cls-31" x="16.64" width="0.61" height="68.25"/><rect class="cls-32" x="16.03" width="0.61" height="68.25"/><rect class="cls-33" x="15.41" width="0.61" height="68.25"/><rect class="cls-34" x="14.8" width="0.61" height="68.25"/><rect class="cls-35" x="14.19" width="0.61" height="68.25"/><rect class="cls-36" x="13.58" width="0.61" height="68.25"/><rect class="cls-37" x="12.97" width="0.61" height="68.25"/><rect class="cls-38" x="12.36" width="0.61" height="68.25"/><rect class="cls-39" x="11.75" width="0.61" height="68.25"/><rect class="cls-40" x="11.14" width="0.61" height="68.25"/><rect class="cls-41" x="10.53" width="0.61" height="68.25"/><rect class="cls-42" x="9.91" width="0.61" height="68.25"/><rect class="cls-43" x="9.3" width="0.61" height="68.25"/><rect class="cls-44" x="8.69" width="0.61" height="68.25"/><rect class="cls-45" x="8.08" width="0.61" height="68.25"/><rect class="cls-46" x="7.47" width="0.61" height="68.25"/><rect class="cls-47" x="6.86" width="0.61" height="68.25"/><rect class="cls-54" x="6.25" width="0.61" height="68.25"/><rect class="cls-53" x="5.64" width="0.61" height="68.25"/><rect class="cls-52" x="5.03" width="0.61" height="68.25"/><rect class="cls-51" x="4.41" width="0.61" height="68.25"/><rect class="cls-50" x="3.8" width="0.61" height="68.25"/><rect class="cls-49" x="3.19" width="0.61" height="68.25"/><rect class="cls-48" x="2.58" width="0.61" height="68.25"/><rect class="cls-48" width="2.58" height="68.25"/></g><g class="cls-86"><rect class="cls-85" x="95.17" y="4.29" width="0.39" height="31.46"/><rect class="cls-84" x="95.55" y="4.29" width="0.39" height="31.46"/><rect class="cls-83" x="95.94" y="4.29" width="0.39" height="31.46"/><rect class="cls-82" x="96.33" y="4.29" width="0.39" height="31.46"/><rect class="cls-81" x="96.72" y="4.29" width="0.39" height="31.46"/><rect class="cls-80" x="97.11" y="4.29" width="0.39" height="31.46"/><rect class="cls-79" x="97.5" y="4.29" width="0.39" height="31.46"/><rect class="cls-78" x="97.88" y="4.29" width="0.39" height="31.46"/><rect class="cls-77" x="98.27" y="4.29" width="0.39" height="31.46"/><rect class="cls-76" x="98.66" y="4.29" width="0.39" height="31.46"/><rect class="cls-75" x="99.05" y="4.29" width="0.39" height="31.46"/><rect class="cls-74" x="99.44" y="4.29" width="0.39" height="31.46"/><rect class="cls-73" x="99.82" y="4.29" width="0.39" height="31.46"/><rect class="cls-72" x="100.21" y="4.29" width="0.39" height="31.46"/><rect class="cls-71" x="100.6" y="4.29" width="0.39" height="31.46"/><rect class="cls-70" x="100.99" y="4.29" width="0.39" height="31.46"/><rect class="cls-69" x="101.38" y="4.29" width="0.39" height="31.46"/><rect class="cls-68" x="101.76" y="4.29" width="0.39" height="31.46"/><rect class="cls-67" x="102.15" y="4.29" width="0.39" height="31.46"/><rect class="cls-66" x="102.54" y="4.29" width="0.39" height="31.46"/><rect class="cls-65" x="102.93" y="4.29" width="0.39" height="31.46"/><rect class="cls-64" x="103.32" y="4.29" width="0.39" height="31.46"/><rect class="cls-63" x="103.7" y="4.29" width="0.39" height="31.46"/><rect class="cls-62" x="104.09" y="4.29" width="0.39" height="31.46"/><rect class="cls-61" x="104.48" y="4.29" width="0.39" height="31.46"/><rect class="cls-60" x="104.87" y="4.29" width="0.39" height="31.46"/><rect class="cls-59" x="105.26" y="4.29" width="0.39" height="31.46"/><rect class="cls-58" x="105.64" y="4.29" width="0.39" height="31.46"/><rect class="cls-57" x="106.03" y="4.29" width="0.39" height="31.46"/><rect class="cls-56" x="106.42" y="4.29" width="0.39" height="31.46"/><rect class="cls-55" x="106.81" y="4.29" width="0.39" height="31.46"/><rect class="cls-3" x="107.2" y="4.29" width="0.39" height="31.46"/><rect class="cls-4" x="107.58" y="4.29" width="0.39" height="31.46"/><rect class="cls-5" x="107.97" y="4.29" width="0.39" height="31.46"/><rect class="cls-6" x="108.36" y="4.29" width="0.39" height="31.46"/><rect class="cls-7" x="108.75" y="4.29" width="0.39" height="31.46"/><rect class="cls-8" x="109.14" y="4.29" width="0.39" height="31.46"/><rect class="cls-9" x="109.53" y="4.29" width="0.39" height="31.46"/><rect class="cls-10" x="109.91" y="4.29" width="0.39" height="31.46"/><rect class="cls-11" x="110.3" y="4.29" width="0.39" height="31.46"/><rect class="cls-12" x="110.69" y="4.29" width="0.39" height="31.46"/><rect class="cls-13" x="111.08" y="4.29" width="0.39" height="31.46"/><rect class="cls-14" x="111.47" y="4.29" width="0.39" height="31.46"/><rect class="cls-15" x="111.85" y="4.29" width="0.39" height="31.46"/><rect class="cls-16" x="112.24" y="4.29" width="0.39" height="31.46"/><rect class="cls-17" x="112.63" y="4.29" width="0.39" height="31.46"/><rect class="cls-18" x="113.02" y="4.29" width="0.39" height="31.46"/><rect class="cls-19" x="113.41" y="4.29" width="0.39" height="31.46"/><rect class="cls-20" x="113.79" y="4.29" width="0.39" height="31.46"/><rect class="cls-21" x="114.18" y="4.29" width="0.39" height="31.46"/><rect class="cls-22" x="114.57" y="4.29" width="0.39" height="31.46"/><rect class="cls-23" x="114.96" y="4.29" width="0.39" height="31.46"/><rect class="cls-24" x="115.35" y="4.29" width="0.39" height="31.46"/><rect class="cls-25" x="115.73" y="4.29" width="0.39" height="31.46"/><rect class="cls-26" x="116.12" y="4.29" width="0.39" height="31.46"/><rect class="cls-27" x="116.51" y="4.29" width="0.39" height="31.46"/><rect class="cls-28" x="116.9" y="4.29" width="0.39" height="31.46"/><rect class="cls-29" x="117.29" y="4.29" width="0.39" height="31.46"/><rect class="cls-30" x="117.67" y="4.29" width="0.39" height="31.46"/><rect class="cls-31" x="118.06" y="4.29" width="0.39" height="31.46"/><rect class="cls-32" x="118.45" y="4.29" width="0.39" height="31.46"/><rect class="cls-33" x="118.84" y="4.29" width="0.39" height="31.46"/><rect class="cls-34" x="119.23" y="4.29" width="0.39" height="31.46"/><rect class="cls-35" x="119.62" y="4.29" width="0.39" height="31.46"/><rect class="cls-36" x="120" y="4.29" width="0.39" height="31.46"/><rect class="cls-37" x="120.39" y="4.29" width="0.39" height="31.46"/><rect class="cls-38" x="120.78" y="4.29" width="0.39" height="31.46"/><rect class="cls-39" x="121.17" y="4.29" width="0.39" height="31.46"/><rect class="cls-40" x="121.56" y="4.29" width="0.39" height="31.46"/><rect class="cls-41" x="121.94" y="4.29" width="0.39" height="31.46"/><rect class="cls-42" x="122.33" y="4.29" width="0.39" height="31.46"/><rect class="cls-43" x="122.72" y="4.29" width="0.39" height="31.46"/><rect class="cls-44" x="123.11" y="4.29" width="0.39" height="31.46"/><rect class="cls-45" x="123.5" y="4.29" width="0.39" height="31.46"/><rect class="cls-46" x="123.88" y="4.29" width="0.39" height="31.46"/><rect class="cls-47" x="124.27" y="4.29" width="0.39" height="31.46"/><rect class="cls-54" x="124.66" y="4.29" width="0.39" height="31.46"/><rect class="cls-53" x="125.05" y="4.29" width="0.39" height="31.46"/><rect class="cls-52" x="125.44" y="4.29" width="0.39" height="31.46"/><rect class="cls-51" x="125.82" y="4.29" width="0.39" height="31.46"/><rect class="cls-50" x="126.21" y="4.29" width="0.39" height="31.46"/><rect class="cls-49" x="126.6" y="4.29" width="0.39" height="31.46"/><rect class="cls-48" x="126.99" y="4.29" width="0.39" height="31.46"/><rect class="cls-48" x="127.38" y="4.29" width="0.37" height="31.46"/><rect class="cls-49" x="127.75" y="4.29" width="0.37" height="31.46"/><rect class="cls-50" x="128.12" y="4.29" width="0.37" height="31.46"/><rect class="cls-51" x="128.5" y="4.29" width="0.37" height="31.46"/><rect class="cls-52" x="128.87" y="4.29" width="0.37" height="31.46"/><rect class="cls-53" x="129.24" y="4.29" width="0.37" height="31.46"/><rect class="cls-54" x="129.62" y="4.29" width="0.37" height="31.46"/><rect class="cls-47" x="129.99" y="4.29" width="0.37" height="31.46"/><rect class="cls-46" x="130.36" y="4.29" width="0.37" height="31.46"/><rect class="cls-45" x="130.73" y="4.29" width="0.37" height="31.46"/><rect class="cls-44" x="131.11" y="4.29" width="0.37" height="31.46"/><rect class="cls-43" x="131.48" y="4.29" width="0.37" height="31.46"/><rect class="cls-42" x="131.85" y="4.29" width="0.37" height="31.46"/><rect class="cls-41" x="132.23" y="4.29" width="0.37" height="31.46"/><rect class="cls-40" x="132.6" y="4.29" width="0.37" height="31.46"/><rect class="cls-39" x="132.97" y="4.29" width="0.37" height="31.46"/><rect class="cls-38" x="133.35" y="4.29" width="0.37" height="31.46"/><rect class="cls-37" x="133.72" y="4.29" width="0.37" height="31.46"/><rect class="cls-36" x="134.09" y="4.29" width="0.37" height="31.46"/><rect class="cls-35" x="134.47" y="4.29" width="0.37" height="31.46"/><rect class="cls-34" x="134.84" y="4.29" width="0.37" height="31.46"/><rect class="cls-33" x="135.21" y="4.29" width="0.37" height="31.46"/><rect class="cls-32" x="135.58" y="4.29" width="0.37" height="31.46"/><rect class="cls-31" x="135.96" y="4.29" width="0.37" height="31.46"/><rect class="cls-30" x="136.33" y="4.29" width="0.37" height="31.46"/><rect class="cls-29" x="136.7" y="4.29" width="0.37" height="31.46"/><rect class="cls-28" x="137.08" y="4.29" width="0.37" height="31.46"/><rect class="cls-27" x="137.45" y="4.29" width="0.37" height="31.46"/><rect class="cls-26" x="137.82" y="4.29" width="0.37" height="31.46"/><rect class="cls-25" x="138.2" y="4.29" width="0.37" height="31.46"/><rect class="cls-24" x="138.57" y="4.29" width="0.37" height="31.46"/><rect class="cls-23" x="138.94" y="4.29" width="0.37" height="31.46"/><rect class="cls-22" x="139.32" y="4.29" width="0.37" height="31.46"/><rect class="cls-21" x="139.69" y="4.29" width="0.37" height="31.46"/><rect class="cls-20" x="140.06" y="4.29" width="0.37" height="31.46"/><rect class="cls-87" x="140.44" y="4.29" width="0.37" height="31.46"/><rect class="cls-88" x="140.81" y="4.29" width="0.37" height="31.46"/><rect class="cls-89" x="141.18" y="4.29" width="0.37" height="31.46"/><rect class="cls-90" x="141.55" y="4.29" width="0.37" height="31.46"/><rect class="cls-91" x="141.93" y="4.29" width="0.37" height="31.46"/><rect class="cls-92" x="142.3" y="4.29" width="0.37" height="31.46"/><rect class="cls-93" x="142.67" y="4.29" width="0.37" height="31.46"/><rect class="cls-12" x="143.05" y="4.29" width="0.37" height="31.46"/><rect class="cls-11" x="143.42" y="4.29" width="0.37" height="31.46"/><rect class="cls-10" x="143.79" y="4.29" width="0.37" height="31.46"/><rect class="cls-9" x="144.17" y="4.29" width="0.37" height="31.46"/><rect class="cls-8" x="144.54" y="4.29" width="0.37" height="31.46"/><rect class="cls-7" x="144.91" y="4.29" width="0.37" height="31.46"/><rect class="cls-6" x="145.29" y="4.29" width="0.37" height="31.46"/><rect class="cls-5" x="145.66" y="4.29" width="0.37" height="31.46"/><rect class="cls-4" x="146.03" y="4.29" width="0.37" height="31.46"/><rect class="cls-3" x="146.4" y="4.29" width="0.37" height="31.46"/><rect class="cls-55" x="146.78" y="4.29" width="0.37" height="31.46"/><rect class="cls-56" x="147.15" y="4.29" width="0.37" height="31.46"/><rect class="cls-57" x="147.52" y="4.29" width="0.37" height="31.46"/><rect class="cls-58" x="147.9" y="4.29" width="0.37" height="31.46"/><rect class="cls-59" x="148.27" y="4.29" width="0.37" height="31.46"/><rect class="cls-60" x="148.64" y="4.29" width="0.37" height="31.46"/><rect class="cls-61" x="149.02" y="4.29" width="0.37" height="31.46"/><rect class="cls-62" x="149.39" y="4.29" width="0.37" height="31.46"/><rect class="cls-63" x="149.76" y="4.29" width="0.37" height="31.46"/><rect class="cls-64" x="150.14" y="4.29" width="0.37" height="31.46"/><rect class="cls-65" x="150.51" y="4.29" width="0.37" height="31.46"/><rect class="cls-66" x="150.88" y="4.29" width="0.37" height="31.46"/><rect class="cls-67" x="151.26" y="4.29" width="0.37" height="31.46"/><rect class="cls-68" x="151.63" y="4.29" width="0.37" height="31.46"/><rect class="cls-69" x="152" y="4.29" width="0.37" height="31.46"/><rect class="cls-70" x="152.37" y="4.29" width="0.37" height="31.46"/><rect class="cls-71" x="152.75" y="4.29" width="0.37" height="31.46"/><rect class="cls-72" x="153.12" y="4.29" width="0.37" height="31.46"/><rect class="cls-73" x="153.49" y="4.29" width="0.37" height="31.46"/><rect class="cls-73" x="153.87" y="4.29" width="4.03" height="31.46"/></g><g class="cls-94"><rect class="cls-85" x="129" y="4.64" width="0.42" height="20.45"/><rect class="cls-84" x="129.42" y="4.64" width="0.42" height="20.45"/><rect class="cls-83" x="129.84" y="4.64" width="0.42" height="20.45"/><rect class="cls-82" x="130.26" y="4.64" width="0.42" height="20.45"/><rect class="cls-81" x="130.67" y="4.64" width="0.42" height="20.45"/><rect class="cls-80" x="131.09" y="4.64" width="0.42" height="20.45"/><rect class="cls-79" x="131.51" y="4.64" width="0.42" height="20.45"/><rect class="cls-78" x="131.93" y="4.64" width="0.42" height="20.45"/><rect class="cls-77" x="132.35" y="4.64" width="0.42" height="20.45"/><rect class="cls-76" x="132.77" y="4.64" width="0.42" height="20.45"/><rect class="cls-75" x="133.19" y="4.64" width="0.42" height="20.45"/><rect class="cls-74" x="133.61" y="4.64" width="0.42" height="20.45"/><rect class="cls-73" x="134.02" y="4.64" width="0.42" height="20.45"/><rect class="cls-72" x="134.44" y="4.64" width="0.42" height="20.45"/><rect class="cls-71" x="134.86" y="4.64" width="0.42" height="20.45"/><rect class="cls-70" x="135.28" y="4.64" width="0.42" height="20.45"/><rect class="cls-69" x="135.7" y="4.64" width="0.42" height="20.45"/><rect class="cls-68" x="136.12" y="4.64" width="0.42" height="20.45"/><rect class="cls-67" x="136.54" y="4.64" width="0.42" height="20.45"/><rect class="cls-66" x="136.96" y="4.64" width="0.42" height="20.45"/><rect class="cls-65" x="137.37" y="4.64" width="0.42" height="20.45"/><rect class="cls-64" x="137.79" y="4.64" width="0.42" height="20.45"/><rect class="cls-63" x="138.21" y="4.64" width="0.42" height="20.45"/><rect class="cls-62" x="138.63" y="4.64" width="0.42" height="20.45"/><rect class="cls-61" x="139.05" y="4.64" width="0.42" height="20.45"/><rect class="cls-60" x="139.47" y="4.64" width="0.42" height="20.45"/><rect class="cls-59" x="139.89" y="4.64" width="0.42" height="20.45"/><rect class="cls-58" x="140.3" y="4.64" width="0.42" height="20.45"/><rect class="cls-57" x="140.72" y="4.64" width="0.42" height="20.45"/><rect class="cls-56" x="141.14" y="4.64" width="0.42" height="20.45"/><rect class="cls-55" x="141.56" y="4.64" width="0.42" height="20.45"/><rect class="cls-3" x="141.98" y="4.64" width="0.42" height="20.45"/><rect class="cls-4" x="142.4" y="4.64" width="0.42" height="20.45"/><rect class="cls-5" x="142.82" y="4.64" width="0.42" height="20.45"/><rect class="cls-6" x="143.24" y="4.64" width="0.42" height="20.45"/><rect class="cls-7" x="143.65" y="4.64" width="0.42" height="20.45"/><rect class="cls-8" x="144.07" y="4.64" width="0.42" height="20.45"/><rect class="cls-9" x="144.49" y="4.64" width="0.42" height="20.45"/><rect class="cls-10" x="144.91" y="4.64" width="0.42" height="20.45"/><rect class="cls-11" x="145.33" y="4.64" width="0.42" height="20.45"/><rect class="cls-12" x="145.75" y="4.64" width="0.42" height="20.45"/><rect class="cls-13" x="146.17" y="4.64" width="0.42" height="20.45"/><rect class="cls-14" x="146.59" y="4.64" width="0.42" height="20.45"/><rect class="cls-15" x="147" y="4.64" width="0.42" height="20.45"/><rect class="cls-16" x="147.42" y="4.64" width="0.42" height="20.45"/><rect class="cls-17" x="147.84" y="4.64" width="0.42" height="20.45"/><rect class="cls-18" x="148.26" y="4.64" width="0.42" height="20.45"/><rect class="cls-19" x="148.68" y="4.64" width="0.42" height="20.45"/><rect class="cls-20" x="149.1" y="4.64" width="0.42" height="20.45"/><rect class="cls-21" x="149.52" y="4.64" width="0.42" height="20.45"/><rect class="cls-22" x="149.94" y="4.64" width="0.42" height="20.45"/><rect class="cls-23" x="150.35" y="4.64" width="0.42" height="20.45"/><rect class="cls-24" x="150.77" y="4.64" width="0.42" height="20.45"/><rect class="cls-25" x="151.19" y="4.64" width="0.42" height="20.45"/><rect class="cls-26" x="151.61" y="4.64" width="0.42" height="20.45"/><rect class="cls-27" x="152.03" y="4.64" width="0.42" height="20.45"/><rect class="cls-28" x="152.45" y="4.64" width="0.42" height="20.45"/><rect class="cls-29" x="152.87" y="4.64" width="0.42" height="20.45"/><rect class="cls-30" x="153.28" y="4.64" width="0.42" height="20.45"/><rect class="cls-31" x="153.7" y="4.64" width="0.42" height="20.45"/><rect class="cls-32" x="154.12" y="4.64" width="0.42" height="20.45"/><rect class="cls-33" x="154.54" y="4.64" width="0.42" height="20.45"/><rect class="cls-34" x="154.96" y="4.64" width="0.42" height="20.45"/><rect class="cls-35" x="155.38" y="4.64" width="0.42" height="20.45"/><rect class="cls-36" x="155.8" y="4.64" width="0.42" height="20.45"/><rect class="cls-37" x="156.22" y="4.64" width="0.42" height="20.45"/><rect class="cls-38" x="156.63" y="4.64" width="0.42" height="20.45"/><rect class="cls-39" x="157.05" y="4.64" width="0.42" height="20.45"/><rect class="cls-40" x="157.47" y="4.64" width="0.42" height="20.45"/><rect class="cls-41" x="157.89" y="4.64" width="0.42" height="20.45"/><rect class="cls-42" x="158.31" y="4.64" width="0.42" height="20.45"/><rect class="cls-43" x="158.73" y="4.64" width="0.42" height="20.45"/><rect class="cls-44" x="159.15" y="4.64" width="0.42" height="20.45"/><rect class="cls-45" x="159.57" y="4.64" width="0.42" height="20.45"/><rect class="cls-46" x="159.98" y="4.64" width="0.42" height="20.45"/><rect class="cls-47" x="160.4" y="4.64" width="0.42" height="20.45"/><rect class="cls-54" x="160.82" y="4.64" width="0.42" height="20.45"/><rect class="cls-53" x="161.24" y="4.64" width="0.42" height="20.45"/><rect class="cls-52" x="161.66" y="4.64" width="0.42" height="20.45"/><rect class="cls-51" x="162.08" y="4.64" width="0.42" height="20.45"/><rect class="cls-50" x="162.5" y="4.64" width="0.42" height="20.45"/><rect class="cls-49" x="162.91" y="4.64" width="0.42" height="20.45"/><rect class="cls-48" x="163.33" y="4.64" width="0.42" height="20.45"/><rect class="cls-48" x="163.75" y="4.64" width="0.4" height="20.45"/><rect class="cls-49" x="164.15" y="4.64" width="0.4" height="20.45"/><rect class="cls-50" x="164.56" y="4.64" width="0.4" height="20.45"/><rect class="cls-51" x="164.96" y="4.64" width="0.4" height="20.45"/><rect class="cls-52" x="165.36" y="4.64" width="0.4" height="20.45"/><rect class="cls-53" x="165.76" y="4.64" width="0.4" height="20.45"/><rect class="cls-54" x="166.17" y="4.64" width="0.4" height="20.45"/><rect class="cls-47" x="166.57" y="4.64" width="0.4" height="20.45"/><rect class="cls-46" x="166.97" y="4.64" width="0.4" height="20.45"/><rect class="cls-45" x="167.38" y="4.64" width="0.4" height="20.45"/><rect class="cls-44" x="167.78" y="4.64" width="0.4" height="20.45"/><rect class="cls-43" x="168.18" y="4.64" width="0.4" height="20.45"/><rect class="cls-42" x="168.58" y="4.64" width="0.4" height="20.45"/><rect class="cls-41" x="168.99" y="4.64" width="0.4" height="20.45"/><rect class="cls-40" x="169.39" y="4.64" width="0.4" height="20.45"/><rect class="cls-39" x="169.79" y="4.64" width="0.4" height="20.45"/><rect class="cls-38" x="170.19" y="4.64" width="0.4" height="20.45"/><rect class="cls-37" x="170.6" y="4.64" width="0.4" height="20.45"/><rect class="cls-36" x="171" y="4.64" width="0.4" height="20.45"/><rect class="cls-35" x="171.4" y="4.64" width="0.4" height="20.45"/><rect class="cls-34" x="171.8" y="4.64" width="0.4" height="20.45"/><rect class="cls-33" x="172.21" y="4.64" width="0.4" height="20.45"/><rect class="cls-32" x="172.61" y="4.64" width="0.4" height="20.45"/><rect class="cls-31" x="173.01" y="4.64" width="0.4" height="20.45"/><rect class="cls-30" x="173.41" y="4.64" width="0.4" height="20.45"/><rect class="cls-29" x="173.82" y="4.64" width="0.4" height="20.45"/><rect class="cls-28" x="174.22" y="4.64" width="0.4" height="20.45"/><rect class="cls-27" x="174.62" y="4.64" width="0.4" height="20.45"/><rect class="cls-26" x="175.02" y="4.64" width="0.4" height="20.45"/><rect class="cls-25" x="175.43" y="4.64" width="0.4" height="20.45"/><rect class="cls-24" x="175.83" y="4.64" width="0.4" height="20.45"/><rect class="cls-23" x="176.23" y="4.64" width="0.4" height="20.45"/><rect class="cls-22" x="176.63" y="4.64" width="0.4" height="20.45"/><rect class="cls-21" x="177.04" y="4.64" width="0.4" height="20.45"/><rect class="cls-20" x="177.44" y="4.64" width="0.4" height="20.45"/><rect class="cls-87" x="177.84" y="4.64" width="0.4" height="20.45"/><rect class="cls-88" x="178.24" y="4.64" width="0.4" height="20.45"/><rect class="cls-89" x="178.65" y="4.64" width="0.4" height="20.45"/><rect class="cls-90" x="179.05" y="4.64" width="0.4" height="20.45"/><rect class="cls-91" x="179.45" y="4.64" width="0.4" height="20.45"/><rect class="cls-92" x="179.85" y="4.64" width="0.4" height="20.45"/><rect class="cls-93" x="180.26" y="4.64" width="0.4" height="20.45"/><rect class="cls-12" x="180.66" y="4.64" width="0.4" height="20.45"/><rect class="cls-11" x="181.06" y="4.64" width="0.4" height="20.45"/><rect class="cls-10" x="181.46" y="4.64" width="0.4" height="20.45"/><rect class="cls-9" x="181.87" y="4.64" width="0.4" height="20.45"/><rect class="cls-8" x="182.27" y="4.64" width="0.4" height="20.45"/><rect class="cls-7" x="182.67" y="4.64" width="0.4" height="20.45"/><rect class="cls-6" x="183.07" y="4.64" width="0.4" height="20.45"/><rect class="cls-5" x="183.48" y="4.64" width="0.4" height="20.45"/><rect class="cls-4" x="183.88" y="4.64" width="0.4" height="20.45"/><rect class="cls-3" x="184.28" y="4.64" width="0.4" height="20.45"/><rect class="cls-55" x="184.68" y="4.64" width="0.4" height="20.45"/><rect class="cls-56" x="185.09" y="4.64" width="0.4" height="20.45"/><rect class="cls-57" x="185.49" y="4.64" width="0.4" height="20.45"/><rect class="cls-58" x="185.89" y="4.64" width="0.4" height="20.45"/><rect class="cls-59" x="186.3" y="4.64" width="0.4" height="20.45"/><rect class="cls-60" x="186.7" y="4.64" width="0.4" height="20.45"/><rect class="cls-61" x="187.1" y="4.64" width="0.4" height="20.45"/><rect class="cls-62" x="187.5" y="4.64" width="0.4" height="20.45"/><rect class="cls-63" x="187.91" y="4.64" width="0.4" height="20.45"/><rect class="cls-64" x="188.31" y="4.64" width="0.4" height="20.45"/><rect class="cls-65" x="188.71" y="4.64" width="0.4" height="20.45"/><rect class="cls-66" x="189.11" y="4.64" width="0.4" height="20.45"/><rect class="cls-67" x="189.52" y="4.64" width="0.4" height="20.45"/><rect class="cls-68" x="189.92" y="4.64" width="0.4" height="20.45"/><rect class="cls-69" x="190.32" y="4.64" width="0.4" height="20.45"/><rect class="cls-70" x="190.72" y="4.64" width="0.4" height="20.45"/><rect class="cls-71" x="191.13" y="4.64" width="0.4" height="20.45"/><rect class="cls-72" x="191.53" y="4.64" width="0.4" height="20.45"/><rect class="cls-73" x="191.93" y="4.64" width="0.4" height="20.45"/></g></svg>